ISO-10303-21;
HEADER;
FILE_DESCRIPTION(('Open CASCADE Model'),'2;1');
FILE_NAME('Open CASCADE Shape Model','2026-09-14T10:17:58',('Author'),(
    'Open CASCADE'),'Open CASCADE STEP processor 7.9','Open CASCADE 7.9'
  ,'Unknown');
FILE_SCHEMA(('AUTOMOTIVE_DESIGN { 1 0 10303 214 1 1 1 1 }'));
ENDSEC;
DATA;
#1 = APPLICATION_PROTOCOL_DEFINITION('international standard',
  'automotive_design',2000,#2);
#2 = APPLICATION_CONTEXT(
  'core data for automotive mechanical design processes');
#3 = SHAPE_DEFINITION_REPRESENTATION(#4,#10);
#4 = PRODUCT_DEFINITION_SHAPE('','',#5);
#5 = PRODUCT_DEFINITION('design','',#6,#9);
#6 = PRODUCT_DEFINITION_FORMATION('','',#7);
#7 = PRODUCT('Open CASCADE STEP translator 7.9 1',
  'Open CASCADE STEP translator 7.9 1','',(#8));
#8 = PRODUCT_CONTEXT('',#2,'mechanical');
#9 = PRODUCT_DEFINITION_CONTEXT('part definition',#2,'design');
#10 = ADVANCED_BREP_SHAPE_REPRESENTATION('',(#11,#15),#58);
#11 = AXIS2_PLACEMENT_3D('',#12,#13,#14);
#12 = CARTESIAN_POINT('',(0.,0.,0.));
#13 = DIRECTION('',(0.,0.,1.));
#14 = DIRECTION('',(1.,0.,-0.));
#15 = MANIFOLD_SOLID_BREP('',#16);
#16 = CLOSED_SHELL('',(#17));
#17 = ADVANCED_FACE('',(#18),#22,.T.);
#18 = FACE_BOUND('',#19,.T.);
#19 = VERTEX_LOOP('',#20);
#20 = VERTEX_POINT('',#21);
#21 = CARTESIAN_POINT('',(9.184850993605E-15,-2.249639673993E-30,-132.)
  );
#22 = ( BOUNDED_SURFACE() B_SPLINE_SURFACE(2,2,(
    (#23,#24,#25,#26,#27)
    ,(#28,#29,#30,#31,#32)
    ,(#33,#34,#35,#36,#37)
    ,(#38,#39,#40,#41,#42)
    ,(#43,#44,#45,#46,#47)
    ,(#48,#49,#50,#51,#52)
    ,(#53,#54,#55,#56,#57
)),.UNSPECIFIED.,.T.,.F.,.F.) B_SPLINE_SURFACE_WITH_KNOTS((1,2,2,2,2,1),
  (3,2,3),(-2.094395102393,0.,2.094395102393,4.188790204786,
    6.28318530718,8.377580409573),(-1.570796326795,0.,1.570796326795),
.UNSPECIFIED.) GEOMETRIC_REPRESENTATION_ITEM() RATIONAL_B_SPLINE_SURFACE
((
    (1.,0.707106781187,1.,0.707106781187,1.)
    ,(0.5,0.353553390593,0.5,0.353553390593,0.5)
    ,(1.,0.707106781187,1.,0.707106781187,1.)
    ,(0.5,0.353553390593,0.5,0.353553390593,0.5)
    ,(1.,0.707106781187,1.,0.707106781187,1.)
    ,(0.5,0.353553390593,0.5,0.353553390593,0.5)
,(1.,0.707106781187,1.,0.707106781187,1.
))) REPRESENTATION_ITEM('') SURFACE() );
#23 = CARTESIAN_POINT('',(9.184850993605E-15,0.,-132.));
#24 = CARTESIAN_POINT('',(150.,0.,-132.));
#25 = CARTESIAN_POINT('',(150.,0.,0.));
#26 = CARTESIAN_POINT('',(150.,0.,132.));
#27 = CARTESIAN_POINT('',(9.184850993605E-15,0.,132.));
#28 = CARTESIAN_POINT('',(9.184850993605E-15,1.590862858087E-14,-132.));
#29 = CARTESIAN_POINT('',(150.,259.80762113533,-132.));
#30 = CARTESIAN_POINT('',(150.,259.80762113533,0.));
#31 = CARTESIAN_POINT('',(150.,259.80762113533,132.));
#32 = CARTESIAN_POINT('',(9.184850993605E-15,1.590862858087E-14,132.));
#33 = CARTESIAN_POINT('',(-4.592425496803E-15,7.954314290437E-15,-132.)
  );
#34 = CARTESIAN_POINT('',(-75.,129.90381056766,-132.));
#35 = CARTESIAN_POINT('',(-75.,129.90381056766,0.));
#36 = CARTESIAN_POINT('',(-75.,129.90381056766,132.));
#37 = CARTESIAN_POINT('',(-4.592425496803E-15,7.954314290437E-15,132.));
#38 = CARTESIAN_POINT('',(-1.836970198721E-14,2.249639673993E-30,-132.)
  );
#39 = CARTESIAN_POINT('',(-300.,3.673940397442E-14,-132.));
#40 = CARTESIAN_POINT('',(-300.,3.673940397442E-14,0.));
#41 = CARTESIAN_POINT('',(-300.,3.673940397442E-14,132.));
#42 = CARTESIAN_POINT('',(-1.836970198721E-14,2.249639673993E-30,132.));
#43 = CARTESIAN_POINT('',(-4.592425496803E-15,-7.954314290437E-15,-132.)
  );
#44 = CARTESIAN_POINT('',(-75.,-129.9038105676,-132.));
#45 = CARTESIAN_POINT('',(-75.,-129.9038105676,0.));
#46 = CARTESIAN_POINT('',(-75.,-129.9038105676,132.));
#47 = CARTESIAN_POINT('',(-4.592425496803E-15,-7.954314290437E-15,132.)
  );
#48 = CARTESIAN_POINT('',(9.184850993605E-15,-1.590862858087E-14,-132.)
  );
#49 = CARTESIAN_POINT('',(150.,-259.8076211353,-132.));
#50 = CARTESIAN_POINT('',(150.,-259.8076211353,0.));
#51 = CARTESIAN_POINT('',(150.,-259.8076211353,132.));
#52 = CARTESIAN_POINT('',(9.184850993605E-15,-1.590862858087E-14,132.));
#53 = CARTESIAN_POINT('',(9.184850993605E-15,0.,-132.));
#54 = CARTESIAN_POINT('',(150.,0.,-132.));
#55 = CARTESIAN_POINT('',(150.,0.,0.));
#56 = CARTESIAN_POINT('',(150.,0.,132.));
#57 = CARTESIAN_POINT('',(9.184850993605E-15,0.,132.));
#58 = ( GEOMETRIC_REPRESENTATION_CONTEXT(3) 
GLOBAL_UNCERTAINTY_ASSIGNED_CONTEXT((#62)) GLOBAL_UNIT_ASSIGNED_CONTEXT(
(#59,#60,#61)) REPRESENTATION_CONTEXT('Context #1',
  '3D Context with UNIT and UNCERTAINTY') );
#59 = ( LENGTH_UNIT() NAMED_UNIT(*) SI_UNIT(.MILLI.,.METRE.) );
#60 = ( NAMED_UNIT(*) PLANE_ANGLE_UNIT() SI_UNIT($,.RADIAN.) );
#61 = ( NAMED_UNIT(*) SI_UNIT($,.STERADIAN.) SOLID_ANGLE_UNIT() );
#62 = UNCERTAINTY_MEASURE_WITH_UNIT(LENGTH_MEASURE(1.E-07),#59,
  'distance_accuracy_value','confusion accuracy');
#63 = PRODUCT_RELATED_PRODUCT_CATEGORY('part',$,(#7));
ENDSEC;
END-ISO-10303-21;
