ISO-10303-21;
HEADER;
FILE_DESCRIPTION(('Open CASCADE Model'),'2;1');
FILE_NAME('Open CASCADE Shape Model','2026-09-14T10:37:53',('Author'),(
    'Open CASCADE'),'Open CASCADE STEP processor 7.9','Open CASCADE 7.9'
  ,'Unknown');
FILE_SCHEMA(('AUTOMOTIVE_DESIGN { 1 0 10303 214 1 1 1 1 }'));
ENDSEC;
DATA;
#1 = APPLICATION_PROTOCOL_DEFINITION('international standard',
  'automotive_design',2000,#2);
#2 = APPLICATION_CONTEXT(
  'core data for automotive mechanical design processes');
#3 = SHAPE_DEFINITION_REPRESENTATION(#4,#10);
#4 = PRODUCT_DEFINITION_SHAPE('','',#5);
#5 = PRODUCT_DEFINITION('design','',#6,#9);
#6 = PRODUCT_DEFINITION_FORMATION('','',#7);
#7 = PRODUCT('f5407b91-b01f-11f1-bd56-3c9c0f4bdafb',
  'f5407b91-b01f-11f1-bd56-3c9c0f4bdafb','',(#8));
#8 = PRODUCT_CONTEXT('',#2,'mechanical');
#9 = PRODUCT_DEFINITION_CONTEXT('part definition',#2,'design');
#10 = SHAPE_REPRESENTATION('',(#11,#15),#19);
#11 = AXIS2_PLACEMENT_3D('',#12,#13,#14);
#12 = CARTESIAN_POINT('',(0.,0.,0.));
#13 = DIRECTION('',(0.,0.,1.));
#14 = DIRECTION('',(1.,0.,-0.));
#15 = AXIS2_PLACEMENT_3D('',#16,#17,#18);
#16 = CARTESIAN_POINT('',(0.,0.,0.));
#17 = DIRECTION('',(0.,0.,1.));
#18 = DIRECTION('',(1.,0.,-0.));
#19 = ( GEOMETRIC_REPRESENTATION_CONTEXT(3) 
GLOBAL_UNCERTAINTY_ASSIGNED_CONTEXT((#23)) GLOBAL_UNIT_ASSIGNED_CONTEXT(
(#20,#21,#22)) REPRESENTATION_CONTEXT('Context #1',
  '3D Context with UNIT and UNCERTAINTY') );
#20 = ( LENGTH_UNIT() NAMED_UNIT(*) SI_UNIT(.MILLI.,.METRE.) );
#21 = ( NAMED_UNIT(*) PLANE_ANGLE_UNIT() SI_UNIT($,.RADIAN.) );
#22 = ( NAMED_UNIT(*) SI_UNIT($,.STERADIAN.) SOLID_ANGLE_UNIT() );
#23 = UNCERTAINTY_MEASURE_WITH_UNIT(LENGTH_MEASURE(1.E-07),#20,
  'distance_accuracy_value','confusion accuracy');
#24 = PRODUCT_RELATED_PRODUCT_CATEGORY('part',$,(#7));
#25 = SHAPE_DEFINITION_REPRESENTATION(#26,#32);
#26 = PRODUCT_DEFINITION_SHAPE('','',#27);
#27 = PRODUCT_DEFINITION('design','',#28,#31);
#28 = PRODUCT_DEFINITION_FORMATION('','',#29);
#29 = PRODUCT('part0','part0','',(#30));
#30 = PRODUCT_CONTEXT('',#2,'mechanical');
#31 = PRODUCT_DEFINITION_CONTEXT('part definition',#2,'design');
#32 = SHAPE_REPRESENTATION('',(#11,#33,#1125),#1223);
#33 = MANIFOLD_SOLID_BREP('',#34);
#34 = CLOSED_SHELL('',(#35,#901,#974,#1053,#1057,#1112,#1117,#1121));
#35 = ADVANCED_FACE('',(#36,#388),#50,.T.);
#36 = FACE_BOUND('',#37,.F.);
#37 = EDGE_LOOP('',(#38,#68,#95,#96,#125,#366));
#38 = ORIENTED_EDGE('',*,*,#39,.F.);
#39 = EDGE_CURVE('',#40,#42,#44,.T.);
#40 = VERTEX_POINT('',#41);
#41 = CARTESIAN_POINT('',(-1.172E+03,0.,0.));
#42 = VERTEX_POINT('',#43);
#43 = CARTESIAN_POINT('',(-1.172E+03,0.,1.1E+03));
#44 = SEAM_CURVE('',#45,(#49,#61),.PCURVE_S1.);
#45 = LINE('',#46,#47);
#46 = CARTESIAN_POINT('',(-1.172E+03,0.,0.));
#47 = VECTOR('',#48,1.);
#48 = DIRECTION('',(0.,0.,1.));
#49 = PCURVE('',#50,#55);
#50 = CYLINDRICAL_SURFACE('',#51,28.);
#51 = AXIS2_PLACEMENT_3D('',#52,#53,#54);
#52 = CARTESIAN_POINT('',(-1.2E+03,0.,0.));
#53 = DIRECTION('',(-0.,-0.,-1.));
#54 = DIRECTION('',(1.,0.,0.));
#55 = DEFINITIONAL_REPRESENTATION('',(#56),#60);
#56 = LINE('',#57,#58);
#57 = CARTESIAN_POINT('',(-6.28318530718,0.));
#58 = VECTOR('',#59,1.);
#59 = DIRECTION('',(-0.,-1.));
#60 = ( GEOMETRIC_REPRESENTATION_CONTEXT(2) 
PARAMETRIC_REPRESENTATION_CONTEXT() REPRESENTATION_CONTEXT('2D SPACE',''
  ) );
#61 = PCURVE('',#50,#62);
#62 = DEFINITIONAL_REPRESENTATION('',(#63),#67);
#63 = LINE('',#64,#65);
#64 = CARTESIAN_POINT('',(-0.,0.));
#65 = VECTOR('',#66,1.);
#66 = DIRECTION('',(-0.,-1.));
#67 = ( GEOMETRIC_REPRESENTATION_CONTEXT(2) 
PARAMETRIC_REPRESENTATION_CONTEXT() REPRESENTATION_CONTEXT('2D SPACE',''
  ) );
#68 = ORIENTED_EDGE('',*,*,#69,.F.);
#69 = EDGE_CURVE('',#40,#40,#70,.T.);
#70 = SURFACE_CURVE('',#71,(#76,#83),.PCURVE_S1.);
#71 = CIRCLE('',#72,28.);
#72 = AXIS2_PLACEMENT_3D('',#73,#74,#75);
#73 = CARTESIAN_POINT('',(-1.2E+03,0.,0.));
#74 = DIRECTION('',(0.,0.,1.));
#75 = DIRECTION('',(1.,0.,0.));
#76 = PCURVE('',#50,#77);
#77 = DEFINITIONAL_REPRESENTATION('',(#78),#82);
#78 = LINE('',#79,#80);
#79 = CARTESIAN_POINT('',(-0.,0.));
#80 = VECTOR('',#81,1.);
#81 = DIRECTION('',(-1.,0.));
#82 = ( GEOMETRIC_REPRESENTATION_CONTEXT(2) 
PARAMETRIC_REPRESENTATION_CONTEXT() REPRESENTATION_CONTEXT('2D SPACE',''
  ) );
#83 = PCURVE('',#84,#89);
#84 = PLANE('',#85);
#85 = AXIS2_PLACEMENT_3D('',#86,#87,#88);
#86 = CARTESIAN_POINT('',(-1.2E+03,-1.143003679204E-15,0.));
#87 = DIRECTION('',(0.,0.,1.));
#88 = DIRECTION('',(1.,0.,-0.));
#89 = DEFINITIONAL_REPRESENTATION('',(#90),#94);
#90 = CIRCLE('',#91,28.);
#91 = AXIS2_PLACEMENT_2D('',#92,#93);
#92 = CARTESIAN_POINT('',(0.,1.143003679204E-15));
#93 = DIRECTION('',(1.,0.));
#94 = ( GEOMETRIC_REPRESENTATION_CONTEXT(2) 
PARAMETRIC_REPRESENTATION_CONTEXT() REPRESENTATION_CONTEXT('2D SPACE',''
  ) );
#95 = ORIENTED_EDGE('',*,*,#39,.T.);
#96 = ORIENTED_EDGE('',*,*,#97,.T.);
#97 = EDGE_CURVE('',#42,#98,#100,.T.);
#98 = VERTEX_POINT('',#99);
#99 = CARTESIAN_POINT('',(-1.222E+03,-17.32050807568,1.1E+03));
#100 = SURFACE_CURVE('',#101,(#106,#113),.PCURVE_S1.);
#101 = CIRCLE('',#102,28.);
#102 = AXIS2_PLACEMENT_3D('',#103,#104,#105);
#103 = CARTESIAN_POINT('',(-1.2E+03,0.,1.1E+03));
#104 = DIRECTION('',(0.,0.,1.));
#105 = DIRECTION('',(1.,0.,0.));
#106 = PCURVE('',#50,#107);
#107 = DEFINITIONAL_REPRESENTATION('',(#108),#112);
#108 = LINE('',#109,#110);
#109 = CARTESIAN_POINT('',(-0.,-1.1E+03));
#110 = VECTOR('',#111,1.);
#111 = DIRECTION('',(-1.,0.));
#112 = ( GEOMETRIC_REPRESENTATION_CONTEXT(2) 
PARAMETRIC_REPRESENTATION_CONTEXT() REPRESENTATION_CONTEXT('2D SPACE',''
  ) );
#113 = PCURVE('',#114,#119);
#114 = PLANE('',#115);
#115 = AXIS2_PLACEMENT_3D('',#116,#117,#118);
#116 = CARTESIAN_POINT('',(-1.2E+03,-1.143003679204E-15,1.1E+03));
#117 = DIRECTION('',(0.,0.,1.));
#118 = DIRECTION('',(1.,0.,-0.));
#119 = DEFINITIONAL_REPRESENTATION('',(#120),#124);
#120 = CIRCLE('',#121,28.);
#121 = AXIS2_PLACEMENT_2D('',#122,#123);
#122 = CARTESIAN_POINT('',(0.,1.143003679204E-15));
#123 = DIRECTION('',(1.,0.));
#124 = ( GEOMETRIC_REPRESENTATION_CONTEXT(2) 
PARAMETRIC_REPRESENTATION_CONTEXT() REPRESENTATION_CONTEXT('2D SPACE',''
  ) );
#125 = ORIENTED_EDGE('',*,*,#126,.T.);
#126 = EDGE_CURVE('',#98,#127,#129,.T.);
#127 = VERTEX_POINT('',#128);
#128 = CARTESIAN_POINT('',(-1.178E+03,-17.32050807569,1.1E+03));
#129 = SURFACE_CURVE('',#130,(#205,#283),.PCURVE_S1.);
#130 = B_SPLINE_CURVE_WITH_KNOTS('',7,(#131,#132,#133,#134,#135,#136,
    #137,#138,#139,#140,#141,#142,#143,#144,#145,#146,#147,#148,#149,
    #150,#151,#152,#153,#154,#155,#156,#157,#158,#159,#160,#161,#162,
    #163,#164,#165,#166,#167,#168,#169,#170,#171,#172,#173,#174,#175,
    #176,#177,#178,#179,#180,#181,#182,#183,#184,#185,#186,#187,#188,
    #189,#190,#191,#192,#193,#194,#195,#196,#197,#198,#199,#200,#201,
    #202,#203,#204),.UNSPECIFIED.,.F.,.F.,(8,6,6,6,6,6,6,6,6,6,6,6,8),(
    0.,9.258106337797E-02,0.214534232835,0.351291714148,0.400945618441,
    0.438779688636,0.500072785853,0.540477369805,0.599325319404,
    0.649371918372,0.785399490391,0.907479741284,1.),.UNSPECIFIED.);
#131 = CARTESIAN_POINT('',(-1.222E+03,-17.32050807568,1.1000000006E+03)
  );
#132 = CARTESIAN_POINT('',(-1.222000000023E+03,-17.32050804627,
    1.099150791758E+03));
#133 = CARTESIAN_POINT('',(-1.221961756438E+03,-17.36908321335,
    1.098304407515E+03));
#134 = CARTESIAN_POINT('',(-1.22188573003E+03,-17.46565200667,
    1.097462943311E+03));
#135 = CARTESIAN_POINT('',(-1.221772516661E+03,-17.60805969994,
    1.096628646251E+03));
#136 = CARTESIAN_POINT('',(-1.221622962296E+03,-17.79254975038,
    1.095804312305E+03));
#137 = CARTESIAN_POINT('',(-1.221438531902E+03,-18.0138723484,
    1.094993548095E+03));
#138 = CARTESIAN_POINT('',(-1.220936614512E+03,-18.59702852956,
    1.093156771392E+03));
#139 = CARTESIAN_POINT('',(-1.220594404623E+03,-18.98240887934,
    1.092140150768E+03));
#140 = CARTESIAN_POINT('',(-1.22019751362E+03,-19.411262072,
    1.09115008984E+03));
#141 = CARTESIAN_POINT('',(-1.219747048086E+03,-19.87391074061,
    1.090186338333E+03));
#142 = CARTESIAN_POINT('',(-1.219243348517E+03,-20.36197051794,
    1.089248964164E+03));
#143 = CARTESIAN_POINT('',(-1.218685817794E+03,-20.86826967279,
    1.088338247137E+03));
#144 = CARTESIAN_POINT('',(-1.217385045159E+03,-21.96749042259,
    1.086464334641E+03));
#145 = CARTESIAN_POINT('',(-1.216628221736E+03,-22.56283569165,
    1.085509264324E+03));
#146 = CARTESIAN_POINT('',(-1.215798149855E+03,-23.16488973106,
    1.08458806054E+03));
#147 = CARTESIAN_POINT('',(-1.214888932551E+03,-23.76673168851,
    1.083701850515E+03));
#148 = CARTESIAN_POINT('',(-1.213893512237E+03,-24.36025673143,
    1.082854940607E+03));
#149 = CARTESIAN_POINT('',(-1.212804475129E+03,-24.93500860824,
    1.082055435188E+03));
#150 = CARTESIAN_POINT('',(-1.211182969453E+03,-25.67423841158,
    1.0810474319E+03));
#151 = CARTESIAN_POINT('',(-1.21073751415E+03,-25.86699952118,
    1.080786665929E+03));
#152 = CARTESIAN_POINT('',(-1.210278183135E+03,-26.0549384414,
    1.080534273235E+03));
#153 = CARTESIAN_POINT('',(-1.209804669875E+03,-26.2373132339,
    1.080290981313E+03));
#154 = CARTESIAN_POINT('',(-1.209316698022E+03,-26.41331647011,
    1.080057605027E+03));
#155 = CARTESIAN_POINT('',(-1.208814021574E+03,-26.58207505413,
    1.079835046594E+03));
#156 = CARTESIAN_POINT('',(-1.207902039474E+03,-26.86500105888,
    1.079463712629E+03));
#157 = CARTESIAN_POINT('',(-1.207498914108E+03,-26.98262485469,
    1.079309953435E+03));
#158 = CARTESIAN_POINT('',(-1.207087201254E+03,-27.09502358887,
    1.079163564705E+03));
#159 = CARTESIAN_POINT('',(-1.206667071016E+03,-27.2017025097,
    1.079025087438E+03));
#160 = CARTESIAN_POINT('',(-1.206238711305E+03,-27.30217119287,
    1.078895057817E+03));
#161 = CARTESIAN_POINT('',(-1.205802327855E+03,-27.39594477642,
    1.078774008107E+03));
#162 = CARTESIAN_POINT('',(-1.204638544404E+03,-27.62284223198,
    1.078481766274E+03));
#163 = CARTESIAN_POINT('',(-1.20389697048E+03,-27.74460580411,
    1.078325645085E+03));
#164 = CARTESIAN_POINT('',(-1.203137341925E+03,-27.84505164884,
    1.078197327479E+03));
#165 = CARTESIAN_POINT('',(-1.202363690102E+03,-27.92200540352,
    1.078099265917E+03));
#166 = CARTESIAN_POINT('',(-1.201580131155E+03,-27.97394061295,
    1.078033166465E+03));
#167 = CARTESIAN_POINT('',(-1.20079083637E+03,-28.,1.078E+03));
#168 = CARTESIAN_POINT('',(-1.199478678416E+03,-28.,1.078E+03));
#169 = CARTESIAN_POINT('',(-1.198957570918E+03,-27.98867599026,
    1.078014412643E+03));
#170 = CARTESIAN_POINT('',(-1.198438061693E+03,-27.96604472983,
    1.078043215575E+03));
#171 = CARTESIAN_POINT('',(-1.197921526247E+03,-27.93227443875,
    1.078086218703E+03));
#172 = CARTESIAN_POINT('',(-1.197409331289E+03,-27.88768299751,
    1.078143062795E+03));
#173 = CARTESIAN_POINT('',(-1.196902834634E+03,-27.83273614648,
    1.078213218077E+03));
#174 = CARTESIAN_POINT('',(-1.19567595323E+03,-27.67382615326,
    1.078416526982E+03));
#175 = CARTESIAN_POINT('',(-1.19496430738E+03,-27.55904610548,
    1.078563680438E+03));
#176 = CARTESIAN_POINT('',(-1.194269890099E+03,-27.4253355854,
    1.078735602274E+03));
#177 = CARTESIAN_POINT('',(-1.193594039546E+03,-27.27446317804,
    1.078930337721E+03));
#178 = CARTESIAN_POINT('',(-1.192937989189E+03,-27.10832183539,
    1.079145807744E+03));
#179 = CARTESIAN_POINT('',(-1.192302867512E+03,-26.92891470159,
    1.079379798616E+03));
#180 = CARTESIAN_POINT('',(-1.191168234149E+03,-26.57626955307,
    1.07984269129E+03));
#181 = CARTESIAN_POINT('',(-1.190661928572E+03,-26.40589830574,
    1.080067413256E+03));
#182 = CARTESIAN_POINT('',(-1.190170567998E+03,-26.22819159737,
    1.080303100371E+03));
#183 = CARTESIAN_POINT('',(-1.189693896316E+03,-26.04404126334,
    1.080548831838E+03));
#184 = CARTESIAN_POINT('',(-1.189231622207E+03,-25.85426970457,
    1.080803779237E+03));
#185 = CARTESIAN_POINT('',(-1.188783427047E+03,-25.65963301873,
    1.08106720266E+03));
#186 = CARTESIAN_POINT('',(-1.187168118247E+03,-24.92045793728,
    1.082075693573E+03));
#187 = CARTESIAN_POINT('',(-1.186086623662E+03,-24.3482848907,
    1.08287206086E+03));
#188 = CARTESIAN_POINT('',(-1.185097652524E+03,-23.75769374694,
    1.083715225999E+03));
#189 = CARTESIAN_POINT('',(-1.184193914141E+03,-23.15895246327,
    1.084597255301E+03));
#190 = CARTESIAN_POINT('',(-1.18336847495E+03,-22.56003791852,
    1.08551392721E+03));
#191 = CARTESIAN_POINT('',(-1.1826155405E+03,-21.96777677798,
    1.086464128551E+03));
#192 = CARTESIAN_POINT('',(-1.181316919924E+03,-20.87076926683,
    1.088333734241E+03));
#193 = CARTESIAN_POINT('',(-1.180758481145E+03,-20.36376726945,
    1.089245470014E+03));
#194 = CARTESIAN_POINT('',(-1.180254008835E+03,-19.87502723402,
    1.090183928669E+03));
#195 = CARTESIAN_POINT('',(-1.179802901316E+03,-19.41174443055,
    1.091148829023E+03));
#196 = CARTESIAN_POINT('',(-1.179405499378E+03,-18.98233269664,
    1.092140102645E+03));
#197 = CARTESIAN_POINT('',(-1.179062913348E+03,-18.59650579684,
    1.093158000698E+03));
#198 = CARTESIAN_POINT('',(-1.178560956265E+03,-18.01325804266,
    1.094995800034E+03));
#199 = CARTESIAN_POINT('',(-1.178376692189E+03,-17.79212352817,
    1.095806217849E+03));
#200 = CARTESIAN_POINT('',(-1.178227273892E+03,-17.60779625901,
    1.096630189328E+03));
#201 = CARTESIAN_POINT('',(-1.178114164196E+03,-17.46551764991,
    1.097464112191E+03));
#202 = CARTESIAN_POINT('',(-1.178038207939E+03,-17.36903796799,
    1.098305193297E+03));
#203 = CARTESIAN_POINT('',(-1.178E+03,-17.32050807568,1.099151187275E+03
    ));
#204 = CARTESIAN_POINT('',(-1.178E+03,-17.32050807568,1.1E+03));
#205 = PCURVE('',#50,#206);
#206 = DEFINITIONAL_REPRESENTATION('',(#207),#282);
#207 = B_SPLINE_CURVE_WITH_KNOTS('',7,(#208,#209,#210,#211,#212,#213,
    #214,#215,#216,#217,#218,#219,#220,#221,#222,#223,#224,#225,#226,
    #227,#228,#229,#230,#231,#232,#233,#234,#235,#236,#237,#238,#239,
    #240,#241,#242,#243,#244,#245,#246,#247,#248,#249,#250,#251,#252,
    #253,#254,#255,#256,#257,#258,#259,#260,#261,#262,#263,#264,#265,
    #266,#267,#268,#269,#270,#271,#272,#273,#274,#275,#276,#277,#278,
    #279,#280,#281),.UNSPECIFIED.,.F.,.F.,(8,6,6,6,6,6,6,6,6,6,6,6,8),(
    0.,9.258106337797E-02,0.214534232835,0.351291714148,0.400945618441,
    0.438779688636,0.500072785853,0.540477369805,0.599325319404,
    0.649371918372,0.785399490391,0.907479741284,1.),.UNSPECIFIED.);
#208 = CARTESIAN_POINT('',(-3.808538998093,-1.1000000006E+03));
#209 = CARTESIAN_POINT('',(-3.808538996756,-1.099150791758E+03));
#210 = CARTESIAN_POINT('',(-3.810746942206,-1.098304407515E+03));
#211 = CARTESIAN_POINT('',(-3.81513649133,-1.097462943311E+03));
#212 = CARTESIAN_POINT('',(-3.821633667293,-1.096628646251E+03));
#213 = CARTESIAN_POINT('',(-3.830114733416,-1.095804312305E+03));
#214 = CARTESIAN_POINT('',(-3.840402470041,-1.094993548095E+03));
#215 = CARTESIAN_POINT('',(-3.867881409046,-1.093156771392E+03));
#216 = CARTESIAN_POINT('',(-3.88628594817,-1.092140150768E+03));
#217 = CARTESIAN_POINT('',(-3.907147441356,-1.09115008984E+03));
#218 = CARTESIAN_POINT('',(-3.930194280665,-1.090186338333E+03));
#219 = CARTESIAN_POINT('',(-3.955223671057,-1.089248964164E+03));
#220 = CARTESIAN_POINT('',(-3.982103466338,-1.088338247137E+03));
#221 = CARTESIAN_POINT('',(-4.042925804064,-1.086464334641E+03));
#222 = CARTESIAN_POINT('',(-4.0772946988,-1.085509264324E+03));
#223 = CARTESIAN_POINT('',(-4.113870668082,-1.08458806054E+03));
#224 = CARTESIAN_POINT('',(-4.152742922157,-1.083701850515E+03));
#225 = CARTESIAN_POINT('',(-4.194049955073,-1.082854940607E+03));
#226 = CARTESIAN_POINT('',(-4.237954853002,-1.082055435188E+03));
#227 = CARTESIAN_POINT('',(-4.301599888238,-1.0810474319E+03));
#228 = CARTESIAN_POINT('',(-4.318931403198,-1.080786665929E+03));
#229 = CARTESIAN_POINT('',(-4.336650360111,-1.080534273235E+03));
#230 = CARTESIAN_POINT('',(-4.354765269588,-1.080290981313E+03));
#231 = CARTESIAN_POINT('',(-4.373284576614,-1.080057605027E+03));
#232 = CARTESIAN_POINT('',(-4.392216969818,-1.079835046594E+03));
#233 = CARTESIAN_POINT('',(-4.426319128665,-1.079463712629E+03));
#234 = CARTESIAN_POINT('',(-4.44131466181,-1.079309953435E+03));
#235 = CARTESIAN_POINT('',(-4.456553063457,-1.079163564705E+03));
#236 = CARTESIAN_POINT('',(-4.472029330005,-1.079025087438E+03));
#237 = CARTESIAN_POINT('',(-4.48773870229,-1.078895057817E+03));
#238 = CARTESIAN_POINT('',(-4.503676686878,-1.078774008107E+03));
#239 = CARTESIAN_POINT('',(-4.546022963109,-1.078481766274E+03));
#240 = CARTESIAN_POINT('',(-4.572850474581,-1.078325645085E+03));
#241 = CARTESIAN_POINT('',(-4.60019448603,-1.078197327479E+03));
#242 = CARTESIAN_POINT('',(-4.627934686951,-1.078099265917E+03));
#243 = CARTESIAN_POINT('',(-4.655955720185,-1.078033166465E+03));
#244 = CARTESIAN_POINT('',(-4.684144824316,-1.078E+03));
#245 = CARTESIAN_POINT('',(-4.731007608368,-1.078E+03));
#246 = CARTESIAN_POINT('',(-4.749618587906,-1.078014412643E+03));
#247 = CARTESIAN_POINT('',(-4.768183035012,-1.078043215575E+03));
#248 = CARTESIAN_POINT('',(-4.786662317193,-1.078086218703E+03));
#249 = CARTESIAN_POINT('',(-4.805017518645,-1.078143062795E+03));
#250 = CARTESIAN_POINT('',(-4.823208905439,-1.078213218077E+03));
#251 = CARTESIAN_POINT('',(-4.867392115813,-1.078416526982E+03));
#252 = CARTESIAN_POINT('',(-4.893124032113,-1.078563680438E+03));
#253 = CARTESIAN_POINT('',(-4.91836198893,-1.078735602274E+03));
#254 = CARTESIAN_POINT('',(-4.943075086492,-1.078930337721E+03));
#255 = CARTESIAN_POINT('',(-4.967230449258,-1.079145807744E+03));
#256 = CARTESIAN_POINT('',(-4.990792999227,-1.079379798616E+03));
#257 = CARTESIAN_POINT('',(-5.033227694974,-1.07984269129E+03));
#258 = CARTESIAN_POINT('',(-5.052301178535,-1.080067413256E+03));
#259 = CARTESIAN_POINT('',(-5.070954820608,-1.080303100371E+03));
#260 = CARTESIAN_POINT('',(-5.089197639983,-1.080548831838E+03));
#261 = CARTESIAN_POINT('',(-5.107038559621,-1.080803779237E+03));
#262 = CARTESIAN_POINT('',(-5.124486432712,-1.08106720266E+03));
#263 = CARTESIAN_POINT('',(-5.187929343754,-1.082075693573E+03));
#264 = CARTESIAN_POINT('',(-5.231554535061,-1.08287206086E+03));
#265 = CARTESIAN_POINT('',(-5.272611610406,-1.083715225999E+03));
#266 = CARTESIAN_POINT('',(-5.31126073232,-1.084597255301E+03));
#267 = CARTESIAN_POINT('',(-5.347637652605,-1.08551392721E+03));
#268 = CARTESIAN_POINT('',(-5.381829579219,-1.086464128551E+03));
#269 = CARTESIAN_POINT('',(-5.442542193483,-1.088333734241E+03));
#270 = CARTESIAN_POINT('',(-5.469462790948,-1.089245470014E+03));
#271 = CARTESIAN_POINT('',(-5.494528820974,-1.090183928669E+03));
#272 = CARTESIAN_POINT('',(-5.517607819275,-1.091148829023E+03));
#273 = CARTESIAN_POINT('',(-5.538496322331,-1.092140102645E+03));
#274 = CARTESIAN_POINT('',(-5.556921701307,-1.093158000698E+03));
#275 = CARTESIAN_POINT('',(-5.584404043876,-1.094995800034E+03));
#276 = CARTESIAN_POINT('',(-5.594682820861,-1.095806217849E+03));
#277 = CARTESIAN_POINT('',(-5.603156312978,-1.096630189328E+03));
#278 = CARTESIAN_POINT('',(-5.609647576694,-1.097464112191E+03));
#279 = CARTESIAN_POINT('',(-5.614033075114,-1.098305193297E+03));
#280 = CARTESIAN_POINT('',(-5.616238962676,-1.099151187275E+03));
#281 = CARTESIAN_POINT('',(-5.616238962676,-1.1E+03));
#282 = ( GEOMETRIC_REPRESENTATION_CONTEXT(2) 
PARAMETRIC_REPRESENTATION_CONTEXT() REPRESENTATION_CONTEXT('2D SPACE',''
  ) );
#283 = PCURVE('',#284,#289);
#284 = CYLINDRICAL_SURFACE('',#285,22.);
#285 = AXIS2_PLACEMENT_3D('',#286,#287,#288);
#286 = CARTESIAN_POINT('',(-1.2E+03,0.,1.1E+03));
#287 = DIRECTION('',(-0.,1.,-0.));
#288 = DIRECTION('',(1.,0.,0.));
#289 = DEFINITIONAL_REPRESENTATION('',(#290),#365);
#290 = B_SPLINE_CURVE_WITH_KNOTS('',7,(#291,#292,#293,#294,#295,#296,
    #297,#298,#299,#300,#301,#302,#303,#304,#305,#306,#307,#308,#309,
    #310,#311,#312,#313,#314,#315,#316,#317,#318,#319,#320,#321,#322,
    #323,#324,#325,#326,#327,#328,#329,#330,#331,#332,#333,#334,#335,
    #336,#337,#338,#339,#340,#341,#342,#343,#344,#345,#346,#347,#348,
    #349,#350,#351,#352,#353,#354,#355,#356,#357,#358,#359,#360,#361,
    #362,#363,#364),.UNSPECIFIED.,.F.,.F.,(8,6,6,6,6,6,6,6,6,6,6,6,8),(
    0.,9.258106337797E-02,0.214534232835,0.351291714148,0.400945618441,
    0.438779688636,0.500072785853,0.540477369805,0.599325319404,
    0.649371918372,0.785399490391,0.907479741284,1.),.UNSPECIFIED.);
#291 = CARTESIAN_POINT('',(-3.141592626317,-17.32050807568));
#292 = CARTESIAN_POINT('',(-3.180193028213,-17.32050804627));
#293 = CARTESIAN_POINT('',(-3.218664990738,-17.36908321335));
#294 = CARTESIAN_POINT('',(-3.257007477321,-17.46565200667));
#295 = CARTESIAN_POINT('',(-3.295208817716,-17.60805969994));
#296 = CARTESIAN_POINT('',(-3.333230549685,-17.79254975038));
#297 = CARTESIAN_POINT('',(-3.370989824217,-18.0138723484));
#298 = CARTESIAN_POINT('',(-3.457540694499,-18.59702852956));
#299 = CARTESIAN_POINT('',(-3.506216658184,-18.98240887934));
#300 = CARTESIAN_POINT('',(-3.554577723174,-19.411262072));
#301 = CARTESIAN_POINT('',(-3.602797622199,-19.87391074061));
#302 = CARTESIAN_POINT('',(-3.651045790104,-20.36197051794));
#303 = CARTESIAN_POINT('',(-3.699503106745,-20.86826967279));
#304 = CARTESIAN_POINT('',(-3.803190868041,-21.96749042259));
#305 = CARTESIAN_POINT('',(-3.858469930327,-22.56283569165));
#306 = CARTESIAN_POINT('',(-3.914651985023,-23.16488973106));
#307 = CARTESIAN_POINT('',(-3.97213723141,-23.76673168851));
#308 = CARTESIAN_POINT('',(-4.031309286729,-24.36025673143));
#309 = CARTESIAN_POINT('',(-4.092536169701,-24.93500860824));
#310 = CARTESIAN_POINT('',(-4.179321638146,-25.67423841158));
#311 = CARTESIAN_POINT('',(-4.202775523164,-25.86699952118));
#312 = CARTESIAN_POINT('',(-4.226584319441,-26.0549384414));
#313 = CARTESIAN_POINT('',(-4.250765193334,-26.2373132339));
#314 = CARTESIAN_POINT('',(-4.275335255042,-26.41331647011));
#315 = CARTESIAN_POINT('',(-4.300312176414,-26.58207505413));
#316 = CARTESIAN_POINT('',(-4.34507048661,-26.86500105888));
#317 = CARTESIAN_POINT('',(-4.364677127521,-26.98262485469));
#318 = CARTESIAN_POINT('',(-4.384530797556,-27.09502358887));
#319 = CARTESIAN_POINT('',(-4.404628282147,-27.2017025097));
#320 = CARTESIAN_POINT('',(-4.4249670978,-27.30217119287));
#321 = CARTESIAN_POINT('',(-4.445545503783,-27.39594477642));
#322 = CARTESIAN_POINT('',(-4.500087117436,-27.62284223198));
#323 = CARTESIAN_POINT('',(-4.534508352317,-27.74460580411));
#324 = CARTESIAN_POINT('',(-4.569480385684,-27.84505164884));
#325 = CARTESIAN_POINT('',(-4.604872652581,-27.92200540352));
#326 = CARTESIAN_POINT('',(-4.640564836194,-27.97394061295));
#327 = CARTESIAN_POINT('',(-4.676441872662,-28.));
#328 = CARTESIAN_POINT('',(-4.736085416,-28.));
#329 = CARTESIAN_POINT('',(-4.759772120129,-27.98867599026));
#330 = CARTESIAN_POINT('',(-4.783407909993,-27.96604472983));
#331 = CARTESIAN_POINT('',(-4.806951912088,-27.93227443875));
#332 = CARTESIAN_POINT('',(-4.830362586019,-27.88768299751));
#333 = CARTESIAN_POINT('',(-4.853596748337,-27.83273614648));
#334 = CARTESIAN_POINT('',(-4.910124597293,-27.67382615326));
#335 = CARTESIAN_POINT('',(-4.943130455985,-27.55904610548));
#336 = CARTESIAN_POINT('',(-4.975609236954,-27.4253355854));
#337 = CARTESIAN_POINT('',(-5.007539554487,-27.27446317804));
#338 = CARTESIAN_POINT('',(-5.038894867784,-27.10832183539));
#339 = CARTESIAN_POINT('',(-5.069642776101,-26.92891470159));
#340 = CARTESIAN_POINT('',(-5.125343839462,-26.57626955307));
#341 = CARTESIAN_POINT('',(-5.150511155632,-26.40589830574));
#342 = CARTESIAN_POINT('',(-5.175265130363,-26.22819159737));
#343 = CARTESIAN_POINT('',(-5.199624015786,-26.04404126334));
#344 = CARTESIAN_POINT('',(-5.223605697506,-25.85426970457));
#345 = CARTESIAN_POINT('',(-5.247227943908,-25.65963301873));
#346 = CARTESIAN_POINT('',(-5.333786055585,-24.92045793728));
#347 = CARTESIAN_POINT('',(-5.394655618436,-24.3482848907));
#348 = CARTESIAN_POINT('',(-5.453498079565,-23.75769374694));
#349 = CARTESIAN_POINT('',(-5.510675915453,-23.15895246327));
#350 = CARTESIAN_POINT('',(-5.566566710126,-22.56003791852));
#351 = CARTESIAN_POINT('',(-5.621564214748,-21.96777677798));
#352 = CARTESIAN_POINT('',(-5.725035383296,-20.87076926683));
#353 = CARTESIAN_POINT('',(-5.77355343418,-20.36376726945));
#354 = CARTESIAN_POINT('',(-5.821861201383,-19.87502723402));
#355 = CARTESIAN_POINT('',(-5.870140265594,-19.41174443055));
#356 = CARTESIAN_POINT('',(-5.918560685706,-18.98233269664));
#357 = CARTESIAN_POINT('',(-5.96729682425,-18.59650579684));
#358 = CARTESIAN_POINT('',(-6.053893010139,-18.01325804266));
#359 = CARTESIAN_POINT('',(-6.091635301295,-17.79212352817));
#360 = CARTESIAN_POINT('',(-6.129639799452,-17.60779625901));
#361 = CARTESIAN_POINT('',(-6.167823745912,-17.46551764991));
#362 = CARTESIAN_POINT('',(-6.206148687191,-17.36903796799));
#363 = CARTESIAN_POINT('',(-6.244602910587,-17.32050807568));
#364 = CARTESIAN_POINT('',(-6.28318530718,-17.32050807568));
#365 = ( GEOMETRIC_REPRESENTATION_CONTEXT(2) 
PARAMETRIC_REPRESENTATION_CONTEXT() REPRESENTATION_CONTEXT('2D SPACE',''
  ) );
#366 = ORIENTED_EDGE('',*,*,#367,.T.);
#367 = EDGE_CURVE('',#127,#42,#368,.T.);
#368 = SURFACE_CURVE('',#369,(#374,#381),.PCURVE_S1.);
#369 = CIRCLE('',#370,28.);
#370 = AXIS2_PLACEMENT_3D('',#371,#372,#373);
#371 = CARTESIAN_POINT('',(-1.2E+03,0.,1.1E+03));
#372 = DIRECTION('',(0.,0.,1.));
#373 = DIRECTION('',(1.,0.,0.));
#374 = PCURVE('',#50,#375);
#375 = DEFINITIONAL_REPRESENTATION('',(#376),#380);
#376 = LINE('',#377,#378);
#377 = CARTESIAN_POINT('',(-0.,-1.1E+03));
#378 = VECTOR('',#379,1.);
#379 = DIRECTION('',(-1.,0.));
#380 = ( GEOMETRIC_REPRESENTATION_CONTEXT(2) 
PARAMETRIC_REPRESENTATION_CONTEXT() REPRESENTATION_CONTEXT('2D SPACE',''
  ) );
#381 = PCURVE('',#114,#382);
#382 = DEFINITIONAL_REPRESENTATION('',(#383),#387);
#383 = CIRCLE('',#384,28.);
#384 = AXIS2_PLACEMENT_2D('',#385,#386);
#385 = CARTESIAN_POINT('',(0.,1.143003679204E-15));
#386 = DIRECTION('',(1.,0.));
#387 = ( GEOMETRIC_REPRESENTATION_CONTEXT(2) 
PARAMETRIC_REPRESENTATION_CONTEXT() REPRESENTATION_CONTEXT('2D SPACE',''
  ) );
#388 = FACE_BOUND('',#389,.F.);
#389 = EDGE_LOOP('',(#390));
#390 = ORIENTED_EDGE('',*,*,#391,.T.);
#391 = EDGE_CURVE('',#392,#392,#394,.T.);
#392 = VERTEX_POINT('',#393);
#393 = CARTESIAN_POINT('',(-1.182E+03,-21.44761058952,600.));
#394 = SURFACE_CURVE('',#395,(#560,#728),.PCURVE_S1.);
#395 = B_SPLINE_CURVE_WITH_KNOTS('',7,(#396,#397,#398,#399,#400,#401,
    #402,#403,#404,#405,#406,#407,#408,#409,#410,#411,#412,#413,#414,
    #415,#416,#417,#418,#419,#420,#421,#422,#423,#424,#425,#426,#427,
    #428,#429,#430,#431,#432,#433,#434,#435,#436,#437,#438,#439,#440,
    #441,#442,#443,#444,#445,#446,#447,#448,#449,#450,#451,#452,#453,
    #454,#455,#456,#457,#458,#459,#460,#461,#462,#463,#464,#465,#466,
    #467,#468,#469,#470,#471,#472,#473,#474,#475,#476,#477,#478,#479,
    #480,#481,#482,#483,#484,#485,#486,#487,#488,#489,#490,#491,#492,
    #493,#494,#495,#496,#497,#498,#499,#500,#501,#502,#503,#504,#505,
    #506,#507,#508,#509,#510,#511,#512,#513,#514,#515,#516,#517,#518,
    #519,#520,#521,#522,#523,#524,#525,#526,#527,#528,#529,#530,#531,
    #532,#533,#534,#535,#536,#537,#538,#539,#540,#541,#542,#543,#544,
    #545,#546,#547,#548,#549,#550,#551,#552,#553,#554,#555,#556,#557,
    #558,#559),.UNSPECIFIED.,.T.,.F.,(8,6,6,6,6,6,6,6,6,6,6,6,6,6,6,6,6,
    6,6,6,6,6,6,6,6,6,6,8),(0.,5.094716292654E-02,0.103147884274,
    0.153559112839,0.17228236545,0.197283150376,0.227799865945,
    0.249879470407,0.282222041795,0.30213344973,0.327160047797,
    0.345598011196,0.397032108113,0.44934165038,0.499824866997,
    0.550782368721,0.602993683252,0.672170430208,0.697193126572,
    0.727736587907,0.749835543596,0.782206461002,0.802135319905,
    0.827183852043,0.845637975037,0.897117150369,0.949472538329,1.),
  .UNSPECIFIED.);
#396 = CARTESIAN_POINT('',(-1.182E+03,-21.44761058952,600.));
#397 = CARTESIAN_POINT('',(-1.182E+03,-21.44761058952,600.74030520129));
#398 = CARTESIAN_POINT('',(-1.182035521589E+03,-21.47742219718,
    601.47985662583));
#399 = CARTESIAN_POINT('',(-1.182106436092E+03,-21.53693762861,
    602.21678998849));
#400 = CARTESIAN_POINT('',(-1.182212515047E+03,-21.62533303426,
    602.94919118323));
#401 = CARTESIAN_POINT('',(-1.182353411731E+03,-21.74106700088,
    603.67502944631));
#402 = CARTESIAN_POINT('',(-1.182528561371E+03,-21.88193137421,
    604.39209259547));
#403 = CARTESIAN_POINT('',(-1.182950567371E+03,-22.21239354435,
    605.82112313263));
#404 = CARTESIAN_POINT('',(-1.183199167341E+03,-22.40317188218,
    606.53282109524));
#405 = CARTESIAN_POINT('',(-1.183482415589E+03,-22.61501301788,
    607.23240510291));
#406 = CARTESIAN_POINT('',(-1.183800161366E+03,-22.84527193102,
    607.9190949383));
#407 = CARTESIAN_POINT('',(-1.184152421324E+03,-23.09118565276,
    608.59192182267));
#408 = CARTESIAN_POINT('',(-1.184539335905E+03,-23.34990212969,
    609.24970888847));
#409 = CARTESIAN_POINT('',(-1.185368500659E+03,-23.87786505895,
    610.51041237206));
#410 = CARTESIAN_POINT('',(-1.185808531454E+03,-24.14653081221,
    611.11463758959));
#411 = CARTESIAN_POINT('',(-1.18628204311E+03,-24.42219928193,
    611.70327810105));
#412 = CARTESIAN_POINT('',(-1.186790155347E+03,-24.70256036048,
    612.27550157691));
#413 = CARTESIAN_POINT('',(-1.18733422841E+03,-24.98515584409,
    612.82999606509));
#414 = CARTESIAN_POINT('',(-1.187915783472E+03,-25.26726079408,
    613.36486962487));
#415 = CARTESIAN_POINT('',(-1.188766931193E+03,-25.64921052409,
    614.06796211199));
#416 = CARTESIAN_POINT('',(-1.189002866456E+03,-25.75217036582,
    614.2553418835));
#417 = CARTESIAN_POINT('',(-1.189244323811E+03,-25.85449547333,
    614.43956436));
#418 = CARTESIAN_POINT('',(-1.189491399986E+03,-25.95602276646,
    614.62048901988));
#419 = CARTESIAN_POINT('',(-1.18974419072E+03,-26.05657928478,
    614.79795795529));
#420 = CARTESIAN_POINT('',(-1.190002790829E+03,-26.15598183193,
    614.97179601546));
#421 = CARTESIAN_POINT('',(-1.190620480388E+03,-26.38496721838,
    615.36882849336));
#422 = CARTESIAN_POINT('',(-1.190984257043E+03,-26.5135189514,
    615.58907148581));
#423 = CARTESIAN_POINT('',(-1.191358783312E+03,-26.63920207286,
    615.80203037712));
#424 = CARTESIAN_POINT('',(-1.191744197654E+03,-26.76149339815,
    616.00714600418));
#425 = CARTESIAN_POINT('',(-1.192140617677E+03,-26.87983709728,
    616.20380910939));
#426 = CARTESIAN_POINT('',(-1.192548139929E+03,-26.99364548799,
    616.39135985912));
#427 = CARTESIAN_POINT('',(-1.193477917298E+03,-27.23492660943,
    616.78602693722));
#428 = CARTESIAN_POINT('',(-1.194006314512E+03,-27.36004704536,
    616.98861245786));
#429 = CARTESIAN_POINT('',(-1.194551148436E+03,-27.47621390897,
    617.17501583031));
#430 = CARTESIAN_POINT('',(-1.195111454329E+03,-27.58204360924,
    617.34353770694));
#431 = CARTESIAN_POINT('',(-1.195686185796E+03,-27.67623352872,
    617.49259736608));
#432 = CARTESIAN_POINT('',(-1.196274214987E+03,-27.7575793605,
    617.62072259189));
#433 = CARTESIAN_POINT('',(-1.197308533001E+03,-27.87376749225,
    617.80310076436));
#434 = CARTESIAN_POINT('',(-1.197748786346E+03,-27.91521802307,
    617.8679351947));
#435 = CARTESIAN_POINT('',(-1.198193935269E+03,-27.94887089095,
    617.92042986768));
#436 = CARTESIAN_POINT('',(-1.19864281251E+03,-27.97436441345,
    617.96012277435));
#437 = CARTESIAN_POINT('',(-1.199094241301E+03,-27.99145103672,
    617.98670119171));
#438 = CARTESIAN_POINT('',(-1.199547035545E+03,-28.,618.));
#439 = CARTESIAN_POINT('',(-1.200663509858E+03,-28.,618.));
#440 = CARTESIAN_POINT('',(-1.201325973017E+03,-27.98165638436,
    617.97146550029));
#441 = CARTESIAN_POINT('',(-1.201984047331E+03,-27.94507364785,
    617.91455897465));
#442 = CARTESIAN_POINT('',(-1.202634408174E+03,-27.89083369939,
    617.8300185743));
#443 = CARTESIAN_POINT('',(-1.20327377812E+03,-27.81999140995,
    617.71915593304));
#444 = CARTESIAN_POINT('',(-1.203898955246E+03,-27.73404947138,
    617.58386723241));
#445 = CARTESIAN_POINT('',(-1.204881078801E+03,-27.57387983869,
    617.32987281102));
#446 = CARTESIAN_POINT('',(-1.205249146852E+03,-27.50778350239,
    617.22468055902));
#447 = CARTESIAN_POINT('',(-1.205610822437E+03,-27.43696369603,
    617.11149856822));
#448 = CARTESIAN_POINT('',(-1.205965898421E+03,-27.36176999997,
    616.99075114192));
#449 = CARTESIAN_POINT('',(-1.206314182303E+03,-27.2825597109,
    616.86287008394));
#450 = CARTESIAN_POINT('',(-1.206655496192E+03,-27.19969611621,
    616.72829569308));
#451 = CARTESIAN_POINT('',(-1.207409707535E+03,-27.00526587206,
    616.41048405258));
#452 = CARTESIAN_POINT('',(-1.20781854321E+03,-26.89177512032,
    616.22359589469));
#453 = CARTESIAN_POINT('',(-1.208216255474E+03,-26.77369684999,
    616.02752934343));
#454 = CARTESIAN_POINT('',(-1.2086029375E+03,-26.65162252365,
    615.82294954767));
#455 = CARTESIAN_POINT('',(-1.208978703811E+03,-26.52611187631,
    615.61047122998));
#456 = CARTESIAN_POINT('',(-1.209343690106E+03,-26.39769206202,
    615.39065917073));
#457 = CARTESIAN_POINT('',(-1.209959124607E+03,-26.17046592241,
    614.99706215297));
#458 = CARTESIAN_POINT('',(-1.210214465607E+03,-26.07275083796,
    614.82637188652));
#459 = CARTESIAN_POINT('',(-1.210464165399E+03,-25.97389734793,
    614.65214277428));
#460 = CARTESIAN_POINT('',(-1.210708314207E+03,-25.87408125764,
    614.47454357643));
#461 = CARTESIAN_POINT('',(-1.210947003229E+03,-25.77346869798,
    614.29372679943));
#462 = CARTESIAN_POINT('',(-1.211180324688E+03,-25.67221644648,
    614.10982856338));
#463 = CARTESIAN_POINT('',(-1.212044526821E+03,-25.28664909307,
    613.4017080694));
#464 = CARTESIAN_POINT('',(-1.212639903122E+03,-24.99887967594,
    612.85718265508));
#465 = CARTESIAN_POINT('',(-1.213196203195E+03,-24.71048186839,
    612.29216295135));
#466 = CARTESIAN_POINT('',(-1.213715048768E+03,-24.42435604603,
    611.70867575539));
#467 = CARTESIAN_POINT('',(-1.214197889299E+03,-24.14311083464,
    611.10811701596));
#468 = CARTESIAN_POINT('',(-1.214645913624E+03,-23.86919426995,
    610.49136265884));
#469 = CARTESIAN_POINT('',(-1.215481063518E+03,-23.33637021304,
    609.2156263003));
#470 = CARTESIAN_POINT('',(-1.215867160115E+03,-23.07770979325,
    608.55589475845));
#471 = CARTESIAN_POINT('',(-1.216218482884E+03,-22.83200398838,
    607.88109633071));
#472 = CARTESIAN_POINT('',(-1.21653516077E+03,-22.60212447739,
    607.19241925453));
#473 = CARTESIAN_POINT('',(-1.216817201147E+03,-22.39085095186,
    606.49084322628));
#474 = CARTESIAN_POINT('',(-1.217064445003E+03,-22.20084069668,
    605.77715835904));
#475 = CARTESIAN_POINT('',(-1.217481150461E+03,-21.87411730132,
    604.35213232968));
#476 = CARTESIAN_POINT('',(-1.217653096329E+03,-21.73572016583,
    603.64133888514));
#477 = CARTESIAN_POINT('',(-1.217791405992E+03,-21.62206548002,
    602.92199582518));
#478 = CARTESIAN_POINT('',(-1.217895531659E+03,-21.53528617848,
    602.19625856914));
#479 = CARTESIAN_POINT('',(-1.217965136552E+03,-21.47686985227,
    601.46610839331));
#480 = CARTESIAN_POINT('',(-1.218E+03,-21.44761058952,600.73341483736));
#481 = CARTESIAN_POINT('',(-1.218E+03,-21.44761058952,599.2596947987));
#482 = CARTESIAN_POINT('',(-1.217964478411E+03,-21.47742219718,
    598.52014337416));
#483 = CARTESIAN_POINT('',(-1.217893563908E+03,-21.53693762861,
    597.7832100115));
#484 = CARTESIAN_POINT('',(-1.217787484953E+03,-21.62533303426,
    597.05080881676));
#485 = CARTESIAN_POINT('',(-1.217646588269E+03,-21.74106700088,
    596.32497055368));
#486 = CARTESIAN_POINT('',(-1.217471438629E+03,-21.88193137421,
    595.60790740452));
#487 = CARTESIAN_POINT('',(-1.217049432629E+03,-22.21239354435,
    594.17887686736));
#488 = CARTESIAN_POINT('',(-1.216800832659E+03,-22.40317188218,
    593.46717890475));
#489 = CARTESIAN_POINT('',(-1.216517584411E+03,-22.61501301788,
    592.76759489708));
#490 = CARTESIAN_POINT('',(-1.216199838634E+03,-22.84527193102,
    592.08090506169));
#491 = CARTESIAN_POINT('',(-1.215847578676E+03,-23.09118565276,
    591.40807817732));
#492 = CARTESIAN_POINT('',(-1.215460664095E+03,-23.34990212969,
    590.75029111152));
#493 = CARTESIAN_POINT('',(-1.214479976357E+03,-23.97434590688,
    589.25920451893));
#494 = CARTESIAN_POINT('',(-1.213860031993E+03,-24.34740598065,
    588.43861939827));
#495 = CARTESIAN_POINT('',(-1.213176774473E+03,-24.73193767194,
    587.64775359618));
#496 = CARTESIAN_POINT('',(-1.21242674955E+03,-25.12214517334,
    586.88878463448));
#497 = CARTESIAN_POINT('',(-1.21160571331E+03,-25.51150150656,
    586.16590721576));
#498 = CARTESIAN_POINT('',(-1.210709110029E+03,-25.89207111715,
    585.48579268333));
#499 = CARTESIAN_POINT('',(-1.209379519612E+03,-26.38496721838,
    584.63117150663));
#500 = CARTESIAN_POINT('',(-1.209015742957E+03,-26.5135189514,
    584.41092851418));
#501 = CARTESIAN_POINT('',(-1.208641216688E+03,-26.63920207286,
    584.19796962287));
#502 = CARTESIAN_POINT('',(-1.208255802346E+03,-26.76149339815,
    583.99285399581));
#503 = CARTESIAN_POINT('',(-1.207859382323E+03,-26.87983709728,
    583.79619089061));
#504 = CARTESIAN_POINT('',(-1.207451860071E+03,-26.99364548799,
    583.60864014087));
#505 = CARTESIAN_POINT('',(-1.206522082702E+03,-27.23492660943,
    583.21397306277));
#506 = CARTESIAN_POINT('',(-1.205993685488E+03,-27.36004704536,
    583.01138754213));
#507 = CARTESIAN_POINT('',(-1.205448851564E+03,-27.47621390897,
    582.82498416968));
#508 = CARTESIAN_POINT('',(-1.204888545671E+03,-27.58204360924,
    582.65646229305));
#509 = CARTESIAN_POINT('',(-1.204313814204E+03,-27.67623352872,
    582.50740263391));
#510 = CARTESIAN_POINT('',(-1.203725785013E+03,-27.7575793605,
    582.37927740811));
#511 = CARTESIAN_POINT('',(-1.202691466999E+03,-27.87376749225,
    582.19689923564));
#512 = CARTESIAN_POINT('',(-1.202251213654E+03,-27.91521802307,
    582.13206480529));
#513 = CARTESIAN_POINT('',(-1.201806064731E+03,-27.94887089095,
    582.07957013231));
#514 = CARTESIAN_POINT('',(-1.20135718749E+03,-27.97436441345,
    582.03987722564));
#515 = CARTESIAN_POINT('',(-1.200905758699E+03,-27.99145103672,
    582.01329880828));
#516 = CARTESIAN_POINT('',(-1.200452964455E+03,-28.,582.));
#517 = CARTESIAN_POINT('',(-1.199336490142E+03,-28.,582.));
#518 = CARTESIAN_POINT('',(-1.198674026983E+03,-27.98165638434,
    582.02853449973));
#519 = CARTESIAN_POINT('',(-1.19801595267E+03,-27.94507364785,
    582.08544102533));
#520 = CARTESIAN_POINT('',(-1.197365591826E+03,-27.89083369943,
    582.16998142563));
#521 = CARTESIAN_POINT('',(-1.19672622188E+03,-27.81999140996,
    582.28084406693));
#522 = CARTESIAN_POINT('',(-1.196101044754E+03,-27.73404947133,
    582.41613276768));
#523 = CARTESIAN_POINT('',(-1.195118921199E+03,-27.57387983872,
    582.67012718893));
#524 = CARTESIAN_POINT('',(-1.194750853148E+03,-27.50778350239,
    582.77531944096));
#525 = CARTESIAN_POINT('',(-1.194389177563E+03,-27.436963696,
    582.88850143181));
#526 = CARTESIAN_POINT('',(-1.194034101579E+03,-27.36176999994,
    583.00924885812));
#527 = CARTESIAN_POINT('',(-1.193685817697E+03,-27.2825597109,
    583.13712991606));
#528 = CARTESIAN_POINT('',(-1.193344503808E+03,-27.19969611625,
    583.27170430684));
#529 = CARTESIAN_POINT('',(-1.192590292465E+03,-27.00526587204,
    583.58951594745));
#530 = CARTESIAN_POINT('',(-1.19218145679E+03,-26.89177512031,
    583.77640410531));
#531 = CARTESIAN_POINT('',(-1.191783744526E+03,-26.77369685,
    583.97247065654));
#532 = CARTESIAN_POINT('',(-1.1913970625E+03,-26.65162252367,
    584.17705045229));
#533 = CARTESIAN_POINT('',(-1.191021296189E+03,-26.52611187631,
    584.38952877001));
#534 = CARTESIAN_POINT('',(-1.190656309894E+03,-26.397692062,
    584.6093408293));
#535 = CARTESIAN_POINT('',(-1.190040875393E+03,-26.17046592241,
    585.00293784703));
#536 = CARTESIAN_POINT('',(-1.189785534393E+03,-26.07275083796,
    585.17362811347));
#537 = CARTESIAN_POINT('',(-1.189535834601E+03,-25.97389734793,
    585.34785722572));
#538 = CARTESIAN_POINT('',(-1.189291685793E+03,-25.87408125764,
    585.52545642356));
#539 = CARTESIAN_POINT('',(-1.189052996771E+03,-25.77346869798,
    585.70627320056));
#540 = CARTESIAN_POINT('',(-1.188819675312E+03,-25.67221644649,
    585.89017143661));
#541 = CARTESIAN_POINT('',(-1.187955473179E+03,-25.28664909307,
    586.59829193059));
#542 = CARTESIAN_POINT('',(-1.187360096878E+03,-24.99887967594,
    587.14281734491));
#543 = CARTESIAN_POINT('',(-1.186803796805E+03,-24.71048186839,
    587.70783704864));
#544 = CARTESIAN_POINT('',(-1.186284951232E+03,-24.42435604603,
    588.2913242446));
#545 = CARTESIAN_POINT('',(-1.185802110701E+03,-24.14311083464,
    588.89188298403));
#546 = CARTESIAN_POINT('',(-1.185354086376E+03,-23.86919426995,
    589.50863734115));
#547 = CARTESIAN_POINT('',(-1.184518936482E+03,-23.33637021299,
    590.78437369983));
#548 = CARTESIAN_POINT('',(-1.184132839885E+03,-23.07770979325,
    591.44410524156));
#549 = CARTESIAN_POINT('',(-1.183781517116E+03,-22.83200398843,
    592.11890366917));
#550 = CARTESIAN_POINT('',(-1.18346483923E+03,-22.60212447742,
    592.80758074535));
#551 = CARTESIAN_POINT('',(-1.183182798853E+03,-22.39085095185,
    593.50915677372));
#552 = CARTESIAN_POINT('',(-1.182935554997E+03,-22.20084069664,
    594.2228416411));
#553 = CARTESIAN_POINT('',(-1.182518849539E+03,-21.87411730132,
    595.64786767032));
#554 = CARTESIAN_POINT('',(-1.182346903671E+03,-21.73572016583,
    596.35866111485));
#555 = CARTESIAN_POINT('',(-1.182208594008E+03,-21.62206548002,
    597.07800417481));
#556 = CARTESIAN_POINT('',(-1.182104468341E+03,-21.53528617848,
    597.80374143085));
#557 = CARTESIAN_POINT('',(-1.182034863448E+03,-21.47686985227,
    598.53389160668));
#558 = CARTESIAN_POINT('',(-1.182E+03,-21.44761058952,599.26658516263));
#559 = CARTESIAN_POINT('',(-1.182E+03,-21.44761058952,600.));
#560 = PCURVE('',#50,#561);
#561 = DEFINITIONAL_REPRESENTATION('',(#562),#727);
#562 = B_SPLINE_CURVE_WITH_KNOTS('',7,(#563,#564,#565,#566,#567,#568,
    #569,#570,#571,#572,#573,#574,#575,#576,#577,#578,#579,#580,#581,
    #582,#583,#584,#585,#586,#587,#588,#589,#590,#591,#592,#593,#594,
    #595,#596,#597,#598,#599,#600,#601,#602,#603,#604,#605,#606,#607,
    #608,#609,#610,#611,#612,#613,#614,#615,#616,#617,#618,#619,#620,
    #621,#622,#623,#624,#625,#626,#627,#628,#629,#630,#631,#632,#633,
    #634,#635,#636,#637,#638,#639,#640,#641,#642,#643,#644,#645,#646,
    #647,#648,#649,#650,#651,#652,#653,#654,#655,#656,#657,#658,#659,
    #660,#661,#662,#663,#664,#665,#666,#667,#668,#669,#670,#671,#672,
    #673,#674,#675,#676,#677,#678,#679,#680,#681,#682,#683,#684,#685,
    #686,#687,#688,#689,#690,#691,#692,#693,#694,#695,#696,#697,#698,
    #699,#700,#701,#702,#703,#704,#705,#706,#707,#708,#709,#710,#711,
    #712,#713,#714,#715,#716,#717,#718,#719,#720,#721,#722,#723,#724,
    #725,#726),.UNSPECIFIED.,.T.,.F.,(8,6,6,6,6,6,6,6,6,6,6,6,6,6,6,6,6,
    6,6,6,6,6,6,6,6,6,6,8),(0.,5.094716292654E-02,0.103147884274,
    0.153559112839,0.17228236545,0.197283150376,0.227799865945,
    0.249879470407,0.282222041795,0.30213344973,0.327160047797,
    0.345598011196,0.397032108113,0.44934165038,0.499824866997,
    0.550782368721,0.602993683252,0.672170430208,0.697193126572,
    0.727736587907,0.749835543596,0.782206461002,0.802135319905,
    0.827183852043,0.845637975037,0.897117150369,0.949472538329,1.),
  .UNSPECIFIED.);
#563 = CARTESIAN_POINT('',(-5.410611453747,-600.));
#564 = CARTESIAN_POINT('',(-5.410611453747,-600.7403052012));
#565 = CARTESIAN_POINT('',(-5.408955258865,-601.4798566258));
#566 = CARTESIAN_POINT('',(-5.405648827318,-602.2167899884));
#567 = CARTESIAN_POINT('',(-5.400717404185,-602.9491911832));
#568 = CARTESIAN_POINT('',(-5.394205783845,-603.6750294463));
#569 = CARTESIAN_POINT('',(-5.386179079621,-604.3920925954));
#570 = CARTESIAN_POINT('',(-5.367036278773,-605.8211231326));
#571 = CARTESIAN_POINT('',(-5.35584516774,-606.5328210952));
#572 = CARTESIAN_POINT('',(-5.343214517319,-607.2324051029));
#573 = CARTESIAN_POINT('',(-5.329203253888,-607.9190949383));
#574 = CARTESIAN_POINT('',(-5.313864732936,-608.5919218226));
#575 = CARTESIAN_POINT('',(-5.297245936884,-609.2497088884));
#576 = CARTESIAN_POINT('',(-5.262139338201,-610.510412372));
#577 = CARTESIAN_POINT('',(-5.243729531235,-611.1146375895));
#578 = CARTESIAN_POINT('',(-5.224168399889,-611.703278101));
#579 = CARTESIAN_POINT('',(-5.203453018704,-612.2755015769));
#580 = CARTESIAN_POINT('',(-5.181569506226,-612.829996065));
#581 = CARTESIAN_POINT('',(-5.158495262465,-613.3648696248));
#582 = CARTESIAN_POINT('',(-5.125176723347,-614.0679621119));
#583 = CARTESIAN_POINT('',(-5.115983565253,-614.2553418835));
#584 = CARTESIAN_POINT('',(-5.106618555986,-614.43956436));
#585 = CARTESIAN_POINT('',(-5.09707952668,-614.6204890198));
#586 = CARTESIAN_POINT('',(-5.087364254743,-614.7979579552));
#587 = CARTESIAN_POINT('',(-5.077470437499,-614.9717960154));
#588 = CARTESIAN_POINT('',(-5.053943024629,-615.3688284933));
#589 = CARTESIAN_POINT('',(-5.040165268259,-615.5890714858));
#590 = CARTESIAN_POINT('',(-5.026059168516,-615.8020303771));
#591 = CARTESIAN_POINT('',(-5.011621746742,-616.0071460041));
#592 = CARTESIAN_POINT('',(-4.996850133812,-616.2038091093));
#593 = CARTESIAN_POINT('',(-4.981741430127,-616.3913598591));
#594 = CARTESIAN_POINT('',(-4.947435213476,-616.7860269372));
#595 = CARTESIAN_POINT('',(-4.92804645932,-616.9886124578));
#596 = CARTESIAN_POINT('',(-4.908158910256,-617.1750158303));
#597 = CARTESIAN_POINT('',(-4.887804530083,-617.3435377069));
#598 = CARTESIAN_POINT('',(-4.867014768715,-617.492597366));
#599 = CARTESIAN_POINT('',(-4.845820691633,-617.6207225918));
#600 = CARTESIAN_POINT('',(-4.808648425877,-617.8031007643));
#601 = CARTESIAN_POINT('',(-4.792858108759,-617.8679351947));
#602 = CARTESIAN_POINT('',(-4.776918931708,-617.9204298676));
#603 = CARTESIAN_POINT('',(-4.760866878895,-617.9601227743));
#604 = CARTESIAN_POINT('',(-4.744737502844,-617.9867011917));
#605 = CARTESIAN_POINT('',(-4.728566282348,-618.));
#606 = CARTESIAN_POINT('',(-4.68869219974,-618.));
#607 = CARTESIAN_POINT('',(-4.665032797575,-617.9714655002));
#608 = CARTESIAN_POINT('',(-4.641508422058,-617.9145589746));
#609 = CARTESIAN_POINT('',(-4.618216337417,-617.8300185743));
#610 = CARTESIAN_POINT('',(-4.595254822841,-617.719155933));
#611 = CARTESIAN_POINT('',(-4.572724153877,-617.5838672324));
#612 = CARTESIAN_POINT('',(-4.537184922376,-617.329872811));
#613 = CARTESIAN_POINT('',(-4.523831078735,-617.224680559));
#614 = CARTESIAN_POINT('',(-4.510671349018,-617.1114985682));
#615 = CARTESIAN_POINT('',(-4.497711499107,-616.9907511419));
#616 = CARTESIAN_POINT('',(-4.48495733824,-616.8628700839));
#617 = CARTESIAN_POINT('',(-4.472414710093,-616.728295693));
#618 = CARTESIAN_POINT('',(-4.444597938305,-616.4104840525));
#619 = CARTESIAN_POINT('',(-4.429447109667,-616.2235958946));
#620 = CARTESIAN_POINT('',(-4.414633999627,-616.0275293434));
#621 = CARTESIAN_POINT('',(-4.400155783565,-615.8229495476));
#622 = CARTESIAN_POINT('',(-4.386009668281,-615.6104712299));
#623 = CARTESIAN_POINT('',(-4.37219274971,-615.3906591707));
#624 = CARTESIAN_POINT('',(-4.348762671796,-614.9970621529));
#625 = CARTESIAN_POINT('',(-4.338999085329,-614.8263718865));
#626 = CARTESIAN_POINT('',(-4.329408814997,-614.6521427742));
#627 = CARTESIAN_POINT('',(-4.319989662484,-614.4745435764));
#628 = CARTESIAN_POINT('',(-4.310739502695,-614.2937267994));
#629 = CARTESIAN_POINT('',(-4.301656259061,-614.1098285633));
#630 = CARTESIAN_POINT('',(-4.267859380996,-613.4017080694));
#631 = CARTESIAN_POINT('',(-4.244253466345,-612.857182655));
#632 = CARTESIAN_POINT('',(-4.221887763211,-612.2921629513));
#633 = CARTESIAN_POINT('',(-4.20073795522,-611.7086757553));
#634 = CARTESIAN_POINT('',(-4.180789091519,-611.1081170159));
#635 = CARTESIAN_POINT('',(-4.162038065333,-610.4913626588));
#636 = CARTESIAN_POINT('',(-4.126657899287,-609.2156263003));
#637 = CARTESIAN_POINT('',(-4.110064482325,-608.5558947584));
#638 = CARTESIAN_POINT('',(-4.094757627324,-607.8810963307));
#639 = CARTESIAN_POINT('',(-4.080785163797,-607.1924192545));
#640 = CARTESIAN_POINT('',(-4.06820117181,-606.4908432262));
#641 = CARTESIAN_POINT('',(-4.05706516984,-605.777158359));
#642 = CARTESIAN_POINT('',(-4.038153735007,-604.3521323296));
#643 = CARTESIAN_POINT('',(-4.030271379841,-603.6413388851));
#644 = CARTESIAN_POINT('',(-4.023878270525,-602.9219958251));
#645 = CARTESIAN_POINT('',(-4.019037385365,-602.1962585691));
#646 = CARTESIAN_POINT('',(-4.01579201644,-601.4661083933));
#647 = CARTESIAN_POINT('',(-4.014166507022,-600.7334148373));
#648 = CARTESIAN_POINT('',(-4.014166507022,-599.2596947987));
#649 = CARTESIAN_POINT('',(-4.015822701905,-598.5201433741));
#650 = CARTESIAN_POINT('',(-4.019129133451,-597.7832100115));
#651 = CARTESIAN_POINT('',(-4.024060556584,-597.0508088167));
#652 = CARTESIAN_POINT('',(-4.030572176924,-596.3249705536));
#653 = CARTESIAN_POINT('',(-4.038598881148,-595.6079074045));
#654 = CARTESIAN_POINT('',(-4.057741681997,-594.1788768673));
#655 = CARTESIAN_POINT('',(-4.06893279303,-593.4671789047));
#656 = CARTESIAN_POINT('',(-4.081563443451,-592.767594897));
#657 = CARTESIAN_POINT('',(-4.095574706882,-592.0809050616));
#658 = CARTESIAN_POINT('',(-4.110913227833,-591.4080781773));
#659 = CARTESIAN_POINT('',(-4.127532023885,-590.7502911115));
#660 = CARTESIAN_POINT('',(-4.169054062406,-589.2592045189));
#661 = CARTESIAN_POINT('',(-4.194886388754,-588.4386193982));
#662 = CARTESIAN_POINT('',(-4.222867748554,-587.6477535961));
#663 = CARTESIAN_POINT('',(-4.253030552752,-586.8887846344));
#664 = CARTESIAN_POINT('',(-4.285442391956,-586.1659072157));
#665 = CARTESIAN_POINT('',(-4.32019166036,-585.4857926833));
#666 = CARTESIAN_POINT('',(-4.37083493614,-584.6311715066));
#667 = CARTESIAN_POINT('',(-4.38461269251,-584.4109285141));
#668 = CARTESIAN_POINT('',(-4.398718792253,-584.1979696228));
#669 = CARTESIAN_POINT('',(-4.413156214028,-583.9928539958));
#670 = CARTESIAN_POINT('',(-4.427927826958,-583.7961908906));
#671 = CARTESIAN_POINT('',(-4.443036530643,-583.6086401408));
#672 = CARTESIAN_POINT('',(-4.477342747294,-583.2139730627));
#673 = CARTESIAN_POINT('',(-4.49673150145,-583.0113875421));
#674 = CARTESIAN_POINT('',(-4.516619050513,-582.8249841696));
#675 = CARTESIAN_POINT('',(-4.536973430687,-582.656462293));
#676 = CARTESIAN_POINT('',(-4.557763192054,-582.5074026339));
#677 = CARTESIAN_POINT('',(-4.578957269136,-582.3792774081));
#678 = CARTESIAN_POINT('',(-4.616129534892,-582.1968992356));
#679 = CARTESIAN_POINT('',(-4.63191985201,-582.1320648052));
#680 = CARTESIAN_POINT('',(-4.647859029061,-582.0795701323));
#681 = CARTESIAN_POINT('',(-4.663911081874,-582.0398772256));
#682 = CARTESIAN_POINT('',(-4.680040457925,-582.0132988082));
#683 = CARTESIAN_POINT('',(-4.696211678421,-582.));
#684 = CARTESIAN_POINT('',(-4.736085761042,-582.));
#685 = CARTESIAN_POINT('',(-4.759745163196,-582.0285344997));
#686 = CARTESIAN_POINT('',(-4.783269538702,-582.0854410253));
#687 = CARTESIAN_POINT('',(-4.806561623342,-582.1699814256));
#688 = CARTESIAN_POINT('',(-4.829523137929,-582.2808440669));
#689 = CARTESIAN_POINT('',(-4.852053806905,-582.4161327676));
#690 = CARTESIAN_POINT('',(-4.887593038387,-582.6701271889));
#691 = CARTESIAN_POINT('',(-4.900946882034,-582.7753194409));
#692 = CARTESIAN_POINT('',(-4.914106611756,-582.8885014318));
#693 = CARTESIAN_POINT('',(-4.927066461667,-583.0092488581));
#694 = CARTESIAN_POINT('',(-4.939820622529,-583.137129916));
#695 = CARTESIAN_POINT('',(-4.952363250671,-583.2717043068));
#696 = CARTESIAN_POINT('',(-4.980180022468,-583.5895159474));
#697 = CARTESIAN_POINT('',(-4.995330851103,-583.7764041053));
#698 = CARTESIAN_POINT('',(-5.010143961141,-583.9724706565));
#699 = CARTESIAN_POINT('',(-5.024622177203,-584.1770504522));
#700 = CARTESIAN_POINT('',(-5.038768292489,-584.38952877));
#701 = CARTESIAN_POINT('',(-5.052585211062,-584.6093408293));
#702 = CARTESIAN_POINT('',(-5.076015288974,-585.002937847));
#703 = CARTESIAN_POINT('',(-5.085778875441,-585.1736281134));
#704 = CARTESIAN_POINT('',(-5.095369145772,-585.3478572257));
#705 = CARTESIAN_POINT('',(-5.104788298286,-585.5254564235));
#706 = CARTESIAN_POINT('',(-5.114038458075,-585.7062732005));
#707 = CARTESIAN_POINT('',(-5.123121701708,-585.8901714366));
#708 = CARTESIAN_POINT('',(-5.156918579773,-586.5982919305));
#709 = CARTESIAN_POINT('',(-5.180524494424,-587.1428173449));
#710 = CARTESIAN_POINT('',(-5.202890197559,-587.7078370486));
#711 = CARTESIAN_POINT('',(-5.22404000555,-588.2913242446));
#712 = CARTESIAN_POINT('',(-5.24398886925,-588.891882984));
#713 = CARTESIAN_POINT('',(-5.262739895436,-589.5086373411));
#714 = CARTESIAN_POINT('',(-5.298120061486,-590.7843736998));
#715 = CARTESIAN_POINT('',(-5.314713478444,-591.4441052415));
#716 = CARTESIAN_POINT('',(-5.330020333443,-592.1189036691));
#717 = CARTESIAN_POINT('',(-5.343992796971,-592.8075807453));
#718 = CARTESIAN_POINT('',(-5.35657678896,-593.5091567737));
#719 = CARTESIAN_POINT('',(-5.367712790932,-594.2228416411));
#720 = CARTESIAN_POINT('',(-5.386624225763,-595.6478676703));
#721 = CARTESIAN_POINT('',(-5.394506580928,-596.3586611148));
#722 = CARTESIAN_POINT('',(-5.400899690245,-597.0780041748));
#723 = CARTESIAN_POINT('',(-5.405740575405,-597.8037414308));
#724 = CARTESIAN_POINT('',(-5.40898594433,-598.5338916066));
#725 = CARTESIAN_POINT('',(-5.410611453747,-599.2665851626));
#726 = CARTESIAN_POINT('',(-5.410611453747,-600.));
#727 = ( GEOMETRIC_REPRESENTATION_CONTEXT(2) 
PARAMETRIC_REPRESENTATION_CONTEXT() REPRESENTATION_CONTEXT('2D SPACE',''
  ) );
#728 = PCURVE('',#729,#734);
#729 = CYLINDRICAL_SURFACE('',#730,18.);
#730 = AXIS2_PLACEMENT_3D('',#731,#732,#733);
#731 = CARTESIAN_POINT('',(-1.2E+03,0.,600.));
#732 = DIRECTION('',(-0.,1.,-0.));
#733 = DIRECTION('',(1.,0.,0.));
#734 = DEFINITIONAL_REPRESENTATION('',(#735),#900);
#735 = B_SPLINE_CURVE_WITH_KNOTS('',7,(#736,#737,#738,#739,#740,#741,
    #742,#743,#744,#745,#746,#747,#748,#749,#750,#751,#752,#753,#754,
    #755,#756,#757,#758,#759,#760,#761,#762,#763,#764,#765,#766,#767,
    #768,#769,#770,#771,#772,#773,#774,#775,#776,#777,#778,#779,#780,
    #781,#782,#783,#784,#785,#786,#787,#788,#789,#790,#791,#792,#793,
    #794,#795,#796,#797,#798,#799,#800,#801,#802,#803,#804,#805,#806,
    #807,#808,#809,#810,#811,#812,#813,#814,#815,#816,#817,#818,#819,
    #820,#821,#822,#823,#824,#825,#826,#827,#828,#829,#830,#831,#832,
    #833,#834,#835,#836,#837,#838,#839,#840,#841,#842,#843,#844,#845,
    #846,#847,#848,#849,#850,#851,#852,#853,#854,#855,#856,#857,#858,
    #859,#860,#861,#862,#863,#864,#865,#866,#867,#868,#869,#870,#871,
    #872,#873,#874,#875,#876,#877,#878,#879,#880,#881,#882,#883,#884,
    #885,#886,#887,#888,#889,#890,#891,#892,#893,#894,#895,#896,#897,
    #898,#899),.UNSPECIFIED.,.F.,.F.,(8,6,6,6,6,6,6,6,6,6,6,6,6,6,6,6,6,
    6,6,6,6,6,6,6,6,6,6,8),(0.,5.094716292654E-02,0.103147884274,
    0.153559112839,0.17228236545,0.197283150376,0.227799865945,
    0.249879470407,0.282222041795,0.30213344973,0.327160047797,
    0.345598011196,0.397032108113,0.44934165038,0.499824866997,
    0.550782368721,0.602993683252,0.672170430208,0.697193126572,
    0.727736587907,0.749835543596,0.782206461002,0.802135319905,
    0.827183852043,0.845637975037,0.897117150369,0.949472538329,1.),
  .UNSPECIFIED.);
#736 = CARTESIAN_POINT('',(0.,-21.44761058952));
#737 = CARTESIAN_POINT('',(-4.112806673842E-02,-21.44761058952));
#738 = CARTESIAN_POINT('',(-8.221423474922E-02,-21.47742219718));
#739 = CARTESIAN_POINT('',(-0.123268682477,-21.53693762861));
#740 = CARTESIAN_POINT('',(-0.164297382961,-21.62533303426));
#741 = CARTESIAN_POINT('',(-0.205299302318,-21.74106700088));
#742 = CARTESIAN_POINT('',(-0.246260889748,-21.88193137421));
#743 = CARTESIAN_POINT('',(-0.329040855053,-22.21239354435));
#744 = CARTESIAN_POINT('',(-0.37087230294,-22.40317188218));
#745 = CARTESIAN_POINT('',(-0.412723516888,-22.61501301788));
#746 = CARTESIAN_POINT('',(-0.454669192251,-22.84527193102));
#747 = CARTESIAN_POINT('',(-0.496779680476,-23.09118565276));
#748 = CARTESIAN_POINT('',(-0.5391233789,-23.34990212969));
#749 = CARTESIAN_POINT('',(-0.622953149523,-23.87786505895));
#750 = CARTESIAN_POINT('',(-0.664432242433,-24.14653081221));
#751 = CARTESIAN_POINT('',(-0.706324085252,-24.42219928193));
#752 = CARTESIAN_POINT('',(-0.748745850123,-24.70256036048));
#753 = CARTESIAN_POINT('',(-0.791814404313,-24.98515584409));
#754 = CARTESIAN_POINT('',(-0.835648134421,-25.26726079408));
#755 = CARTESIAN_POINT('',(-0.896980850993,-25.64921052409));
#756 = CARTESIAN_POINT('',(-0.913716177043,-25.75217036582));
#757 = CARTESIAN_POINT('',(-0.930583802924,-25.85449547333));
#758 = CARTESIAN_POINT('',(-0.947590888852,-25.95602276646));
#759 = CARTESIAN_POINT('',(-0.964744539561,-26.05657928478));
#760 = CARTESIAN_POINT('',(-0.982051912617,-26.15598183193));
#761 = CARTESIAN_POINT('',(-1.022845550915,-26.38496721838));
#762 = CARTESIAN_POINT('',(-1.046462203378,-26.5135189514));
#763 = CARTESIAN_POINT('',(-1.070383165199,-26.63920207286));
#764 = CARTESIAN_POINT('',(-1.094621142661,-26.76149339815));
#765 = CARTESIAN_POINT('',(-1.119189095304,-26.87983709728));
#766 = CARTESIAN_POINT('',(-1.144100663968,-26.99364548799));
#767 = CARTESIAN_POINT('',(-1.20021584698,-27.23492660943));
#768 = CARTESIAN_POINT('',(-1.231635201649,-27.36004704536));
#769 = CARTESIAN_POINT('',(-1.263591823324,-27.47621390897));
#770 = CARTESIAN_POINT('',(-1.29605537881,-27.58204360924));
#771 = CARTESIAN_POINT('',(-1.329001159831,-27.67623352872));
#772 = CARTESIAN_POINT('',(-1.362409201635,-27.7575793605));
#773 = CARTESIAN_POINT('',(-1.420757759213,-27.87376749225));
#774 = CARTESIAN_POINT('',(-1.445470165448,-27.91521802307));
#775 = CARTESIAN_POINT('',(-1.470355373444,-27.94887089095));
#776 = CARTESIAN_POINT('',(-1.495370993092,-27.97436441345));
#777 = CARTESIAN_POINT('',(-1.520476398398,-27.99145103672));
#778 = CARTESIAN_POINT('',(-1.545631634852,-28.));
#779 = CARTESIAN_POINT('',(-1.607657985575,-28.));
#780 = CARTESIAN_POINT('',(-1.644461493521,-27.98165638436));
#781 = CARTESIAN_POINT('',(-1.681102990321,-27.94507364785));
#782 = CARTESIAN_POINT('',(-1.717478403636,-27.89083369939));
#783 = CARTESIAN_POINT('',(-1.753478970963,-27.81999140995));
#784 = CARTESIAN_POINT('',(-1.788986600117,-27.73404947138));
#785 = CARTESIAN_POINT('',(-1.845344140495,-27.57387983869));
#786 = CARTESIAN_POINT('',(-1.866604267199,-27.50778350239));
#787 = CARTESIAN_POINT('',(-1.887647877726,-27.43696369603));
#788 = CARTESIAN_POINT('',(-1.908472656122,-27.36176999997));
#789 = CARTESIAN_POINT('',(-1.929075516196,-27.2825597109));
#790 = CARTESIAN_POINT('',(-1.949452576523,-27.19969611621));
#791 = CARTESIAN_POINT('',(-1.994921294182,-27.00526587206));
#792 = CARTESIAN_POINT('',(-2.019883771192,-26.89177512032));
#793 = CARTESIAN_POINT('',(-2.044501282429,-26.77369684999));
#794 = CARTESIAN_POINT('',(-2.068787413378,-26.65162252365));
#795 = CARTESIAN_POINT('',(-2.092755049647,-26.52611187631));
#796 = CARTESIAN_POINT('',(-2.116416807569,-26.39769206202));
#797 = CARTESIAN_POINT('',(-2.157001965635,-26.17046592241));
#798 = CARTESIAN_POINT('',(-2.174061724047,-26.07275083796));
#799 = CARTESIAN_POINT('',(-2.190971718248,-25.97389734793));
#800 = CARTESIAN_POINT('',(-2.207738775394,-25.87408125764));
#801 = CARTESIAN_POINT('',(-2.224369672216,-25.77346869798));
#802 = CARTESIAN_POINT('',(-2.240871235651,-25.67221644648));
#803 = CARTESIAN_POINT('',(-2.302941485579,-25.28664909307));
#804 = CARTESIAN_POINT('',(-2.347699384111,-24.99887967594));
#805 = CARTESIAN_POINT('',(-2.391655444028,-24.71048186839));
#806 = CARTESIAN_POINT('',(-2.434935381529,-24.42435604603));
#807 = CARTESIAN_POINT('',(-2.477663290363,-24.14311083464));
#808 = CARTESIAN_POINT('',(-2.519963663593,-23.86919426995));
#809 = CARTESIAN_POINT('',(-2.6046741109,-23.33637021304));
#810 = CARTESIAN_POINT('',(-2.647087740792,-23.07770979325));
#811 = CARTESIAN_POINT('',(-2.689270809058,-22.83200398838));
#812 = CARTESIAN_POINT('',(-2.731291399006,-22.60212447739));
#813 = CARTESIAN_POINT('',(-2.773219689149,-22.39085095186));
#814 = CARTESIAN_POINT('',(-2.815130344013,-22.20084069668));
#815 = CARTESIAN_POINT('',(-2.897613837,-21.87411730132));
#816 = CARTESIAN_POINT('',(-2.938196197207,-21.73572016583));
#817 = CARTESIAN_POINT('',(-2.978818631453,-21.62206548002));
#818 = CARTESIAN_POINT('',(-3.019467751901,-21.53528617848));
#819 = CARTESIAN_POINT('',(-3.060142208271,-21.47686985227));
#820 = CARTESIAN_POINT('',(-3.100847384847,-21.44761058952));
#821 = CARTESIAN_POINT('',(-3.182720720328,-21.44761058952));
#822 = CARTESIAN_POINT('',(-3.223806888339,-21.47742219718));
#823 = CARTESIAN_POINT('',(-3.264861336067,-21.53693762861));
#824 = CARTESIAN_POINT('',(-3.305890036551,-21.62533303426));
#825 = CARTESIAN_POINT('',(-3.346891955908,-21.74106700088));
#826 = CARTESIAN_POINT('',(-3.387853543338,-21.88193137421));
#827 = CARTESIAN_POINT('',(-3.470633508643,-22.21239354435));
#828 = CARTESIAN_POINT('',(-3.51246495653,-22.40317188218));
#829 = CARTESIAN_POINT('',(-3.554316170478,-22.61501301788));
#830 = CARTESIAN_POINT('',(-3.596261845841,-22.84527193102));
#831 = CARTESIAN_POINT('',(-3.638372334066,-23.09118565276));
#832 = CARTESIAN_POINT('',(-3.68071603249,-23.34990212969));
#833 = CARTESIAN_POINT('',(-3.779864998653,-23.97434590688));
#834 = CARTESIAN_POINT('',(-3.836879066261,-24.34740598065));
#835 = CARTESIAN_POINT('',(-3.894741189787,-24.73193767194));
#836 = CARTESIAN_POINT('',(-3.953774165441,-25.12214517334));
#837 = CARTESIAN_POINT('',(-4.014297038807,-25.51150150656));
#838 = CARTESIAN_POINT('',(-4.076628997186,-25.89207111715));
#839 = CARTESIAN_POINT('',(-4.164438204505,-26.38496721838));
#840 = CARTESIAN_POINT('',(-4.188054856968,-26.5135189514));
#841 = CARTESIAN_POINT('',(-4.211975818789,-26.63920207286));
#842 = CARTESIAN_POINT('',(-4.23621379625,-26.76149339815));
#843 = CARTESIAN_POINT('',(-4.260781748894,-26.87983709728));
#844 = CARTESIAN_POINT('',(-4.285693317558,-26.99364548799));
#845 = CARTESIAN_POINT('',(-4.34180850057,-27.23492660943));
#846 = CARTESIAN_POINT('',(-4.373227855239,-27.36004704536));
#847 = CARTESIAN_POINT('',(-4.405184476914,-27.47621390897));
#848 = CARTESIAN_POINT('',(-4.4376480324,-27.58204360924));
#849 = CARTESIAN_POINT('',(-4.470593813421,-27.67623352872));
#850 = CARTESIAN_POINT('',(-4.504001855225,-27.7575793605));
#851 = CARTESIAN_POINT('',(-4.562350412802,-27.87376749225));
#852 = CARTESIAN_POINT('',(-4.587062819038,-27.91521802307));
#853 = CARTESIAN_POINT('',(-4.611948027034,-27.94887089095));
#854 = CARTESIAN_POINT('',(-4.636963646682,-27.97436441345));
#855 = CARTESIAN_POINT('',(-4.662069051988,-27.99145103672));
#856 = CARTESIAN_POINT('',(-4.687224288441,-28.));
#857 = CARTESIAN_POINT('',(-4.749250639185,-28.));
#858 = CARTESIAN_POINT('',(-4.786054147113,-27.98165638434));
#859 = CARTESIAN_POINT('',(-4.822695643895,-27.94507364785));
#860 = CARTESIAN_POINT('',(-4.85907105721,-27.89083369943));
#861 = CARTESIAN_POINT('',(-4.895071624555,-27.81999140996));
#862 = CARTESIAN_POINT('',(-4.930579253727,-27.73404947133));
#863 = CARTESIAN_POINT('',(-4.986936794075,-27.57387983872));
#864 = CARTESIAN_POINT('',(-5.008196920787,-27.50778350239));
#865 = CARTESIAN_POINT('',(-5.029240531324,-27.436963696));
#866 = CARTESIAN_POINT('',(-5.050065309719,-27.36176999994));
#867 = CARTESIAN_POINT('',(-5.070668169785,-27.2825597109));
#868 = CARTESIAN_POINT('',(-5.091045230104,-27.19969611625));
#869 = CARTESIAN_POINT('',(-5.136513947776,-27.00526587204));
#870 = CARTESIAN_POINT('',(-5.161476424783,-26.89177512031));
#871 = CARTESIAN_POINT('',(-5.186093936016,-26.77369685));
#872 = CARTESIAN_POINT('',(-5.210380066964,-26.65162252367));
#873 = CARTESIAN_POINT('',(-5.234347703237,-26.52611187631));
#874 = CARTESIAN_POINT('',(-5.258009461163,-26.397692062));
#875 = CARTESIAN_POINT('',(-5.298594619225,-26.17046592241));
#876 = CARTESIAN_POINT('',(-5.315654377637,-26.07275083796));
#877 = CARTESIAN_POINT('',(-5.332564371837,-25.97389734793));
#878 = CARTESIAN_POINT('',(-5.349331428983,-25.87408125764));
#879 = CARTESIAN_POINT('',(-5.365962325806,-25.77346869798));
#880 = CARTESIAN_POINT('',(-5.382463889241,-25.67221644649));
#881 = CARTESIAN_POINT('',(-5.444534139169,-25.28664909307));
#882 = CARTESIAN_POINT('',(-5.489292037701,-24.99887967594));
#883 = CARTESIAN_POINT('',(-5.533248097618,-24.71048186839));
#884 = CARTESIAN_POINT('',(-5.576528035119,-24.42435604603));
#885 = CARTESIAN_POINT('',(-5.619255943953,-24.14311083464));
#886 = CARTESIAN_POINT('',(-5.661556317183,-23.86919426995));
#887 = CARTESIAN_POINT('',(-5.746266764499,-23.33637021299));
#888 = CARTESIAN_POINT('',(-5.788680394382,-23.07770979325));
#889 = CARTESIAN_POINT('',(-5.830863462641,-22.83200398843));
#890 = CARTESIAN_POINT('',(-5.87288405259,-22.60212447742));
#891 = CARTESIAN_POINT('',(-5.91481234274,-22.39085095185));
#892 = CARTESIAN_POINT('',(-5.956722997611,-22.20084069664));
#893 = CARTESIAN_POINT('',(-6.039206490589,-21.87411730132));
#894 = CARTESIAN_POINT('',(-6.079788850797,-21.73572016583));
#895 = CARTESIAN_POINT('',(-6.120411285043,-21.62206548002));
#896 = CARTESIAN_POINT('',(-6.161060405491,-21.53528617848));
#897 = CARTESIAN_POINT('',(-6.20173486186,-21.47686985227));
#898 = CARTESIAN_POINT('',(-6.242440038437,-21.44761058952));
#899 = CARTESIAN_POINT('',(-6.28318530718,-21.44761058952));
#900 = ( GEOMETRIC_REPRESENTATION_CONTEXT(2) 
PARAMETRIC_REPRESENTATION_CONTEXT() REPRESENTATION_CONTEXT('2D SPACE',''
  ) );
#901 = ADVANCED_FACE('',(#902),#114,.T.);
#902 = FACE_BOUND('',#903,.T.);
#903 = EDGE_LOOP('',(#904,#927,#928,#929,#950));
#904 = ORIENTED_EDGE('',*,*,#905,.T.);
#905 = EDGE_CURVE('',#906,#127,#908,.T.);
#906 = VERTEX_POINT('',#907);
#907 = CARTESIAN_POINT('',(-1.178E+03,0.,1.1E+03));
#908 = SURFACE_CURVE('',#909,(#913,#920),.PCURVE_S1.);
#909 = LINE('',#910,#911);
#910 = CARTESIAN_POINT('',(-1.178E+03,0.,1.1E+03));
#911 = VECTOR('',#912,1.);
#912 = DIRECTION('',(0.,-1.,0.));
#913 = PCURVE('',#114,#914);
#914 = DEFINITIONAL_REPRESENTATION('',(#915),#919);
#915 = LINE('',#916,#917);
#916 = CARTESIAN_POINT('',(22.,1.143003679204E-15));
#917 = VECTOR('',#918,1.);
#918 = DIRECTION('',(0.,-1.));
#919 = ( GEOMETRIC_REPRESENTATION_CONTEXT(2) 
PARAMETRIC_REPRESENTATION_CONTEXT() REPRESENTATION_CONTEXT('2D SPACE',''
  ) );
#920 = PCURVE('',#284,#921);
#921 = DEFINITIONAL_REPRESENTATION('',(#922),#926);
#922 = LINE('',#923,#924);
#923 = CARTESIAN_POINT('',(-0.,0.));
#924 = VECTOR('',#925,1.);
#925 = DIRECTION('',(-0.,-1.));
#926 = ( GEOMETRIC_REPRESENTATION_CONTEXT(2) 
PARAMETRIC_REPRESENTATION_CONTEXT() REPRESENTATION_CONTEXT('2D SPACE',''
  ) );
#927 = ORIENTED_EDGE('',*,*,#367,.T.);
#928 = ORIENTED_EDGE('',*,*,#97,.T.);
#929 = ORIENTED_EDGE('',*,*,#930,.T.);
#930 = EDGE_CURVE('',#98,#931,#933,.T.);
#931 = VERTEX_POINT('',#932);
#932 = CARTESIAN_POINT('',(-1.222E+03,0.,1.1E+03));
#933 = SURFACE_CURVE('',#934,(#938,#944),.PCURVE_S1.);
#934 = LINE('',#935,#936);
#935 = CARTESIAN_POINT('',(-1.222E+03,0.,1.1E+03));
#936 = VECTOR('',#937,1.);
#937 = DIRECTION('',(-0.,1.,-0.));
#938 = PCURVE('',#114,#939);
#939 = DEFINITIONAL_REPRESENTATION('',(#940),#943);
#940 = B_SPLINE_CURVE_WITH_KNOTS('',1,(#941,#942),.UNSPECIFIED.,.F.,.F.,
  (2,2),(-33.6,6.E-07),.PIECEWISE_BEZIER_KNOTS.);
#941 = CARTESIAN_POINT('',(-22.,-33.6));
#942 = CARTESIAN_POINT('',(-22.,6.00000001143E-07));
#943 = ( GEOMETRIC_REPRESENTATION_CONTEXT(2) 
PARAMETRIC_REPRESENTATION_CONTEXT() REPRESENTATION_CONTEXT('2D SPACE',''
  ) );
#944 = PCURVE('',#284,#945);
#945 = DEFINITIONAL_REPRESENTATION('',(#946),#949);
#946 = B_SPLINE_CURVE_WITH_KNOTS('',1,(#947,#948),.UNSPECIFIED.,.F.,.F.,
  (2,2),(-33.6,6.E-07),.PIECEWISE_BEZIER_KNOTS.);
#947 = CARTESIAN_POINT('',(-3.14159265359,-33.6));
#948 = CARTESIAN_POINT('',(-3.14159265359,6.E-07));
#949 = ( GEOMETRIC_REPRESENTATION_CONTEXT(2) 
PARAMETRIC_REPRESENTATION_CONTEXT() REPRESENTATION_CONTEXT('2D SPACE',''
  ) );
#950 = ORIENTED_EDGE('',*,*,#951,.T.);
#951 = EDGE_CURVE('',#931,#906,#952,.T.);
#952 = SURFACE_CURVE('',#953,(#957,#963),.PCURVE_S1.);
#953 = LINE('',#954,#955);
#954 = CARTESIAN_POINT('',(-1.2E+03,0.,1.1E+03));
#955 = VECTOR('',#956,1.);
#956 = DIRECTION('',(1.,0.,0.));
#957 = PCURVE('',#114,#958);
#958 = DEFINITIONAL_REPRESENTATION('',(#959),#962);
#959 = B_SPLINE_CURVE_WITH_KNOTS('',1,(#960,#961),.UNSPECIFIED.,.F.,.F.,
  (2,2),(-22.,22.),.PIECEWISE_BEZIER_KNOTS.);
#960 = CARTESIAN_POINT('',(-22.,1.143003679204E-15));
#961 = CARTESIAN_POINT('',(22.,1.143003679204E-15));
#962 = ( GEOMETRIC_REPRESENTATION_CONTEXT(2) 
PARAMETRIC_REPRESENTATION_CONTEXT() REPRESENTATION_CONTEXT('2D SPACE',''
  ) );
#963 = PCURVE('',#964,#969);
#964 = PLANE('',#965);
#965 = AXIS2_PLACEMENT_3D('',#966,#967,#968);
#966 = CARTESIAN_POINT('',(-1.2E+03,0.,1.1E+03));
#967 = DIRECTION('',(-0.,-1.,-0.));
#968 = DIRECTION('',(0.,0.,-1.));
#969 = DEFINITIONAL_REPRESENTATION('',(#970),#973);
#970 = B_SPLINE_CURVE_WITH_KNOTS('',1,(#971,#972),.UNSPECIFIED.,.F.,.F.,
  (2,2),(-22.,22.),.PIECEWISE_BEZIER_KNOTS.);
#971 = CARTESIAN_POINT('',(0.,-22.));
#972 = CARTESIAN_POINT('',(0.,22.));
#973 = ( GEOMETRIC_REPRESENTATION_CONTEXT(2) 
PARAMETRIC_REPRESENTATION_CONTEXT() REPRESENTATION_CONTEXT('2D SPACE',''
  ) );
#974 = ADVANCED_FACE('',(#975),#284,.T.);
#975 = FACE_BOUND('',#976,.F.);
#976 = EDGE_LOOP('',(#977,#999,#1000,#1023,#1050,#1051,#1052));
#977 = ORIENTED_EDGE('',*,*,#978,.F.);
#978 = EDGE_CURVE('',#906,#931,#979,.T.);
#979 = SURFACE_CURVE('',#980,(#985,#992),.PCURVE_S1.);
#980 = CIRCLE('',#981,22.);
#981 = AXIS2_PLACEMENT_3D('',#982,#983,#984);
#982 = CARTESIAN_POINT('',(-1.2E+03,0.,1.1E+03));
#983 = DIRECTION('',(0.,-1.,0.));
#984 = DIRECTION('',(1.,0.,0.));
#985 = PCURVE('',#284,#986);
#986 = DEFINITIONAL_REPRESENTATION('',(#987),#991);
#987 = LINE('',#988,#989);
#988 = CARTESIAN_POINT('',(-0.,0.));
#989 = VECTOR('',#990,1.);
#990 = DIRECTION('',(-1.,0.));
#991 = ( GEOMETRIC_REPRESENTATION_CONTEXT(2) 
PARAMETRIC_REPRESENTATION_CONTEXT() REPRESENTATION_CONTEXT('2D SPACE',''
  ) );
#992 = PCURVE('',#964,#993);
#993 = DEFINITIONAL_REPRESENTATION('',(#994),#998);
#994 = CIRCLE('',#995,22.);
#995 = AXIS2_PLACEMENT_2D('',#996,#997);
#996 = CARTESIAN_POINT('',(0.,0.));
#997 = DIRECTION('',(0.,1.));
#998 = ( GEOMETRIC_REPRESENTATION_CONTEXT(2) 
PARAMETRIC_REPRESENTATION_CONTEXT() REPRESENTATION_CONTEXT('2D SPACE',''
  ) );
#999 = ORIENTED_EDGE('',*,*,#905,.T.);
#1000 = ORIENTED_EDGE('',*,*,#1001,.T.);
#1001 = EDGE_CURVE('',#127,#1002,#1004,.T.);
#1002 = VERTEX_POINT('',#1003);
#1003 = CARTESIAN_POINT('',(-1.178E+03,-2.4E+03,1.1E+03));
#1004 = SEAM_CURVE('',#1005,(#1009,#1016),.PCURVE_S1.);
#1005 = LINE('',#1006,#1007);
#1006 = CARTESIAN_POINT('',(-1.178E+03,0.,1.1E+03));
#1007 = VECTOR('',#1008,1.);
#1008 = DIRECTION('',(0.,-1.,0.));
#1009 = PCURVE('',#284,#1010);
#1010 = DEFINITIONAL_REPRESENTATION('',(#1011),#1015);
#1011 = LINE('',#1012,#1013);
#1012 = CARTESIAN_POINT('',(-6.28318530718,0.));
#1013 = VECTOR('',#1014,1.);
#1014 = DIRECTION('',(-0.,-1.));
#1015 = ( GEOMETRIC_REPRESENTATION_CONTEXT(2) 
PARAMETRIC_REPRESENTATION_CONTEXT() REPRESENTATION_CONTEXT('2D SPACE',''
  ) );
#1016 = PCURVE('',#284,#1017);
#1017 = DEFINITIONAL_REPRESENTATION('',(#1018),#1022);
#1018 = LINE('',#1019,#1020);
#1019 = CARTESIAN_POINT('',(-0.,0.));
#1020 = VECTOR('',#1021,1.);
#1021 = DIRECTION('',(-0.,-1.));
#1022 = ( GEOMETRIC_REPRESENTATION_CONTEXT(2) 
PARAMETRIC_REPRESENTATION_CONTEXT() REPRESENTATION_CONTEXT('2D SPACE',''
  ) );
#1023 = ORIENTED_EDGE('',*,*,#1024,.T.);
#1024 = EDGE_CURVE('',#1002,#1002,#1025,.T.);
#1025 = SURFACE_CURVE('',#1026,(#1031,#1038),.PCURVE_S1.);
#1026 = CIRCLE('',#1027,22.);
#1027 = AXIS2_PLACEMENT_3D('',#1028,#1029,#1030);
#1028 = CARTESIAN_POINT('',(-1.2E+03,-2.4E+03,1.1E+03));
#1029 = DIRECTION('',(0.,-1.,0.));
#1030 = DIRECTION('',(1.,0.,0.));
#1031 = PCURVE('',#284,#1032);
#1032 = DEFINITIONAL_REPRESENTATION('',(#1033),#1037);
#1033 = LINE('',#1034,#1035);
#1034 = CARTESIAN_POINT('',(-0.,-2.4E+03));
#1035 = VECTOR('',#1036,1.);
#1036 = DIRECTION('',(-1.,0.));
#1037 = ( GEOMETRIC_REPRESENTATION_CONTEXT(2) 
PARAMETRIC_REPRESENTATION_CONTEXT() REPRESENTATION_CONTEXT('2D SPACE',''
  ) );
#1038 = PCURVE('',#1039,#1044);
#1039 = PLANE('',#1040);
#1040 = AXIS2_PLACEMENT_3D('',#1041,#1042,#1043);
#1041 = CARTESIAN_POINT('',(-1.2E+03,-2.4E+03,1.1E+03));
#1042 = DIRECTION('',(-0.,-1.,-0.));
#1043 = DIRECTION('',(0.,0.,-1.));
#1044 = DEFINITIONAL_REPRESENTATION('',(#1045),#1049);
#1045 = CIRCLE('',#1046,22.);
#1046 = AXIS2_PLACEMENT_2D('',#1047,#1048);
#1047 = CARTESIAN_POINT('',(0.,0.));
#1048 = DIRECTION('',(0.,1.));
#1049 = ( GEOMETRIC_REPRESENTATION_CONTEXT(2) 
PARAMETRIC_REPRESENTATION_CONTEXT() REPRESENTATION_CONTEXT('2D SPACE',''
  ) );
#1050 = ORIENTED_EDGE('',*,*,#1001,.F.);
#1051 = ORIENTED_EDGE('',*,*,#126,.F.);
#1052 = ORIENTED_EDGE('',*,*,#930,.T.);
#1053 = ADVANCED_FACE('',(#1054),#84,.F.);
#1054 = FACE_BOUND('',#1055,.F.);
#1055 = EDGE_LOOP('',(#1056));
#1056 = ORIENTED_EDGE('',*,*,#69,.T.);
#1057 = ADVANCED_FACE('',(#1058),#729,.T.);
#1058 = FACE_BOUND('',#1059,.F.);
#1059 = EDGE_LOOP('',(#1060,#1061,#1084,#1111));
#1060 = ORIENTED_EDGE('',*,*,#391,.F.);
#1061 = ORIENTED_EDGE('',*,*,#1062,.T.);
#1062 = EDGE_CURVE('',#392,#1063,#1065,.T.);
#1063 = VERTEX_POINT('',#1064);
#1064 = CARTESIAN_POINT('',(-1.182E+03,-2.4E+03,600.));
#1065 = SEAM_CURVE('',#1066,(#1070,#1077),.PCURVE_S1.);
#1066 = LINE('',#1067,#1068);
#1067 = CARTESIAN_POINT('',(-1.182E+03,0.,600.));
#1068 = VECTOR('',#1069,1.);
#1069 = DIRECTION('',(0.,-1.,0.));
#1070 = PCURVE('',#729,#1071);
#1071 = DEFINITIONAL_REPRESENTATION('',(#1072),#1076);
#1072 = LINE('',#1073,#1074);
#1073 = CARTESIAN_POINT('',(-6.28318530718,0.));
#1074 = VECTOR('',#1075,1.);
#1075 = DIRECTION('',(-0.,-1.));
#1076 = ( GEOMETRIC_REPRESENTATION_CONTEXT(2) 
PARAMETRIC_REPRESENTATION_CONTEXT() REPRESENTATION_CONTEXT('2D SPACE',''
  ) );
#1077 = PCURVE('',#729,#1078);
#1078 = DEFINITIONAL_REPRESENTATION('',(#1079),#1083);
#1079 = LINE('',#1080,#1081);
#1080 = CARTESIAN_POINT('',(-0.,0.));
#1081 = VECTOR('',#1082,1.);
#1082 = DIRECTION('',(-0.,-1.));
#1083 = ( GEOMETRIC_REPRESENTATION_CONTEXT(2) 
PARAMETRIC_REPRESENTATION_CONTEXT() REPRESENTATION_CONTEXT('2D SPACE',''
  ) );
#1084 = ORIENTED_EDGE('',*,*,#1085,.T.);
#1085 = EDGE_CURVE('',#1063,#1063,#1086,.T.);
#1086 = SURFACE_CURVE('',#1087,(#1092,#1099),.PCURVE_S1.);
#1087 = CIRCLE('',#1088,18.);
#1088 = AXIS2_PLACEMENT_3D('',#1089,#1090,#1091);
#1089 = CARTESIAN_POINT('',(-1.2E+03,-2.4E+03,600.));
#1090 = DIRECTION('',(0.,-1.,0.));
#1091 = DIRECTION('',(1.,0.,0.));
#1092 = PCURVE('',#729,#1093);
#1093 = DEFINITIONAL_REPRESENTATION('',(#1094),#1098);
#1094 = LINE('',#1095,#1096);
#1095 = CARTESIAN_POINT('',(-0.,-2.4E+03));
#1096 = VECTOR('',#1097,1.);
#1097 = DIRECTION('',(-1.,0.));
#1098 = ( GEOMETRIC_REPRESENTATION_CONTEXT(2) 
PARAMETRIC_REPRESENTATION_CONTEXT() REPRESENTATION_CONTEXT('2D SPACE',''
  ) );
#1099 = PCURVE('',#1100,#1105);
#1100 = PLANE('',#1101);
#1101 = AXIS2_PLACEMENT_3D('',#1102,#1103,#1104);
#1102 = CARTESIAN_POINT('',(-1.2E+03,-2.4E+03,600.));
#1103 = DIRECTION('',(-0.,-1.,-0.));
#1104 = DIRECTION('',(0.,0.,-1.));
#1105 = DEFINITIONAL_REPRESENTATION('',(#1106),#1110);
#1106 = CIRCLE('',#1107,18.);
#1107 = AXIS2_PLACEMENT_2D('',#1108,#1109);
#1108 = CARTESIAN_POINT('',(0.,0.));
#1109 = DIRECTION('',(0.,1.));
#1110 = ( GEOMETRIC_REPRESENTATION_CONTEXT(2) 
PARAMETRIC_REPRESENTATION_CONTEXT() REPRESENTATION_CONTEXT('2D SPACE',''
  ) );
#1111 = ORIENTED_EDGE('',*,*,#1062,.F.);
#1112 = ADVANCED_FACE('',(#1113),#964,.F.);
#1113 = FACE_BOUND('',#1114,.F.);
#1114 = EDGE_LOOP('',(#1115,#1116));
#1115 = ORIENTED_EDGE('',*,*,#951,.T.);
#1116 = ORIENTED_EDGE('',*,*,#978,.T.);
#1117 = ADVANCED_FACE('',(#1118),#1039,.T.);
#1118 = FACE_BOUND('',#1119,.T.);
#1119 = EDGE_LOOP('',(#1120));
#1120 = ORIENTED_EDGE('',*,*,#1024,.T.);
#1121 = ADVANCED_FACE('',(#1122),#1100,.T.);
#1122 = FACE_BOUND('',#1123,.T.);
#1123 = EDGE_LOOP('',(#1124));
#1124 = ORIENTED_EDGE('',*,*,#1085,.T.);
#1125 = MANIFOLD_SOLID_BREP('',#1126);
#1126 = CLOSED_SHELL('',(#1127,#1215,#1219));
#1127 = ADVANCED_FACE('',(#1128),#1142,.T.);
#1128 = FACE_BOUND('',#1129,.F.);
#1129 = EDGE_LOOP('',(#1130,#1160,#1187,#1188));
#1130 = ORIENTED_EDGE('',*,*,#1131,.T.);
#1131 = EDGE_CURVE('',#1132,#1134,#1136,.T.);
#1132 = VERTEX_POINT('',#1133);
#1133 = CARTESIAN_POINT('',(1.228E+03,0.,0.));
#1134 = VERTEX_POINT('',#1135);
#1135 = CARTESIAN_POINT('',(1.228E+03,0.,1.1E+03));
#1136 = SEAM_CURVE('',#1137,(#1141,#1153),.PCURVE_S1.);
#1137 = LINE('',#1138,#1139);
#1138 = CARTESIAN_POINT('',(1.228E+03,0.,0.));
#1139 = VECTOR('',#1140,1.);
#1140 = DIRECTION('',(0.,0.,1.));
#1141 = PCURVE('',#1142,#1147);
#1142 = CYLINDRICAL_SURFACE('',#1143,28.);
#1143 = AXIS2_PLACEMENT_3D('',#1144,#1145,#1146);
#1144 = CARTESIAN_POINT('',(1.2E+03,0.,0.));
#1145 = DIRECTION('',(-0.,-0.,-1.));
#1146 = DIRECTION('',(1.,0.,0.));
#1147 = DEFINITIONAL_REPRESENTATION('',(#1148),#1152);
#1148 = LINE('',#1149,#1150);
#1149 = CARTESIAN_POINT('',(-0.,0.));
#1150 = VECTOR('',#1151,1.);
#1151 = DIRECTION('',(-0.,-1.));
#1152 = ( GEOMETRIC_REPRESENTATION_CONTEXT(2) 
PARAMETRIC_REPRESENTATION_CONTEXT() REPRESENTATION_CONTEXT('2D SPACE',''
  ) );
#1153 = PCURVE('',#1142,#1154);
#1154 = DEFINITIONAL_REPRESENTATION('',(#1155),#1159);
#1155 = LINE('',#1156,#1157);
#1156 = CARTESIAN_POINT('',(-6.28318530718,0.));
#1157 = VECTOR('',#1158,1.);
#1158 = DIRECTION('',(-0.,-1.));
#1159 = ( GEOMETRIC_REPRESENTATION_CONTEXT(2) 
PARAMETRIC_REPRESENTATION_CONTEXT() REPRESENTATION_CONTEXT('2D SPACE',''
  ) );
#1160 = ORIENTED_EDGE('',*,*,#1161,.T.);
#1161 = EDGE_CURVE('',#1134,#1134,#1162,.T.);
#1162 = SURFACE_CURVE('',#1163,(#1168,#1175),.PCURVE_S1.);
#1163 = CIRCLE('',#1164,28.);
#1164 = AXIS2_PLACEMENT_3D('',#1165,#1166,#1167);
#1165 = CARTESIAN_POINT('',(1.2E+03,0.,1.1E+03));
#1166 = DIRECTION('',(0.,0.,1.));
#1167 = DIRECTION('',(1.,0.,0.));
#1168 = PCURVE('',#1142,#1169);
#1169 = DEFINITIONAL_REPRESENTATION('',(#1170),#1174);
#1170 = LINE('',#1171,#1172);
#1171 = CARTESIAN_POINT('',(-0.,-1.1E+03));
#1172 = VECTOR('',#1173,1.);
#1173 = DIRECTION('',(-1.,0.));
#1174 = ( GEOMETRIC_REPRESENTATION_CONTEXT(2) 
PARAMETRIC_REPRESENTATION_CONTEXT() REPRESENTATION_CONTEXT('2D SPACE',''
  ) );
#1175 = PCURVE('',#1176,#1181);
#1176 = PLANE('',#1177);
#1177 = AXIS2_PLACEMENT_3D('',#1178,#1179,#1180);
#1178 = CARTESIAN_POINT('',(1.2E+03,-1.143003679204E-15,1.1E+03));
#1179 = DIRECTION('',(0.,0.,1.));
#1180 = DIRECTION('',(1.,0.,-0.));
#1181 = DEFINITIONAL_REPRESENTATION('',(#1182),#1186);
#1182 = CIRCLE('',#1183,28.);
#1183 = AXIS2_PLACEMENT_2D('',#1184,#1185);
#1184 = CARTESIAN_POINT('',(0.,1.143003679204E-15));
#1185 = DIRECTION('',(1.,0.));
#1186 = ( GEOMETRIC_REPRESENTATION_CONTEXT(2) 
PARAMETRIC_REPRESENTATION_CONTEXT() REPRESENTATION_CONTEXT('2D SPACE',''
  ) );
#1187 = ORIENTED_EDGE('',*,*,#1131,.F.);
#1188 = ORIENTED_EDGE('',*,*,#1189,.F.);
#1189 = EDGE_CURVE('',#1132,#1132,#1190,.T.);
#1190 = SURFACE_CURVE('',#1191,(#1196,#1203),.PCURVE_S1.);
#1191 = CIRCLE('',#1192,28.);
#1192 = AXIS2_PLACEMENT_3D('',#1193,#1194,#1195);
#1193 = CARTESIAN_POINT('',(1.2E+03,0.,0.));
#1194 = DIRECTION('',(0.,0.,1.));
#1195 = DIRECTION('',(1.,0.,0.));
#1196 = PCURVE('',#1142,#1197);
#1197 = DEFINITIONAL_REPRESENTATION('',(#1198),#1202);
#1198 = LINE('',#1199,#1200);
#1199 = CARTESIAN_POINT('',(-0.,0.));
#1200 = VECTOR('',#1201,1.);
#1201 = DIRECTION('',(-1.,0.));
#1202 = ( GEOMETRIC_REPRESENTATION_CONTEXT(2) 
PARAMETRIC_REPRESENTATION_CONTEXT() REPRESENTATION_CONTEXT('2D SPACE',''
  ) );
#1203 = PCURVE('',#1204,#1209);
#1204 = PLANE('',#1205);
#1205 = AXIS2_PLACEMENT_3D('',#1206,#1207,#1208);
#1206 = CARTESIAN_POINT('',(1.2E+03,-1.143003679204E-15,0.));
#1207 = DIRECTION('',(0.,0.,1.));
#1208 = DIRECTION('',(1.,0.,-0.));
#1209 = DEFINITIONAL_REPRESENTATION('',(#1210),#1214);
#1210 = CIRCLE('',#1211,28.);
#1211 = AXIS2_PLACEMENT_2D('',#1212,#1213);
#1212 = CARTESIAN_POINT('',(0.,1.143003679204E-15));
#1213 = DIRECTION('',(1.,0.));
#1214 = ( GEOMETRIC_REPRESENTATION_CONTEXT(2) 
PARAMETRIC_REPRESENTATION_CONTEXT() REPRESENTATION_CONTEXT('2D SPACE',''
  ) );
#1215 = ADVANCED_FACE('',(#1216),#1204,.F.);
#1216 = FACE_BOUND('',#1217,.F.);
#1217 = EDGE_LOOP('',(#1218));
#1218 = ORIENTED_EDGE('',*,*,#1189,.T.);
#1219 = ADVANCED_FACE('',(#1220),#1176,.T.);
#1220 = FACE_BOUND('',#1221,.T.);
#1221 = EDGE_LOOP('',(#1222));
#1222 = ORIENTED_EDGE('',*,*,#1161,.T.);
#1223 = ( GEOMETRIC_REPRESENTATION_CONTEXT(3) 
GLOBAL_UNCERTAINTY_ASSIGNED_CONTEXT((#1227)) 
GLOBAL_UNIT_ASSIGNED_CONTEXT((#1224,#1225,#1226)) REPRESENTATION_CONTEXT
('Context #1','3D Context with UNIT and UNCERTAINTY') );
#1224 = ( LENGTH_UNIT() NAMED_UNIT(*) SI_UNIT(.MILLI.,.METRE.) );
#1225 = ( NAMED_UNIT(*) PLANE_ANGLE_UNIT() SI_UNIT($,.RADIAN.) );
#1226 = ( NAMED_UNIT(*) SI_UNIT($,.STERADIAN.) SOLID_ANGLE_UNIT() );
#1227 = UNCERTAINTY_MEASURE_WITH_UNIT(LENGTH_MEASURE(1.E-07),#1224,
  'distance_accuracy_value','confusion accuracy');
#1228 = CONTEXT_DEPENDENT_SHAPE_REPRESENTATION(#1229,#1231);
#1229 = ( REPRESENTATION_RELATIONSHIP('','',#32,#10) 
REPRESENTATION_RELATIONSHIP_WITH_TRANSFORMATION(#1230) 
SHAPE_REPRESENTATION_RELATIONSHIP() );
#1230 = ITEM_DEFINED_TRANSFORMATION('','',#11,#15);
#1231 = PRODUCT_DEFINITION_SHAPE('Placement','Placement of an item',
  #1232);
#1232 = NEXT_ASSEMBLY_USAGE_OCCURRENCE('44','part0','',#5,#27,$);
#1233 = PRODUCT_RELATED_PRODUCT_CATEGORY('part',$,(#29));
#1234 = MECHANICAL_DESIGN_GEOMETRIC_PRESENTATION_REPRESENTATION('',(
    #1235,#1243),#1223);
#1235 = STYLED_ITEM('color',(#1236),#33);
#1236 = PRESENTATION_STYLE_ASSIGNMENT((#1237));
#1237 = SURFACE_STYLE_USAGE(.BOTH.,#1238);
#1238 = SURFACE_SIDE_STYLE('',(#1239));
#1239 = SURFACE_STYLE_FILL_AREA(#1240);
#1240 = FILL_AREA_STYLE('',(#1241));
#1241 = FILL_AREA_STYLE_COLOUR('',#1242);
#1242 = COLOUR_RGB('',0.243137258719,0.262745099612,0.282352937581);
#1243 = STYLED_ITEM('color',(#1244),#1125);
#1244 = PRESENTATION_STYLE_ASSIGNMENT((#1245));
#1245 = SURFACE_STYLE_USAGE(.BOTH.,#1246);
#1246 = SURFACE_SIDE_STYLE('',(#1247));
#1247 = SURFACE_STYLE_FILL_AREA(#1248);
#1248 = FILL_AREA_STYLE('',(#1249));
#1249 = FILL_AREA_STYLE_COLOUR('',#1242);
ENDSEC;
END-ISO-10303-21;
