ISO-10303-21;
HEADER;
FILE_DESCRIPTION(('Open CASCADE Model'),'2;1');
FILE_NAME('Open CASCADE Shape Model','2026-09-14T10:53:41',('Author'),(
    'Open CASCADE'),'Open CASCADE STEP processor 7.9','Open CASCADE 7.9'
  ,'Unknown');
FILE_SCHEMA(('AUTOMOTIVE_DESIGN { 1 0 10303 214 1 1 1 1 }'));
ENDSEC;
DATA;
#1 = APPLICATION_PROTOCOL_DEFINITION('international standard',
  'automotive_design',2000,#2);
#2 = APPLICATION_CONTEXT(
  'core data for automotive mechanical design processes');
#3 = SHAPE_DEFINITION_REPRESENTATION(#4,#10);
#4 = PRODUCT_DEFINITION_SHAPE('','',#5);
#5 = PRODUCT_DEFINITION('design','',#6,#9);
#6 = PRODUCT_DEFINITION_FORMATION('','',#7);
#7 = PRODUCT('2ab40e8b-b022-11f1-831f-3c9c0f4bdafb',
  '2ab40e8b-b022-11f1-831f-3c9c0f4bdafb','',(#8));
#8 = PRODUCT_CONTEXT('',#2,'mechanical');
#9 = PRODUCT_DEFINITION_CONTEXT('part definition',#2,'design');
#10 = SHAPE_REPRESENTATION('',(#11,#15,#19,#23),#27);
#11 = AXIS2_PLACEMENT_3D('',#12,#13,#14);
#12 = CARTESIAN_POINT('',(0.,0.,0.));
#13 = DIRECTION('',(0.,0.,1.));
#14 = DIRECTION('',(1.,0.,-0.));
#15 = AXIS2_PLACEMENT_3D('',#16,#17,#18);
#16 = CARTESIAN_POINT('',(0.,0.,0.));
#17 = DIRECTION('',(0.,0.,1.));
#18 = DIRECTION('',(1.,0.,-0.));
#19 = AXIS2_PLACEMENT_3D('',#20,#21,#22);
#20 = CARTESIAN_POINT('',(0.,0.,0.));
#21 = DIRECTION('',(0.,0.,1.));
#22 = DIRECTION('',(1.,0.,-0.));
#23 = AXIS2_PLACEMENT_3D('',#24,#25,#26);
#24 = CARTESIAN_POINT('',(0.,0.,0.));
#25 = DIRECTION('',(0.,0.,1.));
#26 = DIRECTION('',(1.,0.,-0.));
#27 = ( GEOMETRIC_REPRESENTATION_CONTEXT(3) 
GLOBAL_UNCERTAINTY_ASSIGNED_CONTEXT((#31)) GLOBAL_UNIT_ASSIGNED_CONTEXT(
(#28,#29,#30)) REPRESENTATION_CONTEXT('Context #1',
  '3D Context with UNIT and UNCERTAINTY') );
#28 = ( LENGTH_UNIT() NAMED_UNIT(*) SI_UNIT(.MILLI.,.METRE.) );
#29 = ( NAMED_UNIT(*) PLANE_ANGLE_UNIT() SI_UNIT($,.RADIAN.) );
#30 = ( NAMED_UNIT(*) SI_UNIT($,.STERADIAN.) SOLID_ANGLE_UNIT() );
#31 = UNCERTAINTY_MEASURE_WITH_UNIT(LENGTH_MEASURE(1.E-07),#28,
  'distance_accuracy_value','confusion accuracy');
#32 = PRODUCT_RELATED_PRODUCT_CATEGORY('part',$,(#7));
#33 = SHAPE_DEFINITION_REPRESENTATION(#34,#40);
#34 = PRODUCT_DEFINITION_SHAPE('','',#35);
#35 = PRODUCT_DEFINITION('design','',#36,#39);
#36 = PRODUCT_DEFINITION_FORMATION('','',#37);
#37 = PRODUCT('part0','part0','',(#38));
#38 = PRODUCT_CONTEXT('',#2,'mechanical');
#39 = PRODUCT_DEFINITION_CONTEXT('part definition',#2,'design');
#40 = ADVANCED_BREP_SHAPE_REPRESENTATION('',(#11,#41),#139);
#41 = MANIFOLD_SOLID_BREP('',#42);
#42 = CLOSED_SHELL('',(#43,#131,#135));
#43 = ADVANCED_FACE('',(#44),#57,.T.);
#44 = FACE_BOUND('',#45,.T.);
#45 = EDGE_LOOP('',(#46,#80,#103,#130));
#46 = ORIENTED_EDGE('',*,*,#47,.F.);
#47 = EDGE_CURVE('',#48,#48,#50,.T.);
#48 = VERTEX_POINT('',#49);
#49 = CARTESIAN_POINT('',(450.,-1.102182119233E-13,3.5E+03));
#50 = SURFACE_CURVE('',#51,(#56,#68),.PCURVE_S1.);
#51 = CIRCLE('',#52,450.);
#52 = AXIS2_PLACEMENT_3D('',#53,#54,#55);
#53 = CARTESIAN_POINT('',(0.,0.,3.5E+03));
#54 = DIRECTION('',(0.,0.,1.));
#55 = DIRECTION('',(1.,0.,-0.));
#56 = PCURVE('',#57,#62);
#57 = CONICAL_SURFACE('',#58,600.,4.283093266873E-02);
#58 = AXIS2_PLACEMENT_3D('',#59,#60,#61);
#59 = CARTESIAN_POINT('',(0.,0.,0.));
#60 = DIRECTION('',(-0.,-0.,-1.));
#61 = DIRECTION('',(1.,0.,-0.));
#62 = DEFINITIONAL_REPRESENTATION('',(#63),#67);
#63 = LINE('',#64,#65);
#64 = CARTESIAN_POINT('',(-0.,-3.5E+03));
#65 = VECTOR('',#66,1.);
#66 = DIRECTION('',(-1.,-0.));
#67 = ( GEOMETRIC_REPRESENTATION_CONTEXT(2) 
PARAMETRIC_REPRESENTATION_CONTEXT() REPRESENTATION_CONTEXT('2D SPACE',''
  ) );
#68 = PCURVE('',#69,#74);
#69 = PLANE('',#70);
#70 = AXIS2_PLACEMENT_3D('',#71,#72,#73);
#71 = CARTESIAN_POINT('',(0.,0.,3.5E+03));
#72 = DIRECTION('',(0.,0.,1.));
#73 = DIRECTION('',(1.,0.,-0.));
#74 = DEFINITIONAL_REPRESENTATION('',(#75),#79);
#75 = CIRCLE('',#76,450.);
#76 = AXIS2_PLACEMENT_2D('',#77,#78);
#77 = CARTESIAN_POINT('',(0.,0.));
#78 = DIRECTION('',(1.,0.));
#79 = ( GEOMETRIC_REPRESENTATION_CONTEXT(2) 
PARAMETRIC_REPRESENTATION_CONTEXT() REPRESENTATION_CONTEXT('2D SPACE',''
  ) );
#80 = ORIENTED_EDGE('',*,*,#81,.F.);
#81 = EDGE_CURVE('',#82,#48,#84,.T.);
#82 = VERTEX_POINT('',#83);
#83 = CARTESIAN_POINT('',(600.,-1.469576158977E-13,0.));
#84 = SEAM_CURVE('',#85,(#89,#96),.PCURVE_S1.);
#85 = LINE('',#86,#87);
#86 = CARTESIAN_POINT('',(600.,-1.469576158977E-13,0.));
#87 = VECTOR('',#88,1.);
#88 = DIRECTION('',(-4.281783839219E-02,1.048734574668E-17,
    0.999082895818));
#89 = PCURVE('',#57,#90);
#90 = DEFINITIONAL_REPRESENTATION('',(#91),#95);
#91 = LINE('',#92,#93);
#92 = CARTESIAN_POINT('',(-6.28318530718,0.));
#93 = VECTOR('',#94,1.);
#94 = DIRECTION('',(-0.,-1.));
#95 = ( GEOMETRIC_REPRESENTATION_CONTEXT(2) 
PARAMETRIC_REPRESENTATION_CONTEXT() REPRESENTATION_CONTEXT('2D SPACE',''
  ) );
#96 = PCURVE('',#57,#97);
#97 = DEFINITIONAL_REPRESENTATION('',(#98),#102);
#98 = LINE('',#99,#100);
#99 = CARTESIAN_POINT('',(0.,-0.));
#100 = VECTOR('',#101,1.);
#101 = DIRECTION('',(-0.,-1.));
#102 = ( GEOMETRIC_REPRESENTATION_CONTEXT(2) 
PARAMETRIC_REPRESENTATION_CONTEXT() REPRESENTATION_CONTEXT('2D SPACE',''
  ) );
#103 = ORIENTED_EDGE('',*,*,#104,.T.);
#104 = EDGE_CURVE('',#82,#82,#105,.T.);
#105 = SURFACE_CURVE('',#106,(#111,#118),.PCURVE_S1.);
#106 = CIRCLE('',#107,600.);
#107 = AXIS2_PLACEMENT_3D('',#108,#109,#110);
#108 = CARTESIAN_POINT('',(0.,0.,0.));
#109 = DIRECTION('',(0.,0.,1.));
#110 = DIRECTION('',(1.,0.,-0.));
#111 = PCURVE('',#57,#112);
#112 = DEFINITIONAL_REPRESENTATION('',(#113),#117);
#113 = LINE('',#114,#115);
#114 = CARTESIAN_POINT('',(-0.,-0.));
#115 = VECTOR('',#116,1.);
#116 = DIRECTION('',(-1.,-0.));
#117 = ( GEOMETRIC_REPRESENTATION_CONTEXT(2) 
PARAMETRIC_REPRESENTATION_CONTEXT() REPRESENTATION_CONTEXT('2D SPACE',''
  ) );
#118 = PCURVE('',#119,#124);
#119 = PLANE('',#120);
#120 = AXIS2_PLACEMENT_3D('',#121,#122,#123);
#121 = CARTESIAN_POINT('',(0.,0.,0.));
#122 = DIRECTION('',(0.,0.,1.));
#123 = DIRECTION('',(1.,0.,-0.));
#124 = DEFINITIONAL_REPRESENTATION('',(#125),#129);
#125 = CIRCLE('',#126,600.);
#126 = AXIS2_PLACEMENT_2D('',#127,#128);
#127 = CARTESIAN_POINT('',(0.,0.));
#128 = DIRECTION('',(1.,0.));
#129 = ( GEOMETRIC_REPRESENTATION_CONTEXT(2) 
PARAMETRIC_REPRESENTATION_CONTEXT() REPRESENTATION_CONTEXT('2D SPACE',''
  ) );
#130 = ORIENTED_EDGE('',*,*,#81,.T.);
#131 = ADVANCED_FACE('',(#132),#69,.T.);
#132 = FACE_BOUND('',#133,.T.);
#133 = EDGE_LOOP('',(#134));
#134 = ORIENTED_EDGE('',*,*,#47,.T.);
#135 = ADVANCED_FACE('',(#136),#119,.F.);
#136 = FACE_BOUND('',#137,.T.);
#137 = EDGE_LOOP('',(#138));
#138 = ORIENTED_EDGE('',*,*,#104,.F.);
#139 = ( GEOMETRIC_REPRESENTATION_CONTEXT(3) 
GLOBAL_UNCERTAINTY_ASSIGNED_CONTEXT((#143)) GLOBAL_UNIT_ASSIGNED_CONTEXT
((#140,#141,#142)) REPRESENTATION_CONTEXT('Context #1',
  '3D Context with UNIT and UNCERTAINTY') );
#140 = ( LENGTH_UNIT() NAMED_UNIT(*) SI_UNIT(.MILLI.,.METRE.) );
#141 = ( NAMED_UNIT(*) PLANE_ANGLE_UNIT() SI_UNIT($,.RADIAN.) );
#142 = ( NAMED_UNIT(*) SI_UNIT($,.STERADIAN.) SOLID_ANGLE_UNIT() );
#143 = UNCERTAINTY_MEASURE_WITH_UNIT(LENGTH_MEASURE(1.E-07),#140,
  'distance_accuracy_value','confusion accuracy');
#144 = CONTEXT_DEPENDENT_SHAPE_REPRESENTATION(#145,#147);
#145 = ( REPRESENTATION_RELATIONSHIP('','',#40,#10) 
REPRESENTATION_RELATIONSHIP_WITH_TRANSFORMATION(#146) 
SHAPE_REPRESENTATION_RELATIONSHIP() );
#146 = ITEM_DEFINED_TRANSFORMATION('','',#11,#15);
#147 = PRODUCT_DEFINITION_SHAPE('Placement','Placement of an item',#148
  );
#148 = NEXT_ASSEMBLY_USAGE_OCCURRENCE('248','part0','',#5,#35,$);
#149 = PRODUCT_RELATED_PRODUCT_CATEGORY('part',$,(#37));
#150 = SHAPE_DEFINITION_REPRESENTATION(#151,#157);
#151 = PRODUCT_DEFINITION_SHAPE('','',#152);
#152 = PRODUCT_DEFINITION('design','',#153,#156);
#153 = PRODUCT_DEFINITION_FORMATION('','',#154);
#154 = PRODUCT('part1','part1','',(#155));
#155 = PRODUCT_CONTEXT('',#2,'mechanical');
#156 = PRODUCT_DEFINITION_CONTEXT('part definition',#2,'design');
#157 = ADVANCED_BREP_SHAPE_REPRESENTATION('',(#11,#158),#201);
#158 = MANIFOLD_SOLID_BREP('',#159);
#159 = CLOSED_SHELL('',(#160));
#160 = ADVANCED_FACE('',(#161),#165,.T.);
#161 = FACE_BOUND('',#162,.T.);
#162 = VERTEX_LOOP('',#163);
#163 = VERTEX_POINT('',#164);
#164 = CARTESIAN_POINT('',(3.673940397442E-13,-8.998558695971E-29,
    3.7E+03));
#165 = ( BOUNDED_SURFACE() B_SPLINE_SURFACE(2,2,(
    (#166,#167,#168,#169,#170)
    ,(#171,#172,#173,#174,#175)
    ,(#176,#177,#178,#179,#180)
    ,(#181,#182,#183,#184,#185)
    ,(#186,#187,#188,#189,#190)
    ,(#191,#192,#193,#194,#195)
    ,(#196,#197,#198,#199,#200
)),.UNSPECIFIED.,.T.,.F.,.F.) B_SPLINE_SURFACE_WITH_KNOTS((1,2,2,2,2,1),
  (3,2,3),(-2.094395102393,0.,2.094395102393,4.188790204786,
    6.28318530718,8.377580409573),(-1.570796326795,0.,1.570796326795),
.UNSPECIFIED.) GEOMETRIC_REPRESENTATION_ITEM() RATIONAL_B_SPLINE_SURFACE
((
    (1.,0.707106781187,1.,0.707106781187,1.)
    ,(0.5,0.353553390593,0.5,0.353553390593,0.5)
    ,(1.,0.707106781187,1.,0.707106781187,1.)
    ,(0.5,0.353553390593,0.5,0.353553390593,0.5)
    ,(1.,0.707106781187,1.,0.707106781187,1.)
    ,(0.5,0.353553390593,0.5,0.353553390593,0.5)
,(1.,0.707106781187,1.,0.707106781187,1.
))) REPRESENTATION_ITEM('') SURFACE() );
#166 = CARTESIAN_POINT('',(3.673940397442E-13,0.,3.7E+03));
#167 = CARTESIAN_POINT('',(6.E+03,0.,3.7E+03));
#168 = CARTESIAN_POINT('',(6.E+03,0.,7.5E+03));
#169 = CARTESIAN_POINT('',(6.E+03,0.,1.13E+04));
#170 = CARTESIAN_POINT('',(3.673940397442E-13,0.,1.13E+04));
#171 = CARTESIAN_POINT('',(3.673940397442E-13,6.363451432349E-13,3.7E+03
    ));
#172 = CARTESIAN_POINT('',(6.E+03,1.039230484541E+04,3.7E+03));
#173 = CARTESIAN_POINT('',(6.E+03,1.039230484541E+04,7.5E+03));
#174 = CARTESIAN_POINT('',(6.E+03,1.039230484541E+04,1.13E+04));
#175 = CARTESIAN_POINT('',(3.673940397442E-13,6.363451432349E-13,
    1.13E+04));
#176 = CARTESIAN_POINT('',(-1.836970198721E-13,3.181725716175E-13,
    3.7E+03));
#177 = CARTESIAN_POINT('',(-3.E+03,5.196152422707E+03,3.7E+03));
#178 = CARTESIAN_POINT('',(-3.E+03,5.196152422707E+03,7.5E+03));
#179 = CARTESIAN_POINT('',(-3.E+03,5.196152422707E+03,1.13E+04));
#180 = CARTESIAN_POINT('',(-1.836970198721E-13,3.181725716175E-13,
    1.13E+04));
#181 = CARTESIAN_POINT('',(-7.347880794884E-13,8.998558695971E-29,
    3.7E+03));
#182 = CARTESIAN_POINT('',(-1.2E+04,1.469576158977E-12,3.7E+03));
#183 = CARTESIAN_POINT('',(-1.2E+04,1.469576158977E-12,7.5E+03));
#184 = CARTESIAN_POINT('',(-1.2E+04,1.469576158977E-12,1.13E+04));
#185 = CARTESIAN_POINT('',(-7.347880794884E-13,8.998558695971E-29,
    1.13E+04));
#186 = CARTESIAN_POINT('',(-1.836970198721E-13,-3.181725716175E-13,
    3.7E+03));
#187 = CARTESIAN_POINT('',(-3.E+03,-5.196152422707E+03,3.7E+03));
#188 = CARTESIAN_POINT('',(-3.E+03,-5.196152422707E+03,7.5E+03));
#189 = CARTESIAN_POINT('',(-3.E+03,-5.196152422707E+03,1.13E+04));
#190 = CARTESIAN_POINT('',(-1.836970198721E-13,-3.181725716175E-13,
    1.13E+04));
#191 = CARTESIAN_POINT('',(3.673940397442E-13,-6.363451432349E-13,
    3.7E+03));
#192 = CARTESIAN_POINT('',(6.E+03,-1.039230484541E+04,3.7E+03));
#193 = CARTESIAN_POINT('',(6.E+03,-1.039230484541E+04,7.5E+03));
#194 = CARTESIAN_POINT('',(6.E+03,-1.039230484541E+04,1.13E+04));
#195 = CARTESIAN_POINT('',(3.673940397442E-13,-6.363451432349E-13,
    1.13E+04));
#196 = CARTESIAN_POINT('',(3.673940397442E-13,0.,3.7E+03));
#197 = CARTESIAN_POINT('',(6.E+03,0.,3.7E+03));
#198 = CARTESIAN_POINT('',(6.E+03,0.,7.5E+03));
#199 = CARTESIAN_POINT('',(6.E+03,0.,1.13E+04));
#200 = CARTESIAN_POINT('',(3.673940397442E-13,0.,1.13E+04));
#201 = ( GEOMETRIC_REPRESENTATION_CONTEXT(3) 
GLOBAL_UNCERTAINTY_ASSIGNED_CONTEXT((#205)) GLOBAL_UNIT_ASSIGNED_CONTEXT
((#202,#203,#204)) REPRESENTATION_CONTEXT('Context #1',
  '3D Context with UNIT and UNCERTAINTY') );
#202 = ( LENGTH_UNIT() NAMED_UNIT(*) SI_UNIT(.MILLI.,.METRE.) );
#203 = ( NAMED_UNIT(*) PLANE_ANGLE_UNIT() SI_UNIT($,.RADIAN.) );
#204 = ( NAMED_UNIT(*) SI_UNIT($,.STERADIAN.) SOLID_ANGLE_UNIT() );
#205 = UNCERTAINTY_MEASURE_WITH_UNIT(LENGTH_MEASURE(1.E-07),#202,
  'distance_accuracy_value','confusion accuracy');
#206 = CONTEXT_DEPENDENT_SHAPE_REPRESENTATION(#207,#209);
#207 = ( REPRESENTATION_RELATIONSHIP('','',#157,#10) 
REPRESENTATION_RELATIONSHIP_WITH_TRANSFORMATION(#208) 
SHAPE_REPRESENTATION_RELATIONSHIP() );
#208 = ITEM_DEFINED_TRANSFORMATION('','',#11,#19);
#209 = PRODUCT_DEFINITION_SHAPE('Placement','Placement of an item',#210
  );
#210 = NEXT_ASSEMBLY_USAGE_OCCURRENCE('249','part1','',#5,#152,$);
#211 = PRODUCT_RELATED_PRODUCT_CATEGORY('part',$,(#154));
#212 = SHAPE_DEFINITION_REPRESENTATION(#213,#219);
#213 = PRODUCT_DEFINITION_SHAPE('','',#214);
#214 = PRODUCT_DEFINITION('design','',#215,#218);
#215 = PRODUCT_DEFINITION_FORMATION('','',#216);
#216 = PRODUCT('part2','part2','',(#217));
#217 = PRODUCT_CONTEXT('',#2,'mechanical');
#218 = PRODUCT_DEFINITION_CONTEXT('part definition',#2,'design');
#219 = ADVANCED_BREP_SHAPE_REPRESENTATION('',(#11,#220),#263);
#220 = MANIFOLD_SOLID_BREP('',#221);
#221 = CLOSED_SHELL('',(#222));
#222 = ADVANCED_FACE('',(#223),#227,.T.);
#223 = FACE_BOUND('',#224,.T.);
#224 = VERTEX_LOOP('',#225);
#225 = VERTEX_POINT('',#226);
#226 = CARTESIAN_POINT('',(4.163799117101E-13,-1.01983665221E-28,2.6E+03
    ));
#227 = ( BOUNDED_SURFACE() B_SPLINE_SURFACE(2,2,(
    (#228,#229,#230,#231,#232)
    ,(#233,#234,#235,#236,#237)
    ,(#238,#239,#240,#241,#242)
    ,(#243,#244,#245,#246,#247)
    ,(#248,#249,#250,#251,#252)
    ,(#253,#254,#255,#256,#257)
    ,(#258,#259,#260,#261,#262
)),.UNSPECIFIED.,.T.,.F.,.F.) B_SPLINE_SURFACE_WITH_KNOTS((1,2,2,2,2,1),
  (3,2,3),(-2.094395102393,0.,2.094395102393,4.188790204786,
    6.28318530718,8.377580409573),(-1.570796326795,0.,1.570796326795),
.UNSPECIFIED.) GEOMETRIC_REPRESENTATION_ITEM() RATIONAL_B_SPLINE_SURFACE
((
    (1.,0.707106781187,1.,0.707106781187,1.)
    ,(0.5,0.353553390593,0.5,0.353553390593,0.5)
    ,(1.,0.707106781187,1.,0.707106781187,1.)
    ,(0.5,0.353553390593,0.5,0.353553390593,0.5)
    ,(1.,0.707106781187,1.,0.707106781187,1.)
    ,(0.5,0.353553390593,0.5,0.353553390593,0.5)
,(1.,0.707106781187,1.,0.707106781187,1.
))) REPRESENTATION_ITEM('') SURFACE() );
#228 = CARTESIAN_POINT('',(4.163799117101E-13,0.,2.6E+03));
#229 = CARTESIAN_POINT('',(6.8E+03,0.,2.6E+03));
#230 = CARTESIAN_POINT('',(6.8E+03,0.,4.2E+03));
#231 = CARTESIAN_POINT('',(6.8E+03,0.,5.8E+03));
#232 = CARTESIAN_POINT('',(4.163799117101E-13,0.,5.8E+03));
#233 = CARTESIAN_POINT('',(4.163799117101E-13,7.211911623329E-13,2.6E+03
    ));
#234 = CARTESIAN_POINT('',(6.8E+03,1.177794549147E+04,2.6E+03));
#235 = CARTESIAN_POINT('',(6.8E+03,1.177794549147E+04,4.2E+03));
#236 = CARTESIAN_POINT('',(6.8E+03,1.177794549147E+04,5.8E+03));
#237 = CARTESIAN_POINT('',(4.163799117101E-13,7.211911623329E-13,5.8E+03
    ));
#238 = CARTESIAN_POINT('',(-2.08189955855E-13,3.605955811665E-13,2.6E+03
    ));
#239 = CARTESIAN_POINT('',(-3.4E+03,5.888972745734E+03,2.6E+03));
#240 = CARTESIAN_POINT('',(-3.4E+03,5.888972745734E+03,4.2E+03));
#241 = CARTESIAN_POINT('',(-3.4E+03,5.888972745734E+03,5.8E+03));
#242 = CARTESIAN_POINT('',(-2.08189955855E-13,3.605955811665E-13,5.8E+03
    ));
#243 = CARTESIAN_POINT('',(-8.327598234202E-13,1.01983665221E-28,2.6E+03
    ));
#244 = CARTESIAN_POINT('',(-1.36E+04,1.66551964684E-12,2.6E+03));
#245 = CARTESIAN_POINT('',(-1.36E+04,1.66551964684E-12,4.2E+03));
#246 = CARTESIAN_POINT('',(-1.36E+04,1.66551964684E-12,5.8E+03));
#247 = CARTESIAN_POINT('',(-8.327598234202E-13,1.01983665221E-28,5.8E+03
    ));
#248 = CARTESIAN_POINT('',(-2.081899558551E-13,-3.605955811665E-13,
    2.6E+03));
#249 = CARTESIAN_POINT('',(-3.4E+03,-5.888972745734E+03,2.6E+03));
#250 = CARTESIAN_POINT('',(-3.4E+03,-5.888972745734E+03,4.2E+03));
#251 = CARTESIAN_POINT('',(-3.4E+03,-5.888972745734E+03,5.8E+03));
#252 = CARTESIAN_POINT('',(-2.081899558551E-13,-3.605955811665E-13,
    5.8E+03));
#253 = CARTESIAN_POINT('',(4.163799117101E-13,-7.211911623329E-13,
    2.6E+03));
#254 = CARTESIAN_POINT('',(6.8E+03,-1.177794549147E+04,2.6E+03));
#255 = CARTESIAN_POINT('',(6.8E+03,-1.177794549147E+04,4.2E+03));
#256 = CARTESIAN_POINT('',(6.8E+03,-1.177794549147E+04,5.8E+03));
#257 = CARTESIAN_POINT('',(4.163799117101E-13,-7.211911623329E-13,
    5.8E+03));
#258 = CARTESIAN_POINT('',(4.163799117101E-13,0.,2.6E+03));
#259 = CARTESIAN_POINT('',(6.8E+03,0.,2.6E+03));
#260 = CARTESIAN_POINT('',(6.8E+03,0.,4.2E+03));
#261 = CARTESIAN_POINT('',(6.8E+03,0.,5.8E+03));
#262 = CARTESIAN_POINT('',(4.163799117101E-13,0.,5.8E+03));
#263 = ( GEOMETRIC_REPRESENTATION_CONTEXT(3) 
GLOBAL_UNCERTAINTY_ASSIGNED_CONTEXT((#267)) GLOBAL_UNIT_ASSIGNED_CONTEXT
((#264,#265,#266)) REPRESENTATION_CONTEXT('Context #1',
  '3D Context with UNIT and UNCERTAINTY') );
#264 = ( LENGTH_UNIT() NAMED_UNIT(*) SI_UNIT(.MILLI.,.METRE.) );
#265 = ( NAMED_UNIT(*) PLANE_ANGLE_UNIT() SI_UNIT($,.RADIAN.) );
#266 = ( NAMED_UNIT(*) SI_UNIT($,.STERADIAN.) SOLID_ANGLE_UNIT() );
#267 = UNCERTAINTY_MEASURE_WITH_UNIT(LENGTH_MEASURE(1.E-07),#264,
  'distance_accuracy_value','confusion accuracy');
#268 = CONTEXT_DEPENDENT_SHAPE_REPRESENTATION(#269,#271);
#269 = ( REPRESENTATION_RELATIONSHIP('','',#219,#10) 
REPRESENTATION_RELATIONSHIP_WITH_TRANSFORMATION(#270) 
SHAPE_REPRESENTATION_RELATIONSHIP() );
#270 = ITEM_DEFINED_TRANSFORMATION('','',#11,#23);
#271 = PRODUCT_DEFINITION_SHAPE('Placement','Placement of an item',#272
  );
#272 = NEXT_ASSEMBLY_USAGE_OCCURRENCE('250','part2','',#5,#214,$);
#273 = PRODUCT_RELATED_PRODUCT_CATEGORY('part',$,(#216));
#274 = MECHANICAL_DESIGN_GEOMETRIC_PRESENTATION_REPRESENTATION('',(#275)
  ,#201);
#275 = STYLED_ITEM('color',(#276),#158);
#276 = PRESENTATION_STYLE_ASSIGNMENT((#277));
#277 = SURFACE_STYLE_USAGE(.BOTH.,#278);
#278 = SURFACE_SIDE_STYLE('',(#279));
#279 = SURFACE_STYLE_FILL_AREA(#280);
#280 = FILL_AREA_STYLE('',(#281));
#281 = FILL_AREA_STYLE_COLOUR('',#282);
#282 = COLOUR_RGB('',0.541176465727,0.658823527652,0.360784317039);
#283 = MECHANICAL_DESIGN_GEOMETRIC_PRESENTATION_REPRESENTATION('',(#284)
  ,#139);
#284 = STYLED_ITEM('color',(#285),#41);
#285 = PRESENTATION_STYLE_ASSIGNMENT((#286));
#286 = SURFACE_STYLE_USAGE(.BOTH.,#287);
#287 = SURFACE_SIDE_STYLE('',(#288));
#288 = SURFACE_STYLE_FILL_AREA(#289);
#289 = FILL_AREA_STYLE('',(#290));
#290 = FILL_AREA_STYLE_COLOUR('',#291);
#291 = COLOUR_RGB('',0.431372551983,0.372549021024,0.290196072577);
#292 = MECHANICAL_DESIGN_GEOMETRIC_PRESENTATION_REPRESENTATION('',(#293)
  ,#263);
#293 = STYLED_ITEM('color',(#294),#220);
#294 = PRESENTATION_STYLE_ASSIGNMENT((#295));
#295 = SURFACE_STYLE_USAGE(.BOTH.,#296);
#296 = SURFACE_SIDE_STYLE('',(#297));
#297 = SURFACE_STYLE_FILL_AREA(#298);
#298 = FILL_AREA_STYLE('',(#299));
#299 = FILL_AREA_STYLE_COLOUR('',#282);
ENDSEC;
END-ISO-10303-21;
