ISO-10303-21;
HEADER;
FILE_DESCRIPTION(('Open CASCADE Model'),'2;1');
FILE_NAME('Open CASCADE Shape Model','2026-09-14T10:53:43',('Author'),(
    'Open CASCADE'),'Open CASCADE STEP processor 7.9','Open CASCADE 7.9'
  ,'Unknown');
FILE_SCHEMA(('AUTOMOTIVE_DESIGN { 1 0 10303 214 1 1 1 1 }'));
ENDSEC;
DATA;
#1 = APPLICATION_PROTOCOL_DEFINITION('international standard',
  'automotive_design',2000,#2);
#2 = APPLICATION_CONTEXT(
  'core data for automotive mechanical design processes');
#3 = SHAPE_DEFINITION_REPRESENTATION(#4,#10);
#4 = PRODUCT_DEFINITION_SHAPE('','',#5);
#5 = PRODUCT_DEFINITION('design','',#6,#9);
#6 = PRODUCT_DEFINITION_FORMATION('','',#7);
#7 = PRODUCT('2c0c5af4-b022-11f1-9cd3-3c9c0f4bdafb',
  '2c0c5af4-b022-11f1-9cd3-3c9c0f4bdafb','',(#8));
#8 = PRODUCT_CONTEXT('',#2,'mechanical');
#9 = PRODUCT_DEFINITION_CONTEXT('part definition',#2,'design');
#10 = SHAPE_REPRESENTATION('',(#11,#15,#19,#23,#27),#31);
#11 = AXIS2_PLACEMENT_3D('',#12,#13,#14);
#12 = CARTESIAN_POINT('',(0.,0.,0.));
#13 = DIRECTION('',(0.,0.,1.));
#14 = DIRECTION('',(1.,0.,-0.));
#15 = AXIS2_PLACEMENT_3D('',#16,#17,#18);
#16 = CARTESIAN_POINT('',(0.,0.,0.));
#17 = DIRECTION('',(0.,0.,1.));
#18 = DIRECTION('',(1.,0.,-0.));
#19 = AXIS2_PLACEMENT_3D('',#20,#21,#22);
#20 = CARTESIAN_POINT('',(0.,0.,0.));
#21 = DIRECTION('',(0.,0.,1.));
#22 = DIRECTION('',(1.,0.,-0.));
#23 = AXIS2_PLACEMENT_3D('',#24,#25,#26);
#24 = CARTESIAN_POINT('',(0.,0.,0.));
#25 = DIRECTION('',(0.,0.,1.));
#26 = DIRECTION('',(1.,0.,-0.));
#27 = AXIS2_PLACEMENT_3D('',#28,#29,#30);
#28 = CARTESIAN_POINT('',(0.,0.,0.));
#29 = DIRECTION('',(0.,0.,1.));
#30 = DIRECTION('',(1.,0.,-0.));
#31 = ( GEOMETRIC_REPRESENTATION_CONTEXT(3) 
GLOBAL_UNCERTAINTY_ASSIGNED_CONTEXT((#35)) GLOBAL_UNIT_ASSIGNED_CONTEXT(
(#32,#33,#34)) REPRESENTATION_CONTEXT('Context #1',
  '3D Context with UNIT and UNCERTAINTY') );
#32 = ( LENGTH_UNIT() NAMED_UNIT(*) SI_UNIT(.MILLI.,.METRE.) );
#33 = ( NAMED_UNIT(*) PLANE_ANGLE_UNIT() SI_UNIT($,.RADIAN.) );
#34 = ( NAMED_UNIT(*) SI_UNIT($,.STERADIAN.) SOLID_ANGLE_UNIT() );
#35 = UNCERTAINTY_MEASURE_WITH_UNIT(LENGTH_MEASURE(1.E-07),#32,
  'distance_accuracy_value','confusion accuracy');
#36 = PRODUCT_RELATED_PRODUCT_CATEGORY('part',$,(#7));
#37 = SHAPE_DEFINITION_REPRESENTATION(#38,#44);
#38 = PRODUCT_DEFINITION_SHAPE('','',#39);
#39 = PRODUCT_DEFINITION('design','',#40,#43);
#40 = PRODUCT_DEFINITION_FORMATION('','',#41);
#41 = PRODUCT('part0','part0','',(#42));
#42 = PRODUCT_CONTEXT('',#2,'mechanical');
#43 = PRODUCT_DEFINITION_CONTEXT('part definition',#2,'design');
#44 = ADVANCED_BREP_SHAPE_REPRESENTATION('',(#11,#45),#143);
#45 = MANIFOLD_SOLID_BREP('',#46);
#46 = CLOSED_SHELL('',(#47,#135,#139));
#47 = ADVANCED_FACE('',(#48),#61,.T.);
#48 = FACE_BOUND('',#49,.T.);
#49 = EDGE_LOOP('',(#50,#84,#107,#134));
#50 = ORIENTED_EDGE('',*,*,#51,.F.);
#51 = EDGE_CURVE('',#52,#52,#54,.T.);
#52 = VERTEX_POINT('',#53);
#53 = CARTESIAN_POINT('',(600.,-1.469576158977E-13,5.E+03));
#54 = SURFACE_CURVE('',#55,(#60,#72),.PCURVE_S1.);
#55 = CIRCLE('',#56,600.);
#56 = AXIS2_PLACEMENT_3D('',#57,#58,#59);
#57 = CARTESIAN_POINT('',(0.,0.,5.E+03));
#58 = DIRECTION('',(0.,0.,1.));
#59 = DIRECTION('',(1.,0.,-0.));
#60 = PCURVE('',#61,#66);
#61 = CONICAL_SURFACE('',#62,800.,3.997868712329E-02);
#62 = AXIS2_PLACEMENT_3D('',#63,#64,#65);
#63 = CARTESIAN_POINT('',(0.,0.,0.));
#64 = DIRECTION('',(-0.,-0.,-1.));
#65 = DIRECTION('',(1.,0.,-0.));
#66 = DEFINITIONAL_REPRESENTATION('',(#67),#71);
#67 = LINE('',#68,#69);
#68 = CARTESIAN_POINT('',(-0.,-5.E+03));
#69 = VECTOR('',#70,1.);
#70 = DIRECTION('',(-1.,-0.));
#71 = ( GEOMETRIC_REPRESENTATION_CONTEXT(2) 
PARAMETRIC_REPRESENTATION_CONTEXT() REPRESENTATION_CONTEXT('2D SPACE',''
  ) );
#72 = PCURVE('',#73,#78);
#73 = PLANE('',#74);
#74 = AXIS2_PLACEMENT_3D('',#75,#76,#77);
#75 = CARTESIAN_POINT('',(0.,0.,5.E+03));
#76 = DIRECTION('',(0.,0.,1.));
#77 = DIRECTION('',(1.,0.,-0.));
#78 = DEFINITIONAL_REPRESENTATION('',(#79),#83);
#79 = CIRCLE('',#80,600.);
#80 = AXIS2_PLACEMENT_2D('',#81,#82);
#81 = CARTESIAN_POINT('',(0.,0.));
#82 = DIRECTION('',(1.,0.));
#83 = ( GEOMETRIC_REPRESENTATION_CONTEXT(2) 
PARAMETRIC_REPRESENTATION_CONTEXT() REPRESENTATION_CONTEXT('2D SPACE',''
  ) );
#84 = ORIENTED_EDGE('',*,*,#85,.F.);
#85 = EDGE_CURVE('',#86,#52,#88,.T.);
#86 = VERTEX_POINT('',#87);
#87 = CARTESIAN_POINT('',(800.,-1.959434878636E-13,0.));
#88 = SEAM_CURVE('',#89,(#93,#100),.PCURVE_S1.);
#89 = LINE('',#90,#91);
#90 = CARTESIAN_POINT('',(800.,-1.959434878636E-13,0.));
#91 = VECTOR('',#92,1.);
#92 = DIRECTION('',(-3.996803834887E-02,9.789346046429E-18,
    0.999200958722));
#93 = PCURVE('',#61,#94);
#94 = DEFINITIONAL_REPRESENTATION('',(#95),#99);
#95 = LINE('',#96,#97);
#96 = CARTESIAN_POINT('',(-6.28318530718,0.));
#97 = VECTOR('',#98,1.);
#98 = DIRECTION('',(-0.,-1.));
#99 = ( GEOMETRIC_REPRESENTATION_CONTEXT(2) 
PARAMETRIC_REPRESENTATION_CONTEXT() REPRESENTATION_CONTEXT('2D SPACE',''
  ) );
#100 = PCURVE('',#61,#101);
#101 = DEFINITIONAL_REPRESENTATION('',(#102),#106);
#102 = LINE('',#103,#104);
#103 = CARTESIAN_POINT('',(0.,-0.));
#104 = VECTOR('',#105,1.);
#105 = DIRECTION('',(-0.,-1.));
#106 = ( GEOMETRIC_REPRESENTATION_CONTEXT(2) 
PARAMETRIC_REPRESENTATION_CONTEXT() REPRESENTATION_CONTEXT('2D SPACE',''
  ) );
#107 = ORIENTED_EDGE('',*,*,#108,.T.);
#108 = EDGE_CURVE('',#86,#86,#109,.T.);
#109 = SURFACE_CURVE('',#110,(#115,#122),.PCURVE_S1.);
#110 = CIRCLE('',#111,800.);
#111 = AXIS2_PLACEMENT_3D('',#112,#113,#114);
#112 = CARTESIAN_POINT('',(0.,0.,0.));
#113 = DIRECTION('',(0.,0.,1.));
#114 = DIRECTION('',(1.,0.,-0.));
#115 = PCURVE('',#61,#116);
#116 = DEFINITIONAL_REPRESENTATION('',(#117),#121);
#117 = LINE('',#118,#119);
#118 = CARTESIAN_POINT('',(-0.,-0.));
#119 = VECTOR('',#120,1.);
#120 = DIRECTION('',(-1.,-0.));
#121 = ( GEOMETRIC_REPRESENTATION_CONTEXT(2) 
PARAMETRIC_REPRESENTATION_CONTEXT() REPRESENTATION_CONTEXT('2D SPACE',''
  ) );
#122 = PCURVE('',#123,#128);
#123 = PLANE('',#124);
#124 = AXIS2_PLACEMENT_3D('',#125,#126,#127);
#125 = CARTESIAN_POINT('',(0.,0.,0.));
#126 = DIRECTION('',(0.,0.,1.));
#127 = DIRECTION('',(1.,0.,-0.));
#128 = DEFINITIONAL_REPRESENTATION('',(#129),#133);
#129 = CIRCLE('',#130,800.);
#130 = AXIS2_PLACEMENT_2D('',#131,#132);
#131 = CARTESIAN_POINT('',(0.,0.));
#132 = DIRECTION('',(1.,0.));
#133 = ( GEOMETRIC_REPRESENTATION_CONTEXT(2) 
PARAMETRIC_REPRESENTATION_CONTEXT() REPRESENTATION_CONTEXT('2D SPACE',''
  ) );
#134 = ORIENTED_EDGE('',*,*,#85,.T.);
#135 = ADVANCED_FACE('',(#136),#73,.T.);
#136 = FACE_BOUND('',#137,.T.);
#137 = EDGE_LOOP('',(#138));
#138 = ORIENTED_EDGE('',*,*,#51,.T.);
#139 = ADVANCED_FACE('',(#140),#123,.F.);
#140 = FACE_BOUND('',#141,.T.);
#141 = EDGE_LOOP('',(#142));
#142 = ORIENTED_EDGE('',*,*,#108,.F.);
#143 = ( GEOMETRIC_REPRESENTATION_CONTEXT(3) 
GLOBAL_UNCERTAINTY_ASSIGNED_CONTEXT((#147)) GLOBAL_UNIT_ASSIGNED_CONTEXT
((#144,#145,#146)) REPRESENTATION_CONTEXT('Context #1',
  '3D Context with UNIT and UNCERTAINTY') );
#144 = ( LENGTH_UNIT() NAMED_UNIT(*) SI_UNIT(.MILLI.,.METRE.) );
#145 = ( NAMED_UNIT(*) PLANE_ANGLE_UNIT() SI_UNIT($,.RADIAN.) );
#146 = ( NAMED_UNIT(*) SI_UNIT($,.STERADIAN.) SOLID_ANGLE_UNIT() );
#147 = UNCERTAINTY_MEASURE_WITH_UNIT(LENGTH_MEASURE(1.E-07),#144,
  'distance_accuracy_value','confusion accuracy');
#148 = CONTEXT_DEPENDENT_SHAPE_REPRESENTATION(#149,#151);
#149 = ( REPRESENTATION_RELATIONSHIP('','',#44,#10) 
REPRESENTATION_RELATIONSHIP_WITH_TRANSFORMATION(#150) 
SHAPE_REPRESENTATION_RELATIONSHIP() );
#150 = ITEM_DEFINED_TRANSFORMATION('','',#11,#15);
#151 = PRODUCT_DEFINITION_SHAPE('Placement','Placement of an item',#152
  );
#152 = NEXT_ASSEMBLY_USAGE_OCCURRENCE('253','part0','',#5,#39,$);
#153 = PRODUCT_RELATED_PRODUCT_CATEGORY('part',$,(#41));
#154 = SHAPE_DEFINITION_REPRESENTATION(#155,#161);
#155 = PRODUCT_DEFINITION_SHAPE('','',#156);
#156 = PRODUCT_DEFINITION('design','',#157,#160);
#157 = PRODUCT_DEFINITION_FORMATION('','',#158);
#158 = PRODUCT('part1','part1','',(#159));
#159 = PRODUCT_CONTEXT('',#2,'mechanical');
#160 = PRODUCT_DEFINITION_CONTEXT('part definition',#2,'design');
#161 = ADVANCED_BREP_SHAPE_REPRESENTATION('',(#11,#162),#205);
#162 = MANIFOLD_SOLID_BREP('',#163);
#163 = CLOSED_SHELL('',(#164));
#164 = ADVANCED_FACE('',(#165),#169,.T.);
#165 = FACE_BOUND('',#166,.T.);
#166 = VERTEX_LOOP('',#167);
#167 = VERTEX_POINT('',#168);
#168 = CARTESIAN_POINT('',(3.980102097229E-13,-9.748438587302E-29,
    8.5E+03));
#169 = ( BOUNDED_SURFACE() B_SPLINE_SURFACE(2,2,(
    (#170,#171,#172,#173,#174)
    ,(#175,#176,#177,#178,#179)
    ,(#180,#181,#182,#183,#184)
    ,(#185,#186,#187,#188,#189)
    ,(#190,#191,#192,#193,#194)
    ,(#195,#196,#197,#198,#199)
    ,(#200,#201,#202,#203,#204
)),.UNSPECIFIED.,.T.,.F.,.F.) B_SPLINE_SURFACE_WITH_KNOTS((1,2,2,2,2,1),
  (3,2,3),(-2.094395102393,0.,2.094395102393,4.188790204786,
    6.28318530718,8.377580409573),(-1.570796326795,0.,1.570796326795),
.UNSPECIFIED.) GEOMETRIC_REPRESENTATION_ITEM() RATIONAL_B_SPLINE_SURFACE
((
    (1.,0.707106781187,1.,0.707106781187,1.)
    ,(0.5,0.353553390593,0.5,0.353553390593,0.5)
    ,(1.,0.707106781187,1.,0.707106781187,1.)
    ,(0.5,0.353553390593,0.5,0.353553390593,0.5)
    ,(1.,0.707106781187,1.,0.707106781187,1.)
    ,(0.5,0.353553390593,0.5,0.353553390593,0.5)
,(1.,0.707106781187,1.,0.707106781187,1.
))) REPRESENTATION_ITEM('') SURFACE() );
#170 = CARTESIAN_POINT('',(3.980102097229E-13,0.,8.5E+03));
#171 = CARTESIAN_POINT('',(6.5E+03,0.,8.5E+03));
#172 = CARTESIAN_POINT('',(6.5E+03,0.,1.3E+04));
#173 = CARTESIAN_POINT('',(6.5E+03,0.,1.75E+04));
#174 = CARTESIAN_POINT('',(3.980102097229E-13,0.,1.75E+04));
#175 = CARTESIAN_POINT('',(3.980102097229E-13,6.893739051712E-13,8.5E+03
    ));
#176 = CARTESIAN_POINT('',(6.5E+03,1.12583302492E+04,8.5E+03));
#177 = CARTESIAN_POINT('',(6.5E+03,1.12583302492E+04,1.3E+04));
#178 = CARTESIAN_POINT('',(6.5E+03,1.12583302492E+04,1.75E+04));
#179 = CARTESIAN_POINT('',(3.980102097229E-13,6.893739051712E-13,
    1.75E+04));
#180 = CARTESIAN_POINT('',(-1.990051048614E-13,3.446869525856E-13,
    8.5E+03));
#181 = CARTESIAN_POINT('',(-3.25E+03,5.629165124599E+03,8.5E+03));
#182 = CARTESIAN_POINT('',(-3.25E+03,5.629165124599E+03,1.3E+04));
#183 = CARTESIAN_POINT('',(-3.25E+03,5.629165124599E+03,1.75E+04));
#184 = CARTESIAN_POINT('',(-1.990051048614E-13,3.446869525856E-13,
    1.75E+04));
#185 = CARTESIAN_POINT('',(-7.960204194458E-13,9.748438587302E-29,
    8.5E+03));
#186 = CARTESIAN_POINT('',(-1.3E+04,1.592040838892E-12,8.5E+03));
#187 = CARTESIAN_POINT('',(-1.3E+04,1.592040838892E-12,1.3E+04));
#188 = CARTESIAN_POINT('',(-1.3E+04,1.592040838892E-12,1.75E+04));
#189 = CARTESIAN_POINT('',(-7.960204194458E-13,9.748438587302E-29,
    1.75E+04));
#190 = CARTESIAN_POINT('',(-1.990051048614E-13,-3.446869525856E-13,
    8.5E+03));
#191 = CARTESIAN_POINT('',(-3.25E+03,-5.629165124599E+03,8.5E+03));
#192 = CARTESIAN_POINT('',(-3.25E+03,-5.629165124599E+03,1.3E+04));
#193 = CARTESIAN_POINT('',(-3.25E+03,-5.629165124599E+03,1.75E+04));
#194 = CARTESIAN_POINT('',(-1.990051048614E-13,-3.446869525856E-13,
    1.75E+04));
#195 = CARTESIAN_POINT('',(3.980102097229E-13,-6.893739051712E-13,
    8.5E+03));
#196 = CARTESIAN_POINT('',(6.5E+03,-1.12583302492E+04,8.5E+03));
#197 = CARTESIAN_POINT('',(6.5E+03,-1.12583302492E+04,1.3E+04));
#198 = CARTESIAN_POINT('',(6.5E+03,-1.12583302492E+04,1.75E+04));
#199 = CARTESIAN_POINT('',(3.980102097229E-13,-6.893739051712E-13,
    1.75E+04));
#200 = CARTESIAN_POINT('',(3.980102097229E-13,0.,8.5E+03));
#201 = CARTESIAN_POINT('',(6.5E+03,0.,8.5E+03));
#202 = CARTESIAN_POINT('',(6.5E+03,0.,1.3E+04));
#203 = CARTESIAN_POINT('',(6.5E+03,0.,1.75E+04));
#204 = CARTESIAN_POINT('',(3.980102097229E-13,0.,1.75E+04));
#205 = ( GEOMETRIC_REPRESENTATION_CONTEXT(3) 
GLOBAL_UNCERTAINTY_ASSIGNED_CONTEXT((#209)) GLOBAL_UNIT_ASSIGNED_CONTEXT
((#206,#207,#208)) REPRESENTATION_CONTEXT('Context #1',
  '3D Context with UNIT and UNCERTAINTY') );
#206 = ( LENGTH_UNIT() NAMED_UNIT(*) SI_UNIT(.MILLI.,.METRE.) );
#207 = ( NAMED_UNIT(*) PLANE_ANGLE_UNIT() SI_UNIT($,.RADIAN.) );
#208 = ( NAMED_UNIT(*) SI_UNIT($,.STERADIAN.) SOLID_ANGLE_UNIT() );
#209 = UNCERTAINTY_MEASURE_WITH_UNIT(LENGTH_MEASURE(1.E-07),#206,
  'distance_accuracy_value','confusion accuracy');
#210 = CONTEXT_DEPENDENT_SHAPE_REPRESENTATION(#211,#213);
#211 = ( REPRESENTATION_RELATIONSHIP('','',#161,#10) 
REPRESENTATION_RELATIONSHIP_WITH_TRANSFORMATION(#212) 
SHAPE_REPRESENTATION_RELATIONSHIP() );
#212 = ITEM_DEFINED_TRANSFORMATION('','',#11,#19);
#213 = PRODUCT_DEFINITION_SHAPE('Placement','Placement of an item',#214
  );
#214 = NEXT_ASSEMBLY_USAGE_OCCURRENCE('254','part1','',#5,#156,$);
#215 = PRODUCT_RELATED_PRODUCT_CATEGORY('part',$,(#158));
#216 = SHAPE_DEFINITION_REPRESENTATION(#217,#223);
#217 = PRODUCT_DEFINITION_SHAPE('','',#218);
#218 = PRODUCT_DEFINITION('design','',#219,#222);
#219 = PRODUCT_DEFINITION_FORMATION('','',#220);
#220 = PRODUCT('part2','part2','',(#221));
#221 = PRODUCT_CONTEXT('',#2,'mechanical');
#222 = PRODUCT_DEFINITION_CONTEXT('part definition',#2,'design');
#223 = ADVANCED_BREP_SHAPE_REPRESENTATION('',(#11,#224),#267);
#224 = MANIFOLD_SOLID_BREP('',#225);
#225 = CLOSED_SHELL('',(#226));
#226 = ADVANCED_FACE('',(#227),#231,.T.);
#227 = FACE_BOUND('',#228,.T.);
#228 = VERTEX_LOOP('',#229);
#229 = VERTEX_POINT('',#230);
#230 = CARTESIAN_POINT('',(3.5E+03,2.E+03,7.3E+03));
#231 = ( BOUNDED_SURFACE() B_SPLINE_SURFACE(2,2,(
    (#232,#233,#234,#235,#236)
    ,(#237,#238,#239,#240,#241)
    ,(#242,#243,#244,#245,#246)
    ,(#247,#248,#249,#250,#251)
    ,(#252,#253,#254,#255,#256)
    ,(#257,#258,#259,#260,#261)
    ,(#262,#263,#264,#265,#266
)),.UNSPECIFIED.,.T.,.F.,.F.) B_SPLINE_SURFACE_WITH_KNOTS((1,2,2,2,2,1),
  (3,2,3),(-2.094395102393,0.,2.094395102393,4.188790204786,
    6.28318530718,8.377580409573),(-1.570796326795,0.,1.570796326795),
.UNSPECIFIED.) GEOMETRIC_REPRESENTATION_ITEM() RATIONAL_B_SPLINE_SURFACE
((
    (1.,0.707106781187,1.,0.707106781187,1.)
    ,(0.5,0.353553390593,0.5,0.353553390593,0.5)
    ,(1.,0.707106781187,1.,0.707106781187,1.)
    ,(0.5,0.353553390593,0.5,0.353553390593,0.5)
    ,(1.,0.707106781187,1.,0.707106781187,1.)
    ,(0.5,0.353553390593,0.5,0.353553390593,0.5)
,(1.,0.707106781187,1.,0.707106781187,1.
))) REPRESENTATION_ITEM('') SURFACE() );
#232 = CARTESIAN_POINT('',(3.5E+03,2.E+03,7.3E+03));
#233 = CARTESIAN_POINT('',(7.7E+03,2.E+03,7.3E+03));
#234 = CARTESIAN_POINT('',(7.7E+03,2.E+03,1.05E+04));
#235 = CARTESIAN_POINT('',(7.7E+03,2.E+03,1.37E+04));
#236 = CARTESIAN_POINT('',(3.5E+03,2.E+03,1.37E+04));
#237 = CARTESIAN_POINT('',(3.5E+03,2.E+03,7.3E+03));
#238 = CARTESIAN_POINT('',(7.7E+03,9.274613391789E+03,7.3E+03));
#239 = CARTESIAN_POINT('',(7.7E+03,9.274613391789E+03,1.05E+04));
#240 = CARTESIAN_POINT('',(7.7E+03,9.274613391789E+03,1.37E+04));
#241 = CARTESIAN_POINT('',(3.5E+03,2.E+03,1.37E+04));
#242 = CARTESIAN_POINT('',(3.5E+03,2.E+03,7.3E+03));
#243 = CARTESIAN_POINT('',(1.4E+03,5.637306695895E+03,7.3E+03));
#244 = CARTESIAN_POINT('',(1.4E+03,5.637306695895E+03,1.05E+04));
#245 = CARTESIAN_POINT('',(1.4E+03,5.637306695895E+03,1.37E+04));
#246 = CARTESIAN_POINT('',(3.5E+03,2.E+03,1.37E+04));
#247 = CARTESIAN_POINT('',(3.5E+03,2.E+03,7.3E+03));
#248 = CARTESIAN_POINT('',(-4.9E+03,2.E+03,7.3E+03));
#249 = CARTESIAN_POINT('',(-4.9E+03,2.E+03,1.05E+04));
#250 = CARTESIAN_POINT('',(-4.9E+03,2.E+03,1.37E+04));
#251 = CARTESIAN_POINT('',(3.5E+03,2.E+03,1.37E+04));
#252 = CARTESIAN_POINT('',(3.5E+03,2.E+03,7.3E+03));
#253 = CARTESIAN_POINT('',(1.4E+03,-1.637306695895E+03,7.3E+03));
#254 = CARTESIAN_POINT('',(1.4E+03,-1.637306695895E+03,1.05E+04));
#255 = CARTESIAN_POINT('',(1.4E+03,-1.637306695895E+03,1.37E+04));
#256 = CARTESIAN_POINT('',(3.5E+03,2.E+03,1.37E+04));
#257 = CARTESIAN_POINT('',(3.5E+03,2.E+03,7.3E+03));
#258 = CARTESIAN_POINT('',(7.7E+03,-5.274613391789E+03,7.3E+03));
#259 = CARTESIAN_POINT('',(7.7E+03,-5.274613391789E+03,1.05E+04));
#260 = CARTESIAN_POINT('',(7.7E+03,-5.274613391789E+03,1.37E+04));
#261 = CARTESIAN_POINT('',(3.5E+03,2.E+03,1.37E+04));
#262 = CARTESIAN_POINT('',(3.5E+03,2.E+03,7.3E+03));
#263 = CARTESIAN_POINT('',(7.7E+03,2.E+03,7.3E+03));
#264 = CARTESIAN_POINT('',(7.7E+03,2.E+03,1.05E+04));
#265 = CARTESIAN_POINT('',(7.7E+03,2.E+03,1.37E+04));
#266 = CARTESIAN_POINT('',(3.5E+03,2.E+03,1.37E+04));
#267 = ( GEOMETRIC_REPRESENTATION_CONTEXT(3) 
GLOBAL_UNCERTAINTY_ASSIGNED_CONTEXT((#271)) GLOBAL_UNIT_ASSIGNED_CONTEXT
((#268,#269,#270)) REPRESENTATION_CONTEXT('Context #1',
  '3D Context with UNIT and UNCERTAINTY') );
#268 = ( LENGTH_UNIT() NAMED_UNIT(*) SI_UNIT(.MILLI.,.METRE.) );
#269 = ( NAMED_UNIT(*) PLANE_ANGLE_UNIT() SI_UNIT($,.RADIAN.) );
#270 = ( NAMED_UNIT(*) SI_UNIT($,.STERADIAN.) SOLID_ANGLE_UNIT() );
#271 = UNCERTAINTY_MEASURE_WITH_UNIT(LENGTH_MEASURE(1.E-07),#268,
  'distance_accuracy_value','confusion accuracy');
#272 = CONTEXT_DEPENDENT_SHAPE_REPRESENTATION(#273,#275);
#273 = ( REPRESENTATION_RELATIONSHIP('','',#223,#10) 
REPRESENTATION_RELATIONSHIP_WITH_TRANSFORMATION(#274) 
SHAPE_REPRESENTATION_RELATIONSHIP() );
#274 = ITEM_DEFINED_TRANSFORMATION('','',#11,#23);
#275 = PRODUCT_DEFINITION_SHAPE('Placement','Placement of an item',#276
  );
#276 = NEXT_ASSEMBLY_USAGE_OCCURRENCE('255','part2','',#5,#218,$);
#277 = PRODUCT_RELATED_PRODUCT_CATEGORY('part',$,(#220));
#278 = SHAPE_DEFINITION_REPRESENTATION(#279,#285);
#279 = PRODUCT_DEFINITION_SHAPE('','',#280);
#280 = PRODUCT_DEFINITION('design','',#281,#284);
#281 = PRODUCT_DEFINITION_FORMATION('','',#282);
#282 = PRODUCT('part3','part3','',(#283));
#283 = PRODUCT_CONTEXT('',#2,'mechanical');
#284 = PRODUCT_DEFINITION_CONTEXT('part definition',#2,'design');
#285 = ADVANCED_BREP_SHAPE_REPRESENTATION('',(#11,#286),#329);
#286 = MANIFOLD_SOLID_BREP('',#287);
#287 = CLOSED_SHELL('',(#288));
#288 = ADVANCED_FACE('',(#289),#293,.T.);
#289 = FACE_BOUND('',#290,.T.);
#290 = VERTEX_LOOP('',#291);
#291 = VERTEX_POINT('',#292);
#292 = CARTESIAN_POINT('',(-3.2E+03,-2.5E+03,7.8E+03));
#293 = ( BOUNDED_SURFACE() B_SPLINE_SURFACE(2,2,(
    (#294,#295,#296,#297,#298)
    ,(#299,#300,#301,#302,#303)
    ,(#304,#305,#306,#307,#308)
    ,(#309,#310,#311,#312,#313)
    ,(#314,#315,#316,#317,#318)
    ,(#319,#320,#321,#322,#323)
    ,(#324,#325,#326,#327,#328
)),.UNSPECIFIED.,.T.,.F.,.F.) B_SPLINE_SURFACE_WITH_KNOTS((1,2,2,2,2,1),
  (3,2,3),(-2.094395102393,0.,2.094395102393,4.188790204786,
    6.28318530718,8.377580409573),(-1.570796326795,0.,1.570796326795),
.UNSPECIFIED.) GEOMETRIC_REPRESENTATION_ITEM() RATIONAL_B_SPLINE_SURFACE
((
    (1.,0.707106781187,1.,0.707106781187,1.)
    ,(0.5,0.353553390593,0.5,0.353553390593,0.5)
    ,(1.,0.707106781187,1.,0.707106781187,1.)
    ,(0.5,0.353553390593,0.5,0.353553390593,0.5)
    ,(1.,0.707106781187,1.,0.707106781187,1.)
    ,(0.5,0.353553390593,0.5,0.353553390593,0.5)
,(1.,0.707106781187,1.,0.707106781187,1.
))) REPRESENTATION_ITEM('') SURFACE() );
#294 = CARTESIAN_POINT('',(-3.2E+03,-2.5E+03,7.8E+03));
#295 = CARTESIAN_POINT('',(1.E+03,-2.5E+03,7.8E+03));
#296 = CARTESIAN_POINT('',(1.E+03,-2.5E+03,1.1E+04));
#297 = CARTESIAN_POINT('',(1.E+03,-2.5E+03,1.42E+04));
#298 = CARTESIAN_POINT('',(-3.2E+03,-2.5E+03,1.42E+04));
#299 = CARTESIAN_POINT('',(-3.2E+03,-2.5E+03,7.8E+03));
#300 = CARTESIAN_POINT('',(1.E+03,4.774613391789E+03,7.8E+03));
#301 = CARTESIAN_POINT('',(1.E+03,4.774613391789E+03,1.1E+04));
#302 = CARTESIAN_POINT('',(1.E+03,4.774613391789E+03,1.42E+04));
#303 = CARTESIAN_POINT('',(-3.2E+03,-2.5E+03,1.42E+04));
#304 = CARTESIAN_POINT('',(-3.2E+03,-2.5E+03,7.8E+03));
#305 = CARTESIAN_POINT('',(-5.3E+03,1.137306695895E+03,7.8E+03));
#306 = CARTESIAN_POINT('',(-5.3E+03,1.137306695895E+03,1.1E+04));
#307 = CARTESIAN_POINT('',(-5.3E+03,1.137306695895E+03,1.42E+04));
#308 = CARTESIAN_POINT('',(-3.2E+03,-2.5E+03,1.42E+04));
#309 = CARTESIAN_POINT('',(-3.2E+03,-2.5E+03,7.8E+03));
#310 = CARTESIAN_POINT('',(-1.16E+04,-2.5E+03,7.8E+03));
#311 = CARTESIAN_POINT('',(-1.16E+04,-2.5E+03,1.1E+04));
#312 = CARTESIAN_POINT('',(-1.16E+04,-2.5E+03,1.42E+04));
#313 = CARTESIAN_POINT('',(-3.2E+03,-2.5E+03,1.42E+04));
#314 = CARTESIAN_POINT('',(-3.2E+03,-2.5E+03,7.8E+03));
#315 = CARTESIAN_POINT('',(-5.3E+03,-6.137306695895E+03,7.8E+03));
#316 = CARTESIAN_POINT('',(-5.3E+03,-6.137306695895E+03,1.1E+04));
#317 = CARTESIAN_POINT('',(-5.3E+03,-6.137306695895E+03,1.42E+04));
#318 = CARTESIAN_POINT('',(-3.2E+03,-2.5E+03,1.42E+04));
#319 = CARTESIAN_POINT('',(-3.2E+03,-2.5E+03,7.8E+03));
#320 = CARTESIAN_POINT('',(999.99999999999,-9.774613391789E+03,7.8E+03)
  );
#321 = CARTESIAN_POINT('',(999.99999999999,-9.774613391789E+03,1.1E+04)
  );
#322 = CARTESIAN_POINT('',(999.99999999999,-9.774613391789E+03,1.42E+04)
  );
#323 = CARTESIAN_POINT('',(-3.2E+03,-2.5E+03,1.42E+04));
#324 = CARTESIAN_POINT('',(-3.2E+03,-2.5E+03,7.8E+03));
#325 = CARTESIAN_POINT('',(1.E+03,-2.5E+03,7.8E+03));
#326 = CARTESIAN_POINT('',(1.E+03,-2.5E+03,1.1E+04));
#327 = CARTESIAN_POINT('',(1.E+03,-2.5E+03,1.42E+04));
#328 = CARTESIAN_POINT('',(-3.2E+03,-2.5E+03,1.42E+04));
#329 = ( GEOMETRIC_REPRESENTATION_CONTEXT(3) 
GLOBAL_UNCERTAINTY_ASSIGNED_CONTEXT((#333)) GLOBAL_UNIT_ASSIGNED_CONTEXT
((#330,#331,#332)) REPRESENTATION_CONTEXT('Context #1',
  '3D Context with UNIT and UNCERTAINTY') );
#330 = ( LENGTH_UNIT() NAMED_UNIT(*) SI_UNIT(.MILLI.,.METRE.) );
#331 = ( NAMED_UNIT(*) PLANE_ANGLE_UNIT() SI_UNIT($,.RADIAN.) );
#332 = ( NAMED_UNIT(*) SI_UNIT($,.STERADIAN.) SOLID_ANGLE_UNIT() );
#333 = UNCERTAINTY_MEASURE_WITH_UNIT(LENGTH_MEASURE(1.E-07),#330,
  'distance_accuracy_value','confusion accuracy');
#334 = CONTEXT_DEPENDENT_SHAPE_REPRESENTATION(#335,#337);
#335 = ( REPRESENTATION_RELATIONSHIP('','',#285,#10) 
REPRESENTATION_RELATIONSHIP_WITH_TRANSFORMATION(#336) 
SHAPE_REPRESENTATION_RELATIONSHIP() );
#336 = ITEM_DEFINED_TRANSFORMATION('','',#11,#27);
#337 = PRODUCT_DEFINITION_SHAPE('Placement','Placement of an item',#338
  );
#338 = NEXT_ASSEMBLY_USAGE_OCCURRENCE('256','part3','',#5,#280,$);
#339 = PRODUCT_RELATED_PRODUCT_CATEGORY('part',$,(#282));
#340 = MECHANICAL_DESIGN_GEOMETRIC_PRESENTATION_REPRESENTATION('',(#341)
  ,#143);
#341 = STYLED_ITEM('color',(#342),#45);
#342 = PRESENTATION_STYLE_ASSIGNMENT((#343));
#343 = SURFACE_STYLE_USAGE(.BOTH.,#344);
#344 = SURFACE_SIDE_STYLE('',(#345));
#345 = SURFACE_STYLE_FILL_AREA(#346);
#346 = FILL_AREA_STYLE('',(#347));
#347 = FILL_AREA_STYLE_COLOUR('',#348);
#348 = COLOUR_RGB('',0.352941174961,0.290196072577,0.227450982423);
#349 = MECHANICAL_DESIGN_GEOMETRIC_PRESENTATION_REPRESENTATION('',(#350)
  ,#329);
#350 = STYLED_ITEM('color',(#351),#286);
#351 = PRESENTATION_STYLE_ASSIGNMENT((#352));
#352 = SURFACE_STYLE_USAGE(.BOTH.,#353);
#353 = SURFACE_SIDE_STYLE('',(#354));
#354 = SURFACE_STYLE_FILL_AREA(#355);
#355 = FILL_AREA_STYLE('',(#356));
#356 = FILL_AREA_STYLE_COLOUR('',#357);
#357 = COLOUR_RGB('',0.243137258719,0.419607846511,0.196078429142);
#358 = MECHANICAL_DESIGN_GEOMETRIC_PRESENTATION_REPRESENTATION('',(#359)
  ,#205);
#359 = STYLED_ITEM('color',(#360),#162);
#360 = PRESENTATION_STYLE_ASSIGNMENT((#361));
#361 = SURFACE_STYLE_USAGE(.BOTH.,#362);
#362 = SURFACE_SIDE_STYLE('',(#363));
#363 = SURFACE_STYLE_FILL_AREA(#364);
#364 = FILL_AREA_STYLE('',(#365));
#365 = FILL_AREA_STYLE_COLOUR('',#357);
#366 = MECHANICAL_DESIGN_GEOMETRIC_PRESENTATION_REPRESENTATION('',(#367)
  ,#267);
#367 = STYLED_ITEM('color',(#368),#224);
#368 = PRESENTATION_STYLE_ASSIGNMENT((#369));
#369 = SURFACE_STYLE_USAGE(.BOTH.,#370);
#370 = SURFACE_SIDE_STYLE('',(#371));
#371 = SURFACE_STYLE_FILL_AREA(#372);
#372 = FILL_AREA_STYLE('',(#373));
#373 = FILL_AREA_STYLE_COLOUR('',#357);
ENDSEC;
END-ISO-10303-21;
