ISO-10303-21;
HEADER;
FILE_DESCRIPTION(('Open CASCADE Model'),'2;1');
FILE_NAME('Open CASCADE Shape Model','2026-09-14T11:05:16',('Author'),(
    'Open CASCADE'),'Open CASCADE STEP processor 7.9','Open CASCADE 7.9'
  ,'Unknown');
FILE_SCHEMA(('AUTOMOTIVE_DESIGN { 1 0 10303 214 1 1 1 1 }'));
ENDSEC;
DATA;
#1 = APPLICATION_PROTOCOL_DEFINITION('international standard',
  'automotive_design',2000,#2);
#2 = APPLICATION_CONTEXT(
  'core data for automotive mechanical design processes');
#3 = SHAPE_DEFINITION_REPRESENTATION(#4,#10);
#4 = PRODUCT_DEFINITION_SHAPE('','',#5);
#5 = PRODUCT_DEFINITION('design','',#6,#9);
#6 = PRODUCT_DEFINITION_FORMATION('','',#7);
#7 = PRODUCT('c89c854c-b023-11f1-a43e-3c9c0f4bdafb',
  'c89c854c-b023-11f1-a43e-3c9c0f4bdafb','',(#8));
#8 = PRODUCT_CONTEXT('',#2,'mechanical');
#9 = PRODUCT_DEFINITION_CONTEXT('part definition',#2,'design');
#10 = SHAPE_REPRESENTATION('',(#11,#15,#19,#23,#27,#31,#35,#39,#43,#47,
    #51,#55),#59);
#11 = AXIS2_PLACEMENT_3D('',#12,#13,#14);
#12 = CARTESIAN_POINT('',(0.,0.,0.));
#13 = DIRECTION('',(0.,0.,1.));
#14 = DIRECTION('',(1.,0.,-0.));
#15 = AXIS2_PLACEMENT_3D('',#16,#17,#18);
#16 = CARTESIAN_POINT('',(0.,0.,0.));
#17 = DIRECTION('',(0.,0.,1.));
#18 = DIRECTION('',(1.,0.,-0.));
#19 = AXIS2_PLACEMENT_3D('',#20,#21,#22);
#20 = CARTESIAN_POINT('',(0.,0.,0.));
#21 = DIRECTION('',(0.,0.,1.));
#22 = DIRECTION('',(1.,0.,-0.));
#23 = AXIS2_PLACEMENT_3D('',#24,#25,#26);
#24 = CARTESIAN_POINT('',(0.,0.,0.));
#25 = DIRECTION('',(0.,0.,1.));
#26 = DIRECTION('',(1.,0.,-0.));
#27 = AXIS2_PLACEMENT_3D('',#28,#29,#30);
#28 = CARTESIAN_POINT('',(0.,0.,0.));
#29 = DIRECTION('',(0.,0.,1.));
#30 = DIRECTION('',(1.,0.,-0.));
#31 = AXIS2_PLACEMENT_3D('',#32,#33,#34);
#32 = CARTESIAN_POINT('',(0.,0.,0.));
#33 = DIRECTION('',(0.,0.,1.));
#34 = DIRECTION('',(1.,0.,-0.));
#35 = AXIS2_PLACEMENT_3D('',#36,#37,#38);
#36 = CARTESIAN_POINT('',(0.,0.,0.));
#37 = DIRECTION('',(0.,0.,1.));
#38 = DIRECTION('',(1.,0.,-0.));
#39 = AXIS2_PLACEMENT_3D('',#40,#41,#42);
#40 = CARTESIAN_POINT('',(0.,0.,0.));
#41 = DIRECTION('',(0.,0.,1.));
#42 = DIRECTION('',(1.,0.,-0.));
#43 = AXIS2_PLACEMENT_3D('',#44,#45,#46);
#44 = CARTESIAN_POINT('',(0.,0.,0.));
#45 = DIRECTION('',(0.,0.,1.));
#46 = DIRECTION('',(1.,0.,-0.));
#47 = AXIS2_PLACEMENT_3D('',#48,#49,#50);
#48 = CARTESIAN_POINT('',(0.,0.,0.));
#49 = DIRECTION('',(0.,0.,1.));
#50 = DIRECTION('',(1.,0.,-0.));
#51 = AXIS2_PLACEMENT_3D('',#52,#53,#54);
#52 = CARTESIAN_POINT('',(0.,0.,0.));
#53 = DIRECTION('',(0.,0.,1.));
#54 = DIRECTION('',(1.,0.,-0.));
#55 = AXIS2_PLACEMENT_3D('',#56,#57,#58);
#56 = CARTESIAN_POINT('',(0.,0.,0.));
#57 = DIRECTION('',(0.,0.,1.));
#58 = DIRECTION('',(1.,0.,-0.));
#59 = ( GEOMETRIC_REPRESENTATION_CONTEXT(3) 
GLOBAL_UNCERTAINTY_ASSIGNED_CONTEXT((#63)) GLOBAL_UNIT_ASSIGNED_CONTEXT(
(#60,#61,#62)) REPRESENTATION_CONTEXT('Context #1',
  '3D Context with UNIT and UNCERTAINTY') );
#60 = ( LENGTH_UNIT() NAMED_UNIT(*) SI_UNIT(.MILLI.,.METRE.) );
#61 = ( NAMED_UNIT(*) PLANE_ANGLE_UNIT() SI_UNIT($,.RADIAN.) );
#62 = ( NAMED_UNIT(*) SI_UNIT($,.STERADIAN.) SOLID_ANGLE_UNIT() );
#63 = UNCERTAINTY_MEASURE_WITH_UNIT(LENGTH_MEASURE(1.E-07),#60,
  'distance_accuracy_value','confusion accuracy');
#64 = PRODUCT_RELATED_PRODUCT_CATEGORY('part',$,(#7));
#65 = SHAPE_DEFINITION_REPRESENTATION(#66,#72);
#66 = PRODUCT_DEFINITION_SHAPE('','',#67);
#67 = PRODUCT_DEFINITION('design','',#68,#71);
#68 = PRODUCT_DEFINITION_FORMATION('','',#69);
#69 = PRODUCT('part0','part0','',(#70));
#70 = PRODUCT_CONTEXT('',#2,'mechanical');
#71 = PRODUCT_DEFINITION_CONTEXT('part definition',#2,'design');
#72 = ADVANCED_BREP_SHAPE_REPRESENTATION('',(#11,#73),#116);
#73 = MANIFOLD_SOLID_BREP('',#74);
#74 = CLOSED_SHELL('',(#75));
#75 = ADVANCED_FACE('',(#76),#80,.T.);
#76 = FACE_BOUND('',#77,.T.);
#77 = VERTEX_LOOP('',#78);
#78 = VERTEX_POINT('',#79);
#79 = CARTESIAN_POINT('',(3.299107534684E+03,-1.150820511756E+03,
    -81.8892917711));
#80 = ( BOUNDED_SURFACE() B_SPLINE_SURFACE(2,2,(
    (#81,#82,#83,#84,#85)
    ,(#86,#87,#88,#89,#90)
    ,(#91,#92,#93,#94,#95)
    ,(#96,#97,#98,#99,#100)
    ,(#101,#102,#103,#104,#105)
    ,(#106,#107,#108,#109,#110)
    ,(#111,#112,#113,#114,#115
)),.UNSPECIFIED.,.T.,.F.,.F.) B_SPLINE_SURFACE_WITH_KNOTS((1,2,2,2,2,1),
  (3,2,3),(-2.094395102393,0.,2.094395102393,4.188790204786,
    6.28318530718,8.377580409573),(-1.570796326795,0.,1.570796326795),
.UNSPECIFIED.) GEOMETRIC_REPRESENTATION_ITEM() RATIONAL_B_SPLINE_SURFACE
((
    (1.,0.707106781187,1.,0.707106781187,1.)
    ,(0.5,0.353553390593,0.5,0.353553390593,0.5)
    ,(1.,0.707106781187,1.,0.707106781187,1.)
    ,(0.5,0.353553390593,0.5,0.353553390593,0.5)
    ,(1.,0.707106781187,1.,0.707106781187,1.)
    ,(0.5,0.353553390593,0.5,0.353553390593,0.5)
,(1.,0.707106781187,1.,0.707106781187,1.
))) REPRESENTATION_ITEM('') SURFACE() );
#81 = CARTESIAN_POINT('',(3.299107534684E+03,-1.150820511756E+03,
    -81.8892917711));
#82 = CARTESIAN_POINT('',(3.70855399354E+03,-1.150820511756E+03,
    -81.8892917711));
#83 = CARTESIAN_POINT('',(3.70855399354E+03,-1.150820511756E+03,
    204.72322942776));
#84 = CARTESIAN_POINT('',(3.70855399354E+03,-1.150820511756E+03,
    491.33575062663));
#85 = CARTESIAN_POINT('',(3.299107534684E+03,-1.150820511756E+03,
    491.33575062663));
#86 = CARTESIAN_POINT('',(3.299107534684E+03,-1.150820511756E+03,
    -81.8892917711));
#87 = CARTESIAN_POINT('',(3.70855399354E+03,-583.4748559819,
    -81.8892917711));
#88 = CARTESIAN_POINT('',(3.70855399354E+03,-583.4748559819,
    204.72322942776));
#89 = CARTESIAN_POINT('',(3.70855399354E+03,-583.4748559819,
    491.33575062663));
#90 = CARTESIAN_POINT('',(3.299107534684E+03,-1.150820511756E+03,
    491.33575062663));
#91 = CARTESIAN_POINT('',(3.299107534684E+03,-1.150820511756E+03,
    -81.8892917711));
#92 = CARTESIAN_POINT('',(3.094384305257E+03,-867.1476838687,
    -81.8892917711));
#93 = CARTESIAN_POINT('',(3.094384305257E+03,-867.1476838687,
    204.72322942776));
#94 = CARTESIAN_POINT('',(3.094384305257E+03,-867.1476838687,
    491.33575062663));
#95 = CARTESIAN_POINT('',(3.299107534684E+03,-1.150820511756E+03,
    491.33575062663));
#96 = CARTESIAN_POINT('',(3.299107534684E+03,-1.150820511756E+03,
    -81.8892917711));
#97 = CARTESIAN_POINT('',(2.480214616973E+03,-1.150820511756E+03,
    -81.8892917711));
#98 = CARTESIAN_POINT('',(2.480214616973E+03,-1.150820511756E+03,
    204.72322942776));
#99 = CARTESIAN_POINT('',(2.480214616973E+03,-1.150820511756E+03,
    491.33575062663));
#100 = CARTESIAN_POINT('',(3.299107534684E+03,-1.150820511756E+03,
    491.33575062663));
#101 = CARTESIAN_POINT('',(3.299107534684E+03,-1.150820511756E+03,
    -81.8892917711));
#102 = CARTESIAN_POINT('',(3.094384305257E+03,-1.434493339642E+03,
    -81.8892917711));
#103 = CARTESIAN_POINT('',(3.094384305257E+03,-1.434493339642E+03,
    204.72322942776));
#104 = CARTESIAN_POINT('',(3.094384305257E+03,-1.434493339642E+03,
    491.33575062663));
#105 = CARTESIAN_POINT('',(3.299107534684E+03,-1.150820511756E+03,
    491.33575062663));
#106 = CARTESIAN_POINT('',(3.299107534684E+03,-1.150820511756E+03,
    -81.8892917711));
#107 = CARTESIAN_POINT('',(3.70855399354E+03,-1.718166167529E+03,
    -81.8892917711));
#108 = CARTESIAN_POINT('',(3.70855399354E+03,-1.718166167529E+03,
    204.72322942776));
#109 = CARTESIAN_POINT('',(3.70855399354E+03,-1.718166167529E+03,
    491.33575062663));
#110 = CARTESIAN_POINT('',(3.299107534684E+03,-1.150820511756E+03,
    491.33575062663));
#111 = CARTESIAN_POINT('',(3.299107534684E+03,-1.150820511756E+03,
    -81.8892917711));
#112 = CARTESIAN_POINT('',(3.70855399354E+03,-1.150820511756E+03,
    -81.8892917711));
#113 = CARTESIAN_POINT('',(3.70855399354E+03,-1.150820511756E+03,
    204.72322942776));
#114 = CARTESIAN_POINT('',(3.70855399354E+03,-1.150820511756E+03,
    491.33575062663));
#115 = CARTESIAN_POINT('',(3.299107534684E+03,-1.150820511756E+03,
    491.33575062663));
#116 = ( GEOMETRIC_REPRESENTATION_CONTEXT(3) 
GLOBAL_UNCERTAINTY_ASSIGNED_CONTEXT((#120)) GLOBAL_UNIT_ASSIGNED_CONTEXT
((#117,#118,#119)) REPRESENTATION_CONTEXT('Context #1',
  '3D Context with UNIT and UNCERTAINTY') );
#117 = ( LENGTH_UNIT() NAMED_UNIT(*) SI_UNIT(.MILLI.,.METRE.) );
#118 = ( NAMED_UNIT(*) PLANE_ANGLE_UNIT() SI_UNIT($,.RADIAN.) );
#119 = ( NAMED_UNIT(*) SI_UNIT($,.STERADIAN.) SOLID_ANGLE_UNIT() );
#120 = UNCERTAINTY_MEASURE_WITH_UNIT(LENGTH_MEASURE(1.E-07),#117,
  'distance_accuracy_value','confusion accuracy');
#121 = CONTEXT_DEPENDENT_SHAPE_REPRESENTATION(#122,#124);
#122 = ( REPRESENTATION_RELATIONSHIP('','',#72,#10) 
REPRESENTATION_RELATIONSHIP_WITH_TRANSFORMATION(#123) 
SHAPE_REPRESENTATION_RELATIONSHIP() );
#123 = ITEM_DEFINED_TRANSFORMATION('','',#11,#15);
#124 = PRODUCT_DEFINITION_SHAPE('Placement','Placement of an item',#125
  );
#125 = NEXT_ASSEMBLY_USAGE_OCCURRENCE('143','part0','',#5,#67,$);
#126 = PRODUCT_RELATED_PRODUCT_CATEGORY('part',$,(#69));
#127 = SHAPE_DEFINITION_REPRESENTATION(#128,#134);
#128 = PRODUCT_DEFINITION_SHAPE('','',#129);
#129 = PRODUCT_DEFINITION('design','',#130,#133);
#130 = PRODUCT_DEFINITION_FORMATION('','',#131);
#131 = PRODUCT('part1','part1','',(#132));
#132 = PRODUCT_CONTEXT('',#2,'mechanical');
#133 = PRODUCT_DEFINITION_CONTEXT('part definition',#2,'design');
#134 = ADVANCED_BREP_SHAPE_REPRESENTATION('',(#11,#135),#178);
#135 = MANIFOLD_SOLID_BREP('',#136);
#136 = CLOSED_SHELL('',(#137));
#137 = ADVANCED_FACE('',(#138),#142,.T.);
#138 = FACE_BOUND('',#139,.T.);
#139 = VERTEX_LOOP('',#140);
#140 = VERTEX_POINT('',#141);
#141 = CARTESIAN_POINT('',(3.590140706445E+03,-1.010388333751E+03,
    -89.64736505722));
#142 = ( BOUNDED_SURFACE() B_SPLINE_SURFACE(2,2,(
    (#143,#144,#145,#146,#147)
    ,(#148,#149,#150,#151,#152)
    ,(#153,#154,#155,#156,#157)
    ,(#158,#159,#160,#161,#162)
    ,(#163,#164,#165,#166,#167)
    ,(#168,#169,#170,#171,#172)
    ,(#173,#174,#175,#176,#177
)),.UNSPECIFIED.,.T.,.F.,.F.) B_SPLINE_SURFACE_WITH_KNOTS((1,2,2,2,2,1),
  (3,2,3),(-2.094395102393,0.,2.094395102393,4.188790204786,
    6.28318530718,8.377580409573),(-1.570796326795,0.,1.570796326795),
.UNSPECIFIED.) GEOMETRIC_REPRESENTATION_ITEM() RATIONAL_B_SPLINE_SURFACE
((
    (1.,0.707106781187,1.,0.707106781187,1.)
    ,(0.5,0.353553390593,0.5,0.353553390593,0.5)
    ,(1.,0.707106781187,1.,0.707106781187,1.)
    ,(0.5,0.353553390593,0.5,0.353553390593,0.5)
    ,(1.,0.707106781187,1.,0.707106781187,1.)
    ,(0.5,0.353553390593,0.5,0.353553390593,0.5)
,(1.,0.707106781187,1.,0.707106781187,1.
))) REPRESENTATION_ITEM('') SURFACE() );
#143 = CARTESIAN_POINT('',(3.590140706445E+03,-1.010388333751E+03,
    -89.64736505722));
#144 = CARTESIAN_POINT('',(4.038377531731E+03,-1.010388333751E+03,
    -89.64736505722));
#145 = CARTESIAN_POINT('',(4.038377531731E+03,-1.010388333751E+03,
    224.11841264306));
#146 = CARTESIAN_POINT('',(4.038377531731E+03,-1.010388333751E+03,
    537.88419034335));
#147 = CARTESIAN_POINT('',(3.590140706445E+03,-1.010388333751E+03,
    537.88419034335));
#148 = CARTESIAN_POINT('',(3.590140706445E+03,-1.010388333751E+03,
    -89.64736505722));
#149 = CARTESIAN_POINT('',(4.038377531731E+03,-389.2931695757,
    -89.64736505722));
#150 = CARTESIAN_POINT('',(4.038377531731E+03,-389.2931695757,
    224.11841264306));
#151 = CARTESIAN_POINT('',(4.038377531731E+03,-389.2931695757,
    537.88419034335));
#152 = CARTESIAN_POINT('',(3.590140706445E+03,-1.010388333751E+03,
    537.88419034335));
#153 = CARTESIAN_POINT('',(3.590140706445E+03,-1.010388333751E+03,
    -89.64736505722));
#154 = CARTESIAN_POINT('',(3.366022293802E+03,-699.8407516632,
    -89.64736505722));
#155 = CARTESIAN_POINT('',(3.366022293802E+03,-699.8407516632,
    224.11841264306));
#156 = CARTESIAN_POINT('',(3.366022293802E+03,-699.8407516632,
    537.88419034335));
#157 = CARTESIAN_POINT('',(3.590140706445E+03,-1.010388333751E+03,
    537.88419034335));
#158 = CARTESIAN_POINT('',(3.590140706445E+03,-1.010388333751E+03,
    -89.64736505722));
#159 = CARTESIAN_POINT('',(2.693667055873E+03,-1.010388333751E+03,
    -89.64736505722));
#160 = CARTESIAN_POINT('',(2.693667055873E+03,-1.010388333751E+03,
    224.11841264306));
#161 = CARTESIAN_POINT('',(2.693667055873E+03,-1.010388333751E+03,
    537.88419034335));
#162 = CARTESIAN_POINT('',(3.590140706445E+03,-1.010388333751E+03,
    537.88419034335));
#163 = CARTESIAN_POINT('',(3.590140706445E+03,-1.010388333751E+03,
    -89.64736505722));
#164 = CARTESIAN_POINT('',(3.366022293802E+03,-1.320935915838E+03,
    -89.64736505722));
#165 = CARTESIAN_POINT('',(3.366022293802E+03,-1.320935915838E+03,
    224.11841264306));
#166 = CARTESIAN_POINT('',(3.366022293802E+03,-1.320935915838E+03,
    537.88419034335));
#167 = CARTESIAN_POINT('',(3.590140706445E+03,-1.010388333751E+03,
    537.88419034335));
#168 = CARTESIAN_POINT('',(3.590140706445E+03,-1.010388333751E+03,
    -89.64736505722));
#169 = CARTESIAN_POINT('',(4.038377531731E+03,-1.631483497926E+03,
    -89.64736505722));
#170 = CARTESIAN_POINT('',(4.038377531731E+03,-1.631483497926E+03,
    224.11841264306));
#171 = CARTESIAN_POINT('',(4.038377531731E+03,-1.631483497926E+03,
    537.88419034335));
#172 = CARTESIAN_POINT('',(3.590140706445E+03,-1.010388333751E+03,
    537.88419034335));
#173 = CARTESIAN_POINT('',(3.590140706445E+03,-1.010388333751E+03,
    -89.64736505722));
#174 = CARTESIAN_POINT('',(4.038377531731E+03,-1.010388333751E+03,
    -89.64736505722));
#175 = CARTESIAN_POINT('',(4.038377531731E+03,-1.010388333751E+03,
    224.11841264306));
#176 = CARTESIAN_POINT('',(4.038377531731E+03,-1.010388333751E+03,
    537.88419034335));
#177 = CARTESIAN_POINT('',(3.590140706445E+03,-1.010388333751E+03,
    537.88419034335));
#178 = ( GEOMETRIC_REPRESENTATION_CONTEXT(3) 
GLOBAL_UNCERTAINTY_ASSIGNED_CONTEXT((#182)) GLOBAL_UNIT_ASSIGNED_CONTEXT
((#179,#180,#181)) REPRESENTATION_CONTEXT('Context #1',
  '3D Context with UNIT and UNCERTAINTY') );
#179 = ( LENGTH_UNIT() NAMED_UNIT(*) SI_UNIT(.MILLI.,.METRE.) );
#180 = ( NAMED_UNIT(*) PLANE_ANGLE_UNIT() SI_UNIT($,.RADIAN.) );
#181 = ( NAMED_UNIT(*) SI_UNIT($,.STERADIAN.) SOLID_ANGLE_UNIT() );
#182 = UNCERTAINTY_MEASURE_WITH_UNIT(LENGTH_MEASURE(1.E-07),#179,
  'distance_accuracy_value','confusion accuracy');
#183 = CONTEXT_DEPENDENT_SHAPE_REPRESENTATION(#184,#186);
#184 = ( REPRESENTATION_RELATIONSHIP('','',#134,#10) 
REPRESENTATION_RELATIONSHIP_WITH_TRANSFORMATION(#185) 
SHAPE_REPRESENTATION_RELATIONSHIP() );
#185 = ITEM_DEFINED_TRANSFORMATION('','',#11,#19);
#186 = PRODUCT_DEFINITION_SHAPE('Placement','Placement of an item',#187
  );
#187 = NEXT_ASSEMBLY_USAGE_OCCURRENCE('144','part1','',#5,#129,$);
#188 = PRODUCT_RELATED_PRODUCT_CATEGORY('part',$,(#131));
#189 = SHAPE_DEFINITION_REPRESENTATION(#190,#196);
#190 = PRODUCT_DEFINITION_SHAPE('','',#191);
#191 = PRODUCT_DEFINITION('design','',#192,#195);
#192 = PRODUCT_DEFINITION_FORMATION('','',#193);
#193 = PRODUCT('part2','part2','',(#194));
#194 = PRODUCT_CONTEXT('',#2,'mechanical');
#195 = PRODUCT_DEFINITION_CONTEXT('part definition',#2,'design');
#196 = ADVANCED_BREP_SHAPE_REPRESENTATION('',(#11,#197),#240);
#197 = MANIFOLD_SOLID_BREP('',#198);
#198 = CLOSED_SHELL('',(#199));
#199 = ADVANCED_FACE('',(#200),#204,.T.);
#200 = FACE_BOUND('',#201,.T.);
#201 = VERTEX_LOOP('',#202);
#202 = VERTEX_POINT('',#203);
#203 = CARTESIAN_POINT('',(1.090232932017E+03,-493.9365197997,
    -151.1640751836));
#204 = ( BOUNDED_SURFACE() B_SPLINE_SURFACE(2,2,(
    (#205,#206,#207,#208,#209)
    ,(#210,#211,#212,#213,#214)
    ,(#215,#216,#217,#218,#219)
    ,(#220,#221,#222,#223,#224)
    ,(#225,#226,#227,#228,#229)
    ,(#230,#231,#232,#233,#234)
    ,(#235,#236,#237,#238,#239
)),.UNSPECIFIED.,.T.,.F.,.F.) B_SPLINE_SURFACE_WITH_KNOTS((1,2,2,2,2,1),
  (3,2,3),(-2.094395102393,0.,2.094395102393,4.188790204786,
    6.28318530718,8.377580409573),(-1.570796326795,0.,1.570796326795),
.UNSPECIFIED.) GEOMETRIC_REPRESENTATION_ITEM() RATIONAL_B_SPLINE_SURFACE
((
    (1.,0.707106781187,1.,0.707106781187,1.)
    ,(0.5,0.353553390593,0.5,0.353553390593,0.5)
    ,(1.,0.707106781187,1.,0.707106781187,1.)
    ,(0.5,0.353553390593,0.5,0.353553390593,0.5)
    ,(1.,0.707106781187,1.,0.707106781187,1.)
    ,(0.5,0.353553390593,0.5,0.353553390593,0.5)
,(1.,0.707106781187,1.,0.707106781187,1.
))) REPRESENTATION_ITEM('') SURFACE() );
#205 = CARTESIAN_POINT('',(1.090232932017E+03,-493.9365197997,
    -151.1640751836));
#206 = CARTESIAN_POINT('',(1.846053307935E+03,-493.9365197997,
    -151.1640751836));
#207 = CARTESIAN_POINT('',(1.846053307935E+03,-493.9365197997,
    377.91018795916));
#208 = CARTESIAN_POINT('',(1.846053307935E+03,-493.9365197997,
    906.98445110198));
#209 = CARTESIAN_POINT('',(1.090232932017E+03,-493.9365197997,
    906.98445110198));
#210 = CARTESIAN_POINT('',(1.090232932017E+03,-493.9365197997,
    -151.1640751836));
#211 = CARTESIAN_POINT('',(1.846053307935E+03,553.35891418928,
    -151.1640751836));
#212 = CARTESIAN_POINT('',(1.846053307935E+03,553.35891418928,
    377.91018795916));
#213 = CARTESIAN_POINT('',(1.846053307935E+03,553.35891418928,
    906.98445110198));
#214 = CARTESIAN_POINT('',(1.090232932017E+03,-493.9365197997,
    906.98445110198));
#215 = CARTESIAN_POINT('',(1.090232932017E+03,-493.9365197997,
    -151.1640751836));
#216 = CARTESIAN_POINT('',(712.32274405785,29.71119719475,
    -151.1640751836));
#217 = CARTESIAN_POINT('',(712.32274405785,29.71119719475,
    377.91018795916));
#218 = CARTESIAN_POINT('',(712.32274405785,29.71119719475,
    906.98445110198));
#219 = CARTESIAN_POINT('',(1.090232932017E+03,-493.9365197997,
    906.98445110198));
#220 = CARTESIAN_POINT('',(1.090232932017E+03,-493.9365197997,
    -151.1640751836));
#221 = CARTESIAN_POINT('',(-421.4078198196,-493.9365197997,
    -151.1640751836));
#222 = CARTESIAN_POINT('',(-421.4078198196,-493.9365197997,
    377.91018795916));
#223 = CARTESIAN_POINT('',(-421.4078198196,-493.9365197997,
    906.98445110198));
#224 = CARTESIAN_POINT('',(1.090232932017E+03,-493.9365197997,
    906.98445110198));
#225 = CARTESIAN_POINT('',(1.090232932017E+03,-493.9365197997,
    -151.1640751836));
#226 = CARTESIAN_POINT('',(712.32274405785,-1.017584236794E+03,
    -151.1640751836));
#227 = CARTESIAN_POINT('',(712.32274405785,-1.017584236794E+03,
    377.91018795916));
#228 = CARTESIAN_POINT('',(712.32274405785,-1.017584236794E+03,
    906.98445110198));
#229 = CARTESIAN_POINT('',(1.090232932017E+03,-493.9365197997,
    906.98445110198));
#230 = CARTESIAN_POINT('',(1.090232932017E+03,-493.9365197997,
    -151.1640751836));
#231 = CARTESIAN_POINT('',(1.846053307935E+03,-1.541231953789E+03,
    -151.1640751836));
#232 = CARTESIAN_POINT('',(1.846053307935E+03,-1.541231953789E+03,
    377.91018795916));
#233 = CARTESIAN_POINT('',(1.846053307935E+03,-1.541231953789E+03,
    906.98445110198));
#234 = CARTESIAN_POINT('',(1.090232932017E+03,-493.9365197997,
    906.98445110198));
#235 = CARTESIAN_POINT('',(1.090232932017E+03,-493.9365197997,
    -151.1640751836));
#236 = CARTESIAN_POINT('',(1.846053307935E+03,-493.9365197997,
    -151.1640751836));
#237 = CARTESIAN_POINT('',(1.846053307935E+03,-493.9365197997,
    377.91018795916));
#238 = CARTESIAN_POINT('',(1.846053307935E+03,-493.9365197997,
    906.98445110198));
#239 = CARTESIAN_POINT('',(1.090232932017E+03,-493.9365197997,
    906.98445110198));
#240 = ( GEOMETRIC_REPRESENTATION_CONTEXT(3) 
GLOBAL_UNCERTAINTY_ASSIGNED_CONTEXT((#244)) GLOBAL_UNIT_ASSIGNED_CONTEXT
((#241,#242,#243)) REPRESENTATION_CONTEXT('Context #1',
  '3D Context with UNIT and UNCERTAINTY') );
#241 = ( LENGTH_UNIT() NAMED_UNIT(*) SI_UNIT(.MILLI.,.METRE.) );
#242 = ( NAMED_UNIT(*) PLANE_ANGLE_UNIT() SI_UNIT($,.RADIAN.) );
#243 = ( NAMED_UNIT(*) SI_UNIT($,.STERADIAN.) SOLID_ANGLE_UNIT() );
#244 = UNCERTAINTY_MEASURE_WITH_UNIT(LENGTH_MEASURE(1.E-07),#241,
  'distance_accuracy_value','confusion accuracy');
#245 = CONTEXT_DEPENDENT_SHAPE_REPRESENTATION(#246,#248);
#246 = ( REPRESENTATION_RELATIONSHIP('','',#196,#10) 
REPRESENTATION_RELATIONSHIP_WITH_TRANSFORMATION(#247) 
SHAPE_REPRESENTATION_RELATIONSHIP() );
#247 = ITEM_DEFINED_TRANSFORMATION('','',#11,#23);
#248 = PRODUCT_DEFINITION_SHAPE('Placement','Placement of an item',#249
  );
#249 = NEXT_ASSEMBLY_USAGE_OCCURRENCE('145','part2','',#5,#191,$);
#250 = PRODUCT_RELATED_PRODUCT_CATEGORY('part',$,(#193));
#251 = SHAPE_DEFINITION_REPRESENTATION(#252,#258);
#252 = PRODUCT_DEFINITION_SHAPE('','',#253);
#253 = PRODUCT_DEFINITION('design','',#254,#257);
#254 = PRODUCT_DEFINITION_FORMATION('','',#255);
#255 = PRODUCT('part3','part3','',(#256));
#256 = PRODUCT_CONTEXT('',#2,'mechanical');
#257 = PRODUCT_DEFINITION_CONTEXT('part definition',#2,'design');
#258 = ADVANCED_BREP_SHAPE_REPRESENTATION('',(#11,#259),#302);
#259 = MANIFOLD_SOLID_BREP('',#260);
#260 = CLOSED_SHELL('',(#261));
#261 = ADVANCED_FACE('',(#262),#266,.T.);
#262 = FACE_BOUND('',#263,.T.);
#263 = VERTEX_LOOP('',#264);
#264 = VERTEX_POINT('',#265);
#265 = CARTESIAN_POINT('',(-1.9314612721E+03,1.470352197877E+03,
    -105.5561470842));
#266 = ( BOUNDED_SURFACE() B_SPLINE_SURFACE(2,2,(
    (#267,#268,#269,#270,#271)
    ,(#272,#273,#274,#275,#276)
    ,(#277,#278,#279,#280,#281)
    ,(#282,#283,#284,#285,#286)
    ,(#287,#288,#289,#290,#291)
    ,(#292,#293,#294,#295,#296)
    ,(#297,#298,#299,#300,#301
)),.UNSPECIFIED.,.T.,.F.,.F.) B_SPLINE_SURFACE_WITH_KNOTS((1,2,2,2,2,1),
  (3,2,3),(-2.094395102393,0.,2.094395102393,4.188790204786,
    6.28318530718,8.377580409573),(-1.570796326795,0.,1.570796326795),
.UNSPECIFIED.) GEOMETRIC_REPRESENTATION_ITEM() RATIONAL_B_SPLINE_SURFACE
((
    (1.,0.707106781187,1.,0.707106781187,1.)
    ,(0.5,0.353553390593,0.5,0.353553390593,0.5)
    ,(1.,0.707106781187,1.,0.707106781187,1.)
    ,(0.5,0.353553390593,0.5,0.353553390593,0.5)
    ,(1.,0.707106781187,1.,0.707106781187,1.)
    ,(0.5,0.353553390593,0.5,0.353553390593,0.5)
,(1.,0.707106781187,1.,0.707106781187,1.
))) REPRESENTATION_ITEM('') SURFACE() );
#267 = CARTESIAN_POINT('',(-1.9314612721E+03,1.470352197877E+03,
    -105.5561470842));
#268 = CARTESIAN_POINT('',(-1.403680536679E+03,1.470352197877E+03,
    -105.5561470842));
#269 = CARTESIAN_POINT('',(-1.403680536679E+03,1.470352197877E+03,
    263.89036771074));
#270 = CARTESIAN_POINT('',(-1.403680536679E+03,1.470352197877E+03,
    633.33688250579));
#271 = CARTESIAN_POINT('',(-1.9314612721E+03,1.470352197877E+03,
    633.33688250579));
#272 = CARTESIAN_POINT('',(-1.9314612721E+03,1.470352197877E+03,
    -105.5561470842));
#273 = CARTESIAN_POINT('',(-1.403680536679E+03,2.201666637082E+03,
    -105.5561470842));
#274 = CARTESIAN_POINT('',(-1.403680536679E+03,2.201666637082E+03,
    263.89036771074));
#275 = CARTESIAN_POINT('',(-1.403680536679E+03,2.201666637082E+03,
    633.33688250579));
#276 = CARTESIAN_POINT('',(-1.9314612721E+03,1.470352197877E+03,
    633.33688250579));
#277 = CARTESIAN_POINT('',(-1.9314612721E+03,1.470352197877E+03,
    -105.5561470842));
#278 = CARTESIAN_POINT('',(-2.195351639811E+03,1.83600941748E+03,
    -105.5561470842));
#279 = CARTESIAN_POINT('',(-2.195351639811E+03,1.83600941748E+03,
    263.89036771074));
#280 = CARTESIAN_POINT('',(-2.195351639811E+03,1.83600941748E+03,
    633.33688250579));
#281 = CARTESIAN_POINT('',(-1.9314612721E+03,1.470352197877E+03,
    633.33688250579));
#282 = CARTESIAN_POINT('',(-1.9314612721E+03,1.470352197877E+03,
    -105.5561470842));
#283 = CARTESIAN_POINT('',(-2.987022742943E+03,1.470352197877E+03,
    -105.5561470842));
#284 = CARTESIAN_POINT('',(-2.987022742943E+03,1.470352197877E+03,
    263.89036771074));
#285 = CARTESIAN_POINT('',(-2.987022742943E+03,1.470352197877E+03,
    633.33688250579));
#286 = CARTESIAN_POINT('',(-1.9314612721E+03,1.470352197877E+03,
    633.33688250579));
#287 = CARTESIAN_POINT('',(-1.9314612721E+03,1.470352197877E+03,
    -105.5561470842));
#288 = CARTESIAN_POINT('',(-2.195351639811E+03,1.104694978275E+03,
    -105.5561470842));
#289 = CARTESIAN_POINT('',(-2.195351639811E+03,1.104694978275E+03,
    263.89036771074));
#290 = CARTESIAN_POINT('',(-2.195351639811E+03,1.104694978275E+03,
    633.33688250579));
#291 = CARTESIAN_POINT('',(-1.9314612721E+03,1.470352197877E+03,
    633.33688250579));
#292 = CARTESIAN_POINT('',(-1.9314612721E+03,1.470352197877E+03,
    -105.5561470842));
#293 = CARTESIAN_POINT('',(-1.403680536679E+03,739.03775867256,
    -105.5561470842));
#294 = CARTESIAN_POINT('',(-1.403680536679E+03,739.03775867256,
    263.89036771074));
#295 = CARTESIAN_POINT('',(-1.403680536679E+03,739.03775867256,
    633.33688250579));
#296 = CARTESIAN_POINT('',(-1.9314612721E+03,1.470352197877E+03,
    633.33688250579));
#297 = CARTESIAN_POINT('',(-1.9314612721E+03,1.470352197877E+03,
    -105.5561470842));
#298 = CARTESIAN_POINT('',(-1.403680536679E+03,1.470352197877E+03,
    -105.5561470842));
#299 = CARTESIAN_POINT('',(-1.403680536679E+03,1.470352197877E+03,
    263.89036771074));
#300 = CARTESIAN_POINT('',(-1.403680536679E+03,1.470352197877E+03,
    633.33688250579));
#301 = CARTESIAN_POINT('',(-1.9314612721E+03,1.470352197877E+03,
    633.33688250579));
#302 = ( GEOMETRIC_REPRESENTATION_CONTEXT(3) 
GLOBAL_UNCERTAINTY_ASSIGNED_CONTEXT((#306)) GLOBAL_UNIT_ASSIGNED_CONTEXT
((#303,#304,#305)) REPRESENTATION_CONTEXT('Context #1',
  '3D Context with UNIT and UNCERTAINTY') );
#303 = ( LENGTH_UNIT() NAMED_UNIT(*) SI_UNIT(.MILLI.,.METRE.) );
#304 = ( NAMED_UNIT(*) PLANE_ANGLE_UNIT() SI_UNIT($,.RADIAN.) );
#305 = ( NAMED_UNIT(*) SI_UNIT($,.STERADIAN.) SOLID_ANGLE_UNIT() );
#306 = UNCERTAINTY_MEASURE_WITH_UNIT(LENGTH_MEASURE(1.E-07),#303,
  'distance_accuracy_value','confusion accuracy');
#307 = CONTEXT_DEPENDENT_SHAPE_REPRESENTATION(#308,#310);
#308 = ( REPRESENTATION_RELATIONSHIP('','',#258,#10) 
REPRESENTATION_RELATIONSHIP_WITH_TRANSFORMATION(#309) 
SHAPE_REPRESENTATION_RELATIONSHIP() );
#309 = ITEM_DEFINED_TRANSFORMATION('','',#11,#27);
#310 = PRODUCT_DEFINITION_SHAPE('Placement','Placement of an item',#311
  );
#311 = NEXT_ASSEMBLY_USAGE_OCCURRENCE('146','part3','',#5,#253,$);
#312 = PRODUCT_RELATED_PRODUCT_CATEGORY('part',$,(#255));
#313 = SHAPE_DEFINITION_REPRESENTATION(#314,#320);
#314 = PRODUCT_DEFINITION_SHAPE('','',#315);
#315 = PRODUCT_DEFINITION('design','',#316,#319);
#316 = PRODUCT_DEFINITION_FORMATION('','',#317);
#317 = PRODUCT('part4','part4','',(#318));
#318 = PRODUCT_CONTEXT('',#2,'mechanical');
#319 = PRODUCT_DEFINITION_CONTEXT('part definition',#2,'design');
#320 = ADVANCED_BREP_SHAPE_REPRESENTATION('',(#11,#321),#364);
#321 = MANIFOLD_SOLID_BREP('',#322);
#322 = CLOSED_SHELL('',(#323));
#323 = ADVANCED_FACE('',(#324),#328,.T.);
#324 = FACE_BOUND('',#325,.T.);
#325 = VERTEX_LOOP('',#326);
#326 = VERTEX_POINT('',#327);
#327 = CARTESIAN_POINT('',(728.22447784077,1.3826803339E+03,
    -134.8208294708));
#328 = ( BOUNDED_SURFACE() B_SPLINE_SURFACE(2,2,(
    (#329,#330,#331,#332,#333)
    ,(#334,#335,#336,#337,#338)
    ,(#339,#340,#341,#342,#343)
    ,(#344,#345,#346,#347,#348)
    ,(#349,#350,#351,#352,#353)
    ,(#354,#355,#356,#357,#358)
    ,(#359,#360,#361,#362,#363
)),.UNSPECIFIED.,.T.,.F.,.F.) B_SPLINE_SURFACE_WITH_KNOTS((1,2,2,2,2,1),
  (3,2,3),(-2.094395102393,0.,2.094395102393,4.188790204786,
    6.28318530718,8.377580409573),(-1.570796326795,0.,1.570796326795),
.UNSPECIFIED.) GEOMETRIC_REPRESENTATION_ITEM() RATIONAL_B_SPLINE_SURFACE
((
    (1.,0.707106781187,1.,0.707106781187,1.)
    ,(0.5,0.353553390593,0.5,0.353553390593,0.5)
    ,(1.,0.707106781187,1.,0.707106781187,1.)
    ,(0.5,0.353553390593,0.5,0.353553390593,0.5)
    ,(1.,0.707106781187,1.,0.707106781187,1.)
    ,(0.5,0.353553390593,0.5,0.353553390593,0.5)
,(1.,0.707106781187,1.,0.707106781187,1.
))) REPRESENTATION_ITEM('') SURFACE() );
#329 = CARTESIAN_POINT('',(728.22447784077,1.3826803339E+03,
    -134.8208294708));
#330 = CARTESIAN_POINT('',(1.402328625195E+03,1.3826803339E+03,
    -134.8208294708));
#331 = CARTESIAN_POINT('',(1.402328625195E+03,1.3826803339E+03,
    337.05207367707));
#332 = CARTESIAN_POINT('',(1.402328625195E+03,1.3826803339E+03,
    808.92497682498));
#333 = CARTESIAN_POINT('',(728.22447784077,1.3826803339E+03,
    808.92497682498));
#334 = CARTESIAN_POINT('',(728.22447784077,1.3826803339E+03,
    -134.8208294708));
#335 = CARTESIAN_POINT('',(1.402328625195E+03,2.316746440149E+03,
    -134.8208294708));
#336 = CARTESIAN_POINT('',(1.402328625195E+03,2.316746440149E+03,
    337.05207367707));
#337 = CARTESIAN_POINT('',(1.402328625195E+03,2.316746440149E+03,
    808.92497682498));
#338 = CARTESIAN_POINT('',(728.22447784077,1.3826803339E+03,
    808.92497682498));
#339 = CARTESIAN_POINT('',(728.22447784077,1.3826803339E+03,
    -134.8208294708));
#340 = CARTESIAN_POINT('',(391.1724041637,1.849713387025E+03,
    -134.8208294708));
#341 = CARTESIAN_POINT('',(391.1724041637,1.849713387025E+03,
    337.05207367707));
#342 = CARTESIAN_POINT('',(391.1724041637,1.849713387025E+03,
    808.92497682498));
#343 = CARTESIAN_POINT('',(728.22447784077,1.3826803339E+03,
    808.92497682498));
#344 = CARTESIAN_POINT('',(728.22447784077,1.3826803339E+03,
    -134.8208294708));
#345 = CARTESIAN_POINT('',(-619.9838168675,1.3826803339E+03,
    -134.8208294708));
#346 = CARTESIAN_POINT('',(-619.9838168675,1.3826803339E+03,
    337.05207367707));
#347 = CARTESIAN_POINT('',(-619.9838168675,1.3826803339E+03,
    808.92497682498));
#348 = CARTESIAN_POINT('',(728.22447784077,1.3826803339E+03,
    808.92497682498));
#349 = CARTESIAN_POINT('',(728.22447784077,1.3826803339E+03,
    -134.8208294708));
#350 = CARTESIAN_POINT('',(391.17240416369,915.64728077629,
    -134.8208294708));
#351 = CARTESIAN_POINT('',(391.17240416369,915.64728077629,
    337.05207367707));
#352 = CARTESIAN_POINT('',(391.17240416369,915.64728077629,
    808.92497682498));
#353 = CARTESIAN_POINT('',(728.22447784077,1.3826803339E+03,
    808.92497682498));
#354 = CARTESIAN_POINT('',(728.22447784077,1.3826803339E+03,
    -134.8208294708));
#355 = CARTESIAN_POINT('',(1.402328625195E+03,448.61422765218,
    -134.8208294708));
#356 = CARTESIAN_POINT('',(1.402328625195E+03,448.61422765218,
    337.05207367707));
#357 = CARTESIAN_POINT('',(1.402328625195E+03,448.61422765218,
    808.92497682498));
#358 = CARTESIAN_POINT('',(728.22447784077,1.3826803339E+03,
    808.92497682498));
#359 = CARTESIAN_POINT('',(728.22447784077,1.3826803339E+03,
    -134.8208294708));
#360 = CARTESIAN_POINT('',(1.402328625195E+03,1.3826803339E+03,
    -134.8208294708));
#361 = CARTESIAN_POINT('',(1.402328625195E+03,1.3826803339E+03,
    337.05207367707));
#362 = CARTESIAN_POINT('',(1.402328625195E+03,1.3826803339E+03,
    808.92497682498));
#363 = CARTESIAN_POINT('',(728.22447784077,1.3826803339E+03,
    808.92497682498));
#364 = ( GEOMETRIC_REPRESENTATION_CONTEXT(3) 
GLOBAL_UNCERTAINTY_ASSIGNED_CONTEXT((#368)) GLOBAL_UNIT_ASSIGNED_CONTEXT
((#365,#366,#367)) REPRESENTATION_CONTEXT('Context #1',
  '3D Context with UNIT and UNCERTAINTY') );
#365 = ( LENGTH_UNIT() NAMED_UNIT(*) SI_UNIT(.MILLI.,.METRE.) );
#366 = ( NAMED_UNIT(*) PLANE_ANGLE_UNIT() SI_UNIT($,.RADIAN.) );
#367 = ( NAMED_UNIT(*) SI_UNIT($,.STERADIAN.) SOLID_ANGLE_UNIT() );
#368 = UNCERTAINTY_MEASURE_WITH_UNIT(LENGTH_MEASURE(1.E-07),#365,
  'distance_accuracy_value','confusion accuracy');
#369 = CONTEXT_DEPENDENT_SHAPE_REPRESENTATION(#370,#372);
#370 = ( REPRESENTATION_RELATIONSHIP('','',#320,#10) 
REPRESENTATION_RELATIONSHIP_WITH_TRANSFORMATION(#371) 
SHAPE_REPRESENTATION_RELATIONSHIP() );
#371 = ITEM_DEFINED_TRANSFORMATION('','',#11,#31);
#372 = PRODUCT_DEFINITION_SHAPE('Placement','Placement of an item',#373
  );
#373 = NEXT_ASSEMBLY_USAGE_OCCURRENCE('147','part4','',#5,#315,$);
#374 = PRODUCT_RELATED_PRODUCT_CATEGORY('part',$,(#317));
#375 = SHAPE_DEFINITION_REPRESENTATION(#376,#382);
#376 = PRODUCT_DEFINITION_SHAPE('','',#377);
#377 = PRODUCT_DEFINITION('design','',#378,#381);
#378 = PRODUCT_DEFINITION_FORMATION('','',#379);
#379 = PRODUCT('part5','part5','',(#380));
#380 = PRODUCT_CONTEXT('',#2,'mechanical');
#381 = PRODUCT_DEFINITION_CONTEXT('part definition',#2,'design');
#382 = ADVANCED_BREP_SHAPE_REPRESENTATION('',(#11,#383),#426);
#383 = MANIFOLD_SOLID_BREP('',#384);
#384 = CLOSED_SHELL('',(#385));
#385 = ADVANCED_FACE('',(#386),#390,.T.);
#386 = FACE_BOUND('',#387,.T.);
#387 = VERTEX_LOOP('',#388);
#388 = VERTEX_POINT('',#389);
#389 = CARTESIAN_POINT('',(3.051714014233E+03,665.96793850863,
    -83.87522672244));
#390 = ( BOUNDED_SURFACE() B_SPLINE_SURFACE(2,2,(
    (#391,#392,#393,#394,#395)
    ,(#396,#397,#398,#399,#400)
    ,(#401,#402,#403,#404,#405)
    ,(#406,#407,#408,#409,#410)
    ,(#411,#412,#413,#414,#415)
    ,(#416,#417,#418,#419,#420)
    ,(#421,#422,#423,#424,#425
)),.UNSPECIFIED.,.T.,.F.,.F.) B_SPLINE_SURFACE_WITH_KNOTS((1,2,2,2,2,1),
  (3,2,3),(-2.094395102393,0.,2.094395102393,4.188790204786,
    6.28318530718,8.377580409573),(-1.570796326795,0.,1.570796326795),
.UNSPECIFIED.) GEOMETRIC_REPRESENTATION_ITEM() RATIONAL_B_SPLINE_SURFACE
((
    (1.,0.707106781187,1.,0.707106781187,1.)
    ,(0.5,0.353553390593,0.5,0.353553390593,0.5)
    ,(1.,0.707106781187,1.,0.707106781187,1.)
    ,(0.5,0.353553390593,0.5,0.353553390593,0.5)
    ,(1.,0.707106781187,1.,0.707106781187,1.)
    ,(0.5,0.353553390593,0.5,0.353553390593,0.5)
,(1.,0.707106781187,1.,0.707106781187,1.
))) REPRESENTATION_ITEM('') SURFACE() );
#391 = CARTESIAN_POINT('',(3.051714014233E+03,665.96793850863,
    -83.87522672244));
#392 = CARTESIAN_POINT('',(3.471090147845E+03,665.96793850863,
    -83.87522672244));
#393 = CARTESIAN_POINT('',(3.471090147845E+03,665.96793850863,
    209.68806680611));
#394 = CARTESIAN_POINT('',(3.471090147845E+03,665.96793850863,
    503.25136033467));
#395 = CARTESIAN_POINT('',(3.051714014233E+03,665.96793850863,
    503.25136033467));
#396 = CARTESIAN_POINT('',(3.051714014233E+03,665.96793850863,
    -83.87522672244));
#397 = CARTESIAN_POINT('',(3.471090147845E+03,1.247072555227E+03,
    -83.87522672244));
#398 = CARTESIAN_POINT('',(3.471090147845E+03,1.247072555227E+03,
    209.68806680611));
#399 = CARTESIAN_POINT('',(3.471090147845E+03,1.247072555227E+03,
    503.25136033467));
#400 = CARTESIAN_POINT('',(3.051714014233E+03,665.96793850863,
    503.25136033467));
#401 = CARTESIAN_POINT('',(3.051714014233E+03,665.96793850863,
    -83.87522672244));
#402 = CARTESIAN_POINT('',(2.842025947427E+03,956.5202468679,
    -83.87522672244));
#403 = CARTESIAN_POINT('',(2.842025947427E+03,956.5202468679,
    209.68806680611));
#404 = CARTESIAN_POINT('',(2.842025947427E+03,956.5202468679,
    503.25136033467));
#405 = CARTESIAN_POINT('',(3.051714014233E+03,665.96793850863,
    503.25136033467));
#406 = CARTESIAN_POINT('',(3.051714014233E+03,665.96793850863,
    -83.87522672244));
#407 = CARTESIAN_POINT('',(2.212961747008E+03,665.96793850863,
    -83.87522672244));
#408 = CARTESIAN_POINT('',(2.212961747008E+03,665.96793850863,
    209.68806680611));
#409 = CARTESIAN_POINT('',(2.212961747008E+03,665.96793850863,
    503.25136033467));
#410 = CARTESIAN_POINT('',(3.051714014233E+03,665.96793850863,
    503.25136033467));
#411 = CARTESIAN_POINT('',(3.051714014233E+03,665.96793850863,
    -83.87522672244));
#412 = CARTESIAN_POINT('',(2.842025947427E+03,375.41563014936,
    -83.87522672244));
#413 = CARTESIAN_POINT('',(2.842025947427E+03,375.41563014936,
    209.68806680611));
#414 = CARTESIAN_POINT('',(2.842025947427E+03,375.41563014936,
    503.25136033467));
#415 = CARTESIAN_POINT('',(3.051714014233E+03,665.96793850863,
    503.25136033467));
#416 = CARTESIAN_POINT('',(3.051714014233E+03,665.96793850863,
    -83.87522672244));
#417 = CARTESIAN_POINT('',(3.471090147845E+03,84.863321790095,
    -83.87522672244));
#418 = CARTESIAN_POINT('',(3.471090147845E+03,84.863321790095,
    209.68806680611));
#419 = CARTESIAN_POINT('',(3.471090147845E+03,84.863321790095,
    503.25136033467));
#420 = CARTESIAN_POINT('',(3.051714014233E+03,665.96793850863,
    503.25136033467));
#421 = CARTESIAN_POINT('',(3.051714014233E+03,665.96793850863,
    -83.87522672244));
#422 = CARTESIAN_POINT('',(3.471090147845E+03,665.96793850863,
    -83.87522672244));
#423 = CARTESIAN_POINT('',(3.471090147845E+03,665.96793850863,
    209.68806680611));
#424 = CARTESIAN_POINT('',(3.471090147845E+03,665.96793850863,
    503.25136033467));
#425 = CARTESIAN_POINT('',(3.051714014233E+03,665.96793850863,
    503.25136033467));
#426 = ( GEOMETRIC_REPRESENTATION_CONTEXT(3) 
GLOBAL_UNCERTAINTY_ASSIGNED_CONTEXT((#430)) GLOBAL_UNIT_ASSIGNED_CONTEXT
((#427,#428,#429)) REPRESENTATION_CONTEXT('Context #1',
  '3D Context with UNIT and UNCERTAINTY') );
#427 = ( LENGTH_UNIT() NAMED_UNIT(*) SI_UNIT(.MILLI.,.METRE.) );
#428 = ( NAMED_UNIT(*) PLANE_ANGLE_UNIT() SI_UNIT($,.RADIAN.) );
#429 = ( NAMED_UNIT(*) SI_UNIT($,.STERADIAN.) SOLID_ANGLE_UNIT() );
#430 = UNCERTAINTY_MEASURE_WITH_UNIT(LENGTH_MEASURE(1.E-07),#427,
  'distance_accuracy_value','confusion accuracy');
#431 = CONTEXT_DEPENDENT_SHAPE_REPRESENTATION(#432,#434);
#432 = ( REPRESENTATION_RELATIONSHIP('','',#382,#10) 
REPRESENTATION_RELATIONSHIP_WITH_TRANSFORMATION(#433) 
SHAPE_REPRESENTATION_RELATIONSHIP() );
#433 = ITEM_DEFINED_TRANSFORMATION('','',#11,#35);
#434 = PRODUCT_DEFINITION_SHAPE('Placement','Placement of an item',#435
  );
#435 = NEXT_ASSEMBLY_USAGE_OCCURRENCE('148','part5','',#5,#377,$);
#436 = PRODUCT_RELATED_PRODUCT_CATEGORY('part',$,(#379));
#437 = SHAPE_DEFINITION_REPRESENTATION(#438,#444);
#438 = PRODUCT_DEFINITION_SHAPE('','',#439);
#439 = PRODUCT_DEFINITION('design','',#440,#443);
#440 = PRODUCT_DEFINITION_FORMATION('','',#441);
#441 = PRODUCT('part6','part6','',(#442));
#442 = PRODUCT_CONTEXT('',#2,'mechanical');
#443 = PRODUCT_DEFINITION_CONTEXT('part definition',#2,'design');
#444 = ADVANCED_BREP_SHAPE_REPRESENTATION('',(#11,#445),#488);
#445 = MANIFOLD_SOLID_BREP('',#446);
#446 = CLOSED_SHELL('',(#447));
#447 = ADVANCED_FACE('',(#448),#452,.T.);
#448 = FACE_BOUND('',#449,.T.);
#449 = VERTEX_LOOP('',#450);
#450 = VERTEX_POINT('',#451);
#451 = CARTESIAN_POINT('',(2.745845175933E+03,286.57861385279,
    -104.8544963726));
#452 = ( BOUNDED_SURFACE() B_SPLINE_SURFACE(2,2,(
    (#453,#454,#455,#456,#457)
    ,(#458,#459,#460,#461,#462)
    ,(#463,#464,#465,#466,#467)
    ,(#468,#469,#470,#471,#472)
    ,(#473,#474,#475,#476,#477)
    ,(#478,#479,#480,#481,#482)
    ,(#483,#484,#485,#486,#487
)),.UNSPECIFIED.,.T.,.F.,.F.) B_SPLINE_SURFACE_WITH_KNOTS((1,2,2,2,2,1),
  (3,2,3),(-2.094395102393,0.,2.094395102393,4.188790204786,
    6.28318530718,8.377580409573),(-1.570796326795,0.,1.570796326795),
.UNSPECIFIED.) GEOMETRIC_REPRESENTATION_ITEM() RATIONAL_B_SPLINE_SURFACE
((
    (1.,0.707106781187,1.,0.707106781187,1.)
    ,(0.5,0.353553390593,0.5,0.353553390593,0.5)
    ,(1.,0.707106781187,1.,0.707106781187,1.)
    ,(0.5,0.353553390593,0.5,0.353553390593,0.5)
    ,(1.,0.707106781187,1.,0.707106781187,1.)
    ,(0.5,0.353553390593,0.5,0.353553390593,0.5)
,(1.,0.707106781187,1.,0.707106781187,1.
))) REPRESENTATION_ITEM('') SURFACE() );
#453 = CARTESIAN_POINT('',(2.745845175933E+03,286.57861385279,
    -104.8544963726));
#454 = CARTESIAN_POINT('',(3.270117657796E+03,286.57861385279,
    -104.8544963726));
#455 = CARTESIAN_POINT('',(3.270117657796E+03,286.57861385279,
    262.13624093162));
#456 = CARTESIAN_POINT('',(3.270117657796E+03,286.57861385279,
    629.1269782359));
#457 = CARTESIAN_POINT('',(2.745845175933E+03,286.57861385279,
    629.1269782359));
#458 = CARTESIAN_POINT('',(2.745845175933E+03,286.57861385279,
    -104.8544963726));
#459 = CARTESIAN_POINT('',(3.270117657796E+03,1.013031874331E+03,
    -104.8544963726));
#460 = CARTESIAN_POINT('',(3.270117657796E+03,1.013031874331E+03,
    262.13624093162));
#461 = CARTESIAN_POINT('',(3.270117657796E+03,1.013031874331E+03,
    629.1269782359));
#462 = CARTESIAN_POINT('',(2.745845175933E+03,286.57861385279,
    629.1269782359));
#463 = CARTESIAN_POINT('',(2.745845175933E+03,286.57861385279,
    -104.8544963726));
#464 = CARTESIAN_POINT('',(2.483708935001E+03,649.80524409175,
    -104.8544963726));
#465 = CARTESIAN_POINT('',(2.483708935001E+03,649.80524409175,
    262.13624093162));
#466 = CARTESIAN_POINT('',(2.483708935001E+03,649.80524409175,
    629.1269782359));
#467 = CARTESIAN_POINT('',(2.745845175933E+03,286.57861385279,
    629.1269782359));
#468 = CARTESIAN_POINT('',(2.745845175933E+03,286.57861385279,
    -104.8544963726));
#469 = CARTESIAN_POINT('',(1.697300212207E+03,286.57861385279,
    -104.8544963726));
#470 = CARTESIAN_POINT('',(1.697300212207E+03,286.57861385279,
    262.13624093162));
#471 = CARTESIAN_POINT('',(1.697300212207E+03,286.57861385279,
    629.1269782359));
#472 = CARTESIAN_POINT('',(2.745845175933E+03,286.57861385279,
    629.1269782359));
#473 = CARTESIAN_POINT('',(2.745845175933E+03,286.57861385279,
    -104.8544963726));
#474 = CARTESIAN_POINT('',(2.483708935001E+03,-76.64801638615,
    -104.8544963726));
#475 = CARTESIAN_POINT('',(2.483708935001E+03,-76.64801638615,
    262.13624093162));
#476 = CARTESIAN_POINT('',(2.483708935001E+03,-76.64801638615,
    629.1269782359));
#477 = CARTESIAN_POINT('',(2.745845175933E+03,286.57861385279,
    629.1269782359));
#478 = CARTESIAN_POINT('',(2.745845175933E+03,286.57861385279,
    -104.8544963726));
#479 = CARTESIAN_POINT('',(3.270117657796E+03,-439.8746466251,
    -104.8544963726));
#480 = CARTESIAN_POINT('',(3.270117657796E+03,-439.8746466251,
    262.13624093162));
#481 = CARTESIAN_POINT('',(3.270117657796E+03,-439.8746466251,
    629.1269782359));
#482 = CARTESIAN_POINT('',(2.745845175933E+03,286.57861385279,
    629.1269782359));
#483 = CARTESIAN_POINT('',(2.745845175933E+03,286.57861385279,
    -104.8544963726));
#484 = CARTESIAN_POINT('',(3.270117657796E+03,286.57861385279,
    -104.8544963726));
#485 = CARTESIAN_POINT('',(3.270117657796E+03,286.57861385279,
    262.13624093162));
#486 = CARTESIAN_POINT('',(3.270117657796E+03,286.57861385279,
    629.1269782359));
#487 = CARTESIAN_POINT('',(2.745845175933E+03,286.57861385279,
    629.1269782359));
#488 = ( GEOMETRIC_REPRESENTATION_CONTEXT(3) 
GLOBAL_UNCERTAINTY_ASSIGNED_CONTEXT((#492)) GLOBAL_UNIT_ASSIGNED_CONTEXT
((#489,#490,#491)) REPRESENTATION_CONTEXT('Context #1',
  '3D Context with UNIT and UNCERTAINTY') );
#489 = ( LENGTH_UNIT() NAMED_UNIT(*) SI_UNIT(.MILLI.,.METRE.) );
#490 = ( NAMED_UNIT(*) PLANE_ANGLE_UNIT() SI_UNIT($,.RADIAN.) );
#491 = ( NAMED_UNIT(*) SI_UNIT($,.STERADIAN.) SOLID_ANGLE_UNIT() );
#492 = UNCERTAINTY_MEASURE_WITH_UNIT(LENGTH_MEASURE(1.E-07),#489,
  'distance_accuracy_value','confusion accuracy');
#493 = CONTEXT_DEPENDENT_SHAPE_REPRESENTATION(#494,#496);
#494 = ( REPRESENTATION_RELATIONSHIP('','',#444,#10) 
REPRESENTATION_RELATIONSHIP_WITH_TRANSFORMATION(#495) 
SHAPE_REPRESENTATION_RELATIONSHIP() );
#495 = ITEM_DEFINED_TRANSFORMATION('','',#11,#39);
#496 = PRODUCT_DEFINITION_SHAPE('Placement','Placement of an item',#497
  );
#497 = NEXT_ASSEMBLY_USAGE_OCCURRENCE('149','part6','',#5,#439,$);
#498 = PRODUCT_RELATED_PRODUCT_CATEGORY('part',$,(#441));
#499 = SHAPE_DEFINITION_REPRESENTATION(#500,#506);
#500 = PRODUCT_DEFINITION_SHAPE('','',#501);
#501 = PRODUCT_DEFINITION('design','',#502,#505);
#502 = PRODUCT_DEFINITION_FORMATION('','',#503);
#503 = PRODUCT('part7','part7','',(#504));
#504 = PRODUCT_CONTEXT('',#2,'mechanical');
#505 = PRODUCT_DEFINITION_CONTEXT('part definition',#2,'design');
#506 = ADVANCED_BREP_SHAPE_REPRESENTATION('',(#11,#507),#550);
#507 = MANIFOLD_SOLID_BREP('',#508);
#508 = CLOSED_SHELL('',(#509));
#509 = ADVANCED_FACE('',(#510),#514,.T.);
#510 = FACE_BOUND('',#511,.T.);
#511 = VERTEX_LOOP('',#512);
#512 = VERTEX_POINT('',#513);
#513 = CARTESIAN_POINT('',(-2.231043746324E+03,1.119387128629E+03,
    -126.6259113137));
#514 = ( BOUNDED_SURFACE() B_SPLINE_SURFACE(2,2,(
    (#515,#516,#517,#518,#519)
    ,(#520,#521,#522,#523,#524)
    ,(#525,#526,#527,#528,#529)
    ,(#530,#531,#532,#533,#534)
    ,(#535,#536,#537,#538,#539)
    ,(#540,#541,#542,#543,#544)
    ,(#545,#546,#547,#548,#549
)),.UNSPECIFIED.,.T.,.F.,.F.) B_SPLINE_SURFACE_WITH_KNOTS((1,2,2,2,2,1),
  (3,2,3),(-2.094395102393,0.,2.094395102393,4.188790204786,
    6.28318530718,8.377580409573),(-1.570796326795,0.,1.570796326795),
.UNSPECIFIED.) GEOMETRIC_REPRESENTATION_ITEM() RATIONAL_B_SPLINE_SURFACE
((
    (1.,0.707106781187,1.,0.707106781187,1.)
    ,(0.5,0.353553390593,0.5,0.353553390593,0.5)
    ,(1.,0.707106781187,1.,0.707106781187,1.)
    ,(0.5,0.353553390593,0.5,0.353553390593,0.5)
    ,(1.,0.707106781187,1.,0.707106781187,1.)
    ,(0.5,0.353553390593,0.5,0.353553390593,0.5)
,(1.,0.707106781187,1.,0.707106781187,1.
))) REPRESENTATION_ITEM('') SURFACE() );
#515 = CARTESIAN_POINT('',(-2.231043746324E+03,1.119387128629E+03,
    -126.6259113137));
#516 = CARTESIAN_POINT('',(-1.597914189755E+03,1.119387128629E+03,
    -126.6259113137));
#517 = CARTESIAN_POINT('',(-1.597914189755E+03,1.119387128629E+03,
    316.56477828449));
#518 = CARTESIAN_POINT('',(-1.597914189755E+03,1.119387128629E+03,
    759.75546788278));
#519 = CARTESIAN_POINT('',(-2.231043746324E+03,1.119387128629E+03,
    759.75546788278));
#520 = CARTESIAN_POINT('',(-2.231043746324E+03,1.119387128629E+03,
    -126.6259113137));
#521 = CARTESIAN_POINT('',(-1.597914189755E+03,1.99667717643E+03,
    -126.6259113137));
#522 = CARTESIAN_POINT('',(-1.597914189755E+03,1.99667717643E+03,
    316.56477828449));
#523 = CARTESIAN_POINT('',(-1.597914189755E+03,1.99667717643E+03,
    759.75546788278));
#524 = CARTESIAN_POINT('',(-2.231043746324E+03,1.119387128629E+03,
    759.75546788278));
#525 = CARTESIAN_POINT('',(-2.231043746324E+03,1.119387128629E+03,
    -126.6259113137));
#526 = CARTESIAN_POINT('',(-2.547608524608E+03,1.558032152529E+03,
    -126.6259113137));
#527 = CARTESIAN_POINT('',(-2.547608524608E+03,1.558032152529E+03,
    316.56477828449));
#528 = CARTESIAN_POINT('',(-2.547608524608E+03,1.558032152529E+03,
    759.75546788278));
#529 = CARTESIAN_POINT('',(-2.231043746324E+03,1.119387128629E+03,
    759.75546788278));
#530 = CARTESIAN_POINT('',(-2.231043746324E+03,1.119387128629E+03,
    -126.6259113137));
#531 = CARTESIAN_POINT('',(-3.497302859462E+03,1.119387128629E+03,
    -126.6259113137));
#532 = CARTESIAN_POINT('',(-3.497302859462E+03,1.119387128629E+03,
    316.56477828449));
#533 = CARTESIAN_POINT('',(-3.497302859462E+03,1.119387128629E+03,
    759.75546788278));
#534 = CARTESIAN_POINT('',(-2.231043746324E+03,1.119387128629E+03,
    759.75546788278));
#535 = CARTESIAN_POINT('',(-2.231043746324E+03,1.119387128629E+03,
    -126.6259113137));
#536 = CARTESIAN_POINT('',(-2.547608524608E+03,680.74210472849,
    -126.6259113137));
#537 = CARTESIAN_POINT('',(-2.547608524608E+03,680.74210472849,
    316.56477828449));
#538 = CARTESIAN_POINT('',(-2.547608524608E+03,680.74210472849,
    759.75546788278));
#539 = CARTESIAN_POINT('',(-2.231043746324E+03,1.119387128629E+03,
    759.75546788278));
#540 = CARTESIAN_POINT('',(-2.231043746324E+03,1.119387128629E+03,
    -126.6259113137));
#541 = CARTESIAN_POINT('',(-1.597914189755E+03,242.09708082808,
    -126.6259113137));
#542 = CARTESIAN_POINT('',(-1.597914189755E+03,242.09708082808,
    316.56477828449));
#543 = CARTESIAN_POINT('',(-1.597914189755E+03,242.09708082808,
    759.75546788278));
#544 = CARTESIAN_POINT('',(-2.231043746324E+03,1.119387128629E+03,
    759.75546788278));
#545 = CARTESIAN_POINT('',(-2.231043746324E+03,1.119387128629E+03,
    -126.6259113137));
#546 = CARTESIAN_POINT('',(-1.597914189755E+03,1.119387128629E+03,
    -126.6259113137));
#547 = CARTESIAN_POINT('',(-1.597914189755E+03,1.119387128629E+03,
    316.56477828449));
#548 = CARTESIAN_POINT('',(-1.597914189755E+03,1.119387128629E+03,
    759.75546788278));
#549 = CARTESIAN_POINT('',(-2.231043746324E+03,1.119387128629E+03,
    759.75546788278));
#550 = ( GEOMETRIC_REPRESENTATION_CONTEXT(3) 
GLOBAL_UNCERTAINTY_ASSIGNED_CONTEXT((#554)) GLOBAL_UNIT_ASSIGNED_CONTEXT
((#551,#552,#553)) REPRESENTATION_CONTEXT('Context #1',
  '3D Context with UNIT and UNCERTAINTY') );
#551 = ( LENGTH_UNIT() NAMED_UNIT(*) SI_UNIT(.MILLI.,.METRE.) );
#552 = ( NAMED_UNIT(*) PLANE_ANGLE_UNIT() SI_UNIT($,.RADIAN.) );
#553 = ( NAMED_UNIT(*) SI_UNIT($,.STERADIAN.) SOLID_ANGLE_UNIT() );
#554 = UNCERTAINTY_MEASURE_WITH_UNIT(LENGTH_MEASURE(1.E-07),#551,
  'distance_accuracy_value','confusion accuracy');
#555 = CONTEXT_DEPENDENT_SHAPE_REPRESENTATION(#556,#558);
#556 = ( REPRESENTATION_RELATIONSHIP('','',#506,#10) 
REPRESENTATION_RELATIONSHIP_WITH_TRANSFORMATION(#557) 
SHAPE_REPRESENTATION_RELATIONSHIP() );
#557 = ITEM_DEFINED_TRANSFORMATION('','',#11,#43);
#558 = PRODUCT_DEFINITION_SHAPE('Placement','Placement of an item',#559
  );
#559 = NEXT_ASSEMBLY_USAGE_OCCURRENCE('150','part7','',#5,#501,$);
#560 = PRODUCT_RELATED_PRODUCT_CATEGORY('part',$,(#503));
#561 = SHAPE_DEFINITION_REPRESENTATION(#562,#568);
#562 = PRODUCT_DEFINITION_SHAPE('','',#563);
#563 = PRODUCT_DEFINITION('design','',#564,#567);
#564 = PRODUCT_DEFINITION_FORMATION('','',#565);
#565 = PRODUCT('part8','part8','',(#566));
#566 = PRODUCT_CONTEXT('',#2,'mechanical');
#567 = PRODUCT_DEFINITION_CONTEXT('part definition',#2,'design');
#568 = ADVANCED_BREP_SHAPE_REPRESENTATION('',(#11,#569),#612);
#569 = MANIFOLD_SOLID_BREP('',#570);
#570 = CLOSED_SHELL('',(#571));
#571 = ADVANCED_FACE('',(#572),#576,.T.);
#572 = FACE_BOUND('',#573,.T.);
#573 = VERTEX_LOOP('',#574);
#574 = VERTEX_POINT('',#575);
#575 = CARTESIAN_POINT('',(3.153520116567E+03,876.64685208898,
    -156.8953638972));
#576 = ( BOUNDED_SURFACE() B_SPLINE_SURFACE(2,2,(
    (#577,#578,#579,#580,#581)
    ,(#582,#583,#584,#585,#586)
    ,(#587,#588,#589,#590,#591)
    ,(#592,#593,#594,#595,#596)
    ,(#597,#598,#599,#600,#601)
    ,(#602,#603,#604,#605,#606)
    ,(#607,#608,#609,#610,#611
)),.UNSPECIFIED.,.T.,.F.,.F.) B_SPLINE_SURFACE_WITH_KNOTS((1,2,2,2,2,1),
  (3,2,3),(-2.094395102393,0.,2.094395102393,4.188790204786,
    6.28318530718,8.377580409573),(-1.570796326795,0.,1.570796326795),
.UNSPECIFIED.) GEOMETRIC_REPRESENTATION_ITEM() RATIONAL_B_SPLINE_SURFACE
((
    (1.,0.707106781187,1.,0.707106781187,1.)
    ,(0.5,0.353553390593,0.5,0.353553390593,0.5)
    ,(1.,0.707106781187,1.,0.707106781187,1.)
    ,(0.5,0.353553390593,0.5,0.353553390593,0.5)
    ,(1.,0.707106781187,1.,0.707106781187,1.)
    ,(0.5,0.353553390593,0.5,0.353553390593,0.5)
,(1.,0.707106781187,1.,0.707106781187,1.
))) REPRESENTATION_ITEM('') SURFACE() );
#577 = CARTESIAN_POINT('',(3.153520116567E+03,876.64685208898,
    -156.8953638972));
#578 = CARTESIAN_POINT('',(3.937996936054E+03,876.64685208898,
    -156.8953638972));
#579 = CARTESIAN_POINT('',(3.937996936054E+03,876.64685208898,
    392.23840974306));
#580 = CARTESIAN_POINT('',(3.937996936054E+03,876.64685208898,
    941.37218338334));
#581 = CARTESIAN_POINT('',(3.153520116567E+03,876.64685208898,
    941.37218338334));
#582 = CARTESIAN_POINT('',(3.153520116567E+03,876.64685208898,
    -156.8953638972));
#583 = CARTESIAN_POINT('',(3.937996936054E+03,1.963649819057E+03,
    -156.8953638972));
#584 = CARTESIAN_POINT('',(3.937996936054E+03,1.963649819057E+03,
    392.23840974306));
#585 = CARTESIAN_POINT('',(3.937996936054E+03,1.963649819057E+03,
    941.37218338334));
#586 = CARTESIAN_POINT('',(3.153520116567E+03,876.64685208898,
    941.37218338334));
#587 = CARTESIAN_POINT('',(3.153520116567E+03,876.64685208898,
    -156.8953638972));
#588 = CARTESIAN_POINT('',(2.761281706824E+03,1.420148335573E+03,
    -156.8953638972));
#589 = CARTESIAN_POINT('',(2.761281706824E+03,1.420148335573E+03,
    392.23840974306));
#590 = CARTESIAN_POINT('',(2.761281706824E+03,1.420148335573E+03,
    941.37218338334));
#591 = CARTESIAN_POINT('',(3.153520116567E+03,876.64685208898,
    941.37218338334));
#592 = CARTESIAN_POINT('',(3.153520116567E+03,876.64685208898,
    -156.8953638972));
#593 = CARTESIAN_POINT('',(1.584566477595E+03,876.64685208898,
    -156.8953638972));
#594 = CARTESIAN_POINT('',(1.584566477595E+03,876.64685208898,
    392.23840974306));
#595 = CARTESIAN_POINT('',(1.584566477595E+03,876.64685208898,
    941.37218338334));
#596 = CARTESIAN_POINT('',(3.153520116567E+03,876.64685208898,
    941.37218338334));
#597 = CARTESIAN_POINT('',(3.153520116567E+03,876.64685208898,
    -156.8953638972));
#598 = CARTESIAN_POINT('',(2.761281706824E+03,333.14536860498,
    -156.8953638972));
#599 = CARTESIAN_POINT('',(2.761281706824E+03,333.14536860498,
    392.23840974306));
#600 = CARTESIAN_POINT('',(2.761281706824E+03,333.14536860498,
    941.37218338334));
#601 = CARTESIAN_POINT('',(3.153520116567E+03,876.64685208898,
    941.37218338334));
#602 = CARTESIAN_POINT('',(3.153520116567E+03,876.64685208898,
    -156.8953638972));
#603 = CARTESIAN_POINT('',(3.937996936054E+03,-210.356114879,
    -156.8953638972));
#604 = CARTESIAN_POINT('',(3.937996936054E+03,-210.356114879,
    392.23840974306));
#605 = CARTESIAN_POINT('',(3.937996936054E+03,-210.356114879,
    941.37218338334));
#606 = CARTESIAN_POINT('',(3.153520116567E+03,876.64685208898,
    941.37218338334));
#607 = CARTESIAN_POINT('',(3.153520116567E+03,876.64685208898,
    -156.8953638972));
#608 = CARTESIAN_POINT('',(3.937996936054E+03,876.64685208898,
    -156.8953638972));
#609 = CARTESIAN_POINT('',(3.937996936054E+03,876.64685208898,
    392.23840974306));
#610 = CARTESIAN_POINT('',(3.937996936054E+03,876.64685208898,
    941.37218338334));
#611 = CARTESIAN_POINT('',(3.153520116567E+03,876.64685208898,
    941.37218338334));
#612 = ( GEOMETRIC_REPRESENTATION_CONTEXT(3) 
GLOBAL_UNCERTAINTY_ASSIGNED_CONTEXT((#616)) GLOBAL_UNIT_ASSIGNED_CONTEXT
((#613,#614,#615)) REPRESENTATION_CONTEXT('Context #1',
  '3D Context with UNIT and UNCERTAINTY') );
#613 = ( LENGTH_UNIT() NAMED_UNIT(*) SI_UNIT(.MILLI.,.METRE.) );
#614 = ( NAMED_UNIT(*) PLANE_ANGLE_UNIT() SI_UNIT($,.RADIAN.) );
#615 = ( NAMED_UNIT(*) SI_UNIT($,.STERADIAN.) SOLID_ANGLE_UNIT() );
#616 = UNCERTAINTY_MEASURE_WITH_UNIT(LENGTH_MEASURE(1.E-07),#613,
  'distance_accuracy_value','confusion accuracy');
#617 = CONTEXT_DEPENDENT_SHAPE_REPRESENTATION(#618,#620);
#618 = ( REPRESENTATION_RELATIONSHIP('','',#568,#10) 
REPRESENTATION_RELATIONSHIP_WITH_TRANSFORMATION(#619) 
SHAPE_REPRESENTATION_RELATIONSHIP() );
#619 = ITEM_DEFINED_TRANSFORMATION('','',#11,#47);
#620 = PRODUCT_DEFINITION_SHAPE('Placement','Placement of an item',#621
  );
#621 = NEXT_ASSEMBLY_USAGE_OCCURRENCE('151','part8','',#5,#563,$);
#622 = PRODUCT_RELATED_PRODUCT_CATEGORY('part',$,(#565));
#623 = SHAPE_DEFINITION_REPRESENTATION(#624,#630);
#624 = PRODUCT_DEFINITION_SHAPE('','',#625);
#625 = PRODUCT_DEFINITION('design','',#626,#629);
#626 = PRODUCT_DEFINITION_FORMATION('','',#627);
#627 = PRODUCT('part9','part9','',(#628));
#628 = PRODUCT_CONTEXT('',#2,'mechanical');
#629 = PRODUCT_DEFINITION_CONTEXT('part definition',#2,'design');
#630 = ADVANCED_BREP_SHAPE_REPRESENTATION('',(#11,#631),#961);
#631 = MANIFOLD_SOLID_BREP('',#632);
#632 = CLOSED_SHELL('',(#633,#753,#853,#900,#947,#954));
#633 = ADVANCED_FACE('',(#634),#648,.F.);
#634 = FACE_BOUND('',#635,.F.);
#635 = EDGE_LOOP('',(#636,#671,#699,#727));
#636 = ORIENTED_EDGE('',*,*,#637,.F.);
#637 = EDGE_CURVE('',#638,#640,#642,.T.);
#638 = VERTEX_POINT('',#639);
#639 = CARTESIAN_POINT('',(-4.E+03,-2.9E+03,100.));
#640 = VERTEX_POINT('',#641);
#641 = CARTESIAN_POINT('',(-4.E+03,-2.9E+03,400.));
#642 = SURFACE_CURVE('',#643,(#647,#659),.PCURVE_S1.);
#643 = LINE('',#644,#645);
#644 = CARTESIAN_POINT('',(-4.E+03,-2.9E+03,100.));
#645 = VECTOR('',#646,1.);
#646 = DIRECTION('',(0.,0.,1.));
#647 = PCURVE('',#648,#653);
#648 = PLANE('',#649);
#649 = AXIS2_PLACEMENT_3D('',#650,#651,#652);
#650 = CARTESIAN_POINT('',(-4.E+03,-2.9E+03,100.));
#651 = DIRECTION('',(1.,0.,0.));
#652 = DIRECTION('',(0.,0.,1.));
#653 = DEFINITIONAL_REPRESENTATION('',(#654),#658);
#654 = LINE('',#655,#656);
#655 = CARTESIAN_POINT('',(0.,0.));
#656 = VECTOR('',#657,1.);
#657 = DIRECTION('',(1.,0.));
#658 = ( GEOMETRIC_REPRESENTATION_CONTEXT(2) 
PARAMETRIC_REPRESENTATION_CONTEXT() REPRESENTATION_CONTEXT('2D SPACE',''
  ) );
#659 = PCURVE('',#660,#665);
#660 = PLANE('',#661);
#661 = AXIS2_PLACEMENT_3D('',#662,#663,#664);
#662 = CARTESIAN_POINT('',(-4.E+03,-2.9E+03,100.));
#663 = DIRECTION('',(0.,1.,0.));
#664 = DIRECTION('',(0.,0.,1.));
#665 = DEFINITIONAL_REPRESENTATION('',(#666),#670);
#666 = LINE('',#667,#668);
#667 = CARTESIAN_POINT('',(0.,0.));
#668 = VECTOR('',#669,1.);
#669 = DIRECTION('',(1.,0.));
#670 = ( GEOMETRIC_REPRESENTATION_CONTEXT(2) 
PARAMETRIC_REPRESENTATION_CONTEXT() REPRESENTATION_CONTEXT('2D SPACE',''
  ) );
#671 = ORIENTED_EDGE('',*,*,#672,.T.);
#672 = EDGE_CURVE('',#638,#673,#675,.T.);
#673 = VERTEX_POINT('',#674);
#674 = CARTESIAN_POINT('',(-4.E+03,900.,100.));
#675 = SURFACE_CURVE('',#676,(#680,#687),.PCURVE_S1.);
#676 = LINE('',#677,#678);
#677 = CARTESIAN_POINT('',(-4.E+03,-2.9E+03,100.));
#678 = VECTOR('',#679,1.);
#679 = DIRECTION('',(0.,1.,0.));
#680 = PCURVE('',#648,#681);
#681 = DEFINITIONAL_REPRESENTATION('',(#682),#686);
#682 = LINE('',#683,#684);
#683 = CARTESIAN_POINT('',(0.,0.));
#684 = VECTOR('',#685,1.);
#685 = DIRECTION('',(0.,-1.));
#686 = ( GEOMETRIC_REPRESENTATION_CONTEXT(2) 
PARAMETRIC_REPRESENTATION_CONTEXT() REPRESENTATION_CONTEXT('2D SPACE',''
  ) );
#687 = PCURVE('',#688,#693);
#688 = PLANE('',#689);
#689 = AXIS2_PLACEMENT_3D('',#690,#691,#692);
#690 = CARTESIAN_POINT('',(-4.E+03,-2.9E+03,100.));
#691 = DIRECTION('',(0.,0.,1.));
#692 = DIRECTION('',(1.,0.,0.));
#693 = DEFINITIONAL_REPRESENTATION('',(#694),#698);
#694 = LINE('',#695,#696);
#695 = CARTESIAN_POINT('',(0.,0.));
#696 = VECTOR('',#697,1.);
#697 = DIRECTION('',(0.,1.));
#698 = ( GEOMETRIC_REPRESENTATION_CONTEXT(2) 
PARAMETRIC_REPRESENTATION_CONTEXT() REPRESENTATION_CONTEXT('2D SPACE',''
  ) );
#699 = ORIENTED_EDGE('',*,*,#700,.T.);
#700 = EDGE_CURVE('',#673,#701,#703,.T.);
#701 = VERTEX_POINT('',#702);
#702 = CARTESIAN_POINT('',(-4.E+03,900.,400.));
#703 = SURFACE_CURVE('',#704,(#708,#715),.PCURVE_S1.);
#704 = LINE('',#705,#706);
#705 = CARTESIAN_POINT('',(-4.E+03,900.,100.));
#706 = VECTOR('',#707,1.);
#707 = DIRECTION('',(0.,0.,1.));
#708 = PCURVE('',#648,#709);
#709 = DEFINITIONAL_REPRESENTATION('',(#710),#714);
#710 = LINE('',#711,#712);
#711 = CARTESIAN_POINT('',(0.,-3.8E+03));
#712 = VECTOR('',#713,1.);
#713 = DIRECTION('',(1.,0.));
#714 = ( GEOMETRIC_REPRESENTATION_CONTEXT(2) 
PARAMETRIC_REPRESENTATION_CONTEXT() REPRESENTATION_CONTEXT('2D SPACE',''
  ) );
#715 = PCURVE('',#716,#721);
#716 = PLANE('',#717);
#717 = AXIS2_PLACEMENT_3D('',#718,#719,#720);
#718 = CARTESIAN_POINT('',(-4.E+03,900.,100.));
#719 = DIRECTION('',(0.,1.,0.));
#720 = DIRECTION('',(0.,0.,1.));
#721 = DEFINITIONAL_REPRESENTATION('',(#722),#726);
#722 = LINE('',#723,#724);
#723 = CARTESIAN_POINT('',(0.,0.));
#724 = VECTOR('',#725,1.);
#725 = DIRECTION('',(1.,0.));
#726 = ( GEOMETRIC_REPRESENTATION_CONTEXT(2) 
PARAMETRIC_REPRESENTATION_CONTEXT() REPRESENTATION_CONTEXT('2D SPACE',''
  ) );
#727 = ORIENTED_EDGE('',*,*,#728,.F.);
#728 = EDGE_CURVE('',#640,#701,#729,.T.);
#729 = SURFACE_CURVE('',#730,(#734,#741),.PCURVE_S1.);
#730 = LINE('',#731,#732);
#731 = CARTESIAN_POINT('',(-4.E+03,-2.9E+03,400.));
#732 = VECTOR('',#733,1.);
#733 = DIRECTION('',(0.,1.,0.));
#734 = PCURVE('',#648,#735);
#735 = DEFINITIONAL_REPRESENTATION('',(#736),#740);
#736 = LINE('',#737,#738);
#737 = CARTESIAN_POINT('',(300.,0.));
#738 = VECTOR('',#739,1.);
#739 = DIRECTION('',(0.,-1.));
#740 = ( GEOMETRIC_REPRESENTATION_CONTEXT(2) 
PARAMETRIC_REPRESENTATION_CONTEXT() REPRESENTATION_CONTEXT('2D SPACE',''
  ) );
#741 = PCURVE('',#742,#747);
#742 = PLANE('',#743);
#743 = AXIS2_PLACEMENT_3D('',#744,#745,#746);
#744 = CARTESIAN_POINT('',(-4.E+03,-2.9E+03,400.));
#745 = DIRECTION('',(0.,0.,1.));
#746 = DIRECTION('',(1.,0.,0.));
#747 = DEFINITIONAL_REPRESENTATION('',(#748),#752);
#748 = LINE('',#749,#750);
#749 = CARTESIAN_POINT('',(0.,0.));
#750 = VECTOR('',#751,1.);
#751 = DIRECTION('',(0.,1.));
#752 = ( GEOMETRIC_REPRESENTATION_CONTEXT(2) 
PARAMETRIC_REPRESENTATION_CONTEXT() REPRESENTATION_CONTEXT('2D SPACE',''
  ) );
#753 = ADVANCED_FACE('',(#754),#768,.T.);
#754 = FACE_BOUND('',#755,.T.);
#755 = EDGE_LOOP('',(#756,#786,#809,#832));
#756 = ORIENTED_EDGE('',*,*,#757,.F.);
#757 = EDGE_CURVE('',#758,#760,#762,.T.);
#758 = VERTEX_POINT('',#759);
#759 = CARTESIAN_POINT('',(4.E+03,-2.9E+03,100.));
#760 = VERTEX_POINT('',#761);
#761 = CARTESIAN_POINT('',(4.E+03,-2.9E+03,400.));
#762 = SURFACE_CURVE('',#763,(#767,#779),.PCURVE_S1.);
#763 = LINE('',#764,#765);
#764 = CARTESIAN_POINT('',(4.E+03,-2.9E+03,100.));
#765 = VECTOR('',#766,1.);
#766 = DIRECTION('',(0.,0.,1.));
#767 = PCURVE('',#768,#773);
#768 = PLANE('',#769);
#769 = AXIS2_PLACEMENT_3D('',#770,#771,#772);
#770 = CARTESIAN_POINT('',(4.E+03,-2.9E+03,100.));
#771 = DIRECTION('',(1.,0.,0.));
#772 = DIRECTION('',(0.,0.,1.));
#773 = DEFINITIONAL_REPRESENTATION('',(#774),#778);
#774 = LINE('',#775,#776);
#775 = CARTESIAN_POINT('',(0.,0.));
#776 = VECTOR('',#777,1.);
#777 = DIRECTION('',(1.,0.));
#778 = ( GEOMETRIC_REPRESENTATION_CONTEXT(2) 
PARAMETRIC_REPRESENTATION_CONTEXT() REPRESENTATION_CONTEXT('2D SPACE',''
  ) );
#779 = PCURVE('',#660,#780);
#780 = DEFINITIONAL_REPRESENTATION('',(#781),#785);
#781 = LINE('',#782,#783);
#782 = CARTESIAN_POINT('',(0.,8.E+03));
#783 = VECTOR('',#784,1.);
#784 = DIRECTION('',(1.,0.));
#785 = ( GEOMETRIC_REPRESENTATION_CONTEXT(2) 
PARAMETRIC_REPRESENTATION_CONTEXT() REPRESENTATION_CONTEXT('2D SPACE',''
  ) );
#786 = ORIENTED_EDGE('',*,*,#787,.T.);
#787 = EDGE_CURVE('',#758,#788,#790,.T.);
#788 = VERTEX_POINT('',#789);
#789 = CARTESIAN_POINT('',(4.E+03,900.,100.));
#790 = SURFACE_CURVE('',#791,(#795,#802),.PCURVE_S1.);
#791 = LINE('',#792,#793);
#792 = CARTESIAN_POINT('',(4.E+03,-2.9E+03,100.));
#793 = VECTOR('',#794,1.);
#794 = DIRECTION('',(0.,1.,0.));
#795 = PCURVE('',#768,#796);
#796 = DEFINITIONAL_REPRESENTATION('',(#797),#801);
#797 = LINE('',#798,#799);
#798 = CARTESIAN_POINT('',(0.,0.));
#799 = VECTOR('',#800,1.);
#800 = DIRECTION('',(0.,-1.));
#801 = ( GEOMETRIC_REPRESENTATION_CONTEXT(2) 
PARAMETRIC_REPRESENTATION_CONTEXT() REPRESENTATION_CONTEXT('2D SPACE',''
  ) );
#802 = PCURVE('',#688,#803);
#803 = DEFINITIONAL_REPRESENTATION('',(#804),#808);
#804 = LINE('',#805,#806);
#805 = CARTESIAN_POINT('',(8.E+03,0.));
#806 = VECTOR('',#807,1.);
#807 = DIRECTION('',(0.,1.));
#808 = ( GEOMETRIC_REPRESENTATION_CONTEXT(2) 
PARAMETRIC_REPRESENTATION_CONTEXT() REPRESENTATION_CONTEXT('2D SPACE',''
  ) );
#809 = ORIENTED_EDGE('',*,*,#810,.T.);
#810 = EDGE_CURVE('',#788,#811,#813,.T.);
#811 = VERTEX_POINT('',#812);
#812 = CARTESIAN_POINT('',(4.E+03,900.,400.));
#813 = SURFACE_CURVE('',#814,(#818,#825),.PCURVE_S1.);
#814 = LINE('',#815,#816);
#815 = CARTESIAN_POINT('',(4.E+03,900.,100.));
#816 = VECTOR('',#817,1.);
#817 = DIRECTION('',(0.,0.,1.));
#818 = PCURVE('',#768,#819);
#819 = DEFINITIONAL_REPRESENTATION('',(#820),#824);
#820 = LINE('',#821,#822);
#821 = CARTESIAN_POINT('',(0.,-3.8E+03));
#822 = VECTOR('',#823,1.);
#823 = DIRECTION('',(1.,0.));
#824 = ( GEOMETRIC_REPRESENTATION_CONTEXT(2) 
PARAMETRIC_REPRESENTATION_CONTEXT() REPRESENTATION_CONTEXT('2D SPACE',''
  ) );
#825 = PCURVE('',#716,#826);
#826 = DEFINITIONAL_REPRESENTATION('',(#827),#831);
#827 = LINE('',#828,#829);
#828 = CARTESIAN_POINT('',(0.,8.E+03));
#829 = VECTOR('',#830,1.);
#830 = DIRECTION('',(1.,0.));
#831 = ( GEOMETRIC_REPRESENTATION_CONTEXT(2) 
PARAMETRIC_REPRESENTATION_CONTEXT() REPRESENTATION_CONTEXT('2D SPACE',''
  ) );
#832 = ORIENTED_EDGE('',*,*,#833,.F.);
#833 = EDGE_CURVE('',#760,#811,#834,.T.);
#834 = SURFACE_CURVE('',#835,(#839,#846),.PCURVE_S1.);
#835 = LINE('',#836,#837);
#836 = CARTESIAN_POINT('',(4.E+03,-2.9E+03,400.));
#837 = VECTOR('',#838,1.);
#838 = DIRECTION('',(0.,1.,0.));
#839 = PCURVE('',#768,#840);
#840 = DEFINITIONAL_REPRESENTATION('',(#841),#845);
#841 = LINE('',#842,#843);
#842 = CARTESIAN_POINT('',(300.,0.));
#843 = VECTOR('',#844,1.);
#844 = DIRECTION('',(0.,-1.));
#845 = ( GEOMETRIC_REPRESENTATION_CONTEXT(2) 
PARAMETRIC_REPRESENTATION_CONTEXT() REPRESENTATION_CONTEXT('2D SPACE',''
  ) );
#846 = PCURVE('',#742,#847);
#847 = DEFINITIONAL_REPRESENTATION('',(#848),#852);
#848 = LINE('',#849,#850);
#849 = CARTESIAN_POINT('',(8.E+03,0.));
#850 = VECTOR('',#851,1.);
#851 = DIRECTION('',(0.,1.));
#852 = ( GEOMETRIC_REPRESENTATION_CONTEXT(2) 
PARAMETRIC_REPRESENTATION_CONTEXT() REPRESENTATION_CONTEXT('2D SPACE',''
  ) );
#853 = ADVANCED_FACE('',(#854),#660,.F.);
#854 = FACE_BOUND('',#855,.F.);
#855 = EDGE_LOOP('',(#856,#877,#878,#899));
#856 = ORIENTED_EDGE('',*,*,#857,.F.);
#857 = EDGE_CURVE('',#638,#758,#858,.T.);
#858 = SURFACE_CURVE('',#859,(#863,#870),.PCURVE_S1.);
#859 = LINE('',#860,#861);
#860 = CARTESIAN_POINT('',(-4.E+03,-2.9E+03,100.));
#861 = VECTOR('',#862,1.);
#862 = DIRECTION('',(1.,0.,0.));
#863 = PCURVE('',#660,#864);
#864 = DEFINITIONAL_REPRESENTATION('',(#865),#869);
#865 = LINE('',#866,#867);
#866 = CARTESIAN_POINT('',(0.,0.));
#867 = VECTOR('',#868,1.);
#868 = DIRECTION('',(0.,1.));
#869 = ( GEOMETRIC_REPRESENTATION_CONTEXT(2) 
PARAMETRIC_REPRESENTATION_CONTEXT() REPRESENTATION_CONTEXT('2D SPACE',''
  ) );
#870 = PCURVE('',#688,#871);
#871 = DEFINITIONAL_REPRESENTATION('',(#872),#876);
#872 = LINE('',#873,#874);
#873 = CARTESIAN_POINT('',(0.,0.));
#874 = VECTOR('',#875,1.);
#875 = DIRECTION('',(1.,0.));
#876 = ( GEOMETRIC_REPRESENTATION_CONTEXT(2) 
PARAMETRIC_REPRESENTATION_CONTEXT() REPRESENTATION_CONTEXT('2D SPACE',''
  ) );
#877 = ORIENTED_EDGE('',*,*,#637,.T.);
#878 = ORIENTED_EDGE('',*,*,#879,.T.);
#879 = EDGE_CURVE('',#640,#760,#880,.T.);
#880 = SURFACE_CURVE('',#881,(#885,#892),.PCURVE_S1.);
#881 = LINE('',#882,#883);
#882 = CARTESIAN_POINT('',(-4.E+03,-2.9E+03,400.));
#883 = VECTOR('',#884,1.);
#884 = DIRECTION('',(1.,0.,0.));
#885 = PCURVE('',#660,#886);
#886 = DEFINITIONAL_REPRESENTATION('',(#887),#891);
#887 = LINE('',#888,#889);
#888 = CARTESIAN_POINT('',(300.,0.));
#889 = VECTOR('',#890,1.);
#890 = DIRECTION('',(0.,1.));
#891 = ( GEOMETRIC_REPRESENTATION_CONTEXT(2) 
PARAMETRIC_REPRESENTATION_CONTEXT() REPRESENTATION_CONTEXT('2D SPACE',''
  ) );
#892 = PCURVE('',#742,#893);
#893 = DEFINITIONAL_REPRESENTATION('',(#894),#898);
#894 = LINE('',#895,#896);
#895 = CARTESIAN_POINT('',(0.,0.));
#896 = VECTOR('',#897,1.);
#897 = DIRECTION('',(1.,0.));
#898 = ( GEOMETRIC_REPRESENTATION_CONTEXT(2) 
PARAMETRIC_REPRESENTATION_CONTEXT() REPRESENTATION_CONTEXT('2D SPACE',''
  ) );
#899 = ORIENTED_EDGE('',*,*,#757,.F.);
#900 = ADVANCED_FACE('',(#901),#716,.T.);
#901 = FACE_BOUND('',#902,.T.);
#902 = EDGE_LOOP('',(#903,#924,#925,#946));
#903 = ORIENTED_EDGE('',*,*,#904,.F.);
#904 = EDGE_CURVE('',#673,#788,#905,.T.);
#905 = SURFACE_CURVE('',#906,(#910,#917),.PCURVE_S1.);
#906 = LINE('',#907,#908);
#907 = CARTESIAN_POINT('',(-4.E+03,900.,100.));
#908 = VECTOR('',#909,1.);
#909 = DIRECTION('',(1.,0.,0.));
#910 = PCURVE('',#716,#911);
#911 = DEFINITIONAL_REPRESENTATION('',(#912),#916);
#912 = LINE('',#913,#914);
#913 = CARTESIAN_POINT('',(0.,0.));
#914 = VECTOR('',#915,1.);
#915 = DIRECTION('',(0.,1.));
#916 = ( GEOMETRIC_REPRESENTATION_CONTEXT(2) 
PARAMETRIC_REPRESENTATION_CONTEXT() REPRESENTATION_CONTEXT('2D SPACE',''
  ) );
#917 = PCURVE('',#688,#918);
#918 = DEFINITIONAL_REPRESENTATION('',(#919),#923);
#919 = LINE('',#920,#921);
#920 = CARTESIAN_POINT('',(0.,3.8E+03));
#921 = VECTOR('',#922,1.);
#922 = DIRECTION('',(1.,0.));
#923 = ( GEOMETRIC_REPRESENTATION_CONTEXT(2) 
PARAMETRIC_REPRESENTATION_CONTEXT() REPRESENTATION_CONTEXT('2D SPACE',''
  ) );
#924 = ORIENTED_EDGE('',*,*,#700,.T.);
#925 = ORIENTED_EDGE('',*,*,#926,.T.);
#926 = EDGE_CURVE('',#701,#811,#927,.T.);
#927 = SURFACE_CURVE('',#928,(#932,#939),.PCURVE_S1.);
#928 = LINE('',#929,#930);
#929 = CARTESIAN_POINT('',(-4.E+03,900.,400.));
#930 = VECTOR('',#931,1.);
#931 = DIRECTION('',(1.,0.,0.));
#932 = PCURVE('',#716,#933);
#933 = DEFINITIONAL_REPRESENTATION('',(#934),#938);
#934 = LINE('',#935,#936);
#935 = CARTESIAN_POINT('',(300.,0.));
#936 = VECTOR('',#937,1.);
#937 = DIRECTION('',(0.,1.));
#938 = ( GEOMETRIC_REPRESENTATION_CONTEXT(2) 
PARAMETRIC_REPRESENTATION_CONTEXT() REPRESENTATION_CONTEXT('2D SPACE',''
  ) );
#939 = PCURVE('',#742,#940);
#940 = DEFINITIONAL_REPRESENTATION('',(#941),#945);
#941 = LINE('',#942,#943);
#942 = CARTESIAN_POINT('',(0.,3.8E+03));
#943 = VECTOR('',#944,1.);
#944 = DIRECTION('',(1.,0.));
#945 = ( GEOMETRIC_REPRESENTATION_CONTEXT(2) 
PARAMETRIC_REPRESENTATION_CONTEXT() REPRESENTATION_CONTEXT('2D SPACE',''
  ) );
#946 = ORIENTED_EDGE('',*,*,#810,.F.);
#947 = ADVANCED_FACE('',(#948),#688,.F.);
#948 = FACE_BOUND('',#949,.F.);
#949 = EDGE_LOOP('',(#950,#951,#952,#953));
#950 = ORIENTED_EDGE('',*,*,#672,.F.);
#951 = ORIENTED_EDGE('',*,*,#857,.T.);
#952 = ORIENTED_EDGE('',*,*,#787,.T.);
#953 = ORIENTED_EDGE('',*,*,#904,.F.);
#954 = ADVANCED_FACE('',(#955),#742,.T.);
#955 = FACE_BOUND('',#956,.T.);
#956 = EDGE_LOOP('',(#957,#958,#959,#960));
#957 = ORIENTED_EDGE('',*,*,#728,.F.);
#958 = ORIENTED_EDGE('',*,*,#879,.T.);
#959 = ORIENTED_EDGE('',*,*,#833,.T.);
#960 = ORIENTED_EDGE('',*,*,#926,.F.);
#961 = ( GEOMETRIC_REPRESENTATION_CONTEXT(3) 
GLOBAL_UNCERTAINTY_ASSIGNED_CONTEXT((#965)) GLOBAL_UNIT_ASSIGNED_CONTEXT
((#962,#963,#964)) REPRESENTATION_CONTEXT('Context #1',
  '3D Context with UNIT and UNCERTAINTY') );
#962 = ( LENGTH_UNIT() NAMED_UNIT(*) SI_UNIT(.MILLI.,.METRE.) );
#963 = ( NAMED_UNIT(*) PLANE_ANGLE_UNIT() SI_UNIT($,.RADIAN.) );
#964 = ( NAMED_UNIT(*) SI_UNIT($,.STERADIAN.) SOLID_ANGLE_UNIT() );
#965 = UNCERTAINTY_MEASURE_WITH_UNIT(LENGTH_MEASURE(1.E-07),#962,
  'distance_accuracy_value','confusion accuracy');
#966 = CONTEXT_DEPENDENT_SHAPE_REPRESENTATION(#967,#969);
#967 = ( REPRESENTATION_RELATIONSHIP('','',#630,#10) 
REPRESENTATION_RELATIONSHIP_WITH_TRANSFORMATION(#968) 
SHAPE_REPRESENTATION_RELATIONSHIP() );
#968 = ITEM_DEFINED_TRANSFORMATION('','',#11,#51);
#969 = PRODUCT_DEFINITION_SHAPE('Placement','Placement of an item',#970
  );
#970 = NEXT_ASSEMBLY_USAGE_OCCURRENCE('152','part9','',#5,#625,$);
#971 = PRODUCT_RELATED_PRODUCT_CATEGORY('part',$,(#627));
#972 = SHAPE_DEFINITION_REPRESENTATION(#973,#979);
#973 = PRODUCT_DEFINITION_SHAPE('','',#974);
#974 = PRODUCT_DEFINITION('design','',#975,#978);
#975 = PRODUCT_DEFINITION_FORMATION('','',#976);
#976 = PRODUCT('part10','part10','',(#977));
#977 = PRODUCT_CONTEXT('',#2,'mechanical');
#978 = PRODUCT_DEFINITION_CONTEXT('part definition',#2,'design');
#979 = ADVANCED_BREP_SHAPE_REPRESENTATION('',(#11,#980),#1310);
#980 = MANIFOLD_SOLID_BREP('',#981);
#981 = CLOSED_SHELL('',(#982,#1102,#1202,#1249,#1296,#1303));
#982 = ADVANCED_FACE('',(#983),#997,.F.);
#983 = FACE_BOUND('',#984,.F.);
#984 = EDGE_LOOP('',(#985,#1020,#1048,#1076));
#985 = ORIENTED_EDGE('',*,*,#986,.F.);
#986 = EDGE_CURVE('',#987,#989,#991,.T.);
#987 = VERTEX_POINT('',#988);
#988 = CARTESIAN_POINT('',(-4.E+03,800.,840.));
#989 = VERTEX_POINT('',#990);
#990 = CARTESIAN_POINT('',(-4.E+03,800.,960.));
#991 = SURFACE_CURVE('',#992,(#996,#1008),.PCURVE_S1.);
#992 = LINE('',#993,#994);
#993 = CARTESIAN_POINT('',(-4.E+03,800.,840.));
#994 = VECTOR('',#995,1.);
#995 = DIRECTION('',(0.,0.,1.));
#996 = PCURVE('',#997,#1002);
#997 = PLANE('',#998);
#998 = AXIS2_PLACEMENT_3D('',#999,#1000,#1001);
#999 = CARTESIAN_POINT('',(-4.E+03,800.,840.));
#1000 = DIRECTION('',(1.,0.,0.));
#1001 = DIRECTION('',(0.,0.,1.));
#1002 = DEFINITIONAL_REPRESENTATION('',(#1003),#1007);
#1003 = LINE('',#1004,#1005);
#1004 = CARTESIAN_POINT('',(0.,0.));
#1005 = VECTOR('',#1006,1.);
#1006 = DIRECTION('',(1.,0.));
#1007 = ( GEOMETRIC_REPRESENTATION_CONTEXT(2) 
PARAMETRIC_REPRESENTATION_CONTEXT() REPRESENTATION_CONTEXT('2D SPACE',''
  ) );
#1008 = PCURVE('',#1009,#1014);
#1009 = PLANE('',#1010);
#1010 = AXIS2_PLACEMENT_3D('',#1011,#1012,#1013);
#1011 = CARTESIAN_POINT('',(-4.E+03,800.,840.));
#1012 = DIRECTION('',(0.,1.,0.));
#1013 = DIRECTION('',(0.,0.,1.));
#1014 = DEFINITIONAL_REPRESENTATION('',(#1015),#1019);
#1015 = LINE('',#1016,#1017);
#1016 = CARTESIAN_POINT('',(0.,0.));
#1017 = VECTOR('',#1018,1.);
#1018 = DIRECTION('',(1.,0.));
#1019 = ( GEOMETRIC_REPRESENTATION_CONTEXT(2) 
PARAMETRIC_REPRESENTATION_CONTEXT() REPRESENTATION_CONTEXT('2D SPACE',''
  ) );
#1020 = ORIENTED_EDGE('',*,*,#1021,.T.);
#1021 = EDGE_CURVE('',#987,#1022,#1024,.T.);
#1022 = VERTEX_POINT('',#1023);
#1023 = CARTESIAN_POINT('',(-4.E+03,2.E+03,840.));
#1024 = SURFACE_CURVE('',#1025,(#1029,#1036),.PCURVE_S1.);
#1025 = LINE('',#1026,#1027);
#1026 = CARTESIAN_POINT('',(-4.E+03,800.,840.));
#1027 = VECTOR('',#1028,1.);
#1028 = DIRECTION('',(0.,1.,0.));
#1029 = PCURVE('',#997,#1030);
#1030 = DEFINITIONAL_REPRESENTATION('',(#1031),#1035);
#1031 = LINE('',#1032,#1033);
#1032 = CARTESIAN_POINT('',(0.,0.));
#1033 = VECTOR('',#1034,1.);
#1034 = DIRECTION('',(0.,-1.));
#1035 = ( GEOMETRIC_REPRESENTATION_CONTEXT(2) 
PARAMETRIC_REPRESENTATION_CONTEXT() REPRESENTATION_CONTEXT('2D SPACE',''
  ) );
#1036 = PCURVE('',#1037,#1042);
#1037 = PLANE('',#1038);
#1038 = AXIS2_PLACEMENT_3D('',#1039,#1040,#1041);
#1039 = CARTESIAN_POINT('',(-4.E+03,800.,840.));
#1040 = DIRECTION('',(0.,0.,1.));
#1041 = DIRECTION('',(1.,0.,0.));
#1042 = DEFINITIONAL_REPRESENTATION('',(#1043),#1047);
#1043 = LINE('',#1044,#1045);
#1044 = CARTESIAN_POINT('',(0.,0.));
#1045 = VECTOR('',#1046,1.);
#1046 = DIRECTION('',(0.,1.));
#1047 = ( GEOMETRIC_REPRESENTATION_CONTEXT(2) 
PARAMETRIC_REPRESENTATION_CONTEXT() REPRESENTATION_CONTEXT('2D SPACE',''
  ) );
#1048 = ORIENTED_EDGE('',*,*,#1049,.T.);
#1049 = EDGE_CURVE('',#1022,#1050,#1052,.T.);
#1050 = VERTEX_POINT('',#1051);
#1051 = CARTESIAN_POINT('',(-4.E+03,2.E+03,960.));
#1052 = SURFACE_CURVE('',#1053,(#1057,#1064),.PCURVE_S1.);
#1053 = LINE('',#1054,#1055);
#1054 = CARTESIAN_POINT('',(-4.E+03,2.E+03,840.));
#1055 = VECTOR('',#1056,1.);
#1056 = DIRECTION('',(0.,0.,1.));
#1057 = PCURVE('',#997,#1058);
#1058 = DEFINITIONAL_REPRESENTATION('',(#1059),#1063);
#1059 = LINE('',#1060,#1061);
#1060 = CARTESIAN_POINT('',(0.,-1.2E+03));
#1061 = VECTOR('',#1062,1.);
#1062 = DIRECTION('',(1.,0.));
#1063 = ( GEOMETRIC_REPRESENTATION_CONTEXT(2) 
PARAMETRIC_REPRESENTATION_CONTEXT() REPRESENTATION_CONTEXT('2D SPACE',''
  ) );
#1064 = PCURVE('',#1065,#1070);
#1065 = PLANE('',#1066);
#1066 = AXIS2_PLACEMENT_3D('',#1067,#1068,#1069);
#1067 = CARTESIAN_POINT('',(-4.E+03,2.E+03,840.));
#1068 = DIRECTION('',(0.,1.,0.));
#1069 = DIRECTION('',(0.,0.,1.));
#1070 = DEFINITIONAL_REPRESENTATION('',(#1071),#1075);
#1071 = LINE('',#1072,#1073);
#1072 = CARTESIAN_POINT('',(0.,0.));
#1073 = VECTOR('',#1074,1.);
#1074 = DIRECTION('',(1.,0.));
#1075 = ( GEOMETRIC_REPRESENTATION_CONTEXT(2) 
PARAMETRIC_REPRESENTATION_CONTEXT() REPRESENTATION_CONTEXT('2D SPACE',''
  ) );
#1076 = ORIENTED_EDGE('',*,*,#1077,.F.);
#1077 = EDGE_CURVE('',#989,#1050,#1078,.T.);
#1078 = SURFACE_CURVE('',#1079,(#1083,#1090),.PCURVE_S1.);
#1079 = LINE('',#1080,#1081);
#1080 = CARTESIAN_POINT('',(-4.E+03,800.,960.));
#1081 = VECTOR('',#1082,1.);
#1082 = DIRECTION('',(0.,1.,0.));
#1083 = PCURVE('',#997,#1084);
#1084 = DEFINITIONAL_REPRESENTATION('',(#1085),#1089);
#1085 = LINE('',#1086,#1087);
#1086 = CARTESIAN_POINT('',(120.,0.));
#1087 = VECTOR('',#1088,1.);
#1088 = DIRECTION('',(0.,-1.));
#1089 = ( GEOMETRIC_REPRESENTATION_CONTEXT(2) 
PARAMETRIC_REPRESENTATION_CONTEXT() REPRESENTATION_CONTEXT('2D SPACE',''
  ) );
#1090 = PCURVE('',#1091,#1096);
#1091 = PLANE('',#1092);
#1092 = AXIS2_PLACEMENT_3D('',#1093,#1094,#1095);
#1093 = CARTESIAN_POINT('',(-4.E+03,800.,960.));
#1094 = DIRECTION('',(0.,0.,1.));
#1095 = DIRECTION('',(1.,0.,0.));
#1096 = DEFINITIONAL_REPRESENTATION('',(#1097),#1101);
#1097 = LINE('',#1098,#1099);
#1098 = CARTESIAN_POINT('',(0.,0.));
#1099 = VECTOR('',#1100,1.);
#1100 = DIRECTION('',(0.,1.));
#1101 = ( GEOMETRIC_REPRESENTATION_CONTEXT(2) 
PARAMETRIC_REPRESENTATION_CONTEXT() REPRESENTATION_CONTEXT('2D SPACE',''
  ) );
#1102 = ADVANCED_FACE('',(#1103),#1117,.T.);
#1103 = FACE_BOUND('',#1104,.T.);
#1104 = EDGE_LOOP('',(#1105,#1135,#1158,#1181));
#1105 = ORIENTED_EDGE('',*,*,#1106,.F.);
#1106 = EDGE_CURVE('',#1107,#1109,#1111,.T.);
#1107 = VERTEX_POINT('',#1108);
#1108 = CARTESIAN_POINT('',(4.E+03,800.,840.));
#1109 = VERTEX_POINT('',#1110);
#1110 = CARTESIAN_POINT('',(4.E+03,800.,960.));
#1111 = SURFACE_CURVE('',#1112,(#1116,#1128),.PCURVE_S1.);
#1112 = LINE('',#1113,#1114);
#1113 = CARTESIAN_POINT('',(4.E+03,800.,840.));
#1114 = VECTOR('',#1115,1.);
#1115 = DIRECTION('',(0.,0.,1.));
#1116 = PCURVE('',#1117,#1122);
#1117 = PLANE('',#1118);
#1118 = AXIS2_PLACEMENT_3D('',#1119,#1120,#1121);
#1119 = CARTESIAN_POINT('',(4.E+03,800.,840.));
#1120 = DIRECTION('',(1.,0.,0.));
#1121 = DIRECTION('',(0.,0.,1.));
#1122 = DEFINITIONAL_REPRESENTATION('',(#1123),#1127);
#1123 = LINE('',#1124,#1125);
#1124 = CARTESIAN_POINT('',(0.,0.));
#1125 = VECTOR('',#1126,1.);
#1126 = DIRECTION('',(1.,0.));
#1127 = ( GEOMETRIC_REPRESENTATION_CONTEXT(2) 
PARAMETRIC_REPRESENTATION_CONTEXT() REPRESENTATION_CONTEXT('2D SPACE',''
  ) );
#1128 = PCURVE('',#1009,#1129);
#1129 = DEFINITIONAL_REPRESENTATION('',(#1130),#1134);
#1130 = LINE('',#1131,#1132);
#1131 = CARTESIAN_POINT('',(0.,8.E+03));
#1132 = VECTOR('',#1133,1.);
#1133 = DIRECTION('',(1.,0.));
#1134 = ( GEOMETRIC_REPRESENTATION_CONTEXT(2) 
PARAMETRIC_REPRESENTATION_CONTEXT() REPRESENTATION_CONTEXT('2D SPACE',''
  ) );
#1135 = ORIENTED_EDGE('',*,*,#1136,.T.);
#1136 = EDGE_CURVE('',#1107,#1137,#1139,.T.);
#1137 = VERTEX_POINT('',#1138);
#1138 = CARTESIAN_POINT('',(4.E+03,2.E+03,840.));
#1139 = SURFACE_CURVE('',#1140,(#1144,#1151),.PCURVE_S1.);
#1140 = LINE('',#1141,#1142);
#1141 = CARTESIAN_POINT('',(4.E+03,800.,840.));
#1142 = VECTOR('',#1143,1.);
#1143 = DIRECTION('',(0.,1.,0.));
#1144 = PCURVE('',#1117,#1145);
#1145 = DEFINITIONAL_REPRESENTATION('',(#1146),#1150);
#1146 = LINE('',#1147,#1148);
#1147 = CARTESIAN_POINT('',(0.,0.));
#1148 = VECTOR('',#1149,1.);
#1149 = DIRECTION('',(0.,-1.));
#1150 = ( GEOMETRIC_REPRESENTATION_CONTEXT(2) 
PARAMETRIC_REPRESENTATION_CONTEXT() REPRESENTATION_CONTEXT('2D SPACE',''
  ) );
#1151 = PCURVE('',#1037,#1152);
#1152 = DEFINITIONAL_REPRESENTATION('',(#1153),#1157);
#1153 = LINE('',#1154,#1155);
#1154 = CARTESIAN_POINT('',(8.E+03,0.));
#1155 = VECTOR('',#1156,1.);
#1156 = DIRECTION('',(0.,1.));
#1157 = ( GEOMETRIC_REPRESENTATION_CONTEXT(2) 
PARAMETRIC_REPRESENTATION_CONTEXT() REPRESENTATION_CONTEXT('2D SPACE',''
  ) );
#1158 = ORIENTED_EDGE('',*,*,#1159,.T.);
#1159 = EDGE_CURVE('',#1137,#1160,#1162,.T.);
#1160 = VERTEX_POINT('',#1161);
#1161 = CARTESIAN_POINT('',(4.E+03,2.E+03,960.));
#1162 = SURFACE_CURVE('',#1163,(#1167,#1174),.PCURVE_S1.);
#1163 = LINE('',#1164,#1165);
#1164 = CARTESIAN_POINT('',(4.E+03,2.E+03,840.));
#1165 = VECTOR('',#1166,1.);
#1166 = DIRECTION('',(0.,0.,1.));
#1167 = PCURVE('',#1117,#1168);
#1168 = DEFINITIONAL_REPRESENTATION('',(#1169),#1173);
#1169 = LINE('',#1170,#1171);
#1170 = CARTESIAN_POINT('',(0.,-1.2E+03));
#1171 = VECTOR('',#1172,1.);
#1172 = DIRECTION('',(1.,0.));
#1173 = ( GEOMETRIC_REPRESENTATION_CONTEXT(2) 
PARAMETRIC_REPRESENTATION_CONTEXT() REPRESENTATION_CONTEXT('2D SPACE',''
  ) );
#1174 = PCURVE('',#1065,#1175);
#1175 = DEFINITIONAL_REPRESENTATION('',(#1176),#1180);
#1176 = LINE('',#1177,#1178);
#1177 = CARTESIAN_POINT('',(0.,8.E+03));
#1178 = VECTOR('',#1179,1.);
#1179 = DIRECTION('',(1.,0.));
#1180 = ( GEOMETRIC_REPRESENTATION_CONTEXT(2) 
PARAMETRIC_REPRESENTATION_CONTEXT() REPRESENTATION_CONTEXT('2D SPACE',''
  ) );
#1181 = ORIENTED_EDGE('',*,*,#1182,.F.);
#1182 = EDGE_CURVE('',#1109,#1160,#1183,.T.);
#1183 = SURFACE_CURVE('',#1184,(#1188,#1195),.PCURVE_S1.);
#1184 = LINE('',#1185,#1186);
#1185 = CARTESIAN_POINT('',(4.E+03,800.,960.));
#1186 = VECTOR('',#1187,1.);
#1187 = DIRECTION('',(0.,1.,0.));
#1188 = PCURVE('',#1117,#1189);
#1189 = DEFINITIONAL_REPRESENTATION('',(#1190),#1194);
#1190 = LINE('',#1191,#1192);
#1191 = CARTESIAN_POINT('',(120.,0.));
#1192 = VECTOR('',#1193,1.);
#1193 = DIRECTION('',(0.,-1.));
#1194 = ( GEOMETRIC_REPRESENTATION_CONTEXT(2) 
PARAMETRIC_REPRESENTATION_CONTEXT() REPRESENTATION_CONTEXT('2D SPACE',''
  ) );
#1195 = PCURVE('',#1091,#1196);
#1196 = DEFINITIONAL_REPRESENTATION('',(#1197),#1201);
#1197 = LINE('',#1198,#1199);
#1198 = CARTESIAN_POINT('',(8.E+03,0.));
#1199 = VECTOR('',#1200,1.);
#1200 = DIRECTION('',(0.,1.));
#1201 = ( GEOMETRIC_REPRESENTATION_CONTEXT(2) 
PARAMETRIC_REPRESENTATION_CONTEXT() REPRESENTATION_CONTEXT('2D SPACE',''
  ) );
#1202 = ADVANCED_FACE('',(#1203),#1009,.F.);
#1203 = FACE_BOUND('',#1204,.F.);
#1204 = EDGE_LOOP('',(#1205,#1226,#1227,#1248));
#1205 = ORIENTED_EDGE('',*,*,#1206,.F.);
#1206 = EDGE_CURVE('',#987,#1107,#1207,.T.);
#1207 = SURFACE_CURVE('',#1208,(#1212,#1219),.PCURVE_S1.);
#1208 = LINE('',#1209,#1210);
#1209 = CARTESIAN_POINT('',(-4.E+03,800.,840.));
#1210 = VECTOR('',#1211,1.);
#1211 = DIRECTION('',(1.,0.,0.));
#1212 = PCURVE('',#1009,#1213);
#1213 = DEFINITIONAL_REPRESENTATION('',(#1214),#1218);
#1214 = LINE('',#1215,#1216);
#1215 = CARTESIAN_POINT('',(0.,0.));
#1216 = VECTOR('',#1217,1.);
#1217 = DIRECTION('',(0.,1.));
#1218 = ( GEOMETRIC_REPRESENTATION_CONTEXT(2) 
PARAMETRIC_REPRESENTATION_CONTEXT() REPRESENTATION_CONTEXT('2D SPACE',''
  ) );
#1219 = PCURVE('',#1037,#1220);
#1220 = DEFINITIONAL_REPRESENTATION('',(#1221),#1225);
#1221 = LINE('',#1222,#1223);
#1222 = CARTESIAN_POINT('',(0.,0.));
#1223 = VECTOR('',#1224,1.);
#1224 = DIRECTION('',(1.,0.));
#1225 = ( GEOMETRIC_REPRESENTATION_CONTEXT(2) 
PARAMETRIC_REPRESENTATION_CONTEXT() REPRESENTATION_CONTEXT('2D SPACE',''
  ) );
#1226 = ORIENTED_EDGE('',*,*,#986,.T.);
#1227 = ORIENTED_EDGE('',*,*,#1228,.T.);
#1228 = EDGE_CURVE('',#989,#1109,#1229,.T.);
#1229 = SURFACE_CURVE('',#1230,(#1234,#1241),.PCURVE_S1.);
#1230 = LINE('',#1231,#1232);
#1231 = CARTESIAN_POINT('',(-4.E+03,800.,960.));
#1232 = VECTOR('',#1233,1.);
#1233 = DIRECTION('',(1.,0.,0.));
#1234 = PCURVE('',#1009,#1235);
#1235 = DEFINITIONAL_REPRESENTATION('',(#1236),#1240);
#1236 = LINE('',#1237,#1238);
#1237 = CARTESIAN_POINT('',(120.,0.));
#1238 = VECTOR('',#1239,1.);
#1239 = DIRECTION('',(0.,1.));
#1240 = ( GEOMETRIC_REPRESENTATION_CONTEXT(2) 
PARAMETRIC_REPRESENTATION_CONTEXT() REPRESENTATION_CONTEXT('2D SPACE',''
  ) );
#1241 = PCURVE('',#1091,#1242);
#1242 = DEFINITIONAL_REPRESENTATION('',(#1243),#1247);
#1243 = LINE('',#1244,#1245);
#1244 = CARTESIAN_POINT('',(0.,0.));
#1245 = VECTOR('',#1246,1.);
#1246 = DIRECTION('',(1.,0.));
#1247 = ( GEOMETRIC_REPRESENTATION_CONTEXT(2) 
PARAMETRIC_REPRESENTATION_CONTEXT() REPRESENTATION_CONTEXT('2D SPACE',''
  ) );
#1248 = ORIENTED_EDGE('',*,*,#1106,.F.);
#1249 = ADVANCED_FACE('',(#1250),#1065,.T.);
#1250 = FACE_BOUND('',#1251,.T.);
#1251 = EDGE_LOOP('',(#1252,#1273,#1274,#1295));
#1252 = ORIENTED_EDGE('',*,*,#1253,.F.);
#1253 = EDGE_CURVE('',#1022,#1137,#1254,.T.);
#1254 = SURFACE_CURVE('',#1255,(#1259,#1266),.PCURVE_S1.);
#1255 = LINE('',#1256,#1257);
#1256 = CARTESIAN_POINT('',(-4.E+03,2.E+03,840.));
#1257 = VECTOR('',#1258,1.);
#1258 = DIRECTION('',(1.,0.,0.));
#1259 = PCURVE('',#1065,#1260);
#1260 = DEFINITIONAL_REPRESENTATION('',(#1261),#1265);
#1261 = LINE('',#1262,#1263);
#1262 = CARTESIAN_POINT('',(0.,0.));
#1263 = VECTOR('',#1264,1.);
#1264 = DIRECTION('',(0.,1.));
#1265 = ( GEOMETRIC_REPRESENTATION_CONTEXT(2) 
PARAMETRIC_REPRESENTATION_CONTEXT() REPRESENTATION_CONTEXT('2D SPACE',''
  ) );
#1266 = PCURVE('',#1037,#1267);
#1267 = DEFINITIONAL_REPRESENTATION('',(#1268),#1272);
#1268 = LINE('',#1269,#1270);
#1269 = CARTESIAN_POINT('',(0.,1.2E+03));
#1270 = VECTOR('',#1271,1.);
#1271 = DIRECTION('',(1.,0.));
#1272 = ( GEOMETRIC_REPRESENTATION_CONTEXT(2) 
PARAMETRIC_REPRESENTATION_CONTEXT() REPRESENTATION_CONTEXT('2D SPACE',''
  ) );
#1273 = ORIENTED_EDGE('',*,*,#1049,.T.);
#1274 = ORIENTED_EDGE('',*,*,#1275,.T.);
#1275 = EDGE_CURVE('',#1050,#1160,#1276,.T.);
#1276 = SURFACE_CURVE('',#1277,(#1281,#1288),.PCURVE_S1.);
#1277 = LINE('',#1278,#1279);
#1278 = CARTESIAN_POINT('',(-4.E+03,2.E+03,960.));
#1279 = VECTOR('',#1280,1.);
#1280 = DIRECTION('',(1.,0.,0.));
#1281 = PCURVE('',#1065,#1282);
#1282 = DEFINITIONAL_REPRESENTATION('',(#1283),#1287);
#1283 = LINE('',#1284,#1285);
#1284 = CARTESIAN_POINT('',(120.,0.));
#1285 = VECTOR('',#1286,1.);
#1286 = DIRECTION('',(0.,1.));
#1287 = ( GEOMETRIC_REPRESENTATION_CONTEXT(2) 
PARAMETRIC_REPRESENTATION_CONTEXT() REPRESENTATION_CONTEXT('2D SPACE',''
  ) );
#1288 = PCURVE('',#1091,#1289);
#1289 = DEFINITIONAL_REPRESENTATION('',(#1290),#1294);
#1290 = LINE('',#1291,#1292);
#1291 = CARTESIAN_POINT('',(0.,1.2E+03));
#1292 = VECTOR('',#1293,1.);
#1293 = DIRECTION('',(1.,0.));
#1294 = ( GEOMETRIC_REPRESENTATION_CONTEXT(2) 
PARAMETRIC_REPRESENTATION_CONTEXT() REPRESENTATION_CONTEXT('2D SPACE',''
  ) );
#1295 = ORIENTED_EDGE('',*,*,#1159,.F.);
#1296 = ADVANCED_FACE('',(#1297),#1037,.F.);
#1297 = FACE_BOUND('',#1298,.F.);
#1298 = EDGE_LOOP('',(#1299,#1300,#1301,#1302));
#1299 = ORIENTED_EDGE('',*,*,#1021,.F.);
#1300 = ORIENTED_EDGE('',*,*,#1206,.T.);
#1301 = ORIENTED_EDGE('',*,*,#1136,.T.);
#1302 = ORIENTED_EDGE('',*,*,#1253,.F.);
#1303 = ADVANCED_FACE('',(#1304),#1091,.T.);
#1304 = FACE_BOUND('',#1305,.T.);
#1305 = EDGE_LOOP('',(#1306,#1307,#1308,#1309));
#1306 = ORIENTED_EDGE('',*,*,#1077,.F.);
#1307 = ORIENTED_EDGE('',*,*,#1228,.T.);
#1308 = ORIENTED_EDGE('',*,*,#1182,.T.);
#1309 = ORIENTED_EDGE('',*,*,#1275,.F.);
#1310 = ( GEOMETRIC_REPRESENTATION_CONTEXT(3) 
GLOBAL_UNCERTAINTY_ASSIGNED_CONTEXT((#1314)) 
GLOBAL_UNIT_ASSIGNED_CONTEXT((#1311,#1312,#1313)) REPRESENTATION_CONTEXT
('Context #1','3D Context with UNIT and UNCERTAINTY') );
#1311 = ( LENGTH_UNIT() NAMED_UNIT(*) SI_UNIT(.MILLI.,.METRE.) );
#1312 = ( NAMED_UNIT(*) PLANE_ANGLE_UNIT() SI_UNIT($,.RADIAN.) );
#1313 = ( NAMED_UNIT(*) SI_UNIT($,.STERADIAN.) SOLID_ANGLE_UNIT() );
#1314 = UNCERTAINTY_MEASURE_WITH_UNIT(LENGTH_MEASURE(1.E-07),#1311,
  'distance_accuracy_value','confusion accuracy');
#1315 = CONTEXT_DEPENDENT_SHAPE_REPRESENTATION(#1316,#1318);
#1316 = ( REPRESENTATION_RELATIONSHIP('','',#979,#10) 
REPRESENTATION_RELATIONSHIP_WITH_TRANSFORMATION(#1317) 
SHAPE_REPRESENTATION_RELATIONSHIP() );
#1317 = ITEM_DEFINED_TRANSFORMATION('','',#11,#55);
#1318 = PRODUCT_DEFINITION_SHAPE('Placement','Placement of an item',
  #1319);
#1319 = NEXT_ASSEMBLY_USAGE_OCCURRENCE('153','part10','',#5,#974,$);
#1320 = PRODUCT_RELATED_PRODUCT_CATEGORY('part',$,(#976));
#1321 = MECHANICAL_DESIGN_GEOMETRIC_PRESENTATION_REPRESENTATION('',(
    #1322),#240);
#1322 = STYLED_ITEM('color',(#1323),#197);
#1323 = PRESENTATION_STYLE_ASSIGNMENT((#1324));
#1324 = SURFACE_STYLE_USAGE(.BOTH.,#1325);
#1325 = SURFACE_SIDE_STYLE('',(#1326));
#1326 = SURFACE_STYLE_FILL_AREA(#1327);
#1327 = FILL_AREA_STYLE('',(#1328));
#1328 = FILL_AREA_STYLE_COLOUR('',#1329);
#1329 = COLOUR_RGB('',0.494117641438,0.478431380801,0.447058818107);
#1330 = MECHANICAL_DESIGN_GEOMETRIC_PRESENTATION_REPRESENTATION('',(
    #1331),#426);
#1331 = STYLED_ITEM('color',(#1332),#383);
#1332 = PRESENTATION_STYLE_ASSIGNMENT((#1333));
#1333 = SURFACE_STYLE_USAGE(.BOTH.,#1334);
#1334 = SURFACE_SIDE_STYLE('',(#1335));
#1335 = SURFACE_STYLE_FILL_AREA(#1336);
#1336 = FILL_AREA_STYLE('',(#1337));
#1337 = FILL_AREA_STYLE_COLOUR('',#1329);
#1338 = MECHANICAL_DESIGN_GEOMETRIC_PRESENTATION_REPRESENTATION('',(
    #1339),#550);
#1339 = STYLED_ITEM('color',(#1340),#507);
#1340 = PRESENTATION_STYLE_ASSIGNMENT((#1341));
#1341 = SURFACE_STYLE_USAGE(.BOTH.,#1342);
#1342 = SURFACE_SIDE_STYLE('',(#1343));
#1343 = SURFACE_STYLE_FILL_AREA(#1344);
#1344 = FILL_AREA_STYLE('',(#1345));
#1345 = FILL_AREA_STYLE_COLOUR('',#1329);
#1346 = MECHANICAL_DESIGN_GEOMETRIC_PRESENTATION_REPRESENTATION('',(
    #1347),#364);
#1347 = STYLED_ITEM('color',(#1348),#321);
#1348 = PRESENTATION_STYLE_ASSIGNMENT((#1349));
#1349 = SURFACE_STYLE_USAGE(.BOTH.,#1350);
#1350 = SURFACE_SIDE_STYLE('',(#1351));
#1351 = SURFACE_STYLE_FILL_AREA(#1352);
#1352 = FILL_AREA_STYLE('',(#1353));
#1353 = FILL_AREA_STYLE_COLOUR('',#1329);
#1354 = MECHANICAL_DESIGN_GEOMETRIC_PRESENTATION_REPRESENTATION('',(
    #1355),#116);
#1355 = STYLED_ITEM('color',(#1356),#73);
#1356 = PRESENTATION_STYLE_ASSIGNMENT((#1357));
#1357 = SURFACE_STYLE_USAGE(.BOTH.,#1358);
#1358 = SURFACE_SIDE_STYLE('',(#1359));
#1359 = SURFACE_STYLE_FILL_AREA(#1360);
#1360 = FILL_AREA_STYLE('',(#1361));
#1361 = FILL_AREA_STYLE_COLOUR('',#1329);
#1362 = MECHANICAL_DESIGN_GEOMETRIC_PRESENTATION_REPRESENTATION('',(
    #1363),#178);
#1363 = STYLED_ITEM('color',(#1364),#135);
#1364 = PRESENTATION_STYLE_ASSIGNMENT((#1365));
#1365 = SURFACE_STYLE_USAGE(.BOTH.,#1366);
#1366 = SURFACE_SIDE_STYLE('',(#1367));
#1367 = SURFACE_STYLE_FILL_AREA(#1368);
#1368 = FILL_AREA_STYLE('',(#1369));
#1369 = FILL_AREA_STYLE_COLOUR('',#1329);
#1370 = MECHANICAL_DESIGN_GEOMETRIC_PRESENTATION_REPRESENTATION('',(
    #1371),#612);
#1371 = STYLED_ITEM('color',(#1372),#569);
#1372 = PRESENTATION_STYLE_ASSIGNMENT((#1373));
#1373 = SURFACE_STYLE_USAGE(.BOTH.,#1374);
#1374 = SURFACE_SIDE_STYLE('',(#1375));
#1375 = SURFACE_STYLE_FILL_AREA(#1376);
#1376 = FILL_AREA_STYLE('',(#1377));
#1377 = FILL_AREA_STYLE_COLOUR('',#1329);
#1378 = MECHANICAL_DESIGN_GEOMETRIC_PRESENTATION_REPRESENTATION('',(
    #1379),#488);
#1379 = STYLED_ITEM('color',(#1380),#445);
#1380 = PRESENTATION_STYLE_ASSIGNMENT((#1381));
#1381 = SURFACE_STYLE_USAGE(.BOTH.,#1382);
#1382 = SURFACE_SIDE_STYLE('',(#1383));
#1383 = SURFACE_STYLE_FILL_AREA(#1384);
#1384 = FILL_AREA_STYLE('',(#1385));
#1385 = FILL_AREA_STYLE_COLOUR('',#1329);
#1386 = MECHANICAL_DESIGN_GEOMETRIC_PRESENTATION_REPRESENTATION('',(
    #1387),#302);
#1387 = STYLED_ITEM('color',(#1388),#259);
#1388 = PRESENTATION_STYLE_ASSIGNMENT((#1389));
#1389 = SURFACE_STYLE_USAGE(.BOTH.,#1390);
#1390 = SURFACE_SIDE_STYLE('',(#1391));
#1391 = SURFACE_STYLE_FILL_AREA(#1392);
#1392 = FILL_AREA_STYLE('',(#1393));
#1393 = FILL_AREA_STYLE_COLOUR('',#1329);
#1394 = MECHANICAL_DESIGN_GEOMETRIC_PRESENTATION_REPRESENTATION('',(
    #1395),#961);
#1395 = STYLED_ITEM('color',(#1396),#631);
#1396 = PRESENTATION_STYLE_ASSIGNMENT((#1397));
#1397 = SURFACE_STYLE_USAGE(.BOTH.,#1398);
#1398 = SURFACE_SIDE_STYLE('',(#1399));
#1399 = SURFACE_STYLE_FILL_AREA(#1400);
#1400 = FILL_AREA_STYLE('',(#1401));
#1401 = FILL_AREA_STYLE_COLOUR('',#1402);
#1402 = COLOUR_RGB('',0.243137258719,0.290196072577,0.196078429142);
#1403 = MECHANICAL_DESIGN_GEOMETRIC_PRESENTATION_REPRESENTATION('',(
    #1404),#1310);
#1404 = STYLED_ITEM('color',(#1405),#980);
#1405 = PRESENTATION_STYLE_ASSIGNMENT((#1406));
#1406 = SURFACE_STYLE_USAGE(.BOTH.,#1407);
#1407 = SURFACE_SIDE_STYLE('',(#1408));
#1408 = SURFACE_STYLE_FILL_AREA(#1409);
#1409 = FILL_AREA_STYLE('',(#1410));
#1410 = FILL_AREA_STYLE_COLOUR('',#1411);
#1411 = COLOUR_RGB('',0.721568617591,0.705882360366,0.619607835287);
ENDSEC;
END-ISO-10303-21;
