ISO-10303-21;
HEADER;
FILE_DESCRIPTION(('Open CASCADE Model'),'2;1');
FILE_NAME('Open CASCADE Shape Model','2026-09-14T11:05:20',('Author'),(
    'Open CASCADE'),'Open CASCADE STEP processor 7.9','Open CASCADE 7.9'
  ,'Unknown');
FILE_SCHEMA(('AUTOMOTIVE_DESIGN { 1 0 10303 214 1 1 1 1 }'));
ENDSEC;
DATA;
#1 = APPLICATION_PROTOCOL_DEFINITION('international standard',
  'automotive_design',2000,#2);
#2 = APPLICATION_CONTEXT(
  'core data for automotive mechanical design processes');
#3 = SHAPE_DEFINITION_REPRESENTATION(#4,#10);
#4 = PRODUCT_DEFINITION_SHAPE('','',#5);
#5 = PRODUCT_DEFINITION('design','',#6,#9);
#6 = PRODUCT_DEFINITION_FORMATION('','',#7);
#7 = PRODUCT('cb4624ea-b023-11f1-a308-3c9c0f4bdafb',
  'cb4624ea-b023-11f1-a308-3c9c0f4bdafb','',(#8));
#8 = PRODUCT_CONTEXT('',#2,'mechanical');
#9 = PRODUCT_DEFINITION_CONTEXT('part definition',#2,'design');
#10 = SHAPE_REPRESENTATION('',(#11,#15,#19,#23,#27,#31,#35,#39,#43,#47,
    #51),#55);
#11 = AXIS2_PLACEMENT_3D('',#12,#13,#14);
#12 = CARTESIAN_POINT('',(0.,0.,0.));
#13 = DIRECTION('',(0.,0.,1.));
#14 = DIRECTION('',(1.,0.,-0.));
#15 = AXIS2_PLACEMENT_3D('',#16,#17,#18);
#16 = CARTESIAN_POINT('',(0.,0.,0.));
#17 = DIRECTION('',(0.,0.,1.));
#18 = DIRECTION('',(1.,0.,-0.));
#19 = AXIS2_PLACEMENT_3D('',#20,#21,#22);
#20 = CARTESIAN_POINT('',(0.,0.,0.));
#21 = DIRECTION('',(0.,0.,1.));
#22 = DIRECTION('',(1.,0.,-0.));
#23 = AXIS2_PLACEMENT_3D('',#24,#25,#26);
#24 = CARTESIAN_POINT('',(0.,0.,0.));
#25 = DIRECTION('',(0.,0.,1.));
#26 = DIRECTION('',(1.,0.,-0.));
#27 = AXIS2_PLACEMENT_3D('',#28,#29,#30);
#28 = CARTESIAN_POINT('',(0.,0.,0.));
#29 = DIRECTION('',(0.,0.,1.));
#30 = DIRECTION('',(1.,0.,-0.));
#31 = AXIS2_PLACEMENT_3D('',#32,#33,#34);
#32 = CARTESIAN_POINT('',(0.,0.,0.));
#33 = DIRECTION('',(0.,0.,1.));
#34 = DIRECTION('',(1.,0.,-0.));
#35 = AXIS2_PLACEMENT_3D('',#36,#37,#38);
#36 = CARTESIAN_POINT('',(0.,0.,0.));
#37 = DIRECTION('',(0.,0.,1.));
#38 = DIRECTION('',(1.,0.,-0.));
#39 = AXIS2_PLACEMENT_3D('',#40,#41,#42);
#40 = CARTESIAN_POINT('',(0.,0.,0.));
#41 = DIRECTION('',(0.,0.,1.));
#42 = DIRECTION('',(1.,0.,-0.));
#43 = AXIS2_PLACEMENT_3D('',#44,#45,#46);
#44 = CARTESIAN_POINT('',(0.,0.,0.));
#45 = DIRECTION('',(0.,0.,1.));
#46 = DIRECTION('',(1.,0.,-0.));
#47 = AXIS2_PLACEMENT_3D('',#48,#49,#50);
#48 = CARTESIAN_POINT('',(0.,0.,0.));
#49 = DIRECTION('',(0.,0.,1.));
#50 = DIRECTION('',(1.,0.,-0.));
#51 = AXIS2_PLACEMENT_3D('',#52,#53,#54);
#52 = CARTESIAN_POINT('',(0.,0.,0.));
#53 = DIRECTION('',(0.,0.,1.));
#54 = DIRECTION('',(1.,0.,-0.));
#55 = ( GEOMETRIC_REPRESENTATION_CONTEXT(3) 
GLOBAL_UNCERTAINTY_ASSIGNED_CONTEXT((#59)) GLOBAL_UNIT_ASSIGNED_CONTEXT(
(#56,#57,#58)) REPRESENTATION_CONTEXT('Context #1',
  '3D Context with UNIT and UNCERTAINTY') );
#56 = ( LENGTH_UNIT() NAMED_UNIT(*) SI_UNIT(.MILLI.,.METRE.) );
#57 = ( NAMED_UNIT(*) PLANE_ANGLE_UNIT() SI_UNIT($,.RADIAN.) );
#58 = ( NAMED_UNIT(*) SI_UNIT($,.STERADIAN.) SOLID_ANGLE_UNIT() );
#59 = UNCERTAINTY_MEASURE_WITH_UNIT(LENGTH_MEASURE(1.E-07),#56,
  'distance_accuracy_value','confusion accuracy');
#60 = PRODUCT_RELATED_PRODUCT_CATEGORY('part',$,(#7));
#61 = SHAPE_DEFINITION_REPRESENTATION(#62,#68);
#62 = PRODUCT_DEFINITION_SHAPE('','',#63);
#63 = PRODUCT_DEFINITION('design','',#64,#67);
#64 = PRODUCT_DEFINITION_FORMATION('','',#65);
#65 = PRODUCT('part0','part0','',(#66));
#66 = PRODUCT_CONTEXT('',#2,'mechanical');
#67 = PRODUCT_DEFINITION_CONTEXT('part definition',#2,'design');
#68 = ADVANCED_BREP_SHAPE_REPRESENTATION('',(#11,#69),#112);
#69 = MANIFOLD_SOLID_BREP('',#70);
#70 = CLOSED_SHELL('',(#71));
#71 = ADVANCED_FACE('',(#72),#76,.T.);
#72 = FACE_BOUND('',#73,.T.);
#73 = VERTEX_LOOP('',#74);
#74 = VERTEX_POINT('',#75);
#75 = CARTESIAN_POINT('',(-3.414052268214E+04,-1.550404555679E+04,
    -3.974958459257E+03));
#76 = ( BOUNDED_SURFACE() B_SPLINE_SURFACE(2,2,(
    (#77,#78,#79,#80,#81)
    ,(#82,#83,#84,#85,#86)
    ,(#87,#88,#89,#90,#91)
    ,(#92,#93,#94,#95,#96)
    ,(#97,#98,#99,#100,#101)
    ,(#102,#103,#104,#105,#106)
    ,(#107,#108,#109,#110,#111
)),.UNSPECIFIED.,.T.,.F.,.F.) B_SPLINE_SURFACE_WITH_KNOTS((1,2,2,2,2,1),
  (3,2,3),(-2.094395102393,0.,2.094395102393,4.188790204786,
    6.28318530718,8.377580409573),(-1.570796326795,0.,1.570796326795),
.UNSPECIFIED.) GEOMETRIC_REPRESENTATION_ITEM() RATIONAL_B_SPLINE_SURFACE
((
    (1.,0.707106781187,1.,0.707106781187,1.)
    ,(0.5,0.353553390593,0.5,0.353553390593,0.5)
    ,(1.,0.707106781187,1.,0.707106781187,1.)
    ,(0.5,0.353553390593,0.5,0.353553390593,0.5)
    ,(1.,0.707106781187,1.,0.707106781187,1.)
    ,(0.5,0.353553390593,0.5,0.353553390593,0.5)
,(1.,0.707106781187,1.,0.707106781187,1.
))) REPRESENTATION_ITEM('') SURFACE() );
#77 = CARTESIAN_POINT('',(-3.414052268214E+04,-1.550404555679E+04,
    -3.974958459257E+03));
#78 = CARTESIAN_POINT('',(-2.278349851284E+04,-1.550404555679E+04,
    -3.974958459257E+03));
#79 = CARTESIAN_POINT('',(-2.278349851284E+04,-1.550404555679E+04,
    4.542809667722E+03));
#80 = CARTESIAN_POINT('',(-2.278349851284E+04,-1.550404555679E+04,
    1.30605777947E+04));
#81 = CARTESIAN_POINT('',(-3.414052268214E+04,-1.550404555679E+04,
    1.30605777947E+04));
#82 = CARTESIAN_POINT('',(-3.414052268214E+04,-1.550404555679E+04,
    -3.974958459257E+03));
#83 = CARTESIAN_POINT('',(-2.278349851284E+04,4.166897327232E+03,
    -3.974958459257E+03));
#84 = CARTESIAN_POINT('',(-2.278349851284E+04,4.166897327232E+03,
    4.542809667722E+03));
#85 = CARTESIAN_POINT('',(-2.278349851284E+04,4.166897327232E+03,
    1.30605777947E+04));
#86 = CARTESIAN_POINT('',(-3.414052268214E+04,-1.550404555679E+04,
    1.30605777947E+04));
#87 = CARTESIAN_POINT('',(-3.414052268214E+04,-1.550404555679E+04,
    -3.974958459257E+03));
#88 = CARTESIAN_POINT('',(-3.981903476679E+04,-5.668574114779E+03,
    -3.974958459257E+03));
#89 = CARTESIAN_POINT('',(-3.981903476679E+04,-5.668574114779E+03,
    4.542809667722E+03));
#90 = CARTESIAN_POINT('',(-3.981903476679E+04,-5.668574114779E+03,
    1.30605777947E+04));
#91 = CARTESIAN_POINT('',(-3.414052268214E+04,-1.550404555679E+04,
    1.30605777947E+04));
#92 = CARTESIAN_POINT('',(-3.414052268214E+04,-1.550404555679E+04,
    -3.974958459257E+03));
#93 = CARTESIAN_POINT('',(-5.685457102075E+04,-1.550404555679E+04,
    -3.974958459257E+03));
#94 = CARTESIAN_POINT('',(-5.685457102075E+04,-1.550404555679E+04,
    4.542809667722E+03));
#95 = CARTESIAN_POINT('',(-5.685457102075E+04,-1.550404555679E+04,
    1.30605777947E+04));
#96 = CARTESIAN_POINT('',(-3.414052268214E+04,-1.550404555679E+04,
    1.30605777947E+04));
#97 = CARTESIAN_POINT('',(-3.414052268214E+04,-1.550404555679E+04,
    -3.974958459257E+03));
#98 = CARTESIAN_POINT('',(-3.981903476679E+04,-2.53395169988E+04,
    -3.974958459257E+03));
#99 = CARTESIAN_POINT('',(-3.981903476679E+04,-2.53395169988E+04,
    4.542809667722E+03));
#100 = CARTESIAN_POINT('',(-3.981903476679E+04,-2.53395169988E+04,
    1.30605777947E+04));
#101 = CARTESIAN_POINT('',(-3.414052268214E+04,-1.550404555679E+04,
    1.30605777947E+04));
#102 = CARTESIAN_POINT('',(-3.414052268214E+04,-1.550404555679E+04,
    -3.974958459257E+03));
#103 = CARTESIAN_POINT('',(-2.278349851284E+04,-3.517498844081E+04,
    -3.974958459257E+03));
#104 = CARTESIAN_POINT('',(-2.278349851284E+04,-3.517498844081E+04,
    4.542809667722E+03));
#105 = CARTESIAN_POINT('',(-2.278349851284E+04,-3.517498844081E+04,
    1.30605777947E+04));
#106 = CARTESIAN_POINT('',(-3.414052268214E+04,-1.550404555679E+04,
    1.30605777947E+04));
#107 = CARTESIAN_POINT('',(-3.414052268214E+04,-1.550404555679E+04,
    -3.974958459257E+03));
#108 = CARTESIAN_POINT('',(-2.278349851284E+04,-1.550404555679E+04,
    -3.974958459257E+03));
#109 = CARTESIAN_POINT('',(-2.278349851284E+04,-1.550404555679E+04,
    4.542809667722E+03));
#110 = CARTESIAN_POINT('',(-2.278349851284E+04,-1.550404555679E+04,
    1.30605777947E+04));
#111 = CARTESIAN_POINT('',(-3.414052268214E+04,-1.550404555679E+04,
    1.30605777947E+04));
#112 = ( GEOMETRIC_REPRESENTATION_CONTEXT(3) 
GLOBAL_UNCERTAINTY_ASSIGNED_CONTEXT((#116)) GLOBAL_UNIT_ASSIGNED_CONTEXT
((#113,#114,#115)) REPRESENTATION_CONTEXT('Context #1',
  '3D Context with UNIT and UNCERTAINTY') );
#113 = ( LENGTH_UNIT() NAMED_UNIT(*) SI_UNIT(.MILLI.,.METRE.) );
#114 = ( NAMED_UNIT(*) PLANE_ANGLE_UNIT() SI_UNIT($,.RADIAN.) );
#115 = ( NAMED_UNIT(*) SI_UNIT($,.STERADIAN.) SOLID_ANGLE_UNIT() );
#116 = UNCERTAINTY_MEASURE_WITH_UNIT(LENGTH_MEASURE(1.E-07),#113,
  'distance_accuracy_value','confusion accuracy');
#117 = CONTEXT_DEPENDENT_SHAPE_REPRESENTATION(#118,#120);
#118 = ( REPRESENTATION_RELATIONSHIP('','',#68,#10) 
REPRESENTATION_RELATIONSHIP_WITH_TRANSFORMATION(#119) 
SHAPE_REPRESENTATION_RELATIONSHIP() );
#119 = ITEM_DEFINED_TRANSFORMATION('','',#11,#15);
#120 = PRODUCT_DEFINITION_SHAPE('Placement','Placement of an item',#121
  );
#121 = NEXT_ASSEMBLY_USAGE_OCCURRENCE('185','part0','',#5,#63,$);
#122 = PRODUCT_RELATED_PRODUCT_CATEGORY('part',$,(#65));
#123 = SHAPE_DEFINITION_REPRESENTATION(#124,#130);
#124 = PRODUCT_DEFINITION_SHAPE('','',#125);
#125 = PRODUCT_DEFINITION('design','',#126,#129);
#126 = PRODUCT_DEFINITION_FORMATION('','',#127);
#127 = PRODUCT('part1','part1','',(#128));
#128 = PRODUCT_CONTEXT('',#2,'mechanical');
#129 = PRODUCT_DEFINITION_CONTEXT('part definition',#2,'design');
#130 = ADVANCED_BREP_SHAPE_REPRESENTATION('',(#11,#131),#174);
#131 = MANIFOLD_SOLID_BREP('',#132);
#132 = CLOSED_SHELL('',(#133));
#133 = ADVANCED_FACE('',(#134),#138,.T.);
#134 = FACE_BOUND('',#135,.T.);
#135 = VERTEX_LOOP('',#136);
#136 = VERTEX_POINT('',#137);
#137 = CARTESIAN_POINT('',(1.287049914173E+04,-1.445236267141E+04,
    -3.386131482005E+03));
#138 = ( BOUNDED_SURFACE() B_SPLINE_SURFACE(2,2,(
    (#139,#140,#141,#142,#143)
    ,(#144,#145,#146,#147,#148)
    ,(#149,#150,#151,#152,#153)
    ,(#154,#155,#156,#157,#158)
    ,(#159,#160,#161,#162,#163)
    ,(#164,#165,#166,#167,#168)
    ,(#169,#170,#171,#172,#173
)),.UNSPECIFIED.,.T.,.F.,.F.) B_SPLINE_SURFACE_WITH_KNOTS((1,2,2,2,2,1),
  (3,2,3),(-2.094395102393,0.,2.094395102393,4.188790204786,
    6.28318530718,8.377580409573),(-1.570796326795,0.,1.570796326795),
.UNSPECIFIED.) GEOMETRIC_REPRESENTATION_ITEM() RATIONAL_B_SPLINE_SURFACE
((
    (1.,0.707106781187,1.,0.707106781187,1.)
    ,(0.5,0.353553390593,0.5,0.353553390593,0.5)
    ,(1.,0.707106781187,1.,0.707106781187,1.)
    ,(0.5,0.353553390593,0.5,0.353553390593,0.5)
    ,(1.,0.707106781187,1.,0.707106781187,1.)
    ,(0.5,0.353553390593,0.5,0.353553390593,0.5)
,(1.,0.707106781187,1.,0.707106781187,1.
))) REPRESENTATION_ITEM('') SURFACE() );
#139 = CARTESIAN_POINT('',(1.287049914173E+04,-1.445236267141E+04,
    -3.386131482005E+03));
#140 = CARTESIAN_POINT('',(2.254516051889E+04,-1.445236267141E+04,
    -3.386131482005E+03));
#141 = CARTESIAN_POINT('',(2.254516051889E+04,-1.445236267141E+04,
    3.869864550863E+03));
#142 = CARTESIAN_POINT('',(2.254516051889E+04,-1.445236267141E+04,
    1.112586058373E+04));
#143 = CARTESIAN_POINT('',(1.287049914173E+04,-1.445236267141E+04,
    1.112586058373E+04));
#144 = CARTESIAN_POINT('',(1.287049914173E+04,-1.445236267141E+04,
    -3.386131482005E+03));
#145 = CARTESIAN_POINT('',(2.254516051889E+04,2.304642379844E+03,
    -3.386131482005E+03));
#146 = CARTESIAN_POINT('',(2.254516051889E+04,2.304642379844E+03,
    3.869864550863E+03));
#147 = CARTESIAN_POINT('',(2.254516051889E+04,2.304642379844E+03,
    1.112586058373E+04));
#148 = CARTESIAN_POINT('',(1.287049914173E+04,-1.445236267141E+04,
    1.112586058373E+04));
#149 = CARTESIAN_POINT('',(1.287049914173E+04,-1.445236267141E+04,
    -3.386131482005E+03));
#150 = CARTESIAN_POINT('',(8.033168453151E+03,-6.073860145785E+03,
    -3.386131482005E+03));
#151 = CARTESIAN_POINT('',(8.033168453151E+03,-6.073860145785E+03,
    3.869864550863E+03));
#152 = CARTESIAN_POINT('',(8.033168453151E+03,-6.073860145785E+03,
    1.112586058373E+04));
#153 = CARTESIAN_POINT('',(1.287049914173E+04,-1.445236267141E+04,
    1.112586058373E+04));
#154 = CARTESIAN_POINT('',(1.287049914173E+04,-1.445236267141E+04,
    -3.386131482005E+03));
#155 = CARTESIAN_POINT('',(-6.478823612584E+03,-1.445236267141E+04,
    -3.386131482005E+03));
#156 = CARTESIAN_POINT('',(-6.478823612584E+03,-1.445236267141E+04,
    3.869864550863E+03));
#157 = CARTESIAN_POINT('',(-6.478823612584E+03,-1.445236267141E+04,
    1.112586058373E+04));
#158 = CARTESIAN_POINT('',(1.287049914173E+04,-1.445236267141E+04,
    1.112586058373E+04));
#159 = CARTESIAN_POINT('',(1.287049914173E+04,-1.445236267141E+04,
    -3.386131482005E+03));
#160 = CARTESIAN_POINT('',(8.033168453151E+03,-2.283086519704E+04,
    -3.386131482005E+03));
#161 = CARTESIAN_POINT('',(8.033168453151E+03,-2.283086519704E+04,
    3.869864550863E+03));
#162 = CARTESIAN_POINT('',(8.033168453151E+03,-2.283086519704E+04,
    1.112586058373E+04));
#163 = CARTESIAN_POINT('',(1.287049914173E+04,-1.445236267141E+04,
    1.112586058373E+04));
#164 = CARTESIAN_POINT('',(1.287049914173E+04,-1.445236267141E+04,
    -3.386131482005E+03));
#165 = CARTESIAN_POINT('',(2.254516051888E+04,-3.120936772267E+04,
    -3.386131482005E+03));
#166 = CARTESIAN_POINT('',(2.254516051888E+04,-3.120936772267E+04,
    3.869864550863E+03));
#167 = CARTESIAN_POINT('',(2.254516051888E+04,-3.120936772267E+04,
    1.112586058373E+04));
#168 = CARTESIAN_POINT('',(1.287049914173E+04,-1.445236267141E+04,
    1.112586058373E+04));
#169 = CARTESIAN_POINT('',(1.287049914173E+04,-1.445236267141E+04,
    -3.386131482005E+03));
#170 = CARTESIAN_POINT('',(2.254516051889E+04,-1.445236267141E+04,
    -3.386131482005E+03));
#171 = CARTESIAN_POINT('',(2.254516051889E+04,-1.445236267141E+04,
    3.869864550863E+03));
#172 = CARTESIAN_POINT('',(2.254516051889E+04,-1.445236267141E+04,
    1.112586058373E+04));
#173 = CARTESIAN_POINT('',(1.287049914173E+04,-1.445236267141E+04,
    1.112586058373E+04));
#174 = ( GEOMETRIC_REPRESENTATION_CONTEXT(3) 
GLOBAL_UNCERTAINTY_ASSIGNED_CONTEXT((#178)) GLOBAL_UNIT_ASSIGNED_CONTEXT
((#175,#176,#177)) REPRESENTATION_CONTEXT('Context #1',
  '3D Context with UNIT and UNCERTAINTY') );
#175 = ( LENGTH_UNIT() NAMED_UNIT(*) SI_UNIT(.MILLI.,.METRE.) );
#176 = ( NAMED_UNIT(*) PLANE_ANGLE_UNIT() SI_UNIT($,.RADIAN.) );
#177 = ( NAMED_UNIT(*) SI_UNIT($,.STERADIAN.) SOLID_ANGLE_UNIT() );
#178 = UNCERTAINTY_MEASURE_WITH_UNIT(LENGTH_MEASURE(1.E-07),#175,
  'distance_accuracy_value','confusion accuracy');
#179 = CONTEXT_DEPENDENT_SHAPE_REPRESENTATION(#180,#182);
#180 = ( REPRESENTATION_RELATIONSHIP('','',#130,#10) 
REPRESENTATION_RELATIONSHIP_WITH_TRANSFORMATION(#181) 
SHAPE_REPRESENTATION_RELATIONSHIP() );
#181 = ITEM_DEFINED_TRANSFORMATION('','',#11,#19);
#182 = PRODUCT_DEFINITION_SHAPE('Placement','Placement of an item',#183
  );
#183 = NEXT_ASSEMBLY_USAGE_OCCURRENCE('186','part1','',#5,#125,$);
#184 = PRODUCT_RELATED_PRODUCT_CATEGORY('part',$,(#127));
#185 = SHAPE_DEFINITION_REPRESENTATION(#186,#192);
#186 = PRODUCT_DEFINITION_SHAPE('','',#187);
#187 = PRODUCT_DEFINITION('design','',#188,#191);
#188 = PRODUCT_DEFINITION_FORMATION('','',#189);
#189 = PRODUCT('part2','part2','',(#190));
#190 = PRODUCT_CONTEXT('',#2,'mechanical');
#191 = PRODUCT_DEFINITION_CONTEXT('part definition',#2,'design');
#192 = ADVANCED_BREP_SHAPE_REPRESENTATION('',(#11,#193),#236);
#193 = MANIFOLD_SOLID_BREP('',#194);
#194 = CLOSED_SHELL('',(#195));
#195 = ADVANCED_FACE('',(#196),#200,.T.);
#196 = FACE_BOUND('',#197,.T.);
#197 = VERTEX_LOOP('',#198);
#198 = VERTEX_POINT('',#199);
#199 = CARTESIAN_POINT('',(-1.877383500482E+04,1.03036994158E+04,
    -3.459542564017E+03));
#200 = ( BOUNDED_SURFACE() B_SPLINE_SURFACE(2,2,(
    (#201,#202,#203,#204,#205)
    ,(#206,#207,#208,#209,#210)
    ,(#211,#212,#213,#214,#215)
    ,(#216,#217,#218,#219,#220)
    ,(#221,#222,#223,#224,#225)
    ,(#226,#227,#228,#229,#230)
    ,(#231,#232,#233,#234,#235
)),.UNSPECIFIED.,.T.,.F.,.F.) B_SPLINE_SURFACE_WITH_KNOTS((1,2,2,2,2,1),
  (3,2,3),(-2.094395102393,0.,2.094395102393,4.188790204786,
    6.28318530718,8.377580409573),(-1.570796326795,0.,1.570796326795),
.UNSPECIFIED.) GEOMETRIC_REPRESENTATION_ITEM() RATIONAL_B_SPLINE_SURFACE
((
    (1.,0.707106781187,1.,0.707106781187,1.)
    ,(0.5,0.353553390593,0.5,0.353553390593,0.5)
    ,(1.,0.707106781187,1.,0.707106781187,1.)
    ,(0.5,0.353553390593,0.5,0.353553390593,0.5)
    ,(1.,0.707106781187,1.,0.707106781187,1.)
    ,(0.5,0.353553390593,0.5,0.353553390593,0.5)
,(1.,0.707106781187,1.,0.707106781187,1.
))) REPRESENTATION_ITEM('') SURFACE() );
#201 = CARTESIAN_POINT('',(-1.877383500482E+04,1.03036994158E+04,
    -3.459542564017E+03));
#202 = CARTESIAN_POINT('',(-8.889427679062E+03,1.03036994158E+04,
    -3.459542564017E+03));
#203 = CARTESIAN_POINT('',(-8.889427679062E+03,1.03036994158E+04,
    3.953762930305E+03));
#204 = CARTESIAN_POINT('',(-8.889427679062E+03,1.03036994158E+04,
    1.136706842463E+04));
#205 = CARTESIAN_POINT('',(-1.877383500482E+04,1.03036994158E+04,
    1.136706842463E+04));
#206 = CARTESIAN_POINT('',(-1.877383500482E+04,1.03036994158E+04,
    -3.459542564017E+03));
#207 = CARTESIAN_POINT('',(-8.889427679062E+03,2.742399510673E+04,
    -3.459542564017E+03));
#208 = CARTESIAN_POINT('',(-8.889427679062E+03,2.742399510673E+04,
    3.953762930305E+03));
#209 = CARTESIAN_POINT('',(-8.889427679062E+03,2.742399510673E+04,
    1.136706842463E+04));
#210 = CARTESIAN_POINT('',(-1.877383500482E+04,1.03036994158E+04,
    1.136706842463E+04));
#211 = CARTESIAN_POINT('',(-1.877383500482E+04,1.03036994158E+04,
    -3.459542564017E+03));
#212 = CARTESIAN_POINT('',(-2.37160386677E+04,1.886384726126E+04,
    -3.459542564017E+03));
#213 = CARTESIAN_POINT('',(-2.37160386677E+04,1.886384726126E+04,
    3.953762930305E+03));
#214 = CARTESIAN_POINT('',(-2.37160386677E+04,1.886384726126E+04,
    1.136706842463E+04));
#215 = CARTESIAN_POINT('',(-1.877383500482E+04,1.03036994158E+04,
    1.136706842463E+04));
#216 = CARTESIAN_POINT('',(-1.877383500482E+04,1.03036994158E+04,
    -3.459542564017E+03));
#217 = CARTESIAN_POINT('',(-3.854264965635E+04,1.03036994158E+04,
    -3.459542564017E+03));
#218 = CARTESIAN_POINT('',(-3.854264965635E+04,1.03036994158E+04,
    3.953762930305E+03));
#219 = CARTESIAN_POINT('',(-3.854264965635E+04,1.03036994158E+04,
    1.136706842463E+04));
#220 = CARTESIAN_POINT('',(-1.877383500482E+04,1.03036994158E+04,
    1.136706842463E+04));
#221 = CARTESIAN_POINT('',(-1.877383500482E+04,1.03036994158E+04,
    -3.459542564017E+03));
#222 = CARTESIAN_POINT('',(-2.37160386677E+04,1.743551570338E+03,
    -3.459542564017E+03));
#223 = CARTESIAN_POINT('',(-2.37160386677E+04,1.743551570338E+03,
    3.953762930305E+03));
#224 = CARTESIAN_POINT('',(-2.37160386677E+04,1.743551570338E+03,
    1.136706842463E+04));
#225 = CARTESIAN_POINT('',(-1.877383500482E+04,1.03036994158E+04,
    1.136706842463E+04));
#226 = CARTESIAN_POINT('',(-1.877383500482E+04,1.03036994158E+04,
    -3.459542564017E+03));
#227 = CARTESIAN_POINT('',(-8.889427679062E+03,-6.816596275125E+03,
    -3.459542564017E+03));
#228 = CARTESIAN_POINT('',(-8.889427679062E+03,-6.816596275125E+03,
    3.953762930305E+03));
#229 = CARTESIAN_POINT('',(-8.889427679062E+03,-6.816596275125E+03,
    1.136706842463E+04));
#230 = CARTESIAN_POINT('',(-1.877383500482E+04,1.03036994158E+04,
    1.136706842463E+04));
#231 = CARTESIAN_POINT('',(-1.877383500482E+04,1.03036994158E+04,
    -3.459542564017E+03));
#232 = CARTESIAN_POINT('',(-8.889427679062E+03,1.03036994158E+04,
    -3.459542564017E+03));
#233 = CARTESIAN_POINT('',(-8.889427679062E+03,1.03036994158E+04,
    3.953762930305E+03));
#234 = CARTESIAN_POINT('',(-8.889427679062E+03,1.03036994158E+04,
    1.136706842463E+04));
#235 = CARTESIAN_POINT('',(-1.877383500482E+04,1.03036994158E+04,
    1.136706842463E+04));
#236 = ( GEOMETRIC_REPRESENTATION_CONTEXT(3) 
GLOBAL_UNCERTAINTY_ASSIGNED_CONTEXT((#240)) GLOBAL_UNIT_ASSIGNED_CONTEXT
((#237,#238,#239)) REPRESENTATION_CONTEXT('Context #1',
  '3D Context with UNIT and UNCERTAINTY') );
#237 = ( LENGTH_UNIT() NAMED_UNIT(*) SI_UNIT(.MILLI.,.METRE.) );
#238 = ( NAMED_UNIT(*) PLANE_ANGLE_UNIT() SI_UNIT($,.RADIAN.) );
#239 = ( NAMED_UNIT(*) SI_UNIT($,.STERADIAN.) SOLID_ANGLE_UNIT() );
#240 = UNCERTAINTY_MEASURE_WITH_UNIT(LENGTH_MEASURE(1.E-07),#237,
  'distance_accuracy_value','confusion accuracy');
#241 = CONTEXT_DEPENDENT_SHAPE_REPRESENTATION(#242,#244);
#242 = ( REPRESENTATION_RELATIONSHIP('','',#192,#10) 
REPRESENTATION_RELATIONSHIP_WITH_TRANSFORMATION(#243) 
SHAPE_REPRESENTATION_RELATIONSHIP() );
#243 = ITEM_DEFINED_TRANSFORMATION('','',#11,#23);
#244 = PRODUCT_DEFINITION_SHAPE('Placement','Placement of an item',#245
  );
#245 = NEXT_ASSEMBLY_USAGE_OCCURRENCE('187','part2','',#5,#187,$);
#246 = PRODUCT_RELATED_PRODUCT_CATEGORY('part',$,(#189));
#247 = SHAPE_DEFINITION_REPRESENTATION(#248,#254);
#248 = PRODUCT_DEFINITION_SHAPE('','',#249);
#249 = PRODUCT_DEFINITION('design','',#250,#253);
#250 = PRODUCT_DEFINITION_FORMATION('','',#251);
#251 = PRODUCT('part3','part3','',(#252));
#252 = PRODUCT_CONTEXT('',#2,'mechanical');
#253 = PRODUCT_DEFINITION_CONTEXT('part definition',#2,'design');
#254 = ADVANCED_BREP_SHAPE_REPRESENTATION('',(#11,#255),#298);
#255 = MANIFOLD_SOLID_BREP('',#256);
#256 = CLOSED_SHELL('',(#257));
#257 = ADVANCED_FACE('',(#258),#262,.T.);
#258 = FACE_BOUND('',#259,.T.);
#259 = VERTEX_LOOP('',#260);
#260 = VERTEX_POINT('',#261);
#261 = CARTESIAN_POINT('',(1.68458639258E+04,6.486666220611E+03,
    -3.436814901124E+03));
#262 = ( BOUNDED_SURFACE() B_SPLINE_SURFACE(2,2,(
    (#263,#264,#265,#266,#267)
    ,(#268,#269,#270,#271,#272)
    ,(#273,#274,#275,#276,#277)
    ,(#278,#279,#280,#281,#282)
    ,(#283,#284,#285,#286,#287)
    ,(#288,#289,#290,#291,#292)
    ,(#293,#294,#295,#296,#297
)),.UNSPECIFIED.,.T.,.F.,.F.) B_SPLINE_SURFACE_WITH_KNOTS((1,2,2,2,2,1),
  (3,2,3),(-2.094395102393,0.,2.094395102393,4.188790204786,
    6.28318530718,8.377580409573),(-1.570796326795,0.,1.570796326795),
.UNSPECIFIED.) GEOMETRIC_REPRESENTATION_ITEM() RATIONAL_B_SPLINE_SURFACE
((
    (1.,0.707106781187,1.,0.707106781187,1.)
    ,(0.5,0.353553390593,0.5,0.353553390593,0.5)
    ,(1.,0.707106781187,1.,0.707106781187,1.)
    ,(0.5,0.353553390593,0.5,0.353553390593,0.5)
    ,(1.,0.707106781187,1.,0.707106781187,1.)
    ,(0.5,0.353553390593,0.5,0.353553390593,0.5)
,(1.,0.707106781187,1.,0.707106781187,1.
))) REPRESENTATION_ITEM('') SURFACE() );
#263 = CARTESIAN_POINT('',(1.68458639258E+04,6.486666220611E+03,
    -3.436814901124E+03));
#264 = CARTESIAN_POINT('',(2.666533507187E+04,6.486666220611E+03,
    -3.436814901124E+03));
#265 = CARTESIAN_POINT('',(2.666533507187E+04,6.486666220611E+03,
    3.927788458428E+03));
#266 = CARTESIAN_POINT('',(2.666533507187E+04,6.486666220611E+03,
    1.129239181798E+04));
#267 = CARTESIAN_POINT('',(1.68458639258E+04,6.486666220611E+03,
    1.129239181798E+04));
#268 = CARTESIAN_POINT('',(1.68458639258E+04,6.486666220611E+03,
    -3.436814901124E+03));
#269 = CARTESIAN_POINT('',(2.666533507187E+04,2.349448914906E+04,
    -3.436814901124E+03));
#270 = CARTESIAN_POINT('',(2.666533507187E+04,2.349448914906E+04,
    3.927788458428E+03));
#271 = CARTESIAN_POINT('',(2.666533507187E+04,2.349448914906E+04,
    1.129239181798E+04));
#272 = CARTESIAN_POINT('',(1.68458639258E+04,6.486666220611E+03,
    1.129239181798E+04));
#273 = CARTESIAN_POINT('',(1.68458639258E+04,6.486666220611E+03,
    -3.436814901124E+03));
#274 = CARTESIAN_POINT('',(1.193612835277E+04,1.499057768484E+04,
    -3.436814901124E+03));
#275 = CARTESIAN_POINT('',(1.193612835277E+04,1.499057768484E+04,
    3.927788458428E+03));
#276 = CARTESIAN_POINT('',(1.193612835277E+04,1.499057768484E+04,
    1.129239181798E+04));
#277 = CARTESIAN_POINT('',(1.68458639258E+04,6.486666220611E+03,
    1.129239181798E+04));
#278 = CARTESIAN_POINT('',(1.68458639258E+04,6.486666220611E+03,
    -3.436814901124E+03));
#279 = CARTESIAN_POINT('',(-2.793078366339E+03,6.486666220611E+03,
    -3.436814901124E+03));
#280 = CARTESIAN_POINT('',(-2.793078366339E+03,6.486666220611E+03,
    3.927788458428E+03));
#281 = CARTESIAN_POINT('',(-2.793078366339E+03,6.486666220611E+03,
    1.129239181798E+04));
#282 = CARTESIAN_POINT('',(1.68458639258E+04,6.486666220611E+03,
    1.129239181798E+04));
#283 = CARTESIAN_POINT('',(1.68458639258E+04,6.486666220611E+03,
    -3.436814901124E+03));
#284 = CARTESIAN_POINT('',(1.193612835277E+04,-2.017245243614E+03,
    -3.436814901124E+03));
#285 = CARTESIAN_POINT('',(1.193612835277E+04,-2.017245243614E+03,
    3.927788458428E+03));
#286 = CARTESIAN_POINT('',(1.193612835277E+04,-2.017245243614E+03,
    1.129239181798E+04));
#287 = CARTESIAN_POINT('',(1.68458639258E+04,6.486666220611E+03,
    1.129239181798E+04));
#288 = CARTESIAN_POINT('',(1.68458639258E+04,6.486666220611E+03,
    -3.436814901124E+03));
#289 = CARTESIAN_POINT('',(2.666533507187E+04,-1.052115670784E+04,
    -3.436814901124E+03));
#290 = CARTESIAN_POINT('',(2.666533507187E+04,-1.052115670784E+04,
    3.927788458428E+03));
#291 = CARTESIAN_POINT('',(2.666533507187E+04,-1.052115670784E+04,
    1.129239181798E+04));
#292 = CARTESIAN_POINT('',(1.68458639258E+04,6.486666220611E+03,
    1.129239181798E+04));
#293 = CARTESIAN_POINT('',(1.68458639258E+04,6.486666220611E+03,
    -3.436814901124E+03));
#294 = CARTESIAN_POINT('',(2.666533507187E+04,6.486666220611E+03,
    -3.436814901124E+03));
#295 = CARTESIAN_POINT('',(2.666533507187E+04,6.486666220611E+03,
    3.927788458428E+03));
#296 = CARTESIAN_POINT('',(2.666533507187E+04,6.486666220611E+03,
    1.129239181798E+04));
#297 = CARTESIAN_POINT('',(1.68458639258E+04,6.486666220611E+03,
    1.129239181798E+04));
#298 = ( GEOMETRIC_REPRESENTATION_CONTEXT(3) 
GLOBAL_UNCERTAINTY_ASSIGNED_CONTEXT((#302)) GLOBAL_UNIT_ASSIGNED_CONTEXT
((#299,#300,#301)) REPRESENTATION_CONTEXT('Context #1',
  '3D Context with UNIT and UNCERTAINTY') );
#299 = ( LENGTH_UNIT() NAMED_UNIT(*) SI_UNIT(.MILLI.,.METRE.) );
#300 = ( NAMED_UNIT(*) PLANE_ANGLE_UNIT() SI_UNIT($,.RADIAN.) );
#301 = ( NAMED_UNIT(*) SI_UNIT($,.STERADIAN.) SOLID_ANGLE_UNIT() );
#302 = UNCERTAINTY_MEASURE_WITH_UNIT(LENGTH_MEASURE(1.E-07),#299,
  'distance_accuracy_value','confusion accuracy');
#303 = CONTEXT_DEPENDENT_SHAPE_REPRESENTATION(#304,#306);
#304 = ( REPRESENTATION_RELATIONSHIP('','',#254,#10) 
REPRESENTATION_RELATIONSHIP_WITH_TRANSFORMATION(#305) 
SHAPE_REPRESENTATION_RELATIONSHIP() );
#305 = ITEM_DEFINED_TRANSFORMATION('','',#11,#27);
#306 = PRODUCT_DEFINITION_SHAPE('Placement','Placement of an item',#307
  );
#307 = NEXT_ASSEMBLY_USAGE_OCCURRENCE('188','part3','',#5,#249,$);
#308 = PRODUCT_RELATED_PRODUCT_CATEGORY('part',$,(#251));
#309 = SHAPE_DEFINITION_REPRESENTATION(#310,#316);
#310 = PRODUCT_DEFINITION_SHAPE('','',#311);
#311 = PRODUCT_DEFINITION('design','',#312,#315);
#312 = PRODUCT_DEFINITION_FORMATION('','',#313);
#313 = PRODUCT('part4','part4','',(#314));
#314 = PRODUCT_CONTEXT('',#2,'mechanical');
#315 = PRODUCT_DEFINITION_CONTEXT('part definition',#2,'design');
#316 = ADVANCED_BREP_SHAPE_REPRESENTATION('',(#11,#317),#360);
#317 = MANIFOLD_SOLID_BREP('',#318);
#318 = CLOSED_SHELL('',(#319));
#319 = ADVANCED_FACE('',(#320),#324,.T.);
#320 = FACE_BOUND('',#321,.T.);
#321 = VERTEX_LOOP('',#322);
#322 = VERTEX_POINT('',#323);
#323 = CARTESIAN_POINT('',(2.496322328345E+03,-2.089962802509E+03,
    -4.016397174674E+03));
#324 = ( BOUNDED_SURFACE() B_SPLINE_SURFACE(2,2,(
    (#325,#326,#327,#328,#329)
    ,(#330,#331,#332,#333,#334)
    ,(#335,#336,#337,#338,#339)
    ,(#340,#341,#342,#343,#344)
    ,(#345,#346,#347,#348,#349)
    ,(#350,#351,#352,#353,#354)
    ,(#355,#356,#357,#358,#359
)),.UNSPECIFIED.,.T.,.F.,.F.) B_SPLINE_SURFACE_WITH_KNOTS((1,2,2,2,2,1),
  (3,2,3),(-2.094395102393,0.,2.094395102393,4.188790204786,
    6.28318530718,8.377580409573),(-1.570796326795,0.,1.570796326795),
.UNSPECIFIED.) GEOMETRIC_REPRESENTATION_ITEM() RATIONAL_B_SPLINE_SURFACE
((
    (1.,0.707106781187,1.,0.707106781187,1.)
    ,(0.5,0.353553390593,0.5,0.353553390593,0.5)
    ,(1.,0.707106781187,1.,0.707106781187,1.)
    ,(0.5,0.353553390593,0.5,0.353553390593,0.5)
    ,(1.,0.707106781187,1.,0.707106781187,1.)
    ,(0.5,0.353553390593,0.5,0.353553390593,0.5)
,(1.,0.707106781187,1.,0.707106781187,1.
))) REPRESENTATION_ITEM('') SURFACE() );
#325 = CARTESIAN_POINT('',(2.496322328345E+03,-2.089962802509E+03,
    -4.016397174674E+03));
#326 = CARTESIAN_POINT('',(1.397174282741E+04,-2.089962802509E+03,
    -4.016397174674E+03));
#327 = CARTESIAN_POINT('',(1.397174282741E+04,-2.089962802509E+03,
    4.590168199627E+03));
#328 = CARTESIAN_POINT('',(1.397174282741E+04,-2.089962802509E+03,
    1.319673357393E+04));
#329 = CARTESIAN_POINT('',(2.496322328345E+03,-2.089962802509E+03,
    1.319673357393E+04));
#330 = CARTESIAN_POINT('',(2.496322328345E+03,-2.089962802509E+03,
    -4.016397174674E+03));
#331 = CARTESIAN_POINT('',(1.397174282741E+04,1.77860485401E+04,
    -4.016397174674E+03));
#332 = CARTESIAN_POINT('',(1.397174282741E+04,1.77860485401E+04,
    4.590168199627E+03));
#333 = CARTESIAN_POINT('',(1.397174282741E+04,1.77860485401E+04,
    1.319673357393E+04));
#334 = CARTESIAN_POINT('',(2.496322328345E+03,-2.089962802509E+03,
    1.319673357393E+04));
#335 = CARTESIAN_POINT('',(2.496322328345E+03,-2.089962802509E+03,
    -4.016397174674E+03));
#336 = CARTESIAN_POINT('',(-3.241387921189E+03,7.848042868793E+03,
    -4.016397174674E+03));
#337 = CARTESIAN_POINT('',(-3.241387921189E+03,7.848042868793E+03,
    4.590168199627E+03));
#338 = CARTESIAN_POINT('',(-3.241387921189E+03,7.848042868793E+03,
    1.319673357393E+04));
#339 = CARTESIAN_POINT('',(2.496322328345E+03,-2.089962802509E+03,
    1.319673357393E+04));
#340 = CARTESIAN_POINT('',(2.496322328345E+03,-2.089962802509E+03,
    -4.016397174674E+03));
#341 = CARTESIAN_POINT('',(-2.045451866979E+04,-2.089962802509E+03,
    -4.016397174674E+03));
#342 = CARTESIAN_POINT('',(-2.045451866979E+04,-2.089962802509E+03,
    4.590168199627E+03));
#343 = CARTESIAN_POINT('',(-2.045451866979E+04,-2.089962802509E+03,
    1.319673357393E+04));
#344 = CARTESIAN_POINT('',(2.496322328345E+03,-2.089962802509E+03,
    1.319673357393E+04));
#345 = CARTESIAN_POINT('',(2.496322328345E+03,-2.089962802509E+03,
    -4.016397174674E+03));
#346 = CARTESIAN_POINT('',(-3.241387921189E+03,-1.202796847381E+04,
    -4.016397174674E+03));
#347 = CARTESIAN_POINT('',(-3.241387921189E+03,-1.202796847381E+04,
    4.590168199627E+03));
#348 = CARTESIAN_POINT('',(-3.241387921189E+03,-1.202796847381E+04,
    1.319673357393E+04));
#349 = CARTESIAN_POINT('',(2.496322328345E+03,-2.089962802509E+03,
    1.319673357393E+04));
#350 = CARTESIAN_POINT('',(2.496322328345E+03,-2.089962802509E+03,
    -4.016397174674E+03));
#351 = CARTESIAN_POINT('',(1.397174282741E+04,-2.196597414511E+04,
    -4.016397174674E+03));
#352 = CARTESIAN_POINT('',(1.397174282741E+04,-2.196597414511E+04,
    4.590168199627E+03));
#353 = CARTESIAN_POINT('',(1.397174282741E+04,-2.196597414511E+04,
    1.319673357393E+04));
#354 = CARTESIAN_POINT('',(2.496322328345E+03,-2.089962802509E+03,
    1.319673357393E+04));
#355 = CARTESIAN_POINT('',(2.496322328345E+03,-2.089962802509E+03,
    -4.016397174674E+03));
#356 = CARTESIAN_POINT('',(1.397174282741E+04,-2.089962802509E+03,
    -4.016397174674E+03));
#357 = CARTESIAN_POINT('',(1.397174282741E+04,-2.089962802509E+03,
    4.590168199627E+03));
#358 = CARTESIAN_POINT('',(1.397174282741E+04,-2.089962802509E+03,
    1.319673357393E+04));
#359 = CARTESIAN_POINT('',(2.496322328345E+03,-2.089962802509E+03,
    1.319673357393E+04));
#360 = ( GEOMETRIC_REPRESENTATION_CONTEXT(3) 
GLOBAL_UNCERTAINTY_ASSIGNED_CONTEXT((#364)) GLOBAL_UNIT_ASSIGNED_CONTEXT
((#361,#362,#363)) REPRESENTATION_CONTEXT('Context #1',
  '3D Context with UNIT and UNCERTAINTY') );
#361 = ( LENGTH_UNIT() NAMED_UNIT(*) SI_UNIT(.MILLI.,.METRE.) );
#362 = ( NAMED_UNIT(*) PLANE_ANGLE_UNIT() SI_UNIT($,.RADIAN.) );
#363 = ( NAMED_UNIT(*) SI_UNIT($,.STERADIAN.) SOLID_ANGLE_UNIT() );
#364 = UNCERTAINTY_MEASURE_WITH_UNIT(LENGTH_MEASURE(1.E-07),#361,
  'distance_accuracy_value','confusion accuracy');
#365 = CONTEXT_DEPENDENT_SHAPE_REPRESENTATION(#366,#368);
#366 = ( REPRESENTATION_RELATIONSHIP('','',#316,#10) 
REPRESENTATION_RELATIONSHIP_WITH_TRANSFORMATION(#367) 
SHAPE_REPRESENTATION_RELATIONSHIP() );
#367 = ITEM_DEFINED_TRANSFORMATION('','',#11,#31);
#368 = PRODUCT_DEFINITION_SHAPE('Placement','Placement of an item',#369
  );
#369 = NEXT_ASSEMBLY_USAGE_OCCURRENCE('189','part4','',#5,#311,$);
#370 = PRODUCT_RELATED_PRODUCT_CATEGORY('part',$,(#313));
#371 = SHAPE_DEFINITION_REPRESENTATION(#372,#378);
#372 = PRODUCT_DEFINITION_SHAPE('','',#373);
#373 = PRODUCT_DEFINITION('design','',#374,#377);
#374 = PRODUCT_DEFINITION_FORMATION('','',#375);
#375 = PRODUCT('part5','part5','',(#376));
#376 = PRODUCT_CONTEXT('',#2,'mechanical');
#377 = PRODUCT_DEFINITION_CONTEXT('part definition',#2,'design');
#378 = ADVANCED_BREP_SHAPE_REPRESENTATION('',(#11,#379),#422);
#379 = MANIFOLD_SOLID_BREP('',#380);
#380 = CLOSED_SHELL('',(#381));
#381 = ADVANCED_FACE('',(#382),#386,.T.);
#382 = FACE_BOUND('',#383,.T.);
#383 = VERTEX_LOOP('',#384);
#384 = VERTEX_POINT('',#385);
#385 = CARTESIAN_POINT('',(3.474405841169E+04,-1.627554442938E+04,
    -3.192769562584E+03));
#386 = ( BOUNDED_SURFACE() B_SPLINE_SURFACE(2,2,(
    (#387,#388,#389,#390,#391)
    ,(#392,#393,#394,#395,#396)
    ,(#397,#398,#399,#400,#401)
    ,(#402,#403,#404,#405,#406)
    ,(#407,#408,#409,#410,#411)
    ,(#412,#413,#414,#415,#416)
    ,(#417,#418,#419,#420,#421
)),.UNSPECIFIED.,.T.,.F.,.F.) B_SPLINE_SURFACE_WITH_KNOTS((1,2,2,2,2,1),
  (3,2,3),(-2.094395102393,0.,2.094395102393,4.188790204786,
    6.28318530718,8.377580409573),(-1.570796326795,0.,1.570796326795),
.UNSPECIFIED.) GEOMETRIC_REPRESENTATION_ITEM() RATIONAL_B_SPLINE_SURFACE
((
    (1.,0.707106781187,1.,0.707106781187,1.)
    ,(0.5,0.353553390593,0.5,0.353553390593,0.5)
    ,(1.,0.707106781187,1.,0.707106781187,1.)
    ,(0.5,0.353553390593,0.5,0.353553390593,0.5)
    ,(1.,0.707106781187,1.,0.707106781187,1.)
    ,(0.5,0.353553390593,0.5,0.353553390593,0.5)
,(1.,0.707106781187,1.,0.707106781187,1.
))) REPRESENTATION_ITEM('') SURFACE() );
#387 = CARTESIAN_POINT('',(3.474405841169E+04,-1.627554442938E+04,
    -3.192769562584E+03));
#388 = CARTESIAN_POINT('',(4.386625716192E+04,-1.627554442938E+04,
    -3.192769562584E+03));
#389 = CARTESIAN_POINT('',(4.386625716192E+04,-1.627554442938E+04,
    3.648879500096E+03));
#390 = CARTESIAN_POINT('',(4.386625716192E+04,-1.627554442938E+04,
    1.049052856277E+04));
#391 = CARTESIAN_POINT('',(3.474405841169E+04,-1.627554442938E+04,
    1.049052856277E+04));
#392 = CARTESIAN_POINT('',(3.474405841169E+04,-1.627554442938E+04,
    -3.192769562584E+03));
#393 = CARTESIAN_POINT('',(4.386625716192E+04,-475.4327172223,
    -3.192769562584E+03));
#394 = CARTESIAN_POINT('',(4.386625716192E+04,-475.4327172223,
    3.648879500096E+03));
#395 = CARTESIAN_POINT('',(4.386625716192E+04,-475.4327172223,
    1.049052856277E+04));
#396 = CARTESIAN_POINT('',(3.474405841169E+04,-1.627554442938E+04,
    1.049052856277E+04));
#397 = CARTESIAN_POINT('',(3.474405841169E+04,-1.627554442938E+04,
    -3.192769562584E+03));
#398 = CARTESIAN_POINT('',(3.018295903657E+04,-8.3754885733E+03,
    -3.192769562584E+03));
#399 = CARTESIAN_POINT('',(3.018295903657E+04,-8.3754885733E+03,
    3.648879500096E+03));
#400 = CARTESIAN_POINT('',(3.018295903657E+04,-8.3754885733E+03,
    1.049052856277E+04));
#401 = CARTESIAN_POINT('',(3.474405841169E+04,-1.627554442938E+04,
    1.049052856277E+04));
#402 = CARTESIAN_POINT('',(3.474405841169E+04,-1.627554442938E+04,
    -3.192769562584E+03));
#403 = CARTESIAN_POINT('',(1.649966091121E+04,-1.627554442938E+04,
    -3.192769562584E+03));
#404 = CARTESIAN_POINT('',(1.649966091121E+04,-1.627554442938E+04,
    3.648879500096E+03));
#405 = CARTESIAN_POINT('',(1.649966091121E+04,-1.627554442938E+04,
    1.049052856277E+04));
#406 = CARTESIAN_POINT('',(3.474405841169E+04,-1.627554442938E+04,
    1.049052856277E+04));
#407 = CARTESIAN_POINT('',(3.474405841169E+04,-1.627554442938E+04,
    -3.192769562584E+03));
#408 = CARTESIAN_POINT('',(3.018295903657E+04,-2.417560028545E+04,
    -3.192769562584E+03));
#409 = CARTESIAN_POINT('',(3.018295903657E+04,-2.417560028545E+04,
    3.648879500096E+03));
#410 = CARTESIAN_POINT('',(3.018295903657E+04,-2.417560028545E+04,
    1.049052856277E+04));
#411 = CARTESIAN_POINT('',(3.474405841169E+04,-1.627554442938E+04,
    1.049052856277E+04));
#412 = CARTESIAN_POINT('',(3.474405841169E+04,-1.627554442938E+04,
    -3.192769562584E+03));
#413 = CARTESIAN_POINT('',(4.386625716192E+04,-3.207565614153E+04,
    -3.192769562584E+03));
#414 = CARTESIAN_POINT('',(4.386625716192E+04,-3.207565614153E+04,
    3.648879500096E+03));
#415 = CARTESIAN_POINT('',(4.386625716192E+04,-3.207565614153E+04,
    1.049052856277E+04));
#416 = CARTESIAN_POINT('',(3.474405841169E+04,-1.627554442938E+04,
    1.049052856277E+04));
#417 = CARTESIAN_POINT('',(3.474405841169E+04,-1.627554442938E+04,
    -3.192769562584E+03));
#418 = CARTESIAN_POINT('',(4.386625716192E+04,-1.627554442938E+04,
    -3.192769562584E+03));
#419 = CARTESIAN_POINT('',(4.386625716192E+04,-1.627554442938E+04,
    3.648879500096E+03));
#420 = CARTESIAN_POINT('',(4.386625716192E+04,-1.627554442938E+04,
    1.049052856277E+04));
#421 = CARTESIAN_POINT('',(3.474405841169E+04,-1.627554442938E+04,
    1.049052856277E+04));
#422 = ( GEOMETRIC_REPRESENTATION_CONTEXT(3) 
GLOBAL_UNCERTAINTY_ASSIGNED_CONTEXT((#426)) GLOBAL_UNIT_ASSIGNED_CONTEXT
((#423,#424,#425)) REPRESENTATION_CONTEXT('Context #1',
  '3D Context with UNIT and UNCERTAINTY') );
#423 = ( LENGTH_UNIT() NAMED_UNIT(*) SI_UNIT(.MILLI.,.METRE.) );
#424 = ( NAMED_UNIT(*) PLANE_ANGLE_UNIT() SI_UNIT($,.RADIAN.) );
#425 = ( NAMED_UNIT(*) SI_UNIT($,.STERADIAN.) SOLID_ANGLE_UNIT() );
#426 = UNCERTAINTY_MEASURE_WITH_UNIT(LENGTH_MEASURE(1.E-07),#423,
  'distance_accuracy_value','confusion accuracy');
#427 = CONTEXT_DEPENDENT_SHAPE_REPRESENTATION(#428,#430);
#428 = ( REPRESENTATION_RELATIONSHIP('','',#378,#10) 
REPRESENTATION_RELATIONSHIP_WITH_TRANSFORMATION(#429) 
SHAPE_REPRESENTATION_RELATIONSHIP() );
#429 = ITEM_DEFINED_TRANSFORMATION('','',#11,#35);
#430 = PRODUCT_DEFINITION_SHAPE('Placement','Placement of an item',#431
  );
#431 = NEXT_ASSEMBLY_USAGE_OCCURRENCE('190','part5','',#5,#373,$);
#432 = PRODUCT_RELATED_PRODUCT_CATEGORY('part',$,(#375));
#433 = SHAPE_DEFINITION_REPRESENTATION(#434,#440);
#434 = PRODUCT_DEFINITION_SHAPE('','',#435);
#435 = PRODUCT_DEFINITION('design','',#436,#439);
#436 = PRODUCT_DEFINITION_FORMATION('','',#437);
#437 = PRODUCT('part6','part6','',(#438));
#438 = PRODUCT_CONTEXT('',#2,'mechanical');
#439 = PRODUCT_DEFINITION_CONTEXT('part definition',#2,'design');
#440 = ADVANCED_BREP_SHAPE_REPRESENTATION('',(#11,#441),#484);
#441 = MANIFOLD_SOLID_BREP('',#442);
#442 = CLOSED_SHELL('',(#443));
#443 = ADVANCED_FACE('',(#444),#448,.T.);
#444 = FACE_BOUND('',#445,.T.);
#445 = VERTEX_LOOP('',#446);
#446 = VERTEX_POINT('',#447);
#447 = CARTESIAN_POINT('',(3.078613409502E+04,-3.882167535563E+03,
    -3.566845027599E+03));
#448 = ( BOUNDED_SURFACE() B_SPLINE_SURFACE(2,2,(
    (#449,#450,#451,#452,#453)
    ,(#454,#455,#456,#457,#458)
    ,(#459,#460,#461,#462,#463)
    ,(#464,#465,#466,#467,#468)
    ,(#469,#470,#471,#472,#473)
    ,(#474,#475,#476,#477,#478)
    ,(#479,#480,#481,#482,#483
)),.UNSPECIFIED.,.T.,.F.,.F.) B_SPLINE_SURFACE_WITH_KNOTS((1,2,2,2,2,1),
  (3,2,3),(-2.094395102393,0.,2.094395102393,4.188790204786,
    6.28318530718,8.377580409573),(-1.570796326795,0.,1.570796326795),
.UNSPECIFIED.) GEOMETRIC_REPRESENTATION_ITEM() RATIONAL_B_SPLINE_SURFACE
((
    (1.,0.707106781187,1.,0.707106781187,1.)
    ,(0.5,0.353553390593,0.5,0.353553390593,0.5)
    ,(1.,0.707106781187,1.,0.707106781187,1.)
    ,(0.5,0.353553390593,0.5,0.353553390593,0.5)
    ,(1.,0.707106781187,1.,0.707106781187,1.)
    ,(0.5,0.353553390593,0.5,0.353553390593,0.5)
,(1.,0.707106781187,1.,0.707106781187,1.
))) REPRESENTATION_ITEM('') SURFACE() );
#449 = CARTESIAN_POINT('',(3.078613409502E+04,-3.882167535563E+03,
    -3.566845027599E+03));
#450 = CARTESIAN_POINT('',(4.097711988816E+04,-3.882167535563E+03,
    -3.566845027599E+03));
#451 = CARTESIAN_POINT('',(4.097711988816E+04,-3.882167535563E+03,
    4.076394317256E+03));
#452 = CARTESIAN_POINT('',(4.097711988816E+04,-3.882167535563E+03,
    1.171963366211E+04));
#453 = CARTESIAN_POINT('',(3.078613409502E+04,-3.882167535563E+03,
    1.171963366211E+04));
#454 = CARTESIAN_POINT('',(3.078613409502E+04,-3.882167535563E+03,
    -3.566845027599E+03));
#455 = CARTESIAN_POINT('',(4.097711988816E+04,1.376913763737E+04,
    -3.566845027599E+03));
#456 = CARTESIAN_POINT('',(4.097711988816E+04,1.376913763737E+04,
    4.076394317256E+03));
#457 = CARTESIAN_POINT('',(4.097711988816E+04,1.376913763737E+04,
    1.171963366211E+04));
#458 = CARTESIAN_POINT('',(3.078613409502E+04,-3.882167535563E+03,
    1.171963366211E+04));
#459 = CARTESIAN_POINT('',(3.078613409502E+04,-3.882167535563E+03,
    -3.566845027599E+03));
#460 = CARTESIAN_POINT('',(2.569064119845E+04,4.943485050902E+03,
    -3.566845027599E+03));
#461 = CARTESIAN_POINT('',(2.569064119845E+04,4.943485050902E+03,
    4.076394317256E+03));
#462 = CARTESIAN_POINT('',(2.569064119845E+04,4.943485050902E+03,
    1.171963366211E+04));
#463 = CARTESIAN_POINT('',(3.078613409502E+04,-3.882167535563E+03,
    1.171963366211E+04));
#464 = CARTESIAN_POINT('',(3.078613409502E+04,-3.882167535563E+03,
    -3.566845027599E+03));
#465 = CARTESIAN_POINT('',(1.040416250874E+04,-3.882167535563E+03,
    -3.566845027599E+03));
#466 = CARTESIAN_POINT('',(1.040416250874E+04,-3.882167535563E+03,
    4.076394317256E+03));
#467 = CARTESIAN_POINT('',(1.040416250874E+04,-3.882167535563E+03,
    1.171963366211E+04));
#468 = CARTESIAN_POINT('',(3.078613409502E+04,-3.882167535563E+03,
    1.171963366211E+04));
#469 = CARTESIAN_POINT('',(3.078613409502E+04,-3.882167535563E+03,
    -3.566845027599E+03));
#470 = CARTESIAN_POINT('',(2.569064119845E+04,-1.270782012203E+04,
    -3.566845027599E+03));
#471 = CARTESIAN_POINT('',(2.569064119845E+04,-1.270782012203E+04,
    4.076394317256E+03));
#472 = CARTESIAN_POINT('',(2.569064119845E+04,-1.270782012203E+04,
    1.171963366211E+04));
#473 = CARTESIAN_POINT('',(3.078613409502E+04,-3.882167535563E+03,
    1.171963366211E+04));
#474 = CARTESIAN_POINT('',(3.078613409502E+04,-3.882167535563E+03,
    -3.566845027599E+03));
#475 = CARTESIAN_POINT('',(4.097711988816E+04,-2.153347270849E+04,
    -3.566845027599E+03));
#476 = CARTESIAN_POINT('',(4.097711988816E+04,-2.153347270849E+04,
    4.076394317256E+03));
#477 = CARTESIAN_POINT('',(4.097711988816E+04,-2.153347270849E+04,
    1.171963366211E+04));
#478 = CARTESIAN_POINT('',(3.078613409502E+04,-3.882167535563E+03,
    1.171963366211E+04));
#479 = CARTESIAN_POINT('',(3.078613409502E+04,-3.882167535563E+03,
    -3.566845027599E+03));
#480 = CARTESIAN_POINT('',(4.097711988816E+04,-3.882167535563E+03,
    -3.566845027599E+03));
#481 = CARTESIAN_POINT('',(4.097711988816E+04,-3.882167535563E+03,
    4.076394317256E+03));
#482 = CARTESIAN_POINT('',(4.097711988816E+04,-3.882167535563E+03,
    1.171963366211E+04));
#483 = CARTESIAN_POINT('',(3.078613409502E+04,-3.882167535563E+03,
    1.171963366211E+04));
#484 = ( GEOMETRIC_REPRESENTATION_CONTEXT(3) 
GLOBAL_UNCERTAINTY_ASSIGNED_CONTEXT((#488)) GLOBAL_UNIT_ASSIGNED_CONTEXT
((#485,#486,#487)) REPRESENTATION_CONTEXT('Context #1',
  '3D Context with UNIT and UNCERTAINTY') );
#485 = ( LENGTH_UNIT() NAMED_UNIT(*) SI_UNIT(.MILLI.,.METRE.) );
#486 = ( NAMED_UNIT(*) PLANE_ANGLE_UNIT() SI_UNIT($,.RADIAN.) );
#487 = ( NAMED_UNIT(*) SI_UNIT($,.STERADIAN.) SOLID_ANGLE_UNIT() );
#488 = UNCERTAINTY_MEASURE_WITH_UNIT(LENGTH_MEASURE(1.E-07),#485,
  'distance_accuracy_value','confusion accuracy');
#489 = CONTEXT_DEPENDENT_SHAPE_REPRESENTATION(#490,#492);
#490 = ( REPRESENTATION_RELATIONSHIP('','',#440,#10) 
REPRESENTATION_RELATIONSHIP_WITH_TRANSFORMATION(#491) 
SHAPE_REPRESENTATION_RELATIONSHIP() );
#491 = ITEM_DEFINED_TRANSFORMATION('','',#11,#39);
#492 = PRODUCT_DEFINITION_SHAPE('Placement','Placement of an item',#493
  );
#493 = NEXT_ASSEMBLY_USAGE_OCCURRENCE('191','part6','',#5,#435,$);
#494 = PRODUCT_RELATED_PRODUCT_CATEGORY('part',$,(#437));
#495 = SHAPE_DEFINITION_REPRESENTATION(#496,#502);
#496 = PRODUCT_DEFINITION_SHAPE('','',#497);
#497 = PRODUCT_DEFINITION('design','',#498,#501);
#498 = PRODUCT_DEFINITION_FORMATION('','',#499);
#499 = PRODUCT('part7','part7','',(#500));
#500 = PRODUCT_CONTEXT('',#2,'mechanical');
#501 = PRODUCT_DEFINITION_CONTEXT('part definition',#2,'design');
#502 = ADVANCED_BREP_SHAPE_REPRESENTATION('',(#11,#503),#546);
#503 = MANIFOLD_SOLID_BREP('',#504);
#504 = CLOSED_SHELL('',(#505));
#505 = ADVANCED_FACE('',(#506),#510,.T.);
#506 = FACE_BOUND('',#507,.T.);
#507 = VERTEX_LOOP('',#508);
#508 = VERTEX_POINT('',#509);
#509 = CARTESIAN_POINT('',(-1.187834138099E+04,-5.404211104853E+03,
    -5.15573697774E+03));
#510 = ( BOUNDED_SURFACE() B_SPLINE_SURFACE(2,2,(
    (#511,#512,#513,#514,#515)
    ,(#516,#517,#518,#519,#520)
    ,(#521,#522,#523,#524,#525)
    ,(#526,#527,#528,#529,#530)
    ,(#531,#532,#533,#534,#535)
    ,(#536,#537,#538,#539,#540)
    ,(#541,#542,#543,#544,#545
)),.UNSPECIFIED.,.T.,.F.,.F.) B_SPLINE_SURFACE_WITH_KNOTS((1,2,2,2,2,1),
  (3,2,3),(-2.094395102393,0.,2.094395102393,4.188790204786,
    6.28318530718,8.377580409573),(-1.570796326795,0.,1.570796326795),
.UNSPECIFIED.) GEOMETRIC_REPRESENTATION_ITEM() RATIONAL_B_SPLINE_SURFACE
((
    (1.,0.707106781187,1.,0.707106781187,1.)
    ,(0.5,0.353553390593,0.5,0.353553390593,0.5)
    ,(1.,0.707106781187,1.,0.707106781187,1.)
    ,(0.5,0.353553390593,0.5,0.353553390593,0.5)
    ,(1.,0.707106781187,1.,0.707106781187,1.)
    ,(0.5,0.353553390593,0.5,0.353553390593,0.5)
,(1.,0.707106781187,1.,0.707106781187,1.
))) REPRESENTATION_ITEM('') SURFACE() );
#511 = CARTESIAN_POINT('',(-1.187834138099E+04,-5.404211104853E+03,
    -5.15573697774E+03));
#512 = CARTESIAN_POINT('',(2.85233569827E+03,-5.404211104853E+03,
    -5.15573697774E+03));
#513 = CARTESIAN_POINT('',(2.85233569827E+03,-5.404211104853E+03,
    5.892270831702E+03));
#514 = CARTESIAN_POINT('',(2.85233569827E+03,-5.404211104853E+03,
    1.694027864114E+04));
#515 = CARTESIAN_POINT('',(-1.187834138099E+04,-5.404211104853E+03,
    1.694027864114E+04));
#516 = CARTESIAN_POINT('',(-1.187834138099E+04,-5.404211104853E+03,
    -5.15573697774E+03));
#517 = CARTESIAN_POINT('',(2.85233569827E+03,2.011007002631E+04,
    -5.15573697774E+03));
#518 = CARTESIAN_POINT('',(2.85233569827E+03,2.011007002631E+04,
    5.892270831702E+03));
#519 = CARTESIAN_POINT('',(2.85233569827E+03,2.011007002631E+04,
    1.694027864114E+04));
#520 = CARTESIAN_POINT('',(-1.187834138099E+04,-5.404211104853E+03,
    1.694027864114E+04));
#521 = CARTESIAN_POINT('',(-1.187834138099E+04,-5.404211104853E+03,
    -5.15573697774E+03));
#522 = CARTESIAN_POINT('',(-1.924367992061E+04,7.352929460728E+03,
    -5.15573697774E+03));
#523 = CARTESIAN_POINT('',(-1.924367992061E+04,7.352929460728E+03,
    5.892270831702E+03));
#524 = CARTESIAN_POINT('',(-1.924367992061E+04,7.352929460728E+03,
    1.694027864114E+04));
#525 = CARTESIAN_POINT('',(-1.187834138099E+04,-5.404211104853E+03,
    1.694027864114E+04));
#526 = CARTESIAN_POINT('',(-1.187834138099E+04,-5.404211104853E+03,
    -5.15573697774E+03));
#527 = CARTESIAN_POINT('',(-4.13396955395E+04,-5.404211104853E+03,
    -5.15573697774E+03));
#528 = CARTESIAN_POINT('',(-4.13396955395E+04,-5.404211104853E+03,
    5.892270831702E+03));
#529 = CARTESIAN_POINT('',(-4.13396955395E+04,-5.404211104853E+03,
    1.694027864114E+04));
#530 = CARTESIAN_POINT('',(-1.187834138099E+04,-5.404211104853E+03,
    1.694027864114E+04));
#531 = CARTESIAN_POINT('',(-1.187834138099E+04,-5.404211104853E+03,
    -5.15573697774E+03));
#532 = CARTESIAN_POINT('',(-1.924367992061E+04,-1.816135167043E+04,
    -5.15573697774E+03));
#533 = CARTESIAN_POINT('',(-1.924367992061E+04,-1.816135167043E+04,
    5.892270831702E+03));
#534 = CARTESIAN_POINT('',(-1.924367992061E+04,-1.816135167043E+04,
    1.694027864114E+04));
#535 = CARTESIAN_POINT('',(-1.187834138099E+04,-5.404211104853E+03,
    1.694027864114E+04));
#536 = CARTESIAN_POINT('',(-1.187834138099E+04,-5.404211104853E+03,
    -5.15573697774E+03));
#537 = CARTESIAN_POINT('',(2.85233569827E+03,-3.091849223601E+04,
    -5.15573697774E+03));
#538 = CARTESIAN_POINT('',(2.85233569827E+03,-3.091849223601E+04,
    5.892270831702E+03));
#539 = CARTESIAN_POINT('',(2.85233569827E+03,-3.091849223601E+04,
    1.694027864114E+04));
#540 = CARTESIAN_POINT('',(-1.187834138099E+04,-5.404211104853E+03,
    1.694027864114E+04));
#541 = CARTESIAN_POINT('',(-1.187834138099E+04,-5.404211104853E+03,
    -5.15573697774E+03));
#542 = CARTESIAN_POINT('',(2.85233569827E+03,-5.404211104853E+03,
    -5.15573697774E+03));
#543 = CARTESIAN_POINT('',(2.85233569827E+03,-5.404211104853E+03,
    5.892270831702E+03));
#544 = CARTESIAN_POINT('',(2.85233569827E+03,-5.404211104853E+03,
    1.694027864114E+04));
#545 = CARTESIAN_POINT('',(-1.187834138099E+04,-5.404211104853E+03,
    1.694027864114E+04));
#546 = ( GEOMETRIC_REPRESENTATION_CONTEXT(3) 
GLOBAL_UNCERTAINTY_ASSIGNED_CONTEXT((#550)) GLOBAL_UNIT_ASSIGNED_CONTEXT
((#547,#548,#549)) REPRESENTATION_CONTEXT('Context #1',
  '3D Context with UNIT and UNCERTAINTY') );
#547 = ( LENGTH_UNIT() NAMED_UNIT(*) SI_UNIT(.MILLI.,.METRE.) );
#548 = ( NAMED_UNIT(*) PLANE_ANGLE_UNIT() SI_UNIT($,.RADIAN.) );
#549 = ( NAMED_UNIT(*) SI_UNIT($,.STERADIAN.) SOLID_ANGLE_UNIT() );
#550 = UNCERTAINTY_MEASURE_WITH_UNIT(LENGTH_MEASURE(1.E-07),#547,
  'distance_accuracy_value','confusion accuracy');
#551 = CONTEXT_DEPENDENT_SHAPE_REPRESENTATION(#552,#554);
#552 = ( REPRESENTATION_RELATIONSHIP('','',#502,#10) 
REPRESENTATION_RELATIONSHIP_WITH_TRANSFORMATION(#553) 
SHAPE_REPRESENTATION_RELATIONSHIP() );
#553 = ITEM_DEFINED_TRANSFORMATION('','',#11,#43);
#554 = PRODUCT_DEFINITION_SHAPE('Placement','Placement of an item',#555
  );
#555 = NEXT_ASSEMBLY_USAGE_OCCURRENCE('192','part7','',#5,#497,$);
#556 = PRODUCT_RELATED_PRODUCT_CATEGORY('part',$,(#499));
#557 = SHAPE_DEFINITION_REPRESENTATION(#558,#564);
#558 = PRODUCT_DEFINITION_SHAPE('','',#559);
#559 = PRODUCT_DEFINITION('design','',#560,#563);
#560 = PRODUCT_DEFINITION_FORMATION('','',#561);
#561 = PRODUCT('part8','part8','',(#562));
#562 = PRODUCT_CONTEXT('',#2,'mechanical');
#563 = PRODUCT_DEFINITION_CONTEXT('part definition',#2,'design');
#564 = ADVANCED_BREP_SHAPE_REPRESENTATION('',(#11,#565),#608);
#565 = MANIFOLD_SOLID_BREP('',#566);
#566 = CLOSED_SHELL('',(#567));
#567 = ADVANCED_FACE('',(#568),#572,.T.);
#568 = FACE_BOUND('',#569,.T.);
#569 = VERTEX_LOOP('',#570);
#570 = VERTEX_POINT('',#571);
#571 = CARTESIAN_POINT('',(-2.027674041183E+04,-1.132295864334E+04,
    -4.378291980115E+03));
#572 = ( BOUNDED_SURFACE() B_SPLINE_SURFACE(2,2,(
    (#573,#574,#575,#576,#577)
    ,(#578,#579,#580,#581,#582)
    ,(#583,#584,#585,#586,#587)
    ,(#588,#589,#590,#591,#592)
    ,(#593,#594,#595,#596,#597)
    ,(#598,#599,#600,#601,#602)
    ,(#603,#604,#605,#606,#607
)),.UNSPECIFIED.,.T.,.F.,.F.) B_SPLINE_SURFACE_WITH_KNOTS((1,2,2,2,2,1),
  (3,2,3),(-2.094395102393,0.,2.094395102393,4.188790204786,
    6.28318530718,8.377580409573),(-1.570796326795,0.,1.570796326795),
.UNSPECIFIED.) GEOMETRIC_REPRESENTATION_ITEM() RATIONAL_B_SPLINE_SURFACE
((
    (1.,0.707106781187,1.,0.707106781187,1.)
    ,(0.5,0.353553390593,0.5,0.353553390593,0.5)
    ,(1.,0.707106781187,1.,0.707106781187,1.)
    ,(0.5,0.353553390593,0.5,0.353553390593,0.5)
    ,(1.,0.707106781187,1.,0.707106781187,1.)
    ,(0.5,0.353553390593,0.5,0.353553390593,0.5)
,(1.,0.707106781187,1.,0.707106781187,1.
))) REPRESENTATION_ITEM('') SURFACE() );
#573 = CARTESIAN_POINT('',(-2.027674041183E+04,-1.132295864334E+04,
    -4.378291980115E+03));
#574 = CARTESIAN_POINT('',(-7.767334754359E+03,-1.132295864334E+04,
    -4.378291980115E+03));
#575 = CARTESIAN_POINT('',(-7.767334754359E+03,-1.132295864334E+04,
    5.003762262989E+03));
#576 = CARTESIAN_POINT('',(-7.767334754359E+03,-1.132295864334E+04,
    1.438581650609E+04));
#577 = CARTESIAN_POINT('',(-2.027674041183E+04,-1.132295864334E+04,
    1.438581650609E+04));
#578 = CARTESIAN_POINT('',(-2.027674041183E+04,-1.132295864334E+04,
    -4.378291980115E+03));
#579 = CARTESIAN_POINT('',(-7.767334754359E+03,1.03439675279E+04,
    -4.378291980115E+03));
#580 = CARTESIAN_POINT('',(-7.767334754359E+03,1.03439675279E+04,
    5.003762262989E+03));
#581 = CARTESIAN_POINT('',(-7.767334754359E+03,1.03439675279E+04,
    1.438581650609E+04));
#582 = CARTESIAN_POINT('',(-2.027674041183E+04,-1.132295864334E+04,
    1.438581650609E+04));
#583 = CARTESIAN_POINT('',(-2.027674041183E+04,-1.132295864334E+04,
    -4.378291980115E+03));
#584 = CARTESIAN_POINT('',(-2.653144324057E+04,-489.4955577195,
    -4.378291980115E+03));
#585 = CARTESIAN_POINT('',(-2.653144324057E+04,-489.4955577195,
    5.003762262989E+03));
#586 = CARTESIAN_POINT('',(-2.653144324057E+04,-489.4955577195,
    1.438581650609E+04));
#587 = CARTESIAN_POINT('',(-2.027674041183E+04,-1.132295864334E+04,
    1.438581650609E+04));
#588 = CARTESIAN_POINT('',(-2.027674041183E+04,-1.132295864334E+04,
    -4.378291980115E+03));
#589 = CARTESIAN_POINT('',(-4.529555172678E+04,-1.132295864334E+04,
    -4.378291980115E+03));
#590 = CARTESIAN_POINT('',(-4.529555172678E+04,-1.132295864334E+04,
    5.003762262989E+03));
#591 = CARTESIAN_POINT('',(-4.529555172678E+04,-1.132295864334E+04,
    1.438581650609E+04));
#592 = CARTESIAN_POINT('',(-2.027674041183E+04,-1.132295864334E+04,
    1.438581650609E+04));
#593 = CARTESIAN_POINT('',(-2.027674041183E+04,-1.132295864334E+04,
    -4.378291980115E+03));
#594 = CARTESIAN_POINT('',(-2.653144324057E+04,-2.215642172895E+04,
    -4.378291980115E+03));
#595 = CARTESIAN_POINT('',(-2.653144324057E+04,-2.215642172895E+04,
    5.003762262989E+03));
#596 = CARTESIAN_POINT('',(-2.653144324057E+04,-2.215642172895E+04,
    1.438581650609E+04));
#597 = CARTESIAN_POINT('',(-2.027674041183E+04,-1.132295864334E+04,
    1.438581650609E+04));
#598 = CARTESIAN_POINT('',(-2.027674041183E+04,-1.132295864334E+04,
    -4.378291980115E+03));
#599 = CARTESIAN_POINT('',(-7.767334754359E+03,-3.298988481457E+04,
    -4.378291980115E+03));
#600 = CARTESIAN_POINT('',(-7.767334754359E+03,-3.298988481457E+04,
    5.003762262989E+03));
#601 = CARTESIAN_POINT('',(-7.767334754359E+03,-3.298988481457E+04,
    1.438581650609E+04));
#602 = CARTESIAN_POINT('',(-2.027674041183E+04,-1.132295864334E+04,
    1.438581650609E+04));
#603 = CARTESIAN_POINT('',(-2.027674041183E+04,-1.132295864334E+04,
    -4.378291980115E+03));
#604 = CARTESIAN_POINT('',(-7.767334754359E+03,-1.132295864334E+04,
    -4.378291980115E+03));
#605 = CARTESIAN_POINT('',(-7.767334754359E+03,-1.132295864334E+04,
    5.003762262989E+03));
#606 = CARTESIAN_POINT('',(-7.767334754359E+03,-1.132295864334E+04,
    1.438581650609E+04));
#607 = CARTESIAN_POINT('',(-2.027674041183E+04,-1.132295864334E+04,
    1.438581650609E+04));
#608 = ( GEOMETRIC_REPRESENTATION_CONTEXT(3) 
GLOBAL_UNCERTAINTY_ASSIGNED_CONTEXT((#612)) GLOBAL_UNIT_ASSIGNED_CONTEXT
((#609,#610,#611)) REPRESENTATION_CONTEXT('Context #1',
  '3D Context with UNIT and UNCERTAINTY') );
#609 = ( LENGTH_UNIT() NAMED_UNIT(*) SI_UNIT(.MILLI.,.METRE.) );
#610 = ( NAMED_UNIT(*) PLANE_ANGLE_UNIT() SI_UNIT($,.RADIAN.) );
#611 = ( NAMED_UNIT(*) SI_UNIT($,.STERADIAN.) SOLID_ANGLE_UNIT() );
#612 = UNCERTAINTY_MEASURE_WITH_UNIT(LENGTH_MEASURE(1.E-07),#609,
  'distance_accuracy_value','confusion accuracy');
#613 = CONTEXT_DEPENDENT_SHAPE_REPRESENTATION(#614,#616);
#614 = ( REPRESENTATION_RELATIONSHIP('','',#564,#10) 
REPRESENTATION_RELATIONSHIP_WITH_TRANSFORMATION(#615) 
SHAPE_REPRESENTATION_RELATIONSHIP() );
#615 = ITEM_DEFINED_TRANSFORMATION('','',#11,#47);
#616 = PRODUCT_DEFINITION_SHAPE('Placement','Placement of an item',#617
  );
#617 = NEXT_ASSEMBLY_USAGE_OCCURRENCE('193','part8','',#5,#559,$);
#618 = PRODUCT_RELATED_PRODUCT_CATEGORY('part',$,(#561));
#619 = SHAPE_DEFINITION_REPRESENTATION(#620,#626);
#620 = PRODUCT_DEFINITION_SHAPE('','',#621);
#621 = PRODUCT_DEFINITION('design','',#622,#625);
#622 = PRODUCT_DEFINITION_FORMATION('','',#623);
#623 = PRODUCT('part9','part9','',(#624));
#624 = PRODUCT_CONTEXT('',#2,'mechanical');
#625 = PRODUCT_DEFINITION_CONTEXT('part definition',#2,'design');
#626 = ADVANCED_BREP_SHAPE_REPRESENTATION('',(#11,#627),#670);
#627 = MANIFOLD_SOLID_BREP('',#628);
#628 = CLOSED_SHELL('',(#629));
#629 = ADVANCED_FACE('',(#630),#634,.T.);
#630 = FACE_BOUND('',#631,.T.);
#631 = VERTEX_LOOP('',#632);
#632 = VERTEX_POINT('',#633);
#633 = CARTESIAN_POINT('',(2.571758278209E-12,-3.899375434921E-28,
    -8.E+03));
#634 = ( BOUNDED_SURFACE() B_SPLINE_SURFACE(2,2,(
    (#635,#636,#637,#638,#639)
    ,(#640,#641,#642,#643,#644)
    ,(#645,#646,#647,#648,#649)
    ,(#650,#651,#652,#653,#654)
    ,(#655,#656,#657,#658,#659)
    ,(#660,#661,#662,#663,#664)
    ,(#665,#666,#667,#668,#669
)),.UNSPECIFIED.,.T.,.F.,.F.) B_SPLINE_SURFACE_WITH_KNOTS((1,2,2,2,2,1),
  (3,2,3),(-2.094395102393,0.,2.094395102393,4.188790204786,
    6.28318530718,8.377580409573),(-1.570796326795,0.,1.570796326795),
.UNSPECIFIED.) GEOMETRIC_REPRESENTATION_ITEM() RATIONAL_B_SPLINE_SURFACE
((
    (1.,0.707106781187,1.,0.707106781187,1.)
    ,(0.5,0.353553390593,0.5,0.353553390593,0.5)
    ,(1.,0.707106781187,1.,0.707106781187,1.)
    ,(0.5,0.353553390593,0.5,0.353553390593,0.5)
    ,(1.,0.707106781187,1.,0.707106781187,1.)
    ,(0.5,0.353553390593,0.5,0.353553390593,0.5)
,(1.,0.707106781187,1.,0.707106781187,1.
))) REPRESENTATION_ITEM('') SURFACE() );
#635 = CARTESIAN_POINT('',(2.571758278209E-12,0.,-8.E+03));
#636 = CARTESIAN_POINT('',(4.2E+04,0.,-8.E+03));
#637 = CARTESIAN_POINT('',(4.2E+04,0.,-2.E+03));
#638 = CARTESIAN_POINT('',(4.2E+04,0.,4.E+03));
#639 = CARTESIAN_POINT('',(2.571758278209E-12,0.,4.E+03));
#640 = CARTESIAN_POINT('',(2.571758278209E-12,2.757495620685E-12,-8.E+03
    ));
#641 = CARTESIAN_POINT('',(4.2E+04,4.503332099679E+04,-8.E+03));
#642 = CARTESIAN_POINT('',(4.2E+04,4.503332099679E+04,-2.E+03));
#643 = CARTESIAN_POINT('',(4.2E+04,4.503332099679E+04,4.E+03));
#644 = CARTESIAN_POINT('',(2.571758278209E-12,2.757495620685E-12,4.E+03)
  );
#645 = CARTESIAN_POINT('',(-1.285879139105E-12,1.378747810342E-12,
    -8.E+03));
#646 = CARTESIAN_POINT('',(-2.1E+04,2.25166604984E+04,-8.E+03));
#647 = CARTESIAN_POINT('',(-2.1E+04,2.25166604984E+04,-2.E+03));
#648 = CARTESIAN_POINT('',(-2.1E+04,2.25166604984E+04,4.E+03));
#649 = CARTESIAN_POINT('',(-1.285879139105E-12,1.378747810342E-12,4.E+03
    ));
#650 = CARTESIAN_POINT('',(-5.143516556419E-12,3.899375434921E-28,
    -8.E+03));
#651 = CARTESIAN_POINT('',(-8.4E+04,6.368163355566E-12,-8.E+03));
#652 = CARTESIAN_POINT('',(-8.4E+04,6.368163355566E-12,-2.E+03));
#653 = CARTESIAN_POINT('',(-8.4E+04,6.368163355566E-12,4.E+03));
#654 = CARTESIAN_POINT('',(-5.143516556419E-12,3.899375434921E-28,4.E+03
    ));
#655 = CARTESIAN_POINT('',(-1.285879139105E-12,-1.378747810342E-12,
    -8.E+03));
#656 = CARTESIAN_POINT('',(-2.1E+04,-2.25166604984E+04,-8.E+03));
#657 = CARTESIAN_POINT('',(-2.1E+04,-2.25166604984E+04,-2.E+03));
#658 = CARTESIAN_POINT('',(-2.1E+04,-2.25166604984E+04,4.E+03));
#659 = CARTESIAN_POINT('',(-1.285879139105E-12,-1.378747810342E-12,
    4.E+03));
#660 = CARTESIAN_POINT('',(2.571758278209E-12,-2.757495620685E-12,
    -8.E+03));
#661 = CARTESIAN_POINT('',(4.2E+04,-4.503332099679E+04,-8.E+03));
#662 = CARTESIAN_POINT('',(4.2E+04,-4.503332099679E+04,-2.E+03));
#663 = CARTESIAN_POINT('',(4.2E+04,-4.503332099679E+04,4.E+03));
#664 = CARTESIAN_POINT('',(2.571758278209E-12,-2.757495620685E-12,4.E+03
    ));
#665 = CARTESIAN_POINT('',(2.571758278209E-12,0.,-8.E+03));
#666 = CARTESIAN_POINT('',(4.2E+04,0.,-8.E+03));
#667 = CARTESIAN_POINT('',(4.2E+04,0.,-2.E+03));
#668 = CARTESIAN_POINT('',(4.2E+04,0.,4.E+03));
#669 = CARTESIAN_POINT('',(2.571758278209E-12,0.,4.E+03));
#670 = ( GEOMETRIC_REPRESENTATION_CONTEXT(3) 
GLOBAL_UNCERTAINTY_ASSIGNED_CONTEXT((#674)) GLOBAL_UNIT_ASSIGNED_CONTEXT
((#671,#672,#673)) REPRESENTATION_CONTEXT('Context #1',
  '3D Context with UNIT and UNCERTAINTY') );
#671 = ( LENGTH_UNIT() NAMED_UNIT(*) SI_UNIT(.MILLI.,.METRE.) );
#672 = ( NAMED_UNIT(*) PLANE_ANGLE_UNIT() SI_UNIT($,.RADIAN.) );
#673 = ( NAMED_UNIT(*) SI_UNIT($,.STERADIAN.) SOLID_ANGLE_UNIT() );
#674 = UNCERTAINTY_MEASURE_WITH_UNIT(LENGTH_MEASURE(1.E-07),#671,
  'distance_accuracy_value','confusion accuracy');
#675 = CONTEXT_DEPENDENT_SHAPE_REPRESENTATION(#676,#678);
#676 = ( REPRESENTATION_RELATIONSHIP('','',#626,#10) 
REPRESENTATION_RELATIONSHIP_WITH_TRANSFORMATION(#677) 
SHAPE_REPRESENTATION_RELATIONSHIP() );
#677 = ITEM_DEFINED_TRANSFORMATION('','',#11,#51);
#678 = PRODUCT_DEFINITION_SHAPE('Placement','Placement of an item',#679
  );
#679 = NEXT_ASSEMBLY_USAGE_OCCURRENCE('194','part9','',#5,#621,$);
#680 = PRODUCT_RELATED_PRODUCT_CATEGORY('part',$,(#623));
#681 = MECHANICAL_DESIGN_GEOMETRIC_PRESENTATION_REPRESENTATION('',(#682)
  ,#360);
#682 = STYLED_ITEM('color',(#683),#317);
#683 = PRESENTATION_STYLE_ASSIGNMENT((#684));
#684 = SURFACE_STYLE_USAGE(.BOTH.,#685);
#685 = SURFACE_SIDE_STYLE('',(#686));
#686 = SURFACE_STYLE_FILL_AREA(#687);
#687 = FILL_AREA_STYLE('',(#688));
#688 = FILL_AREA_STYLE_COLOUR('',#689);
#689 = COLOUR_RGB('',0.227450982423,0.368627449173,0.227450982423);
#690 = MECHANICAL_DESIGN_GEOMETRIC_PRESENTATION_REPRESENTATION('',(#691)
  ,#484);
#691 = STYLED_ITEM('color',(#692),#441);
#692 = PRESENTATION_STYLE_ASSIGNMENT((#693));
#693 = SURFACE_STYLE_USAGE(.BOTH.,#694);
#694 = SURFACE_SIDE_STYLE('',(#695));
#695 = SURFACE_STYLE_FILL_AREA(#696);
#696 = FILL_AREA_STYLE('',(#697));
#697 = FILL_AREA_STYLE_COLOUR('',#689);
#698 = MECHANICAL_DESIGN_GEOMETRIC_PRESENTATION_REPRESENTATION('',(#699)
  ,#422);
#699 = STYLED_ITEM('color',(#700),#379);
#700 = PRESENTATION_STYLE_ASSIGNMENT((#701));
#701 = SURFACE_STYLE_USAGE(.BOTH.,#702);
#702 = SURFACE_SIDE_STYLE('',(#703));
#703 = SURFACE_STYLE_FILL_AREA(#704);
#704 = FILL_AREA_STYLE('',(#705));
#705 = FILL_AREA_STYLE_COLOUR('',#689);
#706 = MECHANICAL_DESIGN_GEOMETRIC_PRESENTATION_REPRESENTATION('',(#707)
  ,#608);
#707 = STYLED_ITEM('color',(#708),#565);
#708 = PRESENTATION_STYLE_ASSIGNMENT((#709));
#709 = SURFACE_STYLE_USAGE(.BOTH.,#710);
#710 = SURFACE_SIDE_STYLE('',(#711));
#711 = SURFACE_STYLE_FILL_AREA(#712);
#712 = FILL_AREA_STYLE('',(#713));
#713 = FILL_AREA_STYLE_COLOUR('',#689);
#714 = MECHANICAL_DESIGN_GEOMETRIC_PRESENTATION_REPRESENTATION('',(#715)
  ,#298);
#715 = STYLED_ITEM('color',(#716),#255);
#716 = PRESENTATION_STYLE_ASSIGNMENT((#717));
#717 = SURFACE_STYLE_USAGE(.BOTH.,#718);
#718 = SURFACE_SIDE_STYLE('',(#719));
#719 = SURFACE_STYLE_FILL_AREA(#720);
#720 = FILL_AREA_STYLE('',(#721));
#721 = FILL_AREA_STYLE_COLOUR('',#689);
#722 = MECHANICAL_DESIGN_GEOMETRIC_PRESENTATION_REPRESENTATION('',(#723)
  ,#174);
#723 = STYLED_ITEM('color',(#724),#131);
#724 = PRESENTATION_STYLE_ASSIGNMENT((#725));
#725 = SURFACE_STYLE_USAGE(.BOTH.,#726);
#726 = SURFACE_SIDE_STYLE('',(#727));
#727 = SURFACE_STYLE_FILL_AREA(#728);
#728 = FILL_AREA_STYLE('',(#729));
#729 = FILL_AREA_STYLE_COLOUR('',#689);
#730 = MECHANICAL_DESIGN_GEOMETRIC_PRESENTATION_REPRESENTATION('',(#731)
  ,#670);
#731 = STYLED_ITEM('color',(#732),#627);
#732 = PRESENTATION_STYLE_ASSIGNMENT((#733));
#733 = SURFACE_STYLE_USAGE(.BOTH.,#734);
#734 = SURFACE_SIDE_STYLE('',(#735));
#735 = SURFACE_STYLE_FILL_AREA(#736);
#736 = FILL_AREA_STYLE('',(#737));
#737 = FILL_AREA_STYLE_COLOUR('',#738);
#738 = COLOUR_RGB('',0.149019609447,0.250980388104,0.164705883709);
#739 = MECHANICAL_DESIGN_GEOMETRIC_PRESENTATION_REPRESENTATION('',(#740)
  ,#546);
#740 = STYLED_ITEM('color',(#741),#503);
#741 = PRESENTATION_STYLE_ASSIGNMENT((#742));
#742 = SURFACE_STYLE_USAGE(.BOTH.,#743);
#743 = SURFACE_SIDE_STYLE('',(#744));
#744 = SURFACE_STYLE_FILL_AREA(#745);
#745 = FILL_AREA_STYLE('',(#746));
#746 = FILL_AREA_STYLE_COLOUR('',#689);
#747 = MECHANICAL_DESIGN_GEOMETRIC_PRESENTATION_REPRESENTATION('',(#748)
  ,#112);
#748 = STYLED_ITEM('color',(#749),#69);
#749 = PRESENTATION_STYLE_ASSIGNMENT((#750));
#750 = SURFACE_STYLE_USAGE(.BOTH.,#751);
#751 = SURFACE_SIDE_STYLE('',(#752));
#752 = SURFACE_STYLE_FILL_AREA(#753);
#753 = FILL_AREA_STYLE('',(#754));
#754 = FILL_AREA_STYLE_COLOUR('',#689);
#755 = MECHANICAL_DESIGN_GEOMETRIC_PRESENTATION_REPRESENTATION('',(#756)
  ,#236);
#756 = STYLED_ITEM('color',(#757),#193);
#757 = PRESENTATION_STYLE_ASSIGNMENT((#758));
#758 = SURFACE_STYLE_USAGE(.BOTH.,#759);
#759 = SURFACE_SIDE_STYLE('',(#760));
#760 = SURFACE_STYLE_FILL_AREA(#761);
#761 = FILL_AREA_STYLE('',(#762));
#762 = FILL_AREA_STYLE_COLOUR('',#689);
ENDSEC;
END-ISO-10303-21;
