ISO-10303-21;
HEADER;
FILE_DESCRIPTION(('Open CASCADE Model'),'2;1');
FILE_NAME('Open CASCADE Shape Model','2026-09-14T11:05:24',('Author'),(
    'Open CASCADE'),'Open CASCADE STEP processor 7.9','Open CASCADE 7.9'
  ,'Unknown');
FILE_SCHEMA(('AUTOMOTIVE_DESIGN { 1 0 10303 214 1 1 1 1 }'));
ENDSEC;
DATA;
#1 = APPLICATION_PROTOCOL_DEFINITION('international standard',
  'automotive_design',2000,#2);
#2 = APPLICATION_CONTEXT(
  'core data for automotive mechanical design processes');
#3 = SHAPE_DEFINITION_REPRESENTATION(#4,#10);
#4 = PRODUCT_DEFINITION_SHAPE('','',#5);
#5 = PRODUCT_DEFINITION('design','',#6,#9);
#6 = PRODUCT_DEFINITION_FORMATION('','',#7);
#7 = PRODUCT('cdc67a02-b023-11f1-9fc0-3c9c0f4bdafb',
  'cdc67a02-b023-11f1-9fc0-3c9c0f4bdafb','',(#8));
#8 = PRODUCT_CONTEXT('',#2,'mechanical');
#9 = PRODUCT_DEFINITION_CONTEXT('part definition',#2,'design');
#10 = SHAPE_REPRESENTATION('',(#11,#15,#19,#23,#27,#31,#35,#39,#43),#47
  );
#11 = AXIS2_PLACEMENT_3D('',#12,#13,#14);
#12 = CARTESIAN_POINT('',(0.,0.,0.));
#13 = DIRECTION('',(0.,0.,1.));
#14 = DIRECTION('',(1.,0.,-0.));
#15 = AXIS2_PLACEMENT_3D('',#16,#17,#18);
#16 = CARTESIAN_POINT('',(0.,0.,0.));
#17 = DIRECTION('',(0.,0.,1.));
#18 = DIRECTION('',(1.,0.,-0.));
#19 = AXIS2_PLACEMENT_3D('',#20,#21,#22);
#20 = CARTESIAN_POINT('',(0.,0.,0.));
#21 = DIRECTION('',(0.,0.,1.));
#22 = DIRECTION('',(1.,0.,-0.));
#23 = AXIS2_PLACEMENT_3D('',#24,#25,#26);
#24 = CARTESIAN_POINT('',(0.,0.,0.));
#25 = DIRECTION('',(0.,0.,1.));
#26 = DIRECTION('',(1.,0.,-0.));
#27 = AXIS2_PLACEMENT_3D('',#28,#29,#30);
#28 = CARTESIAN_POINT('',(0.,0.,0.));
#29 = DIRECTION('',(0.,0.,1.));
#30 = DIRECTION('',(1.,0.,-0.));
#31 = AXIS2_PLACEMENT_3D('',#32,#33,#34);
#32 = CARTESIAN_POINT('',(0.,0.,0.));
#33 = DIRECTION('',(0.,0.,1.));
#34 = DIRECTION('',(1.,0.,-0.));
#35 = AXIS2_PLACEMENT_3D('',#36,#37,#38);
#36 = CARTESIAN_POINT('',(0.,0.,0.));
#37 = DIRECTION('',(0.,0.,1.));
#38 = DIRECTION('',(1.,0.,-0.));
#39 = AXIS2_PLACEMENT_3D('',#40,#41,#42);
#40 = CARTESIAN_POINT('',(0.,0.,0.));
#41 = DIRECTION('',(0.,0.,1.));
#42 = DIRECTION('',(1.,0.,-0.));
#43 = AXIS2_PLACEMENT_3D('',#44,#45,#46);
#44 = CARTESIAN_POINT('',(0.,0.,0.));
#45 = DIRECTION('',(0.,0.,1.));
#46 = DIRECTION('',(1.,0.,-0.));
#47 = ( GEOMETRIC_REPRESENTATION_CONTEXT(3) 
GLOBAL_UNCERTAINTY_ASSIGNED_CONTEXT((#51)) GLOBAL_UNIT_ASSIGNED_CONTEXT(
(#48,#49,#50)) REPRESENTATION_CONTEXT('Context #1',
  '3D Context with UNIT and UNCERTAINTY') );
#48 = ( LENGTH_UNIT() NAMED_UNIT(*) SI_UNIT(.MILLI.,.METRE.) );
#49 = ( NAMED_UNIT(*) PLANE_ANGLE_UNIT() SI_UNIT($,.RADIAN.) );
#50 = ( NAMED_UNIT(*) SI_UNIT($,.STERADIAN.) SOLID_ANGLE_UNIT() );
#51 = UNCERTAINTY_MEASURE_WITH_UNIT(LENGTH_MEASURE(1.E-07),#48,
  'distance_accuracy_value','confusion accuracy');
#52 = PRODUCT_RELATED_PRODUCT_CATEGORY('part',$,(#7));
#53 = SHAPE_DEFINITION_REPRESENTATION(#54,#60);
#54 = PRODUCT_DEFINITION_SHAPE('','',#55);
#55 = PRODUCT_DEFINITION('design','',#56,#59);
#56 = PRODUCT_DEFINITION_FORMATION('','',#57);
#57 = PRODUCT('part0','part0','',(#58));
#58 = PRODUCT_CONTEXT('',#2,'mechanical');
#59 = PRODUCT_DEFINITION_CONTEXT('part definition',#2,'design');
#60 = ADVANCED_BREP_SHAPE_REPRESENTATION('',(#11,#61),#104);
#61 = MANIFOLD_SOLID_BREP('',#62);
#62 = CLOSED_SHELL('',(#63));
#63 = ADVANCED_FACE('',(#64),#68,.T.);
#64 = FACE_BOUND('',#65,.T.);
#65 = VERTEX_LOOP('',#66);
#66 = VERTEX_POINT('',#67);
#67 = CARTESIAN_POINT('',(1.347111479062E-12,-1.499759782662E-28,-4.E+03
    ));
#68 = ( BOUNDED_SURFACE() B_SPLINE_SURFACE(2,2,(
    (#69,#70,#71,#72,#73)
    ,(#74,#75,#76,#77,#78)
    ,(#79,#80,#81,#82,#83)
    ,(#84,#85,#86,#87,#88)
    ,(#89,#90,#91,#92,#93)
    ,(#94,#95,#96,#97,#98)
    ,(#99,#100,#101,#102,#103
)),.UNSPECIFIED.,.T.,.F.,.F.) B_SPLINE_SURFACE_WITH_KNOTS((1,2,2,2,2,1),
  (3,2,3),(-2.094395102393,0.,2.094395102393,4.188790204786,
    6.28318530718,8.377580409573),(-1.570796326795,0.,1.570796326795),
.UNSPECIFIED.) GEOMETRIC_REPRESENTATION_ITEM() RATIONAL_B_SPLINE_SURFACE
((
    (1.,0.707106781187,1.,0.707106781187,1.)
    ,(0.5,0.353553390593,0.5,0.353553390593,0.5)
    ,(1.,0.707106781187,1.,0.707106781187,1.)
    ,(0.5,0.353553390593,0.5,0.353553390593,0.5)
    ,(1.,0.707106781187,1.,0.707106781187,1.)
    ,(0.5,0.353553390593,0.5,0.353553390593,0.5)
,(1.,0.707106781187,1.,0.707106781187,1.
))) REPRESENTATION_ITEM('') SURFACE() );
#69 = CARTESIAN_POINT('',(1.347111479062E-12,0.,-4.E+03));
#70 = CARTESIAN_POINT('',(2.2E+04,0.,-4.E+03));
#71 = CARTESIAN_POINT('',(2.2E+04,0.,0.));
#72 = CARTESIAN_POINT('',(2.2E+04,0.,4.E+03));
#73 = CARTESIAN_POINT('',(1.347111479062E-12,0.,4.E+03));
#74 = CARTESIAN_POINT('',(1.347111479062E-12,1.060575238725E-12,-4.E+03)
  );
#75 = CARTESIAN_POINT('',(2.2E+04,1.732050807569E+04,-4.E+03));
#76 = CARTESIAN_POINT('',(2.2E+04,1.732050807569E+04,0.));
#77 = CARTESIAN_POINT('',(2.2E+04,1.732050807569E+04,4.E+03));
#78 = CARTESIAN_POINT('',(1.347111479062E-12,1.060575238725E-12,4.E+03)
  );
#79 = CARTESIAN_POINT('',(-6.73555739531E-13,5.302876193625E-13,-4.E+03)
  );
#80 = CARTESIAN_POINT('',(-1.1E+04,8.660254037844E+03,-4.E+03));
#81 = CARTESIAN_POINT('',(-1.1E+04,8.660254037844E+03,0.));
#82 = CARTESIAN_POINT('',(-1.1E+04,8.660254037844E+03,4.E+03));
#83 = CARTESIAN_POINT('',(-6.73555739531E-13,5.302876193625E-13,4.E+03)
  );
#84 = CARTESIAN_POINT('',(-2.694222958124E-12,1.499759782662E-28,-4.E+03
    ));
#85 = CARTESIAN_POINT('',(-4.4E+04,2.449293598295E-12,-4.E+03));
#86 = CARTESIAN_POINT('',(-4.4E+04,2.449293598295E-12,0.));
#87 = CARTESIAN_POINT('',(-4.4E+04,2.449293598295E-12,4.E+03));
#88 = CARTESIAN_POINT('',(-2.694222958124E-12,1.499759782662E-28,4.E+03)
  );
#89 = CARTESIAN_POINT('',(-6.73555739531E-13,-5.302876193625E-13,-4.E+03
    ));
#90 = CARTESIAN_POINT('',(-1.1E+04,-8.660254037844E+03,-4.E+03));
#91 = CARTESIAN_POINT('',(-1.1E+04,-8.660254037844E+03,0.));
#92 = CARTESIAN_POINT('',(-1.1E+04,-8.660254037844E+03,4.E+03));
#93 = CARTESIAN_POINT('',(-6.73555739531E-13,-5.302876193625E-13,4.E+03)
  );
#94 = CARTESIAN_POINT('',(1.347111479062E-12,-1.060575238725E-12,-4.E+03
    ));
#95 = CARTESIAN_POINT('',(2.2E+04,-1.732050807569E+04,-4.E+03));
#96 = CARTESIAN_POINT('',(2.2E+04,-1.732050807569E+04,0.));
#97 = CARTESIAN_POINT('',(2.2E+04,-1.732050807569E+04,4.E+03));
#98 = CARTESIAN_POINT('',(1.347111479062E-12,-1.060575238725E-12,4.E+03)
  );
#99 = CARTESIAN_POINT('',(1.347111479062E-12,0.,-4.E+03));
#100 = CARTESIAN_POINT('',(2.2E+04,0.,-4.E+03));
#101 = CARTESIAN_POINT('',(2.2E+04,0.,0.));
#102 = CARTESIAN_POINT('',(2.2E+04,0.,4.E+03));
#103 = CARTESIAN_POINT('',(1.347111479062E-12,0.,4.E+03));
#104 = ( GEOMETRIC_REPRESENTATION_CONTEXT(3) 
GLOBAL_UNCERTAINTY_ASSIGNED_CONTEXT((#108)) GLOBAL_UNIT_ASSIGNED_CONTEXT
((#105,#106,#107)) REPRESENTATION_CONTEXT('Context #1',
  '3D Context with UNIT and UNCERTAINTY') );
#105 = ( LENGTH_UNIT() NAMED_UNIT(*) SI_UNIT(.MILLI.,.METRE.) );
#106 = ( NAMED_UNIT(*) PLANE_ANGLE_UNIT() SI_UNIT($,.RADIAN.) );
#107 = ( NAMED_UNIT(*) SI_UNIT($,.STERADIAN.) SOLID_ANGLE_UNIT() );
#108 = UNCERTAINTY_MEASURE_WITH_UNIT(LENGTH_MEASURE(1.E-07),#105,
  'distance_accuracy_value','confusion accuracy');
#109 = CONTEXT_DEPENDENT_SHAPE_REPRESENTATION(#110,#112);
#110 = ( REPRESENTATION_RELATIONSHIP('','',#60,#10) 
REPRESENTATION_RELATIONSHIP_WITH_TRANSFORMATION(#111) 
SHAPE_REPRESENTATION_RELATIONSHIP() );
#111 = ITEM_DEFINED_TRANSFORMATION('','',#11,#15);
#112 = PRODUCT_DEFINITION_SHAPE('Placement','Placement of an item',#113
  );
#113 = NEXT_ASSEMBLY_USAGE_OCCURRENCE('237','part0','',#5,#55,$);
#114 = PRODUCT_RELATED_PRODUCT_CATEGORY('part',$,(#57));
#115 = SHAPE_DEFINITION_REPRESENTATION(#116,#122);
#116 = PRODUCT_DEFINITION_SHAPE('','',#117);
#117 = PRODUCT_DEFINITION('design','',#118,#121);
#118 = PRODUCT_DEFINITION_FORMATION('','',#119);
#119 = PRODUCT('part1','part1','',(#120));
#120 = PRODUCT_CONTEXT('',#2,'mechanical');
#121 = PRODUCT_DEFINITION_CONTEXT('part definition',#2,'design');
#122 = ADVANCED_BREP_SHAPE_REPRESENTATION('',(#11,#123),#166);
#123 = MANIFOLD_SOLID_BREP('',#124);
#124 = CLOSED_SHELL('',(#125));
#125 = ADVANCED_FACE('',(#126),#130,.T.);
#126 = FACE_BOUND('',#127,.T.);
#127 = VERTEX_LOOP('',#128);
#128 = VERTEX_POINT('',#129);
#129 = CARTESIAN_POINT('',(2.25050954038E+03,1.586795946945E+03,
    -235.3034738949));
#130 = ( BOUNDED_SURFACE() B_SPLINE_SURFACE(2,2,(
    (#131,#132,#133,#134,#135)
    ,(#136,#137,#138,#139,#140)
    ,(#141,#142,#143,#144,#145)
    ,(#146,#147,#148,#149,#150)
    ,(#151,#152,#153,#154,#155)
    ,(#156,#157,#158,#159,#160)
    ,(#161,#162,#163,#164,#165
)),.UNSPECIFIED.,.T.,.F.,.F.) B_SPLINE_SURFACE_WITH_KNOTS((1,2,2,2,2,1),
  (3,2,3),(-2.094395102393,0.,2.094395102393,4.188790204786,
    6.28318530718,8.377580409573),(-1.570796326795,0.,1.570796326795),
.UNSPECIFIED.) GEOMETRIC_REPRESENTATION_ITEM() RATIONAL_B_SPLINE_SURFACE
((
    (1.,0.707106781187,1.,0.707106781187,1.)
    ,(0.5,0.353553390593,0.5,0.353553390593,0.5)
    ,(1.,0.707106781187,1.,0.707106781187,1.)
    ,(0.5,0.353553390593,0.5,0.353553390593,0.5)
    ,(1.,0.707106781187,1.,0.707106781187,1.)
    ,(0.5,0.353553390593,0.5,0.353553390593,0.5)
,(1.,0.707106781187,1.,0.707106781187,1.
))) REPRESENTATION_ITEM('') SURFACE() );
#131 = CARTESIAN_POINT('',(2.25050954038E+03,1.586795946945E+03,
    -235.3034738949));
#132 = CARTESIAN_POINT('',(9.70152112003E+03,1.586795946945E+03,
    -235.3034738949));
#133 = CARTESIAN_POINT('',(9.70152112003E+03,1.586795946945E+03,
    5.725505789825E+03));
#134 = CARTESIAN_POINT('',(9.70152112003E+03,1.586795946945E+03,
    1.168631505354E+04));
#135 = CARTESIAN_POINT('',(2.25050954038E+03,1.586795946945E+03,
    1.168631505354E+04));
#136 = CARTESIAN_POINT('',(2.25050954038E+03,1.586795946945E+03,
    -235.3034738949));
#137 = CARTESIAN_POINT('',(9.70152112003E+03,1.449232657068E+04,
    -235.3034738949));
#138 = CARTESIAN_POINT('',(9.70152112003E+03,1.449232657068E+04,
    5.725505789825E+03));
#139 = CARTESIAN_POINT('',(9.70152112003E+03,1.449232657068E+04,
    1.168631505354E+04));
#140 = CARTESIAN_POINT('',(2.25050954038E+03,1.586795946945E+03,
    1.168631505354E+04));
#141 = CARTESIAN_POINT('',(2.25050954038E+03,1.586795946945E+03,
    -235.3034738949));
#142 = CARTESIAN_POINT('',(-1.474996249445E+03,8.039561258814E+03,
    -235.3034738949));
#143 = CARTESIAN_POINT('',(-1.474996249445E+03,8.039561258814E+03,
    5.725505789825E+03));
#144 = CARTESIAN_POINT('',(-1.474996249445E+03,8.039561258814E+03,
    1.168631505354E+04));
#145 = CARTESIAN_POINT('',(2.25050954038E+03,1.586795946945E+03,
    1.168631505354E+04));
#146 = CARTESIAN_POINT('',(2.25050954038E+03,1.586795946945E+03,
    -235.3034738949));
#147 = CARTESIAN_POINT('',(-1.265151361892E+04,1.586795946945E+03,
    -235.3034738949));
#148 = CARTESIAN_POINT('',(-1.265151361892E+04,1.586795946945E+03,
    5.725505789825E+03));
#149 = CARTESIAN_POINT('',(-1.265151361892E+04,1.586795946945E+03,
    1.168631505354E+04));
#150 = CARTESIAN_POINT('',(2.25050954038E+03,1.586795946945E+03,
    1.168631505354E+04));
#151 = CARTESIAN_POINT('',(2.25050954038E+03,1.586795946945E+03,
    -235.3034738949));
#152 = CARTESIAN_POINT('',(-1.474996249445E+03,-4.865969364923E+03,
    -235.3034738949));
#153 = CARTESIAN_POINT('',(-1.474996249445E+03,-4.865969364923E+03,
    5.725505789825E+03));
#154 = CARTESIAN_POINT('',(-1.474996249445E+03,-4.865969364923E+03,
    1.168631505354E+04));
#155 = CARTESIAN_POINT('',(2.25050954038E+03,1.586795946945E+03,
    1.168631505354E+04));
#156 = CARTESIAN_POINT('',(2.25050954038E+03,1.586795946945E+03,
    -235.3034738949));
#157 = CARTESIAN_POINT('',(9.70152112003E+03,-1.131873467679E+04,
    -235.3034738949));
#158 = CARTESIAN_POINT('',(9.70152112003E+03,-1.131873467679E+04,
    5.725505789825E+03));
#159 = CARTESIAN_POINT('',(9.70152112003E+03,-1.131873467679E+04,
    1.168631505354E+04));
#160 = CARTESIAN_POINT('',(2.25050954038E+03,1.586795946945E+03,
    1.168631505354E+04));
#161 = CARTESIAN_POINT('',(2.25050954038E+03,1.586795946945E+03,
    -235.3034738949));
#162 = CARTESIAN_POINT('',(9.70152112003E+03,1.586795946945E+03,
    -235.3034738949));
#163 = CARTESIAN_POINT('',(9.70152112003E+03,1.586795946945E+03,
    5.725505789825E+03));
#164 = CARTESIAN_POINT('',(9.70152112003E+03,1.586795946945E+03,
    1.168631505354E+04));
#165 = CARTESIAN_POINT('',(2.25050954038E+03,1.586795946945E+03,
    1.168631505354E+04));
#166 = ( GEOMETRIC_REPRESENTATION_CONTEXT(3) 
GLOBAL_UNCERTAINTY_ASSIGNED_CONTEXT((#170)) GLOBAL_UNIT_ASSIGNED_CONTEXT
((#167,#168,#169)) REPRESENTATION_CONTEXT('Context #1',
  '3D Context with UNIT and UNCERTAINTY') );
#167 = ( LENGTH_UNIT() NAMED_UNIT(*) SI_UNIT(.MILLI.,.METRE.) );
#168 = ( NAMED_UNIT(*) PLANE_ANGLE_UNIT() SI_UNIT($,.RADIAN.) );
#169 = ( NAMED_UNIT(*) SI_UNIT($,.STERADIAN.) SOLID_ANGLE_UNIT() );
#170 = UNCERTAINTY_MEASURE_WITH_UNIT(LENGTH_MEASURE(1.E-07),#167,
  'distance_accuracy_value','confusion accuracy');
#171 = CONTEXT_DEPENDENT_SHAPE_REPRESENTATION(#172,#174);
#172 = ( REPRESENTATION_RELATIONSHIP('','',#122,#10) 
REPRESENTATION_RELATIONSHIP_WITH_TRANSFORMATION(#173) 
SHAPE_REPRESENTATION_RELATIONSHIP() );
#173 = ITEM_DEFINED_TRANSFORMATION('','',#11,#19);
#174 = PRODUCT_DEFINITION_SHAPE('Placement','Placement of an item',#175
  );
#175 = NEXT_ASSEMBLY_USAGE_OCCURRENCE('238','part1','',#5,#117,$);
#176 = PRODUCT_RELATED_PRODUCT_CATEGORY('part',$,(#119));
#177 = SHAPE_DEFINITION_REPRESENTATION(#178,#184);
#178 = PRODUCT_DEFINITION_SHAPE('','',#179);
#179 = PRODUCT_DEFINITION('design','',#180,#183);
#180 = PRODUCT_DEFINITION_FORMATION('','',#181);
#181 = PRODUCT('part2','part2','',(#182));
#182 = PRODUCT_CONTEXT('',#2,'mechanical');
#183 = PRODUCT_DEFINITION_CONTEXT('part definition',#2,'design');
#184 = ADVANCED_BREP_SHAPE_REPRESENTATION('',(#11,#185),#228);
#185 = MANIFOLD_SOLID_BREP('',#186);
#186 = CLOSED_SHELL('',(#187));
#187 = ADVANCED_FACE('',(#188),#192,.T.);
#188 = FACE_BOUND('',#189,.T.);
#189 = VERTEX_LOOP('',#190);
#190 = VERTEX_POINT('',#191);
#191 = CARTESIAN_POINT('',(-7.126692657717E+03,1.822319616103E+03,
    -301.7298600033));
#192 = ( BOUNDED_SURFACE() B_SPLINE_SURFACE(2,2,(
    (#193,#194,#195,#196,#197)
    ,(#198,#199,#200,#201,#202)
    ,(#203,#204,#205,#206,#207)
    ,(#208,#209,#210,#211,#212)
    ,(#213,#214,#215,#216,#217)
    ,(#218,#219,#220,#221,#222)
    ,(#223,#224,#225,#226,#227
)),.UNSPECIFIED.,.T.,.F.,.F.) B_SPLINE_SURFACE_WITH_KNOTS((1,2,2,2,2,1),
  (3,2,3),(-2.094395102393,0.,2.094395102393,4.188790204786,
    6.28318530718,8.377580409573),(-1.570796326795,0.,1.570796326795),
.UNSPECIFIED.) GEOMETRIC_REPRESENTATION_ITEM() RATIONAL_B_SPLINE_SURFACE
((
    (1.,0.707106781187,1.,0.707106781187,1.)
    ,(0.5,0.353553390593,0.5,0.353553390593,0.5)
    ,(1.,0.707106781187,1.,0.707106781187,1.)
    ,(0.5,0.353553390593,0.5,0.353553390593,0.5)
    ,(1.,0.707106781187,1.,0.707106781187,1.)
    ,(0.5,0.353553390593,0.5,0.353553390593,0.5)
,(1.,0.707106781187,1.,0.707106781187,1.
))) REPRESENTATION_ITEM('') SURFACE() );
#193 = CARTESIAN_POINT('',(-7.126692657717E+03,1.822319616103E+03,
    -301.7298600033));
#194 = CARTESIAN_POINT('',(545.74020896087,1.822319616103E+03,
    -301.7298600033));
#195 = CARTESIAN_POINT('',(545.74020896087,1.822319616103E+03,
    5.836216433339E+03));
#196 = CARTESIAN_POINT('',(545.74020896087,1.822319616103E+03,
    1.197416272668E+04));
#197 = CARTESIAN_POINT('',(-7.126692657717E+03,1.822319616103E+03,
    1.197416272668E+04));
#198 = CARTESIAN_POINT('',(-7.126692657717E+03,1.822319616103E+03,
    -301.7298600033));
#199 = CARTESIAN_POINT('',(545.74020896087,1.511136315885E+04,
    -301.7298600033));
#200 = CARTESIAN_POINT('',(545.74020896087,1.511136315885E+04,
    5.836216433339E+03));
#201 = CARTESIAN_POINT('',(545.74020896087,1.511136315885E+04,
    1.197416272668E+04));
#202 = CARTESIAN_POINT('',(-7.126692657717E+03,1.822319616103E+03,
    1.197416272668E+04));
#203 = CARTESIAN_POINT('',(-7.126692657717E+03,1.822319616103E+03,
    -301.7298600033));
#204 = CARTESIAN_POINT('',(-1.096290909106E+04,8.466841387477E+03,
    -301.7298600033));
#205 = CARTESIAN_POINT('',(-1.096290909106E+04,8.466841387477E+03,
    5.836216433339E+03));
#206 = CARTESIAN_POINT('',(-1.096290909106E+04,8.466841387477E+03,
    1.197416272668E+04));
#207 = CARTESIAN_POINT('',(-7.126692657717E+03,1.822319616103E+03,
    1.197416272668E+04));
#208 = CARTESIAN_POINT('',(-7.126692657717E+03,1.822319616103E+03,
    -301.7298600033));
#209 = CARTESIAN_POINT('',(-2.247155839107E+04,1.822319616103E+03,
    -301.7298600033));
#210 = CARTESIAN_POINT('',(-2.247155839107E+04,1.822319616103E+03,
    5.836216433339E+03));
#211 = CARTESIAN_POINT('',(-2.247155839107E+04,1.822319616103E+03,
    1.197416272668E+04));
#212 = CARTESIAN_POINT('',(-7.126692657717E+03,1.822319616103E+03,
    1.197416272668E+04));
#213 = CARTESIAN_POINT('',(-7.126692657717E+03,1.822319616103E+03,
    -301.7298600033));
#214 = CARTESIAN_POINT('',(-1.096290909106E+04,-4.822202155271E+03,
    -301.7298600033));
#215 = CARTESIAN_POINT('',(-1.096290909106E+04,-4.822202155271E+03,
    5.836216433339E+03));
#216 = CARTESIAN_POINT('',(-1.096290909106E+04,-4.822202155271E+03,
    1.197416272668E+04));
#217 = CARTESIAN_POINT('',(-7.126692657717E+03,1.822319616103E+03,
    1.197416272668E+04));
#218 = CARTESIAN_POINT('',(-7.126692657717E+03,1.822319616103E+03,
    -301.7298600033));
#219 = CARTESIAN_POINT('',(545.74020896086,-1.146672392664E+04,
    -301.7298600033));
#220 = CARTESIAN_POINT('',(545.74020896086,-1.146672392664E+04,
    5.836216433339E+03));
#221 = CARTESIAN_POINT('',(545.74020896086,-1.146672392664E+04,
    1.197416272668E+04));
#222 = CARTESIAN_POINT('',(-7.126692657717E+03,1.822319616103E+03,
    1.197416272668E+04));
#223 = CARTESIAN_POINT('',(-7.126692657717E+03,1.822319616103E+03,
    -301.7298600033));
#224 = CARTESIAN_POINT('',(545.74020896087,1.822319616103E+03,
    -301.7298600033));
#225 = CARTESIAN_POINT('',(545.74020896087,1.822319616103E+03,
    5.836216433339E+03));
#226 = CARTESIAN_POINT('',(545.74020896087,1.822319616103E+03,
    1.197416272668E+04));
#227 = CARTESIAN_POINT('',(-7.126692657717E+03,1.822319616103E+03,
    1.197416272668E+04));
#228 = ( GEOMETRIC_REPRESENTATION_CONTEXT(3) 
GLOBAL_UNCERTAINTY_ASSIGNED_CONTEXT((#232)) GLOBAL_UNIT_ASSIGNED_CONTEXT
((#229,#230,#231)) REPRESENTATION_CONTEXT('Context #1',
  '3D Context with UNIT and UNCERTAINTY') );
#229 = ( LENGTH_UNIT() NAMED_UNIT(*) SI_UNIT(.MILLI.,.METRE.) );
#230 = ( NAMED_UNIT(*) PLANE_ANGLE_UNIT() SI_UNIT($,.RADIAN.) );
#231 = ( NAMED_UNIT(*) SI_UNIT($,.STERADIAN.) SOLID_ANGLE_UNIT() );
#232 = UNCERTAINTY_MEASURE_WITH_UNIT(LENGTH_MEASURE(1.E-07),#229,
  'distance_accuracy_value','confusion accuracy');
#233 = CONTEXT_DEPENDENT_SHAPE_REPRESENTATION(#234,#236);
#234 = ( REPRESENTATION_RELATIONSHIP('','',#184,#10) 
REPRESENTATION_RELATIONSHIP_WITH_TRANSFORMATION(#235) 
SHAPE_REPRESENTATION_RELATIONSHIP() );
#235 = ITEM_DEFINED_TRANSFORMATION('','',#11,#23);
#236 = PRODUCT_DEFINITION_SHAPE('Placement','Placement of an item',#237
  );
#237 = NEXT_ASSEMBLY_USAGE_OCCURRENCE('239','part2','',#5,#179,$);
#238 = PRODUCT_RELATED_PRODUCT_CATEGORY('part',$,(#181));
#239 = SHAPE_DEFINITION_REPRESENTATION(#240,#246);
#240 = PRODUCT_DEFINITION_SHAPE('','',#241);
#241 = PRODUCT_DEFINITION('design','',#242,#245);
#242 = PRODUCT_DEFINITION_FORMATION('','',#243);
#243 = PRODUCT('part3','part3','',(#244));
#244 = PRODUCT_CONTEXT('',#2,'mechanical');
#245 = PRODUCT_DEFINITION_CONTEXT('part definition',#2,'design');
#246 = ADVANCED_BREP_SHAPE_REPRESENTATION('',(#11,#247),#290);
#247 = MANIFOLD_SOLID_BREP('',#248);
#248 = CLOSED_SHELL('',(#249));
#249 = ADVANCED_FACE('',(#250),#254,.T.);
#250 = FACE_BOUND('',#251,.T.);
#251 = VERTEX_LOOP('',#252);
#252 = VERTEX_POINT('',#253);
#253 = CARTESIAN_POINT('',(1.308251274284E+04,-3.761849286029E+03,
    -86.55439849704));
#254 = ( BOUNDED_SURFACE() B_SPLINE_SURFACE(2,2,(
    (#255,#256,#257,#258,#259)
    ,(#260,#261,#262,#263,#264)
    ,(#265,#266,#267,#268,#269)
    ,(#270,#271,#272,#273,#274)
    ,(#275,#276,#277,#278,#279)
    ,(#280,#281,#282,#283,#284)
    ,(#285,#286,#287,#288,#289
)),.UNSPECIFIED.,.T.,.F.,.F.) B_SPLINE_SURFACE_WITH_KNOTS((1,2,2,2,2,1),
  (3,2,3),(-2.094395102393,0.,2.094395102393,4.188790204786,
    6.28318530718,8.377580409573),(-1.570796326795,0.,1.570796326795),
.UNSPECIFIED.) GEOMETRIC_REPRESENTATION_ITEM() RATIONAL_B_SPLINE_SURFACE
((
    (1.,0.707106781187,1.,0.707106781187,1.)
    ,(0.5,0.353553390593,0.5,0.353553390593,0.5)
    ,(1.,0.707106781187,1.,0.707106781187,1.)
    ,(0.5,0.353553390593,0.5,0.353553390593,0.5)
    ,(1.,0.707106781187,1.,0.707106781187,1.)
    ,(0.5,0.353553390593,0.5,0.353553390593,0.5)
,(1.,0.707106781187,1.,0.707106781187,1.
))) REPRESENTATION_ITEM('') SURFACE() );
#255 = CARTESIAN_POINT('',(1.308251274284E+04,-3.761849286029E+03,
    -86.55439849704));
#256 = CARTESIAN_POINT('',(2.003769407117E+04,-3.761849286029E+03,
    -86.55439849704));
#257 = CARTESIAN_POINT('',(2.003769407117E+04,-3.761849286029E+03,
    5.477590664162E+03));
#258 = CARTESIAN_POINT('',(2.003769407117E+04,-3.761849286029E+03,
    1.104173572682E+04));
#259 = CARTESIAN_POINT('',(1.308251274284E+04,-3.761849286029E+03,
    1.104173572682E+04));
#260 = CARTESIAN_POINT('',(1.308251274284E+04,-3.761849286029E+03,
    -86.55439849704));
#261 = CARTESIAN_POINT('',(2.003769407117E+04,8.284878150482E+03,
    -86.55439849704));
#262 = CARTESIAN_POINT('',(2.003769407117E+04,8.284878150482E+03,
    5.477590664162E+03));
#263 = CARTESIAN_POINT('',(2.003769407117E+04,8.284878150482E+03,
    1.104173572682E+04));
#264 = CARTESIAN_POINT('',(1.308251274284E+04,-3.761849286029E+03,
    1.104173572682E+04));
#265 = CARTESIAN_POINT('',(1.308251274284E+04,-3.761849286029E+03,
    -86.55439849704));
#266 = CARTESIAN_POINT('',(9.604922078682E+03,2.261514432226E+03,
    -86.55439849704));
#267 = CARTESIAN_POINT('',(9.604922078682E+03,2.261514432226E+03,
    5.477590664162E+03));
#268 = CARTESIAN_POINT('',(9.604922078682E+03,2.261514432226E+03,
    1.104173572682E+04));
#269 = CARTESIAN_POINT('',(1.308251274284E+04,-3.761849286029E+03,
    1.104173572682E+04));
#270 = CARTESIAN_POINT('',(1.308251274284E+04,-3.761849286029E+03,
    -86.55439849704));
#271 = CARTESIAN_POINT('',(-827.8499138031,-3.761849286029E+03,
    -86.55439849704));
#272 = CARTESIAN_POINT('',(-827.8499138031,-3.761849286029E+03,
    5.477590664162E+03));
#273 = CARTESIAN_POINT('',(-827.8499138031,-3.761849286029E+03,
    1.104173572682E+04));
#274 = CARTESIAN_POINT('',(1.308251274284E+04,-3.761849286029E+03,
    1.104173572682E+04));
#275 = CARTESIAN_POINT('',(1.308251274284E+04,-3.761849286029E+03,
    -86.55439849704));
#276 = CARTESIAN_POINT('',(9.604922078682E+03,-9.785213004284E+03,
    -86.55439849704));
#277 = CARTESIAN_POINT('',(9.604922078682E+03,-9.785213004284E+03,
    5.477590664162E+03));
#278 = CARTESIAN_POINT('',(9.604922078682E+03,-9.785213004284E+03,
    1.104173572682E+04));
#279 = CARTESIAN_POINT('',(1.308251274284E+04,-3.761849286029E+03,
    1.104173572682E+04));
#280 = CARTESIAN_POINT('',(1.308251274284E+04,-3.761849286029E+03,
    -86.55439849704));
#281 = CARTESIAN_POINT('',(2.003769407117E+04,-1.580857672254E+04,
    -86.55439849704));
#282 = CARTESIAN_POINT('',(2.003769407117E+04,-1.580857672254E+04,
    5.477590664162E+03));
#283 = CARTESIAN_POINT('',(2.003769407117E+04,-1.580857672254E+04,
    1.104173572682E+04));
#284 = CARTESIAN_POINT('',(1.308251274284E+04,-3.761849286029E+03,
    1.104173572682E+04));
#285 = CARTESIAN_POINT('',(1.308251274284E+04,-3.761849286029E+03,
    -86.55439849704));
#286 = CARTESIAN_POINT('',(2.003769407117E+04,-3.761849286029E+03,
    -86.55439849704));
#287 = CARTESIAN_POINT('',(2.003769407117E+04,-3.761849286029E+03,
    5.477590664162E+03));
#288 = CARTESIAN_POINT('',(2.003769407117E+04,-3.761849286029E+03,
    1.104173572682E+04));
#289 = CARTESIAN_POINT('',(1.308251274284E+04,-3.761849286029E+03,
    1.104173572682E+04));
#290 = ( GEOMETRIC_REPRESENTATION_CONTEXT(3) 
GLOBAL_UNCERTAINTY_ASSIGNED_CONTEXT((#294)) GLOBAL_UNIT_ASSIGNED_CONTEXT
((#291,#292,#293)) REPRESENTATION_CONTEXT('Context #1',
  '3D Context with UNIT and UNCERTAINTY') );
#291 = ( LENGTH_UNIT() NAMED_UNIT(*) SI_UNIT(.MILLI.,.METRE.) );
#292 = ( NAMED_UNIT(*) PLANE_ANGLE_UNIT() SI_UNIT($,.RADIAN.) );
#293 = ( NAMED_UNIT(*) SI_UNIT($,.STERADIAN.) SOLID_ANGLE_UNIT() );
#294 = UNCERTAINTY_MEASURE_WITH_UNIT(LENGTH_MEASURE(1.E-07),#291,
  'distance_accuracy_value','confusion accuracy');
#295 = CONTEXT_DEPENDENT_SHAPE_REPRESENTATION(#296,#298);
#296 = ( REPRESENTATION_RELATIONSHIP('','',#246,#10) 
REPRESENTATION_RELATIONSHIP_WITH_TRANSFORMATION(#297) 
SHAPE_REPRESENTATION_RELATIONSHIP() );
#297 = ITEM_DEFINED_TRANSFORMATION('','',#11,#27);
#298 = PRODUCT_DEFINITION_SHAPE('Placement','Placement of an item',#299
  );
#299 = NEXT_ASSEMBLY_USAGE_OCCURRENCE('240','part3','',#5,#241,$);
#300 = PRODUCT_RELATED_PRODUCT_CATEGORY('part',$,(#243));
#301 = SHAPE_DEFINITION_REPRESENTATION(#302,#308);
#302 = PRODUCT_DEFINITION_SHAPE('','',#303);
#303 = PRODUCT_DEFINITION('design','',#304,#307);
#304 = PRODUCT_DEFINITION_FORMATION('','',#305);
#305 = PRODUCT('part4','part4','',(#306));
#306 = PRODUCT_CONTEXT('',#2,'mechanical');
#307 = PRODUCT_DEFINITION_CONTEXT('part definition',#2,'design');
#308 = ADVANCED_BREP_SHAPE_REPRESENTATION('',(#11,#309),#352);
#309 = MANIFOLD_SOLID_BREP('',#310);
#310 = CLOSED_SHELL('',(#311));
#311 = ADVANCED_FACE('',(#312),#316,.T.);
#312 = FACE_BOUND('',#313,.T.);
#313 = VERTEX_LOOP('',#314);
#314 = VERTEX_POINT('',#315);
#315 = CARTESIAN_POINT('',(3.747752891423E+03,40.726064532569,
    -369.5781686777));
#316 = ( BOUNDED_SURFACE() B_SPLINE_SURFACE(2,2,(
    (#317,#318,#319,#320,#321)
    ,(#322,#323,#324,#325,#326)
    ,(#327,#328,#329,#330,#331)
    ,(#332,#333,#334,#335,#336)
    ,(#337,#338,#339,#340,#341)
    ,(#342,#343,#344,#345,#346)
    ,(#347,#348,#349,#350,#351
)),.UNSPECIFIED.,.T.,.F.,.F.) B_SPLINE_SURFACE_WITH_KNOTS((1,2,2,2,2,1),
  (3,2,3),(-2.094395102393,0.,2.094395102393,4.188790204786,
    6.28318530718,8.377580409573),(-1.570796326795,0.,1.570796326795),
.UNSPECIFIED.) GEOMETRIC_REPRESENTATION_ITEM() RATIONAL_B_SPLINE_SURFACE
((
    (1.,0.707106781187,1.,0.707106781187,1.)
    ,(0.5,0.353553390593,0.5,0.353553390593,0.5)
    ,(1.,0.707106781187,1.,0.707106781187,1.)
    ,(0.5,0.353553390593,0.5,0.353553390593,0.5)
    ,(1.,0.707106781187,1.,0.707106781187,1.)
    ,(0.5,0.353553390593,0.5,0.353553390593,0.5)
,(1.,0.707106781187,1.,0.707106781187,1.
))) REPRESENTATION_ITEM('') SURFACE() );
#317 = CARTESIAN_POINT('',(3.747752891423E+03,40.726064532569,
    -369.5781686777));
#318 = CARTESIAN_POINT('',(1.164634678702E+04,40.726064532569,
    -369.5781686777));
#319 = CARTESIAN_POINT('',(1.164634678702E+04,40.726064532569,
    5.949296947796E+03));
#320 = CARTESIAN_POINT('',(1.164634678702E+04,40.726064532569,
    1.226817206427E+04));
#321 = CARTESIAN_POINT('',(3.747752891423E+03,40.726064532569,
    1.226817206427E+04));
#322 = CARTESIAN_POINT('',(3.747752891423E+03,40.72606453257,
    -369.5781686777));
#323 = CARTESIAN_POINT('',(1.164634678702E+04,1.372149200005E+04,
    -369.5781686777));
#324 = CARTESIAN_POINT('',(1.164634678702E+04,1.372149200005E+04,
    5.949296947796E+03));
#325 = CARTESIAN_POINT('',(1.164634678702E+04,1.372149200005E+04,
    1.226817206427E+04));
#326 = CARTESIAN_POINT('',(3.747752891423E+03,40.72606453257,
    1.226817206427E+04));
#327 = CARTESIAN_POINT('',(3.747752891423E+03,40.726064532569,
    -369.5781686777));
#328 = CARTESIAN_POINT('',(-201.5440563732,6.881109032292E+03,
    -369.5781686777));
#329 = CARTESIAN_POINT('',(-201.5440563732,6.881109032292E+03,
    5.949296947796E+03));
#330 = CARTESIAN_POINT('',(-201.5440563732,6.881109032292E+03,
    1.226817206427E+04));
#331 = CARTESIAN_POINT('',(3.747752891423E+03,40.726064532569,
    1.226817206427E+04));
#332 = CARTESIAN_POINT('',(3.747752891423E+03,40.726064532569,
    -369.5781686777));
#333 = CARTESIAN_POINT('',(-1.204943489976E+04,40.726064532571,
    -369.5781686777));
#334 = CARTESIAN_POINT('',(-1.204943489976E+04,40.726064532571,
    5.949296947796E+03));
#335 = CARTESIAN_POINT('',(-1.204943489976E+04,40.726064532571,
    1.226817206427E+04));
#336 = CARTESIAN_POINT('',(3.747752891423E+03,40.726064532569,
    1.226817206427E+04));
#337 = CARTESIAN_POINT('',(3.747752891423E+03,40.726064532568,
    -369.5781686777));
#338 = CARTESIAN_POINT('',(-201.5440563732,-6.799656903227E+03,
    -369.5781686777));
#339 = CARTESIAN_POINT('',(-201.5440563732,-6.799656903227E+03,
    5.949296947796E+03));
#340 = CARTESIAN_POINT('',(-201.5440563732,-6.799656903227E+03,
    1.226817206427E+04));
#341 = CARTESIAN_POINT('',(3.747752891423E+03,40.726064532568,
    1.226817206427E+04));
#342 = CARTESIAN_POINT('',(3.747752891423E+03,40.726064532568,
    -369.5781686777));
#343 = CARTESIAN_POINT('',(1.164634678702E+04,-1.364003987099E+04,
    -369.5781686777));
#344 = CARTESIAN_POINT('',(1.164634678702E+04,-1.364003987099E+04,
    5.949296947796E+03));
#345 = CARTESIAN_POINT('',(1.164634678702E+04,-1.364003987099E+04,
    1.226817206427E+04));
#346 = CARTESIAN_POINT('',(3.747752891423E+03,40.726064532568,
    1.226817206427E+04));
#347 = CARTESIAN_POINT('',(3.747752891423E+03,40.726064532569,
    -369.5781686777));
#348 = CARTESIAN_POINT('',(1.164634678702E+04,40.726064532569,
    -369.5781686777));
#349 = CARTESIAN_POINT('',(1.164634678702E+04,40.726064532569,
    5.949296947796E+03));
#350 = CARTESIAN_POINT('',(1.164634678702E+04,40.726064532569,
    1.226817206427E+04));
#351 = CARTESIAN_POINT('',(3.747752891423E+03,40.726064532569,
    1.226817206427E+04));
#352 = ( GEOMETRIC_REPRESENTATION_CONTEXT(3) 
GLOBAL_UNCERTAINTY_ASSIGNED_CONTEXT((#356)) GLOBAL_UNIT_ASSIGNED_CONTEXT
((#353,#354,#355)) REPRESENTATION_CONTEXT('Context #1',
  '3D Context with UNIT and UNCERTAINTY') );
#353 = ( LENGTH_UNIT() NAMED_UNIT(*) SI_UNIT(.MILLI.,.METRE.) );
#354 = ( NAMED_UNIT(*) PLANE_ANGLE_UNIT() SI_UNIT($,.RADIAN.) );
#355 = ( NAMED_UNIT(*) SI_UNIT($,.STERADIAN.) SOLID_ANGLE_UNIT() );
#356 = UNCERTAINTY_MEASURE_WITH_UNIT(LENGTH_MEASURE(1.E-07),#353,
  'distance_accuracy_value','confusion accuracy');
#357 = CONTEXT_DEPENDENT_SHAPE_REPRESENTATION(#358,#360);
#358 = ( REPRESENTATION_RELATIONSHIP('','',#308,#10) 
REPRESENTATION_RELATIONSHIP_WITH_TRANSFORMATION(#359) 
SHAPE_REPRESENTATION_RELATIONSHIP() );
#359 = ITEM_DEFINED_TRANSFORMATION('','',#11,#31);
#360 = PRODUCT_DEFINITION_SHAPE('Placement','Placement of an item',#361
  );
#361 = NEXT_ASSEMBLY_USAGE_OCCURRENCE('241','part4','',#5,#303,$);
#362 = PRODUCT_RELATED_PRODUCT_CATEGORY('part',$,(#305));
#363 = SHAPE_DEFINITION_REPRESENTATION(#364,#370);
#364 = PRODUCT_DEFINITION_SHAPE('','',#365);
#365 = PRODUCT_DEFINITION('design','',#366,#369);
#366 = PRODUCT_DEFINITION_FORMATION('','',#367);
#367 = PRODUCT('part5','part5','',(#368));
#368 = PRODUCT_CONTEXT('',#2,'mechanical');
#369 = PRODUCT_DEFINITION_CONTEXT('part definition',#2,'design');
#370 = ADVANCED_BREP_SHAPE_REPRESENTATION('',(#11,#371),#414);
#371 = MANIFOLD_SOLID_BREP('',#372);
#372 = CLOSED_SHELL('',(#373));
#373 = ADVANCED_FACE('',(#374),#378,.T.);
#374 = FACE_BOUND('',#375,.T.);
#375 = VERTEX_LOOP('',#376);
#376 = VERTEX_POINT('',#377);
#377 = CARTESIAN_POINT('',(904.51919578673,-656.9508359845,
    -349.2050409736));
#378 = ( BOUNDED_SURFACE() B_SPLINE_SURFACE(2,2,(
    (#379,#380,#381,#382,#383)
    ,(#384,#385,#386,#387,#388)
    ,(#389,#390,#391,#392,#393)
    ,(#394,#395,#396,#397,#398)
    ,(#399,#400,#401,#402,#403)
    ,(#404,#405,#406,#407,#408)
    ,(#409,#410,#411,#412,#413
)),.UNSPECIFIED.,.T.,.F.,.F.) B_SPLINE_SURFACE_WITH_KNOTS((1,2,2,2,2,1),
  (3,2,3),(-2.094395102393,0.,2.094395102393,4.188790204786,
    6.28318530718,8.377580409573),(-1.570796326795,0.,1.570796326795),
.UNSPECIFIED.) GEOMETRIC_REPRESENTATION_ITEM() RATIONAL_B_SPLINE_SURFACE
((
    (1.,0.707106781187,1.,0.707106781187,1.)
    ,(0.5,0.353553390593,0.5,0.353553390593,0.5)
    ,(1.,0.707106781187,1.,0.707106781187,1.)
    ,(0.5,0.353553390593,0.5,0.353553390593,0.5)
    ,(1.,0.707106781187,1.,0.707106781187,1.)
    ,(0.5,0.353553390593,0.5,0.353553390593,0.5)
,(1.,0.707106781187,1.,0.707106781187,1.
))) REPRESENTATION_ITEM('') SURFACE() );
#379 = CARTESIAN_POINT('',(904.51919578673,-656.9508359845,
    -349.2050409736));
#380 = CARTESIAN_POINT('',(8.735202665699E+03,-656.9508359845,
    -349.2050409736));
#381 = CARTESIAN_POINT('',(8.735202665699E+03,-656.9508359845,
    5.915341734956E+03));
#382 = CARTESIAN_POINT('',(8.735202665699E+03,-656.9508359845,
    1.217988851089E+04));
#383 = CARTESIAN_POINT('',(904.51919578673,-656.9508359845,
    1.217988851089E+04));
#384 = CARTESIAN_POINT('',(904.51919578673,-656.9508359845,
    -349.2050409736));
#385 = CARTESIAN_POINT('',(8.735202665699E+03,1.290619079189E+04,
    -349.2050409736));
#386 = CARTESIAN_POINT('',(8.735202665699E+03,1.290619079189E+04,
    5.915341734956E+03));
#387 = CARTESIAN_POINT('',(8.735202665699E+03,1.290619079189E+04,
    1.217988851089E+04));
#388 = CARTESIAN_POINT('',(904.51919578673,-656.9508359845,
    1.217988851089E+04));
#389 = CARTESIAN_POINT('',(904.51919578673,-656.9508359845,
    -349.2050409736));
#390 = CARTESIAN_POINT('',(-3.010822539169E+03,6.124619977954E+03,
    -349.2050409736));
#391 = CARTESIAN_POINT('',(-3.010822539169E+03,6.124619977954E+03,
    5.915341734956E+03));
#392 = CARTESIAN_POINT('',(-3.010822539169E+03,6.124619977954E+03,
    1.217988851089E+04));
#393 = CARTESIAN_POINT('',(904.51919578673,-656.9508359845,
    1.217988851089E+04));
#394 = CARTESIAN_POINT('',(904.51919578673,-656.9508359845,
    -349.2050409736));
#395 = CARTESIAN_POINT('',(-1.475684774404E+04,-656.9508359845,
    -349.2050409736));
#396 = CARTESIAN_POINT('',(-1.475684774404E+04,-656.9508359845,
    5.915341734956E+03));
#397 = CARTESIAN_POINT('',(-1.475684774404E+04,-656.9508359845,
    1.217988851089E+04));
#398 = CARTESIAN_POINT('',(904.51919578673,-656.9508359845,
    1.217988851089E+04));
#399 = CARTESIAN_POINT('',(904.51919578673,-656.9508359845,
    -349.2050409736));
#400 = CARTESIAN_POINT('',(-3.010822539169E+03,-7.438521649923E+03,
    -349.2050409736));
#401 = CARTESIAN_POINT('',(-3.010822539169E+03,-7.438521649923E+03,
    5.915341734956E+03));
#402 = CARTESIAN_POINT('',(-3.010822539169E+03,-7.438521649923E+03,
    1.217988851089E+04));
#403 = CARTESIAN_POINT('',(904.51919578673,-656.9508359845,
    1.217988851089E+04));
#404 = CARTESIAN_POINT('',(904.51919578673,-656.9508359845,
    -349.2050409736));
#405 = CARTESIAN_POINT('',(8.735202665699E+03,-1.422009246386E+04,
    -349.2050409736));
#406 = CARTESIAN_POINT('',(8.735202665699E+03,-1.422009246386E+04,
    5.915341734956E+03));
#407 = CARTESIAN_POINT('',(8.735202665699E+03,-1.422009246386E+04,
    1.217988851089E+04));
#408 = CARTESIAN_POINT('',(904.51919578673,-656.9508359845,
    1.217988851089E+04));
#409 = CARTESIAN_POINT('',(904.51919578673,-656.9508359845,
    -349.2050409736));
#410 = CARTESIAN_POINT('',(8.735202665699E+03,-656.9508359845,
    -349.2050409736));
#411 = CARTESIAN_POINT('',(8.735202665699E+03,-656.9508359845,
    5.915341734956E+03));
#412 = CARTESIAN_POINT('',(8.735202665699E+03,-656.9508359845,
    1.217988851089E+04));
#413 = CARTESIAN_POINT('',(904.51919578673,-656.9508359845,
    1.217988851089E+04));
#414 = ( GEOMETRIC_REPRESENTATION_CONTEXT(3) 
GLOBAL_UNCERTAINTY_ASSIGNED_CONTEXT((#418)) GLOBAL_UNIT_ASSIGNED_CONTEXT
((#415,#416,#417)) REPRESENTATION_CONTEXT('Context #1',
  '3D Context with UNIT and UNCERTAINTY') );
#415 = ( LENGTH_UNIT() NAMED_UNIT(*) SI_UNIT(.MILLI.,.METRE.) );
#416 = ( NAMED_UNIT(*) PLANE_ANGLE_UNIT() SI_UNIT($,.RADIAN.) );
#417 = ( NAMED_UNIT(*) SI_UNIT($,.STERADIAN.) SOLID_ANGLE_UNIT() );
#418 = UNCERTAINTY_MEASURE_WITH_UNIT(LENGTH_MEASURE(1.E-07),#415,
  'distance_accuracy_value','confusion accuracy');
#419 = CONTEXT_DEPENDENT_SHAPE_REPRESENTATION(#420,#422);
#420 = ( REPRESENTATION_RELATIONSHIP('','',#370,#10) 
REPRESENTATION_RELATIONSHIP_WITH_TRANSFORMATION(#421) 
SHAPE_REPRESENTATION_RELATIONSHIP() );
#421 = ITEM_DEFINED_TRANSFORMATION('','',#11,#35);
#422 = PRODUCT_DEFINITION_SHAPE('Placement','Placement of an item',#423
  );
#423 = NEXT_ASSEMBLY_USAGE_OCCURRENCE('242','part5','',#5,#365,$);
#424 = PRODUCT_RELATED_PRODUCT_CATEGORY('part',$,(#367));
#425 = SHAPE_DEFINITION_REPRESENTATION(#426,#432);
#426 = PRODUCT_DEFINITION_SHAPE('','',#427);
#427 = PRODUCT_DEFINITION('design','',#428,#431);
#428 = PRODUCT_DEFINITION_FORMATION('','',#429);
#429 = PRODUCT('part6','part6','',(#430));
#430 = PRODUCT_CONTEXT('',#2,'mechanical');
#431 = PRODUCT_DEFINITION_CONTEXT('part definition',#2,'design');
#432 = ADVANCED_BREP_SHAPE_REPRESENTATION('',(#11,#433),#476);
#433 = MANIFOLD_SOLID_BREP('',#434);
#434 = CLOSED_SHELL('',(#435));
#435 = ADVANCED_FACE('',(#436),#440,.T.);
#436 = FACE_BOUND('',#437,.T.);
#437 = VERTEX_LOOP('',#438);
#438 = VERTEX_POINT('',#439);
#439 = CARTESIAN_POINT('',(4.339834468549E+03,-2.384466521701E+03,
    221.66652331935));
#440 = ( BOUNDED_SURFACE() B_SPLINE_SURFACE(2,2,(
    (#441,#442,#443,#444,#445)
    ,(#446,#447,#448,#449,#450)
    ,(#451,#452,#453,#454,#455)
    ,(#456,#457,#458,#459,#460)
    ,(#461,#462,#463,#464,#465)
    ,(#466,#467,#468,#469,#470)
    ,(#471,#472,#473,#474,#475
)),.UNSPECIFIED.,.T.,.F.,.F.) B_SPLINE_SURFACE_WITH_KNOTS((1,2,2,2,2,1),
  (3,2,3),(-2.094395102393,0.,2.094395102393,4.188790204786,
    6.28318530718,8.377580409573),(-1.570796326795,0.,1.570796326795),
.UNSPECIFIED.) GEOMETRIC_REPRESENTATION_ITEM() RATIONAL_B_SPLINE_SURFACE
((
    (1.,0.707106781187,1.,0.707106781187,1.)
    ,(0.5,0.353553390593,0.5,0.353553390593,0.5)
    ,(1.,0.707106781187,1.,0.707106781187,1.)
    ,(0.5,0.353553390593,0.5,0.353553390593,0.5)
    ,(1.,0.707106781187,1.,0.707106781187,1.)
    ,(0.5,0.353553390593,0.5,0.353553390593,0.5)
,(1.,0.707106781187,1.,0.707106781187,1.
))) REPRESENTATION_ITEM('') SURFACE() );
#441 = CARTESIAN_POINT('',(4.339834468549E+03,-2.384466521701E+03,
    221.66652331935));
#442 = CARTESIAN_POINT('',(1.026761272415E+04,-2.384466521701E+03,
    221.66652331935));
#443 = CARTESIAN_POINT('',(1.026761272415E+04,-2.384466521701E+03,
    4.963889127801E+03));
#444 = CARTESIAN_POINT('',(1.026761272415E+04,-2.384466521701E+03,
    9.706111732283E+03));
#445 = CARTESIAN_POINT('',(4.339834468549E+03,-2.384466521701E+03,
    9.706111732283E+03));
#446 = CARTESIAN_POINT('',(4.339834468549E+03,-2.384466521701E+03,
    221.66652331935));
#447 = CARTESIAN_POINT('',(1.026761272415E+04,7.882746593004E+03,
    221.66652331935));
#448 = CARTESIAN_POINT('',(1.026761272415E+04,7.882746593004E+03,
    4.963889127801E+03));
#449 = CARTESIAN_POINT('',(1.026761272415E+04,7.882746593004E+03,
    9.706111732283E+03));
#450 = CARTESIAN_POINT('',(4.339834468549E+03,-2.384466521701E+03,
    9.706111732283E+03));
#451 = CARTESIAN_POINT('',(4.339834468549E+03,-2.384466521701E+03,
    221.66652331935));
#452 = CARTESIAN_POINT('',(1.375945340748E+03,2.749140035651E+03,
    221.66652331935));
#453 = CARTESIAN_POINT('',(1.375945340748E+03,2.749140035651E+03,
    4.963889127801E+03));
#454 = CARTESIAN_POINT('',(1.375945340748E+03,2.749140035651E+03,
    9.706111732283E+03));
#455 = CARTESIAN_POINT('',(4.339834468549E+03,-2.384466521701E+03,
    9.706111732283E+03));
#456 = CARTESIAN_POINT('',(4.339834468549E+03,-2.384466521701E+03,
    221.66652331935));
#457 = CARTESIAN_POINT('',(-7.515722042655E+03,-2.384466521701E+03,
    221.66652331935));
#458 = CARTESIAN_POINT('',(-7.515722042655E+03,-2.384466521701E+03,
    4.963889127801E+03));
#459 = CARTESIAN_POINT('',(-7.515722042655E+03,-2.384466521701E+03,
    9.706111732283E+03));
#460 = CARTESIAN_POINT('',(4.339834468549E+03,-2.384466521701E+03,
    9.706111732283E+03));
#461 = CARTESIAN_POINT('',(4.339834468549E+03,-2.384466521701E+03,
    221.66652331935));
#462 = CARTESIAN_POINT('',(1.375945340748E+03,-7.518073079053E+03,
    221.66652331935));
#463 = CARTESIAN_POINT('',(1.375945340748E+03,-7.518073079053E+03,
    4.963889127801E+03));
#464 = CARTESIAN_POINT('',(1.375945340748E+03,-7.518073079053E+03,
    9.706111732283E+03));
#465 = CARTESIAN_POINT('',(4.339834468549E+03,-2.384466521701E+03,
    9.706111732283E+03));
#466 = CARTESIAN_POINT('',(4.339834468549E+03,-2.384466521701E+03,
    221.66652331935));
#467 = CARTESIAN_POINT('',(1.026761272415E+04,-1.265167963641E+04,
    221.66652331935));
#468 = CARTESIAN_POINT('',(1.026761272415E+04,-1.265167963641E+04,
    4.963889127801E+03));
#469 = CARTESIAN_POINT('',(1.026761272415E+04,-1.265167963641E+04,
    9.706111732283E+03));
#470 = CARTESIAN_POINT('',(4.339834468549E+03,-2.384466521701E+03,
    9.706111732283E+03));
#471 = CARTESIAN_POINT('',(4.339834468549E+03,-2.384466521701E+03,
    221.66652331935));
#472 = CARTESIAN_POINT('',(1.026761272415E+04,-2.384466521701E+03,
    221.66652331935));
#473 = CARTESIAN_POINT('',(1.026761272415E+04,-2.384466521701E+03,
    4.963889127801E+03));
#474 = CARTESIAN_POINT('',(1.026761272415E+04,-2.384466521701E+03,
    9.706111732283E+03));
#475 = CARTESIAN_POINT('',(4.339834468549E+03,-2.384466521701E+03,
    9.706111732283E+03));
#476 = ( GEOMETRIC_REPRESENTATION_CONTEXT(3) 
GLOBAL_UNCERTAINTY_ASSIGNED_CONTEXT((#480)) GLOBAL_UNIT_ASSIGNED_CONTEXT
((#477,#478,#479)) REPRESENTATION_CONTEXT('Context #1',
  '3D Context with UNIT and UNCERTAINTY') );
#477 = ( LENGTH_UNIT() NAMED_UNIT(*) SI_UNIT(.MILLI.,.METRE.) );
#478 = ( NAMED_UNIT(*) PLANE_ANGLE_UNIT() SI_UNIT($,.RADIAN.) );
#479 = ( NAMED_UNIT(*) SI_UNIT($,.STERADIAN.) SOLID_ANGLE_UNIT() );
#480 = UNCERTAINTY_MEASURE_WITH_UNIT(LENGTH_MEASURE(1.E-07),#477,
  'distance_accuracy_value','confusion accuracy');
#481 = CONTEXT_DEPENDENT_SHAPE_REPRESENTATION(#482,#484);
#482 = ( REPRESENTATION_RELATIONSHIP('','',#432,#10) 
REPRESENTATION_RELATIONSHIP_WITH_TRANSFORMATION(#483) 
SHAPE_REPRESENTATION_RELATIONSHIP() );
#483 = ITEM_DEFINED_TRANSFORMATION('','',#11,#39);
#484 = PRODUCT_DEFINITION_SHAPE('Placement','Placement of an item',#485
  );
#485 = NEXT_ASSEMBLY_USAGE_OCCURRENCE('243','part6','',#5,#427,$);
#486 = PRODUCT_RELATED_PRODUCT_CATEGORY('part',$,(#429));
#487 = SHAPE_DEFINITION_REPRESENTATION(#488,#494);
#488 = PRODUCT_DEFINITION_SHAPE('','',#489);
#489 = PRODUCT_DEFINITION('design','',#490,#493);
#490 = PRODUCT_DEFINITION_FORMATION('','',#491);
#491 = PRODUCT('part7','part7','',(#492));
#492 = PRODUCT_CONTEXT('',#2,'mechanical');
#493 = PRODUCT_DEFINITION_CONTEXT('part definition',#2,'design');
#494 = ADVANCED_BREP_SHAPE_REPRESENTATION('',(#11,#495),#593);
#495 = MANIFOLD_SOLID_BREP('',#496);
#496 = CLOSED_SHELL('',(#497,#585,#589));
#497 = ADVANCED_FACE('',(#498),#511,.T.);
#498 = FACE_BOUND('',#499,.T.);
#499 = EDGE_LOOP('',(#500,#534,#557,#584));
#500 = ORIENTED_EDGE('',*,*,#501,.F.);
#501 = EDGE_CURVE('',#502,#502,#504,.T.);
#502 = VERTEX_POINT('',#503);
#503 = CARTESIAN_POINT('',(2.38211145618E+04,6.3577708764E+03,800.));
#504 = SURFACE_CURVE('',#505,(#510,#522),.PCURVE_S1.);
#505 = CIRCLE('',#506,400.);
#506 = AXIS2_PLACEMENT_3D('',#507,#508,#509);
#507 = CARTESIAN_POINT('',(2.4E+04,6.E+03,800.));
#508 = DIRECTION('',(0.889596943271,0.444798471636,-0.103786310048));
#509 = DIRECTION('',(-0.4472135955,0.894427191,0.));
#510 = PCURVE('',#511,#516);
#511 = CYLINDRICAL_SURFACE('',#512,400.);
#512 = AXIS2_PLACEMENT_3D('',#513,#514,#515);
#513 = CARTESIAN_POINT('',(1.8E+04,3.E+03,1.5E+03));
#514 = DIRECTION('',(0.889596943271,0.444798471636,-0.103786310048));
#515 = DIRECTION('',(-0.4472135955,0.894427191,0.));
#516 = DEFINITIONAL_REPRESENTATION('',(#517),#521);
#517 = LINE('',#518,#519);
#518 = CARTESIAN_POINT('',(0.,6.744627491567E+03));
#519 = VECTOR('',#520,1.);
#520 = DIRECTION('',(1.,0.));
#521 = ( GEOMETRIC_REPRESENTATION_CONTEXT(2) 
PARAMETRIC_REPRESENTATION_CONTEXT() REPRESENTATION_CONTEXT('2D SPACE',''
  ) );
#522 = PCURVE('',#523,#528);
#523 = PLANE('',#524);
#524 = AXIS2_PLACEMENT_3D('',#525,#526,#527);
#525 = CARTESIAN_POINT('',(2.4E+04,6.E+03,800.));
#526 = DIRECTION('',(0.889596943271,0.444798471636,-0.103786310048));
#527 = DIRECTION('',(-0.4472135955,0.894427191,0.));
#528 = DEFINITIONAL_REPRESENTATION('',(#529),#533);
#529 = CIRCLE('',#530,400.);
#530 = AXIS2_PLACEMENT_2D('',#531,#532);
#531 = CARTESIAN_POINT('',(0.,0.));
#532 = DIRECTION('',(1.,0.));
#533 = ( GEOMETRIC_REPRESENTATION_CONTEXT(2) 
PARAMETRIC_REPRESENTATION_CONTEXT() REPRESENTATION_CONTEXT('2D SPACE',''
  ) );
#534 = ORIENTED_EDGE('',*,*,#535,.F.);
#535 = EDGE_CURVE('',#536,#502,#538,.T.);
#536 = VERTEX_POINT('',#537);
#537 = CARTESIAN_POINT('',(1.78211145618E+04,3.3577708764E+03,1.5E+03));
#538 = SEAM_CURVE('',#539,(#543,#550),.PCURVE_S1.);
#539 = LINE('',#540,#541);
#540 = CARTESIAN_POINT('',(1.78211145618E+04,3.3577708764E+03,1.5E+03));
#541 = VECTOR('',#542,1.);
#542 = DIRECTION('',(0.889596943271,0.444798471636,-0.103786310048));
#543 = PCURVE('',#511,#544);
#544 = DEFINITIONAL_REPRESENTATION('',(#545),#549);
#545 = LINE('',#546,#547);
#546 = CARTESIAN_POINT('',(6.28318530718,-0.));
#547 = VECTOR('',#548,1.);
#548 = DIRECTION('',(0.,1.));
#549 = ( GEOMETRIC_REPRESENTATION_CONTEXT(2) 
PARAMETRIC_REPRESENTATION_CONTEXT() REPRESENTATION_CONTEXT('2D SPACE',''
  ) );
#550 = PCURVE('',#511,#551);
#551 = DEFINITIONAL_REPRESENTATION('',(#552),#556);
#552 = LINE('',#553,#554);
#553 = CARTESIAN_POINT('',(0.,-0.));
#554 = VECTOR('',#555,1.);
#555 = DIRECTION('',(0.,1.));
#556 = ( GEOMETRIC_REPRESENTATION_CONTEXT(2) 
PARAMETRIC_REPRESENTATION_CONTEXT() REPRESENTATION_CONTEXT('2D SPACE',''
  ) );
#557 = ORIENTED_EDGE('',*,*,#558,.T.);
#558 = EDGE_CURVE('',#536,#536,#559,.T.);
#559 = SURFACE_CURVE('',#560,(#565,#572),.PCURVE_S1.);
#560 = CIRCLE('',#561,400.);
#561 = AXIS2_PLACEMENT_3D('',#562,#563,#564);
#562 = CARTESIAN_POINT('',(1.8E+04,3.E+03,1.5E+03));
#563 = DIRECTION('',(0.889596943271,0.444798471636,-0.103786310048));
#564 = DIRECTION('',(-0.4472135955,0.894427191,0.));
#565 = PCURVE('',#511,#566);
#566 = DEFINITIONAL_REPRESENTATION('',(#567),#571);
#567 = LINE('',#568,#569);
#568 = CARTESIAN_POINT('',(0.,0.));
#569 = VECTOR('',#570,1.);
#570 = DIRECTION('',(1.,0.));
#571 = ( GEOMETRIC_REPRESENTATION_CONTEXT(2) 
PARAMETRIC_REPRESENTATION_CONTEXT() REPRESENTATION_CONTEXT('2D SPACE',''
  ) );
#572 = PCURVE('',#573,#578);
#573 = PLANE('',#574);
#574 = AXIS2_PLACEMENT_3D('',#575,#576,#577);
#575 = CARTESIAN_POINT('',(1.8E+04,3.E+03,1.5E+03));
#576 = DIRECTION('',(0.889596943271,0.444798471636,-0.103786310048));
#577 = DIRECTION('',(-0.4472135955,0.894427191,0.));
#578 = DEFINITIONAL_REPRESENTATION('',(#579),#583);
#579 = CIRCLE('',#580,400.);
#580 = AXIS2_PLACEMENT_2D('',#581,#582);
#581 = CARTESIAN_POINT('',(0.,0.));
#582 = DIRECTION('',(1.,0.));
#583 = ( GEOMETRIC_REPRESENTATION_CONTEXT(2) 
PARAMETRIC_REPRESENTATION_CONTEXT() REPRESENTATION_CONTEXT('2D SPACE',''
  ) );
#584 = ORIENTED_EDGE('',*,*,#535,.T.);
#585 = ADVANCED_FACE('',(#586),#523,.T.);
#586 = FACE_BOUND('',#587,.T.);
#587 = EDGE_LOOP('',(#588));
#588 = ORIENTED_EDGE('',*,*,#501,.T.);
#589 = ADVANCED_FACE('',(#590),#573,.F.);
#590 = FACE_BOUND('',#591,.T.);
#591 = EDGE_LOOP('',(#592));
#592 = ORIENTED_EDGE('',*,*,#558,.F.);
#593 = ( GEOMETRIC_REPRESENTATION_CONTEXT(3) 
GLOBAL_UNCERTAINTY_ASSIGNED_CONTEXT((#597)) GLOBAL_UNIT_ASSIGNED_CONTEXT
((#594,#595,#596)) REPRESENTATION_CONTEXT('Context #1',
  '3D Context with UNIT and UNCERTAINTY') );
#594 = ( LENGTH_UNIT() NAMED_UNIT(*) SI_UNIT(.MILLI.,.METRE.) );
#595 = ( NAMED_UNIT(*) PLANE_ANGLE_UNIT() SI_UNIT($,.RADIAN.) );
#596 = ( NAMED_UNIT(*) SI_UNIT($,.STERADIAN.) SOLID_ANGLE_UNIT() );
#597 = UNCERTAINTY_MEASURE_WITH_UNIT(LENGTH_MEASURE(1.E-07),#594,
  'distance_accuracy_value','confusion accuracy');
#598 = CONTEXT_DEPENDENT_SHAPE_REPRESENTATION(#599,#601);
#599 = ( REPRESENTATION_RELATIONSHIP('','',#494,#10) 
REPRESENTATION_RELATIONSHIP_WITH_TRANSFORMATION(#600) 
SHAPE_REPRESENTATION_RELATIONSHIP() );
#600 = ITEM_DEFINED_TRANSFORMATION('','',#11,#43);
#601 = PRODUCT_DEFINITION_SHAPE('Placement','Placement of an item',#602
  );
#602 = NEXT_ASSEMBLY_USAGE_OCCURRENCE('244','part7','',#5,#489,$);
#603 = PRODUCT_RELATED_PRODUCT_CATEGORY('part',$,(#491));
#604 = MECHANICAL_DESIGN_GEOMETRIC_PRESENTATION_REPRESENTATION('',(#605)
  ,#593);
#605 = STYLED_ITEM('color',(#606),#495);
#606 = PRESENTATION_STYLE_ASSIGNMENT((#607));
#607 = SURFACE_STYLE_USAGE(.BOTH.,#608);
#608 = SURFACE_SIDE_STYLE('',(#609));
#609 = SURFACE_STYLE_FILL_AREA(#610);
#610 = FILL_AREA_STYLE('',(#611));
#611 = FILL_AREA_STYLE_COLOUR('',#612);
#612 = COLOUR_RGB('',0.690196085623,0.658823527652,0.580392144338);
#613 = MECHANICAL_DESIGN_GEOMETRIC_PRESENTATION_REPRESENTATION('',(#614)
  ,#290);
#614 = STYLED_ITEM('color',(#615),#247);
#615 = PRESENTATION_STYLE_ASSIGNMENT((#616));
#616 = SURFACE_STYLE_USAGE(.BOTH.,#617);
#617 = SURFACE_SIDE_STYLE('',(#618));
#618 = SURFACE_STYLE_FILL_AREA(#619);
#619 = FILL_AREA_STYLE('',(#620));
#620 = FILL_AREA_STYLE_COLOUR('',#621);
#621 = COLOUR_RGB('',0.227450982423,0.368627449173,0.227450982423);
#622 = MECHANICAL_DESIGN_GEOMETRIC_PRESENTATION_REPRESENTATION('',(#623)
  ,#166);
#623 = STYLED_ITEM('color',(#624),#123);
#624 = PRESENTATION_STYLE_ASSIGNMENT((#625));
#625 = SURFACE_STYLE_USAGE(.BOTH.,#626);
#626 = SURFACE_SIDE_STYLE('',(#627));
#627 = SURFACE_STYLE_FILL_AREA(#628);
#628 = FILL_AREA_STYLE('',(#629));
#629 = FILL_AREA_STYLE_COLOUR('',#621);
#630 = MECHANICAL_DESIGN_GEOMETRIC_PRESENTATION_REPRESENTATION('',(#631)
  ,#414);
#631 = STYLED_ITEM('color',(#632),#371);
#632 = PRESENTATION_STYLE_ASSIGNMENT((#633));
#633 = SURFACE_STYLE_USAGE(.BOTH.,#634);
#634 = SURFACE_SIDE_STYLE('',(#635));
#635 = SURFACE_STYLE_FILL_AREA(#636);
#636 = FILL_AREA_STYLE('',(#637));
#637 = FILL_AREA_STYLE_COLOUR('',#621);
#638 = MECHANICAL_DESIGN_GEOMETRIC_PRESENTATION_REPRESENTATION('',(#639)
  ,#352);
#639 = STYLED_ITEM('color',(#640),#309);
#640 = PRESENTATION_STYLE_ASSIGNMENT((#641));
#641 = SURFACE_STYLE_USAGE(.BOTH.,#642);
#642 = SURFACE_SIDE_STYLE('',(#643));
#643 = SURFACE_STYLE_FILL_AREA(#644);
#644 = FILL_AREA_STYLE('',(#645));
#645 = FILL_AREA_STYLE_COLOUR('',#621);
#646 = MECHANICAL_DESIGN_GEOMETRIC_PRESENTATION_REPRESENTATION('',(#647)
  ,#476);
#647 = STYLED_ITEM('color',(#648),#433);
#648 = PRESENTATION_STYLE_ASSIGNMENT((#649));
#649 = SURFACE_STYLE_USAGE(.BOTH.,#650);
#650 = SURFACE_SIDE_STYLE('',(#651));
#651 = SURFACE_STYLE_FILL_AREA(#652);
#652 = FILL_AREA_STYLE('',(#653));
#653 = FILL_AREA_STYLE_COLOUR('',#621);
#654 = MECHANICAL_DESIGN_GEOMETRIC_PRESENTATION_REPRESENTATION('',(#655)
  ,#228);
#655 = STYLED_ITEM('color',(#656),#185);
#656 = PRESENTATION_STYLE_ASSIGNMENT((#657));
#657 = SURFACE_STYLE_USAGE(.BOTH.,#658);
#658 = SURFACE_SIDE_STYLE('',(#659));
#659 = SURFACE_STYLE_FILL_AREA(#660);
#660 = FILL_AREA_STYLE('',(#661));
#661 = FILL_AREA_STYLE_COLOUR('',#621);
#662 = MECHANICAL_DESIGN_GEOMETRIC_PRESENTATION_REPRESENTATION('',(#663)
  ,#104);
#663 = STYLED_ITEM('color',(#664),#61);
#664 = PRESENTATION_STYLE_ASSIGNMENT((#665));
#665 = SURFACE_STYLE_USAGE(.BOTH.,#666);
#666 = SURFACE_SIDE_STYLE('',(#667));
#667 = SURFACE_STYLE_FILL_AREA(#668);
#668 = FILL_AREA_STYLE('',(#669));
#669 = FILL_AREA_STYLE_COLOUR('',#670);
#670 = COLOUR_RGB('',0.419607846511,0.333333332236,0.250980388104);
ENDSEC;
END-ISO-10303-21;
