ISO-10303-21;
HEADER;
FILE_DESCRIPTION(('Open CASCADE Model'),'2;1');
FILE_NAME('Open CASCADE Shape Model','2026-09-14T11:05:28',('Author'),(
    'Open CASCADE'),'Open CASCADE STEP processor 7.9','Open CASCADE 7.9'
  ,'Unknown');
FILE_SCHEMA(('AUTOMOTIVE_DESIGN { 1 0 10303 214 1 1 1 1 }'));
ENDSEC;
DATA;
#1 = APPLICATION_PROTOCOL_DEFINITION('international standard',
  'automotive_design',2000,#2);
#2 = APPLICATION_CONTEXT(
  'core data for automotive mechanical design processes');
#3 = SHAPE_DEFINITION_REPRESENTATION(#4,#10);
#4 = PRODUCT_DEFINITION_SHAPE('','',#5);
#5 = PRODUCT_DEFINITION('design','',#6,#9);
#6 = PRODUCT_DEFINITION_FORMATION('','',#7);
#7 = PRODUCT('d0288682-b023-11f1-86f8-3c9c0f4bdafb',
  'd0288682-b023-11f1-86f8-3c9c0f4bdafb','',(#8));
#8 = PRODUCT_CONTEXT('',#2,'mechanical');
#9 = PRODUCT_DEFINITION_CONTEXT('part definition',#2,'design');
#10 = SHAPE_REPRESENTATION('',(#11,#15,#19,#23,#27,#31,#35,#39,#43,#47,
    #51),#55);
#11 = AXIS2_PLACEMENT_3D('',#12,#13,#14);
#12 = CARTESIAN_POINT('',(0.,0.,0.));
#13 = DIRECTION('',(0.,0.,1.));
#14 = DIRECTION('',(1.,0.,-0.));
#15 = AXIS2_PLACEMENT_3D('',#16,#17,#18);
#16 = CARTESIAN_POINT('',(0.,0.,0.));
#17 = DIRECTION('',(0.,0.,1.));
#18 = DIRECTION('',(1.,0.,-0.));
#19 = AXIS2_PLACEMENT_3D('',#20,#21,#22);
#20 = CARTESIAN_POINT('',(0.,0.,0.));
#21 = DIRECTION('',(0.,0.,1.));
#22 = DIRECTION('',(1.,0.,-0.));
#23 = AXIS2_PLACEMENT_3D('',#24,#25,#26);
#24 = CARTESIAN_POINT('',(0.,0.,0.));
#25 = DIRECTION('',(0.,0.,1.));
#26 = DIRECTION('',(1.,0.,-0.));
#27 = AXIS2_PLACEMENT_3D('',#28,#29,#30);
#28 = CARTESIAN_POINT('',(0.,0.,0.));
#29 = DIRECTION('',(0.,0.,1.));
#30 = DIRECTION('',(1.,0.,-0.));
#31 = AXIS2_PLACEMENT_3D('',#32,#33,#34);
#32 = CARTESIAN_POINT('',(0.,0.,0.));
#33 = DIRECTION('',(0.,0.,1.));
#34 = DIRECTION('',(1.,0.,-0.));
#35 = AXIS2_PLACEMENT_3D('',#36,#37,#38);
#36 = CARTESIAN_POINT('',(0.,0.,0.));
#37 = DIRECTION('',(0.,0.,1.));
#38 = DIRECTION('',(1.,0.,-0.));
#39 = AXIS2_PLACEMENT_3D('',#40,#41,#42);
#40 = CARTESIAN_POINT('',(0.,0.,0.));
#41 = DIRECTION('',(0.,0.,1.));
#42 = DIRECTION('',(1.,0.,-0.));
#43 = AXIS2_PLACEMENT_3D('',#44,#45,#46);
#44 = CARTESIAN_POINT('',(0.,0.,0.));
#45 = DIRECTION('',(0.,0.,1.));
#46 = DIRECTION('',(1.,0.,-0.));
#47 = AXIS2_PLACEMENT_3D('',#48,#49,#50);
#48 = CARTESIAN_POINT('',(0.,0.,0.));
#49 = DIRECTION('',(0.,0.,1.));
#50 = DIRECTION('',(1.,0.,-0.));
#51 = AXIS2_PLACEMENT_3D('',#52,#53,#54);
#52 = CARTESIAN_POINT('',(0.,0.,0.));
#53 = DIRECTION('',(0.,0.,1.));
#54 = DIRECTION('',(1.,0.,-0.));
#55 = ( GEOMETRIC_REPRESENTATION_CONTEXT(3) 
GLOBAL_UNCERTAINTY_ASSIGNED_CONTEXT((#59)) GLOBAL_UNIT_ASSIGNED_CONTEXT(
(#56,#57,#58)) REPRESENTATION_CONTEXT('Context #1',
  '3D Context with UNIT and UNCERTAINTY') );
#56 = ( LENGTH_UNIT() NAMED_UNIT(*) SI_UNIT(.MILLI.,.METRE.) );
#57 = ( NAMED_UNIT(*) PLANE_ANGLE_UNIT() SI_UNIT($,.RADIAN.) );
#58 = ( NAMED_UNIT(*) SI_UNIT($,.STERADIAN.) SOLID_ANGLE_UNIT() );
#59 = UNCERTAINTY_MEASURE_WITH_UNIT(LENGTH_MEASURE(1.E-07),#56,
  'distance_accuracy_value','confusion accuracy');
#60 = PRODUCT_RELATED_PRODUCT_CATEGORY('part',$,(#7));
#61 = SHAPE_DEFINITION_REPRESENTATION(#62,#68);
#62 = PRODUCT_DEFINITION_SHAPE('','',#63);
#63 = PRODUCT_DEFINITION('design','',#64,#67);
#64 = PRODUCT_DEFINITION_FORMATION('','',#65);
#65 = PRODUCT('part0','part0','',(#66));
#66 = PRODUCT_CONTEXT('',#2,'mechanical');
#67 = PRODUCT_DEFINITION_CONTEXT('part definition',#2,'design');
#68 = ADVANCED_BREP_SHAPE_REPRESENTATION('',(#11,#69),#167);
#69 = MANIFOLD_SOLID_BREP('',#70);
#70 = CLOSED_SHELL('',(#71,#159,#163));
#71 = ADVANCED_FACE('',(#72),#85,.T.);
#72 = FACE_BOUND('',#73,.T.);
#73 = EDGE_LOOP('',(#74,#108,#131,#158));
#74 = ORIENTED_EDGE('',*,*,#75,.F.);
#75 = EDGE_CURVE('',#76,#76,#78,.T.);
#76 = VERTEX_POINT('',#77);
#77 = CARTESIAN_POINT('',(-1.5355224712E+03,198.00144199355,
    543.56723373788));
#78 = SURFACE_CURVE('',#79,(#84,#96),.PCURVE_S1.);
#79 = CIRCLE('',#80,68.127569138648);
#80 = AXIS2_PLACEMENT_3D('',#81,#82,#83);
#81 = CARTESIAN_POINT('',(-1.492603167093E+03,198.00144199355,
    596.47563582764));
#82 = DIRECTION('',(-0.775596836072,-5.100845254923E-02,0.629164275563)
  );
#83 = DIRECTION('',(-0.629984375633,-1.040834085586E-17,-0.776607807363)
  );
#84 = PCURVE('',#85,#90);
#85 = CYLINDRICAL_SURFACE('',#86,68.127569138648);
#86 = AXIS2_PLACEMENT_3D('',#87,#88,#89);
#87 = CARTESIAN_POINT('',(-922.8963213252,235.46918716446,
    134.32935282355));
#88 = DIRECTION('',(-0.775596836072,-5.100845254923E-02,0.629164275563)
  );
#89 = DIRECTION('',(-0.629984375633,-3.469446951954E-18,-0.776607807363)
  );
#90 = DEFINITIONAL_REPRESENTATION('',(#91),#95);
#91 = LINE('',#92,#93);
#92 = CARTESIAN_POINT('',(0.,734.53993011745));
#93 = VECTOR('',#94,1.);
#94 = DIRECTION('',(1.,0.));
#95 = ( GEOMETRIC_REPRESENTATION_CONTEXT(2) 
PARAMETRIC_REPRESENTATION_CONTEXT() REPRESENTATION_CONTEXT('2D SPACE',''
  ) );
#96 = PCURVE('',#97,#102);
#97 = PLANE('',#98);
#98 = AXIS2_PLACEMENT_3D('',#99,#100,#101);
#99 = CARTESIAN_POINT('',(-1.492603167093E+03,198.00144199355,
    596.47563582764));
#100 = DIRECTION('',(-0.775596836072,-5.100845254923E-02,0.629164275563)
  );
#101 = DIRECTION('',(-0.629984375633,-3.469446951954E-18,-0.776607807363
    ));
#102 = DEFINITIONAL_REPRESENTATION('',(#103),#107);
#103 = CIRCLE('',#104,68.127569138648);
#104 = AXIS2_PLACEMENT_2D('',#105,#106);
#105 = CARTESIAN_POINT('',(0.,0.));
#106 = DIRECTION('',(1.,0.));
#107 = ( GEOMETRIC_REPRESENTATION_CONTEXT(2) 
PARAMETRIC_REPRESENTATION_CONTEXT() REPRESENTATION_CONTEXT('2D SPACE',''
  ) );
#108 = ORIENTED_EDGE('',*,*,#109,.F.);
#109 = EDGE_CURVE('',#110,#76,#112,.T.);
#110 = VERTEX_POINT('',#111);
#111 = CARTESIAN_POINT('',(-965.8156254324,235.46918716446,
    81.420950733794));
#112 = SEAM_CURVE('',#113,(#117,#124),.PCURVE_S1.);
#113 = LINE('',#114,#115);
#114 = CARTESIAN_POINT('',(-965.8156254324,235.46918716446,
    81.420950733794));
#115 = VECTOR('',#116,1.);
#116 = DIRECTION('',(-0.775596836072,-5.100845254923E-02,0.629164275563)
  );
#117 = PCURVE('',#85,#118);
#118 = DEFINITIONAL_REPRESENTATION('',(#119),#123);
#119 = LINE('',#120,#121);
#120 = CARTESIAN_POINT('',(6.28318530718,-0.));
#121 = VECTOR('',#122,1.);
#122 = DIRECTION('',(0.,1.));
#123 = ( GEOMETRIC_REPRESENTATION_CONTEXT(2) 
PARAMETRIC_REPRESENTATION_CONTEXT() REPRESENTATION_CONTEXT('2D SPACE',''
  ) );
#124 = PCURVE('',#85,#125);
#125 = DEFINITIONAL_REPRESENTATION('',(#126),#130);
#126 = LINE('',#127,#128);
#127 = CARTESIAN_POINT('',(0.,-0.));
#128 = VECTOR('',#129,1.);
#129 = DIRECTION('',(0.,1.));
#130 = ( GEOMETRIC_REPRESENTATION_CONTEXT(2) 
PARAMETRIC_REPRESENTATION_CONTEXT() REPRESENTATION_CONTEXT('2D SPACE',''
  ) );
#131 = ORIENTED_EDGE('',*,*,#132,.T.);
#132 = EDGE_CURVE('',#110,#110,#133,.T.);
#133 = SURFACE_CURVE('',#134,(#139,#146),.PCURVE_S1.);
#134 = CIRCLE('',#135,68.127569138648);
#135 = AXIS2_PLACEMENT_3D('',#136,#137,#138);
#136 = CARTESIAN_POINT('',(-922.8963213252,235.46918716446,
    134.32935282355));
#137 = DIRECTION('',(-0.775596836072,-5.100845254923E-02,0.629164275563)
  );
#138 = DIRECTION('',(-0.629984375633,-1.040834085586E-17,-0.776607807363
    ));
#139 = PCURVE('',#85,#140);
#140 = DEFINITIONAL_REPRESENTATION('',(#141),#145);
#141 = LINE('',#142,#143);
#142 = CARTESIAN_POINT('',(0.,0.));
#143 = VECTOR('',#144,1.);
#144 = DIRECTION('',(1.,0.));
#145 = ( GEOMETRIC_REPRESENTATION_CONTEXT(2) 
PARAMETRIC_REPRESENTATION_CONTEXT() REPRESENTATION_CONTEXT('2D SPACE',''
  ) );
#146 = PCURVE('',#147,#152);
#147 = PLANE('',#148);
#148 = AXIS2_PLACEMENT_3D('',#149,#150,#151);
#149 = CARTESIAN_POINT('',(-922.8963213252,235.46918716446,
    134.32935282355));
#150 = DIRECTION('',(-0.775596836072,-5.100845254923E-02,0.629164275563)
  );
#151 = DIRECTION('',(-0.629984375633,-3.469446951954E-18,-0.776607807363
    ));
#152 = DEFINITIONAL_REPRESENTATION('',(#153),#157);
#153 = CIRCLE('',#154,68.127569138648);
#154 = AXIS2_PLACEMENT_2D('',#155,#156);
#155 = CARTESIAN_POINT('',(0.,0.));
#156 = DIRECTION('',(1.,0.));
#157 = ( GEOMETRIC_REPRESENTATION_CONTEXT(2) 
PARAMETRIC_REPRESENTATION_CONTEXT() REPRESENTATION_CONTEXT('2D SPACE',''
  ) );
#158 = ORIENTED_EDGE('',*,*,#109,.T.);
#159 = ADVANCED_FACE('',(#160),#97,.T.);
#160 = FACE_BOUND('',#161,.T.);
#161 = EDGE_LOOP('',(#162));
#162 = ORIENTED_EDGE('',*,*,#75,.T.);
#163 = ADVANCED_FACE('',(#164),#147,.F.);
#164 = FACE_BOUND('',#165,.T.);
#165 = EDGE_LOOP('',(#166));
#166 = ORIENTED_EDGE('',*,*,#132,.F.);
#167 = ( GEOMETRIC_REPRESENTATION_CONTEXT(3) 
GLOBAL_UNCERTAINTY_ASSIGNED_CONTEXT((#171)) GLOBAL_UNIT_ASSIGNED_CONTEXT
((#168,#169,#170)) REPRESENTATION_CONTEXT('Context #1',
  '3D Context with UNIT and UNCERTAINTY') );
#168 = ( LENGTH_UNIT() NAMED_UNIT(*) SI_UNIT(.MILLI.,.METRE.) );
#169 = ( NAMED_UNIT(*) PLANE_ANGLE_UNIT() SI_UNIT($,.RADIAN.) );
#170 = ( NAMED_UNIT(*) SI_UNIT($,.STERADIAN.) SOLID_ANGLE_UNIT() );
#171 = UNCERTAINTY_MEASURE_WITH_UNIT(LENGTH_MEASURE(1.E-07),#168,
  'distance_accuracy_value','confusion accuracy');
#172 = CONTEXT_DEPENDENT_SHAPE_REPRESENTATION(#173,#175);
#173 = ( REPRESENTATION_RELATIONSHIP('','',#68,#10) 
REPRESENTATION_RELATIONSHIP_WITH_TRANSFORMATION(#174) 
SHAPE_REPRESENTATION_RELATIONSHIP() );
#174 = ITEM_DEFINED_TRANSFORMATION('','',#11,#15);
#175 = PRODUCT_DEFINITION_SHAPE('Placement','Placement of an item',#176
  );
#176 = NEXT_ASSEMBLY_USAGE_OCCURRENCE('269','part0','',#5,#63,$);
#177 = PRODUCT_RELATED_PRODUCT_CATEGORY('part',$,(#65));
#178 = SHAPE_DEFINITION_REPRESENTATION(#179,#185);
#179 = PRODUCT_DEFINITION_SHAPE('','',#180);
#180 = PRODUCT_DEFINITION('design','',#181,#184);
#181 = PRODUCT_DEFINITION_FORMATION('','',#182);
#182 = PRODUCT('part1','part1','',(#183));
#183 = PRODUCT_CONTEXT('',#2,'mechanical');
#184 = PRODUCT_DEFINITION_CONTEXT('part definition',#2,'design');
#185 = ADVANCED_BREP_SHAPE_REPRESENTATION('',(#11,#186),#284);
#186 = MANIFOLD_SOLID_BREP('',#187);
#187 = CLOSED_SHELL('',(#188,#276,#280));
#188 = ADVANCED_FACE('',(#189),#202,.T.);
#189 = FACE_BOUND('',#190,.T.);
#190 = EDGE_LOOP('',(#191,#225,#248,#275));
#191 = ORIENTED_EDGE('',*,*,#192,.F.);
#192 = EDGE_CURVE('',#193,#193,#195,.T.);
#193 = VERTEX_POINT('',#194);
#194 = CARTESIAN_POINT('',(-111.6333980815,-630.7127408827,
    504.62566415559));
#195 = SURFACE_CURVE('',#196,(#201,#213),.PCURVE_S1.);
#196 = CIRCLE('',#197,80.212673530199);
#197 = AXIS2_PLACEMENT_3D('',#198,#199,#200);
#198 = CARTESIAN_POINT('',(-111.6333980815,-704.6367895498,
    473.4919521455));
#199 = DIRECTION('',(-0.312516513647,-0.368698554946,0.875439777643));
#200 = DIRECTION('',(0.,0.921600607655,0.388139562489));
#201 = PCURVE('',#202,#207);
#202 = CYLINDRICAL_SURFACE('',#203,80.212673530199);
#203 = AXIS2_PLACEMENT_3D('',#204,#205,#206);
#204 = CARTESIAN_POINT('',(-3.455540403898,-577.0114703707,
    170.45772663817));
#205 = DIRECTION('',(-0.312516513647,-0.368698554946,0.875439777643));
#206 = DIRECTION('',(1.387778780781E-17,0.921600607655,0.388139562489));
#207 = DEFINITIONAL_REPRESENTATION('',(#208),#212);
#208 = LINE('',#209,#210);
#209 = CARTESIAN_POINT('',(0.,346.15085268727));
#210 = VECTOR('',#211,1.);
#211 = DIRECTION('',(1.,0.));
#212 = ( GEOMETRIC_REPRESENTATION_CONTEXT(2) 
PARAMETRIC_REPRESENTATION_CONTEXT() REPRESENTATION_CONTEXT('2D SPACE',''
  ) );
#213 = PCURVE('',#214,#219);
#214 = PLANE('',#215);
#215 = AXIS2_PLACEMENT_3D('',#216,#217,#218);
#216 = CARTESIAN_POINT('',(-111.6333980815,-704.6367895498,
    473.4919521455));
#217 = DIRECTION('',(-0.312516513647,-0.368698554946,0.875439777643));
#218 = DIRECTION('',(1.387778780781E-17,0.921600607655,0.388139562489));
#219 = DEFINITIONAL_REPRESENTATION('',(#220),#224);
#220 = CIRCLE('',#221,80.212673530199);
#221 = AXIS2_PLACEMENT_2D('',#222,#223);
#222 = CARTESIAN_POINT('',(0.,0.));
#223 = DIRECTION('',(1.,0.));
#224 = ( GEOMETRIC_REPRESENTATION_CONTEXT(2) 
PARAMETRIC_REPRESENTATION_CONTEXT() REPRESENTATION_CONTEXT('2D SPACE',''
  ) );
#225 = ORIENTED_EDGE('',*,*,#226,.F.);
#226 = EDGE_CURVE('',#227,#193,#229,.T.);
#227 = VERTEX_POINT('',#228);
#228 = CARTESIAN_POINT('',(-3.455540403898,-503.0874217036,
    201.59143864826));
#229 = SEAM_CURVE('',#230,(#234,#241),.PCURVE_S1.);
#230 = LINE('',#231,#232);
#231 = CARTESIAN_POINT('',(-3.455540403898,-503.0874217036,
    201.59143864826));
#232 = VECTOR('',#233,1.);
#233 = DIRECTION('',(-0.312516513647,-0.368698554946,0.875439777643));
#234 = PCURVE('',#202,#235);
#235 = DEFINITIONAL_REPRESENTATION('',(#236),#240);
#236 = LINE('',#237,#238);
#237 = CARTESIAN_POINT('',(6.28318530718,-0.));
#238 = VECTOR('',#239,1.);
#239 = DIRECTION('',(0.,1.));
#240 = ( GEOMETRIC_REPRESENTATION_CONTEXT(2) 
PARAMETRIC_REPRESENTATION_CONTEXT() REPRESENTATION_CONTEXT('2D SPACE',''
  ) );
#241 = PCURVE('',#202,#242);
#242 = DEFINITIONAL_REPRESENTATION('',(#243),#247);
#243 = LINE('',#244,#245);
#244 = CARTESIAN_POINT('',(0.,-0.));
#245 = VECTOR('',#246,1.);
#246 = DIRECTION('',(0.,1.));
#247 = ( GEOMETRIC_REPRESENTATION_CONTEXT(2) 
PARAMETRIC_REPRESENTATION_CONTEXT() REPRESENTATION_CONTEXT('2D SPACE',''
  ) );
#248 = ORIENTED_EDGE('',*,*,#249,.T.);
#249 = EDGE_CURVE('',#227,#227,#250,.T.);
#250 = SURFACE_CURVE('',#251,(#256,#263),.PCURVE_S1.);
#251 = CIRCLE('',#252,80.212673530199);
#252 = AXIS2_PLACEMENT_3D('',#253,#254,#255);
#253 = CARTESIAN_POINT('',(-3.455540403898,-577.0114703707,
    170.45772663817));
#254 = DIRECTION('',(-0.312516513647,-0.368698554946,0.875439777643));
#255 = DIRECTION('',(0.,0.921600607655,0.388139562489));
#256 = PCURVE('',#202,#257);
#257 = DEFINITIONAL_REPRESENTATION('',(#258),#262);
#258 = LINE('',#259,#260);
#259 = CARTESIAN_POINT('',(0.,0.));
#260 = VECTOR('',#261,1.);
#261 = DIRECTION('',(1.,0.));
#262 = ( GEOMETRIC_REPRESENTATION_CONTEXT(2) 
PARAMETRIC_REPRESENTATION_CONTEXT() REPRESENTATION_CONTEXT('2D SPACE',''
  ) );
#263 = PCURVE('',#264,#269);
#264 = PLANE('',#265);
#265 = AXIS2_PLACEMENT_3D('',#266,#267,#268);
#266 = CARTESIAN_POINT('',(-3.455540403898,-577.0114703707,
    170.45772663817));
#267 = DIRECTION('',(-0.312516513647,-0.368698554946,0.875439777643));
#268 = DIRECTION('',(1.387778780781E-17,0.921600607655,0.388139562489));
#269 = DEFINITIONAL_REPRESENTATION('',(#270),#274);
#270 = CIRCLE('',#271,80.212673530199);
#271 = AXIS2_PLACEMENT_2D('',#272,#273);
#272 = CARTESIAN_POINT('',(0.,0.));
#273 = DIRECTION('',(1.,0.));
#274 = ( GEOMETRIC_REPRESENTATION_CONTEXT(2) 
PARAMETRIC_REPRESENTATION_CONTEXT() REPRESENTATION_CONTEXT('2D SPACE',''
  ) );
#275 = ORIENTED_EDGE('',*,*,#226,.T.);
#276 = ADVANCED_FACE('',(#277),#214,.T.);
#277 = FACE_BOUND('',#278,.T.);
#278 = EDGE_LOOP('',(#279));
#279 = ORIENTED_EDGE('',*,*,#192,.T.);
#280 = ADVANCED_FACE('',(#281),#264,.F.);
#281 = FACE_BOUND('',#282,.T.);
#282 = EDGE_LOOP('',(#283));
#283 = ORIENTED_EDGE('',*,*,#249,.F.);
#284 = ( GEOMETRIC_REPRESENTATION_CONTEXT(3) 
GLOBAL_UNCERTAINTY_ASSIGNED_CONTEXT((#288)) GLOBAL_UNIT_ASSIGNED_CONTEXT
((#285,#286,#287)) REPRESENTATION_CONTEXT('Context #1',
  '3D Context with UNIT and UNCERTAINTY') );
#285 = ( LENGTH_UNIT() NAMED_UNIT(*) SI_UNIT(.MILLI.,.METRE.) );
#286 = ( NAMED_UNIT(*) PLANE_ANGLE_UNIT() SI_UNIT($,.RADIAN.) );
#287 = ( NAMED_UNIT(*) SI_UNIT($,.STERADIAN.) SOLID_ANGLE_UNIT() );
#288 = UNCERTAINTY_MEASURE_WITH_UNIT(LENGTH_MEASURE(1.E-07),#285,
  'distance_accuracy_value','confusion accuracy');
#289 = CONTEXT_DEPENDENT_SHAPE_REPRESENTATION(#290,#292);
#290 = ( REPRESENTATION_RELATIONSHIP('','',#185,#10) 
REPRESENTATION_RELATIONSHIP_WITH_TRANSFORMATION(#291) 
SHAPE_REPRESENTATION_RELATIONSHIP() );
#291 = ITEM_DEFINED_TRANSFORMATION('','',#11,#19);
#292 = PRODUCT_DEFINITION_SHAPE('Placement','Placement of an item',#293
  );
#293 = NEXT_ASSEMBLY_USAGE_OCCURRENCE('270','part1','',#5,#180,$);
#294 = PRODUCT_RELATED_PRODUCT_CATEGORY('part',$,(#182));
#295 = SHAPE_DEFINITION_REPRESENTATION(#296,#302);
#296 = PRODUCT_DEFINITION_SHAPE('','',#297);
#297 = PRODUCT_DEFINITION('design','',#298,#301);
#298 = PRODUCT_DEFINITION_FORMATION('','',#299);
#299 = PRODUCT('part2','part2','',(#300));
#300 = PRODUCT_CONTEXT('',#2,'mechanical');
#301 = PRODUCT_DEFINITION_CONTEXT('part definition',#2,'design');
#302 = ADVANCED_BREP_SHAPE_REPRESENTATION('',(#11,#303),#401);
#303 = MANIFOLD_SOLID_BREP('',#304);
#304 = CLOSED_SHELL('',(#305,#393,#397));
#305 = ADVANCED_FACE('',(#306),#319,.T.);
#306 = FACE_BOUND('',#307,.T.);
#307 = EDGE_LOOP('',(#308,#342,#365,#392));
#308 = ORIENTED_EDGE('',*,*,#309,.F.);
#309 = EDGE_CURVE('',#310,#310,#312,.T.);
#310 = VERTEX_POINT('',#311);
#311 = CARTESIAN_POINT('',(394.60799025339,-7.118319984159,
    247.87155673137));
#312 = SURFACE_CURVE('',#313,(#318,#330),.PCURVE_S1.);
#313 = CIRCLE('',#314,70.497213850769);
#314 = AXIS2_PLACEMENT_3D('',#315,#316,#317);
#315 = CARTESIAN_POINT('',(429.53668057589,-68.35428778966,
    247.87155673137));
#316 = DIRECTION('',(0.839186493976,0.478667786619,0.258153400872));
#317 = DIRECTION('',(-0.495461996504,0.868629616131,1.387778780781E-17)
  );
#318 = PCURVE('',#319,#324);
#319 = CYLINDRICAL_SURFACE('',#320,70.497213850769);
#320 = AXIS2_PLACEMENT_3D('',#321,#322,#323);
#321 = CARTESIAN_POINT('',(-131.8637222955,-388.5742748583,
    75.17165713529));
#322 = DIRECTION('',(0.839186493976,0.478667786619,0.258153400872));
#323 = DIRECTION('',(-0.495461996504,0.868629616131,1.387778780781E-17)
  );
#324 = DEFINITIONAL_REPRESENTATION('',(#325),#329);
#325 = LINE('',#326,#327);
#326 = CARTESIAN_POINT('',(0.,668.98169465462));
#327 = VECTOR('',#328,1.);
#328 = DIRECTION('',(1.,0.));
#329 = ( GEOMETRIC_REPRESENTATION_CONTEXT(2) 
PARAMETRIC_REPRESENTATION_CONTEXT() REPRESENTATION_CONTEXT('2D SPACE',''
  ) );
#330 = PCURVE('',#331,#336);
#331 = PLANE('',#332);
#332 = AXIS2_PLACEMENT_3D('',#333,#334,#335);
#333 = CARTESIAN_POINT('',(429.53668057589,-68.35428778966,
    247.87155673137));
#334 = DIRECTION('',(0.839186493976,0.478667786619,0.258153400872));
#335 = DIRECTION('',(-0.495461996504,0.868629616131,1.387778780781E-17)
  );
#336 = DEFINITIONAL_REPRESENTATION('',(#337),#341);
#337 = CIRCLE('',#338,70.497213850769);
#338 = AXIS2_PLACEMENT_2D('',#339,#340);
#339 = CARTESIAN_POINT('',(0.,0.));
#340 = DIRECTION('',(1.,0.));
#341 = ( GEOMETRIC_REPRESENTATION_CONTEXT(2) 
PARAMETRIC_REPRESENTATION_CONTEXT() REPRESENTATION_CONTEXT('2D SPACE',''
  ) );
#342 = ORIENTED_EDGE('',*,*,#343,.F.);
#343 = EDGE_CURVE('',#344,#310,#346,.T.);
#344 = VERTEX_POINT('',#345);
#345 = CARTESIAN_POINT('',(-166.792412618,-327.3383070528,75.17165713529
    ));
#346 = SEAM_CURVE('',#347,(#351,#358),.PCURVE_S1.);
#347 = LINE('',#348,#349);
#348 = CARTESIAN_POINT('',(-166.792412618,-327.3383070528,75.17165713529
    ));
#349 = VECTOR('',#350,1.);
#350 = DIRECTION('',(0.839186493976,0.478667786619,0.258153400872));
#351 = PCURVE('',#319,#352);
#352 = DEFINITIONAL_REPRESENTATION('',(#353),#357);
#353 = LINE('',#354,#355);
#354 = CARTESIAN_POINT('',(6.28318530718,-0.));
#355 = VECTOR('',#356,1.);
#356 = DIRECTION('',(0.,1.));
#357 = ( GEOMETRIC_REPRESENTATION_CONTEXT(2) 
PARAMETRIC_REPRESENTATION_CONTEXT() REPRESENTATION_CONTEXT('2D SPACE',''
  ) );
#358 = PCURVE('',#319,#359);
#359 = DEFINITIONAL_REPRESENTATION('',(#360),#364);
#360 = LINE('',#361,#362);
#361 = CARTESIAN_POINT('',(0.,-0.));
#362 = VECTOR('',#363,1.);
#363 = DIRECTION('',(0.,1.));
#364 = ( GEOMETRIC_REPRESENTATION_CONTEXT(2) 
PARAMETRIC_REPRESENTATION_CONTEXT() REPRESENTATION_CONTEXT('2D SPACE',''
  ) );
#365 = ORIENTED_EDGE('',*,*,#366,.T.);
#366 = EDGE_CURVE('',#344,#344,#367,.T.);
#367 = SURFACE_CURVE('',#368,(#373,#380),.PCURVE_S1.);
#368 = CIRCLE('',#369,70.497213850769);
#369 = AXIS2_PLACEMENT_3D('',#370,#371,#372);
#370 = CARTESIAN_POINT('',(-131.8637222955,-388.5742748583,
    75.17165713529));
#371 = DIRECTION('',(0.839186493976,0.478667786619,0.258153400872));
#372 = DIRECTION('',(-0.495461996504,0.868629616131,1.387778780781E-17)
  );
#373 = PCURVE('',#319,#374);
#374 = DEFINITIONAL_REPRESENTATION('',(#375),#379);
#375 = LINE('',#376,#377);
#376 = CARTESIAN_POINT('',(0.,0.));
#377 = VECTOR('',#378,1.);
#378 = DIRECTION('',(1.,0.));
#379 = ( GEOMETRIC_REPRESENTATION_CONTEXT(2) 
PARAMETRIC_REPRESENTATION_CONTEXT() REPRESENTATION_CONTEXT('2D SPACE',''
  ) );
#380 = PCURVE('',#381,#386);
#381 = PLANE('',#382);
#382 = AXIS2_PLACEMENT_3D('',#383,#384,#385);
#383 = CARTESIAN_POINT('',(-131.8637222955,-388.5742748583,
    75.17165713529));
#384 = DIRECTION('',(0.839186493976,0.478667786619,0.258153400872));
#385 = DIRECTION('',(-0.495461996504,0.868629616131,1.387778780781E-17)
  );
#386 = DEFINITIONAL_REPRESENTATION('',(#387),#391);
#387 = CIRCLE('',#388,70.497213850769);
#388 = AXIS2_PLACEMENT_2D('',#389,#390);
#389 = CARTESIAN_POINT('',(0.,0.));
#390 = DIRECTION('',(1.,0.));
#391 = ( GEOMETRIC_REPRESENTATION_CONTEXT(2) 
PARAMETRIC_REPRESENTATION_CONTEXT() REPRESENTATION_CONTEXT('2D SPACE',''
  ) );
#392 = ORIENTED_EDGE('',*,*,#343,.T.);
#393 = ADVANCED_FACE('',(#394),#331,.T.);
#394 = FACE_BOUND('',#395,.T.);
#395 = EDGE_LOOP('',(#396));
#396 = ORIENTED_EDGE('',*,*,#309,.T.);
#397 = ADVANCED_FACE('',(#398),#381,.F.);
#398 = FACE_BOUND('',#399,.T.);
#399 = EDGE_LOOP('',(#400));
#400 = ORIENTED_EDGE('',*,*,#366,.F.);
#401 = ( GEOMETRIC_REPRESENTATION_CONTEXT(3) 
GLOBAL_UNCERTAINTY_ASSIGNED_CONTEXT((#405)) GLOBAL_UNIT_ASSIGNED_CONTEXT
((#402,#403,#404)) REPRESENTATION_CONTEXT('Context #1',
  '3D Context with UNIT and UNCERTAINTY') );
#402 = ( LENGTH_UNIT() NAMED_UNIT(*) SI_UNIT(.MILLI.,.METRE.) );
#403 = ( NAMED_UNIT(*) PLANE_ANGLE_UNIT() SI_UNIT($,.RADIAN.) );
#404 = ( NAMED_UNIT(*) SI_UNIT($,.STERADIAN.) SOLID_ANGLE_UNIT() );
#405 = UNCERTAINTY_MEASURE_WITH_UNIT(LENGTH_MEASURE(1.E-07),#402,
  'distance_accuracy_value','confusion accuracy');
#406 = CONTEXT_DEPENDENT_SHAPE_REPRESENTATION(#407,#409);
#407 = ( REPRESENTATION_RELATIONSHIP('','',#302,#10) 
REPRESENTATION_RELATIONSHIP_WITH_TRANSFORMATION(#408) 
SHAPE_REPRESENTATION_RELATIONSHIP() );
#408 = ITEM_DEFINED_TRANSFORMATION('','',#11,#23);
#409 = PRODUCT_DEFINITION_SHAPE('Placement','Placement of an item',#410
  );
#410 = NEXT_ASSEMBLY_USAGE_OCCURRENCE('271','part2','',#5,#297,$);
#411 = PRODUCT_RELATED_PRODUCT_CATEGORY('part',$,(#299));
#412 = SHAPE_DEFINITION_REPRESENTATION(#413,#419);
#413 = PRODUCT_DEFINITION_SHAPE('','',#414);
#414 = PRODUCT_DEFINITION('design','',#415,#418);
#415 = PRODUCT_DEFINITION_FORMATION('','',#416);
#416 = PRODUCT('part3','part3','',(#417));
#417 = PRODUCT_CONTEXT('',#2,'mechanical');
#418 = PRODUCT_DEFINITION_CONTEXT('part definition',#2,'design');
#419 = ADVANCED_BREP_SHAPE_REPRESENTATION('',(#11,#420),#518);
#420 = MANIFOLD_SOLID_BREP('',#421);
#421 = CLOSED_SHELL('',(#422,#510,#514));
#422 = ADVANCED_FACE('',(#423),#436,.T.);
#423 = FACE_BOUND('',#424,.T.);
#424 = EDGE_LOOP('',(#425,#459,#482,#509));
#425 = ORIENTED_EDGE('',*,*,#426,.F.);
#426 = EDGE_CURVE('',#427,#427,#429,.T.);
#427 = VERTEX_POINT('',#428);
#428 = CARTESIAN_POINT('',(192.66232964945,333.43720239518,
    362.77189856362));
#429 = SURFACE_CURVE('',#430,(#435,#447),.PCURVE_S1.);
#430 = CIRCLE('',#431,51.956789666196);
#431 = AXIS2_PLACEMENT_3D('',#432,#433,#434);
#432 = CARTESIAN_POINT('',(147.50154780245,333.43720239518,
    388.46259289805));
#433 = DIRECTION('',(0.494351386677,2.121734717792E-02,0.869003182197));
#434 = DIRECTION('',(0.869198850374,-3.469446951954E-18,-0.494462696781)
  );
#435 = PCURVE('',#436,#441);
#436 = CYLINDRICAL_SURFACE('',#437,51.956789666196);
#437 = AXIS2_PLACEMENT_3D('',#438,#439,#440);
#438 = CARTESIAN_POINT('',(-8.045522440906,326.76118958161,
    115.03178504383));
#439 = DIRECTION('',(0.494351386677,2.121734717792E-02,0.869003182197));
#440 = DIRECTION('',(0.869198850374,-1.734723475977E-18,-0.494462696781)
  );
#441 = DEFINITIONAL_REPRESENTATION('',(#442),#446);
#442 = LINE('',#443,#444);
#443 = CARTESIAN_POINT('',(0.,314.64879928611));
#444 = VECTOR('',#445,1.);
#445 = DIRECTION('',(1.,0.));
#446 = ( GEOMETRIC_REPRESENTATION_CONTEXT(2) 
PARAMETRIC_REPRESENTATION_CONTEXT() REPRESENTATION_CONTEXT('2D SPACE',''
  ) );
#447 = PCURVE('',#448,#453);
#448 = PLANE('',#449);
#449 = AXIS2_PLACEMENT_3D('',#450,#451,#452);
#450 = CARTESIAN_POINT('',(147.50154780245,333.43720239518,
    388.46259289805));
#451 = DIRECTION('',(0.494351386677,2.121734717792E-02,0.869003182197));
#452 = DIRECTION('',(0.869198850374,-1.734723475977E-18,-0.494462696781)
  );
#453 = DEFINITIONAL_REPRESENTATION('',(#454),#458);
#454 = CIRCLE('',#455,51.956789666196);
#455 = AXIS2_PLACEMENT_2D('',#456,#457);
#456 = CARTESIAN_POINT('',(0.,0.));
#457 = DIRECTION('',(1.,0.));
#458 = ( GEOMETRIC_REPRESENTATION_CONTEXT(2) 
PARAMETRIC_REPRESENTATION_CONTEXT() REPRESENTATION_CONTEXT('2D SPACE',''
  ) );
#459 = ORIENTED_EDGE('',*,*,#460,.F.);
#460 = EDGE_CURVE('',#461,#427,#463,.T.);
#461 = VERTEX_POINT('',#462);
#462 = CARTESIAN_POINT('',(37.11525940609,326.76118958161,
    89.341090709401));
#463 = SEAM_CURVE('',#464,(#468,#475),.PCURVE_S1.);
#464 = LINE('',#465,#466);
#465 = CARTESIAN_POINT('',(37.11525940609,326.76118958161,
    89.341090709401));
#466 = VECTOR('',#467,1.);
#467 = DIRECTION('',(0.494351386677,2.121734717792E-02,0.869003182197));
#468 = PCURVE('',#436,#469);
#469 = DEFINITIONAL_REPRESENTATION('',(#470),#474);
#470 = LINE('',#471,#472);
#471 = CARTESIAN_POINT('',(6.28318530718,-0.));
#472 = VECTOR('',#473,1.);
#473 = DIRECTION('',(0.,1.));
#474 = ( GEOMETRIC_REPRESENTATION_CONTEXT(2) 
PARAMETRIC_REPRESENTATION_CONTEXT() REPRESENTATION_CONTEXT('2D SPACE',''
  ) );
#475 = PCURVE('',#436,#476);
#476 = DEFINITIONAL_REPRESENTATION('',(#477),#481);
#477 = LINE('',#478,#479);
#478 = CARTESIAN_POINT('',(0.,-0.));
#479 = VECTOR('',#480,1.);
#480 = DIRECTION('',(0.,1.));
#481 = ( GEOMETRIC_REPRESENTATION_CONTEXT(2) 
PARAMETRIC_REPRESENTATION_CONTEXT() REPRESENTATION_CONTEXT('2D SPACE',''
  ) );
#482 = ORIENTED_EDGE('',*,*,#483,.T.);
#483 = EDGE_CURVE('',#461,#461,#484,.T.);
#484 = SURFACE_CURVE('',#485,(#490,#497),.PCURVE_S1.);
#485 = CIRCLE('',#486,51.956789666196);
#486 = AXIS2_PLACEMENT_3D('',#487,#488,#489);
#487 = CARTESIAN_POINT('',(-8.045522440906,326.76118958161,
    115.03178504383));
#488 = DIRECTION('',(0.494351386677,2.121734717792E-02,0.869003182197));
#489 = DIRECTION('',(0.869198850374,-3.469446951954E-18,-0.494462696781)
  );
#490 = PCURVE('',#436,#491);
#491 = DEFINITIONAL_REPRESENTATION('',(#492),#496);
#492 = LINE('',#493,#494);
#493 = CARTESIAN_POINT('',(0.,0.));
#494 = VECTOR('',#495,1.);
#495 = DIRECTION('',(1.,0.));
#496 = ( GEOMETRIC_REPRESENTATION_CONTEXT(2) 
PARAMETRIC_REPRESENTATION_CONTEXT() REPRESENTATION_CONTEXT('2D SPACE',''
  ) );
#497 = PCURVE('',#498,#503);
#498 = PLANE('',#499);
#499 = AXIS2_PLACEMENT_3D('',#500,#501,#502);
#500 = CARTESIAN_POINT('',(-8.045522440906,326.76118958161,
    115.03178504383));
#501 = DIRECTION('',(0.494351386677,2.121734717792E-02,0.869003182197));
#502 = DIRECTION('',(0.869198850374,-1.734723475977E-18,-0.494462696781)
  );
#503 = DEFINITIONAL_REPRESENTATION('',(#504),#508);
#504 = CIRCLE('',#505,51.956789666196);
#505 = AXIS2_PLACEMENT_2D('',#506,#507);
#506 = CARTESIAN_POINT('',(0.,0.));
#507 = DIRECTION('',(1.,0.));
#508 = ( GEOMETRIC_REPRESENTATION_CONTEXT(2) 
PARAMETRIC_REPRESENTATION_CONTEXT() REPRESENTATION_CONTEXT('2D SPACE',''
  ) );
#509 = ORIENTED_EDGE('',*,*,#460,.T.);
#510 = ADVANCED_FACE('',(#511),#448,.T.);
#511 = FACE_BOUND('',#512,.T.);
#512 = EDGE_LOOP('',(#513));
#513 = ORIENTED_EDGE('',*,*,#426,.T.);
#514 = ADVANCED_FACE('',(#515),#498,.F.);
#515 = FACE_BOUND('',#516,.T.);
#516 = EDGE_LOOP('',(#517));
#517 = ORIENTED_EDGE('',*,*,#483,.F.);
#518 = ( GEOMETRIC_REPRESENTATION_CONTEXT(3) 
GLOBAL_UNCERTAINTY_ASSIGNED_CONTEXT((#522)) GLOBAL_UNIT_ASSIGNED_CONTEXT
((#519,#520,#521)) REPRESENTATION_CONTEXT('Context #1',
  '3D Context with UNIT and UNCERTAINTY') );
#519 = ( LENGTH_UNIT() NAMED_UNIT(*) SI_UNIT(.MILLI.,.METRE.) );
#520 = ( NAMED_UNIT(*) PLANE_ANGLE_UNIT() SI_UNIT($,.RADIAN.) );
#521 = ( NAMED_UNIT(*) SI_UNIT($,.STERADIAN.) SOLID_ANGLE_UNIT() );
#522 = UNCERTAINTY_MEASURE_WITH_UNIT(LENGTH_MEASURE(1.E-07),#519,
  'distance_accuracy_value','confusion accuracy');
#523 = CONTEXT_DEPENDENT_SHAPE_REPRESENTATION(#524,#526);
#524 = ( REPRESENTATION_RELATIONSHIP('','',#419,#10) 
REPRESENTATION_RELATIONSHIP_WITH_TRANSFORMATION(#525) 
SHAPE_REPRESENTATION_RELATIONSHIP() );
#525 = ITEM_DEFINED_TRANSFORMATION('','',#11,#27);
#526 = PRODUCT_DEFINITION_SHAPE('Placement','Placement of an item',#527
  );
#527 = NEXT_ASSEMBLY_USAGE_OCCURRENCE('272','part3','',#5,#414,$);
#528 = PRODUCT_RELATED_PRODUCT_CATEGORY('part',$,(#416));
#529 = SHAPE_DEFINITION_REPRESENTATION(#530,#536);
#530 = PRODUCT_DEFINITION_SHAPE('','',#531);
#531 = PRODUCT_DEFINITION('design','',#532,#535);
#532 = PRODUCT_DEFINITION_FORMATION('','',#533);
#533 = PRODUCT('part4','part4','',(#534));
#534 = PRODUCT_CONTEXT('',#2,'mechanical');
#535 = PRODUCT_DEFINITION_CONTEXT('part definition',#2,'design');
#536 = ADVANCED_BREP_SHAPE_REPRESENTATION('',(#11,#537),#635);
#537 = MANIFOLD_SOLID_BREP('',#538);
#538 = CLOSED_SHELL('',(#539,#627,#631));
#539 = ADVANCED_FACE('',(#540),#553,.T.);
#540 = FACE_BOUND('',#541,.T.);
#541 = EDGE_LOOP('',(#542,#576,#599,#626));
#542 = ORIENTED_EDGE('',*,*,#543,.F.);
#543 = EDGE_CURVE('',#544,#544,#546,.T.);
#544 = VERTEX_POINT('',#545);
#545 = CARTESIAN_POINT('',(-360.0773767301,326.44412032492,
    509.09880148355));
#546 = SURFACE_CURVE('',#547,(#552,#564),.PCURVE_S1.);
#547 = CIRCLE('',#548,54.121628400156);
#548 = AXIS2_PLACEMENT_3D('',#549,#550,#551);
#549 = CARTESIAN_POINT('',(-335.0215208649,326.44412032492,
    461.12636411012));
#550 = DIRECTION('',(0.840975783393,-0.315956935513,0.439239054101));
#551 = DIRECTION('',(-0.462954582222,-1.387778780781E-17,0.88638200275)
  );
#552 = PCURVE('',#553,#558);
#553 = CYLINDRICAL_SURFACE('',#554,54.121628400156);
#554 = AXIS2_PLACEMENT_3D('',#555,#556,#557);
#555 = CARTESIAN_POINT('',(-877.5786431637,530.28433675833,
    177.75045495785));
#556 = DIRECTION('',(0.840975783393,-0.315956935513,0.439239054101));
#557 = DIRECTION('',(-0.462954582222,-1.387778780781E-17,0.88638200275)
  );
#558 = DEFINITIONAL_REPRESENTATION('',(#559),#563);
#559 = LINE('',#560,#561);
#560 = CARTESIAN_POINT('',(0.,645.15189737041));
#561 = VECTOR('',#562,1.);
#562 = DIRECTION('',(1.,0.));
#563 = ( GEOMETRIC_REPRESENTATION_CONTEXT(2) 
PARAMETRIC_REPRESENTATION_CONTEXT() REPRESENTATION_CONTEXT('2D SPACE',''
  ) );
#564 = PCURVE('',#565,#570);
#565 = PLANE('',#566);
#566 = AXIS2_PLACEMENT_3D('',#567,#568,#569);
#567 = CARTESIAN_POINT('',(-335.0215208649,326.44412032492,
    461.12636411012));
#568 = DIRECTION('',(0.840975783393,-0.315956935513,0.439239054101));
#569 = DIRECTION('',(-0.462954582222,-1.387778780781E-17,0.88638200275)
  );
#570 = DEFINITIONAL_REPRESENTATION('',(#571),#575);
#571 = CIRCLE('',#572,54.121628400156);
#572 = AXIS2_PLACEMENT_2D('',#573,#574);
#573 = CARTESIAN_POINT('',(0.,0.));
#574 = DIRECTION('',(1.,0.));
#575 = ( GEOMETRIC_REPRESENTATION_CONTEXT(2) 
PARAMETRIC_REPRESENTATION_CONTEXT() REPRESENTATION_CONTEXT('2D SPACE',''
  ) );
#576 = ORIENTED_EDGE('',*,*,#577,.F.);
#577 = EDGE_CURVE('',#578,#544,#580,.T.);
#578 = VERTEX_POINT('',#579);
#579 = CARTESIAN_POINT('',(-902.6344990289,530.28433675833,
    225.72289233128));
#580 = SEAM_CURVE('',#581,(#585,#592),.PCURVE_S1.);
#581 = LINE('',#582,#583);
#582 = CARTESIAN_POINT('',(-902.6344990289,530.28433675833,
    225.72289233128));
#583 = VECTOR('',#584,1.);
#584 = DIRECTION('',(0.840975783393,-0.315956935513,0.439239054101));
#585 = PCURVE('',#553,#586);
#586 = DEFINITIONAL_REPRESENTATION('',(#587),#591);
#587 = LINE('',#588,#589);
#588 = CARTESIAN_POINT('',(6.28318530718,-0.));
#589 = VECTOR('',#590,1.);
#590 = DIRECTION('',(0.,1.));
#591 = ( GEOMETRIC_REPRESENTATION_CONTEXT(2) 
PARAMETRIC_REPRESENTATION_CONTEXT() REPRESENTATION_CONTEXT('2D SPACE',''
  ) );
#592 = PCURVE('',#553,#593);
#593 = DEFINITIONAL_REPRESENTATION('',(#594),#598);
#594 = LINE('',#595,#596);
#595 = CARTESIAN_POINT('',(0.,-0.));
#596 = VECTOR('',#597,1.);
#597 = DIRECTION('',(0.,1.));
#598 = ( GEOMETRIC_REPRESENTATION_CONTEXT(2) 
PARAMETRIC_REPRESENTATION_CONTEXT() REPRESENTATION_CONTEXT('2D SPACE',''
  ) );
#599 = ORIENTED_EDGE('',*,*,#600,.T.);
#600 = EDGE_CURVE('',#578,#578,#601,.T.);
#601 = SURFACE_CURVE('',#602,(#607,#614),.PCURVE_S1.);
#602 = CIRCLE('',#603,54.121628400156);
#603 = AXIS2_PLACEMENT_3D('',#604,#605,#606);
#604 = CARTESIAN_POINT('',(-877.5786431637,530.28433675833,
    177.75045495785));
#605 = DIRECTION('',(0.840975783393,-0.315956935513,0.439239054101));
#606 = DIRECTION('',(-0.462954582222,-1.387778780781E-17,0.88638200275)
  );
#607 = PCURVE('',#553,#608);
#608 = DEFINITIONAL_REPRESENTATION('',(#609),#613);
#609 = LINE('',#610,#611);
#610 = CARTESIAN_POINT('',(0.,0.));
#611 = VECTOR('',#612,1.);
#612 = DIRECTION('',(1.,0.));
#613 = ( GEOMETRIC_REPRESENTATION_CONTEXT(2) 
PARAMETRIC_REPRESENTATION_CONTEXT() REPRESENTATION_CONTEXT('2D SPACE',''
  ) );
#614 = PCURVE('',#615,#620);
#615 = PLANE('',#616);
#616 = AXIS2_PLACEMENT_3D('',#617,#618,#619);
#617 = CARTESIAN_POINT('',(-877.5786431637,530.28433675833,
    177.75045495785));
#618 = DIRECTION('',(0.840975783393,-0.315956935513,0.439239054101));
#619 = DIRECTION('',(-0.462954582222,-1.387778780781E-17,0.88638200275)
  );
#620 = DEFINITIONAL_REPRESENTATION('',(#621),#625);
#621 = CIRCLE('',#622,54.121628400156);
#622 = AXIS2_PLACEMENT_2D('',#623,#624);
#623 = CARTESIAN_POINT('',(0.,0.));
#624 = DIRECTION('',(1.,0.));
#625 = ( GEOMETRIC_REPRESENTATION_CONTEXT(2) 
PARAMETRIC_REPRESENTATION_CONTEXT() REPRESENTATION_CONTEXT('2D SPACE',''
  ) );
#626 = ORIENTED_EDGE('',*,*,#577,.T.);
#627 = ADVANCED_FACE('',(#628),#565,.T.);
#628 = FACE_BOUND('',#629,.T.);
#629 = EDGE_LOOP('',(#630));
#630 = ORIENTED_EDGE('',*,*,#543,.T.);
#631 = ADVANCED_FACE('',(#632),#615,.F.);
#632 = FACE_BOUND('',#633,.T.);
#633 = EDGE_LOOP('',(#634));
#634 = ORIENTED_EDGE('',*,*,#600,.F.);
#635 = ( GEOMETRIC_REPRESENTATION_CONTEXT(3) 
GLOBAL_UNCERTAINTY_ASSIGNED_CONTEXT((#639)) GLOBAL_UNIT_ASSIGNED_CONTEXT
((#636,#637,#638)) REPRESENTATION_CONTEXT('Context #1',
  '3D Context with UNIT and UNCERTAINTY') );
#636 = ( LENGTH_UNIT() NAMED_UNIT(*) SI_UNIT(.MILLI.,.METRE.) );
#637 = ( NAMED_UNIT(*) PLANE_ANGLE_UNIT() SI_UNIT($,.RADIAN.) );
#638 = ( NAMED_UNIT(*) SI_UNIT($,.STERADIAN.) SOLID_ANGLE_UNIT() );
#639 = UNCERTAINTY_MEASURE_WITH_UNIT(LENGTH_MEASURE(1.E-07),#636,
  'distance_accuracy_value','confusion accuracy');
#640 = CONTEXT_DEPENDENT_SHAPE_REPRESENTATION(#641,#643);
#641 = ( REPRESENTATION_RELATIONSHIP('','',#536,#10) 
REPRESENTATION_RELATIONSHIP_WITH_TRANSFORMATION(#642) 
SHAPE_REPRESENTATION_RELATIONSHIP() );
#642 = ITEM_DEFINED_TRANSFORMATION('','',#11,#31);
#643 = PRODUCT_DEFINITION_SHAPE('Placement','Placement of an item',#644
  );
#644 = NEXT_ASSEMBLY_USAGE_OCCURRENCE('273','part4','',#5,#531,$);
#645 = PRODUCT_RELATED_PRODUCT_CATEGORY('part',$,(#533));
#646 = SHAPE_DEFINITION_REPRESENTATION(#647,#653);
#647 = PRODUCT_DEFINITION_SHAPE('','',#648);
#648 = PRODUCT_DEFINITION('design','',#649,#652);
#649 = PRODUCT_DEFINITION_FORMATION('','',#650);
#650 = PRODUCT('part5','part5','',(#651));
#651 = PRODUCT_CONTEXT('',#2,'mechanical');
#652 = PRODUCT_DEFINITION_CONTEXT('part definition',#2,'design');
#653 = ADVANCED_BREP_SHAPE_REPRESENTATION('',(#11,#654),#752);
#654 = MANIFOLD_SOLID_BREP('',#655);
#655 = CLOSED_SHELL('',(#656,#744,#748));
#656 = ADVANCED_FACE('',(#657),#670,.T.);
#657 = FACE_BOUND('',#658,.T.);
#658 = EDGE_LOOP('',(#659,#693,#716,#743));
#659 = ORIENTED_EDGE('',*,*,#660,.F.);
#660 = EDGE_CURVE('',#661,#661,#663,.T.);
#661 = VERTEX_POINT('',#662);
#662 = CARTESIAN_POINT('',(1.356609854574E+03,280.50415401029,
    577.76641341578));
#663 = SURFACE_CURVE('',#664,(#669,#681),.PCURVE_S1.);
#664 = CIRCLE('',#665,81.475445224984);
#665 = AXIS2_PLACEMENT_3D('',#666,#667,#668);
#666 = CARTESIAN_POINT('',(1.403835623464E+03,280.50415401029,
    511.37383154564));
#667 = DIRECTION('',(0.797332336264,0.206399271123,0.567151202439));
#668 = DIRECTION('',(-0.579631921732,1.387778780781E-17,0.814878417501)
  );
#669 = PCURVE('',#670,#675);
#670 = CYLINDRICAL_SURFACE('',#671,81.475445224984);
#671 = AXIS2_PLACEMENT_3D('',#672,#673,#674);
#672 = CARTESIAN_POINT('',(711.37600859369,101.25247526753,
    18.819741673463));
#673 = DIRECTION('',(0.797332336264,0.206399271123,0.567151202439));
#674 = DIRECTION('',(-0.579631921732,0.,0.814878417501));
#675 = DEFINITIONAL_REPRESENTATION('',(#676),#680);
#676 = LINE('',#677,#678);
#677 = CARTESIAN_POINT('',(0.,868.47050266993));
#678 = VECTOR('',#679,1.);
#679 = DIRECTION('',(1.,0.));
#680 = ( GEOMETRIC_REPRESENTATION_CONTEXT(2) 
PARAMETRIC_REPRESENTATION_CONTEXT() REPRESENTATION_CONTEXT('2D SPACE',''
  ) );
#681 = PCURVE('',#682,#687);
#682 = PLANE('',#683);
#683 = AXIS2_PLACEMENT_3D('',#684,#685,#686);
#684 = CARTESIAN_POINT('',(1.403835623464E+03,280.50415401029,
    511.37383154564));
#685 = DIRECTION('',(0.797332336264,0.206399271123,0.567151202439));
#686 = DIRECTION('',(-0.579631921732,0.,0.814878417501));
#687 = DEFINITIONAL_REPRESENTATION('',(#688),#692);
#688 = CIRCLE('',#689,81.475445224984);
#689 = AXIS2_PLACEMENT_2D('',#690,#691);
#690 = CARTESIAN_POINT('',(0.,0.));
#691 = DIRECTION('',(1.,0.));
#692 = ( GEOMETRIC_REPRESENTATION_CONTEXT(2) 
PARAMETRIC_REPRESENTATION_CONTEXT() REPRESENTATION_CONTEXT('2D SPACE',''
  ) );
#693 = ORIENTED_EDGE('',*,*,#694,.F.);
#694 = EDGE_CURVE('',#695,#661,#697,.T.);
#695 = VERTEX_POINT('',#696);
#696 = CARTESIAN_POINT('',(664.15023970397,101.25247526753,
    85.212323543609));
#697 = SEAM_CURVE('',#698,(#702,#709),.PCURVE_S1.);
#698 = LINE('',#699,#700);
#699 = CARTESIAN_POINT('',(664.15023970397,101.25247526753,
    85.212323543609));
#700 = VECTOR('',#701,1.);
#701 = DIRECTION('',(0.797332336264,0.206399271123,0.567151202439));
#702 = PCURVE('',#670,#703);
#703 = DEFINITIONAL_REPRESENTATION('',(#704),#708);
#704 = LINE('',#705,#706);
#705 = CARTESIAN_POINT('',(6.28318530718,-0.));
#706 = VECTOR('',#707,1.);
#707 = DIRECTION('',(0.,1.));
#708 = ( GEOMETRIC_REPRESENTATION_CONTEXT(2) 
PARAMETRIC_REPRESENTATION_CONTEXT() REPRESENTATION_CONTEXT('2D SPACE',''
  ) );
#709 = PCURVE('',#670,#710);
#710 = DEFINITIONAL_REPRESENTATION('',(#711),#715);
#711 = LINE('',#712,#713);
#712 = CARTESIAN_POINT('',(0.,-0.));
#713 = VECTOR('',#714,1.);
#714 = DIRECTION('',(0.,1.));
#715 = ( GEOMETRIC_REPRESENTATION_CONTEXT(2) 
PARAMETRIC_REPRESENTATION_CONTEXT() REPRESENTATION_CONTEXT('2D SPACE',''
  ) );
#716 = ORIENTED_EDGE('',*,*,#717,.T.);
#717 = EDGE_CURVE('',#695,#695,#718,.T.);
#718 = SURFACE_CURVE('',#719,(#724,#731),.PCURVE_S1.);
#719 = CIRCLE('',#720,81.475445224984);
#720 = AXIS2_PLACEMENT_3D('',#721,#722,#723);
#721 = CARTESIAN_POINT('',(711.37600859369,101.25247526753,
    18.819741673463));
#722 = DIRECTION('',(0.797332336264,0.206399271123,0.567151202439));
#723 = DIRECTION('',(-0.579631921732,1.387778780781E-17,0.814878417501)
  );
#724 = PCURVE('',#670,#725);
#725 = DEFINITIONAL_REPRESENTATION('',(#726),#730);
#726 = LINE('',#727,#728);
#727 = CARTESIAN_POINT('',(0.,0.));
#728 = VECTOR('',#729,1.);
#729 = DIRECTION('',(1.,0.));
#730 = ( GEOMETRIC_REPRESENTATION_CONTEXT(2) 
PARAMETRIC_REPRESENTATION_CONTEXT() REPRESENTATION_CONTEXT('2D SPACE',''
  ) );
#731 = PCURVE('',#732,#737);
#732 = PLANE('',#733);
#733 = AXIS2_PLACEMENT_3D('',#734,#735,#736);
#734 = CARTESIAN_POINT('',(711.37600859369,101.25247526753,
    18.819741673463));
#735 = DIRECTION('',(0.797332336264,0.206399271123,0.567151202439));
#736 = DIRECTION('',(-0.579631921732,0.,0.814878417501));
#737 = DEFINITIONAL_REPRESENTATION('',(#738),#742);
#738 = CIRCLE('',#739,81.475445224984);
#739 = AXIS2_PLACEMENT_2D('',#740,#741);
#740 = CARTESIAN_POINT('',(0.,0.));
#741 = DIRECTION('',(1.,0.));
#742 = ( GEOMETRIC_REPRESENTATION_CONTEXT(2) 
PARAMETRIC_REPRESENTATION_CONTEXT() REPRESENTATION_CONTEXT('2D SPACE',''
  ) );
#743 = ORIENTED_EDGE('',*,*,#694,.T.);
#744 = ADVANCED_FACE('',(#745),#682,.T.);
#745 = FACE_BOUND('',#746,.T.);
#746 = EDGE_LOOP('',(#747));
#747 = ORIENTED_EDGE('',*,*,#660,.T.);
#748 = ADVANCED_FACE('',(#749),#732,.F.);
#749 = FACE_BOUND('',#750,.T.);
#750 = EDGE_LOOP('',(#751));
#751 = ORIENTED_EDGE('',*,*,#717,.F.);
#752 = ( GEOMETRIC_REPRESENTATION_CONTEXT(3) 
GLOBAL_UNCERTAINTY_ASSIGNED_CONTEXT((#756)) GLOBAL_UNIT_ASSIGNED_CONTEXT
((#753,#754,#755)) REPRESENTATION_CONTEXT('Context #1',
  '3D Context with UNIT and UNCERTAINTY') );
#753 = ( LENGTH_UNIT() NAMED_UNIT(*) SI_UNIT(.MILLI.,.METRE.) );
#754 = ( NAMED_UNIT(*) PLANE_ANGLE_UNIT() SI_UNIT($,.RADIAN.) );
#755 = ( NAMED_UNIT(*) SI_UNIT($,.STERADIAN.) SOLID_ANGLE_UNIT() );
#756 = UNCERTAINTY_MEASURE_WITH_UNIT(LENGTH_MEASURE(1.E-07),#753,
  'distance_accuracy_value','confusion accuracy');
#757 = CONTEXT_DEPENDENT_SHAPE_REPRESENTATION(#758,#760);
#758 = ( REPRESENTATION_RELATIONSHIP('','',#653,#10) 
REPRESENTATION_RELATIONSHIP_WITH_TRANSFORMATION(#759) 
SHAPE_REPRESENTATION_RELATIONSHIP() );
#759 = ITEM_DEFINED_TRANSFORMATION('','',#11,#35);
#760 = PRODUCT_DEFINITION_SHAPE('Placement','Placement of an item',#761
  );
#761 = NEXT_ASSEMBLY_USAGE_OCCURRENCE('274','part5','',#5,#648,$);
#762 = PRODUCT_RELATED_PRODUCT_CATEGORY('part',$,(#650));
#763 = SHAPE_DEFINITION_REPRESENTATION(#764,#770);
#764 = PRODUCT_DEFINITION_SHAPE('','',#765);
#765 = PRODUCT_DEFINITION('design','',#766,#769);
#766 = PRODUCT_DEFINITION_FORMATION('','',#767);
#767 = PRODUCT('part6','part6','',(#768));
#768 = PRODUCT_CONTEXT('',#2,'mechanical');
#769 = PRODUCT_DEFINITION_CONTEXT('part definition',#2,'design');
#770 = ADVANCED_BREP_SHAPE_REPRESENTATION('',(#11,#771),#869);
#771 = MANIFOLD_SOLID_BREP('',#772);
#772 = CLOSED_SHELL('',(#773,#861,#865));
#773 = ADVANCED_FACE('',(#774),#787,.T.);
#774 = FACE_BOUND('',#775,.T.);
#775 = EDGE_LOOP('',(#776,#810,#833,#860));
#776 = ORIENTED_EDGE('',*,*,#777,.F.);
#777 = EDGE_CURVE('',#778,#778,#780,.T.);
#778 = VERTEX_POINT('',#779);
#779 = CARTESIAN_POINT('',(844.05276558822,75.584826187008,
    597.9978225839));
#780 = SURFACE_CURVE('',#781,(#786,#798),.PCURVE_S1.);
#781 = CIRCLE('',#782,81.23461107002);
#782 = AXIS2_PLACEMENT_3D('',#783,#784,#785);
#783 = CARTESIAN_POINT('',(844.05276558822,-1.314869262218,
    624.17985603269));
#784 = DIRECTION('',(7.386386250667E-02,0.321421036328,0.944051188878));
#785 = DIRECTION('',(-3.469446951954E-18,0.946637085305,-0.322301456287)
  );
#786 = PCURVE('',#787,#792);
#787 = CYLINDRICAL_SURFACE('',#788,81.23461107002);
#788 = AXIS2_PLACEMENT_3D('',#789,#790,#791);
#789 = CARTESIAN_POINT('',(797.82649462514,-202.4700135274,
    33.36366284838));
#790 = DIRECTION('',(7.386386250667E-02,0.321421036328,0.944051188878));
#791 = DIRECTION('',(-3.469446951954E-18,0.946637085305,-0.322301456287)
  );
#792 = DEFINITIONAL_REPRESENTATION('',(#793),#797);
#793 = LINE('',#794,#795);
#794 = CARTESIAN_POINT('',(0.,625.8306754389));
#795 = VECTOR('',#796,1.);
#796 = DIRECTION('',(1.,0.));
#797 = ( GEOMETRIC_REPRESENTATION_CONTEXT(2) 
PARAMETRIC_REPRESENTATION_CONTEXT() REPRESENTATION_CONTEXT('2D SPACE',''
  ) );
#798 = PCURVE('',#799,#804);
#799 = PLANE('',#800);
#800 = AXIS2_PLACEMENT_3D('',#801,#802,#803);
#801 = CARTESIAN_POINT('',(844.05276558822,-1.314869262218,
    624.17985603269));
#802 = DIRECTION('',(7.386386250667E-02,0.321421036328,0.944051188878));
#803 = DIRECTION('',(-3.469446951954E-18,0.946637085305,-0.322301456287)
  );
#804 = DEFINITIONAL_REPRESENTATION('',(#805),#809);
#805 = CIRCLE('',#806,81.23461107002);
#806 = AXIS2_PLACEMENT_2D('',#807,#808);
#807 = CARTESIAN_POINT('',(0.,0.));
#808 = DIRECTION('',(1.,0.));
#809 = ( GEOMETRIC_REPRESENTATION_CONTEXT(2) 
PARAMETRIC_REPRESENTATION_CONTEXT() REPRESENTATION_CONTEXT('2D SPACE',''
  ) );
#810 = ORIENTED_EDGE('',*,*,#811,.F.);
#811 = EDGE_CURVE('',#812,#778,#814,.T.);
#812 = VERTEX_POINT('',#813);
#813 = CARTESIAN_POINT('',(797.82649462514,-125.5703180782,
    7.181629399588));
#814 = SEAM_CURVE('',#815,(#819,#826),.PCURVE_S1.);
#815 = LINE('',#816,#817);
#816 = CARTESIAN_POINT('',(797.82649462514,-125.5703180782,
    7.181629399588));
#817 = VECTOR('',#818,1.);
#818 = DIRECTION('',(7.386386250667E-02,0.321421036328,0.944051188878));
#819 = PCURVE('',#787,#820);
#820 = DEFINITIONAL_REPRESENTATION('',(#821),#825);
#821 = LINE('',#822,#823);
#822 = CARTESIAN_POINT('',(6.28318530718,-0.));
#823 = VECTOR('',#824,1.);
#824 = DIRECTION('',(0.,1.));
#825 = ( GEOMETRIC_REPRESENTATION_CONTEXT(2) 
PARAMETRIC_REPRESENTATION_CONTEXT() REPRESENTATION_CONTEXT('2D SPACE',''
  ) );
#826 = PCURVE('',#787,#827);
#827 = DEFINITIONAL_REPRESENTATION('',(#828),#832);
#828 = LINE('',#829,#830);
#829 = CARTESIAN_POINT('',(0.,-0.));
#830 = VECTOR('',#831,1.);
#831 = DIRECTION('',(0.,1.));
#832 = ( GEOMETRIC_REPRESENTATION_CONTEXT(2) 
PARAMETRIC_REPRESENTATION_CONTEXT() REPRESENTATION_CONTEXT('2D SPACE',''
  ) );
#833 = ORIENTED_EDGE('',*,*,#834,.T.);
#834 = EDGE_CURVE('',#812,#812,#835,.T.);
#835 = SURFACE_CURVE('',#836,(#841,#848),.PCURVE_S1.);
#836 = CIRCLE('',#837,81.23461107002);
#837 = AXIS2_PLACEMENT_3D('',#838,#839,#840);
#838 = CARTESIAN_POINT('',(797.82649462514,-202.4700135274,
    33.36366284838));
#839 = DIRECTION('',(7.386386250667E-02,0.321421036328,0.944051188878));
#840 = DIRECTION('',(-3.469446951954E-18,0.946637085305,-0.322301456287)
  );
#841 = PCURVE('',#787,#842);
#842 = DEFINITIONAL_REPRESENTATION('',(#843),#847);
#843 = LINE('',#844,#845);
#844 = CARTESIAN_POINT('',(0.,0.));
#845 = VECTOR('',#846,1.);
#846 = DIRECTION('',(1.,0.));
#847 = ( GEOMETRIC_REPRESENTATION_CONTEXT(2) 
PARAMETRIC_REPRESENTATION_CONTEXT() REPRESENTATION_CONTEXT('2D SPACE',''
  ) );
#848 = PCURVE('',#849,#854);
#849 = PLANE('',#850);
#850 = AXIS2_PLACEMENT_3D('',#851,#852,#853);
#851 = CARTESIAN_POINT('',(797.82649462514,-202.4700135274,
    33.36366284838));
#852 = DIRECTION('',(7.386386250667E-02,0.321421036328,0.944051188878));
#853 = DIRECTION('',(-3.469446951954E-18,0.946637085305,-0.322301456287)
  );
#854 = DEFINITIONAL_REPRESENTATION('',(#855),#859);
#855 = CIRCLE('',#856,81.23461107002);
#856 = AXIS2_PLACEMENT_2D('',#857,#858);
#857 = CARTESIAN_POINT('',(0.,0.));
#858 = DIRECTION('',(1.,0.));
#859 = ( GEOMETRIC_REPRESENTATION_CONTEXT(2) 
PARAMETRIC_REPRESENTATION_CONTEXT() REPRESENTATION_CONTEXT('2D SPACE',''
  ) );
#860 = ORIENTED_EDGE('',*,*,#811,.T.);
#861 = ADVANCED_FACE('',(#862),#799,.T.);
#862 = FACE_BOUND('',#863,.T.);
#863 = EDGE_LOOP('',(#864));
#864 = ORIENTED_EDGE('',*,*,#777,.T.);
#865 = ADVANCED_FACE('',(#866),#849,.F.);
#866 = FACE_BOUND('',#867,.T.);
#867 = EDGE_LOOP('',(#868));
#868 = ORIENTED_EDGE('',*,*,#834,.F.);
#869 = ( GEOMETRIC_REPRESENTATION_CONTEXT(3) 
GLOBAL_UNCERTAINTY_ASSIGNED_CONTEXT((#873)) GLOBAL_UNIT_ASSIGNED_CONTEXT
((#870,#871,#872)) REPRESENTATION_CONTEXT('Context #1',
  '3D Context with UNIT and UNCERTAINTY') );
#870 = ( LENGTH_UNIT() NAMED_UNIT(*) SI_UNIT(.MILLI.,.METRE.) );
#871 = ( NAMED_UNIT(*) PLANE_ANGLE_UNIT() SI_UNIT($,.RADIAN.) );
#872 = ( NAMED_UNIT(*) SI_UNIT($,.STERADIAN.) SOLID_ANGLE_UNIT() );
#873 = UNCERTAINTY_MEASURE_WITH_UNIT(LENGTH_MEASURE(1.E-07),#870,
  'distance_accuracy_value','confusion accuracy');
#874 = CONTEXT_DEPENDENT_SHAPE_REPRESENTATION(#875,#877);
#875 = ( REPRESENTATION_RELATIONSHIP('','',#770,#10) 
REPRESENTATION_RELATIONSHIP_WITH_TRANSFORMATION(#876) 
SHAPE_REPRESENTATION_RELATIONSHIP() );
#876 = ITEM_DEFINED_TRANSFORMATION('','',#11,#39);
#877 = PRODUCT_DEFINITION_SHAPE('Placement','Placement of an item',#878
  );
#878 = NEXT_ASSEMBLY_USAGE_OCCURRENCE('275','part6','',#5,#765,$);
#879 = PRODUCT_RELATED_PRODUCT_CATEGORY('part',$,(#767));
#880 = SHAPE_DEFINITION_REPRESENTATION(#881,#887);
#881 = PRODUCT_DEFINITION_SHAPE('','',#882);
#882 = PRODUCT_DEFINITION('design','',#883,#886);
#883 = PRODUCT_DEFINITION_FORMATION('','',#884);
#884 = PRODUCT('part7','part7','',(#885));
#885 = PRODUCT_CONTEXT('',#2,'mechanical');
#886 = PRODUCT_DEFINITION_CONTEXT('part definition',#2,'design');
#887 = ADVANCED_BREP_SHAPE_REPRESENTATION('',(#11,#888),#986);
#888 = MANIFOLD_SOLID_BREP('',#889);
#889 = CLOSED_SHELL('',(#890,#978,#982));
#890 = ADVANCED_FACE('',(#891),#904,.T.);
#891 = FACE_BOUND('',#892,.T.);
#892 = EDGE_LOOP('',(#893,#927,#950,#977));
#893 = ORIENTED_EDGE('',*,*,#894,.F.);
#894 = EDGE_CURVE('',#895,#895,#897,.T.);
#895 = VERTEX_POINT('',#896);
#896 = CARTESIAN_POINT('',(-1.110922106221E+03,-141.3332191951,
    719.66262900126));
#897 = SURFACE_CURVE('',#898,(#903,#915),.PCURVE_S1.);
#898 = CIRCLE('',#899,72.078792948322);
#899 = AXIS2_PLACEMENT_3D('',#900,#901,#902);
#900 = CARTESIAN_POINT('',(-1.110922106221E+03,-204.3020070073,
    684.58722231294));
#901 = DIRECTION('',(-0.310967380615,-0.462499261941,0.830297368957));
#902 = DIRECTION('',(0.,0.873610464833,0.486625888886));
#903 = PCURVE('',#904,#909);
#904 = CYLINDRICAL_SURFACE('',#905,72.078792948322);
#905 = AXIS2_PLACEMENT_3D('',#906,#907,#908);
#906 = CARTESIAN_POINT('',(-899.8055029453,109.69000400418,
    120.89607279055));
#907 = DIRECTION('',(-0.310967380615,-0.462499261941,0.830297368957));
#908 = DIRECTION('',(0.,0.873610464833,0.486625888886));
#909 = DEFINITIONAL_REPRESENTATION('',(#910),#914);
#910 = LINE('',#911,#912);
#911 = CARTESIAN_POINT('',(0.,678.90272882615));
#912 = VECTOR('',#913,1.);
#913 = DIRECTION('',(1.,0.));
#914 = ( GEOMETRIC_REPRESENTATION_CONTEXT(2) 
PARAMETRIC_REPRESENTATION_CONTEXT() REPRESENTATION_CONTEXT('2D SPACE',''
  ) );
#915 = PCURVE('',#916,#921);
#916 = PLANE('',#917);
#917 = AXIS2_PLACEMENT_3D('',#918,#919,#920);
#918 = CARTESIAN_POINT('',(-1.110922106221E+03,-204.3020070073,
    684.58722231294));
#919 = DIRECTION('',(-0.310967380615,-0.462499261941,0.830297368957));
#920 = DIRECTION('',(0.,0.873610464833,0.486625888886));
#921 = DEFINITIONAL_REPRESENTATION('',(#922),#926);
#922 = CIRCLE('',#923,72.078792948322);
#923 = AXIS2_PLACEMENT_2D('',#924,#925);
#924 = CARTESIAN_POINT('',(0.,0.));
#925 = DIRECTION('',(1.,0.));
#926 = ( GEOMETRIC_REPRESENTATION_CONTEXT(2) 
PARAMETRIC_REPRESENTATION_CONTEXT() REPRESENTATION_CONTEXT('2D SPACE',''
  ) );
#927 = ORIENTED_EDGE('',*,*,#928,.F.);
#928 = EDGE_CURVE('',#929,#895,#931,.T.);
#929 = VERTEX_POINT('',#930);
#930 = CARTESIAN_POINT('',(-899.8055029453,172.65879181636,
    155.97147947887));
#931 = SEAM_CURVE('',#932,(#936,#943),.PCURVE_S1.);
#932 = LINE('',#933,#934);
#933 = CARTESIAN_POINT('',(-899.8055029453,172.65879181636,
    155.97147947887));
#934 = VECTOR('',#935,1.);
#935 = DIRECTION('',(-0.310967380615,-0.462499261941,0.830297368957));
#936 = PCURVE('',#904,#937);
#937 = DEFINITIONAL_REPRESENTATION('',(#938),#942);
#938 = LINE('',#939,#940);
#939 = CARTESIAN_POINT('',(6.28318530718,-0.));
#940 = VECTOR('',#941,1.);
#941 = DIRECTION('',(0.,1.));
#942 = ( GEOMETRIC_REPRESENTATION_CONTEXT(2) 
PARAMETRIC_REPRESENTATION_CONTEXT() REPRESENTATION_CONTEXT('2D SPACE',''
  ) );
#943 = PCURVE('',#904,#944);
#944 = DEFINITIONAL_REPRESENTATION('',(#945),#949);
#945 = LINE('',#946,#947);
#946 = CARTESIAN_POINT('',(0.,-0.));
#947 = VECTOR('',#948,1.);
#948 = DIRECTION('',(0.,1.));
#949 = ( GEOMETRIC_REPRESENTATION_CONTEXT(2) 
PARAMETRIC_REPRESENTATION_CONTEXT() REPRESENTATION_CONTEXT('2D SPACE',''
  ) );
#950 = ORIENTED_EDGE('',*,*,#951,.T.);
#951 = EDGE_CURVE('',#929,#929,#952,.T.);
#952 = SURFACE_CURVE('',#953,(#958,#965),.PCURVE_S1.);
#953 = CIRCLE('',#954,72.078792948322);
#954 = AXIS2_PLACEMENT_3D('',#955,#956,#957);
#955 = CARTESIAN_POINT('',(-899.8055029453,109.69000400418,
    120.89607279055));
#956 = DIRECTION('',(-0.310967380615,-0.462499261941,0.830297368957));
#957 = DIRECTION('',(0.,0.873610464833,0.486625888886));
#958 = PCURVE('',#904,#959);
#959 = DEFINITIONAL_REPRESENTATION('',(#960),#964);
#960 = LINE('',#961,#962);
#961 = CARTESIAN_POINT('',(0.,0.));
#962 = VECTOR('',#963,1.);
#963 = DIRECTION('',(1.,0.));
#964 = ( GEOMETRIC_REPRESENTATION_CONTEXT(2) 
PARAMETRIC_REPRESENTATION_CONTEXT() REPRESENTATION_CONTEXT('2D SPACE',''
  ) );
#965 = PCURVE('',#966,#971);
#966 = PLANE('',#967);
#967 = AXIS2_PLACEMENT_3D('',#968,#969,#970);
#968 = CARTESIAN_POINT('',(-899.8055029453,109.69000400418,
    120.89607279055));
#969 = DIRECTION('',(-0.310967380615,-0.462499261941,0.830297368957));
#970 = DIRECTION('',(0.,0.873610464833,0.486625888886));
#971 = DEFINITIONAL_REPRESENTATION('',(#972),#976);
#972 = CIRCLE('',#973,72.078792948322);
#973 = AXIS2_PLACEMENT_2D('',#974,#975);
#974 = CARTESIAN_POINT('',(0.,0.));
#975 = DIRECTION('',(1.,0.));
#976 = ( GEOMETRIC_REPRESENTATION_CONTEXT(2) 
PARAMETRIC_REPRESENTATION_CONTEXT() REPRESENTATION_CONTEXT('2D SPACE',''
  ) );
#977 = ORIENTED_EDGE('',*,*,#928,.T.);
#978 = ADVANCED_FACE('',(#979),#916,.T.);
#979 = FACE_BOUND('',#980,.T.);
#980 = EDGE_LOOP('',(#981));
#981 = ORIENTED_EDGE('',*,*,#894,.T.);
#982 = ADVANCED_FACE('',(#983),#966,.F.);
#983 = FACE_BOUND('',#984,.T.);
#984 = EDGE_LOOP('',(#985));
#985 = ORIENTED_EDGE('',*,*,#951,.F.);
#986 = ( GEOMETRIC_REPRESENTATION_CONTEXT(3) 
GLOBAL_UNCERTAINTY_ASSIGNED_CONTEXT((#990)) GLOBAL_UNIT_ASSIGNED_CONTEXT
((#987,#988,#989)) REPRESENTATION_CONTEXT('Context #1',
  '3D Context with UNIT and UNCERTAINTY') );
#987 = ( LENGTH_UNIT() NAMED_UNIT(*) SI_UNIT(.MILLI.,.METRE.) );
#988 = ( NAMED_UNIT(*) PLANE_ANGLE_UNIT() SI_UNIT($,.RADIAN.) );
#989 = ( NAMED_UNIT(*) SI_UNIT($,.STERADIAN.) SOLID_ANGLE_UNIT() );
#990 = UNCERTAINTY_MEASURE_WITH_UNIT(LENGTH_MEASURE(1.E-07),#987,
  'distance_accuracy_value','confusion accuracy');
#991 = CONTEXT_DEPENDENT_SHAPE_REPRESENTATION(#992,#994);
#992 = ( REPRESENTATION_RELATIONSHIP('','',#887,#10) 
REPRESENTATION_RELATIONSHIP_WITH_TRANSFORMATION(#993) 
SHAPE_REPRESENTATION_RELATIONSHIP() );
#993 = ITEM_DEFINED_TRANSFORMATION('','',#11,#43);
#994 = PRODUCT_DEFINITION_SHAPE('Placement','Placement of an item',#995
  );
#995 = NEXT_ASSEMBLY_USAGE_OCCURRENCE('276','part7','',#5,#882,$);
#996 = PRODUCT_RELATED_PRODUCT_CATEGORY('part',$,(#884));
#997 = SHAPE_DEFINITION_REPRESENTATION(#998,#1004);
#998 = PRODUCT_DEFINITION_SHAPE('','',#999);
#999 = PRODUCT_DEFINITION('design','',#1000,#1003);
#1000 = PRODUCT_DEFINITION_FORMATION('','',#1001);
#1001 = PRODUCT('part8','part8','',(#1002));
#1002 = PRODUCT_CONTEXT('',#2,'mechanical');
#1003 = PRODUCT_DEFINITION_CONTEXT('part definition',#2,'design');
#1004 = ADVANCED_BREP_SHAPE_REPRESENTATION('',(#11,#1005),#1103);
#1005 = MANIFOLD_SOLID_BREP('',#1006);
#1006 = CLOSED_SHELL('',(#1007,#1095,#1099));
#1007 = ADVANCED_FACE('',(#1008),#1021,.T.);
#1008 = FACE_BOUND('',#1009,.T.);
#1009 = EDGE_LOOP('',(#1010,#1044,#1067,#1094));
#1010 = ORIENTED_EDGE('',*,*,#1011,.F.);
#1011 = EDGE_CURVE('',#1012,#1012,#1014,.T.);
#1012 = VERTEX_POINT('',#1013);
#1013 = CARTESIAN_POINT('',(-263.4946382019,387.05079849488,
    220.6715072433));
#1014 = SURFACE_CURVE('',#1015,(#1020,#1032),.PCURVE_S1.);
#1015 = CIRCLE('',#1016,88.662197713531);
#1016 = AXIS2_PLACEMENT_3D('',#1017,#1018,#1019);
#1017 = CARTESIAN_POINT('',(-326.7844218035,449.14257407793,
    220.6715072433));
#1018 = DIRECTION('',(0.695186009275,0.708599032267,0.120846282439));
#1019 = DIRECTION('',(0.713830530189,-0.700318480528,-2.775557561563E-17
    ));
#1020 = PCURVE('',#1021,#1026);
#1021 = CYLINDRICAL_SURFACE('',#1022,88.662197713531);
#1022 = AXIS2_PLACEMENT_3D('',#1023,#1024,#1025);
#1023 = CARTESIAN_POINT('',(-773.3962640612,-6.086263960304,
    143.03562258779));
#1024 = DIRECTION('',(0.695186009275,0.708599032267,0.120846282439));
#1025 = DIRECTION('',(0.713830530189,-0.700318480528,-1.387778780781E-17
    ));
#1026 = DEFINITIONAL_REPRESENTATION('',(#1027),#1031);
#1027 = LINE('',#1028,#1029);
#1028 = CARTESIAN_POINT('',(0.,642.43502645224));
#1029 = VECTOR('',#1030,1.);
#1030 = DIRECTION('',(1.,0.));
#1031 = ( GEOMETRIC_REPRESENTATION_CONTEXT(2) 
PARAMETRIC_REPRESENTATION_CONTEXT() REPRESENTATION_CONTEXT('2D SPACE',''
  ) );
#1032 = PCURVE('',#1033,#1038);
#1033 = PLANE('',#1034);
#1034 = AXIS2_PLACEMENT_3D('',#1035,#1036,#1037);
#1035 = CARTESIAN_POINT('',(-326.7844218035,449.14257407793,
    220.6715072433));
#1036 = DIRECTION('',(0.695186009275,0.708599032267,0.120846282439));
#1037 = DIRECTION('',(0.713830530189,-0.700318480528,-1.387778780781E-17
    ));
#1038 = DEFINITIONAL_REPRESENTATION('',(#1039),#1043);
#1039 = CIRCLE('',#1040,88.662197713531);
#1040 = AXIS2_PLACEMENT_2D('',#1041,#1042);
#1041 = CARTESIAN_POINT('',(0.,0.));
#1042 = DIRECTION('',(1.,0.));
#1043 = ( GEOMETRIC_REPRESENTATION_CONTEXT(2) 
PARAMETRIC_REPRESENTATION_CONTEXT() REPRESENTATION_CONTEXT('2D SPACE',''
  ) );
#1044 = ORIENTED_EDGE('',*,*,#1045,.F.);
#1045 = EDGE_CURVE('',#1046,#1012,#1048,.T.);
#1046 = VERTEX_POINT('',#1047);
#1047 = CARTESIAN_POINT('',(-710.1064804596,-68.17803954335,
    143.03562258779));
#1048 = SEAM_CURVE('',#1049,(#1053,#1060),.PCURVE_S1.);
#1049 = LINE('',#1050,#1051);
#1050 = CARTESIAN_POINT('',(-710.1064804596,-68.17803954335,
    143.03562258779));
#1051 = VECTOR('',#1052,1.);
#1052 = DIRECTION('',(0.695186009275,0.708599032267,0.120846282439));
#1053 = PCURVE('',#1021,#1054);
#1054 = DEFINITIONAL_REPRESENTATION('',(#1055),#1059);
#1055 = LINE('',#1056,#1057);
#1056 = CARTESIAN_POINT('',(6.28318530718,-0.));
#1057 = VECTOR('',#1058,1.);
#1058 = DIRECTION('',(0.,1.));
#1059 = ( GEOMETRIC_REPRESENTATION_CONTEXT(2) 
PARAMETRIC_REPRESENTATION_CONTEXT() REPRESENTATION_CONTEXT('2D SPACE',''
  ) );
#1060 = PCURVE('',#1021,#1061);
#1061 = DEFINITIONAL_REPRESENTATION('',(#1062),#1066);
#1062 = LINE('',#1063,#1064);
#1063 = CARTESIAN_POINT('',(0.,-0.));
#1064 = VECTOR('',#1065,1.);
#1065 = DIRECTION('',(0.,1.));
#1066 = ( GEOMETRIC_REPRESENTATION_CONTEXT(2) 
PARAMETRIC_REPRESENTATION_CONTEXT() REPRESENTATION_CONTEXT('2D SPACE',''
  ) );
#1067 = ORIENTED_EDGE('',*,*,#1068,.T.);
#1068 = EDGE_CURVE('',#1046,#1046,#1069,.T.);
#1069 = SURFACE_CURVE('',#1070,(#1075,#1082),.PCURVE_S1.);
#1070 = CIRCLE('',#1071,88.662197713531);
#1071 = AXIS2_PLACEMENT_3D('',#1072,#1073,#1074);
#1072 = CARTESIAN_POINT('',(-773.3962640612,-6.086263960304,
    143.03562258779));
#1073 = DIRECTION('',(0.695186009275,0.708599032267,0.120846282439));
#1074 = DIRECTION('',(0.713830530189,-0.700318480528,-2.775557561563E-17
    ));
#1075 = PCURVE('',#1021,#1076);
#1076 = DEFINITIONAL_REPRESENTATION('',(#1077),#1081);
#1077 = LINE('',#1078,#1079);
#1078 = CARTESIAN_POINT('',(0.,0.));
#1079 = VECTOR('',#1080,1.);
#1080 = DIRECTION('',(1.,0.));
#1081 = ( GEOMETRIC_REPRESENTATION_CONTEXT(2) 
PARAMETRIC_REPRESENTATION_CONTEXT() REPRESENTATION_CONTEXT('2D SPACE',''
  ) );
#1082 = PCURVE('',#1083,#1088);
#1083 = PLANE('',#1084);
#1084 = AXIS2_PLACEMENT_3D('',#1085,#1086,#1087);
#1085 = CARTESIAN_POINT('',(-773.3962640612,-6.086263960304,
    143.03562258779));
#1086 = DIRECTION('',(0.695186009275,0.708599032267,0.120846282439));
#1087 = DIRECTION('',(0.713830530189,-0.700318480528,-1.387778780781E-17
    ));
#1088 = DEFINITIONAL_REPRESENTATION('',(#1089),#1093);
#1089 = CIRCLE('',#1090,88.662197713531);
#1090 = AXIS2_PLACEMENT_2D('',#1091,#1092);
#1091 = CARTESIAN_POINT('',(0.,0.));
#1092 = DIRECTION('',(1.,0.));
#1093 = ( GEOMETRIC_REPRESENTATION_CONTEXT(2) 
PARAMETRIC_REPRESENTATION_CONTEXT() REPRESENTATION_CONTEXT('2D SPACE',''
  ) );
#1094 = ORIENTED_EDGE('',*,*,#1045,.T.);
#1095 = ADVANCED_FACE('',(#1096),#1033,.T.);
#1096 = FACE_BOUND('',#1097,.T.);
#1097 = EDGE_LOOP('',(#1098));
#1098 = ORIENTED_EDGE('',*,*,#1011,.T.);
#1099 = ADVANCED_FACE('',(#1100),#1083,.F.);
#1100 = FACE_BOUND('',#1101,.T.);
#1101 = EDGE_LOOP('',(#1102));
#1102 = ORIENTED_EDGE('',*,*,#1068,.F.);
#1103 = ( GEOMETRIC_REPRESENTATION_CONTEXT(3) 
GLOBAL_UNCERTAINTY_ASSIGNED_CONTEXT((#1107)) 
GLOBAL_UNIT_ASSIGNED_CONTEXT((#1104,#1105,#1106)) REPRESENTATION_CONTEXT
('Context #1','3D Context with UNIT and UNCERTAINTY') );
#1104 = ( LENGTH_UNIT() NAMED_UNIT(*) SI_UNIT(.MILLI.,.METRE.) );
#1105 = ( NAMED_UNIT(*) PLANE_ANGLE_UNIT() SI_UNIT($,.RADIAN.) );
#1106 = ( NAMED_UNIT(*) SI_UNIT($,.STERADIAN.) SOLID_ANGLE_UNIT() );
#1107 = UNCERTAINTY_MEASURE_WITH_UNIT(LENGTH_MEASURE(1.E-07),#1104,
  'distance_accuracy_value','confusion accuracy');
#1108 = CONTEXT_DEPENDENT_SHAPE_REPRESENTATION(#1109,#1111);
#1109 = ( REPRESENTATION_RELATIONSHIP('','',#1004,#10) 
REPRESENTATION_RELATIONSHIP_WITH_TRANSFORMATION(#1110) 
SHAPE_REPRESENTATION_RELATIONSHIP() );
#1110 = ITEM_DEFINED_TRANSFORMATION('','',#11,#47);
#1111 = PRODUCT_DEFINITION_SHAPE('Placement','Placement of an item',
  #1112);
#1112 = NEXT_ASSEMBLY_USAGE_OCCURRENCE('277','part8','',#5,#999,$);
#1113 = PRODUCT_RELATED_PRODUCT_CATEGORY('part',$,(#1001));
#1114 = SHAPE_DEFINITION_REPRESENTATION(#1115,#1121);
#1115 = PRODUCT_DEFINITION_SHAPE('','',#1116);
#1116 = PRODUCT_DEFINITION('design','',#1117,#1120);
#1117 = PRODUCT_DEFINITION_FORMATION('','',#1118);
#1118 = PRODUCT('part9','part9','',(#1119));
#1119 = PRODUCT_CONTEXT('',#2,'mechanical');
#1120 = PRODUCT_DEFINITION_CONTEXT('part definition',#2,'design');
#1121 = ADVANCED_BREP_SHAPE_REPRESENTATION('',(#11,#1122),#1220);
#1122 = MANIFOLD_SOLID_BREP('',#1123);
#1123 = CLOSED_SHELL('',(#1124,#1212,#1216));
#1124 = ADVANCED_FACE('',(#1125),#1138,.T.);
#1125 = FACE_BOUND('',#1126,.T.);
#1126 = EDGE_LOOP('',(#1127,#1161,#1184,#1211));
#1127 = ORIENTED_EDGE('',*,*,#1128,.F.);
#1128 = EDGE_CURVE('',#1129,#1129,#1131,.T.);
#1129 = VERTEX_POINT('',#1130);
#1130 = CARTESIAN_POINT('',(-345.9218660287,-981.0186566448,
    277.05226009372));
#1131 = SURFACE_CURVE('',#1132,(#1137,#1149),.PCURVE_S1.);
#1132 = CIRCLE('',#1133,82.298764976121);
#1133 = AXIS2_PLACEMENT_3D('',#1134,#1135,#1136);
#1134 = CARTESIAN_POINT('',(-392.8266362901,-913.3944801743,
    277.05226009372));
#1135 = DIRECTION('',(-0.805970423862,-0.55902873117,0.194675508438));
#1136 = DIRECTION('',(0.569932857134,-0.821691267058,1.387778780781E-17)
  );
#1137 = PCURVE('',#1138,#1143);
#1138 = CYLINDRICAL_SURFACE('',#1139,82.298764976121);
#1139 = AXIS2_PLACEMENT_3D('',#1140,#1141,#1142);
#1140 = CARTESIAN_POINT('',(203.72259279571,-499.6222762037,
    132.96071399915));
#1141 = DIRECTION('',(-0.805970423862,-0.55902873117,0.194675508438));
#1142 = DIRECTION('',(0.569932857134,-0.821691267058,1.387778780781E-17)
  );
#1143 = DEFINITIONAL_REPRESENTATION('',(#1144),#1148);
#1144 = LINE('',#1145,#1146);
#1145 = CARTESIAN_POINT('',(0.,740.16268019777));
#1146 = VECTOR('',#1147,1.);
#1147 = DIRECTION('',(1.,0.));
#1148 = ( GEOMETRIC_REPRESENTATION_CONTEXT(2) 
PARAMETRIC_REPRESENTATION_CONTEXT() REPRESENTATION_CONTEXT('2D SPACE',''
  ) );
#1149 = PCURVE('',#1150,#1155);
#1150 = PLANE('',#1151);
#1151 = AXIS2_PLACEMENT_3D('',#1152,#1153,#1154);
#1152 = CARTESIAN_POINT('',(-392.8266362901,-913.3944801743,
    277.05226009372));
#1153 = DIRECTION('',(-0.805970423862,-0.55902873117,0.194675508438));
#1154 = DIRECTION('',(0.569932857134,-0.821691267058,1.387778780781E-17)
  );
#1155 = DEFINITIONAL_REPRESENTATION('',(#1156),#1160);
#1156 = CIRCLE('',#1157,82.298764976121);
#1157 = AXIS2_PLACEMENT_2D('',#1158,#1159);
#1158 = CARTESIAN_POINT('',(0.,0.));
#1159 = DIRECTION('',(1.,0.));
#1160 = ( GEOMETRIC_REPRESENTATION_CONTEXT(2) 
PARAMETRIC_REPRESENTATION_CONTEXT() REPRESENTATION_CONTEXT('2D SPACE',''
  ) );
#1161 = ORIENTED_EDGE('',*,*,#1162,.F.);
#1162 = EDGE_CURVE('',#1163,#1129,#1165,.T.);
#1163 = VERTEX_POINT('',#1164);
#1164 = CARTESIAN_POINT('',(250.62736305714,-567.2464526742,
    132.96071399915));
#1165 = SEAM_CURVE('',#1166,(#1170,#1177),.PCURVE_S1.);
#1166 = LINE('',#1167,#1168);
#1167 = CARTESIAN_POINT('',(250.62736305714,-567.2464526742,
    132.96071399915));
#1168 = VECTOR('',#1169,1.);
#1169 = DIRECTION('',(-0.805970423862,-0.55902873117,0.194675508438));
#1170 = PCURVE('',#1138,#1171);
#1171 = DEFINITIONAL_REPRESENTATION('',(#1172),#1176);
#1172 = LINE('',#1173,#1174);
#1173 = CARTESIAN_POINT('',(6.28318530718,-0.));
#1174 = VECTOR('',#1175,1.);
#1175 = DIRECTION('',(0.,1.));
#1176 = ( GEOMETRIC_REPRESENTATION_CONTEXT(2) 
PARAMETRIC_REPRESENTATION_CONTEXT() REPRESENTATION_CONTEXT('2D SPACE',''
  ) );
#1177 = PCURVE('',#1138,#1178);
#1178 = DEFINITIONAL_REPRESENTATION('',(#1179),#1183);
#1179 = LINE('',#1180,#1181);
#1180 = CARTESIAN_POINT('',(0.,-0.));
#1181 = VECTOR('',#1182,1.);
#1182 = DIRECTION('',(0.,1.));
#1183 = ( GEOMETRIC_REPRESENTATION_CONTEXT(2) 
PARAMETRIC_REPRESENTATION_CONTEXT() REPRESENTATION_CONTEXT('2D SPACE',''
  ) );
#1184 = ORIENTED_EDGE('',*,*,#1185,.T.);
#1185 = EDGE_CURVE('',#1163,#1163,#1186,.T.);
#1186 = SURFACE_CURVE('',#1187,(#1192,#1199),.PCURVE_S1.);
#1187 = CIRCLE('',#1188,82.298764976121);
#1188 = AXIS2_PLACEMENT_3D('',#1189,#1190,#1191);
#1189 = CARTESIAN_POINT('',(203.72259279571,-499.6222762037,
    132.96071399915));
#1190 = DIRECTION('',(-0.805970423862,-0.55902873117,0.194675508438));
#1191 = DIRECTION('',(0.569932857134,-0.821691267058,1.387778780781E-17)
  );
#1192 = PCURVE('',#1138,#1193);
#1193 = DEFINITIONAL_REPRESENTATION('',(#1194),#1198);
#1194 = LINE('',#1195,#1196);
#1195 = CARTESIAN_POINT('',(0.,0.));
#1196 = VECTOR('',#1197,1.);
#1197 = DIRECTION('',(1.,0.));
#1198 = ( GEOMETRIC_REPRESENTATION_CONTEXT(2) 
PARAMETRIC_REPRESENTATION_CONTEXT() REPRESENTATION_CONTEXT('2D SPACE',''
  ) );
#1199 = PCURVE('',#1200,#1205);
#1200 = PLANE('',#1201);
#1201 = AXIS2_PLACEMENT_3D('',#1202,#1203,#1204);
#1202 = CARTESIAN_POINT('',(203.72259279571,-499.6222762037,
    132.96071399915));
#1203 = DIRECTION('',(-0.805970423862,-0.55902873117,0.194675508438));
#1204 = DIRECTION('',(0.569932857134,-0.821691267058,1.387778780781E-17)
  );
#1205 = DEFINITIONAL_REPRESENTATION('',(#1206),#1210);
#1206 = CIRCLE('',#1207,82.298764976121);
#1207 = AXIS2_PLACEMENT_2D('',#1208,#1209);
#1208 = CARTESIAN_POINT('',(0.,0.));
#1209 = DIRECTION('',(1.,0.));
#1210 = ( GEOMETRIC_REPRESENTATION_CONTEXT(2) 
PARAMETRIC_REPRESENTATION_CONTEXT() REPRESENTATION_CONTEXT('2D SPACE',''
  ) );
#1211 = ORIENTED_EDGE('',*,*,#1162,.T.);
#1212 = ADVANCED_FACE('',(#1213),#1150,.T.);
#1213 = FACE_BOUND('',#1214,.T.);
#1214 = EDGE_LOOP('',(#1215));
#1215 = ORIENTED_EDGE('',*,*,#1128,.T.);
#1216 = ADVANCED_FACE('',(#1217),#1200,.F.);
#1217 = FACE_BOUND('',#1218,.T.);
#1218 = EDGE_LOOP('',(#1219));
#1219 = ORIENTED_EDGE('',*,*,#1185,.F.);
#1220 = ( GEOMETRIC_REPRESENTATION_CONTEXT(3) 
GLOBAL_UNCERTAINTY_ASSIGNED_CONTEXT((#1224)) 
GLOBAL_UNIT_ASSIGNED_CONTEXT((#1221,#1222,#1223)) REPRESENTATION_CONTEXT
('Context #1','3D Context with UNIT and UNCERTAINTY') );
#1221 = ( LENGTH_UNIT() NAMED_UNIT(*) SI_UNIT(.MILLI.,.METRE.) );
#1222 = ( NAMED_UNIT(*) PLANE_ANGLE_UNIT() SI_UNIT($,.RADIAN.) );
#1223 = ( NAMED_UNIT(*) SI_UNIT($,.STERADIAN.) SOLID_ANGLE_UNIT() );
#1224 = UNCERTAINTY_MEASURE_WITH_UNIT(LENGTH_MEASURE(1.E-07),#1221,
  'distance_accuracy_value','confusion accuracy');
#1225 = CONTEXT_DEPENDENT_SHAPE_REPRESENTATION(#1226,#1228);
#1226 = ( REPRESENTATION_RELATIONSHIP('','',#1121,#10) 
REPRESENTATION_RELATIONSHIP_WITH_TRANSFORMATION(#1227) 
SHAPE_REPRESENTATION_RELATIONSHIP() );
#1227 = ITEM_DEFINED_TRANSFORMATION('','',#11,#51);
#1228 = PRODUCT_DEFINITION_SHAPE('Placement','Placement of an item',
  #1229);
#1229 = NEXT_ASSEMBLY_USAGE_OCCURRENCE('278','part9','',#5,#1116,$);
#1230 = PRODUCT_RELATED_PRODUCT_CATEGORY('part',$,(#1118));
#1231 = MECHANICAL_DESIGN_GEOMETRIC_PRESENTATION_REPRESENTATION('',(
    #1232),#167);
#1232 = STYLED_ITEM('color',(#1233),#69);
#1233 = PRESENTATION_STYLE_ASSIGNMENT((#1234));
#1234 = SURFACE_STYLE_USAGE(.BOTH.,#1235);
#1235 = SURFACE_SIDE_STYLE('',(#1236));
#1236 = SURFACE_STYLE_FILL_AREA(#1237);
#1237 = FILL_AREA_STYLE('',(#1238));
#1238 = FILL_AREA_STYLE_COLOUR('',#1239);
#1239 = COLOUR_RGB('',0.431372551983,0.372549021024,0.290196072577);
#1240 = MECHANICAL_DESIGN_GEOMETRIC_PRESENTATION_REPRESENTATION('',(
    #1241),#518);
#1241 = STYLED_ITEM('color',(#1242),#420);
#1242 = PRESENTATION_STYLE_ASSIGNMENT((#1243));
#1243 = SURFACE_STYLE_USAGE(.BOTH.,#1244);
#1244 = SURFACE_SIDE_STYLE('',(#1245));
#1245 = SURFACE_STYLE_FILL_AREA(#1246);
#1246 = FILL_AREA_STYLE('',(#1247));
#1247 = FILL_AREA_STYLE_COLOUR('',#1239);
#1248 = MECHANICAL_DESIGN_GEOMETRIC_PRESENTATION_REPRESENTATION('',(
    #1249),#869);
#1249 = STYLED_ITEM('color',(#1250),#771);
#1250 = PRESENTATION_STYLE_ASSIGNMENT((#1251));
#1251 = SURFACE_STYLE_USAGE(.BOTH.,#1252);
#1252 = SURFACE_SIDE_STYLE('',(#1253));
#1253 = SURFACE_STYLE_FILL_AREA(#1254);
#1254 = FILL_AREA_STYLE('',(#1255));
#1255 = FILL_AREA_STYLE_COLOUR('',#1239);
#1256 = MECHANICAL_DESIGN_GEOMETRIC_PRESENTATION_REPRESENTATION('',(
    #1257),#284);
#1257 = STYLED_ITEM('color',(#1258),#186);
#1258 = PRESENTATION_STYLE_ASSIGNMENT((#1259));
#1259 = SURFACE_STYLE_USAGE(.BOTH.,#1260);
#1260 = SURFACE_SIDE_STYLE('',(#1261));
#1261 = SURFACE_STYLE_FILL_AREA(#1262);
#1262 = FILL_AREA_STYLE('',(#1263));
#1263 = FILL_AREA_STYLE_COLOUR('',#1239);
#1264 = MECHANICAL_DESIGN_GEOMETRIC_PRESENTATION_REPRESENTATION('',(
    #1265),#752);
#1265 = STYLED_ITEM('color',(#1266),#654);
#1266 = PRESENTATION_STYLE_ASSIGNMENT((#1267));
#1267 = SURFACE_STYLE_USAGE(.BOTH.,#1268);
#1268 = SURFACE_SIDE_STYLE('',(#1269));
#1269 = SURFACE_STYLE_FILL_AREA(#1270);
#1270 = FILL_AREA_STYLE('',(#1271));
#1271 = FILL_AREA_STYLE_COLOUR('',#1239);
#1272 = MECHANICAL_DESIGN_GEOMETRIC_PRESENTATION_REPRESENTATION('',(
    #1273),#635);
#1273 = STYLED_ITEM('color',(#1274),#537);
#1274 = PRESENTATION_STYLE_ASSIGNMENT((#1275));
#1275 = SURFACE_STYLE_USAGE(.BOTH.,#1276);
#1276 = SURFACE_SIDE_STYLE('',(#1277));
#1277 = SURFACE_STYLE_FILL_AREA(#1278);
#1278 = FILL_AREA_STYLE('',(#1279));
#1279 = FILL_AREA_STYLE_COLOUR('',#1239);
#1280 = MECHANICAL_DESIGN_GEOMETRIC_PRESENTATION_REPRESENTATION('',(
    #1281),#1220);
#1281 = STYLED_ITEM('color',(#1282),#1122);
#1282 = PRESENTATION_STYLE_ASSIGNMENT((#1283));
#1283 = SURFACE_STYLE_USAGE(.BOTH.,#1284);
#1284 = SURFACE_SIDE_STYLE('',(#1285));
#1285 = SURFACE_STYLE_FILL_AREA(#1286);
#1286 = FILL_AREA_STYLE('',(#1287));
#1287 = FILL_AREA_STYLE_COLOUR('',#1239);
#1288 = MECHANICAL_DESIGN_GEOMETRIC_PRESENTATION_REPRESENTATION('',(
    #1289),#401);
#1289 = STYLED_ITEM('color',(#1290),#303);
#1290 = PRESENTATION_STYLE_ASSIGNMENT((#1291));
#1291 = SURFACE_STYLE_USAGE(.BOTH.,#1292);
#1292 = SURFACE_SIDE_STYLE('',(#1293));
#1293 = SURFACE_STYLE_FILL_AREA(#1294);
#1294 = FILL_AREA_STYLE('',(#1295));
#1295 = FILL_AREA_STYLE_COLOUR('',#1239);
#1296 = MECHANICAL_DESIGN_GEOMETRIC_PRESENTATION_REPRESENTATION('',(
    #1297),#1103);
#1297 = STYLED_ITEM('color',(#1298),#1005);
#1298 = PRESENTATION_STYLE_ASSIGNMENT((#1299));
#1299 = SURFACE_STYLE_USAGE(.BOTH.,#1300);
#1300 = SURFACE_SIDE_STYLE('',(#1301));
#1301 = SURFACE_STYLE_FILL_AREA(#1302);
#1302 = FILL_AREA_STYLE('',(#1303));
#1303 = FILL_AREA_STYLE_COLOUR('',#1239);
#1304 = MECHANICAL_DESIGN_GEOMETRIC_PRESENTATION_REPRESENTATION('',(
    #1305),#986);
#1305 = STYLED_ITEM('color',(#1306),#888);
#1306 = PRESENTATION_STYLE_ASSIGNMENT((#1307));
#1307 = SURFACE_STYLE_USAGE(.BOTH.,#1308);
#1308 = SURFACE_SIDE_STYLE('',(#1309));
#1309 = SURFACE_STYLE_FILL_AREA(#1310);
#1310 = FILL_AREA_STYLE('',(#1311));
#1311 = FILL_AREA_STYLE_COLOUR('',#1239);
ENDSEC;
END-ISO-10303-21;
