ISO-10303-21;
HEADER;
FILE_DESCRIPTION(('Open CASCADE Model'),'2;1');
FILE_NAME('Open CASCADE Shape Model','2026-09-14T11:05:39',('Author'),(
    'Open CASCADE'),'Open CASCADE STEP processor 7.9','Open CASCADE 7.9'
  ,'Unknown');
FILE_SCHEMA(('AUTOMOTIVE_DESIGN { 1 0 10303 214 1 1 1 1 }'));
ENDSEC;
DATA;
#1 = APPLICATION_PROTOCOL_DEFINITION('international standard',
  'automotive_design',2000,#2);
#2 = APPLICATION_CONTEXT(
  'core data for automotive mechanical design processes');
#3 = SHAPE_DEFINITION_REPRESENTATION(#4,#10);
#4 = PRODUCT_DEFINITION_SHAPE('','',#5);
#5 = PRODUCT_DEFINITION('design','',#6,#9);
#6 = PRODUCT_DEFINITION_FORMATION('','',#7);
#7 = PRODUCT('d671ce4f-b023-11f1-9c21-3c9c0f4bdafb',
  'd671ce4f-b023-11f1-9c21-3c9c0f4bdafb','',(#8));
#8 = PRODUCT_CONTEXT('',#2,'mechanical');
#9 = PRODUCT_DEFINITION_CONTEXT('part definition',#2,'design');
#10 = SHAPE_REPRESENTATION('',(#11,#15,#19),#23);
#11 = AXIS2_PLACEMENT_3D('',#12,#13,#14);
#12 = CARTESIAN_POINT('',(0.,0.,0.));
#13 = DIRECTION('',(0.,0.,1.));
#14 = DIRECTION('',(1.,0.,-0.));
#15 = AXIS2_PLACEMENT_3D('',#16,#17,#18);
#16 = CARTESIAN_POINT('',(0.,0.,0.));
#17 = DIRECTION('',(0.,0.,1.));
#18 = DIRECTION('',(1.,0.,-0.));
#19 = AXIS2_PLACEMENT_3D('',#20,#21,#22);
#20 = CARTESIAN_POINT('',(0.,0.,0.));
#21 = DIRECTION('',(0.,0.,1.));
#22 = DIRECTION('',(1.,0.,-0.));
#23 = ( GEOMETRIC_REPRESENTATION_CONTEXT(3) 
GLOBAL_UNCERTAINTY_ASSIGNED_CONTEXT((#27)) GLOBAL_UNIT_ASSIGNED_CONTEXT(
(#24,#25,#26)) REPRESENTATION_CONTEXT('Context #1',
  '3D Context with UNIT and UNCERTAINTY') );
#24 = ( LENGTH_UNIT() NAMED_UNIT(*) SI_UNIT(.MILLI.,.METRE.) );
#25 = ( NAMED_UNIT(*) PLANE_ANGLE_UNIT() SI_UNIT($,.RADIAN.) );
#26 = ( NAMED_UNIT(*) SI_UNIT($,.STERADIAN.) SOLID_ANGLE_UNIT() );
#27 = UNCERTAINTY_MEASURE_WITH_UNIT(LENGTH_MEASURE(1.E-07),#24,
  'distance_accuracy_value','confusion accuracy');
#28 = PRODUCT_RELATED_PRODUCT_CATEGORY('part',$,(#7));
#29 = SHAPE_DEFINITION_REPRESENTATION(#30,#36);
#30 = PRODUCT_DEFINITION_SHAPE('','',#31);
#31 = PRODUCT_DEFINITION('design','',#32,#35);
#32 = PRODUCT_DEFINITION_FORMATION('','',#33);
#33 = PRODUCT('part0','part0','',(#34));
#34 = PRODUCT_CONTEXT('',#2,'mechanical');
#35 = PRODUCT_DEFINITION_CONTEXT('part definition',#2,'design');
#36 = ADVANCED_BREP_SHAPE_REPRESENTATION('',(#11,#37),#135);
#37 = MANIFOLD_SOLID_BREP('',#38);
#38 = CLOSED_SHELL('',(#39,#127,#131));
#39 = ADVANCED_FACE('',(#40),#53,.T.);
#40 = FACE_BOUND('',#41,.T.);
#41 = EDGE_LOOP('',(#42,#76,#99,#126));
#42 = ORIENTED_EDGE('',*,*,#43,.F.);
#43 = EDGE_CURVE('',#44,#44,#46,.T.);
#44 = VERTEX_POINT('',#45);
#45 = CARTESIAN_POINT('',(150.,-3.673940397442E-14,900.));
#46 = SURFACE_CURVE('',#47,(#52,#64),.PCURVE_S1.);
#47 = CIRCLE('',#48,150.);
#48 = AXIS2_PLACEMENT_3D('',#49,#50,#51);
#49 = CARTESIAN_POINT('',(0.,0.,900.));
#50 = DIRECTION('',(0.,0.,1.));
#51 = DIRECTION('',(1.,0.,-0.));
#52 = PCURVE('',#53,#58);
#53 = CYLINDRICAL_SURFACE('',#54,150.);
#54 = AXIS2_PLACEMENT_3D('',#55,#56,#57);
#55 = CARTESIAN_POINT('',(0.,0.,300.));
#56 = DIRECTION('',(0.,0.,1.));
#57 = DIRECTION('',(1.,0.,-0.));
#58 = DEFINITIONAL_REPRESENTATION('',(#59),#63);
#59 = LINE('',#60,#61);
#60 = CARTESIAN_POINT('',(0.,600.));
#61 = VECTOR('',#62,1.);
#62 = DIRECTION('',(1.,0.));
#63 = ( GEOMETRIC_REPRESENTATION_CONTEXT(2) 
PARAMETRIC_REPRESENTATION_CONTEXT() REPRESENTATION_CONTEXT('2D SPACE',''
  ) );
#64 = PCURVE('',#65,#70);
#65 = PLANE('',#66);
#66 = AXIS2_PLACEMENT_3D('',#67,#68,#69);
#67 = CARTESIAN_POINT('',(0.,0.,900.));
#68 = DIRECTION('',(0.,0.,1.));
#69 = DIRECTION('',(1.,0.,-0.));
#70 = DEFINITIONAL_REPRESENTATION('',(#71),#75);
#71 = CIRCLE('',#72,150.);
#72 = AXIS2_PLACEMENT_2D('',#73,#74);
#73 = CARTESIAN_POINT('',(0.,0.));
#74 = DIRECTION('',(1.,0.));
#75 = ( GEOMETRIC_REPRESENTATION_CONTEXT(2) 
PARAMETRIC_REPRESENTATION_CONTEXT() REPRESENTATION_CONTEXT('2D SPACE',''
  ) );
#76 = ORIENTED_EDGE('',*,*,#77,.F.);
#77 = EDGE_CURVE('',#78,#44,#80,.T.);
#78 = VERTEX_POINT('',#79);
#79 = CARTESIAN_POINT('',(150.,-3.673940397442E-14,300.));
#80 = SEAM_CURVE('',#81,(#85,#92),.PCURVE_S1.);
#81 = LINE('',#82,#83);
#82 = CARTESIAN_POINT('',(150.,-3.673940397442E-14,300.));
#83 = VECTOR('',#84,1.);
#84 = DIRECTION('',(0.,0.,1.));
#85 = PCURVE('',#53,#86);
#86 = DEFINITIONAL_REPRESENTATION('',(#87),#91);
#87 = LINE('',#88,#89);
#88 = CARTESIAN_POINT('',(6.28318530718,-0.));
#89 = VECTOR('',#90,1.);
#90 = DIRECTION('',(0.,1.));
#91 = ( GEOMETRIC_REPRESENTATION_CONTEXT(2) 
PARAMETRIC_REPRESENTATION_CONTEXT() REPRESENTATION_CONTEXT('2D SPACE',''
  ) );
#92 = PCURVE('',#53,#93);
#93 = DEFINITIONAL_REPRESENTATION('',(#94),#98);
#94 = LINE('',#95,#96);
#95 = CARTESIAN_POINT('',(0.,-0.));
#96 = VECTOR('',#97,1.);
#97 = DIRECTION('',(0.,1.));
#98 = ( GEOMETRIC_REPRESENTATION_CONTEXT(2) 
PARAMETRIC_REPRESENTATION_CONTEXT() REPRESENTATION_CONTEXT('2D SPACE',''
  ) );
#99 = ORIENTED_EDGE('',*,*,#100,.T.);
#100 = EDGE_CURVE('',#78,#78,#101,.T.);
#101 = SURFACE_CURVE('',#102,(#107,#114),.PCURVE_S1.);
#102 = CIRCLE('',#103,150.);
#103 = AXIS2_PLACEMENT_3D('',#104,#105,#106);
#104 = CARTESIAN_POINT('',(0.,0.,300.));
#105 = DIRECTION('',(0.,0.,1.));
#106 = DIRECTION('',(1.,0.,-0.));
#107 = PCURVE('',#53,#108);
#108 = DEFINITIONAL_REPRESENTATION('',(#109),#113);
#109 = LINE('',#110,#111);
#110 = CARTESIAN_POINT('',(0.,0.));
#111 = VECTOR('',#112,1.);
#112 = DIRECTION('',(1.,0.));
#113 = ( GEOMETRIC_REPRESENTATION_CONTEXT(2) 
PARAMETRIC_REPRESENTATION_CONTEXT() REPRESENTATION_CONTEXT('2D SPACE',''
  ) );
#114 = PCURVE('',#115,#120);
#115 = PLANE('',#116);
#116 = AXIS2_PLACEMENT_3D('',#117,#118,#119);
#117 = CARTESIAN_POINT('',(0.,0.,300.));
#118 = DIRECTION('',(0.,0.,1.));
#119 = DIRECTION('',(1.,0.,-0.));
#120 = DEFINITIONAL_REPRESENTATION('',(#121),#125);
#121 = CIRCLE('',#122,150.);
#122 = AXIS2_PLACEMENT_2D('',#123,#124);
#123 = CARTESIAN_POINT('',(0.,0.));
#124 = DIRECTION('',(1.,0.));
#125 = ( GEOMETRIC_REPRESENTATION_CONTEXT(2) 
PARAMETRIC_REPRESENTATION_CONTEXT() REPRESENTATION_CONTEXT('2D SPACE',''
  ) );
#126 = ORIENTED_EDGE('',*,*,#77,.T.);
#127 = ADVANCED_FACE('',(#128),#65,.T.);
#128 = FACE_BOUND('',#129,.T.);
#129 = EDGE_LOOP('',(#130));
#130 = ORIENTED_EDGE('',*,*,#43,.T.);
#131 = ADVANCED_FACE('',(#132),#115,.F.);
#132 = FACE_BOUND('',#133,.T.);
#133 = EDGE_LOOP('',(#134));
#134 = ORIENTED_EDGE('',*,*,#100,.F.);
#135 = ( GEOMETRIC_REPRESENTATION_CONTEXT(3) 
GLOBAL_UNCERTAINTY_ASSIGNED_CONTEXT((#139)) GLOBAL_UNIT_ASSIGNED_CONTEXT
((#136,#137,#138)) REPRESENTATION_CONTEXT('Context #1',
  '3D Context with UNIT and UNCERTAINTY') );
#136 = ( LENGTH_UNIT() NAMED_UNIT(*) SI_UNIT(.MILLI.,.METRE.) );
#137 = ( NAMED_UNIT(*) PLANE_ANGLE_UNIT() SI_UNIT($,.RADIAN.) );
#138 = ( NAMED_UNIT(*) SI_UNIT($,.STERADIAN.) SOLID_ANGLE_UNIT() );
#139 = UNCERTAINTY_MEASURE_WITH_UNIT(LENGTH_MEASURE(1.E-07),#136,
  'distance_accuracy_value','confusion accuracy');
#140 = CONTEXT_DEPENDENT_SHAPE_REPRESENTATION(#141,#143);
#141 = ( REPRESENTATION_RELATIONSHIP('','',#36,#10) 
REPRESENTATION_RELATIONSHIP_WITH_TRANSFORMATION(#142) 
SHAPE_REPRESENTATION_RELATIONSHIP() );
#142 = ITEM_DEFINED_TRANSFORMATION('','',#11,#15);
#143 = PRODUCT_DEFINITION_SHAPE('Placement','Placement of an item',#144
  );
#144 = NEXT_ASSEMBLY_USAGE_OCCURRENCE('359','part0','',#5,#31,$);
#145 = PRODUCT_RELATED_PRODUCT_CATEGORY('part',$,(#33));
#146 = SHAPE_DEFINITION_REPRESENTATION(#147,#153);
#147 = PRODUCT_DEFINITION_SHAPE('','',#148);
#148 = PRODUCT_DEFINITION('design','',#149,#152);
#149 = PRODUCT_DEFINITION_FORMATION('','',#150);
#150 = PRODUCT('part1','part1','',(#151));
#151 = PRODUCT_CONTEXT('',#2,'mechanical');
#152 = PRODUCT_DEFINITION_CONTEXT('part definition',#2,'design');
#153 = ADVANCED_BREP_SHAPE_REPRESENTATION('',(#11,#154),#197);
#154 = MANIFOLD_SOLID_BREP('',#155);
#155 = CLOSED_SHELL('',(#156));
#156 = ADVANCED_FACE('',(#157),#161,.T.);
#157 = FACE_BOUND('',#158,.T.);
#158 = VERTEX_LOOP('',#159);
#159 = VERTEX_POINT('',#160);
#160 = CARTESIAN_POINT('',(1.347111479062E-14,-3.299471521856E-30,580.)
  );
#161 = ( BOUNDED_SURFACE() B_SPLINE_SURFACE(2,2,(
    (#162,#163,#164,#165,#166)
    ,(#167,#168,#169,#170,#171)
    ,(#172,#173,#174,#175,#176)
    ,(#177,#178,#179,#180,#181)
    ,(#182,#183,#184,#185,#186)
    ,(#187,#188,#189,#190,#191)
    ,(#192,#193,#194,#195,#196
)),.UNSPECIFIED.,.T.,.F.,.F.) B_SPLINE_SURFACE_WITH_KNOTS((1,2,2,2,2,1),
  (3,2,3),(-2.094395102393,0.,2.094395102393,4.188790204786,
    6.28318530718,8.377580409573),(-1.570796326795,0.,1.570796326795),
.UNSPECIFIED.) GEOMETRIC_REPRESENTATION_ITEM() RATIONAL_B_SPLINE_SURFACE
((
    (1.,0.707106781187,1.,0.707106781187,1.)
    ,(0.5,0.353553390593,0.5,0.353553390593,0.5)
    ,(1.,0.707106781187,1.,0.707106781187,1.)
    ,(0.5,0.353553390593,0.5,0.353553390593,0.5)
    ,(1.,0.707106781187,1.,0.707106781187,1.)
    ,(0.5,0.353553390593,0.5,0.353553390593,0.5)
,(1.,0.707106781187,1.,0.707106781187,1.
))) REPRESENTATION_ITEM('') SURFACE() );
#162 = CARTESIAN_POINT('',(1.347111479062E-14,0.,580.));
#163 = CARTESIAN_POINT('',(220.,0.,580.));
#164 = CARTESIAN_POINT('',(220.,0.,700.));
#165 = CARTESIAN_POINT('',(220.,0.,820.));
#166 = CARTESIAN_POINT('',(1.347111479062E-14,0.,820.));
#167 = CARTESIAN_POINT('',(1.347111479062E-14,2.333265525195E-14,580.));
#168 = CARTESIAN_POINT('',(220.,381.05117766515,580.));
#169 = CARTESIAN_POINT('',(220.,381.05117766515,700.));
#170 = CARTESIAN_POINT('',(220.,381.05117766515,820.));
#171 = CARTESIAN_POINT('',(1.347111479062E-14,2.333265525195E-14,820.));
#172 = CARTESIAN_POINT('',(-6.73555739531E-15,1.166632762597E-14,580.));
#173 = CARTESIAN_POINT('',(-110.,190.52558883257,580.));
#174 = CARTESIAN_POINT('',(-110.,190.52558883257,700.));
#175 = CARTESIAN_POINT('',(-110.,190.52558883257,820.));
#176 = CARTESIAN_POINT('',(-6.73555739531E-15,1.166632762597E-14,820.));
#177 = CARTESIAN_POINT('',(-2.694222958124E-14,3.299471521856E-30,580.)
  );
#178 = CARTESIAN_POINT('',(-440.,5.388445916248E-14,580.));
#179 = CARTESIAN_POINT('',(-440.,5.388445916248E-14,700.));
#180 = CARTESIAN_POINT('',(-440.,5.388445916248E-14,820.));
#181 = CARTESIAN_POINT('',(-2.694222958124E-14,3.299471521856E-30,820.)
  );
#182 = CARTESIAN_POINT('',(-6.73555739531E-15,-1.166632762597E-14,580.)
  );
#183 = CARTESIAN_POINT('',(-110.,-190.5255888325,580.));
#184 = CARTESIAN_POINT('',(-110.,-190.5255888325,700.));
#185 = CARTESIAN_POINT('',(-110.,-190.5255888325,820.));
#186 = CARTESIAN_POINT('',(-6.73555739531E-15,-1.166632762597E-14,820.)
  );
#187 = CARTESIAN_POINT('',(1.347111479062E-14,-2.333265525195E-14,580.)
  );
#188 = CARTESIAN_POINT('',(220.,-381.0511776651,580.));
#189 = CARTESIAN_POINT('',(220.,-381.0511776651,700.));
#190 = CARTESIAN_POINT('',(220.,-381.0511776651,820.));
#191 = CARTESIAN_POINT('',(1.347111479062E-14,-2.333265525195E-14,820.)
  );
#192 = CARTESIAN_POINT('',(1.347111479062E-14,0.,580.));
#193 = CARTESIAN_POINT('',(220.,0.,580.));
#194 = CARTESIAN_POINT('',(220.,0.,700.));
#195 = CARTESIAN_POINT('',(220.,0.,820.));
#196 = CARTESIAN_POINT('',(1.347111479062E-14,0.,820.));
#197 = ( GEOMETRIC_REPRESENTATION_CONTEXT(3) 
GLOBAL_UNCERTAINTY_ASSIGNED_CONTEXT((#201)) GLOBAL_UNIT_ASSIGNED_CONTEXT
((#198,#199,#200)) REPRESENTATION_CONTEXT('Context #1',
  '3D Context with UNIT and UNCERTAINTY') );
#198 = ( LENGTH_UNIT() NAMED_UNIT(*) SI_UNIT(.MILLI.,.METRE.) );
#199 = ( NAMED_UNIT(*) PLANE_ANGLE_UNIT() SI_UNIT($,.RADIAN.) );
#200 = ( NAMED_UNIT(*) SI_UNIT($,.STERADIAN.) SOLID_ANGLE_UNIT() );
#201 = UNCERTAINTY_MEASURE_WITH_UNIT(LENGTH_MEASURE(1.E-07),#198,
  'distance_accuracy_value','confusion accuracy');
#202 = CONTEXT_DEPENDENT_SHAPE_REPRESENTATION(#203,#205);
#203 = ( REPRESENTATION_RELATIONSHIP('','',#153,#10) 
REPRESENTATION_RELATIONSHIP_WITH_TRANSFORMATION(#204) 
SHAPE_REPRESENTATION_RELATIONSHIP() );
#204 = ITEM_DEFINED_TRANSFORMATION('','',#11,#19);
#205 = PRODUCT_DEFINITION_SHAPE('Placement','Placement of an item',#206
  );
#206 = NEXT_ASSEMBLY_USAGE_OCCURRENCE('360','part1','',#5,#148,$);
#207 = PRODUCT_RELATED_PRODUCT_CATEGORY('part',$,(#150));
#208 = MECHANICAL_DESIGN_GEOMETRIC_PRESENTATION_REPRESENTATION('',(#209)
  ,#135);
#209 = STYLED_ITEM('color',(#210),#37);
#210 = PRESENTATION_STYLE_ASSIGNMENT((#211));
#211 = SURFACE_STYLE_USAGE(.BOTH.,#212);
#212 = SURFACE_SIDE_STYLE('',(#213));
#213 = SURFACE_STYLE_FILL_AREA(#214);
#214 = FILL_AREA_STYLE('',(#215));
#215 = FILL_AREA_STYLE_COLOUR('',#216);
#216 = COLOUR_RGB('',0.227450982423,0.227450982423,0.219607846375);
#217 = MECHANICAL_DESIGN_GEOMETRIC_PRESENTATION_REPRESENTATION('',(#218)
  ,#197);
#218 = STYLED_ITEM('color',(#219),#154);
#219 = PRESENTATION_STYLE_ASSIGNMENT((#220));
#220 = SURFACE_STYLE_USAGE(.BOTH.,#221);
#221 = SURFACE_SIDE_STYLE('',(#222));
#222 = SURFACE_STYLE_FILL_AREA(#223);
#223 = FILL_AREA_STYLE('',(#224));
#224 = FILL_AREA_STYLE_COLOUR('',#216);
ENDSEC;
END-ISO-10303-21;
