ISO-10303-21;
HEADER;
FILE_DESCRIPTION(('Open CASCADE Model'),'2;1');
FILE_NAME('Open CASCADE Shape Model','2026-09-14T11:05:19',('Author'),(
    'Open CASCADE'),'Open CASCADE STEP processor 7.9','Open CASCADE 7.9'
  ,'Unknown');
FILE_SCHEMA(('AUTOMOTIVE_DESIGN { 1 0 10303 214 1 1 1 1 }'));
ENDSEC;
DATA;
#1 = APPLICATION_PROTOCOL_DEFINITION('international standard',
  'automotive_design',2000,#2);
#2 = APPLICATION_CONTEXT(
  'core data for automotive mechanical design processes');
#3 = SHAPE_DEFINITION_REPRESENTATION(#4,#10);
#4 = PRODUCT_DEFINITION_SHAPE('','',#5);
#5 = PRODUCT_DEFINITION('design','',#6,#9);
#6 = PRODUCT_DEFINITION_FORMATION('','',#7);
#7 = PRODUCT('ca71445d-b023-11f1-94e4-3c9c0f4bdafb',
  'ca71445d-b023-11f1-94e4-3c9c0f4bdafb','',(#8));
#8 = PRODUCT_CONTEXT('',#2,'mechanical');
#9 = PRODUCT_DEFINITION_CONTEXT('part definition',#2,'design');
#10 = SHAPE_REPRESENTATION('',(#11,#15,#19,#23),#27);
#11 = AXIS2_PLACEMENT_3D('',#12,#13,#14);
#12 = CARTESIAN_POINT('',(0.,0.,0.));
#13 = DIRECTION('',(0.,0.,1.));
#14 = DIRECTION('',(1.,0.,-0.));
#15 = AXIS2_PLACEMENT_3D('',#16,#17,#18);
#16 = CARTESIAN_POINT('',(0.,0.,0.));
#17 = DIRECTION('',(0.,0.,1.));
#18 = DIRECTION('',(1.,0.,-0.));
#19 = AXIS2_PLACEMENT_3D('',#20,#21,#22);
#20 = CARTESIAN_POINT('',(0.,0.,0.));
#21 = DIRECTION('',(0.,0.,1.));
#22 = DIRECTION('',(1.,0.,-0.));
#23 = AXIS2_PLACEMENT_3D('',#24,#25,#26);
#24 = CARTESIAN_POINT('',(0.,0.,0.));
#25 = DIRECTION('',(0.,0.,1.));
#26 = DIRECTION('',(1.,0.,-0.));
#27 = ( GEOMETRIC_REPRESENTATION_CONTEXT(3) 
GLOBAL_UNCERTAINTY_ASSIGNED_CONTEXT((#31)) GLOBAL_UNIT_ASSIGNED_CONTEXT(
(#28,#29,#30)) REPRESENTATION_CONTEXT('Context #1',
  '3D Context with UNIT and UNCERTAINTY') );
#28 = ( LENGTH_UNIT() NAMED_UNIT(*) SI_UNIT(.MILLI.,.METRE.) );
#29 = ( NAMED_UNIT(*) PLANE_ANGLE_UNIT() SI_UNIT($,.RADIAN.) );
#30 = ( NAMED_UNIT(*) SI_UNIT($,.STERADIAN.) SOLID_ANGLE_UNIT() );
#31 = UNCERTAINTY_MEASURE_WITH_UNIT(LENGTH_MEASURE(1.E-07),#28,
  'distance_accuracy_value','confusion accuracy');
#32 = PRODUCT_RELATED_PRODUCT_CATEGORY('part',$,(#7));
#33 = SHAPE_DEFINITION_REPRESENTATION(#34,#40);
#34 = PRODUCT_DEFINITION_SHAPE('','',#35);
#35 = PRODUCT_DEFINITION('design','',#36,#39);
#36 = PRODUCT_DEFINITION_FORMATION('','',#37);
#37 = PRODUCT('part0','part0','',(#38));
#38 = PRODUCT_CONTEXT('',#2,'mechanical');
#39 = PRODUCT_DEFINITION_CONTEXT('part definition',#2,'design');
#40 = ADVANCED_BREP_SHAPE_REPRESENTATION('',(#11,#41),#84);
#41 = MANIFOLD_SOLID_BREP('',#42);
#42 = CLOSED_SHELL('',(#43));
#43 = ADVANCED_FACE('',(#44),#48,.T.);
#44 = FACE_BOUND('',#45,.T.);
#45 = VERTEX_LOOP('',#46);
#46 = VERTEX_POINT('',#47);
#47 = CARTESIAN_POINT('',(-1.4E+04,-3.299471521856E-28,-1.6E+04));
#48 = ( BOUNDED_SURFACE() B_SPLINE_SURFACE(2,2,(
    (#49,#50,#51,#52,#53)
    ,(#54,#55,#56,#57,#58)
    ,(#59,#60,#61,#62,#63)
    ,(#64,#65,#66,#67,#68)
    ,(#69,#70,#71,#72,#73)
    ,(#74,#75,#76,#77,#78)
    ,(#79,#80,#81,#82,#83
)),.UNSPECIFIED.,.T.,.F.,.F.) B_SPLINE_SURFACE_WITH_KNOTS((1,2,2,2,2,1),
  (3,2,3),(-2.094395102393,0.,2.094395102393,4.188790204786,
    6.28318530718,8.377580409573),(-1.570796326795,0.,1.570796326795),
.UNSPECIFIED.) GEOMETRIC_REPRESENTATION_ITEM() RATIONAL_B_SPLINE_SURFACE
((
    (1.,0.707106781187,1.,0.707106781187,1.)
    ,(0.5,0.353553390593,0.5,0.353553390593,0.5)
    ,(1.,0.707106781187,1.,0.707106781187,1.)
    ,(0.5,0.353553390593,0.5,0.353553390593,0.5)
    ,(1.,0.707106781187,1.,0.707106781187,1.)
    ,(0.5,0.353553390593,0.5,0.353553390593,0.5)
,(1.,0.707106781187,1.,0.707106781187,1.
))) REPRESENTATION_ITEM('') SURFACE() );
#49 = CARTESIAN_POINT('',(-1.4E+04,0.,-1.6E+04));
#50 = CARTESIAN_POINT('',(6.E+03,0.,-1.6E+04));
#51 = CARTESIAN_POINT('',(6.E+03,0.,-4.E+03));
#52 = CARTESIAN_POINT('',(6.E+03,0.,8.E+03));
#53 = CARTESIAN_POINT('',(-1.4E+04,0.,8.E+03));
#54 = CARTESIAN_POINT('',(-1.4E+04,2.333265525195E-12,-1.6E+04));
#55 = CARTESIAN_POINT('',(6.E+03,3.810511776652E+04,-1.6E+04));
#56 = CARTESIAN_POINT('',(6.E+03,3.810511776652E+04,-4.E+03));
#57 = CARTESIAN_POINT('',(6.E+03,3.810511776652E+04,8.E+03));
#58 = CARTESIAN_POINT('',(-1.4E+04,2.333265525195E-12,8.E+03));
#59 = CARTESIAN_POINT('',(-1.4E+04,1.166632762597E-12,-1.6E+04));
#60 = CARTESIAN_POINT('',(-2.4E+04,1.905255888326E+04,-1.6E+04));
#61 = CARTESIAN_POINT('',(-2.4E+04,1.905255888326E+04,-4.E+03));
#62 = CARTESIAN_POINT('',(-2.4E+04,1.905255888326E+04,8.E+03));
#63 = CARTESIAN_POINT('',(-1.4E+04,1.166632762597E-12,8.E+03));
#64 = CARTESIAN_POINT('',(-1.4E+04,3.299471521856E-28,-1.6E+04));
#65 = CARTESIAN_POINT('',(-5.4E+04,5.388445916248E-12,-1.6E+04));
#66 = CARTESIAN_POINT('',(-5.4E+04,5.388445916248E-12,-4.E+03));
#67 = CARTESIAN_POINT('',(-5.4E+04,5.388445916248E-12,8.E+03));
#68 = CARTESIAN_POINT('',(-1.4E+04,3.299471521856E-28,8.E+03));
#69 = CARTESIAN_POINT('',(-1.4E+04,-1.166632762597E-12,-1.6E+04));
#70 = CARTESIAN_POINT('',(-2.4E+04,-1.905255888326E+04,-1.6E+04));
#71 = CARTESIAN_POINT('',(-2.4E+04,-1.905255888326E+04,-4.E+03));
#72 = CARTESIAN_POINT('',(-2.4E+04,-1.905255888326E+04,8.E+03));
#73 = CARTESIAN_POINT('',(-1.4E+04,-1.166632762597E-12,8.E+03));
#74 = CARTESIAN_POINT('',(-1.4E+04,-2.333265525195E-12,-1.6E+04));
#75 = CARTESIAN_POINT('',(6.E+03,-3.810511776652E+04,-1.6E+04));
#76 = CARTESIAN_POINT('',(6.E+03,-3.810511776652E+04,-4.E+03));
#77 = CARTESIAN_POINT('',(6.E+03,-3.810511776652E+04,8.E+03));
#78 = CARTESIAN_POINT('',(-1.4E+04,-2.333265525195E-12,8.E+03));
#79 = CARTESIAN_POINT('',(-1.4E+04,0.,-1.6E+04));
#80 = CARTESIAN_POINT('',(6.E+03,0.,-1.6E+04));
#81 = CARTESIAN_POINT('',(6.E+03,0.,-4.E+03));
#82 = CARTESIAN_POINT('',(6.E+03,0.,8.E+03));
#83 = CARTESIAN_POINT('',(-1.4E+04,0.,8.E+03));
#84 = ( GEOMETRIC_REPRESENTATION_CONTEXT(3) 
GLOBAL_UNCERTAINTY_ASSIGNED_CONTEXT((#88)) GLOBAL_UNIT_ASSIGNED_CONTEXT(
(#85,#86,#87)) REPRESENTATION_CONTEXT('Context #1',
  '3D Context with UNIT and UNCERTAINTY') );
#85 = ( LENGTH_UNIT() NAMED_UNIT(*) SI_UNIT(.MILLI.,.METRE.) );
#86 = ( NAMED_UNIT(*) PLANE_ANGLE_UNIT() SI_UNIT($,.RADIAN.) );
#87 = ( NAMED_UNIT(*) SI_UNIT($,.STERADIAN.) SOLID_ANGLE_UNIT() );
#88 = UNCERTAINTY_MEASURE_WITH_UNIT(LENGTH_MEASURE(1.E-07),#85,
  'distance_accuracy_value','confusion accuracy');
#89 = CONTEXT_DEPENDENT_SHAPE_REPRESENTATION(#90,#92);
#90 = ( REPRESENTATION_RELATIONSHIP('','',#40,#10) 
REPRESENTATION_RELATIONSHIP_WITH_TRANSFORMATION(#91) 
SHAPE_REPRESENTATION_RELATIONSHIP() );
#91 = ITEM_DEFINED_TRANSFORMATION('','',#11,#15);
#92 = PRODUCT_DEFINITION_SHAPE('Placement','Placement of an item',#93);
#93 = NEXT_ASSEMBLY_USAGE_OCCURRENCE('182','part0','',#5,#35,$);
#94 = PRODUCT_RELATED_PRODUCT_CATEGORY('part',$,(#37));
#95 = SHAPE_DEFINITION_REPRESENTATION(#96,#102);
#96 = PRODUCT_DEFINITION_SHAPE('','',#97);
#97 = PRODUCT_DEFINITION('design','',#98,#101);
#98 = PRODUCT_DEFINITION_FORMATION('','',#99);
#99 = PRODUCT('part1','part1','',(#100));
#100 = PRODUCT_CONTEXT('',#2,'mechanical');
#101 = PRODUCT_DEFINITION_CONTEXT('part definition',#2,'design');
#102 = ADVANCED_BREP_SHAPE_REPRESENTATION('',(#11,#103),#146);
#103 = MANIFOLD_SOLID_BREP('',#104);
#104 = CLOSED_SHELL('',(#105));
#105 = ADVANCED_FACE('',(#106),#110,.T.);
#106 = FACE_BOUND('',#107,.T.);
#107 = VERTEX_LOOP('',#108);
#108 = VERTEX_POINT('',#109);
#109 = CARTESIAN_POINT('',(1.6E+04,-2.999519565324E-28,-1.4E+04));
#110 = ( BOUNDED_SURFACE() B_SPLINE_SURFACE(2,2,(
    (#111,#112,#113,#114,#115)
    ,(#116,#117,#118,#119,#120)
    ,(#121,#122,#123,#124,#125)
    ,(#126,#127,#128,#129,#130)
    ,(#131,#132,#133,#134,#135)
    ,(#136,#137,#138,#139,#140)
    ,(#141,#142,#143,#144,#145
)),.UNSPECIFIED.,.T.,.F.,.F.) B_SPLINE_SURFACE_WITH_KNOTS((1,2,2,2,2,1),
  (3,2,3),(-2.094395102393,0.,2.094395102393,4.188790204786,
    6.28318530718,8.377580409573),(-1.570796326795,0.,1.570796326795),
.UNSPECIFIED.) GEOMETRIC_REPRESENTATION_ITEM() RATIONAL_B_SPLINE_SURFACE
((
    (1.,0.707106781187,1.,0.707106781187,1.)
    ,(0.5,0.353553390593,0.5,0.353553390593,0.5)
    ,(1.,0.707106781187,1.,0.707106781187,1.)
    ,(0.5,0.353553390593,0.5,0.353553390593,0.5)
    ,(1.,0.707106781187,1.,0.707106781187,1.)
    ,(0.5,0.353553390593,0.5,0.353553390593,0.5)
,(1.,0.707106781187,1.,0.707106781187,1.
))) REPRESENTATION_ITEM('') SURFACE() );
#111 = CARTESIAN_POINT('',(1.6E+04,0.,-1.4E+04));
#112 = CARTESIAN_POINT('',(3.4E+04,0.,-1.4E+04));
#113 = CARTESIAN_POINT('',(3.4E+04,0.,-3.E+03));
#114 = CARTESIAN_POINT('',(3.4E+04,0.,8.E+03));
#115 = CARTESIAN_POINT('',(1.6E+04,0.,8.E+03));
#116 = CARTESIAN_POINT('',(1.6E+04,2.12115047745E-12,-1.4E+04));
#117 = CARTESIAN_POINT('',(3.4E+04,3.464101615138E+04,-1.4E+04));
#118 = CARTESIAN_POINT('',(3.4E+04,3.464101615138E+04,-3.E+03));
#119 = CARTESIAN_POINT('',(3.4E+04,3.464101615138E+04,8.E+03));
#120 = CARTESIAN_POINT('',(1.6E+04,2.12115047745E-12,8.E+03));
#121 = CARTESIAN_POINT('',(1.6E+04,1.060575238725E-12,-1.4E+04));
#122 = CARTESIAN_POINT('',(7.E+03,1.732050807569E+04,-1.4E+04));
#123 = CARTESIAN_POINT('',(7.E+03,1.732050807569E+04,-3.E+03));
#124 = CARTESIAN_POINT('',(7.E+03,1.732050807569E+04,8.E+03));
#125 = CARTESIAN_POINT('',(1.6E+04,1.060575238725E-12,8.E+03));
#126 = CARTESIAN_POINT('',(1.6E+04,2.999519565324E-28,-1.4E+04));
#127 = CARTESIAN_POINT('',(-2.E+04,4.898587196589E-12,-1.4E+04));
#128 = CARTESIAN_POINT('',(-2.E+04,4.898587196589E-12,-3.E+03));
#129 = CARTESIAN_POINT('',(-2.E+04,4.898587196589E-12,8.E+03));
#130 = CARTESIAN_POINT('',(1.6E+04,2.999519565324E-28,8.E+03));
#131 = CARTESIAN_POINT('',(1.6E+04,-1.060575238725E-12,-1.4E+04));
#132 = CARTESIAN_POINT('',(7.E+03,-1.732050807569E+04,-1.4E+04));
#133 = CARTESIAN_POINT('',(7.E+03,-1.732050807569E+04,-3.E+03));
#134 = CARTESIAN_POINT('',(7.E+03,-1.732050807569E+04,8.E+03));
#135 = CARTESIAN_POINT('',(1.6E+04,-1.060575238725E-12,8.E+03));
#136 = CARTESIAN_POINT('',(1.6E+04,-2.12115047745E-12,-1.4E+04));
#137 = CARTESIAN_POINT('',(3.4E+04,-3.464101615138E+04,-1.4E+04));
#138 = CARTESIAN_POINT('',(3.4E+04,-3.464101615138E+04,-3.E+03));
#139 = CARTESIAN_POINT('',(3.4E+04,-3.464101615138E+04,8.E+03));
#140 = CARTESIAN_POINT('',(1.6E+04,-2.12115047745E-12,8.E+03));
#141 = CARTESIAN_POINT('',(1.6E+04,0.,-1.4E+04));
#142 = CARTESIAN_POINT('',(3.4E+04,0.,-1.4E+04));
#143 = CARTESIAN_POINT('',(3.4E+04,0.,-3.E+03));
#144 = CARTESIAN_POINT('',(3.4E+04,0.,8.E+03));
#145 = CARTESIAN_POINT('',(1.6E+04,0.,8.E+03));
#146 = ( GEOMETRIC_REPRESENTATION_CONTEXT(3) 
GLOBAL_UNCERTAINTY_ASSIGNED_CONTEXT((#150)) GLOBAL_UNIT_ASSIGNED_CONTEXT
((#147,#148,#149)) REPRESENTATION_CONTEXT('Context #1',
  '3D Context with UNIT and UNCERTAINTY') );
#147 = ( LENGTH_UNIT() NAMED_UNIT(*) SI_UNIT(.MILLI.,.METRE.) );
#148 = ( NAMED_UNIT(*) PLANE_ANGLE_UNIT() SI_UNIT($,.RADIAN.) );
#149 = ( NAMED_UNIT(*) SI_UNIT($,.STERADIAN.) SOLID_ANGLE_UNIT() );
#150 = UNCERTAINTY_MEASURE_WITH_UNIT(LENGTH_MEASURE(1.E-07),#147,
  'distance_accuracy_value','confusion accuracy');
#151 = CONTEXT_DEPENDENT_SHAPE_REPRESENTATION(#152,#154);
#152 = ( REPRESENTATION_RELATIONSHIP('','',#102,#10) 
REPRESENTATION_RELATIONSHIP_WITH_TRANSFORMATION(#153) 
SHAPE_REPRESENTATION_RELATIONSHIP() );
#153 = ITEM_DEFINED_TRANSFORMATION('','',#11,#19);
#154 = PRODUCT_DEFINITION_SHAPE('Placement','Placement of an item',#155
  );
#155 = NEXT_ASSEMBLY_USAGE_OCCURRENCE('183','part1','',#5,#97,$);
#156 = PRODUCT_RELATED_PRODUCT_CATEGORY('part',$,(#99));
#157 = SHAPE_DEFINITION_REPRESENTATION(#158,#164);
#158 = PRODUCT_DEFINITION_SHAPE('','',#159);
#159 = PRODUCT_DEFINITION('design','',#160,#163);
#160 = PRODUCT_DEFINITION_FORMATION('','',#161);
#161 = PRODUCT('part2','part2','',(#162));
#162 = PRODUCT_CONTEXT('',#2,'mechanical');
#163 = PRODUCT_DEFINITION_CONTEXT('part definition',#2,'design');
#164 = ADVANCED_BREP_SHAPE_REPRESENTATION('',(#11,#165),#495);
#165 = MANIFOLD_SOLID_BREP('',#166);
#166 = CLOSED_SHELL('',(#167,#287,#387,#434,#481,#488));
#167 = ADVANCED_FACE('',(#168),#182,.F.);
#168 = FACE_BOUND('',#169,.F.);
#169 = EDGE_LOOP('',(#170,#205,#233,#261));
#170 = ORIENTED_EDGE('',*,*,#171,.F.);
#171 = EDGE_CURVE('',#172,#174,#176,.T.);
#172 = VERTEX_POINT('',#173);
#173 = CARTESIAN_POINT('',(-3.E+04,-750.,9.25E+03));
#174 = VERTEX_POINT('',#175);
#175 = CARTESIAN_POINT('',(-3.E+04,-750.,1.175E+04));
#176 = SURFACE_CURVE('',#177,(#181,#193),.PCURVE_S1.);
#177 = LINE('',#178,#179);
#178 = CARTESIAN_POINT('',(-3.E+04,-750.,9.25E+03));
#179 = VECTOR('',#180,1.);
#180 = DIRECTION('',(0.,0.,1.));
#181 = PCURVE('',#182,#187);
#182 = PLANE('',#183);
#183 = AXIS2_PLACEMENT_3D('',#184,#185,#186);
#184 = CARTESIAN_POINT('',(-3.E+04,-750.,9.25E+03));
#185 = DIRECTION('',(1.,0.,0.));
#186 = DIRECTION('',(0.,0.,1.));
#187 = DEFINITIONAL_REPRESENTATION('',(#188),#192);
#188 = LINE('',#189,#190);
#189 = CARTESIAN_POINT('',(0.,0.));
#190 = VECTOR('',#191,1.);
#191 = DIRECTION('',(1.,0.));
#192 = ( GEOMETRIC_REPRESENTATION_CONTEXT(2) 
PARAMETRIC_REPRESENTATION_CONTEXT() REPRESENTATION_CONTEXT('2D SPACE',''
  ) );
#193 = PCURVE('',#194,#199);
#194 = PLANE('',#195);
#195 = AXIS2_PLACEMENT_3D('',#196,#197,#198);
#196 = CARTESIAN_POINT('',(-3.E+04,-750.,9.25E+03));
#197 = DIRECTION('',(0.,1.,0.));
#198 = DIRECTION('',(0.,0.,1.));
#199 = DEFINITIONAL_REPRESENTATION('',(#200),#204);
#200 = LINE('',#201,#202);
#201 = CARTESIAN_POINT('',(0.,0.));
#202 = VECTOR('',#203,1.);
#203 = DIRECTION('',(1.,0.));
#204 = ( GEOMETRIC_REPRESENTATION_CONTEXT(2) 
PARAMETRIC_REPRESENTATION_CONTEXT() REPRESENTATION_CONTEXT('2D SPACE',''
  ) );
#205 = ORIENTED_EDGE('',*,*,#206,.T.);
#206 = EDGE_CURVE('',#172,#207,#209,.T.);
#207 = VERTEX_POINT('',#208);
#208 = CARTESIAN_POINT('',(-3.E+04,750.,9.25E+03));
#209 = SURFACE_CURVE('',#210,(#214,#221),.PCURVE_S1.);
#210 = LINE('',#211,#212);
#211 = CARTESIAN_POINT('',(-3.E+04,-750.,9.25E+03));
#212 = VECTOR('',#213,1.);
#213 = DIRECTION('',(0.,1.,0.));
#214 = PCURVE('',#182,#215);
#215 = DEFINITIONAL_REPRESENTATION('',(#216),#220);
#216 = LINE('',#217,#218);
#217 = CARTESIAN_POINT('',(0.,0.));
#218 = VECTOR('',#219,1.);
#219 = DIRECTION('',(0.,-1.));
#220 = ( GEOMETRIC_REPRESENTATION_CONTEXT(2) 
PARAMETRIC_REPRESENTATION_CONTEXT() REPRESENTATION_CONTEXT('2D SPACE',''
  ) );
#221 = PCURVE('',#222,#227);
#222 = PLANE('',#223);
#223 = AXIS2_PLACEMENT_3D('',#224,#225,#226);
#224 = CARTESIAN_POINT('',(-3.E+04,-750.,9.25E+03));
#225 = DIRECTION('',(0.,0.,1.));
#226 = DIRECTION('',(1.,0.,0.));
#227 = DEFINITIONAL_REPRESENTATION('',(#228),#232);
#228 = LINE('',#229,#230);
#229 = CARTESIAN_POINT('',(0.,0.));
#230 = VECTOR('',#231,1.);
#231 = DIRECTION('',(0.,1.));
#232 = ( GEOMETRIC_REPRESENTATION_CONTEXT(2) 
PARAMETRIC_REPRESENTATION_CONTEXT() REPRESENTATION_CONTEXT('2D SPACE',''
  ) );
#233 = ORIENTED_EDGE('',*,*,#234,.T.);
#234 = EDGE_CURVE('',#207,#235,#237,.T.);
#235 = VERTEX_POINT('',#236);
#236 = CARTESIAN_POINT('',(-3.E+04,750.,1.175E+04));
#237 = SURFACE_CURVE('',#238,(#242,#249),.PCURVE_S1.);
#238 = LINE('',#239,#240);
#239 = CARTESIAN_POINT('',(-3.E+04,750.,9.25E+03));
#240 = VECTOR('',#241,1.);
#241 = DIRECTION('',(0.,0.,1.));
#242 = PCURVE('',#182,#243);
#243 = DEFINITIONAL_REPRESENTATION('',(#244),#248);
#244 = LINE('',#245,#246);
#245 = CARTESIAN_POINT('',(0.,-1.5E+03));
#246 = VECTOR('',#247,1.);
#247 = DIRECTION('',(1.,0.));
#248 = ( GEOMETRIC_REPRESENTATION_CONTEXT(2) 
PARAMETRIC_REPRESENTATION_CONTEXT() REPRESENTATION_CONTEXT('2D SPACE',''
  ) );
#249 = PCURVE('',#250,#255);
#250 = PLANE('',#251);
#251 = AXIS2_PLACEMENT_3D('',#252,#253,#254);
#252 = CARTESIAN_POINT('',(-3.E+04,750.,9.25E+03));
#253 = DIRECTION('',(0.,1.,0.));
#254 = DIRECTION('',(0.,0.,1.));
#255 = DEFINITIONAL_REPRESENTATION('',(#256),#260);
#256 = LINE('',#257,#258);
#257 = CARTESIAN_POINT('',(0.,0.));
#258 = VECTOR('',#259,1.);
#259 = DIRECTION('',(1.,0.));
#260 = ( GEOMETRIC_REPRESENTATION_CONTEXT(2) 
PARAMETRIC_REPRESENTATION_CONTEXT() REPRESENTATION_CONTEXT('2D SPACE',''
  ) );
#261 = ORIENTED_EDGE('',*,*,#262,.F.);
#262 = EDGE_CURVE('',#174,#235,#263,.T.);
#263 = SURFACE_CURVE('',#264,(#268,#275),.PCURVE_S1.);
#264 = LINE('',#265,#266);
#265 = CARTESIAN_POINT('',(-3.E+04,-750.,1.175E+04));
#266 = VECTOR('',#267,1.);
#267 = DIRECTION('',(0.,1.,0.));
#268 = PCURVE('',#182,#269);
#269 = DEFINITIONAL_REPRESENTATION('',(#270),#274);
#270 = LINE('',#271,#272);
#271 = CARTESIAN_POINT('',(2.5E+03,0.));
#272 = VECTOR('',#273,1.);
#273 = DIRECTION('',(0.,-1.));
#274 = ( GEOMETRIC_REPRESENTATION_CONTEXT(2) 
PARAMETRIC_REPRESENTATION_CONTEXT() REPRESENTATION_CONTEXT('2D SPACE',''
  ) );
#275 = PCURVE('',#276,#281);
#276 = PLANE('',#277);
#277 = AXIS2_PLACEMENT_3D('',#278,#279,#280);
#278 = CARTESIAN_POINT('',(-3.E+04,-750.,1.175E+04));
#279 = DIRECTION('',(0.,0.,1.));
#280 = DIRECTION('',(1.,0.,0.));
#281 = DEFINITIONAL_REPRESENTATION('',(#282),#286);
#282 = LINE('',#283,#284);
#283 = CARTESIAN_POINT('',(0.,0.));
#284 = VECTOR('',#285,1.);
#285 = DIRECTION('',(0.,1.));
#286 = ( GEOMETRIC_REPRESENTATION_CONTEXT(2) 
PARAMETRIC_REPRESENTATION_CONTEXT() REPRESENTATION_CONTEXT('2D SPACE',''
  ) );
#287 = ADVANCED_FACE('',(#288),#302,.T.);
#288 = FACE_BOUND('',#289,.T.);
#289 = EDGE_LOOP('',(#290,#320,#343,#366));
#290 = ORIENTED_EDGE('',*,*,#291,.F.);
#291 = EDGE_CURVE('',#292,#294,#296,.T.);
#292 = VERTEX_POINT('',#293);
#293 = CARTESIAN_POINT('',(3.E+04,-750.,9.25E+03));
#294 = VERTEX_POINT('',#295);
#295 = CARTESIAN_POINT('',(3.E+04,-750.,1.175E+04));
#296 = SURFACE_CURVE('',#297,(#301,#313),.PCURVE_S1.);
#297 = LINE('',#298,#299);
#298 = CARTESIAN_POINT('',(3.E+04,-750.,9.25E+03));
#299 = VECTOR('',#300,1.);
#300 = DIRECTION('',(0.,0.,1.));
#301 = PCURVE('',#302,#307);
#302 = PLANE('',#303);
#303 = AXIS2_PLACEMENT_3D('',#304,#305,#306);
#304 = CARTESIAN_POINT('',(3.E+04,-750.,9.25E+03));
#305 = DIRECTION('',(1.,0.,0.));
#306 = DIRECTION('',(0.,0.,1.));
#307 = DEFINITIONAL_REPRESENTATION('',(#308),#312);
#308 = LINE('',#309,#310);
#309 = CARTESIAN_POINT('',(0.,0.));
#310 = VECTOR('',#311,1.);
#311 = DIRECTION('',(1.,0.));
#312 = ( GEOMETRIC_REPRESENTATION_CONTEXT(2) 
PARAMETRIC_REPRESENTATION_CONTEXT() REPRESENTATION_CONTEXT('2D SPACE',''
  ) );
#313 = PCURVE('',#194,#314);
#314 = DEFINITIONAL_REPRESENTATION('',(#315),#319);
#315 = LINE('',#316,#317);
#316 = CARTESIAN_POINT('',(0.,6.E+04));
#317 = VECTOR('',#318,1.);
#318 = DIRECTION('',(1.,0.));
#319 = ( GEOMETRIC_REPRESENTATION_CONTEXT(2) 
PARAMETRIC_REPRESENTATION_CONTEXT() REPRESENTATION_CONTEXT('2D SPACE',''
  ) );
#320 = ORIENTED_EDGE('',*,*,#321,.T.);
#321 = EDGE_CURVE('',#292,#322,#324,.T.);
#322 = VERTEX_POINT('',#323);
#323 = CARTESIAN_POINT('',(3.E+04,750.,9.25E+03));
#324 = SURFACE_CURVE('',#325,(#329,#336),.PCURVE_S1.);
#325 = LINE('',#326,#327);
#326 = CARTESIAN_POINT('',(3.E+04,-750.,9.25E+03));
#327 = VECTOR('',#328,1.);
#328 = DIRECTION('',(0.,1.,0.));
#329 = PCURVE('',#302,#330);
#330 = DEFINITIONAL_REPRESENTATION('',(#331),#335);
#331 = LINE('',#332,#333);
#332 = CARTESIAN_POINT('',(0.,0.));
#333 = VECTOR('',#334,1.);
#334 = DIRECTION('',(0.,-1.));
#335 = ( GEOMETRIC_REPRESENTATION_CONTEXT(2) 
PARAMETRIC_REPRESENTATION_CONTEXT() REPRESENTATION_CONTEXT('2D SPACE',''
  ) );
#336 = PCURVE('',#222,#337);
#337 = DEFINITIONAL_REPRESENTATION('',(#338),#342);
#338 = LINE('',#339,#340);
#339 = CARTESIAN_POINT('',(6.E+04,0.));
#340 = VECTOR('',#341,1.);
#341 = DIRECTION('',(0.,1.));
#342 = ( GEOMETRIC_REPRESENTATION_CONTEXT(2) 
PARAMETRIC_REPRESENTATION_CONTEXT() REPRESENTATION_CONTEXT('2D SPACE',''
  ) );
#343 = ORIENTED_EDGE('',*,*,#344,.T.);
#344 = EDGE_CURVE('',#322,#345,#347,.T.);
#345 = VERTEX_POINT('',#346);
#346 = CARTESIAN_POINT('',(3.E+04,750.,1.175E+04));
#347 = SURFACE_CURVE('',#348,(#352,#359),.PCURVE_S1.);
#348 = LINE('',#349,#350);
#349 = CARTESIAN_POINT('',(3.E+04,750.,9.25E+03));
#350 = VECTOR('',#351,1.);
#351 = DIRECTION('',(0.,0.,1.));
#352 = PCURVE('',#302,#353);
#353 = DEFINITIONAL_REPRESENTATION('',(#354),#358);
#354 = LINE('',#355,#356);
#355 = CARTESIAN_POINT('',(0.,-1.5E+03));
#356 = VECTOR('',#357,1.);
#357 = DIRECTION('',(1.,0.));
#358 = ( GEOMETRIC_REPRESENTATION_CONTEXT(2) 
PARAMETRIC_REPRESENTATION_CONTEXT() REPRESENTATION_CONTEXT('2D SPACE',''
  ) );
#359 = PCURVE('',#250,#360);
#360 = DEFINITIONAL_REPRESENTATION('',(#361),#365);
#361 = LINE('',#362,#363);
#362 = CARTESIAN_POINT('',(0.,6.E+04));
#363 = VECTOR('',#364,1.);
#364 = DIRECTION('',(1.,0.));
#365 = ( GEOMETRIC_REPRESENTATION_CONTEXT(2) 
PARAMETRIC_REPRESENTATION_CONTEXT() REPRESENTATION_CONTEXT('2D SPACE',''
  ) );
#366 = ORIENTED_EDGE('',*,*,#367,.F.);
#367 = EDGE_CURVE('',#294,#345,#368,.T.);
#368 = SURFACE_CURVE('',#369,(#373,#380),.PCURVE_S1.);
#369 = LINE('',#370,#371);
#370 = CARTESIAN_POINT('',(3.E+04,-750.,1.175E+04));
#371 = VECTOR('',#372,1.);
#372 = DIRECTION('',(0.,1.,0.));
#373 = PCURVE('',#302,#374);
#374 = DEFINITIONAL_REPRESENTATION('',(#375),#379);
#375 = LINE('',#376,#377);
#376 = CARTESIAN_POINT('',(2.5E+03,0.));
#377 = VECTOR('',#378,1.);
#378 = DIRECTION('',(0.,-1.));
#379 = ( GEOMETRIC_REPRESENTATION_CONTEXT(2) 
PARAMETRIC_REPRESENTATION_CONTEXT() REPRESENTATION_CONTEXT('2D SPACE',''
  ) );
#380 = PCURVE('',#276,#381);
#381 = DEFINITIONAL_REPRESENTATION('',(#382),#386);
#382 = LINE('',#383,#384);
#383 = CARTESIAN_POINT('',(6.E+04,0.));
#384 = VECTOR('',#385,1.);
#385 = DIRECTION('',(0.,1.));
#386 = ( GEOMETRIC_REPRESENTATION_CONTEXT(2) 
PARAMETRIC_REPRESENTATION_CONTEXT() REPRESENTATION_CONTEXT('2D SPACE',''
  ) );
#387 = ADVANCED_FACE('',(#388),#194,.F.);
#388 = FACE_BOUND('',#389,.F.);
#389 = EDGE_LOOP('',(#390,#411,#412,#433));
#390 = ORIENTED_EDGE('',*,*,#391,.F.);
#391 = EDGE_CURVE('',#172,#292,#392,.T.);
#392 = SURFACE_CURVE('',#393,(#397,#404),.PCURVE_S1.);
#393 = LINE('',#394,#395);
#394 = CARTESIAN_POINT('',(-3.E+04,-750.,9.25E+03));
#395 = VECTOR('',#396,1.);
#396 = DIRECTION('',(1.,0.,0.));
#397 = PCURVE('',#194,#398);
#398 = DEFINITIONAL_REPRESENTATION('',(#399),#403);
#399 = LINE('',#400,#401);
#400 = CARTESIAN_POINT('',(0.,0.));
#401 = VECTOR('',#402,1.);
#402 = DIRECTION('',(0.,1.));
#403 = ( GEOMETRIC_REPRESENTATION_CONTEXT(2) 
PARAMETRIC_REPRESENTATION_CONTEXT() REPRESENTATION_CONTEXT('2D SPACE',''
  ) );
#404 = PCURVE('',#222,#405);
#405 = DEFINITIONAL_REPRESENTATION('',(#406),#410);
#406 = LINE('',#407,#408);
#407 = CARTESIAN_POINT('',(0.,0.));
#408 = VECTOR('',#409,1.);
#409 = DIRECTION('',(1.,0.));
#410 = ( GEOMETRIC_REPRESENTATION_CONTEXT(2) 
PARAMETRIC_REPRESENTATION_CONTEXT() REPRESENTATION_CONTEXT('2D SPACE',''
  ) );
#411 = ORIENTED_EDGE('',*,*,#171,.T.);
#412 = ORIENTED_EDGE('',*,*,#413,.T.);
#413 = EDGE_CURVE('',#174,#294,#414,.T.);
#414 = SURFACE_CURVE('',#415,(#419,#426),.PCURVE_S1.);
#415 = LINE('',#416,#417);
#416 = CARTESIAN_POINT('',(-3.E+04,-750.,1.175E+04));
#417 = VECTOR('',#418,1.);
#418 = DIRECTION('',(1.,0.,0.));
#419 = PCURVE('',#194,#420);
#420 = DEFINITIONAL_REPRESENTATION('',(#421),#425);
#421 = LINE('',#422,#423);
#422 = CARTESIAN_POINT('',(2.5E+03,0.));
#423 = VECTOR('',#424,1.);
#424 = DIRECTION('',(0.,1.));
#425 = ( GEOMETRIC_REPRESENTATION_CONTEXT(2) 
PARAMETRIC_REPRESENTATION_CONTEXT() REPRESENTATION_CONTEXT('2D SPACE',''
  ) );
#426 = PCURVE('',#276,#427);
#427 = DEFINITIONAL_REPRESENTATION('',(#428),#432);
#428 = LINE('',#429,#430);
#429 = CARTESIAN_POINT('',(0.,0.));
#430 = VECTOR('',#431,1.);
#431 = DIRECTION('',(1.,0.));
#432 = ( GEOMETRIC_REPRESENTATION_CONTEXT(2) 
PARAMETRIC_REPRESENTATION_CONTEXT() REPRESENTATION_CONTEXT('2D SPACE',''
  ) );
#433 = ORIENTED_EDGE('',*,*,#291,.F.);
#434 = ADVANCED_FACE('',(#435),#250,.T.);
#435 = FACE_BOUND('',#436,.T.);
#436 = EDGE_LOOP('',(#437,#458,#459,#480));
#437 = ORIENTED_EDGE('',*,*,#438,.F.);
#438 = EDGE_CURVE('',#207,#322,#439,.T.);
#439 = SURFACE_CURVE('',#440,(#444,#451),.PCURVE_S1.);
#440 = LINE('',#441,#442);
#441 = CARTESIAN_POINT('',(-3.E+04,750.,9.25E+03));
#442 = VECTOR('',#443,1.);
#443 = DIRECTION('',(1.,0.,0.));
#444 = PCURVE('',#250,#445);
#445 = DEFINITIONAL_REPRESENTATION('',(#446),#450);
#446 = LINE('',#447,#448);
#447 = CARTESIAN_POINT('',(0.,0.));
#448 = VECTOR('',#449,1.);
#449 = DIRECTION('',(0.,1.));
#450 = ( GEOMETRIC_REPRESENTATION_CONTEXT(2) 
PARAMETRIC_REPRESENTATION_CONTEXT() REPRESENTATION_CONTEXT('2D SPACE',''
  ) );
#451 = PCURVE('',#222,#452);
#452 = DEFINITIONAL_REPRESENTATION('',(#453),#457);
#453 = LINE('',#454,#455);
#454 = CARTESIAN_POINT('',(0.,1.5E+03));
#455 = VECTOR('',#456,1.);
#456 = DIRECTION('',(1.,0.));
#457 = ( GEOMETRIC_REPRESENTATION_CONTEXT(2) 
PARAMETRIC_REPRESENTATION_CONTEXT() REPRESENTATION_CONTEXT('2D SPACE',''
  ) );
#458 = ORIENTED_EDGE('',*,*,#234,.T.);
#459 = ORIENTED_EDGE('',*,*,#460,.T.);
#460 = EDGE_CURVE('',#235,#345,#461,.T.);
#461 = SURFACE_CURVE('',#462,(#466,#473),.PCURVE_S1.);
#462 = LINE('',#463,#464);
#463 = CARTESIAN_POINT('',(-3.E+04,750.,1.175E+04));
#464 = VECTOR('',#465,1.);
#465 = DIRECTION('',(1.,0.,0.));
#466 = PCURVE('',#250,#467);
#467 = DEFINITIONAL_REPRESENTATION('',(#468),#472);
#468 = LINE('',#469,#470);
#469 = CARTESIAN_POINT('',(2.5E+03,0.));
#470 = VECTOR('',#471,1.);
#471 = DIRECTION('',(0.,1.));
#472 = ( GEOMETRIC_REPRESENTATION_CONTEXT(2) 
PARAMETRIC_REPRESENTATION_CONTEXT() REPRESENTATION_CONTEXT('2D SPACE',''
  ) );
#473 = PCURVE('',#276,#474);
#474 = DEFINITIONAL_REPRESENTATION('',(#475),#479);
#475 = LINE('',#476,#477);
#476 = CARTESIAN_POINT('',(0.,1.5E+03));
#477 = VECTOR('',#478,1.);
#478 = DIRECTION('',(1.,0.));
#479 = ( GEOMETRIC_REPRESENTATION_CONTEXT(2) 
PARAMETRIC_REPRESENTATION_CONTEXT() REPRESENTATION_CONTEXT('2D SPACE',''
  ) );
#480 = ORIENTED_EDGE('',*,*,#344,.F.);
#481 = ADVANCED_FACE('',(#482),#222,.F.);
#482 = FACE_BOUND('',#483,.F.);
#483 = EDGE_LOOP('',(#484,#485,#486,#487));
#484 = ORIENTED_EDGE('',*,*,#206,.F.);
#485 = ORIENTED_EDGE('',*,*,#391,.T.);
#486 = ORIENTED_EDGE('',*,*,#321,.T.);
#487 = ORIENTED_EDGE('',*,*,#438,.F.);
#488 = ADVANCED_FACE('',(#489),#276,.T.);
#489 = FACE_BOUND('',#490,.T.);
#490 = EDGE_LOOP('',(#491,#492,#493,#494));
#491 = ORIENTED_EDGE('',*,*,#262,.F.);
#492 = ORIENTED_EDGE('',*,*,#413,.T.);
#493 = ORIENTED_EDGE('',*,*,#367,.T.);
#494 = ORIENTED_EDGE('',*,*,#460,.F.);
#495 = ( GEOMETRIC_REPRESENTATION_CONTEXT(3) 
GLOBAL_UNCERTAINTY_ASSIGNED_CONTEXT((#499)) GLOBAL_UNIT_ASSIGNED_CONTEXT
((#496,#497,#498)) REPRESENTATION_CONTEXT('Context #1',
  '3D Context with UNIT and UNCERTAINTY') );
#496 = ( LENGTH_UNIT() NAMED_UNIT(*) SI_UNIT(.MILLI.,.METRE.) );
#497 = ( NAMED_UNIT(*) PLANE_ANGLE_UNIT() SI_UNIT($,.RADIAN.) );
#498 = ( NAMED_UNIT(*) SI_UNIT($,.STERADIAN.) SOLID_ANGLE_UNIT() );
#499 = UNCERTAINTY_MEASURE_WITH_UNIT(LENGTH_MEASURE(1.E-07),#496,
  'distance_accuracy_value','confusion accuracy');
#500 = CONTEXT_DEPENDENT_SHAPE_REPRESENTATION(#501,#503);
#501 = ( REPRESENTATION_RELATIONSHIP('','',#164,#10) 
REPRESENTATION_RELATIONSHIP_WITH_TRANSFORMATION(#502) 
SHAPE_REPRESENTATION_RELATIONSHIP() );
#502 = ITEM_DEFINED_TRANSFORMATION('','',#11,#23);
#503 = PRODUCT_DEFINITION_SHAPE('Placement','Placement of an item',#504
  );
#504 = NEXT_ASSEMBLY_USAGE_OCCURRENCE('184','part2','',#5,#159,$);
#505 = PRODUCT_RELATED_PRODUCT_CATEGORY('part',$,(#161));
#506 = MECHANICAL_DESIGN_GEOMETRIC_PRESENTATION_REPRESENTATION('',(#507)
  ,#84);
#507 = STYLED_ITEM('color',(#508),#41);
#508 = PRESENTATION_STYLE_ASSIGNMENT((#509));
#509 = SURFACE_STYLE_USAGE(.BOTH.,#510);
#510 = SURFACE_SIDE_STYLE('',(#511));
#511 = SURFACE_STYLE_FILL_AREA(#512);
#512 = FILL_AREA_STYLE('',(#513));
#513 = FILL_AREA_STYLE_COLOUR('',#514);
#514 = COLOUR_RGB('',0.368627449173,0.541176465727,0.274509799781);
#515 = MECHANICAL_DESIGN_GEOMETRIC_PRESENTATION_REPRESENTATION('',(#516)
  ,#146);
#516 = STYLED_ITEM('color',(#517),#103);
#517 = PRESENTATION_STYLE_ASSIGNMENT((#518));
#518 = SURFACE_STYLE_USAGE(.BOTH.,#519);
#519 = SURFACE_SIDE_STYLE('',(#520));
#520 = SURFACE_STYLE_FILL_AREA(#521);
#521 = FILL_AREA_STYLE('',(#522));
#522 = FILL_AREA_STYLE_COLOUR('',#514);
#523 = MECHANICAL_DESIGN_GEOMETRIC_PRESENTATION_REPRESENTATION('',(#524)
  ,#495);
#524 = STYLED_ITEM('color',(#525),#165);
#525 = PRESENTATION_STYLE_ASSIGNMENT((#526));
#526 = SURFACE_STYLE_USAGE(.BOTH.,#527);
#527 = SURFACE_SIDE_STYLE('',(#528));
#528 = SURFACE_STYLE_FILL_AREA(#529);
#529 = FILL_AREA_STYLE('',(#530));
#530 = FILL_AREA_STYLE_COLOUR('',#531);
#531 = COLOUR_RGB('',0.243137258719,0.419607846511,0.196078429142);
ENDSEC;
END-ISO-10303-21;
