ISO-10303-21;
HEADER;
FILE_DESCRIPTION(('Open CASCADE Model'),'2;1');
FILE_NAME('Open CASCADE Shape Model','2026-09-14T11:05:23',('Author'),(
    'Open CASCADE'),'Open CASCADE STEP processor 7.9','Open CASCADE 7.9'
  ,'Unknown');
FILE_SCHEMA(('AUTOMOTIVE_DESIGN { 1 0 10303 214 1 1 1 1 }'));
ENDSEC;
DATA;
#1 = APPLICATION_PROTOCOL_DEFINITION('international standard',
  'automotive_design',2000,#2);
#2 = APPLICATION_CONTEXT(
  'core data for automotive mechanical design processes');
#3 = SHAPE_DEFINITION_REPRESENTATION(#4,#10);
#4 = PRODUCT_DEFINITION_SHAPE('','',#5);
#5 = PRODUCT_DEFINITION('design','',#6,#9);
#6 = PRODUCT_DEFINITION_FORMATION('','',#7);
#7 = PRODUCT('cd3338cc-b023-11f1-b5ac-3c9c0f4bdafb',
  'cd3338cc-b023-11f1-b5ac-3c9c0f4bdafb','',(#8));
#8 = PRODUCT_CONTEXT('',#2,'mechanical');
#9 = PRODUCT_DEFINITION_CONTEXT('part definition',#2,'design');
#10 = SHAPE_REPRESENTATION('',(#11,#15,#19),#23);
#11 = AXIS2_PLACEMENT_3D('',#12,#13,#14);
#12 = CARTESIAN_POINT('',(0.,0.,0.));
#13 = DIRECTION('',(0.,0.,1.));
#14 = DIRECTION('',(1.,0.,-0.));
#15 = AXIS2_PLACEMENT_3D('',#16,#17,#18);
#16 = CARTESIAN_POINT('',(0.,0.,0.));
#17 = DIRECTION('',(0.,0.,1.));
#18 = DIRECTION('',(1.,0.,-0.));
#19 = AXIS2_PLACEMENT_3D('',#20,#21,#22);
#20 = CARTESIAN_POINT('',(0.,0.,0.));
#21 = DIRECTION('',(0.,0.,1.));
#22 = DIRECTION('',(1.,0.,-0.));
#23 = ( GEOMETRIC_REPRESENTATION_CONTEXT(3) 
GLOBAL_UNCERTAINTY_ASSIGNED_CONTEXT((#27)) GLOBAL_UNIT_ASSIGNED_CONTEXT(
(#24,#25,#26)) REPRESENTATION_CONTEXT('Context #1',
  '3D Context with UNIT and UNCERTAINTY') );
#24 = ( LENGTH_UNIT() NAMED_UNIT(*) SI_UNIT(.MILLI.,.METRE.) );
#25 = ( NAMED_UNIT(*) PLANE_ANGLE_UNIT() SI_UNIT($,.RADIAN.) );
#26 = ( NAMED_UNIT(*) SI_UNIT($,.STERADIAN.) SOLID_ANGLE_UNIT() );
#27 = UNCERTAINTY_MEASURE_WITH_UNIT(LENGTH_MEASURE(1.E-07),#24,
  'distance_accuracy_value','confusion accuracy');
#28 = PRODUCT_RELATED_PRODUCT_CATEGORY('part',$,(#7));
#29 = SHAPE_DEFINITION_REPRESENTATION(#30,#36);
#30 = PRODUCT_DEFINITION_SHAPE('','',#31);
#31 = PRODUCT_DEFINITION('design','',#32,#35);
#32 = PRODUCT_DEFINITION_FORMATION('','',#33);
#33 = PRODUCT('part0','part0','',(#34));
#34 = PRODUCT_CONTEXT('',#2,'mechanical');
#35 = PRODUCT_DEFINITION_CONTEXT('part definition',#2,'design');
#36 = ADVANCED_BREP_SHAPE_REPRESENTATION('',(#11,#37),#80);
#37 = MANIFOLD_SOLID_BREP('',#38);
#38 = CLOSED_SHELL('',(#39));
#39 = ADVANCED_FACE('',(#40),#44,.T.);
#40 = FACE_BOUND('',#41,.T.);
#41 = VERTEX_LOOP('',#42);
#42 = VERTEX_POINT('',#43);
#43 = CARTESIAN_POINT('',(9.184850993605E-13,-5.999039130647E-29,-900.)
  );
#44 = ( BOUNDED_SURFACE() B_SPLINE_SURFACE(2,2,(
    (#45,#46,#47,#48,#49)
    ,(#50,#51,#52,#53,#54)
    ,(#55,#56,#57,#58,#59)
    ,(#60,#61,#62,#63,#64)
    ,(#65,#66,#67,#68,#69)
    ,(#70,#71,#72,#73,#74)
    ,(#75,#76,#77,#78,#79
)),.UNSPECIFIED.,.T.,.F.,.F.) B_SPLINE_SURFACE_WITH_KNOTS((1,2,2,2,2,1),
  (3,2,3),(-2.094395102393,0.,2.094395102393,4.188790204786,
    6.28318530718,8.377580409573),(-1.570796326795,0.,1.570796326795),
.UNSPECIFIED.) GEOMETRIC_REPRESENTATION_ITEM() RATIONAL_B_SPLINE_SURFACE
((
    (1.,0.707106781187,1.,0.707106781187,1.)
    ,(0.5,0.353553390593,0.5,0.353553390593,0.5)
    ,(1.,0.707106781187,1.,0.707106781187,1.)
    ,(0.5,0.353553390593,0.5,0.353553390593,0.5)
    ,(1.,0.707106781187,1.,0.707106781187,1.)
    ,(0.5,0.353553390593,0.5,0.353553390593,0.5)
,(1.,0.707106781187,1.,0.707106781187,1.
))) REPRESENTATION_ITEM('') SURFACE() );
#45 = CARTESIAN_POINT('',(9.184850993605E-13,0.,-900.));
#46 = CARTESIAN_POINT('',(1.5E+04,0.,-900.));
#47 = CARTESIAN_POINT('',(1.5E+04,0.,300.));
#48 = CARTESIAN_POINT('',(1.5E+04,0.,1.5E+03));
#49 = CARTESIAN_POINT('',(9.184850993605E-13,0.,1.5E+03));
#50 = CARTESIAN_POINT('',(9.184850993605E-13,4.2423009549E-13,-900.));
#51 = CARTESIAN_POINT('',(1.5E+04,6.928203230276E+03,-900.));
#52 = CARTESIAN_POINT('',(1.5E+04,6.928203230276E+03,300.));
#53 = CARTESIAN_POINT('',(1.5E+04,6.928203230276E+03,1.5E+03));
#54 = CARTESIAN_POINT('',(9.184850993605E-13,4.2423009549E-13,1.5E+03));
#55 = CARTESIAN_POINT('',(-4.592425496803E-13,2.12115047745E-13,-900.));
#56 = CARTESIAN_POINT('',(-7.5E+03,3.464101615138E+03,-900.));
#57 = CARTESIAN_POINT('',(-7.5E+03,3.464101615138E+03,300.));
#58 = CARTESIAN_POINT('',(-7.5E+03,3.464101615138E+03,1.5E+03));
#59 = CARTESIAN_POINT('',(-4.592425496803E-13,2.12115047745E-13,1.5E+03)
  );
#60 = CARTESIAN_POINT('',(-1.836970198721E-12,5.999039130647E-29,-900.)
  );
#61 = CARTESIAN_POINT('',(-3.E+04,9.797174393179E-13,-900.));
#62 = CARTESIAN_POINT('',(-3.E+04,9.797174393179E-13,300.));
#63 = CARTESIAN_POINT('',(-3.E+04,9.797174393179E-13,1.5E+03));
#64 = CARTESIAN_POINT('',(-1.836970198721E-12,5.999039130647E-29,1.5E+03
    ));
#65 = CARTESIAN_POINT('',(-4.592425496803E-13,-2.12115047745E-13,-900.)
  );
#66 = CARTESIAN_POINT('',(-7.5E+03,-3.464101615138E+03,-900.));
#67 = CARTESIAN_POINT('',(-7.5E+03,-3.464101615138E+03,300.));
#68 = CARTESIAN_POINT('',(-7.5E+03,-3.464101615138E+03,1.5E+03));
#69 = CARTESIAN_POINT('',(-4.592425496803E-13,-2.12115047745E-13,1.5E+03
    ));
#70 = CARTESIAN_POINT('',(9.184850993605E-13,-4.2423009549E-13,-900.));
#71 = CARTESIAN_POINT('',(1.5E+04,-6.928203230276E+03,-900.));
#72 = CARTESIAN_POINT('',(1.5E+04,-6.928203230276E+03,300.));
#73 = CARTESIAN_POINT('',(1.5E+04,-6.928203230276E+03,1.5E+03));
#74 = CARTESIAN_POINT('',(9.184850993605E-13,-4.2423009549E-13,1.5E+03)
  );
#75 = CARTESIAN_POINT('',(9.184850993605E-13,0.,-900.));
#76 = CARTESIAN_POINT('',(1.5E+04,0.,-900.));
#77 = CARTESIAN_POINT('',(1.5E+04,0.,300.));
#78 = CARTESIAN_POINT('',(1.5E+04,0.,1.5E+03));
#79 = CARTESIAN_POINT('',(9.184850993605E-13,0.,1.5E+03));
#80 = ( GEOMETRIC_REPRESENTATION_CONTEXT(3) 
GLOBAL_UNCERTAINTY_ASSIGNED_CONTEXT((#84)) GLOBAL_UNIT_ASSIGNED_CONTEXT(
(#81,#82,#83)) REPRESENTATION_CONTEXT('Context #1',
  '3D Context with UNIT and UNCERTAINTY') );
#81 = ( LENGTH_UNIT() NAMED_UNIT(*) SI_UNIT(.MILLI.,.METRE.) );
#82 = ( NAMED_UNIT(*) PLANE_ANGLE_UNIT() SI_UNIT($,.RADIAN.) );
#83 = ( NAMED_UNIT(*) SI_UNIT($,.STERADIAN.) SOLID_ANGLE_UNIT() );
#84 = UNCERTAINTY_MEASURE_WITH_UNIT(LENGTH_MEASURE(1.E-07),#81,
  'distance_accuracy_value','confusion accuracy');
#85 = CONTEXT_DEPENDENT_SHAPE_REPRESENTATION(#86,#88);
#86 = ( REPRESENTATION_RELATIONSHIP('','',#36,#10) 
REPRESENTATION_RELATIONSHIP_WITH_TRANSFORMATION(#87) 
SHAPE_REPRESENTATION_RELATIONSHIP() );
#87 = ITEM_DEFINED_TRANSFORMATION('','',#11,#15);
#88 = PRODUCT_DEFINITION_SHAPE('Placement','Placement of an item',#89);
#89 = NEXT_ASSEMBLY_USAGE_OCCURRENCE('235','part0','',#5,#31,$);
#90 = PRODUCT_RELATED_PRODUCT_CATEGORY('part',$,(#33));
#91 = SHAPE_DEFINITION_REPRESENTATION(#92,#98);
#92 = PRODUCT_DEFINITION_SHAPE('','',#93);
#93 = PRODUCT_DEFINITION('design','',#94,#97);
#94 = PRODUCT_DEFINITION_FORMATION('','',#95);
#95 = PRODUCT('part1','part1','',(#96));
#96 = PRODUCT_CONTEXT('',#2,'mechanical');
#97 = PRODUCT_DEFINITION_CONTEXT('part definition',#2,'design');
#98 = ADVANCED_BREP_SHAPE_REPRESENTATION('',(#11,#99),#142);
#99 = MANIFOLD_SOLID_BREP('',#100);
#100 = CLOSED_SHELL('',(#101));
#101 = ADVANCED_FACE('',(#102),#106,.T.);
#102 = FACE_BOUND('',#103,.T.);
#103 = VERTEX_LOOP('',#104);
#104 = VERTEX_POINT('',#105);
#105 = CARTESIAN_POINT('',(1.1E+04,-3.749399456655E-29,-1.3E+03));
#106 = ( BOUNDED_SURFACE() B_SPLINE_SURFACE(2,2,(
    (#107,#108,#109,#110,#111)
    ,(#112,#113,#114,#115,#116)
    ,(#117,#118,#119,#120,#121)
    ,(#122,#123,#124,#125,#126)
    ,(#127,#128,#129,#130,#131)
    ,(#132,#133,#134,#135,#136)
    ,(#137,#138,#139,#140,#141
)),.UNSPECIFIED.,.T.,.F.,.F.) B_SPLINE_SURFACE_WITH_KNOTS((1,2,2,2,2,1),
  (3,2,3),(-2.094395102393,0.,2.094395102393,4.188790204786,
    6.28318530718,8.377580409573),(-1.570796326795,0.,1.570796326795),
.UNSPECIFIED.) GEOMETRIC_REPRESENTATION_ITEM() RATIONAL_B_SPLINE_SURFACE
((
    (1.,0.707106781187,1.,0.707106781187,1.)
    ,(0.5,0.353553390593,0.5,0.353553390593,0.5)
    ,(1.,0.707106781187,1.,0.707106781187,1.)
    ,(0.5,0.353553390593,0.5,0.353553390593,0.5)
    ,(1.,0.707106781187,1.,0.707106781187,1.)
    ,(0.5,0.353553390593,0.5,0.353553390593,0.5)
,(1.,0.707106781187,1.,0.707106781187,1.
))) REPRESENTATION_ITEM('') SURFACE() );
#107 = CARTESIAN_POINT('',(1.1E+04,0.,-1.3E+03));
#108 = CARTESIAN_POINT('',(1.4E+04,0.,-1.3E+03));
#109 = CARTESIAN_POINT('',(1.4E+04,0.,1.2E+03));
#110 = CARTESIAN_POINT('',(1.4E+04,0.,3.7E+03));
#111 = CARTESIAN_POINT('',(1.1E+04,0.,3.7E+03));
#112 = CARTESIAN_POINT('',(1.1E+04,2.651438096812E-13,-1.3E+03));
#113 = CARTESIAN_POINT('',(1.4E+04,4.330127018922E+03,-1.3E+03));
#114 = CARTESIAN_POINT('',(1.4E+04,4.330127018922E+03,1.2E+03));
#115 = CARTESIAN_POINT('',(1.4E+04,4.330127018922E+03,3.7E+03));
#116 = CARTESIAN_POINT('',(1.1E+04,2.651438096812E-13,3.7E+03));
#117 = CARTESIAN_POINT('',(1.1E+04,1.325719048406E-13,-1.3E+03));
#118 = CARTESIAN_POINT('',(9.5E+03,2.165063509461E+03,-1.3E+03));
#119 = CARTESIAN_POINT('',(9.5E+03,2.165063509461E+03,1.2E+03));
#120 = CARTESIAN_POINT('',(9.5E+03,2.165063509461E+03,3.7E+03));
#121 = CARTESIAN_POINT('',(1.1E+04,1.325719048406E-13,3.7E+03));
#122 = CARTESIAN_POINT('',(1.1E+04,3.749399456655E-29,-1.3E+03));
#123 = CARTESIAN_POINT('',(5.E+03,6.123233995737E-13,-1.3E+03));
#124 = CARTESIAN_POINT('',(5.E+03,6.123233995737E-13,1.2E+03));
#125 = CARTESIAN_POINT('',(5.E+03,6.123233995737E-13,3.7E+03));
#126 = CARTESIAN_POINT('',(1.1E+04,3.749399456655E-29,3.7E+03));
#127 = CARTESIAN_POINT('',(1.1E+04,-1.325719048406E-13,-1.3E+03));
#128 = CARTESIAN_POINT('',(9.5E+03,-2.165063509461E+03,-1.3E+03));
#129 = CARTESIAN_POINT('',(9.5E+03,-2.165063509461E+03,1.2E+03));
#130 = CARTESIAN_POINT('',(9.5E+03,-2.165063509461E+03,3.7E+03));
#131 = CARTESIAN_POINT('',(1.1E+04,-1.325719048406E-13,3.7E+03));
#132 = CARTESIAN_POINT('',(1.1E+04,-2.651438096812E-13,-1.3E+03));
#133 = CARTESIAN_POINT('',(1.4E+04,-4.330127018922E+03,-1.3E+03));
#134 = CARTESIAN_POINT('',(1.4E+04,-4.330127018922E+03,1.2E+03));
#135 = CARTESIAN_POINT('',(1.4E+04,-4.330127018922E+03,3.7E+03));
#136 = CARTESIAN_POINT('',(1.1E+04,-2.651438096812E-13,3.7E+03));
#137 = CARTESIAN_POINT('',(1.1E+04,0.,-1.3E+03));
#138 = CARTESIAN_POINT('',(1.4E+04,0.,-1.3E+03));
#139 = CARTESIAN_POINT('',(1.4E+04,0.,1.2E+03));
#140 = CARTESIAN_POINT('',(1.4E+04,0.,3.7E+03));
#141 = CARTESIAN_POINT('',(1.1E+04,0.,3.7E+03));
#142 = ( GEOMETRIC_REPRESENTATION_CONTEXT(3) 
GLOBAL_UNCERTAINTY_ASSIGNED_CONTEXT((#146)) GLOBAL_UNIT_ASSIGNED_CONTEXT
((#143,#144,#145)) REPRESENTATION_CONTEXT('Context #1',
  '3D Context with UNIT and UNCERTAINTY') );
#143 = ( LENGTH_UNIT() NAMED_UNIT(*) SI_UNIT(.MILLI.,.METRE.) );
#144 = ( NAMED_UNIT(*) PLANE_ANGLE_UNIT() SI_UNIT($,.RADIAN.) );
#145 = ( NAMED_UNIT(*) SI_UNIT($,.STERADIAN.) SOLID_ANGLE_UNIT() );
#146 = UNCERTAINTY_MEASURE_WITH_UNIT(LENGTH_MEASURE(1.E-07),#143,
  'distance_accuracy_value','confusion accuracy');
#147 = CONTEXT_DEPENDENT_SHAPE_REPRESENTATION(#148,#150);
#148 = ( REPRESENTATION_RELATIONSHIP('','',#98,#10) 
REPRESENTATION_RELATIONSHIP_WITH_TRANSFORMATION(#149) 
SHAPE_REPRESENTATION_RELATIONSHIP() );
#149 = ITEM_DEFINED_TRANSFORMATION('','',#11,#19);
#150 = PRODUCT_DEFINITION_SHAPE('Placement','Placement of an item',#151
  );
#151 = NEXT_ASSEMBLY_USAGE_OCCURRENCE('236','part1','',#5,#93,$);
#152 = PRODUCT_RELATED_PRODUCT_CATEGORY('part',$,(#95));
#153 = MECHANICAL_DESIGN_GEOMETRIC_PRESENTATION_REPRESENTATION('',(#154)
  ,#142);
#154 = STYLED_ITEM('color',(#155),#99);
#155 = PRESENTATION_STYLE_ASSIGNMENT((#156));
#156 = SURFACE_STYLE_USAGE(.BOTH.,#157);
#157 = SURFACE_SIDE_STYLE('',(#158));
#158 = SURFACE_STYLE_FILL_AREA(#159);
#159 = FILL_AREA_STYLE('',(#160));
#160 = FILL_AREA_STYLE_COLOUR('',#161);
#161 = COLOUR_RGB('',0.368627449173,0.478431380801,0.274509799781);
#162 = MECHANICAL_DESIGN_GEOMETRIC_PRESENTATION_REPRESENTATION('',(#163)
  ,#80);
#163 = STYLED_ITEM('color',(#164),#37);
#164 = PRESENTATION_STYLE_ASSIGNMENT((#165));
#165 = SURFACE_STYLE_USAGE(.BOTH.,#166);
#166 = SURFACE_SIDE_STYLE('',(#167));
#167 = SURFACE_STYLE_FILL_AREA(#168);
#168 = FILL_AREA_STYLE('',(#169));
#169 = FILL_AREA_STYLE_COLOUR('',#170);
#170 = COLOUR_RGB('',0.658823527652,0.619607835287,0.55686275255);
ENDSEC;
END-ISO-10303-21;
