ISO-10303-21;
HEADER;
FILE_DESCRIPTION(('Open CASCADE Model'),'2;1');
FILE_NAME('Open CASCADE Shape Model','2026-09-14T12:45:09',('Author'),(
    'Open CASCADE'),'Open CASCADE STEP processor 7.9','Open CASCADE 7.9'
  ,'Unknown');
FILE_SCHEMA(('AUTOMOTIVE_DESIGN { 1 0 10303 214 1 1 1 1 }'));
ENDSEC;
DATA;
#1 = APPLICATION_PROTOCOL_DEFINITION('international standard',
  'automotive_design',2000,#2);
#2 = APPLICATION_CONTEXT(
  'core data for automotive mechanical design processes');
#3 = SHAPE_DEFINITION_REPRESENTATION(#4,#10);
#4 = PRODUCT_DEFINITION_SHAPE('','',#5);
#5 = PRODUCT_DEFINITION('design','',#6,#9);
#6 = PRODUCT_DEFINITION_FORMATION('','',#7);
#7 = PRODUCT('bcce737b-b031-11f1-8db8-3c9c0f4bdafb',
  'bcce737b-b031-11f1-8db8-3c9c0f4bdafb','',(#8));
#8 = PRODUCT_CONTEXT('',#2,'mechanical');
#9 = PRODUCT_DEFINITION_CONTEXT('part definition',#2,'design');
#10 = SHAPE_REPRESENTATION('',(#11,#15,#19,#23,#27,#31,#35,#39,#43,#47),
  #51);
#11 = AXIS2_PLACEMENT_3D('',#12,#13,#14);
#12 = CARTESIAN_POINT('',(0.,0.,0.));
#13 = DIRECTION('',(0.,0.,1.));
#14 = DIRECTION('',(1.,0.,-0.));
#15 = AXIS2_PLACEMENT_3D('',#16,#17,#18);
#16 = CARTESIAN_POINT('',(0.,0.,0.));
#17 = DIRECTION('',(0.,0.,1.));
#18 = DIRECTION('',(1.,0.,-0.));
#19 = AXIS2_PLACEMENT_3D('',#20,#21,#22);
#20 = CARTESIAN_POINT('',(0.,0.,0.));
#21 = DIRECTION('',(0.,0.,1.));
#22 = DIRECTION('',(1.,0.,-0.));
#23 = AXIS2_PLACEMENT_3D('',#24,#25,#26);
#24 = CARTESIAN_POINT('',(0.,0.,0.));
#25 = DIRECTION('',(0.,0.,1.));
#26 = DIRECTION('',(1.,0.,-0.));
#27 = AXIS2_PLACEMENT_3D('',#28,#29,#30);
#28 = CARTESIAN_POINT('',(0.,0.,0.));
#29 = DIRECTION('',(0.,0.,1.));
#30 = DIRECTION('',(1.,0.,-0.));
#31 = AXIS2_PLACEMENT_3D('',#32,#33,#34);
#32 = CARTESIAN_POINT('',(0.,0.,0.));
#33 = DIRECTION('',(0.,0.,1.));
#34 = DIRECTION('',(1.,0.,-0.));
#35 = AXIS2_PLACEMENT_3D('',#36,#37,#38);
#36 = CARTESIAN_POINT('',(0.,0.,0.));
#37 = DIRECTION('',(0.,0.,1.));
#38 = DIRECTION('',(1.,0.,-0.));
#39 = AXIS2_PLACEMENT_3D('',#40,#41,#42);
#40 = CARTESIAN_POINT('',(0.,0.,0.));
#41 = DIRECTION('',(0.,0.,1.));
#42 = DIRECTION('',(1.,0.,-0.));
#43 = AXIS2_PLACEMENT_3D('',#44,#45,#46);
#44 = CARTESIAN_POINT('',(0.,0.,0.));
#45 = DIRECTION('',(0.,0.,1.));
#46 = DIRECTION('',(1.,0.,-0.));
#47 = AXIS2_PLACEMENT_3D('',#48,#49,#50);
#48 = CARTESIAN_POINT('',(0.,0.,0.));
#49 = DIRECTION('',(0.,0.,1.));
#50 = DIRECTION('',(1.,0.,-0.));
#51 = ( GEOMETRIC_REPRESENTATION_CONTEXT(3) 
GLOBAL_UNCERTAINTY_ASSIGNED_CONTEXT((#55)) GLOBAL_UNIT_ASSIGNED_CONTEXT(
(#52,#53,#54)) REPRESENTATION_CONTEXT('Context #1',
  '3D Context with UNIT and UNCERTAINTY') );
#52 = ( LENGTH_UNIT() NAMED_UNIT(*) SI_UNIT(.MILLI.,.METRE.) );
#53 = ( NAMED_UNIT(*) PLANE_ANGLE_UNIT() SI_UNIT($,.RADIAN.) );
#54 = ( NAMED_UNIT(*) SI_UNIT($,.STERADIAN.) SOLID_ANGLE_UNIT() );
#55 = UNCERTAINTY_MEASURE_WITH_UNIT(LENGTH_MEASURE(1.E-07),#52,
  'distance_accuracy_value','confusion accuracy');
#56 = PRODUCT_RELATED_PRODUCT_CATEGORY('part',$,(#7));
#57 = SHAPE_DEFINITION_REPRESENTATION(#58,#64);
#58 = PRODUCT_DEFINITION_SHAPE('','',#59);
#59 = PRODUCT_DEFINITION('design','',#60,#63);
#60 = PRODUCT_DEFINITION_FORMATION('','',#61);
#61 = PRODUCT('part0','part0','',(#62));
#62 = PRODUCT_CONTEXT('',#2,'mechanical');
#63 = PRODUCT_DEFINITION_CONTEXT('part definition',#2,'design');
#64 = ADVANCED_BREP_SHAPE_REPRESENTATION('',(#11,#65),#108);
#65 = MANIFOLD_SOLID_BREP('',#66);
#66 = CLOSED_SHELL('',(#67));
#67 = ADVANCED_FACE('',(#68),#72,.T.);
#68 = FACE_BOUND('',#69,.T.);
#69 = VERTEX_LOOP('',#70);
#70 = VERTEX_POINT('',#71);
#71 = CARTESIAN_POINT('',(9.184850993605E-13,-1.124819836996E-28,
    -1.4E+03));
#72 = ( BOUNDED_SURFACE() B_SPLINE_SURFACE(2,2,(
    (#73,#74,#75,#76,#77)
    ,(#78,#79,#80,#81,#82)
    ,(#83,#84,#85,#86,#87)
    ,(#88,#89,#90,#91,#92)
    ,(#93,#94,#95,#96,#97)
    ,(#98,#99,#100,#101,#102)
    ,(#103,#104,#105,#106,#107
)),.UNSPECIFIED.,.T.,.F.,.F.) B_SPLINE_SURFACE_WITH_KNOTS((1,2,2,2,2,1),
  (3,2,3),(-2.094395102393,0.,2.094395102393,4.188790204786,
    6.28318530718,8.377580409573),(-1.570796326795,0.,1.570796326795),
.UNSPECIFIED.) GEOMETRIC_REPRESENTATION_ITEM() RATIONAL_B_SPLINE_SURFACE
((
    (1.,0.707106781187,1.,0.707106781187,1.)
    ,(0.5,0.353553390593,0.5,0.353553390593,0.5)
    ,(1.,0.707106781187,1.,0.707106781187,1.)
    ,(0.5,0.353553390593,0.5,0.353553390593,0.5)
    ,(1.,0.707106781187,1.,0.707106781187,1.)
    ,(0.5,0.353553390593,0.5,0.353553390593,0.5)
,(1.,0.707106781187,1.,0.707106781187,1.
))) REPRESENTATION_ITEM('') SURFACE() );
#73 = CARTESIAN_POINT('',(9.184850993605E-13,0.,-1.4E+03));
#74 = CARTESIAN_POINT('',(1.5E+04,0.,-1.4E+03));
#75 = CARTESIAN_POINT('',(1.5E+04,0.,0.));
#76 = CARTESIAN_POINT('',(1.5E+04,0.,1.4E+03));
#77 = CARTESIAN_POINT('',(9.184850993605E-13,0.,1.4E+03));
#78 = CARTESIAN_POINT('',(9.184850993605E-13,7.954314290437E-13,-1.4E+03
    ));
#79 = CARTESIAN_POINT('',(1.5E+04,1.299038105677E+04,-1.4E+03));
#80 = CARTESIAN_POINT('',(1.5E+04,1.299038105677E+04,0.));
#81 = CARTESIAN_POINT('',(1.5E+04,1.299038105677E+04,1.4E+03));
#82 = CARTESIAN_POINT('',(9.184850993605E-13,7.954314290437E-13,1.4E+03)
  );
#83 = CARTESIAN_POINT('',(-4.592425496803E-13,3.977157145218E-13,
    -1.4E+03));
#84 = CARTESIAN_POINT('',(-7.5E+03,6.495190528383E+03,-1.4E+03));
#85 = CARTESIAN_POINT('',(-7.5E+03,6.495190528383E+03,0.));
#86 = CARTESIAN_POINT('',(-7.5E+03,6.495190528383E+03,1.4E+03));
#87 = CARTESIAN_POINT('',(-4.592425496803E-13,3.977157145218E-13,1.4E+03
    ));
#88 = CARTESIAN_POINT('',(-1.836970198721E-12,1.124819836996E-28,
    -1.4E+03));
#89 = CARTESIAN_POINT('',(-3.E+04,1.836970198721E-12,-1.4E+03));
#90 = CARTESIAN_POINT('',(-3.E+04,1.836970198721E-12,0.));
#91 = CARTESIAN_POINT('',(-3.E+04,1.836970198721E-12,1.4E+03));
#92 = CARTESIAN_POINT('',(-1.836970198721E-12,1.124819836996E-28,1.4E+03
    ));
#93 = CARTESIAN_POINT('',(-4.592425496803E-13,-3.977157145218E-13,
    -1.4E+03));
#94 = CARTESIAN_POINT('',(-7.5E+03,-6.495190528383E+03,-1.4E+03));
#95 = CARTESIAN_POINT('',(-7.5E+03,-6.495190528383E+03,0.));
#96 = CARTESIAN_POINT('',(-7.5E+03,-6.495190528383E+03,1.4E+03));
#97 = CARTESIAN_POINT('',(-4.592425496803E-13,-3.977157145218E-13,
    1.4E+03));
#98 = CARTESIAN_POINT('',(9.184850993605E-13,-7.954314290437E-13,
    -1.4E+03));
#99 = CARTESIAN_POINT('',(1.5E+04,-1.299038105677E+04,-1.4E+03));
#100 = CARTESIAN_POINT('',(1.5E+04,-1.299038105677E+04,0.));
#101 = CARTESIAN_POINT('',(1.5E+04,-1.299038105677E+04,1.4E+03));
#102 = CARTESIAN_POINT('',(9.184850993605E-13,-7.954314290437E-13,
    1.4E+03));
#103 = CARTESIAN_POINT('',(9.184850993605E-13,0.,-1.4E+03));
#104 = CARTESIAN_POINT('',(1.5E+04,0.,-1.4E+03));
#105 = CARTESIAN_POINT('',(1.5E+04,0.,0.));
#106 = CARTESIAN_POINT('',(1.5E+04,0.,1.4E+03));
#107 = CARTESIAN_POINT('',(9.184850993605E-13,0.,1.4E+03));
#108 = ( GEOMETRIC_REPRESENTATION_CONTEXT(3) 
GLOBAL_UNCERTAINTY_ASSIGNED_CONTEXT((#112)) GLOBAL_UNIT_ASSIGNED_CONTEXT
((#109,#110,#111)) REPRESENTATION_CONTEXT('Context #1',
  '3D Context with UNIT and UNCERTAINTY') );
#109 = ( LENGTH_UNIT() NAMED_UNIT(*) SI_UNIT(.MILLI.,.METRE.) );
#110 = ( NAMED_UNIT(*) PLANE_ANGLE_UNIT() SI_UNIT($,.RADIAN.) );
#111 = ( NAMED_UNIT(*) SI_UNIT($,.STERADIAN.) SOLID_ANGLE_UNIT() );
#112 = UNCERTAINTY_MEASURE_WITH_UNIT(LENGTH_MEASURE(1.E-07),#109,
  'distance_accuracy_value','confusion accuracy');
#113 = CONTEXT_DEPENDENT_SHAPE_REPRESENTATION(#114,#116);
#114 = ( REPRESENTATION_RELATIONSHIP('','',#64,#10) 
REPRESENTATION_RELATIONSHIP_WITH_TRANSFORMATION(#115) 
SHAPE_REPRESENTATION_RELATIONSHIP() );
#115 = ITEM_DEFINED_TRANSFORMATION('','',#11,#15);
#116 = PRODUCT_DEFINITION_SHAPE('Placement','Placement of an item',#117
  );
#117 = NEXT_ASSEMBLY_USAGE_OCCURRENCE('206','part0','',#5,#59,$);
#118 = PRODUCT_RELATED_PRODUCT_CATEGORY('part',$,(#61));
#119 = SHAPE_DEFINITION_REPRESENTATION(#120,#126);
#120 = PRODUCT_DEFINITION_SHAPE('','',#121);
#121 = PRODUCT_DEFINITION('design','',#122,#125);
#122 = PRODUCT_DEFINITION_FORMATION('','',#123);
#123 = PRODUCT('part1','part1','',(#124));
#124 = PRODUCT_CONTEXT('',#2,'mechanical');
#125 = PRODUCT_DEFINITION_CONTEXT('part definition',#2,'design');
#126 = ADVANCED_BREP_SHAPE_REPRESENTATION('',(#11,#127),#170);
#127 = MANIFOLD_SOLID_BREP('',#128);
#128 = CLOSED_SHELL('',(#129));
#129 = ADVANCED_FACE('',(#130),#134,.T.);
#130 = FACE_BOUND('',#131,.T.);
#131 = VERTEX_LOOP('',#132);
#132 = VERTEX_POINT('',#133);
#133 = CARTESIAN_POINT('',(9.429780353435E-13,-1.184810228303E-28,-600.)
  );
#134 = ( BOUNDED_SURFACE() B_SPLINE_SURFACE(2,2,(
    (#135,#136,#137,#138,#139)
    ,(#140,#141,#142,#143,#144)
    ,(#145,#146,#147,#148,#149)
    ,(#150,#151,#152,#153,#154)
    ,(#155,#156,#157,#158,#159)
    ,(#160,#161,#162,#163,#164)
    ,(#165,#166,#167,#168,#169
)),.UNSPECIFIED.,.T.,.F.,.F.) B_SPLINE_SURFACE_WITH_KNOTS((1,2,2,2,2,1),
  (3,2,3),(-2.094395102393,0.,2.094395102393,4.188790204786,
    6.28318530718,8.377580409573),(-1.570796326795,0.,1.570796326795),
.UNSPECIFIED.) GEOMETRIC_REPRESENTATION_ITEM() RATIONAL_B_SPLINE_SURFACE
((
    (1.,0.707106781187,1.,0.707106781187,1.)
    ,(0.5,0.353553390593,0.5,0.353553390593,0.5)
    ,(1.,0.707106781187,1.,0.707106781187,1.)
    ,(0.5,0.353553390593,0.5,0.353553390593,0.5)
    ,(1.,0.707106781187,1.,0.707106781187,1.)
    ,(0.5,0.353553390593,0.5,0.353553390593,0.5)
,(1.,0.707106781187,1.,0.707106781187,1.
))) REPRESENTATION_ITEM('') SURFACE() );
#135 = CARTESIAN_POINT('',(9.429780353435E-13,0.,-600.));
#136 = CARTESIAN_POINT('',(1.54E+04,0.,-600.));
#137 = CARTESIAN_POINT('',(1.54E+04,0.,-200.));
#138 = CARTESIAN_POINT('',(1.54E+04,0.,200.));
#139 = CARTESIAN_POINT('',(9.429780353435E-13,0.,200.));
#140 = CARTESIAN_POINT('',(9.429780353435E-13,8.378544385927E-13,-600.)
  );
#141 = CARTESIAN_POINT('',(1.54E+04,1.368320137979E+04,-600.));
#142 = CARTESIAN_POINT('',(1.54E+04,1.368320137979E+04,-200.));
#143 = CARTESIAN_POINT('',(1.54E+04,1.368320137979E+04,200.));
#144 = CARTESIAN_POINT('',(9.429780353435E-13,8.378544385927E-13,200.));
#145 = CARTESIAN_POINT('',(-4.714890176717E-13,4.189272192963E-13,-600.)
  );
#146 = CARTESIAN_POINT('',(-7.7E+03,6.841600689897E+03,-600.));
#147 = CARTESIAN_POINT('',(-7.7E+03,6.841600689897E+03,-200.));
#148 = CARTESIAN_POINT('',(-7.7E+03,6.841600689897E+03,200.));
#149 = CARTESIAN_POINT('',(-4.714890176717E-13,4.189272192963E-13,200.)
  );
#150 = CARTESIAN_POINT('',(-1.885956070687E-12,1.184810228303E-28,-600.)
  );
#151 = CARTESIAN_POINT('',(-3.08E+04,1.934941942653E-12,-600.));
#152 = CARTESIAN_POINT('',(-3.08E+04,1.934941942653E-12,-200.));
#153 = CARTESIAN_POINT('',(-3.08E+04,1.934941942653E-12,200.));
#154 = CARTESIAN_POINT('',(-1.885956070687E-12,1.184810228303E-28,200.)
  );
#155 = CARTESIAN_POINT('',(-4.714890176717E-13,-4.189272192963E-13,-600.
    ));
#156 = CARTESIAN_POINT('',(-7.7E+03,-6.841600689897E+03,-600.));
#157 = CARTESIAN_POINT('',(-7.7E+03,-6.841600689897E+03,-200.));
#158 = CARTESIAN_POINT('',(-7.7E+03,-6.841600689897E+03,200.));
#159 = CARTESIAN_POINT('',(-4.714890176717E-13,-4.189272192963E-13,200.)
  );
#160 = CARTESIAN_POINT('',(9.429780353435E-13,-8.378544385927E-13,-600.)
  );
#161 = CARTESIAN_POINT('',(1.54E+04,-1.368320137979E+04,-600.));
#162 = CARTESIAN_POINT('',(1.54E+04,-1.368320137979E+04,-200.));
#163 = CARTESIAN_POINT('',(1.54E+04,-1.368320137979E+04,200.));
#164 = CARTESIAN_POINT('',(9.429780353435E-13,-8.378544385927E-13,200.)
  );
#165 = CARTESIAN_POINT('',(9.429780353435E-13,0.,-600.));
#166 = CARTESIAN_POINT('',(1.54E+04,0.,-600.));
#167 = CARTESIAN_POINT('',(1.54E+04,0.,-200.));
#168 = CARTESIAN_POINT('',(1.54E+04,0.,200.));
#169 = CARTESIAN_POINT('',(9.429780353435E-13,0.,200.));
#170 = ( GEOMETRIC_REPRESENTATION_CONTEXT(3) 
GLOBAL_UNCERTAINTY_ASSIGNED_CONTEXT((#174)) GLOBAL_UNIT_ASSIGNED_CONTEXT
((#171,#172,#173)) REPRESENTATION_CONTEXT('Context #1',
  '3D Context with UNIT and UNCERTAINTY') );
#171 = ( LENGTH_UNIT() NAMED_UNIT(*) SI_UNIT(.MILLI.,.METRE.) );
#172 = ( NAMED_UNIT(*) PLANE_ANGLE_UNIT() SI_UNIT($,.RADIAN.) );
#173 = ( NAMED_UNIT(*) SI_UNIT($,.STERADIAN.) SOLID_ANGLE_UNIT() );
#174 = UNCERTAINTY_MEASURE_WITH_UNIT(LENGTH_MEASURE(1.E-07),#171,
  'distance_accuracy_value','confusion accuracy');
#175 = CONTEXT_DEPENDENT_SHAPE_REPRESENTATION(#176,#178);
#176 = ( REPRESENTATION_RELATIONSHIP('','',#126,#10) 
REPRESENTATION_RELATIONSHIP_WITH_TRANSFORMATION(#177) 
SHAPE_REPRESENTATION_RELATIONSHIP() );
#177 = ITEM_DEFINED_TRANSFORMATION('','',#11,#19);
#178 = PRODUCT_DEFINITION_SHAPE('Placement','Placement of an item',#179
  );
#179 = NEXT_ASSEMBLY_USAGE_OCCURRENCE('207','part1','',#5,#121,$);
#180 = PRODUCT_RELATED_PRODUCT_CATEGORY('part',$,(#123));
#181 = SHAPE_DEFINITION_REPRESENTATION(#182,#188);
#182 = PRODUCT_DEFINITION_SHAPE('','',#183);
#183 = PRODUCT_DEFINITION('design','',#184,#187);
#184 = PRODUCT_DEFINITION_FORMATION('','',#185);
#185 = PRODUCT('part2','part2','',(#186));
#186 = PRODUCT_CONTEXT('',#2,'mechanical');
#187 = PRODUCT_DEFINITION_CONTEXT('part definition',#2,'design');
#188 = ADVANCED_BREP_SHAPE_REPRESENTATION('',(#11,#189),#232);
#189 = MANIFOLD_SOLID_BREP('',#190);
#190 = CLOSED_SHELL('',(#191));
#191 = ADVANCED_FACE('',(#192),#196,.T.);
#192 = FACE_BOUND('',#193,.T.);
#193 = VERTEX_LOOP('',#194);
#194 = VERTEX_POINT('',#195);
#195 = CARTESIAN_POINT('',(-9.162548534621E+03,-2.948631229195E+03,
    -269.5254137768));
#196 = ( BOUNDED_SURFACE() B_SPLINE_SURFACE(2,2,(
    (#197,#198,#199,#200,#201)
    ,(#202,#203,#204,#205,#206)
    ,(#207,#208,#209,#210,#211)
    ,(#212,#213,#214,#215,#216)
    ,(#217,#218,#219,#220,#221)
    ,(#222,#223,#224,#225,#226)
    ,(#227,#228,#229,#230,#231
)),.UNSPECIFIED.,.T.,.F.,.F.) B_SPLINE_SURFACE_WITH_KNOTS((1,2,2,2,2,1),
  (3,2,3),(-2.094395102393,0.,2.094395102393,4.188790204786,
    6.28318530718,8.377580409573),(-1.570796326795,0.,1.570796326795),
.UNSPECIFIED.) GEOMETRIC_REPRESENTATION_ITEM() RATIONAL_B_SPLINE_SURFACE
((
    (1.,0.707106781187,1.,0.707106781187,1.)
    ,(0.5,0.353553390593,0.5,0.353553390593,0.5)
    ,(1.,0.707106781187,1.,0.707106781187,1.)
    ,(0.5,0.353553390593,0.5,0.353553390593,0.5)
    ,(1.,0.707106781187,1.,0.707106781187,1.)
    ,(0.5,0.353553390593,0.5,0.353553390593,0.5)
,(1.,0.707106781187,1.,0.707106781187,1.
))) REPRESENTATION_ITEM('') SURFACE() );
#197 = CARTESIAN_POINT('',(-9.162548534621E+03,-2.948631229195E+03,
    -269.5254137768));
#198 = CARTESIAN_POINT('',(-6.910355829151E+03,-2.948631229195E+03,
    -269.5254137768));
#199 = CARTESIAN_POINT('',(-6.910355829151E+03,-2.948631229195E+03,
    1.2E+03));
#200 = CARTESIAN_POINT('',(-6.910355829151E+03,-2.948631229195E+03,
    2.669525413777E+03));
#201 = CARTESIAN_POINT('',(-9.162548534621E+03,-2.948631229195E+03,
    2.669525413777E+03));
#202 = CARTESIAN_POINT('',(-9.162548534621E+03,-2.948631229195E+03,
    -269.5254137768));
#203 = CARTESIAN_POINT('',(-6.910355829151E+03,-646.5837416526,
    -269.5254137768));
#204 = CARTESIAN_POINT('',(-6.910355829151E+03,-646.5837416526,1.2E+03)
  );
#205 = CARTESIAN_POINT('',(-6.910355829151E+03,-646.5837416526,
    2.669525413777E+03));
#206 = CARTESIAN_POINT('',(-9.162548534621E+03,-2.948631229195E+03,
    2.669525413777E+03));
#207 = CARTESIAN_POINT('',(-9.162548534621E+03,-2.948631229195E+03,
    -269.5254137768));
#208 = CARTESIAN_POINT('',(-1.028864488736E+04,-1.797607485424E+03,
    -269.5254137768));
#209 = CARTESIAN_POINT('',(-1.028864488736E+04,-1.797607485424E+03,
    1.2E+03));
#210 = CARTESIAN_POINT('',(-1.028864488736E+04,-1.797607485424E+03,
    2.669525413777E+03));
#211 = CARTESIAN_POINT('',(-9.162548534621E+03,-2.948631229195E+03,
    2.669525413777E+03));
#212 = CARTESIAN_POINT('',(-9.162548534621E+03,-2.948631229195E+03,
    -269.5254137768));
#213 = CARTESIAN_POINT('',(-1.366693394556E+04,-2.948631229195E+03,
    -269.5254137768));
#214 = CARTESIAN_POINT('',(-1.366693394556E+04,-2.948631229195E+03,
    1.2E+03));
#215 = CARTESIAN_POINT('',(-1.366693394556E+04,-2.948631229195E+03,
    2.669525413777E+03));
#216 = CARTESIAN_POINT('',(-9.162548534621E+03,-2.948631229195E+03,
    2.669525413777E+03));
#217 = CARTESIAN_POINT('',(-9.162548534621E+03,-2.948631229195E+03,
    -269.5254137768));
#218 = CARTESIAN_POINT('',(-1.028864488736E+04,-4.099654972967E+03,
    -269.5254137768));
#219 = CARTESIAN_POINT('',(-1.028864488736E+04,-4.099654972967E+03,
    1.2E+03));
#220 = CARTESIAN_POINT('',(-1.028864488736E+04,-4.099654972967E+03,
    2.669525413777E+03));
#221 = CARTESIAN_POINT('',(-9.162548534621E+03,-2.948631229195E+03,
    2.669525413777E+03));
#222 = CARTESIAN_POINT('',(-9.162548534621E+03,-2.948631229195E+03,
    -269.5254137768));
#223 = CARTESIAN_POINT('',(-6.910355829151E+03,-5.250678716738E+03,
    -269.5254137768));
#224 = CARTESIAN_POINT('',(-6.910355829151E+03,-5.250678716738E+03,
    1.2E+03));
#225 = CARTESIAN_POINT('',(-6.910355829151E+03,-5.250678716738E+03,
    2.669525413777E+03));
#226 = CARTESIAN_POINT('',(-9.162548534621E+03,-2.948631229195E+03,
    2.669525413777E+03));
#227 = CARTESIAN_POINT('',(-9.162548534621E+03,-2.948631229195E+03,
    -269.5254137768));
#228 = CARTESIAN_POINT('',(-6.910355829151E+03,-2.948631229195E+03,
    -269.5254137768));
#229 = CARTESIAN_POINT('',(-6.910355829151E+03,-2.948631229195E+03,
    1.2E+03));
#230 = CARTESIAN_POINT('',(-6.910355829151E+03,-2.948631229195E+03,
    2.669525413777E+03));
#231 = CARTESIAN_POINT('',(-9.162548534621E+03,-2.948631229195E+03,
    2.669525413777E+03));
#232 = ( GEOMETRIC_REPRESENTATION_CONTEXT(3) 
GLOBAL_UNCERTAINTY_ASSIGNED_CONTEXT((#236)) GLOBAL_UNIT_ASSIGNED_CONTEXT
((#233,#234,#235)) REPRESENTATION_CONTEXT('Context #1',
  '3D Context with UNIT and UNCERTAINTY') );
#233 = ( LENGTH_UNIT() NAMED_UNIT(*) SI_UNIT(.MILLI.,.METRE.) );
#234 = ( NAMED_UNIT(*) PLANE_ANGLE_UNIT() SI_UNIT($,.RADIAN.) );
#235 = ( NAMED_UNIT(*) SI_UNIT($,.STERADIAN.) SOLID_ANGLE_UNIT() );
#236 = UNCERTAINTY_MEASURE_WITH_UNIT(LENGTH_MEASURE(1.E-07),#233,
  'distance_accuracy_value','confusion accuracy');
#237 = CONTEXT_DEPENDENT_SHAPE_REPRESENTATION(#238,#240);
#238 = ( REPRESENTATION_RELATIONSHIP('','',#188,#10) 
REPRESENTATION_RELATIONSHIP_WITH_TRANSFORMATION(#239) 
SHAPE_REPRESENTATION_RELATIONSHIP() );
#239 = ITEM_DEFINED_TRANSFORMATION('','',#11,#23);
#240 = PRODUCT_DEFINITION_SHAPE('Placement','Placement of an item',#241
  );
#241 = NEXT_ASSEMBLY_USAGE_OCCURRENCE('208','part2','',#5,#183,$);
#242 = PRODUCT_RELATED_PRODUCT_CATEGORY('part',$,(#185));
#243 = SHAPE_DEFINITION_REPRESENTATION(#244,#250);
#244 = PRODUCT_DEFINITION_SHAPE('','',#245);
#245 = PRODUCT_DEFINITION('design','',#246,#249);
#246 = PRODUCT_DEFINITION_FORMATION('','',#247);
#247 = PRODUCT('part3','part3','',(#248));
#248 = PRODUCT_CONTEXT('',#2,'mechanical');
#249 = PRODUCT_DEFINITION_CONTEXT('part definition',#2,'design');
#250 = ADVANCED_BREP_SHAPE_REPRESENTATION('',(#11,#251),#294);
#251 = MANIFOLD_SOLID_BREP('',#252);
#252 = CLOSED_SHELL('',(#253));
#253 = ADVANCED_FACE('',(#254),#258,.T.);
#254 = FACE_BOUND('',#255,.T.);
#255 = VERTEX_LOOP('',#256);
#256 = VERTEX_POINT('',#257);
#257 = CARTESIAN_POINT('',(7.575216481154E+03,2.181298866578E+03,
    153.79625474856));
#258 = ( BOUNDED_SURFACE() B_SPLINE_SURFACE(2,2,(
    (#259,#260,#261,#262,#263)
    ,(#264,#265,#266,#267,#268)
    ,(#269,#270,#271,#272,#273)
    ,(#274,#275,#276,#277,#278)
    ,(#279,#280,#281,#282,#283)
    ,(#284,#285,#286,#287,#288)
    ,(#289,#290,#291,#292,#293
)),.UNSPECIFIED.,.T.,.F.,.F.) B_SPLINE_SURFACE_WITH_KNOTS((1,2,2,2,2,1),
  (3,2,3),(-2.094395102393,0.,2.094395102393,4.188790204786,
    6.28318530718,8.377580409573),(-1.570796326795,0.,1.570796326795),
.UNSPECIFIED.) GEOMETRIC_REPRESENTATION_ITEM() RATIONAL_B_SPLINE_SURFACE
((
    (1.,0.707106781187,1.,0.707106781187,1.)
    ,(0.5,0.353553390593,0.5,0.353553390593,0.5)
    ,(1.,0.707106781187,1.,0.707106781187,1.)
    ,(0.5,0.353553390593,0.5,0.353553390593,0.5)
    ,(1.,0.707106781187,1.,0.707106781187,1.)
    ,(0.5,0.353553390593,0.5,0.353553390593,0.5)
,(1.,0.707106781187,1.,0.707106781187,1.
))) REPRESENTATION_ITEM('') SURFACE() );
#259 = CARTESIAN_POINT('',(7.575216481154E+03,2.181298866578E+03,
    153.79625474856));
#260 = CARTESIAN_POINT('',(9.587206694577E+03,2.181298866578E+03,
    153.79625474856));
#261 = CARTESIAN_POINT('',(9.587206694577E+03,2.181298866578E+03,1.2E+03
    ));
#262 = CARTESIAN_POINT('',(9.587206694577E+03,2.181298866578E+03,
    2.246203745251E+03));
#263 = CARTESIAN_POINT('',(7.575216481154E+03,2.181298866578E+03,
    2.246203745251E+03));
#264 = CARTESIAN_POINT('',(7.575216481154E+03,2.181298866578E+03,
    153.79625474856));
#265 = CARTESIAN_POINT('',(9.587206694577E+03,5.405693406614E+03,
    153.79625474856));
#266 = CARTESIAN_POINT('',(9.587206694577E+03,5.405693406614E+03,1.2E+03
    ));
#267 = CARTESIAN_POINT('',(9.587206694577E+03,5.405693406614E+03,
    2.246203745251E+03));
#268 = CARTESIAN_POINT('',(7.575216481154E+03,2.181298866578E+03,
    2.246203745251E+03));
#269 = CARTESIAN_POINT('',(7.575216481154E+03,2.181298866578E+03,
    153.79625474856));
#270 = CARTESIAN_POINT('',(6.569221374442E+03,3.793496136596E+03,
    153.79625474856));
#271 = CARTESIAN_POINT('',(6.569221374442E+03,3.793496136596E+03,1.2E+03
    ));
#272 = CARTESIAN_POINT('',(6.569221374442E+03,3.793496136596E+03,
    2.246203745251E+03));
#273 = CARTESIAN_POINT('',(7.575216481154E+03,2.181298866578E+03,
    2.246203745251E+03));
#274 = CARTESIAN_POINT('',(7.575216481154E+03,2.181298866578E+03,
    153.79625474856));
#275 = CARTESIAN_POINT('',(3.551236054308E+03,2.181298866578E+03,
    153.79625474856));
#276 = CARTESIAN_POINT('',(3.551236054308E+03,2.181298866578E+03,1.2E+03
    ));
#277 = CARTESIAN_POINT('',(3.551236054308E+03,2.181298866578E+03,
    2.246203745251E+03));
#278 = CARTESIAN_POINT('',(7.575216481154E+03,2.181298866578E+03,
    2.246203745251E+03));
#279 = CARTESIAN_POINT('',(7.575216481154E+03,2.181298866578E+03,
    153.79625474856));
#280 = CARTESIAN_POINT('',(6.569221374442E+03,569.10159655993,
    153.79625474856));
#281 = CARTESIAN_POINT('',(6.569221374442E+03,569.10159655993,1.2E+03));
#282 = CARTESIAN_POINT('',(6.569221374442E+03,569.10159655993,
    2.246203745251E+03));
#283 = CARTESIAN_POINT('',(7.575216481154E+03,2.181298866578E+03,
    2.246203745251E+03));
#284 = CARTESIAN_POINT('',(7.575216481154E+03,2.181298866578E+03,
    153.79625474856));
#285 = CARTESIAN_POINT('',(9.587206694577E+03,-1.043095673458E+03,
    153.79625474856));
#286 = CARTESIAN_POINT('',(9.587206694577E+03,-1.043095673458E+03,
    1.2E+03));
#287 = CARTESIAN_POINT('',(9.587206694577E+03,-1.043095673458E+03,
    2.246203745251E+03));
#288 = CARTESIAN_POINT('',(7.575216481154E+03,2.181298866578E+03,
    2.246203745251E+03));
#289 = CARTESIAN_POINT('',(7.575216481154E+03,2.181298866578E+03,
    153.79625474856));
#290 = CARTESIAN_POINT('',(9.587206694577E+03,2.181298866578E+03,
    153.79625474856));
#291 = CARTESIAN_POINT('',(9.587206694577E+03,2.181298866578E+03,1.2E+03
    ));
#292 = CARTESIAN_POINT('',(9.587206694577E+03,2.181298866578E+03,
    2.246203745251E+03));
#293 = CARTESIAN_POINT('',(7.575216481154E+03,2.181298866578E+03,
    2.246203745251E+03));
#294 = ( GEOMETRIC_REPRESENTATION_CONTEXT(3) 
GLOBAL_UNCERTAINTY_ASSIGNED_CONTEXT((#298)) GLOBAL_UNIT_ASSIGNED_CONTEXT
((#295,#296,#297)) REPRESENTATION_CONTEXT('Context #1',
  '3D Context with UNIT and UNCERTAINTY') );
#295 = ( LENGTH_UNIT() NAMED_UNIT(*) SI_UNIT(.MILLI.,.METRE.) );
#296 = ( NAMED_UNIT(*) PLANE_ANGLE_UNIT() SI_UNIT($,.RADIAN.) );
#297 = ( NAMED_UNIT(*) SI_UNIT($,.STERADIAN.) SOLID_ANGLE_UNIT() );
#298 = UNCERTAINTY_MEASURE_WITH_UNIT(LENGTH_MEASURE(1.E-07),#295,
  'distance_accuracy_value','confusion accuracy');
#299 = CONTEXT_DEPENDENT_SHAPE_REPRESENTATION(#300,#302);
#300 = ( REPRESENTATION_RELATIONSHIP('','',#250,#10) 
REPRESENTATION_RELATIONSHIP_WITH_TRANSFORMATION(#301) 
SHAPE_REPRESENTATION_RELATIONSHIP() );
#301 = ITEM_DEFINED_TRANSFORMATION('','',#11,#27);
#302 = PRODUCT_DEFINITION_SHAPE('Placement','Placement of an item',#303
  );
#303 = NEXT_ASSEMBLY_USAGE_OCCURRENCE('209','part3','',#5,#245,$);
#304 = PRODUCT_RELATED_PRODUCT_CATEGORY('part',$,(#247));
#305 = SHAPE_DEFINITION_REPRESENTATION(#306,#312);
#306 = PRODUCT_DEFINITION_SHAPE('','',#307);
#307 = PRODUCT_DEFINITION('design','',#308,#311);
#308 = PRODUCT_DEFINITION_FORMATION('','',#309);
#309 = PRODUCT('part4','part4','',(#310));
#310 = PRODUCT_CONTEXT('',#2,'mechanical');
#311 = PRODUCT_DEFINITION_CONTEXT('part definition',#2,'design');
#312 = ADVANCED_BREP_SHAPE_REPRESENTATION('',(#11,#313),#356);
#313 = MANIFOLD_SOLID_BREP('',#314);
#314 = CLOSED_SHELL('',(#315));
#315 = ADVANCED_FACE('',(#316),#320,.T.);
#316 = FACE_BOUND('',#317,.T.);
#317 = VERTEX_LOOP('',#318);
#318 = VERTEX_POINT('',#319);
#319 = CARTESIAN_POINT('',(2.272500757032E+03,-1.164863942553E+03,
    170.01659548363));
#320 = ( BOUNDED_SURFACE() B_SPLINE_SURFACE(2,2,(
    (#321,#322,#323,#324,#325)
    ,(#326,#327,#328,#329,#330)
    ,(#331,#332,#333,#334,#335)
    ,(#336,#337,#338,#339,#340)
    ,(#341,#342,#343,#344,#345)
    ,(#346,#347,#348,#349,#350)
    ,(#351,#352,#353,#354,#355
)),.UNSPECIFIED.,.T.,.F.,.F.) B_SPLINE_SURFACE_WITH_KNOTS((1,2,2,2,2,1),
  (3,2,3),(-2.094395102393,0.,2.094395102393,4.188790204786,
    6.28318530718,8.377580409573),(-1.570796326795,0.,1.570796326795),
.UNSPECIFIED.) GEOMETRIC_REPRESENTATION_ITEM() RATIONAL_B_SPLINE_SURFACE
((
    (1.,0.707106781187,1.,0.707106781187,1.)
    ,(0.5,0.353553390593,0.5,0.353553390593,0.5)
    ,(1.,0.707106781187,1.,0.707106781187,1.)
    ,(0.5,0.353553390593,0.5,0.353553390593,0.5)
    ,(1.,0.707106781187,1.,0.707106781187,1.)
    ,(0.5,0.353553390593,0.5,0.353553390593,0.5)
,(1.,0.707106781187,1.,0.707106781187,1.
))) REPRESENTATION_ITEM('') SURFACE() );
#321 = CARTESIAN_POINT('',(2.272500757032E+03,-1.164863942553E+03,
    170.01659548363));
#322 = CARTESIAN_POINT('',(4.311977460434E+03,-1.164863942553E+03,
    170.01659548363));
#323 = CARTESIAN_POINT('',(4.311977460434E+03,-1.164863942553E+03,
    1.2E+03));
#324 = CARTESIAN_POINT('',(4.311977460434E+03,-1.164863942553E+03,
    2.229983404516E+03));
#325 = CARTESIAN_POINT('',(2.272500757032E+03,-1.164863942553E+03,
    2.229983404516E+03));
#326 = CARTESIAN_POINT('',(2.272500757032E+03,-1.164863942553E+03,
    170.01659548363));
#327 = CARTESIAN_POINT('',(4.311977460434E+03,2.24928115529E+03,
    170.01659548363));
#328 = CARTESIAN_POINT('',(4.311977460434E+03,2.24928115529E+03,1.2E+03)
  );
#329 = CARTESIAN_POINT('',(4.311977460434E+03,2.24928115529E+03,
    2.229983404516E+03));
#330 = CARTESIAN_POINT('',(2.272500757032E+03,-1.164863942553E+03,
    2.229983404516E+03));
#331 = CARTESIAN_POINT('',(2.272500757032E+03,-1.164863942553E+03,
    170.01659548363));
#332 = CARTESIAN_POINT('',(1.252762405331E+03,542.20860636845,
    170.01659548363));
#333 = CARTESIAN_POINT('',(1.252762405331E+03,542.20860636845,1.2E+03));
#334 = CARTESIAN_POINT('',(1.252762405331E+03,542.20860636845,
    2.229983404516E+03));
#335 = CARTESIAN_POINT('',(2.272500757032E+03,-1.164863942553E+03,
    2.229983404516E+03));
#336 = CARTESIAN_POINT('',(2.272500757032E+03,-1.164863942553E+03,
    170.01659548363));
#337 = CARTESIAN_POINT('',(-1.806452649771E+03,-1.164863942553E+03,
    170.01659548363));
#338 = CARTESIAN_POINT('',(-1.806452649771E+03,-1.164863942553E+03,
    1.2E+03));
#339 = CARTESIAN_POINT('',(-1.806452649771E+03,-1.164863942553E+03,
    2.229983404516E+03));
#340 = CARTESIAN_POINT('',(2.272500757032E+03,-1.164863942553E+03,
    2.229983404516E+03));
#341 = CARTESIAN_POINT('',(2.272500757032E+03,-1.164863942553E+03,
    170.01659548363));
#342 = CARTESIAN_POINT('',(1.252762405331E+03,-2.871936491475E+03,
    170.01659548363));
#343 = CARTESIAN_POINT('',(1.252762405331E+03,-2.871936491475E+03,
    1.2E+03));
#344 = CARTESIAN_POINT('',(1.252762405331E+03,-2.871936491475E+03,
    2.229983404516E+03));
#345 = CARTESIAN_POINT('',(2.272500757032E+03,-1.164863942553E+03,
    2.229983404516E+03));
#346 = CARTESIAN_POINT('',(2.272500757032E+03,-1.164863942553E+03,
    170.01659548363));
#347 = CARTESIAN_POINT('',(4.311977460434E+03,-4.579009040396E+03,
    170.01659548363));
#348 = CARTESIAN_POINT('',(4.311977460434E+03,-4.579009040396E+03,
    1.2E+03));
#349 = CARTESIAN_POINT('',(4.311977460434E+03,-4.579009040396E+03,
    2.229983404516E+03));
#350 = CARTESIAN_POINT('',(2.272500757032E+03,-1.164863942553E+03,
    2.229983404516E+03));
#351 = CARTESIAN_POINT('',(2.272500757032E+03,-1.164863942553E+03,
    170.01659548363));
#352 = CARTESIAN_POINT('',(4.311977460434E+03,-1.164863942553E+03,
    170.01659548363));
#353 = CARTESIAN_POINT('',(4.311977460434E+03,-1.164863942553E+03,
    1.2E+03));
#354 = CARTESIAN_POINT('',(4.311977460434E+03,-1.164863942553E+03,
    2.229983404516E+03));
#355 = CARTESIAN_POINT('',(2.272500757032E+03,-1.164863942553E+03,
    2.229983404516E+03));
#356 = ( GEOMETRIC_REPRESENTATION_CONTEXT(3) 
GLOBAL_UNCERTAINTY_ASSIGNED_CONTEXT((#360)) GLOBAL_UNIT_ASSIGNED_CONTEXT
((#357,#358,#359)) REPRESENTATION_CONTEXT('Context #1',
  '3D Context with UNIT and UNCERTAINTY') );
#357 = ( LENGTH_UNIT() NAMED_UNIT(*) SI_UNIT(.MILLI.,.METRE.) );
#358 = ( NAMED_UNIT(*) PLANE_ANGLE_UNIT() SI_UNIT($,.RADIAN.) );
#359 = ( NAMED_UNIT(*) SI_UNIT($,.STERADIAN.) SOLID_ANGLE_UNIT() );
#360 = UNCERTAINTY_MEASURE_WITH_UNIT(LENGTH_MEASURE(1.E-07),#357,
  'distance_accuracy_value','confusion accuracy');
#361 = CONTEXT_DEPENDENT_SHAPE_REPRESENTATION(#362,#364);
#362 = ( REPRESENTATION_RELATIONSHIP('','',#312,#10) 
REPRESENTATION_RELATIONSHIP_WITH_TRANSFORMATION(#363) 
SHAPE_REPRESENTATION_RELATIONSHIP() );
#363 = ITEM_DEFINED_TRANSFORMATION('','',#11,#31);
#364 = PRODUCT_DEFINITION_SHAPE('Placement','Placement of an item',#365
  );
#365 = NEXT_ASSEMBLY_USAGE_OCCURRENCE('210','part4','',#5,#307,$);
#366 = PRODUCT_RELATED_PRODUCT_CATEGORY('part',$,(#309));
#367 = SHAPE_DEFINITION_REPRESENTATION(#368,#374);
#368 = PRODUCT_DEFINITION_SHAPE('','',#369);
#369 = PRODUCT_DEFINITION('design','',#370,#373);
#370 = PRODUCT_DEFINITION_FORMATION('','',#371);
#371 = PRODUCT('part5','part5','',(#372));
#372 = PRODUCT_CONTEXT('',#2,'mechanical');
#373 = PRODUCT_DEFINITION_CONTEXT('part definition',#2,'design');
#374 = ADVANCED_BREP_SHAPE_REPRESENTATION('',(#11,#375),#418);
#375 = MANIFOLD_SOLID_BREP('',#376);
#376 = CLOSED_SHELL('',(#377));
#377 = ADVANCED_FACE('',(#378),#382,.T.);
#378 = FACE_BOUND('',#379,.T.);
#379 = VERTEX_LOOP('',#380);
#380 = VERTEX_POINT('',#381);
#381 = CARTESIAN_POINT('',(5.604596361487E+03,2.397410977376E+03,
    30.861444630297));
#382 = ( BOUNDED_SURFACE() B_SPLINE_SURFACE(2,2,(
    (#383,#384,#385,#386,#387)
    ,(#388,#389,#390,#391,#392)
    ,(#393,#394,#395,#396,#397)
    ,(#398,#399,#400,#401,#402)
    ,(#403,#404,#405,#406,#407)
    ,(#408,#409,#410,#411,#412)
    ,(#413,#414,#415,#416,#417
)),.UNSPECIFIED.,.T.,.F.,.F.) B_SPLINE_SURFACE_WITH_KNOTS((1,2,2,2,2,1),
  (3,2,3),(-2.094395102393,0.,2.094395102393,4.188790204786,
    6.28318530718,8.377580409573),(-1.570796326795,0.,1.570796326795),
.UNSPECIFIED.) GEOMETRIC_REPRESENTATION_ITEM() RATIONAL_B_SPLINE_SURFACE
((
    (1.,0.707106781187,1.,0.707106781187,1.)
    ,(0.5,0.353553390593,0.5,0.353553390593,0.5)
    ,(1.,0.707106781187,1.,0.707106781187,1.)
    ,(0.5,0.353553390593,0.5,0.353553390593,0.5)
    ,(1.,0.707106781187,1.,0.707106781187,1.)
    ,(0.5,0.353553390593,0.5,0.353553390593,0.5)
,(1.,0.707106781187,1.,0.707106781187,1.
))) REPRESENTATION_ITEM('') SURFACE() );
#383 = CARTESIAN_POINT('',(5.604596361487E+03,2.397410977376E+03,
    30.861444630297));
#384 = CARTESIAN_POINT('',(7.200767204736E+03,2.397410977376E+03,
    30.861444630297));
#385 = CARTESIAN_POINT('',(7.200767204736E+03,2.397410977376E+03,1.2E+03
    ));
#386 = CARTESIAN_POINT('',(7.200767204736E+03,2.397410977376E+03,
    2.36913855537E+03));
#387 = CARTESIAN_POINT('',(5.604596361487E+03,2.397410977376E+03,
    2.36913855537E+03));
#388 = CARTESIAN_POINT('',(5.604596361487E+03,2.397410977376E+03,
    30.861444630297));
#389 = CARTESIAN_POINT('',(7.200767204736E+03,5.851399440268E+03,
    30.861444630297));
#390 = CARTESIAN_POINT('',(7.200767204736E+03,5.851399440268E+03,1.2E+03
    ));
#391 = CARTESIAN_POINT('',(7.200767204736E+03,5.851399440268E+03,
    2.36913855537E+03));
#392 = CARTESIAN_POINT('',(5.604596361487E+03,2.397410977376E+03,
    2.36913855537E+03));
#393 = CARTESIAN_POINT('',(5.604596361487E+03,2.397410977376E+03,
    30.861444630297));
#394 = CARTESIAN_POINT('',(4.806510939862E+03,4.124405208822E+03,
    30.861444630297));
#395 = CARTESIAN_POINT('',(4.806510939862E+03,4.124405208822E+03,1.2E+03
    ));
#396 = CARTESIAN_POINT('',(4.806510939862E+03,4.124405208822E+03,
    2.36913855537E+03));
#397 = CARTESIAN_POINT('',(5.604596361487E+03,2.397410977376E+03,
    2.36913855537E+03));
#398 = CARTESIAN_POINT('',(5.604596361487E+03,2.397410977376E+03,
    30.861444630297));
#399 = CARTESIAN_POINT('',(2.412254674988E+03,2.397410977376E+03,
    30.861444630297));
#400 = CARTESIAN_POINT('',(2.412254674988E+03,2.397410977376E+03,1.2E+03
    ));
#401 = CARTESIAN_POINT('',(2.412254674988E+03,2.397410977376E+03,
    2.36913855537E+03));
#402 = CARTESIAN_POINT('',(5.604596361487E+03,2.397410977376E+03,
    2.36913855537E+03));
#403 = CARTESIAN_POINT('',(5.604596361487E+03,2.397410977376E+03,
    30.861444630297));
#404 = CARTESIAN_POINT('',(4.806510939862E+03,670.41674592941,
    30.861444630297));
#405 = CARTESIAN_POINT('',(4.806510939862E+03,670.41674592941,1.2E+03));
#406 = CARTESIAN_POINT('',(4.806510939862E+03,670.41674592941,
    2.36913855537E+03));
#407 = CARTESIAN_POINT('',(5.604596361487E+03,2.397410977376E+03,
    2.36913855537E+03));
#408 = CARTESIAN_POINT('',(5.604596361487E+03,2.397410977376E+03,
    30.861444630297));
#409 = CARTESIAN_POINT('',(7.200767204736E+03,-1.056577485517E+03,
    30.861444630297));
#410 = CARTESIAN_POINT('',(7.200767204736E+03,-1.056577485517E+03,
    1.2E+03));
#411 = CARTESIAN_POINT('',(7.200767204736E+03,-1.056577485517E+03,
    2.36913855537E+03));
#412 = CARTESIAN_POINT('',(5.604596361487E+03,2.397410977376E+03,
    2.36913855537E+03));
#413 = CARTESIAN_POINT('',(5.604596361487E+03,2.397410977376E+03,
    30.861444630297));
#414 = CARTESIAN_POINT('',(7.200767204736E+03,2.397410977376E+03,
    30.861444630297));
#415 = CARTESIAN_POINT('',(7.200767204736E+03,2.397410977376E+03,1.2E+03
    ));
#416 = CARTESIAN_POINT('',(7.200767204736E+03,2.397410977376E+03,
    2.36913855537E+03));
#417 = CARTESIAN_POINT('',(5.604596361487E+03,2.397410977376E+03,
    2.36913855537E+03));
#418 = ( GEOMETRIC_REPRESENTATION_CONTEXT(3) 
GLOBAL_UNCERTAINTY_ASSIGNED_CONTEXT((#422)) GLOBAL_UNIT_ASSIGNED_CONTEXT
((#419,#420,#421)) REPRESENTATION_CONTEXT('Context #1',
  '3D Context with UNIT and UNCERTAINTY') );
#419 = ( LENGTH_UNIT() NAMED_UNIT(*) SI_UNIT(.MILLI.,.METRE.) );
#420 = ( NAMED_UNIT(*) PLANE_ANGLE_UNIT() SI_UNIT($,.RADIAN.) );
#421 = ( NAMED_UNIT(*) SI_UNIT($,.STERADIAN.) SOLID_ANGLE_UNIT() );
#422 = UNCERTAINTY_MEASURE_WITH_UNIT(LENGTH_MEASURE(1.E-07),#419,
  'distance_accuracy_value','confusion accuracy');
#423 = CONTEXT_DEPENDENT_SHAPE_REPRESENTATION(#424,#426);
#424 = ( REPRESENTATION_RELATIONSHIP('','',#374,#10) 
REPRESENTATION_RELATIONSHIP_WITH_TRANSFORMATION(#425) 
SHAPE_REPRESENTATION_RELATIONSHIP() );
#425 = ITEM_DEFINED_TRANSFORMATION('','',#11,#35);
#426 = PRODUCT_DEFINITION_SHAPE('Placement','Placement of an item',#427
  );
#427 = NEXT_ASSEMBLY_USAGE_OCCURRENCE('211','part5','',#5,#369,$);
#428 = PRODUCT_RELATED_PRODUCT_CATEGORY('part',$,(#371));
#429 = SHAPE_DEFINITION_REPRESENTATION(#430,#436);
#430 = PRODUCT_DEFINITION_SHAPE('','',#431);
#431 = PRODUCT_DEFINITION('design','',#432,#435);
#432 = PRODUCT_DEFINITION_FORMATION('','',#433);
#433 = PRODUCT('part6','part6','',(#434));
#434 = PRODUCT_CONTEXT('',#2,'mechanical');
#435 = PRODUCT_DEFINITION_CONTEXT('part definition',#2,'design');
#436 = ADVANCED_BREP_SHAPE_REPRESENTATION('',(#11,#437),#480);
#437 = MANIFOLD_SOLID_BREP('',#438);
#438 = CLOSED_SHELL('',(#439));
#439 = ADVANCED_FACE('',(#440),#444,.T.);
#440 = FACE_BOUND('',#441,.T.);
#441 = VERTEX_LOOP('',#442);
#442 = VERTEX_POINT('',#443);
#443 = CARTESIAN_POINT('',(956.23116315999,-1.781899381615E+03,
    90.568259168413));
#444 = ( BOUNDED_SURFACE() B_SPLINE_SURFACE(2,2,(
    (#445,#446,#447,#448,#449)
    ,(#450,#451,#452,#453,#454)
    ,(#455,#456,#457,#458,#459)
    ,(#460,#461,#462,#463,#464)
    ,(#465,#466,#467,#468,#469)
    ,(#470,#471,#472,#473,#474)
    ,(#475,#476,#477,#478,#479
)),.UNSPECIFIED.,.T.,.F.,.F.) B_SPLINE_SURFACE_WITH_KNOTS((1,2,2,2,2,1),
  (3,2,3),(-2.094395102393,0.,2.094395102393,4.188790204786,
    6.28318530718,8.377580409573),(-1.570796326795,0.,1.570796326795),
.UNSPECIFIED.) GEOMETRIC_REPRESENTATION_ITEM() RATIONAL_B_SPLINE_SURFACE
((
    (1.,0.707106781187,1.,0.707106781187,1.)
    ,(0.5,0.353553390593,0.5,0.353553390593,0.5)
    ,(1.,0.707106781187,1.,0.707106781187,1.)
    ,(0.5,0.353553390593,0.5,0.353553390593,0.5)
    ,(1.,0.707106781187,1.,0.707106781187,1.)
    ,(0.5,0.353553390593,0.5,0.353553390593,0.5)
,(1.,0.707106781187,1.,0.707106781187,1.
))) REPRESENTATION_ITEM('') SURFACE() );
#445 = CARTESIAN_POINT('',(956.23116315999,-1.781899381615E+03,
    90.568259168413));
#446 = CARTESIAN_POINT('',(3.069203580357E+03,-1.781899381615E+03,
    90.568259168413));
#447 = CARTESIAN_POINT('',(3.069203580357E+03,-1.781899381615E+03,
    1.2E+03));
#448 = CARTESIAN_POINT('',(3.069203580357E+03,-1.781899381615E+03,
    2.309431740832E+03));
#449 = CARTESIAN_POINT('',(956.23116315999,-1.781899381615E+03,
    2.309431740832E+03));
#450 = CARTESIAN_POINT('',(956.23116315999,-1.781899381615E+03,
    90.568259168413));
#451 = CARTESIAN_POINT('',(3.069203580357E+03,1.626889033581E+03,
    90.568259168413));
#452 = CARTESIAN_POINT('',(3.069203580357E+03,1.626889033581E+03,1.2E+03
    ));
#453 = CARTESIAN_POINT('',(3.069203580357E+03,1.626889033581E+03,
    2.309431740832E+03));
#454 = CARTESIAN_POINT('',(956.23116315999,-1.781899381615E+03,
    2.309431740832E+03));
#455 = CARTESIAN_POINT('',(956.23116315999,-1.781899381615E+03,
    90.568259168413));
#456 = CARTESIAN_POINT('',(-100.2550454382,-77.50517401681,
    90.568259168413));
#457 = CARTESIAN_POINT('',(-100.2550454382,-77.50517401681,1.2E+03));
#458 = CARTESIAN_POINT('',(-100.2550454382,-77.50517401681,
    2.309431740832E+03));
#459 = CARTESIAN_POINT('',(956.23116315999,-1.781899381615E+03,
    2.309431740832E+03));
#460 = CARTESIAN_POINT('',(956.23116315999,-1.781899381615E+03,
    90.568259168413));
#461 = CARTESIAN_POINT('',(-3.269713671233E+03,-1.781899381615E+03,
    90.568259168413));
#462 = CARTESIAN_POINT('',(-3.269713671233E+03,-1.781899381615E+03,
    1.2E+03));
#463 = CARTESIAN_POINT('',(-3.269713671233E+03,-1.781899381615E+03,
    2.309431740832E+03));
#464 = CARTESIAN_POINT('',(956.23116315999,-1.781899381615E+03,
    2.309431740832E+03));
#465 = CARTESIAN_POINT('',(956.23116315999,-1.781899381615E+03,
    90.568259168413));
#466 = CARTESIAN_POINT('',(-100.2550454382,-3.486293589213E+03,
    90.568259168413));
#467 = CARTESIAN_POINT('',(-100.2550454382,-3.486293589213E+03,1.2E+03)
  );
#468 = CARTESIAN_POINT('',(-100.2550454382,-3.486293589213E+03,
    2.309431740832E+03));
#469 = CARTESIAN_POINT('',(956.23116315999,-1.781899381615E+03,
    2.309431740832E+03));
#470 = CARTESIAN_POINT('',(956.23116315999,-1.781899381615E+03,
    90.568259168413));
#471 = CARTESIAN_POINT('',(3.069203580357E+03,-5.190687796811E+03,
    90.568259168413));
#472 = CARTESIAN_POINT('',(3.069203580357E+03,-5.190687796811E+03,
    1.2E+03));
#473 = CARTESIAN_POINT('',(3.069203580357E+03,-5.190687796811E+03,
    2.309431740832E+03));
#474 = CARTESIAN_POINT('',(956.23116315999,-1.781899381615E+03,
    2.309431740832E+03));
#475 = CARTESIAN_POINT('',(956.23116315999,-1.781899381615E+03,
    90.568259168413));
#476 = CARTESIAN_POINT('',(3.069203580357E+03,-1.781899381615E+03,
    90.568259168413));
#477 = CARTESIAN_POINT('',(3.069203580357E+03,-1.781899381615E+03,
    1.2E+03));
#478 = CARTESIAN_POINT('',(3.069203580357E+03,-1.781899381615E+03,
    2.309431740832E+03));
#479 = CARTESIAN_POINT('',(956.23116315999,-1.781899381615E+03,
    2.309431740832E+03));
#480 = ( GEOMETRIC_REPRESENTATION_CONTEXT(3) 
GLOBAL_UNCERTAINTY_ASSIGNED_CONTEXT((#484)) GLOBAL_UNIT_ASSIGNED_CONTEXT
((#481,#482,#483)) REPRESENTATION_CONTEXT('Context #1',
  '3D Context with UNIT and UNCERTAINTY') );
#481 = ( LENGTH_UNIT() NAMED_UNIT(*) SI_UNIT(.MILLI.,.METRE.) );
#482 = ( NAMED_UNIT(*) PLANE_ANGLE_UNIT() SI_UNIT($,.RADIAN.) );
#483 = ( NAMED_UNIT(*) SI_UNIT($,.STERADIAN.) SOLID_ANGLE_UNIT() );
#484 = UNCERTAINTY_MEASURE_WITH_UNIT(LENGTH_MEASURE(1.E-07),#481,
  'distance_accuracy_value','confusion accuracy');
#485 = CONTEXT_DEPENDENT_SHAPE_REPRESENTATION(#486,#488);
#486 = ( REPRESENTATION_RELATIONSHIP('','',#436,#10) 
REPRESENTATION_RELATIONSHIP_WITH_TRANSFORMATION(#487) 
SHAPE_REPRESENTATION_RELATIONSHIP() );
#487 = ITEM_DEFINED_TRANSFORMATION('','',#11,#39);
#488 = PRODUCT_DEFINITION_SHAPE('Placement','Placement of an item',#489
  );
#489 = NEXT_ASSEMBLY_USAGE_OCCURRENCE('212','part6','',#5,#431,$);
#490 = PRODUCT_RELATED_PRODUCT_CATEGORY('part',$,(#433));
#491 = SHAPE_DEFINITION_REPRESENTATION(#492,#498);
#492 = PRODUCT_DEFINITION_SHAPE('','',#493);
#493 = PRODUCT_DEFINITION('design','',#494,#497);
#494 = PRODUCT_DEFINITION_FORMATION('','',#495);
#495 = PRODUCT('part7','part7','',(#496));
#496 = PRODUCT_CONTEXT('',#2,'mechanical');
#497 = PRODUCT_DEFINITION_CONTEXT('part definition',#2,'design');
#498 = ADVANCED_BREP_SHAPE_REPRESENTATION('',(#11,#499),#542);
#499 = MANIFOLD_SOLID_BREP('',#500);
#500 = CLOSED_SHELL('',(#501));
#501 = ADVANCED_FACE('',(#502),#506,.T.);
#502 = FACE_BOUND('',#503,.T.);
#503 = VERTEX_LOOP('',#504);
#504 = VERTEX_POINT('',#505);
#505 = CARTESIAN_POINT('',(5.126335423624E+03,2.55826840457E+03,
    40.826273679365));
#506 = ( BOUNDED_SURFACE() B_SPLINE_SURFACE(2,2,(
    (#507,#508,#509,#510,#511)
    ,(#512,#513,#514,#515,#516)
    ,(#517,#518,#519,#520,#521)
    ,(#522,#523,#524,#525,#526)
    ,(#527,#528,#529,#530,#531)
    ,(#532,#533,#534,#535,#536)
    ,(#537,#538,#539,#540,#541
)),.UNSPECIFIED.,.T.,.F.,.F.) B_SPLINE_SURFACE_WITH_KNOTS((1,2,2,2,2,1),
  (3,2,3),(-2.094395102393,0.,2.094395102393,4.188790204786,
    6.28318530718,8.377580409573),(-1.570796326795,0.,1.570796326795),
.UNSPECIFIED.) GEOMETRIC_REPRESENTATION_ITEM() RATIONAL_B_SPLINE_SURFACE
((
    (1.,0.707106781187,1.,0.707106781187,1.)
    ,(0.5,0.353553390593,0.5,0.353553390593,0.5)
    ,(1.,0.707106781187,1.,0.707106781187,1.)
    ,(0.5,0.353553390593,0.5,0.353553390593,0.5)
    ,(1.,0.707106781187,1.,0.707106781187,1.)
    ,(0.5,0.353553390593,0.5,0.353553390593,0.5)
,(1.,0.707106781187,1.,0.707106781187,1.
))) REPRESENTATION_ITEM('') SURFACE() );
#507 = CARTESIAN_POINT('',(5.126335423624E+03,2.55826840457E+03,
    40.826273679365));
#508 = CARTESIAN_POINT('',(7.58169443063E+03,2.55826840457E+03,
    40.826273679365));
#509 = CARTESIAN_POINT('',(7.58169443063E+03,2.55826840457E+03,1.2E+03)
  );
#510 = CARTESIAN_POINT('',(7.58169443063E+03,2.55826840457E+03,
    2.359173726321E+03));
#511 = CARTESIAN_POINT('',(5.126335423624E+03,2.55826840457E+03,
    2.359173726321E+03));
#512 = CARTESIAN_POINT('',(5.126335423624E+03,2.55826840457E+03,
    40.826273679365));
#513 = CARTESIAN_POINT('',(7.58169443063E+03,5.594097085498E+03,
    40.826273679365));
#514 = CARTESIAN_POINT('',(7.58169443063E+03,5.594097085498E+03,1.2E+03)
  );
#515 = CARTESIAN_POINT('',(7.58169443063E+03,5.594097085498E+03,
    2.359173726321E+03));
#516 = CARTESIAN_POINT('',(5.126335423624E+03,2.55826840457E+03,
    2.359173726321E+03));
#517 = CARTESIAN_POINT('',(5.126335423624E+03,2.55826840457E+03,
    40.826273679365));
#518 = CARTESIAN_POINT('',(3.89865592012E+03,4.076182745034E+03,
    40.826273679365));
#519 = CARTESIAN_POINT('',(3.89865592012E+03,4.076182745034E+03,1.2E+03)
  );
#520 = CARTESIAN_POINT('',(3.89865592012E+03,4.076182745034E+03,
    2.359173726321E+03));
#521 = CARTESIAN_POINT('',(5.126335423624E+03,2.55826840457E+03,
    2.359173726321E+03));
#522 = CARTESIAN_POINT('',(5.126335423624E+03,2.55826840457E+03,
    40.826273679365));
#523 = CARTESIAN_POINT('',(215.61740960985,2.55826840457E+03,
    40.826273679365));
#524 = CARTESIAN_POINT('',(215.61740960985,2.55826840457E+03,1.2E+03));
#525 = CARTESIAN_POINT('',(215.61740960985,2.55826840457E+03,
    2.359173726321E+03));
#526 = CARTESIAN_POINT('',(5.126335423624E+03,2.55826840457E+03,
    2.359173726321E+03));
#527 = CARTESIAN_POINT('',(5.126335423624E+03,2.55826840457E+03,
    40.826273679365));
#528 = CARTESIAN_POINT('',(3.89865592012E+03,1.040354064106E+03,
    40.826273679365));
#529 = CARTESIAN_POINT('',(3.89865592012E+03,1.040354064106E+03,1.2E+03)
  );
#530 = CARTESIAN_POINT('',(3.89865592012E+03,1.040354064106E+03,
    2.359173726321E+03));
#531 = CARTESIAN_POINT('',(5.126335423624E+03,2.55826840457E+03,
    2.359173726321E+03));
#532 = CARTESIAN_POINT('',(5.126335423624E+03,2.55826840457E+03,
    40.826273679365));
#533 = CARTESIAN_POINT('',(7.58169443063E+03,-477.5602763578,
    40.826273679365));
#534 = CARTESIAN_POINT('',(7.58169443063E+03,-477.5602763578,1.2E+03));
#535 = CARTESIAN_POINT('',(7.58169443063E+03,-477.5602763578,
    2.359173726321E+03));
#536 = CARTESIAN_POINT('',(5.126335423624E+03,2.55826840457E+03,
    2.359173726321E+03));
#537 = CARTESIAN_POINT('',(5.126335423624E+03,2.55826840457E+03,
    40.826273679365));
#538 = CARTESIAN_POINT('',(7.58169443063E+03,2.55826840457E+03,
    40.826273679365));
#539 = CARTESIAN_POINT('',(7.58169443063E+03,2.55826840457E+03,1.2E+03)
  );
#540 = CARTESIAN_POINT('',(7.58169443063E+03,2.55826840457E+03,
    2.359173726321E+03));
#541 = CARTESIAN_POINT('',(5.126335423624E+03,2.55826840457E+03,
    2.359173726321E+03));
#542 = ( GEOMETRIC_REPRESENTATION_CONTEXT(3) 
GLOBAL_UNCERTAINTY_ASSIGNED_CONTEXT((#546)) GLOBAL_UNIT_ASSIGNED_CONTEXT
((#543,#544,#545)) REPRESENTATION_CONTEXT('Context #1',
  '3D Context with UNIT and UNCERTAINTY') );
#543 = ( LENGTH_UNIT() NAMED_UNIT(*) SI_UNIT(.MILLI.,.METRE.) );
#544 = ( NAMED_UNIT(*) PLANE_ANGLE_UNIT() SI_UNIT($,.RADIAN.) );
#545 = ( NAMED_UNIT(*) SI_UNIT($,.STERADIAN.) SOLID_ANGLE_UNIT() );
#546 = UNCERTAINTY_MEASURE_WITH_UNIT(LENGTH_MEASURE(1.E-07),#543,
  'distance_accuracy_value','confusion accuracy');
#547 = CONTEXT_DEPENDENT_SHAPE_REPRESENTATION(#548,#550);
#548 = ( REPRESENTATION_RELATIONSHIP('','',#498,#10) 
REPRESENTATION_RELATIONSHIP_WITH_TRANSFORMATION(#549) 
SHAPE_REPRESENTATION_RELATIONSHIP() );
#549 = ITEM_DEFINED_TRANSFORMATION('','',#11,#43);
#550 = PRODUCT_DEFINITION_SHAPE('Placement','Placement of an item',#551
  );
#551 = NEXT_ASSEMBLY_USAGE_OCCURRENCE('213','part7','',#5,#493,$);
#552 = PRODUCT_RELATED_PRODUCT_CATEGORY('part',$,(#495));
#553 = SHAPE_DEFINITION_REPRESENTATION(#554,#560);
#554 = PRODUCT_DEFINITION_SHAPE('','',#555);
#555 = PRODUCT_DEFINITION('design','',#556,#559);
#556 = PRODUCT_DEFINITION_FORMATION('','',#557);
#557 = PRODUCT('part8','part8','',(#558));
#558 = PRODUCT_CONTEXT('',#2,'mechanical');
#559 = PRODUCT_DEFINITION_CONTEXT('part definition',#2,'design');
#560 = ADVANCED_BREP_SHAPE_REPRESENTATION('',(#11,#561),#604);
#561 = MANIFOLD_SOLID_BREP('',#562);
#562 = CLOSED_SHELL('',(#563));
#563 = ADVANCED_FACE('',(#564),#568,.T.);
#564 = FACE_BOUND('',#565,.T.);
#565 = VERTEX_LOOP('',#566);
#566 = VERTEX_POINT('',#567);
#567 = CARTESIAN_POINT('',(-3.540956303897E+03,-1.040954410782E+03,
    -196.9090542874));
#568 = ( BOUNDED_SURFACE() B_SPLINE_SURFACE(2,2,(
    (#569,#570,#571,#572,#573)
    ,(#574,#575,#576,#577,#578)
    ,(#579,#580,#581,#582,#583)
    ,(#584,#585,#586,#587,#588)
    ,(#589,#590,#591,#592,#593)
    ,(#594,#595,#596,#597,#598)
    ,(#599,#600,#601,#602,#603
)),.UNSPECIFIED.,.T.,.F.,.F.) B_SPLINE_SURFACE_WITH_KNOTS((1,2,2,2,2,1),
  (3,2,3),(-2.094395102393,0.,2.094395102393,4.188790204786,
    6.28318530718,8.377580409573),(-1.570796326795,0.,1.570796326795),
.UNSPECIFIED.) GEOMETRIC_REPRESENTATION_ITEM() RATIONAL_B_SPLINE_SURFACE
((
    (1.,0.707106781187,1.,0.707106781187,1.)
    ,(0.5,0.353553390593,0.5,0.353553390593,0.5)
    ,(1.,0.707106781187,1.,0.707106781187,1.)
    ,(0.5,0.353553390593,0.5,0.353553390593,0.5)
    ,(1.,0.707106781187,1.,0.707106781187,1.)
    ,(0.5,0.353553390593,0.5,0.353553390593,0.5)
,(1.,0.707106781187,1.,0.707106781187,1.
))) REPRESENTATION_ITEM('') SURFACE() );
#569 = CARTESIAN_POINT('',(-3.540956303897E+03,-1.040954410782E+03,
    -196.9090542874));
#570 = CARTESIAN_POINT('',(-1.629817290182E+03,-1.040954410782E+03,
    -196.9090542874));
#571 = CARTESIAN_POINT('',(-1.629817290182E+03,-1.040954410782E+03,
    1.2E+03));
#572 = CARTESIAN_POINT('',(-1.629817290182E+03,-1.040954410782E+03,
    2.596909054287E+03));
#573 = CARTESIAN_POINT('',(-3.540956303897E+03,-1.040954410782E+03,
    2.596909054287E+03));
#574 = CARTESIAN_POINT('',(-3.540956303897E+03,-1.040954410782E+03,
    -196.9090542874));
#575 = CARTESIAN_POINT('',(-1.629817290182E+03,2.265227216465E+03,
    -196.9090542874));
#576 = CARTESIAN_POINT('',(-1.629817290182E+03,2.265227216465E+03,
    1.2E+03));
#577 = CARTESIAN_POINT('',(-1.629817290182E+03,2.265227216465E+03,
    2.596909054287E+03));
#578 = CARTESIAN_POINT('',(-3.540956303897E+03,-1.040954410782E+03,
    2.596909054287E+03));
#579 = CARTESIAN_POINT('',(-3.540956303897E+03,-1.040954410782E+03,
    -196.9090542874));
#580 = CARTESIAN_POINT('',(-4.496525810754E+03,612.13640284175,
    -196.9090542874));
#581 = CARTESIAN_POINT('',(-4.496525810754E+03,612.13640284175,1.2E+03)
  );
#582 = CARTESIAN_POINT('',(-4.496525810754E+03,612.13640284175,
    2.596909054287E+03));
#583 = CARTESIAN_POINT('',(-3.540956303897E+03,-1.040954410782E+03,
    2.596909054287E+03));
#584 = CARTESIAN_POINT('',(-3.540956303897E+03,-1.040954410782E+03,
    -196.9090542874));
#585 = CARTESIAN_POINT('',(-7.363234331325E+03,-1.040954410782E+03,
    -196.9090542874));
#586 = CARTESIAN_POINT('',(-7.363234331325E+03,-1.040954410782E+03,
    1.2E+03));
#587 = CARTESIAN_POINT('',(-7.363234331325E+03,-1.040954410782E+03,
    2.596909054287E+03));
#588 = CARTESIAN_POINT('',(-3.540956303897E+03,-1.040954410782E+03,
    2.596909054287E+03));
#589 = CARTESIAN_POINT('',(-3.540956303897E+03,-1.040954410782E+03,
    -196.9090542874));
#590 = CARTESIAN_POINT('',(-4.496525810754E+03,-2.694045224405E+03,
    -196.9090542874));
#591 = CARTESIAN_POINT('',(-4.496525810754E+03,-2.694045224405E+03,
    1.2E+03));
#592 = CARTESIAN_POINT('',(-4.496525810754E+03,-2.694045224405E+03,
    2.596909054287E+03));
#593 = CARTESIAN_POINT('',(-3.540956303897E+03,-1.040954410782E+03,
    2.596909054287E+03));
#594 = CARTESIAN_POINT('',(-3.540956303897E+03,-1.040954410782E+03,
    -196.9090542874));
#595 = CARTESIAN_POINT('',(-1.629817290182E+03,-4.347136038028E+03,
    -196.9090542874));
#596 = CARTESIAN_POINT('',(-1.629817290182E+03,-4.347136038028E+03,
    1.2E+03));
#597 = CARTESIAN_POINT('',(-1.629817290182E+03,-4.347136038028E+03,
    2.596909054287E+03));
#598 = CARTESIAN_POINT('',(-3.540956303897E+03,-1.040954410782E+03,
    2.596909054287E+03));
#599 = CARTESIAN_POINT('',(-3.540956303897E+03,-1.040954410782E+03,
    -196.9090542874));
#600 = CARTESIAN_POINT('',(-1.629817290182E+03,-1.040954410782E+03,
    -196.9090542874));
#601 = CARTESIAN_POINT('',(-1.629817290182E+03,-1.040954410782E+03,
    1.2E+03));
#602 = CARTESIAN_POINT('',(-1.629817290182E+03,-1.040954410782E+03,
    2.596909054287E+03));
#603 = CARTESIAN_POINT('',(-3.540956303897E+03,-1.040954410782E+03,
    2.596909054287E+03));
#604 = ( GEOMETRIC_REPRESENTATION_CONTEXT(3) 
GLOBAL_UNCERTAINTY_ASSIGNED_CONTEXT((#608)) GLOBAL_UNIT_ASSIGNED_CONTEXT
((#605,#606,#607)) REPRESENTATION_CONTEXT('Context #1',
  '3D Context with UNIT and UNCERTAINTY') );
#605 = ( LENGTH_UNIT() NAMED_UNIT(*) SI_UNIT(.MILLI.,.METRE.) );
#606 = ( NAMED_UNIT(*) PLANE_ANGLE_UNIT() SI_UNIT($,.RADIAN.) );
#607 = ( NAMED_UNIT(*) SI_UNIT($,.STERADIAN.) SOLID_ANGLE_UNIT() );
#608 = UNCERTAINTY_MEASURE_WITH_UNIT(LENGTH_MEASURE(1.E-07),#605,
  'distance_accuracy_value','confusion accuracy');
#609 = CONTEXT_DEPENDENT_SHAPE_REPRESENTATION(#610,#612);
#610 = ( REPRESENTATION_RELATIONSHIP('','',#560,#10) 
REPRESENTATION_RELATIONSHIP_WITH_TRANSFORMATION(#611) 
SHAPE_REPRESENTATION_RELATIONSHIP() );
#611 = ITEM_DEFINED_TRANSFORMATION('','',#11,#47);
#612 = PRODUCT_DEFINITION_SHAPE('Placement','Placement of an item',#613
  );
#613 = NEXT_ASSEMBLY_USAGE_OCCURRENCE('214','part8','',#5,#555,$);
#614 = PRODUCT_RELATED_PRODUCT_CATEGORY('part',$,(#557));
#615 = MECHANICAL_DESIGN_GEOMETRIC_PRESENTATION_REPRESENTATION('',(#616)
  ,#542);
#616 = STYLED_ITEM('color',(#617),#499);
#617 = PRESENTATION_STYLE_ASSIGNMENT((#618));
#618 = SURFACE_STYLE_USAGE(.BOTH.,#619);
#619 = SURFACE_SIDE_STYLE('',(#620));
#620 = SURFACE_STYLE_FILL_AREA(#621);
#621 = FILL_AREA_STYLE('',(#622));
#622 = FILL_AREA_STYLE_COLOUR('',#623);
#623 = COLOUR_RGB('',0.368627449173,0.478431380801,0.274509799781);
#624 = MECHANICAL_DESIGN_GEOMETRIC_PRESENTATION_REPRESENTATION('',(#625)
  ,#480);
#625 = STYLED_ITEM('color',(#626),#437);
#626 = PRESENTATION_STYLE_ASSIGNMENT((#627));
#627 = SURFACE_STYLE_USAGE(.BOTH.,#628);
#628 = SURFACE_SIDE_STYLE('',(#629));
#629 = SURFACE_STYLE_FILL_AREA(#630);
#630 = FILL_AREA_STYLE('',(#631));
#631 = FILL_AREA_STYLE_COLOUR('',#623);
#632 = MECHANICAL_DESIGN_GEOMETRIC_PRESENTATION_REPRESENTATION('',(#633)
  ,#418);
#633 = STYLED_ITEM('color',(#634),#375);
#634 = PRESENTATION_STYLE_ASSIGNMENT((#635));
#635 = SURFACE_STYLE_USAGE(.BOTH.,#636);
#636 = SURFACE_SIDE_STYLE('',(#637));
#637 = SURFACE_STYLE_FILL_AREA(#638);
#638 = FILL_AREA_STYLE('',(#639));
#639 = FILL_AREA_STYLE_COLOUR('',#623);
#640 = MECHANICAL_DESIGN_GEOMETRIC_PRESENTATION_REPRESENTATION('',(#641)
  ,#108);
#641 = STYLED_ITEM('color',(#642),#65);
#642 = PRESENTATION_STYLE_ASSIGNMENT((#643));
#643 = SURFACE_STYLE_USAGE(.BOTH.,#644);
#644 = SURFACE_SIDE_STYLE('',(#645));
#645 = SURFACE_STYLE_FILL_AREA(#646);
#646 = FILL_AREA_STYLE('',(#647));
#647 = FILL_AREA_STYLE_COLOUR('',#648);
#648 = COLOUR_RGB('',0.847058829703,0.784313732475,0.619607835287);
#649 = MECHANICAL_DESIGN_GEOMETRIC_PRESENTATION_REPRESENTATION('',(#650)
  ,#232);
#650 = STYLED_ITEM('color',(#651),#189);
#651 = PRESENTATION_STYLE_ASSIGNMENT((#652));
#652 = SURFACE_STYLE_USAGE(.BOTH.,#653);
#653 = SURFACE_SIDE_STYLE('',(#654));
#654 = SURFACE_STYLE_FILL_AREA(#655);
#655 = FILL_AREA_STYLE('',(#656));
#656 = FILL_AREA_STYLE_COLOUR('',#623);
#657 = MECHANICAL_DESIGN_GEOMETRIC_PRESENTATION_REPRESENTATION('',(#658)
  ,#294);
#658 = STYLED_ITEM('color',(#659),#251);
#659 = PRESENTATION_STYLE_ASSIGNMENT((#660));
#660 = SURFACE_STYLE_USAGE(.BOTH.,#661);
#661 = SURFACE_SIDE_STYLE('',(#662));
#662 = SURFACE_STYLE_FILL_AREA(#663);
#663 = FILL_AREA_STYLE('',(#664));
#664 = FILL_AREA_STYLE_COLOUR('',#623);
#665 = MECHANICAL_DESIGN_GEOMETRIC_PRESENTATION_REPRESENTATION('',(#666)
  ,#604);
#666 = STYLED_ITEM('color',(#667),#561);
#667 = PRESENTATION_STYLE_ASSIGNMENT((#668));
#668 = SURFACE_STYLE_USAGE(.BOTH.,#669);
#669 = SURFACE_SIDE_STYLE('',(#670));
#670 = SURFACE_STYLE_FILL_AREA(#671);
#671 = FILL_AREA_STYLE('',(#672));
#672 = FILL_AREA_STYLE_COLOUR('',#623);
#673 = MECHANICAL_DESIGN_GEOMETRIC_PRESENTATION_REPRESENTATION('',(#674)
  ,#356);
#674 = STYLED_ITEM('color',(#675),#313);
#675 = PRESENTATION_STYLE_ASSIGNMENT((#676));
#676 = SURFACE_STYLE_USAGE(.BOTH.,#677);
#677 = SURFACE_SIDE_STYLE('',(#678));
#678 = SURFACE_STYLE_FILL_AREA(#679);
#679 = FILL_AREA_STYLE('',(#680));
#680 = FILL_AREA_STYLE_COLOUR('',#623);
#681 = MECHANICAL_DESIGN_GEOMETRIC_PRESENTATION_REPRESENTATION('',(#682)
  ,#170);
#682 = STYLED_ITEM('color',(#683),#127);
#683 = PRESENTATION_STYLE_ASSIGNMENT((#684));
#684 = SURFACE_STYLE_USAGE(.BOTH.,#685);
#685 = SURFACE_SIDE_STYLE('',(#686));
#686 = SURFACE_STYLE_FILL_AREA(#687);
#687 = FILL_AREA_STYLE('',(#688));
#688 = FILL_AREA_STYLE_COLOUR('',#689);
#689 = COLOUR_RGB('',0.658823527652,0.619607835287,0.55686275255);
ENDSEC;
END-ISO-10303-21;
