ISO-10303-21;
HEADER;
FILE_DESCRIPTION(('Open CASCADE Model'),'2;1');
FILE_NAME('Open CASCADE Shape Model','2026-09-14T10:53:46',('Author'),(
    'Open CASCADE'),'Open CASCADE STEP processor 7.9','Open CASCADE 7.9'
  ,'Unknown');
FILE_SCHEMA(('AUTOMOTIVE_DESIGN { 1 0 10303 214 1 1 1 1 }'));
ENDSEC;
DATA;
#1 = APPLICATION_PROTOCOL_DEFINITION('international standard',
  'automotive_design',2000,#2);
#2 = APPLICATION_CONTEXT(
  'core data for automotive mechanical design processes');
#3 = SHAPE_DEFINITION_REPRESENTATION(#4,#10);
#4 = PRODUCT_DEFINITION_SHAPE('','',#5);
#5 = PRODUCT_DEFINITION('design','',#6,#9);
#6 = PRODUCT_DEFINITION_FORMATION('','',#7);
#7 = PRODUCT('2dd23367-b022-11f1-b257-3c9c0f4bdafb',
  '2dd23367-b022-11f1-b257-3c9c0f4bdafb','',(#8));
#8 = PRODUCT_CONTEXT('',#2,'mechanical');
#9 = PRODUCT_DEFINITION_CONTEXT('part definition',#2,'design');
#10 = SHAPE_REPRESENTATION('',(#11,#15,#19,#23,#27,#31,#35),#39);
#11 = AXIS2_PLACEMENT_3D('',#12,#13,#14);
#12 = CARTESIAN_POINT('',(0.,0.,0.));
#13 = DIRECTION('',(0.,0.,1.));
#14 = DIRECTION('',(1.,0.,-0.));
#15 = AXIS2_PLACEMENT_3D('',#16,#17,#18);
#16 = CARTESIAN_POINT('',(0.,0.,0.));
#17 = DIRECTION('',(0.,0.,1.));
#18 = DIRECTION('',(1.,0.,-0.));
#19 = AXIS2_PLACEMENT_3D('',#20,#21,#22);
#20 = CARTESIAN_POINT('',(0.,0.,0.));
#21 = DIRECTION('',(0.,0.,1.));
#22 = DIRECTION('',(1.,0.,-0.));
#23 = AXIS2_PLACEMENT_3D('',#24,#25,#26);
#24 = CARTESIAN_POINT('',(0.,0.,0.));
#25 = DIRECTION('',(0.,0.,1.));
#26 = DIRECTION('',(1.,0.,-0.));
#27 = AXIS2_PLACEMENT_3D('',#28,#29,#30);
#28 = CARTESIAN_POINT('',(0.,0.,0.));
#29 = DIRECTION('',(0.,0.,1.));
#30 = DIRECTION('',(1.,0.,-0.));
#31 = AXIS2_PLACEMENT_3D('',#32,#33,#34);
#32 = CARTESIAN_POINT('',(0.,0.,0.));
#33 = DIRECTION('',(0.,0.,1.));
#34 = DIRECTION('',(1.,0.,-0.));
#35 = AXIS2_PLACEMENT_3D('',#36,#37,#38);
#36 = CARTESIAN_POINT('',(0.,0.,0.));
#37 = DIRECTION('',(0.,0.,1.));
#38 = DIRECTION('',(1.,0.,-0.));
#39 = ( GEOMETRIC_REPRESENTATION_CONTEXT(3) 
GLOBAL_UNCERTAINTY_ASSIGNED_CONTEXT((#43)) GLOBAL_UNIT_ASSIGNED_CONTEXT(
(#40,#41,#42)) REPRESENTATION_CONTEXT('Context #1',
  '3D Context with UNIT and UNCERTAINTY') );
#40 = ( LENGTH_UNIT() NAMED_UNIT(*) SI_UNIT(.MILLI.,.METRE.) );
#41 = ( NAMED_UNIT(*) PLANE_ANGLE_UNIT() SI_UNIT($,.RADIAN.) );
#42 = ( NAMED_UNIT(*) SI_UNIT($,.STERADIAN.) SOLID_ANGLE_UNIT() );
#43 = UNCERTAINTY_MEASURE_WITH_UNIT(LENGTH_MEASURE(1.E-07),#40,
  'distance_accuracy_value','confusion accuracy');
#44 = PRODUCT_RELATED_PRODUCT_CATEGORY('part',$,(#7));
#45 = SHAPE_DEFINITION_REPRESENTATION(#46,#52);
#46 = PRODUCT_DEFINITION_SHAPE('','',#47);
#47 = PRODUCT_DEFINITION('design','',#48,#51);
#48 = PRODUCT_DEFINITION_FORMATION('','',#49);
#49 = PRODUCT('part0','part0','',(#50));
#50 = PRODUCT_CONTEXT('',#2,'mechanical');
#51 = PRODUCT_DEFINITION_CONTEXT('part definition',#2,'design');
#52 = ADVANCED_BREP_SHAPE_REPRESENTATION('',(#11,#53),#151);
#53 = MANIFOLD_SOLID_BREP('',#54);
#54 = CLOSED_SHELL('',(#55,#143,#147));
#55 = ADVANCED_FACE('',(#56),#69,.T.);
#56 = FACE_BOUND('',#57,.T.);
#57 = EDGE_LOOP('',(#58,#92,#115,#142));
#58 = ORIENTED_EDGE('',*,*,#59,.F.);
#59 = EDGE_CURVE('',#60,#60,#62,.T.);
#60 = VERTEX_POINT('',#61);
#61 = CARTESIAN_POINT('',(120.,-2.939152317954E-14,1.6E+04));
#62 = SURFACE_CURVE('',#63,(#68,#80),.PCURVE_S1.);
#63 = CIRCLE('',#64,120.);
#64 = AXIS2_PLACEMENT_3D('',#65,#66,#67);
#65 = CARTESIAN_POINT('',(0.,0.,1.6E+04));
#66 = DIRECTION('',(0.,0.,1.));
#67 = DIRECTION('',(1.,0.,-0.));
#68 = PCURVE('',#69,#74);
#69 = CONICAL_SURFACE('',#70,220.,6.249918621699E-03);
#70 = AXIS2_PLACEMENT_3D('',#71,#72,#73);
#71 = CARTESIAN_POINT('',(0.,0.,0.));
#72 = DIRECTION('',(-0.,-0.,-1.));
#73 = DIRECTION('',(1.,0.,-0.));
#74 = DEFINITIONAL_REPRESENTATION('',(#75),#79);
#75 = LINE('',#76,#77);
#76 = CARTESIAN_POINT('',(-0.,-1.6E+04));
#77 = VECTOR('',#78,1.);
#78 = DIRECTION('',(-1.,-0.));
#79 = ( GEOMETRIC_REPRESENTATION_CONTEXT(2) 
PARAMETRIC_REPRESENTATION_CONTEXT() REPRESENTATION_CONTEXT('2D SPACE',''
  ) );
#80 = PCURVE('',#81,#86);
#81 = PLANE('',#82);
#82 = AXIS2_PLACEMENT_3D('',#83,#84,#85);
#83 = CARTESIAN_POINT('',(0.,0.,1.6E+04));
#84 = DIRECTION('',(0.,0.,1.));
#85 = DIRECTION('',(1.,0.,-0.));
#86 = DEFINITIONAL_REPRESENTATION('',(#87),#91);
#87 = CIRCLE('',#88,120.);
#88 = AXIS2_PLACEMENT_2D('',#89,#90);
#89 = CARTESIAN_POINT('',(0.,0.));
#90 = DIRECTION('',(1.,0.));
#91 = ( GEOMETRIC_REPRESENTATION_CONTEXT(2) 
PARAMETRIC_REPRESENTATION_CONTEXT() REPRESENTATION_CONTEXT('2D SPACE',''
  ) );
#92 = ORIENTED_EDGE('',*,*,#93,.F.);
#93 = EDGE_CURVE('',#94,#60,#96,.T.);
#94 = VERTEX_POINT('',#95);
#95 = CARTESIAN_POINT('',(220.,-5.388445916248E-14,0.));
#96 = SEAM_CURVE('',#97,(#101,#108),.PCURVE_S1.);
#97 = LINE('',#98,#99);
#98 = CARTESIAN_POINT('',(220.,-5.388445916248E-14,0.));
#99 = VECTOR('',#100,1.);
#100 = DIRECTION('',(-6.249877933264E-03,1.530778601207E-18,
    0.999980469322));
#101 = PCURVE('',#69,#102);
#102 = DEFINITIONAL_REPRESENTATION('',(#103),#107);
#103 = LINE('',#104,#105);
#104 = CARTESIAN_POINT('',(-6.28318530718,0.));
#105 = VECTOR('',#106,1.);
#106 = DIRECTION('',(-0.,-1.));
#107 = ( GEOMETRIC_REPRESENTATION_CONTEXT(2) 
PARAMETRIC_REPRESENTATION_CONTEXT() REPRESENTATION_CONTEXT('2D SPACE',''
  ) );
#108 = PCURVE('',#69,#109);
#109 = DEFINITIONAL_REPRESENTATION('',(#110),#114);
#110 = LINE('',#111,#112);
#111 = CARTESIAN_POINT('',(0.,-0.));
#112 = VECTOR('',#113,1.);
#113 = DIRECTION('',(-0.,-1.));
#114 = ( GEOMETRIC_REPRESENTATION_CONTEXT(2) 
PARAMETRIC_REPRESENTATION_CONTEXT() REPRESENTATION_CONTEXT('2D SPACE',''
  ) );
#115 = ORIENTED_EDGE('',*,*,#116,.T.);
#116 = EDGE_CURVE('',#94,#94,#117,.T.);
#117 = SURFACE_CURVE('',#118,(#123,#130),.PCURVE_S1.);
#118 = CIRCLE('',#119,220.);
#119 = AXIS2_PLACEMENT_3D('',#120,#121,#122);
#120 = CARTESIAN_POINT('',(0.,0.,0.));
#121 = DIRECTION('',(0.,0.,1.));
#122 = DIRECTION('',(1.,0.,-0.));
#123 = PCURVE('',#69,#124);
#124 = DEFINITIONAL_REPRESENTATION('',(#125),#129);
#125 = LINE('',#126,#127);
#126 = CARTESIAN_POINT('',(-0.,-0.));
#127 = VECTOR('',#128,1.);
#128 = DIRECTION('',(-1.,-0.));
#129 = ( GEOMETRIC_REPRESENTATION_CONTEXT(2) 
PARAMETRIC_REPRESENTATION_CONTEXT() REPRESENTATION_CONTEXT('2D SPACE',''
  ) );
#130 = PCURVE('',#131,#136);
#131 = PLANE('',#132);
#132 = AXIS2_PLACEMENT_3D('',#133,#134,#135);
#133 = CARTESIAN_POINT('',(0.,0.,0.));
#134 = DIRECTION('',(0.,0.,1.));
#135 = DIRECTION('',(1.,0.,-0.));
#136 = DEFINITIONAL_REPRESENTATION('',(#137),#141);
#137 = CIRCLE('',#138,220.);
#138 = AXIS2_PLACEMENT_2D('',#139,#140);
#139 = CARTESIAN_POINT('',(0.,0.));
#140 = DIRECTION('',(1.,0.));
#141 = ( GEOMETRIC_REPRESENTATION_CONTEXT(2) 
PARAMETRIC_REPRESENTATION_CONTEXT() REPRESENTATION_CONTEXT('2D SPACE',''
  ) );
#142 = ORIENTED_EDGE('',*,*,#93,.T.);
#143 = ADVANCED_FACE('',(#144),#81,.T.);
#144 = FACE_BOUND('',#145,.T.);
#145 = EDGE_LOOP('',(#146));
#146 = ORIENTED_EDGE('',*,*,#59,.T.);
#147 = ADVANCED_FACE('',(#148),#131,.F.);
#148 = FACE_BOUND('',#149,.T.);
#149 = EDGE_LOOP('',(#150));
#150 = ORIENTED_EDGE('',*,*,#116,.F.);
#151 = ( GEOMETRIC_REPRESENTATION_CONTEXT(3) 
GLOBAL_UNCERTAINTY_ASSIGNED_CONTEXT((#155)) GLOBAL_UNIT_ASSIGNED_CONTEXT
((#152,#153,#154)) REPRESENTATION_CONTEXT('Context #1',
  '3D Context with UNIT and UNCERTAINTY') );
#152 = ( LENGTH_UNIT() NAMED_UNIT(*) SI_UNIT(.MILLI.,.METRE.) );
#153 = ( NAMED_UNIT(*) PLANE_ANGLE_UNIT() SI_UNIT($,.RADIAN.) );
#154 = ( NAMED_UNIT(*) SI_UNIT($,.STERADIAN.) SOLID_ANGLE_UNIT() );
#155 = UNCERTAINTY_MEASURE_WITH_UNIT(LENGTH_MEASURE(1.E-07),#152,
  'distance_accuracy_value','confusion accuracy');
#156 = CONTEXT_DEPENDENT_SHAPE_REPRESENTATION(#157,#159);
#157 = ( REPRESENTATION_RELATIONSHIP('','',#52,#10) 
REPRESENTATION_RELATIONSHIP_WITH_TRANSFORMATION(#158) 
SHAPE_REPRESENTATION_RELATIONSHIP() );
#158 = ITEM_DEFINED_TRANSFORMATION('','',#11,#15);
#159 = PRODUCT_DEFINITION_SHAPE('Placement','Placement of an item',#160
  );
#160 = NEXT_ASSEMBLY_USAGE_OCCURRENCE('259','part0','',#5,#47,$);
#161 = PRODUCT_RELATED_PRODUCT_CATEGORY('part',$,(#49));
#162 = SHAPE_DEFINITION_REPRESENTATION(#163,#169);
#163 = PRODUCT_DEFINITION_SHAPE('','',#164);
#164 = PRODUCT_DEFINITION('design','',#165,#168);
#165 = PRODUCT_DEFINITION_FORMATION('','',#166);
#166 = PRODUCT('part1','part1','',(#167));
#167 = PRODUCT_CONTEXT('',#2,'mechanical');
#168 = PRODUCT_DEFINITION_CONTEXT('part definition',#2,'design');
#169 = ADVANCED_BREP_SHAPE_REPRESENTATION('',(#11,#170),#213);
#170 = MANIFOLD_SOLID_BREP('',#171);
#171 = CLOSED_SHELL('',(#172));
#172 = ADVANCED_FACE('',(#173),#177,.T.);
#173 = FACE_BOUND('',#174,.T.);
#174 = VERTEX_LOOP('',#175);
#175 = VERTEX_POINT('',#176);
#176 = CARTESIAN_POINT('',(1.347111479062E-13,-3.299471521856E-29,
    9.5E+03));
#177 = ( BOUNDED_SURFACE() B_SPLINE_SURFACE(2,2,(
    (#178,#179,#180,#181,#182)
    ,(#183,#184,#185,#186,#187)
    ,(#188,#189,#190,#191,#192)
    ,(#193,#194,#195,#196,#197)
    ,(#198,#199,#200,#201,#202)
    ,(#203,#204,#205,#206,#207)
    ,(#208,#209,#210,#211,#212
)),.UNSPECIFIED.,.T.,.F.,.F.) B_SPLINE_SURFACE_WITH_KNOTS((1,2,2,2,2,1),
  (3,2,3),(-2.094395102393,0.,2.094395102393,4.188790204786,
    6.28318530718,8.377580409573),(-1.570796326795,0.,1.570796326795),
.UNSPECIFIED.) GEOMETRIC_REPRESENTATION_ITEM() RATIONAL_B_SPLINE_SURFACE
((
    (1.,0.707106781187,1.,0.707106781187,1.)
    ,(0.5,0.353553390593,0.5,0.353553390593,0.5)
    ,(1.,0.707106781187,1.,0.707106781187,1.)
    ,(0.5,0.353553390593,0.5,0.353553390593,0.5)
    ,(1.,0.707106781187,1.,0.707106781187,1.)
    ,(0.5,0.353553390593,0.5,0.353553390593,0.5)
,(1.,0.707106781187,1.,0.707106781187,1.
))) REPRESENTATION_ITEM('') SURFACE() );
#178 = CARTESIAN_POINT('',(1.347111479062E-13,0.,9.5E+03));
#179 = CARTESIAN_POINT('',(2.2E+03,0.,9.5E+03));
#180 = CARTESIAN_POINT('',(2.2E+03,0.,1.25E+04));
#181 = CARTESIAN_POINT('',(2.2E+03,0.,1.55E+04));
#182 = CARTESIAN_POINT('',(1.347111479062E-13,0.,1.55E+04));
#183 = CARTESIAN_POINT('',(1.347111479062E-13,2.333265525195E-13,9.5E+03
    ));
#184 = CARTESIAN_POINT('',(2.2E+03,3.810511776652E+03,9.5E+03));
#185 = CARTESIAN_POINT('',(2.2E+03,3.810511776652E+03,1.25E+04));
#186 = CARTESIAN_POINT('',(2.2E+03,3.810511776652E+03,1.55E+04));
#187 = CARTESIAN_POINT('',(1.347111479062E-13,2.333265525195E-13,
    1.55E+04));
#188 = CARTESIAN_POINT('',(-6.73555739531E-14,1.166632762597E-13,9.5E+03
    ));
#189 = CARTESIAN_POINT('',(-1.1E+03,1.905255888326E+03,9.5E+03));
#190 = CARTESIAN_POINT('',(-1.1E+03,1.905255888326E+03,1.25E+04));
#191 = CARTESIAN_POINT('',(-1.1E+03,1.905255888326E+03,1.55E+04));
#192 = CARTESIAN_POINT('',(-6.73555739531E-14,1.166632762597E-13,
    1.55E+04));
#193 = CARTESIAN_POINT('',(-2.694222958124E-13,3.299471521856E-29,
    9.5E+03));
#194 = CARTESIAN_POINT('',(-4.4E+03,5.388445916248E-13,9.5E+03));
#195 = CARTESIAN_POINT('',(-4.4E+03,5.388445916248E-13,1.25E+04));
#196 = CARTESIAN_POINT('',(-4.4E+03,5.388445916248E-13,1.55E+04));
#197 = CARTESIAN_POINT('',(-2.694222958124E-13,3.299471521856E-29,
    1.55E+04));
#198 = CARTESIAN_POINT('',(-6.73555739531E-14,-1.166632762597E-13,
    9.5E+03));
#199 = CARTESIAN_POINT('',(-1.1E+03,-1.905255888326E+03,9.5E+03));
#200 = CARTESIAN_POINT('',(-1.1E+03,-1.905255888326E+03,1.25E+04));
#201 = CARTESIAN_POINT('',(-1.1E+03,-1.905255888326E+03,1.55E+04));
#202 = CARTESIAN_POINT('',(-6.73555739531E-14,-1.166632762597E-13,
    1.55E+04));
#203 = CARTESIAN_POINT('',(1.347111479062E-13,-2.333265525195E-13,
    9.5E+03));
#204 = CARTESIAN_POINT('',(2.2E+03,-3.810511776652E+03,9.5E+03));
#205 = CARTESIAN_POINT('',(2.2E+03,-3.810511776652E+03,1.25E+04));
#206 = CARTESIAN_POINT('',(2.2E+03,-3.810511776652E+03,1.55E+04));
#207 = CARTESIAN_POINT('',(1.347111479062E-13,-2.333265525195E-13,
    1.55E+04));
#208 = CARTESIAN_POINT('',(1.347111479062E-13,0.,9.5E+03));
#209 = CARTESIAN_POINT('',(2.2E+03,0.,9.5E+03));
#210 = CARTESIAN_POINT('',(2.2E+03,0.,1.25E+04));
#211 = CARTESIAN_POINT('',(2.2E+03,0.,1.55E+04));
#212 = CARTESIAN_POINT('',(1.347111479062E-13,0.,1.55E+04));
#213 = ( GEOMETRIC_REPRESENTATION_CONTEXT(3) 
GLOBAL_UNCERTAINTY_ASSIGNED_CONTEXT((#217)) GLOBAL_UNIT_ASSIGNED_CONTEXT
((#214,#215,#216)) REPRESENTATION_CONTEXT('Context #1',
  '3D Context with UNIT and UNCERTAINTY') );
#214 = ( LENGTH_UNIT() NAMED_UNIT(*) SI_UNIT(.MILLI.,.METRE.) );
#215 = ( NAMED_UNIT(*) PLANE_ANGLE_UNIT() SI_UNIT($,.RADIAN.) );
#216 = ( NAMED_UNIT(*) SI_UNIT($,.STERADIAN.) SOLID_ANGLE_UNIT() );
#217 = UNCERTAINTY_MEASURE_WITH_UNIT(LENGTH_MEASURE(1.E-07),#214,
  'distance_accuracy_value','confusion accuracy');
#218 = CONTEXT_DEPENDENT_SHAPE_REPRESENTATION(#219,#221);
#219 = ( REPRESENTATION_RELATIONSHIP('','',#169,#10) 
REPRESENTATION_RELATIONSHIP_WITH_TRANSFORMATION(#220) 
SHAPE_REPRESENTATION_RELATIONSHIP() );
#220 = ITEM_DEFINED_TRANSFORMATION('','',#11,#19);
#221 = PRODUCT_DEFINITION_SHAPE('Placement','Placement of an item',#222
  );
#222 = NEXT_ASSEMBLY_USAGE_OCCURRENCE('260','part1','',#5,#164,$);
#223 = PRODUCT_RELATED_PRODUCT_CATEGORY('part',$,(#166));
#224 = SHAPE_DEFINITION_REPRESENTATION(#225,#231);
#225 = PRODUCT_DEFINITION_SHAPE('','',#226);
#226 = PRODUCT_DEFINITION('design','',#227,#230);
#227 = PRODUCT_DEFINITION_FORMATION('','',#228);
#228 = PRODUCT('part2','part2','',(#229));
#229 = PRODUCT_CONTEXT('',#2,'mechanical');
#230 = PRODUCT_DEFINITION_CONTEXT('part definition',#2,'design');
#231 = ADVANCED_BREP_SHAPE_REPRESENTATION('',(#11,#232),#330);
#232 = MANIFOLD_SOLID_BREP('',#233);
#233 = CLOSED_SHELL('',(#234,#322,#326));
#234 = ADVANCED_FACE('',(#235),#248,.T.);
#235 = FACE_BOUND('',#236,.T.);
#236 = EDGE_LOOP('',(#237,#271,#294,#321));
#237 = ORIENTED_EDGE('',*,*,#238,.F.);
#238 = EDGE_CURVE('',#239,#239,#241,.T.);
#239 = VERTEX_POINT('',#240);
#240 = CARTESIAN_POINT('',(-580.,400.,1.6E+04));
#241 = SURFACE_CURVE('',#242,(#247,#259),.PCURVE_S1.);
#242 = CIRCLE('',#243,120.);
#243 = AXIS2_PLACEMENT_3D('',#244,#245,#246);
#244 = CARTESIAN_POINT('',(-700.,400.,1.6E+04));
#245 = DIRECTION('',(0.,0.,1.));
#246 = DIRECTION('',(1.,0.,-0.));
#247 = PCURVE('',#248,#253);
#248 = CONICAL_SURFACE('',#249,180.,3.749982422023E-03);
#249 = AXIS2_PLACEMENT_3D('',#250,#251,#252);
#250 = CARTESIAN_POINT('',(-700.,400.,0.));
#251 = DIRECTION('',(-0.,-0.,-1.));
#252 = DIRECTION('',(1.,0.,-0.));
#253 = DEFINITIONAL_REPRESENTATION('',(#254),#258);
#254 = LINE('',#255,#256);
#255 = CARTESIAN_POINT('',(-0.,-1.6E+04));
#256 = VECTOR('',#257,1.);
#257 = DIRECTION('',(-1.,-0.));
#258 = ( GEOMETRIC_REPRESENTATION_CONTEXT(2) 
PARAMETRIC_REPRESENTATION_CONTEXT() REPRESENTATION_CONTEXT('2D SPACE',''
  ) );
#259 = PCURVE('',#260,#265);
#260 = PLANE('',#261);
#261 = AXIS2_PLACEMENT_3D('',#262,#263,#264);
#262 = CARTESIAN_POINT('',(-700.,400.,1.6E+04));
#263 = DIRECTION('',(0.,0.,1.));
#264 = DIRECTION('',(1.,0.,-0.));
#265 = DEFINITIONAL_REPRESENTATION('',(#266),#270);
#266 = CIRCLE('',#267,120.);
#267 = AXIS2_PLACEMENT_2D('',#268,#269);
#268 = CARTESIAN_POINT('',(0.,0.));
#269 = DIRECTION('',(1.,0.));
#270 = ( GEOMETRIC_REPRESENTATION_CONTEXT(2) 
PARAMETRIC_REPRESENTATION_CONTEXT() REPRESENTATION_CONTEXT('2D SPACE',''
  ) );
#271 = ORIENTED_EDGE('',*,*,#272,.F.);
#272 = EDGE_CURVE('',#273,#239,#275,.T.);
#273 = VERTEX_POINT('',#274);
#274 = CARTESIAN_POINT('',(-520.,400.,0.));
#275 = SEAM_CURVE('',#276,(#280,#287),.PCURVE_S1.);
#276 = LINE('',#277,#278);
#277 = CARTESIAN_POINT('',(-520.,400.,0.));
#278 = VECTOR('',#279,1.);
#279 = DIRECTION('',(-3.749973633091E-03,9.184786413303E-19,
    0.999992968824));
#280 = PCURVE('',#248,#281);
#281 = DEFINITIONAL_REPRESENTATION('',(#282),#286);
#282 = LINE('',#283,#284);
#283 = CARTESIAN_POINT('',(-6.28318530718,0.));
#284 = VECTOR('',#285,1.);
#285 = DIRECTION('',(-0.,-1.));
#286 = ( GEOMETRIC_REPRESENTATION_CONTEXT(2) 
PARAMETRIC_REPRESENTATION_CONTEXT() REPRESENTATION_CONTEXT('2D SPACE',''
  ) );
#287 = PCURVE('',#248,#288);
#288 = DEFINITIONAL_REPRESENTATION('',(#289),#293);
#289 = LINE('',#290,#291);
#290 = CARTESIAN_POINT('',(0.,-0.));
#291 = VECTOR('',#292,1.);
#292 = DIRECTION('',(-0.,-1.));
#293 = ( GEOMETRIC_REPRESENTATION_CONTEXT(2) 
PARAMETRIC_REPRESENTATION_CONTEXT() REPRESENTATION_CONTEXT('2D SPACE',''
  ) );
#294 = ORIENTED_EDGE('',*,*,#295,.T.);
#295 = EDGE_CURVE('',#273,#273,#296,.T.);
#296 = SURFACE_CURVE('',#297,(#302,#309),.PCURVE_S1.);
#297 = CIRCLE('',#298,180.);
#298 = AXIS2_PLACEMENT_3D('',#299,#300,#301);
#299 = CARTESIAN_POINT('',(-700.,400.,0.));
#300 = DIRECTION('',(0.,0.,1.));
#301 = DIRECTION('',(1.,0.,-0.));
#302 = PCURVE('',#248,#303);
#303 = DEFINITIONAL_REPRESENTATION('',(#304),#308);
#304 = LINE('',#305,#306);
#305 = CARTESIAN_POINT('',(-0.,-0.));
#306 = VECTOR('',#307,1.);
#307 = DIRECTION('',(-1.,-0.));
#308 = ( GEOMETRIC_REPRESENTATION_CONTEXT(2) 
PARAMETRIC_REPRESENTATION_CONTEXT() REPRESENTATION_CONTEXT('2D SPACE',''
  ) );
#309 = PCURVE('',#310,#315);
#310 = PLANE('',#311);
#311 = AXIS2_PLACEMENT_3D('',#312,#313,#314);
#312 = CARTESIAN_POINT('',(-700.,400.,0.));
#313 = DIRECTION('',(0.,0.,1.));
#314 = DIRECTION('',(1.,0.,-0.));
#315 = DEFINITIONAL_REPRESENTATION('',(#316),#320);
#316 = CIRCLE('',#317,180.);
#317 = AXIS2_PLACEMENT_2D('',#318,#319);
#318 = CARTESIAN_POINT('',(0.,0.));
#319 = DIRECTION('',(1.,0.));
#320 = ( GEOMETRIC_REPRESENTATION_CONTEXT(2) 
PARAMETRIC_REPRESENTATION_CONTEXT() REPRESENTATION_CONTEXT('2D SPACE',''
  ) );
#321 = ORIENTED_EDGE('',*,*,#272,.T.);
#322 = ADVANCED_FACE('',(#323),#260,.T.);
#323 = FACE_BOUND('',#324,.T.);
#324 = EDGE_LOOP('',(#325));
#325 = ORIENTED_EDGE('',*,*,#238,.T.);
#326 = ADVANCED_FACE('',(#327),#310,.F.);
#327 = FACE_BOUND('',#328,.T.);
#328 = EDGE_LOOP('',(#329));
#329 = ORIENTED_EDGE('',*,*,#295,.F.);
#330 = ( GEOMETRIC_REPRESENTATION_CONTEXT(3) 
GLOBAL_UNCERTAINTY_ASSIGNED_CONTEXT((#334)) GLOBAL_UNIT_ASSIGNED_CONTEXT
((#331,#332,#333)) REPRESENTATION_CONTEXT('Context #1',
  '3D Context with UNIT and UNCERTAINTY') );
#331 = ( LENGTH_UNIT() NAMED_UNIT(*) SI_UNIT(.MILLI.,.METRE.) );
#332 = ( NAMED_UNIT(*) PLANE_ANGLE_UNIT() SI_UNIT($,.RADIAN.) );
#333 = ( NAMED_UNIT(*) SI_UNIT($,.STERADIAN.) SOLID_ANGLE_UNIT() );
#334 = UNCERTAINTY_MEASURE_WITH_UNIT(LENGTH_MEASURE(1.E-07),#331,
  'distance_accuracy_value','confusion accuracy');
#335 = CONTEXT_DEPENDENT_SHAPE_REPRESENTATION(#336,#338);
#336 = ( REPRESENTATION_RELATIONSHIP('','',#231,#10) 
REPRESENTATION_RELATIONSHIP_WITH_TRANSFORMATION(#337) 
SHAPE_REPRESENTATION_RELATIONSHIP() );
#337 = ITEM_DEFINED_TRANSFORMATION('','',#11,#23);
#338 = PRODUCT_DEFINITION_SHAPE('Placement','Placement of an item',#339
  );
#339 = NEXT_ASSEMBLY_USAGE_OCCURRENCE('261','part2','',#5,#226,$);
#340 = PRODUCT_RELATED_PRODUCT_CATEGORY('part',$,(#228));
#341 = SHAPE_DEFINITION_REPRESENTATION(#342,#348);
#342 = PRODUCT_DEFINITION_SHAPE('','',#343);
#343 = PRODUCT_DEFINITION('design','',#344,#347);
#344 = PRODUCT_DEFINITION_FORMATION('','',#345);
#345 = PRODUCT('part3','part3','',(#346));
#346 = PRODUCT_CONTEXT('',#2,'mechanical');
#347 = PRODUCT_DEFINITION_CONTEXT('part definition',#2,'design');
#348 = ADVANCED_BREP_SHAPE_REPRESENTATION('',(#11,#349),#392);
#349 = MANIFOLD_SOLID_BREP('',#350);
#350 = CLOSED_SHELL('',(#351));
#351 = ADVANCED_FACE('',(#352),#356,.T.);
#352 = FACE_BOUND('',#353,.T.);
#353 = VERTEX_LOOP('',#354);
#354 = VERTEX_POINT('',#355);
#355 = CARTESIAN_POINT('',(-700.,400.,9.5E+03));
#356 = ( BOUNDED_SURFACE() B_SPLINE_SURFACE(2,2,(
    (#357,#358,#359,#360,#361)
    ,(#362,#363,#364,#365,#366)
    ,(#367,#368,#369,#370,#371)
    ,(#372,#373,#374,#375,#376)
    ,(#377,#378,#379,#380,#381)
    ,(#382,#383,#384,#385,#386)
    ,(#387,#388,#389,#390,#391
)),.UNSPECIFIED.,.T.,.F.,.F.) B_SPLINE_SURFACE_WITH_KNOTS((1,2,2,2,2,1),
  (3,2,3),(-2.094395102393,0.,2.094395102393,4.188790204786,
    6.28318530718,8.377580409573),(-1.570796326795,0.,1.570796326795),
.UNSPECIFIED.) GEOMETRIC_REPRESENTATION_ITEM() RATIONAL_B_SPLINE_SURFACE
((
    (1.,0.707106781187,1.,0.707106781187,1.)
    ,(0.5,0.353553390593,0.5,0.353553390593,0.5)
    ,(1.,0.707106781187,1.,0.707106781187,1.)
    ,(0.5,0.353553390593,0.5,0.353553390593,0.5)
    ,(1.,0.707106781187,1.,0.707106781187,1.)
    ,(0.5,0.353553390593,0.5,0.353553390593,0.5)
,(1.,0.707106781187,1.,0.707106781187,1.
))) REPRESENTATION_ITEM('') SURFACE() );
#357 = CARTESIAN_POINT('',(-700.,400.,9.5E+03));
#358 = CARTESIAN_POINT('',(1.5E+03,400.,9.5E+03));
#359 = CARTESIAN_POINT('',(1.5E+03,400.,1.25E+04));
#360 = CARTESIAN_POINT('',(1.5E+03,400.,1.55E+04));
#361 = CARTESIAN_POINT('',(-700.,400.,1.55E+04));
#362 = CARTESIAN_POINT('',(-700.,400.,9.5E+03));
#363 = CARTESIAN_POINT('',(1.5E+03,4.210511776652E+03,9.5E+03));
#364 = CARTESIAN_POINT('',(1.5E+03,4.210511776652E+03,1.25E+04));
#365 = CARTESIAN_POINT('',(1.5E+03,4.210511776652E+03,1.55E+04));
#366 = CARTESIAN_POINT('',(-700.,400.,1.55E+04));
#367 = CARTESIAN_POINT('',(-700.,400.,9.5E+03));
#368 = CARTESIAN_POINT('',(-1.8E+03,2.305255888326E+03,9.5E+03));
#369 = CARTESIAN_POINT('',(-1.8E+03,2.305255888326E+03,1.25E+04));
#370 = CARTESIAN_POINT('',(-1.8E+03,2.305255888326E+03,1.55E+04));
#371 = CARTESIAN_POINT('',(-700.,400.,1.55E+04));
#372 = CARTESIAN_POINT('',(-700.,400.,9.5E+03));
#373 = CARTESIAN_POINT('',(-5.1E+03,400.,9.5E+03));
#374 = CARTESIAN_POINT('',(-5.1E+03,400.,1.25E+04));
#375 = CARTESIAN_POINT('',(-5.1E+03,400.,1.55E+04));
#376 = CARTESIAN_POINT('',(-700.,400.,1.55E+04));
#377 = CARTESIAN_POINT('',(-700.,400.,9.5E+03));
#378 = CARTESIAN_POINT('',(-1.8E+03,-1.505255888326E+03,9.5E+03));
#379 = CARTESIAN_POINT('',(-1.8E+03,-1.505255888326E+03,1.25E+04));
#380 = CARTESIAN_POINT('',(-1.8E+03,-1.505255888326E+03,1.55E+04));
#381 = CARTESIAN_POINT('',(-700.,400.,1.55E+04));
#382 = CARTESIAN_POINT('',(-700.,400.,9.5E+03));
#383 = CARTESIAN_POINT('',(1.5E+03,-3.410511776652E+03,9.5E+03));
#384 = CARTESIAN_POINT('',(1.5E+03,-3.410511776652E+03,1.25E+04));
#385 = CARTESIAN_POINT('',(1.5E+03,-3.410511776652E+03,1.55E+04));
#386 = CARTESIAN_POINT('',(-700.,400.,1.55E+04));
#387 = CARTESIAN_POINT('',(-700.,400.,9.5E+03));
#388 = CARTESIAN_POINT('',(1.5E+03,400.,9.5E+03));
#389 = CARTESIAN_POINT('',(1.5E+03,400.,1.25E+04));
#390 = CARTESIAN_POINT('',(1.5E+03,400.,1.55E+04));
#391 = CARTESIAN_POINT('',(-700.,400.,1.55E+04));
#392 = ( GEOMETRIC_REPRESENTATION_CONTEXT(3) 
GLOBAL_UNCERTAINTY_ASSIGNED_CONTEXT((#396)) GLOBAL_UNIT_ASSIGNED_CONTEXT
((#393,#394,#395)) REPRESENTATION_CONTEXT('Context #1',
  '3D Context with UNIT and UNCERTAINTY') );
#393 = ( LENGTH_UNIT() NAMED_UNIT(*) SI_UNIT(.MILLI.,.METRE.) );
#394 = ( NAMED_UNIT(*) PLANE_ANGLE_UNIT() SI_UNIT($,.RADIAN.) );
#395 = ( NAMED_UNIT(*) SI_UNIT($,.STERADIAN.) SOLID_ANGLE_UNIT() );
#396 = UNCERTAINTY_MEASURE_WITH_UNIT(LENGTH_MEASURE(1.E-07),#393,
  'distance_accuracy_value','confusion accuracy');
#397 = CONTEXT_DEPENDENT_SHAPE_REPRESENTATION(#398,#400);
#398 = ( REPRESENTATION_RELATIONSHIP('','',#348,#10) 
REPRESENTATION_RELATIONSHIP_WITH_TRANSFORMATION(#399) 
SHAPE_REPRESENTATION_RELATIONSHIP() );
#399 = ITEM_DEFINED_TRANSFORMATION('','',#11,#27);
#400 = PRODUCT_DEFINITION_SHAPE('Placement','Placement of an item',#401
  );
#401 = NEXT_ASSEMBLY_USAGE_OCCURRENCE('262','part3','',#5,#343,$);
#402 = PRODUCT_RELATED_PRODUCT_CATEGORY('part',$,(#345));
#403 = SHAPE_DEFINITION_REPRESENTATION(#404,#410);
#404 = PRODUCT_DEFINITION_SHAPE('','',#405);
#405 = PRODUCT_DEFINITION('design','',#406,#409);
#406 = PRODUCT_DEFINITION_FORMATION('','',#407);
#407 = PRODUCT('part4','part4','',(#408));
#408 = PRODUCT_CONTEXT('',#2,'mechanical');
#409 = PRODUCT_DEFINITION_CONTEXT('part definition',#2,'design');
#410 = ADVANCED_BREP_SHAPE_REPRESENTATION('',(#11,#411),#509);
#411 = MANIFOLD_SOLID_BREP('',#412);
#412 = CLOSED_SHELL('',(#413,#501,#505));
#413 = ADVANCED_FACE('',(#414),#427,.T.);
#414 = FACE_BOUND('',#415,.T.);
#415 = EDGE_LOOP('',(#416,#450,#473,#500));
#416 = ORIENTED_EDGE('',*,*,#417,.F.);
#417 = EDGE_CURVE('',#418,#418,#420,.T.);
#418 = VERTEX_POINT('',#419);
#419 = CARTESIAN_POINT('',(720.,-300.,1.6E+04));
#420 = SURFACE_CURVE('',#421,(#426,#438),.PCURVE_S1.);
#421 = CIRCLE('',#422,120.);
#422 = AXIS2_PLACEMENT_3D('',#423,#424,#425);
#423 = CARTESIAN_POINT('',(600.,-300.,1.6E+04));
#424 = DIRECTION('',(0.,0.,1.));
#425 = DIRECTION('',(1.,0.,-0.));
#426 = PCURVE('',#427,#432);
#427 = CONICAL_SURFACE('',#428,170.,3.124989827534E-03);
#428 = AXIS2_PLACEMENT_3D('',#429,#430,#431);
#429 = CARTESIAN_POINT('',(600.,-300.,0.));
#430 = DIRECTION('',(-0.,-0.,-1.));
#431 = DIRECTION('',(1.,0.,-0.));
#432 = DEFINITIONAL_REPRESENTATION('',(#433),#437);
#433 = LINE('',#434,#435);
#434 = CARTESIAN_POINT('',(-0.,-1.6E+04));
#435 = VECTOR('',#436,1.);
#436 = DIRECTION('',(-1.,-0.));
#437 = ( GEOMETRIC_REPRESENTATION_CONTEXT(2) 
PARAMETRIC_REPRESENTATION_CONTEXT() REPRESENTATION_CONTEXT('2D SPACE',''
  ) );
#438 = PCURVE('',#439,#444);
#439 = PLANE('',#440);
#440 = AXIS2_PLACEMENT_3D('',#441,#442,#443);
#441 = CARTESIAN_POINT('',(600.,-300.,1.6E+04));
#442 = DIRECTION('',(0.,0.,1.));
#443 = DIRECTION('',(1.,0.,-0.));
#444 = DEFINITIONAL_REPRESENTATION('',(#445),#449);
#445 = CIRCLE('',#446,120.);
#446 = AXIS2_PLACEMENT_2D('',#447,#448);
#447 = CARTESIAN_POINT('',(0.,0.));
#448 = DIRECTION('',(1.,0.));
#449 = ( GEOMETRIC_REPRESENTATION_CONTEXT(2) 
PARAMETRIC_REPRESENTATION_CONTEXT() REPRESENTATION_CONTEXT('2D SPACE',''
  ) );
#450 = ORIENTED_EDGE('',*,*,#451,.F.);
#451 = EDGE_CURVE('',#452,#418,#454,.T.);
#452 = VERTEX_POINT('',#453);
#453 = CARTESIAN_POINT('',(770.,-300.,0.));
#454 = SEAM_CURVE('',#455,(#459,#466),.PCURVE_S1.);
#455 = LINE('',#456,#457);
#456 = CARTESIAN_POINT('',(770.,-300.,0.));
#457 = VECTOR('',#458,1.);
#458 = DIRECTION('',(-3.124984741323E-03,7.65400512169E-19,
    0.999995117223));
#459 = PCURVE('',#427,#460);
#460 = DEFINITIONAL_REPRESENTATION('',(#461),#465);
#461 = LINE('',#462,#463);
#462 = CARTESIAN_POINT('',(-6.28318530718,0.));
#463 = VECTOR('',#464,1.);
#464 = DIRECTION('',(-0.,-1.));
#465 = ( GEOMETRIC_REPRESENTATION_CONTEXT(2) 
PARAMETRIC_REPRESENTATION_CONTEXT() REPRESENTATION_CONTEXT('2D SPACE',''
  ) );
#466 = PCURVE('',#427,#467);
#467 = DEFINITIONAL_REPRESENTATION('',(#468),#472);
#468 = LINE('',#469,#470);
#469 = CARTESIAN_POINT('',(0.,-0.));
#470 = VECTOR('',#471,1.);
#471 = DIRECTION('',(-0.,-1.));
#472 = ( GEOMETRIC_REPRESENTATION_CONTEXT(2) 
PARAMETRIC_REPRESENTATION_CONTEXT() REPRESENTATION_CONTEXT('2D SPACE',''
  ) );
#473 = ORIENTED_EDGE('',*,*,#474,.T.);
#474 = EDGE_CURVE('',#452,#452,#475,.T.);
#475 = SURFACE_CURVE('',#476,(#481,#488),.PCURVE_S1.);
#476 = CIRCLE('',#477,170.);
#477 = AXIS2_PLACEMENT_3D('',#478,#479,#480);
#478 = CARTESIAN_POINT('',(600.,-300.,0.));
#479 = DIRECTION('',(0.,0.,1.));
#480 = DIRECTION('',(1.,0.,-0.));
#481 = PCURVE('',#427,#482);
#482 = DEFINITIONAL_REPRESENTATION('',(#483),#487);
#483 = LINE('',#484,#485);
#484 = CARTESIAN_POINT('',(-0.,-0.));
#485 = VECTOR('',#486,1.);
#486 = DIRECTION('',(-1.,-0.));
#487 = ( GEOMETRIC_REPRESENTATION_CONTEXT(2) 
PARAMETRIC_REPRESENTATION_CONTEXT() REPRESENTATION_CONTEXT('2D SPACE',''
  ) );
#488 = PCURVE('',#489,#494);
#489 = PLANE('',#490);
#490 = AXIS2_PLACEMENT_3D('',#491,#492,#493);
#491 = CARTESIAN_POINT('',(600.,-300.,0.));
#492 = DIRECTION('',(0.,0.,1.));
#493 = DIRECTION('',(1.,0.,-0.));
#494 = DEFINITIONAL_REPRESENTATION('',(#495),#499);
#495 = CIRCLE('',#496,170.);
#496 = AXIS2_PLACEMENT_2D('',#497,#498);
#497 = CARTESIAN_POINT('',(0.,0.));
#498 = DIRECTION('',(1.,0.));
#499 = ( GEOMETRIC_REPRESENTATION_CONTEXT(2) 
PARAMETRIC_REPRESENTATION_CONTEXT() REPRESENTATION_CONTEXT('2D SPACE',''
  ) );
#500 = ORIENTED_EDGE('',*,*,#451,.T.);
#501 = ADVANCED_FACE('',(#502),#439,.T.);
#502 = FACE_BOUND('',#503,.T.);
#503 = EDGE_LOOP('',(#504));
#504 = ORIENTED_EDGE('',*,*,#417,.T.);
#505 = ADVANCED_FACE('',(#506),#489,.F.);
#506 = FACE_BOUND('',#507,.T.);
#507 = EDGE_LOOP('',(#508));
#508 = ORIENTED_EDGE('',*,*,#474,.F.);
#509 = ( GEOMETRIC_REPRESENTATION_CONTEXT(3) 
GLOBAL_UNCERTAINTY_ASSIGNED_CONTEXT((#513)) GLOBAL_UNIT_ASSIGNED_CONTEXT
((#510,#511,#512)) REPRESENTATION_CONTEXT('Context #1',
  '3D Context with UNIT and UNCERTAINTY') );
#510 = ( LENGTH_UNIT() NAMED_UNIT(*) SI_UNIT(.MILLI.,.METRE.) );
#511 = ( NAMED_UNIT(*) PLANE_ANGLE_UNIT() SI_UNIT($,.RADIAN.) );
#512 = ( NAMED_UNIT(*) SI_UNIT($,.STERADIAN.) SOLID_ANGLE_UNIT() );
#513 = UNCERTAINTY_MEASURE_WITH_UNIT(LENGTH_MEASURE(1.E-07),#510,
  'distance_accuracy_value','confusion accuracy');
#514 = CONTEXT_DEPENDENT_SHAPE_REPRESENTATION(#515,#517);
#515 = ( REPRESENTATION_RELATIONSHIP('','',#410,#10) 
REPRESENTATION_RELATIONSHIP_WITH_TRANSFORMATION(#516) 
SHAPE_REPRESENTATION_RELATIONSHIP() );
#516 = ITEM_DEFINED_TRANSFORMATION('','',#11,#31);
#517 = PRODUCT_DEFINITION_SHAPE('Placement','Placement of an item',#518
  );
#518 = NEXT_ASSEMBLY_USAGE_OCCURRENCE('263','part4','',#5,#405,$);
#519 = PRODUCT_RELATED_PRODUCT_CATEGORY('part',$,(#407));
#520 = SHAPE_DEFINITION_REPRESENTATION(#521,#527);
#521 = PRODUCT_DEFINITION_SHAPE('','',#522);
#522 = PRODUCT_DEFINITION('design','',#523,#526);
#523 = PRODUCT_DEFINITION_FORMATION('','',#524);
#524 = PRODUCT('part5','part5','',(#525));
#525 = PRODUCT_CONTEXT('',#2,'mechanical');
#526 = PRODUCT_DEFINITION_CONTEXT('part definition',#2,'design');
#527 = ADVANCED_BREP_SHAPE_REPRESENTATION('',(#11,#528),#571);
#528 = MANIFOLD_SOLID_BREP('',#529);
#529 = CLOSED_SHELL('',(#530));
#530 = ADVANCED_FACE('',(#531),#535,.T.);
#531 = FACE_BOUND('',#532,.T.);
#532 = VERTEX_LOOP('',#533);
#533 = VERTEX_POINT('',#534);
#534 = CARTESIAN_POINT('',(600.,-300.,9.5E+03));
#535 = ( BOUNDED_SURFACE() B_SPLINE_SURFACE(2,2,(
    (#536,#537,#538,#539,#540)
    ,(#541,#542,#543,#544,#545)
    ,(#546,#547,#548,#549,#550)
    ,(#551,#552,#553,#554,#555)
    ,(#556,#557,#558,#559,#560)
    ,(#561,#562,#563,#564,#565)
    ,(#566,#567,#568,#569,#570
)),.UNSPECIFIED.,.T.,.F.,.F.) B_SPLINE_SURFACE_WITH_KNOTS((1,2,2,2,2,1),
  (3,2,3),(-2.094395102393,0.,2.094395102393,4.188790204786,
    6.28318530718,8.377580409573),(-1.570796326795,0.,1.570796326795),
.UNSPECIFIED.) GEOMETRIC_REPRESENTATION_ITEM() RATIONAL_B_SPLINE_SURFACE
((
    (1.,0.707106781187,1.,0.707106781187,1.)
    ,(0.5,0.353553390593,0.5,0.353553390593,0.5)
    ,(1.,0.707106781187,1.,0.707106781187,1.)
    ,(0.5,0.353553390593,0.5,0.353553390593,0.5)
    ,(1.,0.707106781187,1.,0.707106781187,1.)
    ,(0.5,0.353553390593,0.5,0.353553390593,0.5)
,(1.,0.707106781187,1.,0.707106781187,1.
))) REPRESENTATION_ITEM('') SURFACE() );
#536 = CARTESIAN_POINT('',(600.,-300.,9.5E+03));
#537 = CARTESIAN_POINT('',(2.8E+03,-300.,9.5E+03));
#538 = CARTESIAN_POINT('',(2.8E+03,-300.,1.25E+04));
#539 = CARTESIAN_POINT('',(2.8E+03,-300.,1.55E+04));
#540 = CARTESIAN_POINT('',(600.,-300.,1.55E+04));
#541 = CARTESIAN_POINT('',(600.,-300.,9.5E+03));
#542 = CARTESIAN_POINT('',(2.8E+03,3.510511776652E+03,9.5E+03));
#543 = CARTESIAN_POINT('',(2.8E+03,3.510511776652E+03,1.25E+04));
#544 = CARTESIAN_POINT('',(2.8E+03,3.510511776652E+03,1.55E+04));
#545 = CARTESIAN_POINT('',(600.,-300.,1.55E+04));
#546 = CARTESIAN_POINT('',(600.,-300.,9.5E+03));
#547 = CARTESIAN_POINT('',(-499.9999999999,1.605255888326E+03,9.5E+03));
#548 = CARTESIAN_POINT('',(-499.9999999999,1.605255888326E+03,1.25E+04)
  );
#549 = CARTESIAN_POINT('',(-499.9999999999,1.605255888326E+03,1.55E+04)
  );
#550 = CARTESIAN_POINT('',(600.,-300.,1.55E+04));
#551 = CARTESIAN_POINT('',(600.,-300.,9.5E+03));
#552 = CARTESIAN_POINT('',(-3.8E+03,-299.9999999999,9.5E+03));
#553 = CARTESIAN_POINT('',(-3.8E+03,-299.9999999999,1.25E+04));
#554 = CARTESIAN_POINT('',(-3.8E+03,-299.9999999999,1.55E+04));
#555 = CARTESIAN_POINT('',(600.,-300.,1.55E+04));
#556 = CARTESIAN_POINT('',(600.,-300.,9.5E+03));
#557 = CARTESIAN_POINT('',(-500.,-2.205255888326E+03,9.5E+03));
#558 = CARTESIAN_POINT('',(-500.,-2.205255888326E+03,1.25E+04));
#559 = CARTESIAN_POINT('',(-500.,-2.205255888326E+03,1.55E+04));
#560 = CARTESIAN_POINT('',(600.,-300.,1.55E+04));
#561 = CARTESIAN_POINT('',(600.,-300.,9.5E+03));
#562 = CARTESIAN_POINT('',(2.8E+03,-4.110511776652E+03,9.5E+03));
#563 = CARTESIAN_POINT('',(2.8E+03,-4.110511776652E+03,1.25E+04));
#564 = CARTESIAN_POINT('',(2.8E+03,-4.110511776652E+03,1.55E+04));
#565 = CARTESIAN_POINT('',(600.,-300.,1.55E+04));
#566 = CARTESIAN_POINT('',(600.,-300.,9.5E+03));
#567 = CARTESIAN_POINT('',(2.8E+03,-300.,9.5E+03));
#568 = CARTESIAN_POINT('',(2.8E+03,-300.,1.25E+04));
#569 = CARTESIAN_POINT('',(2.8E+03,-300.,1.55E+04));
#570 = CARTESIAN_POINT('',(600.,-300.,1.55E+04));
#571 = ( GEOMETRIC_REPRESENTATION_CONTEXT(3) 
GLOBAL_UNCERTAINTY_ASSIGNED_CONTEXT((#575)) GLOBAL_UNIT_ASSIGNED_CONTEXT
((#572,#573,#574)) REPRESENTATION_CONTEXT('Context #1',
  '3D Context with UNIT and UNCERTAINTY') );
#572 = ( LENGTH_UNIT() NAMED_UNIT(*) SI_UNIT(.MILLI.,.METRE.) );
#573 = ( NAMED_UNIT(*) PLANE_ANGLE_UNIT() SI_UNIT($,.RADIAN.) );
#574 = ( NAMED_UNIT(*) SI_UNIT($,.STERADIAN.) SOLID_ANGLE_UNIT() );
#575 = UNCERTAINTY_MEASURE_WITH_UNIT(LENGTH_MEASURE(1.E-07),#572,
  'distance_accuracy_value','confusion accuracy');
#576 = CONTEXT_DEPENDENT_SHAPE_REPRESENTATION(#577,#579);
#577 = ( REPRESENTATION_RELATIONSHIP('','',#527,#10) 
REPRESENTATION_RELATIONSHIP_WITH_TRANSFORMATION(#578) 
SHAPE_REPRESENTATION_RELATIONSHIP() );
#578 = ITEM_DEFINED_TRANSFORMATION('','',#11,#35);
#579 = PRODUCT_DEFINITION_SHAPE('Placement','Placement of an item',#580
  );
#580 = NEXT_ASSEMBLY_USAGE_OCCURRENCE('264','part5','',#5,#522,$);
#581 = PRODUCT_RELATED_PRODUCT_CATEGORY('part',$,(#524));
#582 = MECHANICAL_DESIGN_GEOMETRIC_PRESENTATION_REPRESENTATION('',(#583)
  ,#330);
#583 = STYLED_ITEM('color',(#584),#232);
#584 = PRESENTATION_STYLE_ASSIGNMENT((#585));
#585 = SURFACE_STYLE_USAGE(.BOTH.,#586);
#586 = SURFACE_SIDE_STYLE('',(#587));
#587 = SURFACE_STYLE_FILL_AREA(#588);
#588 = FILL_AREA_STYLE('',(#589));
#589 = FILL_AREA_STYLE_COLOUR('',#590);
#590 = COLOUR_RGB('',0.929411760963,0.917647049334,0.878431359152);
#591 = MECHANICAL_DESIGN_GEOMETRIC_PRESENTATION_REPRESENTATION('',(#592)
  ,#151);
#592 = STYLED_ITEM('color',(#593),#53);
#593 = PRESENTATION_STYLE_ASSIGNMENT((#594));
#594 = SURFACE_STYLE_USAGE(.BOTH.,#595);
#595 = SURFACE_SIDE_STYLE('',(#596));
#596 = SURFACE_STYLE_FILL_AREA(#597);
#597 = FILL_AREA_STYLE('',(#598));
#598 = FILL_AREA_STYLE_COLOUR('',#590);
#599 = MECHANICAL_DESIGN_GEOMETRIC_PRESENTATION_REPRESENTATION('',(#600)
  ,#392);
#600 = STYLED_ITEM('color',(#601),#349);
#601 = PRESENTATION_STYLE_ASSIGNMENT((#602));
#602 = SURFACE_STYLE_USAGE(.BOTH.,#603);
#603 = SURFACE_SIDE_STYLE('',(#604));
#604 = SURFACE_STYLE_FILL_AREA(#605);
#605 = FILL_AREA_STYLE('',(#606));
#606 = FILL_AREA_STYLE_COLOUR('',#607);
#607 = COLOUR_RGB('',0.478431380801,0.658823527652,0.305882355746);
#608 = MECHANICAL_DESIGN_GEOMETRIC_PRESENTATION_REPRESENTATION('',(#609)
  ,#571);
#609 = STYLED_ITEM('color',(#610),#528);
#610 = PRESENTATION_STYLE_ASSIGNMENT((#611));
#611 = SURFACE_STYLE_USAGE(.BOTH.,#612);
#612 = SURFACE_SIDE_STYLE('',(#613));
#613 = SURFACE_STYLE_FILL_AREA(#614);
#614 = FILL_AREA_STYLE('',(#615));
#615 = FILL_AREA_STYLE_COLOUR('',#607);
#616 = MECHANICAL_DESIGN_GEOMETRIC_PRESENTATION_REPRESENTATION('',(#617)
  ,#213);
#617 = STYLED_ITEM('color',(#618),#170);
#618 = PRESENTATION_STYLE_ASSIGNMENT((#619));
#619 = SURFACE_STYLE_USAGE(.BOTH.,#620);
#620 = SURFACE_SIDE_STYLE('',(#621));
#621 = SURFACE_STYLE_FILL_AREA(#622);
#622 = FILL_AREA_STYLE('',(#623));
#623 = FILL_AREA_STYLE_COLOUR('',#607);
#624 = MECHANICAL_DESIGN_GEOMETRIC_PRESENTATION_REPRESENTATION('',(#625)
  ,#509);
#625 = STYLED_ITEM('color',(#626),#411);
#626 = PRESENTATION_STYLE_ASSIGNMENT((#627));
#627 = SURFACE_STYLE_USAGE(.BOTH.,#628);
#628 = SURFACE_SIDE_STYLE('',(#629));
#629 = SURFACE_STYLE_FILL_AREA(#630);
#630 = FILL_AREA_STYLE('',(#631));
#631 = FILL_AREA_STYLE_COLOUR('',#590);
ENDSEC;
END-ISO-10303-21;
