ISO-10303-21;
HEADER;
FILE_DESCRIPTION(('Open CASCADE Model'),'2;1');
FILE_NAME('Open CASCADE Shape Model','2026-09-14T10:53:50',('Author'),(
    'Open CASCADE'),'Open CASCADE STEP processor 7.9','Open CASCADE 7.9'
  ,'Unknown');
FILE_SCHEMA(('AUTOMOTIVE_DESIGN { 1 0 10303 214 1 1 1 1 }'));
ENDSEC;
DATA;
#1 = APPLICATION_PROTOCOL_DEFINITION('international standard',
  'automotive_design',2000,#2);
#2 = APPLICATION_CONTEXT(
  'core data for automotive mechanical design processes');
#3 = SHAPE_DEFINITION_REPRESENTATION(#4,#10);
#4 = PRODUCT_DEFINITION_SHAPE('','',#5);
#5 = PRODUCT_DEFINITION('design','',#6,#9);
#6 = PRODUCT_DEFINITION_FORMATION('','',#7);
#7 = PRODUCT('2fc8e87f-b022-11f1-8f1b-3c9c0f4bdafb',
  '2fc8e87f-b022-11f1-8f1b-3c9c0f4bdafb','',(#8));
#8 = PRODUCT_CONTEXT('',#2,'mechanical');
#9 = PRODUCT_DEFINITION_CONTEXT('part definition',#2,'design');
#10 = SHAPE_REPRESENTATION('',(#11,#15,#19,#23,#27,#31,#35,#39),#43);
#11 = AXIS2_PLACEMENT_3D('',#12,#13,#14);
#12 = CARTESIAN_POINT('',(0.,0.,0.));
#13 = DIRECTION('',(0.,0.,1.));
#14 = DIRECTION('',(1.,0.,-0.));
#15 = AXIS2_PLACEMENT_3D('',#16,#17,#18);
#16 = CARTESIAN_POINT('',(0.,0.,0.));
#17 = DIRECTION('',(0.,0.,1.));
#18 = DIRECTION('',(1.,0.,-0.));
#19 = AXIS2_PLACEMENT_3D('',#20,#21,#22);
#20 = CARTESIAN_POINT('',(0.,0.,0.));
#21 = DIRECTION('',(0.,0.,1.));
#22 = DIRECTION('',(1.,0.,-0.));
#23 = AXIS2_PLACEMENT_3D('',#24,#25,#26);
#24 = CARTESIAN_POINT('',(0.,0.,0.));
#25 = DIRECTION('',(0.,0.,1.));
#26 = DIRECTION('',(1.,0.,-0.));
#27 = AXIS2_PLACEMENT_3D('',#28,#29,#30);
#28 = CARTESIAN_POINT('',(0.,0.,0.));
#29 = DIRECTION('',(0.,0.,1.));
#30 = DIRECTION('',(1.,0.,-0.));
#31 = AXIS2_PLACEMENT_3D('',#32,#33,#34);
#32 = CARTESIAN_POINT('',(0.,0.,0.));
#33 = DIRECTION('',(0.,0.,1.));
#34 = DIRECTION('',(1.,0.,-0.));
#35 = AXIS2_PLACEMENT_3D('',#36,#37,#38);
#36 = CARTESIAN_POINT('',(0.,0.,0.));
#37 = DIRECTION('',(0.,0.,1.));
#38 = DIRECTION('',(1.,0.,-0.));
#39 = AXIS2_PLACEMENT_3D('',#40,#41,#42);
#40 = CARTESIAN_POINT('',(0.,0.,0.));
#41 = DIRECTION('',(0.,0.,1.));
#42 = DIRECTION('',(1.,0.,-0.));
#43 = ( GEOMETRIC_REPRESENTATION_CONTEXT(3) 
GLOBAL_UNCERTAINTY_ASSIGNED_CONTEXT((#47)) GLOBAL_UNIT_ASSIGNED_CONTEXT(
(#44,#45,#46)) REPRESENTATION_CONTEXT('Context #1',
  '3D Context with UNIT and UNCERTAINTY') );
#44 = ( LENGTH_UNIT() NAMED_UNIT(*) SI_UNIT(.MILLI.,.METRE.) );
#45 = ( NAMED_UNIT(*) PLANE_ANGLE_UNIT() SI_UNIT($,.RADIAN.) );
#46 = ( NAMED_UNIT(*) SI_UNIT($,.STERADIAN.) SOLID_ANGLE_UNIT() );
#47 = UNCERTAINTY_MEASURE_WITH_UNIT(LENGTH_MEASURE(1.E-07),#44,
  'distance_accuracy_value','confusion accuracy');
#48 = PRODUCT_RELATED_PRODUCT_CATEGORY('part',$,(#7));
#49 = SHAPE_DEFINITION_REPRESENTATION(#50,#56);
#50 = PRODUCT_DEFINITION_SHAPE('','',#51);
#51 = PRODUCT_DEFINITION('design','',#52,#55);
#52 = PRODUCT_DEFINITION_FORMATION('','',#53);
#53 = PRODUCT('part0','part0','',(#54));
#54 = PRODUCT_CONTEXT('',#2,'mechanical');
#55 = PRODUCT_DEFINITION_CONTEXT('part definition',#2,'design');
#56 = ADVANCED_BREP_SHAPE_REPRESENTATION('',(#11,#57),#155);
#57 = MANIFOLD_SOLID_BREP('',#58);
#58 = CLOSED_SHELL('',(#59,#147,#151));
#59 = ADVANCED_FACE('',(#60),#73,.T.);
#60 = FACE_BOUND('',#61,.T.);
#61 = EDGE_LOOP('',(#62,#96,#119,#146));
#62 = ORIENTED_EDGE('',*,*,#63,.F.);
#63 = EDGE_CURVE('',#64,#64,#66,.T.);
#64 = VERTEX_POINT('',#65);
#65 = CARTESIAN_POINT('',(490.,-2.204364238465E-14,4.E+03));
#66 = SURFACE_CURVE('',#67,(#72,#84),.PCURVE_S1.);
#67 = CIRCLE('',#68,90.);
#68 = AXIS2_PLACEMENT_3D('',#69,#70,#71);
#69 = CARTESIAN_POINT('',(400.,0.,4.E+03));
#70 = DIRECTION('',(0.,0.,1.));
#71 = DIRECTION('',(1.,0.,-0.));
#72 = PCURVE('',#73,#78);
#73 = CONICAL_SURFACE('',#74,150.,1.499887515185E-02);
#74 = AXIS2_PLACEMENT_3D('',#75,#76,#77);
#75 = CARTESIAN_POINT('',(400.,0.,0.));
#76 = DIRECTION('',(-0.,-0.,-1.));
#77 = DIRECTION('',(1.,0.,-0.));
#78 = DEFINITIONAL_REPRESENTATION('',(#79),#83);
#79 = LINE('',#80,#81);
#80 = CARTESIAN_POINT('',(-0.,-4.E+03));
#81 = VECTOR('',#82,1.);
#82 = DIRECTION('',(-1.,-0.));
#83 = ( GEOMETRIC_REPRESENTATION_CONTEXT(2) 
PARAMETRIC_REPRESENTATION_CONTEXT() REPRESENTATION_CONTEXT('2D SPACE',''
  ) );
#84 = PCURVE('',#85,#90);
#85 = PLANE('',#86);
#86 = AXIS2_PLACEMENT_3D('',#87,#88,#89);
#87 = CARTESIAN_POINT('',(400.,0.,4.E+03));
#88 = DIRECTION('',(0.,0.,1.));
#89 = DIRECTION('',(1.,0.,-0.));
#90 = DEFINITIONAL_REPRESENTATION('',(#91),#95);
#91 = CIRCLE('',#92,90.);
#92 = AXIS2_PLACEMENT_2D('',#93,#94);
#93 = CARTESIAN_POINT('',(0.,0.));
#94 = DIRECTION('',(1.,0.));
#95 = ( GEOMETRIC_REPRESENTATION_CONTEXT(2) 
PARAMETRIC_REPRESENTATION_CONTEXT() REPRESENTATION_CONTEXT('2D SPACE',''
  ) );
#96 = ORIENTED_EDGE('',*,*,#97,.F.);
#97 = EDGE_CURVE('',#98,#64,#100,.T.);
#98 = VERTEX_POINT('',#99);
#99 = CARTESIAN_POINT('',(550.,-3.673940397442E-14,0.));
#100 = SEAM_CURVE('',#101,(#105,#112),.PCURVE_S1.);
#101 = LINE('',#102,#103);
#102 = CARTESIAN_POINT('',(550.,-3.673940397442E-14,0.));
#103 = VECTOR('',#104,1.);
#104 = DIRECTION('',(-1.499831278471E-02,3.673527148882E-18,
    0.999887518981));
#105 = PCURVE('',#73,#106);
#106 = DEFINITIONAL_REPRESENTATION('',(#107),#111);
#107 = LINE('',#108,#109);
#108 = CARTESIAN_POINT('',(-6.28318530718,0.));
#109 = VECTOR('',#110,1.);
#110 = DIRECTION('',(-0.,-1.));
#111 = ( GEOMETRIC_REPRESENTATION_CONTEXT(2) 
PARAMETRIC_REPRESENTATION_CONTEXT() REPRESENTATION_CONTEXT('2D SPACE',''
  ) );
#112 = PCURVE('',#73,#113);
#113 = DEFINITIONAL_REPRESENTATION('',(#114),#118);
#114 = LINE('',#115,#116);
#115 = CARTESIAN_POINT('',(0.,-0.));
#116 = VECTOR('',#117,1.);
#117 = DIRECTION('',(-0.,-1.));
#118 = ( GEOMETRIC_REPRESENTATION_CONTEXT(2) 
PARAMETRIC_REPRESENTATION_CONTEXT() REPRESENTATION_CONTEXT('2D SPACE',''
  ) );
#119 = ORIENTED_EDGE('',*,*,#120,.T.);
#120 = EDGE_CURVE('',#98,#98,#121,.T.);
#121 = SURFACE_CURVE('',#122,(#127,#134),.PCURVE_S1.);
#122 = CIRCLE('',#123,150.);
#123 = AXIS2_PLACEMENT_3D('',#124,#125,#126);
#124 = CARTESIAN_POINT('',(400.,0.,0.));
#125 = DIRECTION('',(0.,0.,1.));
#126 = DIRECTION('',(1.,0.,-0.));
#127 = PCURVE('',#73,#128);
#128 = DEFINITIONAL_REPRESENTATION('',(#129),#133);
#129 = LINE('',#130,#131);
#130 = CARTESIAN_POINT('',(-0.,-0.));
#131 = VECTOR('',#132,1.);
#132 = DIRECTION('',(-1.,-0.));
#133 = ( GEOMETRIC_REPRESENTATION_CONTEXT(2) 
PARAMETRIC_REPRESENTATION_CONTEXT() REPRESENTATION_CONTEXT('2D SPACE',''
  ) );
#134 = PCURVE('',#135,#140);
#135 = PLANE('',#136);
#136 = AXIS2_PLACEMENT_3D('',#137,#138,#139);
#137 = CARTESIAN_POINT('',(400.,0.,0.));
#138 = DIRECTION('',(0.,0.,1.));
#139 = DIRECTION('',(1.,0.,-0.));
#140 = DEFINITIONAL_REPRESENTATION('',(#141),#145);
#141 = CIRCLE('',#142,150.);
#142 = AXIS2_PLACEMENT_2D('',#143,#144);
#143 = CARTESIAN_POINT('',(0.,0.));
#144 = DIRECTION('',(1.,0.));
#145 = ( GEOMETRIC_REPRESENTATION_CONTEXT(2) 
PARAMETRIC_REPRESENTATION_CONTEXT() REPRESENTATION_CONTEXT('2D SPACE',''
  ) );
#146 = ORIENTED_EDGE('',*,*,#97,.T.);
#147 = ADVANCED_FACE('',(#148),#85,.T.);
#148 = FACE_BOUND('',#149,.T.);
#149 = EDGE_LOOP('',(#150));
#150 = ORIENTED_EDGE('',*,*,#63,.T.);
#151 = ADVANCED_FACE('',(#152),#135,.F.);
#152 = FACE_BOUND('',#153,.T.);
#153 = EDGE_LOOP('',(#154));
#154 = ORIENTED_EDGE('',*,*,#120,.F.);
#155 = ( GEOMETRIC_REPRESENTATION_CONTEXT(3) 
GLOBAL_UNCERTAINTY_ASSIGNED_CONTEXT((#159)) GLOBAL_UNIT_ASSIGNED_CONTEXT
((#156,#157,#158)) REPRESENTATION_CONTEXT('Context #1',
  '3D Context with UNIT and UNCERTAINTY') );
#156 = ( LENGTH_UNIT() NAMED_UNIT(*) SI_UNIT(.MILLI.,.METRE.) );
#157 = ( NAMED_UNIT(*) PLANE_ANGLE_UNIT() SI_UNIT($,.RADIAN.) );
#158 = ( NAMED_UNIT(*) SI_UNIT($,.STERADIAN.) SOLID_ANGLE_UNIT() );
#159 = UNCERTAINTY_MEASURE_WITH_UNIT(LENGTH_MEASURE(1.E-07),#156,
  'distance_accuracy_value','confusion accuracy');
#160 = CONTEXT_DEPENDENT_SHAPE_REPRESENTATION(#161,#163);
#161 = ( REPRESENTATION_RELATIONSHIP('','',#56,#10) 
REPRESENTATION_RELATIONSHIP_WITH_TRANSFORMATION(#162) 
SHAPE_REPRESENTATION_RELATIONSHIP() );
#162 = ITEM_DEFINED_TRANSFORMATION('','',#11,#15);
#163 = PRODUCT_DEFINITION_SHAPE('Placement','Placement of an item',#164
  );
#164 = NEXT_ASSEMBLY_USAGE_OCCURRENCE('274','part0','',#5,#51,$);
#165 = PRODUCT_RELATED_PRODUCT_CATEGORY('part',$,(#53));
#166 = SHAPE_DEFINITION_REPRESENTATION(#167,#173);
#167 = PRODUCT_DEFINITION_SHAPE('','',#168);
#168 = PRODUCT_DEFINITION('design','',#169,#172);
#169 = PRODUCT_DEFINITION_FORMATION('','',#170);
#170 = PRODUCT('part1','part1','',(#171));
#171 = PRODUCT_CONTEXT('',#2,'mechanical');
#172 = PRODUCT_DEFINITION_CONTEXT('part definition',#2,'design');
#173 = ADVANCED_BREP_SHAPE_REPRESENTATION('',(#11,#174),#272);
#174 = MANIFOLD_SOLID_BREP('',#175);
#175 = CLOSED_SHELL('',(#176,#264,#268));
#176 = ADVANCED_FACE('',(#177),#190,.T.);
#177 = FACE_BOUND('',#178,.T.);
#178 = EDGE_LOOP('',(#179,#213,#236,#263));
#179 = ORIENTED_EDGE('',*,*,#180,.F.);
#180 = EDGE_CURVE('',#181,#181,#183,.T.);
#181 = VERTEX_POINT('',#182);
#182 = CARTESIAN_POINT('',(213.60679774997,380.42260651806,4.E+03));
#183 = SURFACE_CURVE('',#184,(#189,#201),.PCURVE_S1.);
#184 = CIRCLE('',#185,90.);
#185 = AXIS2_PLACEMENT_3D('',#186,#187,#188);
#186 = CARTESIAN_POINT('',(123.60679774997,380.42260651806,4.E+03));
#187 = DIRECTION('',(0.,0.,1.));
#188 = DIRECTION('',(1.,0.,-0.));
#189 = PCURVE('',#190,#195);
#190 = CONICAL_SURFACE('',#191,150.,1.499887515185E-02);
#191 = AXIS2_PLACEMENT_3D('',#192,#193,#194);
#192 = CARTESIAN_POINT('',(123.60679774997,380.42260651806,0.));
#193 = DIRECTION('',(-0.,-0.,-1.));
#194 = DIRECTION('',(1.,0.,-0.));
#195 = DEFINITIONAL_REPRESENTATION('',(#196),#200);
#196 = LINE('',#197,#198);
#197 = CARTESIAN_POINT('',(-0.,-4.E+03));
#198 = VECTOR('',#199,1.);
#199 = DIRECTION('',(-1.,-0.));
#200 = ( GEOMETRIC_REPRESENTATION_CONTEXT(2) 
PARAMETRIC_REPRESENTATION_CONTEXT() REPRESENTATION_CONTEXT('2D SPACE',''
  ) );
#201 = PCURVE('',#202,#207);
#202 = PLANE('',#203);
#203 = AXIS2_PLACEMENT_3D('',#204,#205,#206);
#204 = CARTESIAN_POINT('',(123.60679774997,380.42260651806,4.E+03));
#205 = DIRECTION('',(0.,0.,1.));
#206 = DIRECTION('',(1.,0.,-0.));
#207 = DEFINITIONAL_REPRESENTATION('',(#208),#212);
#208 = CIRCLE('',#209,90.);
#209 = AXIS2_PLACEMENT_2D('',#210,#211);
#210 = CARTESIAN_POINT('',(0.,0.));
#211 = DIRECTION('',(1.,0.));
#212 = ( GEOMETRIC_REPRESENTATION_CONTEXT(2) 
PARAMETRIC_REPRESENTATION_CONTEXT() REPRESENTATION_CONTEXT('2D SPACE',''
  ) );
#213 = ORIENTED_EDGE('',*,*,#214,.F.);
#214 = EDGE_CURVE('',#215,#181,#217,.T.);
#215 = VERTEX_POINT('',#216);
#216 = CARTESIAN_POINT('',(273.60679774997,380.42260651806,0.));
#217 = SEAM_CURVE('',#218,(#222,#229),.PCURVE_S1.);
#218 = LINE('',#219,#220);
#219 = CARTESIAN_POINT('',(273.60679774997,380.42260651806,0.));
#220 = VECTOR('',#221,1.);
#221 = DIRECTION('',(-1.499831278471E-02,3.673527148882E-18,
    0.999887518981));
#222 = PCURVE('',#190,#223);
#223 = DEFINITIONAL_REPRESENTATION('',(#224),#228);
#224 = LINE('',#225,#226);
#225 = CARTESIAN_POINT('',(-6.28318530718,0.));
#226 = VECTOR('',#227,1.);
#227 = DIRECTION('',(-0.,-1.));
#228 = ( GEOMETRIC_REPRESENTATION_CONTEXT(2) 
PARAMETRIC_REPRESENTATION_CONTEXT() REPRESENTATION_CONTEXT('2D SPACE',''
  ) );
#229 = PCURVE('',#190,#230);
#230 = DEFINITIONAL_REPRESENTATION('',(#231),#235);
#231 = LINE('',#232,#233);
#232 = CARTESIAN_POINT('',(0.,-0.));
#233 = VECTOR('',#234,1.);
#234 = DIRECTION('',(-0.,-1.));
#235 = ( GEOMETRIC_REPRESENTATION_CONTEXT(2) 
PARAMETRIC_REPRESENTATION_CONTEXT() REPRESENTATION_CONTEXT('2D SPACE',''
  ) );
#236 = ORIENTED_EDGE('',*,*,#237,.T.);
#237 = EDGE_CURVE('',#215,#215,#238,.T.);
#238 = SURFACE_CURVE('',#239,(#244,#251),.PCURVE_S1.);
#239 = CIRCLE('',#240,150.);
#240 = AXIS2_PLACEMENT_3D('',#241,#242,#243);
#241 = CARTESIAN_POINT('',(123.60679774997,380.42260651806,0.));
#242 = DIRECTION('',(0.,0.,1.));
#243 = DIRECTION('',(1.,0.,-0.));
#244 = PCURVE('',#190,#245);
#245 = DEFINITIONAL_REPRESENTATION('',(#246),#250);
#246 = LINE('',#247,#248);
#247 = CARTESIAN_POINT('',(-0.,-0.));
#248 = VECTOR('',#249,1.);
#249 = DIRECTION('',(-1.,-0.));
#250 = ( GEOMETRIC_REPRESENTATION_CONTEXT(2) 
PARAMETRIC_REPRESENTATION_CONTEXT() REPRESENTATION_CONTEXT('2D SPACE',''
  ) );
#251 = PCURVE('',#252,#257);
#252 = PLANE('',#253);
#253 = AXIS2_PLACEMENT_3D('',#254,#255,#256);
#254 = CARTESIAN_POINT('',(123.60679774997,380.42260651806,0.));
#255 = DIRECTION('',(0.,0.,1.));
#256 = DIRECTION('',(1.,0.,-0.));
#257 = DEFINITIONAL_REPRESENTATION('',(#258),#262);
#258 = CIRCLE('',#259,150.);
#259 = AXIS2_PLACEMENT_2D('',#260,#261);
#260 = CARTESIAN_POINT('',(0.,0.));
#261 = DIRECTION('',(1.,0.));
#262 = ( GEOMETRIC_REPRESENTATION_CONTEXT(2) 
PARAMETRIC_REPRESENTATION_CONTEXT() REPRESENTATION_CONTEXT('2D SPACE',''
  ) );
#263 = ORIENTED_EDGE('',*,*,#214,.T.);
#264 = ADVANCED_FACE('',(#265),#202,.T.);
#265 = FACE_BOUND('',#266,.T.);
#266 = EDGE_LOOP('',(#267));
#267 = ORIENTED_EDGE('',*,*,#180,.T.);
#268 = ADVANCED_FACE('',(#269),#252,.F.);
#269 = FACE_BOUND('',#270,.T.);
#270 = EDGE_LOOP('',(#271));
#271 = ORIENTED_EDGE('',*,*,#237,.F.);
#272 = ( GEOMETRIC_REPRESENTATION_CONTEXT(3) 
GLOBAL_UNCERTAINTY_ASSIGNED_CONTEXT((#276)) GLOBAL_UNIT_ASSIGNED_CONTEXT
((#273,#274,#275)) REPRESENTATION_CONTEXT('Context #1',
  '3D Context with UNIT and UNCERTAINTY') );
#273 = ( LENGTH_UNIT() NAMED_UNIT(*) SI_UNIT(.MILLI.,.METRE.) );
#274 = ( NAMED_UNIT(*) PLANE_ANGLE_UNIT() SI_UNIT($,.RADIAN.) );
#275 = ( NAMED_UNIT(*) SI_UNIT($,.STERADIAN.) SOLID_ANGLE_UNIT() );
#276 = UNCERTAINTY_MEASURE_WITH_UNIT(LENGTH_MEASURE(1.E-07),#273,
  'distance_accuracy_value','confusion accuracy');
#277 = CONTEXT_DEPENDENT_SHAPE_REPRESENTATION(#278,#280);
#278 = ( REPRESENTATION_RELATIONSHIP('','',#173,#10) 
REPRESENTATION_RELATIONSHIP_WITH_TRANSFORMATION(#279) 
SHAPE_REPRESENTATION_RELATIONSHIP() );
#279 = ITEM_DEFINED_TRANSFORMATION('','',#11,#19);
#280 = PRODUCT_DEFINITION_SHAPE('Placement','Placement of an item',#281
  );
#281 = NEXT_ASSEMBLY_USAGE_OCCURRENCE('275','part1','',#5,#168,$);
#282 = PRODUCT_RELATED_PRODUCT_CATEGORY('part',$,(#170));
#283 = SHAPE_DEFINITION_REPRESENTATION(#284,#290);
#284 = PRODUCT_DEFINITION_SHAPE('','',#285);
#285 = PRODUCT_DEFINITION('design','',#286,#289);
#286 = PRODUCT_DEFINITION_FORMATION('','',#287);
#287 = PRODUCT('part2','part2','',(#288));
#288 = PRODUCT_CONTEXT('',#2,'mechanical');
#289 = PRODUCT_DEFINITION_CONTEXT('part definition',#2,'design');
#290 = ADVANCED_BREP_SHAPE_REPRESENTATION('',(#11,#291),#389);
#291 = MANIFOLD_SOLID_BREP('',#292);
#292 = CLOSED_SHELL('',(#293,#381,#385));
#293 = ADVANCED_FACE('',(#294),#307,.T.);
#294 = FACE_BOUND('',#295,.T.);
#295 = EDGE_LOOP('',(#296,#330,#353,#380));
#296 = ORIENTED_EDGE('',*,*,#297,.F.);
#297 = EDGE_CURVE('',#298,#298,#300,.T.);
#298 = VERTEX_POINT('',#299);
#299 = CARTESIAN_POINT('',(-233.6067977499,235.11410091698,4.E+03));
#300 = SURFACE_CURVE('',#301,(#306,#318),.PCURVE_S1.);
#301 = CIRCLE('',#302,90.);
#302 = AXIS2_PLACEMENT_3D('',#303,#304,#305);
#303 = CARTESIAN_POINT('',(-323.6067977499,235.11410091698,4.E+03));
#304 = DIRECTION('',(0.,0.,1.));
#305 = DIRECTION('',(1.,0.,-0.));
#306 = PCURVE('',#307,#312);
#307 = CONICAL_SURFACE('',#308,150.,1.499887515185E-02);
#308 = AXIS2_PLACEMENT_3D('',#309,#310,#311);
#309 = CARTESIAN_POINT('',(-323.6067977499,235.11410091698,0.));
#310 = DIRECTION('',(-0.,-0.,-1.));
#311 = DIRECTION('',(1.,0.,-0.));
#312 = DEFINITIONAL_REPRESENTATION('',(#313),#317);
#313 = LINE('',#314,#315);
#314 = CARTESIAN_POINT('',(-0.,-4.E+03));
#315 = VECTOR('',#316,1.);
#316 = DIRECTION('',(-1.,-0.));
#317 = ( GEOMETRIC_REPRESENTATION_CONTEXT(2) 
PARAMETRIC_REPRESENTATION_CONTEXT() REPRESENTATION_CONTEXT('2D SPACE',''
  ) );
#318 = PCURVE('',#319,#324);
#319 = PLANE('',#320);
#320 = AXIS2_PLACEMENT_3D('',#321,#322,#323);
#321 = CARTESIAN_POINT('',(-323.6067977499,235.11410091698,4.E+03));
#322 = DIRECTION('',(0.,0.,1.));
#323 = DIRECTION('',(1.,0.,-0.));
#324 = DEFINITIONAL_REPRESENTATION('',(#325),#329);
#325 = CIRCLE('',#326,90.);
#326 = AXIS2_PLACEMENT_2D('',#327,#328);
#327 = CARTESIAN_POINT('',(0.,0.));
#328 = DIRECTION('',(1.,0.));
#329 = ( GEOMETRIC_REPRESENTATION_CONTEXT(2) 
PARAMETRIC_REPRESENTATION_CONTEXT() REPRESENTATION_CONTEXT('2D SPACE',''
  ) );
#330 = ORIENTED_EDGE('',*,*,#331,.F.);
#331 = EDGE_CURVE('',#332,#298,#334,.T.);
#332 = VERTEX_POINT('',#333);
#333 = CARTESIAN_POINT('',(-173.6067977499,235.11410091698,0.));
#334 = SEAM_CURVE('',#335,(#339,#346),.PCURVE_S1.);
#335 = LINE('',#336,#337);
#336 = CARTESIAN_POINT('',(-173.6067977499,235.11410091698,0.));
#337 = VECTOR('',#338,1.);
#338 = DIRECTION('',(-1.499831278471E-02,3.673527148882E-18,
    0.999887518981));
#339 = PCURVE('',#307,#340);
#340 = DEFINITIONAL_REPRESENTATION('',(#341),#345);
#341 = LINE('',#342,#343);
#342 = CARTESIAN_POINT('',(-6.28318530718,0.));
#343 = VECTOR('',#344,1.);
#344 = DIRECTION('',(-0.,-1.));
#345 = ( GEOMETRIC_REPRESENTATION_CONTEXT(2) 
PARAMETRIC_REPRESENTATION_CONTEXT() REPRESENTATION_CONTEXT('2D SPACE',''
  ) );
#346 = PCURVE('',#307,#347);
#347 = DEFINITIONAL_REPRESENTATION('',(#348),#352);
#348 = LINE('',#349,#350);
#349 = CARTESIAN_POINT('',(0.,-0.));
#350 = VECTOR('',#351,1.);
#351 = DIRECTION('',(-0.,-1.));
#352 = ( GEOMETRIC_REPRESENTATION_CONTEXT(2) 
PARAMETRIC_REPRESENTATION_CONTEXT() REPRESENTATION_CONTEXT('2D SPACE',''
  ) );
#353 = ORIENTED_EDGE('',*,*,#354,.T.);
#354 = EDGE_CURVE('',#332,#332,#355,.T.);
#355 = SURFACE_CURVE('',#356,(#361,#368),.PCURVE_S1.);
#356 = CIRCLE('',#357,150.);
#357 = AXIS2_PLACEMENT_3D('',#358,#359,#360);
#358 = CARTESIAN_POINT('',(-323.6067977499,235.11410091698,0.));
#359 = DIRECTION('',(0.,0.,1.));
#360 = DIRECTION('',(1.,0.,-0.));
#361 = PCURVE('',#307,#362);
#362 = DEFINITIONAL_REPRESENTATION('',(#363),#367);
#363 = LINE('',#364,#365);
#364 = CARTESIAN_POINT('',(-0.,-0.));
#365 = VECTOR('',#366,1.);
#366 = DIRECTION('',(-1.,-0.));
#367 = ( GEOMETRIC_REPRESENTATION_CONTEXT(2) 
PARAMETRIC_REPRESENTATION_CONTEXT() REPRESENTATION_CONTEXT('2D SPACE',''
  ) );
#368 = PCURVE('',#369,#374);
#369 = PLANE('',#370);
#370 = AXIS2_PLACEMENT_3D('',#371,#372,#373);
#371 = CARTESIAN_POINT('',(-323.6067977499,235.11410091698,0.));
#372 = DIRECTION('',(0.,0.,1.));
#373 = DIRECTION('',(1.,0.,-0.));
#374 = DEFINITIONAL_REPRESENTATION('',(#375),#379);
#375 = CIRCLE('',#376,150.);
#376 = AXIS2_PLACEMENT_2D('',#377,#378);
#377 = CARTESIAN_POINT('',(0.,0.));
#378 = DIRECTION('',(1.,0.));
#379 = ( GEOMETRIC_REPRESENTATION_CONTEXT(2) 
PARAMETRIC_REPRESENTATION_CONTEXT() REPRESENTATION_CONTEXT('2D SPACE',''
  ) );
#380 = ORIENTED_EDGE('',*,*,#331,.T.);
#381 = ADVANCED_FACE('',(#382),#319,.T.);
#382 = FACE_BOUND('',#383,.T.);
#383 = EDGE_LOOP('',(#384));
#384 = ORIENTED_EDGE('',*,*,#297,.T.);
#385 = ADVANCED_FACE('',(#386),#369,.F.);
#386 = FACE_BOUND('',#387,.T.);
#387 = EDGE_LOOP('',(#388));
#388 = ORIENTED_EDGE('',*,*,#354,.F.);
#389 = ( GEOMETRIC_REPRESENTATION_CONTEXT(3) 
GLOBAL_UNCERTAINTY_ASSIGNED_CONTEXT((#393)) GLOBAL_UNIT_ASSIGNED_CONTEXT
((#390,#391,#392)) REPRESENTATION_CONTEXT('Context #1',
  '3D Context with UNIT and UNCERTAINTY') );
#390 = ( LENGTH_UNIT() NAMED_UNIT(*) SI_UNIT(.MILLI.,.METRE.) );
#391 = ( NAMED_UNIT(*) PLANE_ANGLE_UNIT() SI_UNIT($,.RADIAN.) );
#392 = ( NAMED_UNIT(*) SI_UNIT($,.STERADIAN.) SOLID_ANGLE_UNIT() );
#393 = UNCERTAINTY_MEASURE_WITH_UNIT(LENGTH_MEASURE(1.E-07),#390,
  'distance_accuracy_value','confusion accuracy');
#394 = CONTEXT_DEPENDENT_SHAPE_REPRESENTATION(#395,#397);
#395 = ( REPRESENTATION_RELATIONSHIP('','',#290,#10) 
REPRESENTATION_RELATIONSHIP_WITH_TRANSFORMATION(#396) 
SHAPE_REPRESENTATION_RELATIONSHIP() );
#396 = ITEM_DEFINED_TRANSFORMATION('','',#11,#23);
#397 = PRODUCT_DEFINITION_SHAPE('Placement','Placement of an item',#398
  );
#398 = NEXT_ASSEMBLY_USAGE_OCCURRENCE('276','part2','',#5,#285,$);
#399 = PRODUCT_RELATED_PRODUCT_CATEGORY('part',$,(#287));
#400 = SHAPE_DEFINITION_REPRESENTATION(#401,#407);
#401 = PRODUCT_DEFINITION_SHAPE('','',#402);
#402 = PRODUCT_DEFINITION('design','',#403,#406);
#403 = PRODUCT_DEFINITION_FORMATION('','',#404);
#404 = PRODUCT('part3','part3','',(#405));
#405 = PRODUCT_CONTEXT('',#2,'mechanical');
#406 = PRODUCT_DEFINITION_CONTEXT('part definition',#2,'design');
#407 = ADVANCED_BREP_SHAPE_REPRESENTATION('',(#11,#408),#506);
#408 = MANIFOLD_SOLID_BREP('',#409);
#409 = CLOSED_SHELL('',(#410,#498,#502));
#410 = ADVANCED_FACE('',(#411),#424,.T.);
#411 = FACE_BOUND('',#412,.T.);
#412 = EDGE_LOOP('',(#413,#447,#470,#497));
#413 = ORIENTED_EDGE('',*,*,#414,.F.);
#414 = EDGE_CURVE('',#415,#415,#417,.T.);
#415 = VERTEX_POINT('',#416);
#416 = CARTESIAN_POINT('',(-233.6067977499,-235.1141009169,4.E+03));
#417 = SURFACE_CURVE('',#418,(#423,#435),.PCURVE_S1.);
#418 = CIRCLE('',#419,90.);
#419 = AXIS2_PLACEMENT_3D('',#420,#421,#422);
#420 = CARTESIAN_POINT('',(-323.6067977499,-235.1141009169,4.E+03));
#421 = DIRECTION('',(0.,0.,1.));
#422 = DIRECTION('',(1.,0.,-0.));
#423 = PCURVE('',#424,#429);
#424 = CONICAL_SURFACE('',#425,150.,1.499887515185E-02);
#425 = AXIS2_PLACEMENT_3D('',#426,#427,#428);
#426 = CARTESIAN_POINT('',(-323.6067977499,-235.1141009169,0.));
#427 = DIRECTION('',(-0.,-0.,-1.));
#428 = DIRECTION('',(1.,0.,-0.));
#429 = DEFINITIONAL_REPRESENTATION('',(#430),#434);
#430 = LINE('',#431,#432);
#431 = CARTESIAN_POINT('',(-0.,-4.E+03));
#432 = VECTOR('',#433,1.);
#433 = DIRECTION('',(-1.,-0.));
#434 = ( GEOMETRIC_REPRESENTATION_CONTEXT(2) 
PARAMETRIC_REPRESENTATION_CONTEXT() REPRESENTATION_CONTEXT('2D SPACE',''
  ) );
#435 = PCURVE('',#436,#441);
#436 = PLANE('',#437);
#437 = AXIS2_PLACEMENT_3D('',#438,#439,#440);
#438 = CARTESIAN_POINT('',(-323.6067977499,-235.1141009169,4.E+03));
#439 = DIRECTION('',(0.,0.,1.));
#440 = DIRECTION('',(1.,0.,-0.));
#441 = DEFINITIONAL_REPRESENTATION('',(#442),#446);
#442 = CIRCLE('',#443,90.);
#443 = AXIS2_PLACEMENT_2D('',#444,#445);
#444 = CARTESIAN_POINT('',(0.,0.));
#445 = DIRECTION('',(1.,0.));
#446 = ( GEOMETRIC_REPRESENTATION_CONTEXT(2) 
PARAMETRIC_REPRESENTATION_CONTEXT() REPRESENTATION_CONTEXT('2D SPACE',''
  ) );
#447 = ORIENTED_EDGE('',*,*,#448,.F.);
#448 = EDGE_CURVE('',#449,#415,#451,.T.);
#449 = VERTEX_POINT('',#450);
#450 = CARTESIAN_POINT('',(-173.6067977499,-235.1141009169,0.));
#451 = SEAM_CURVE('',#452,(#456,#463),.PCURVE_S1.);
#452 = LINE('',#453,#454);
#453 = CARTESIAN_POINT('',(-173.6067977499,-235.1141009169,0.));
#454 = VECTOR('',#455,1.);
#455 = DIRECTION('',(-1.499831278471E-02,3.673527148882E-18,
    0.999887518981));
#456 = PCURVE('',#424,#457);
#457 = DEFINITIONAL_REPRESENTATION('',(#458),#462);
#458 = LINE('',#459,#460);
#459 = CARTESIAN_POINT('',(-6.28318530718,0.));
#460 = VECTOR('',#461,1.);
#461 = DIRECTION('',(-0.,-1.));
#462 = ( GEOMETRIC_REPRESENTATION_CONTEXT(2) 
PARAMETRIC_REPRESENTATION_CONTEXT() REPRESENTATION_CONTEXT('2D SPACE',''
  ) );
#463 = PCURVE('',#424,#464);
#464 = DEFINITIONAL_REPRESENTATION('',(#465),#469);
#465 = LINE('',#466,#467);
#466 = CARTESIAN_POINT('',(0.,-0.));
#467 = VECTOR('',#468,1.);
#468 = DIRECTION('',(-0.,-1.));
#469 = ( GEOMETRIC_REPRESENTATION_CONTEXT(2) 
PARAMETRIC_REPRESENTATION_CONTEXT() REPRESENTATION_CONTEXT('2D SPACE',''
  ) );
#470 = ORIENTED_EDGE('',*,*,#471,.T.);
#471 = EDGE_CURVE('',#449,#449,#472,.T.);
#472 = SURFACE_CURVE('',#473,(#478,#485),.PCURVE_S1.);
#473 = CIRCLE('',#474,150.);
#474 = AXIS2_PLACEMENT_3D('',#475,#476,#477);
#475 = CARTESIAN_POINT('',(-323.6067977499,-235.1141009169,0.));
#476 = DIRECTION('',(0.,0.,1.));
#477 = DIRECTION('',(1.,0.,-0.));
#478 = PCURVE('',#424,#479);
#479 = DEFINITIONAL_REPRESENTATION('',(#480),#484);
#480 = LINE('',#481,#482);
#481 = CARTESIAN_POINT('',(-0.,-0.));
#482 = VECTOR('',#483,1.);
#483 = DIRECTION('',(-1.,-0.));
#484 = ( GEOMETRIC_REPRESENTATION_CONTEXT(2) 
PARAMETRIC_REPRESENTATION_CONTEXT() REPRESENTATION_CONTEXT('2D SPACE',''
  ) );
#485 = PCURVE('',#486,#491);
#486 = PLANE('',#487);
#487 = AXIS2_PLACEMENT_3D('',#488,#489,#490);
#488 = CARTESIAN_POINT('',(-323.6067977499,-235.1141009169,0.));
#489 = DIRECTION('',(0.,0.,1.));
#490 = DIRECTION('',(1.,0.,-0.));
#491 = DEFINITIONAL_REPRESENTATION('',(#492),#496);
#492 = CIRCLE('',#493,150.);
#493 = AXIS2_PLACEMENT_2D('',#494,#495);
#494 = CARTESIAN_POINT('',(0.,0.));
#495 = DIRECTION('',(1.,0.));
#496 = ( GEOMETRIC_REPRESENTATION_CONTEXT(2) 
PARAMETRIC_REPRESENTATION_CONTEXT() REPRESENTATION_CONTEXT('2D SPACE',''
  ) );
#497 = ORIENTED_EDGE('',*,*,#448,.T.);
#498 = ADVANCED_FACE('',(#499),#436,.T.);
#499 = FACE_BOUND('',#500,.T.);
#500 = EDGE_LOOP('',(#501));
#501 = ORIENTED_EDGE('',*,*,#414,.T.);
#502 = ADVANCED_FACE('',(#503),#486,.F.);
#503 = FACE_BOUND('',#504,.T.);
#504 = EDGE_LOOP('',(#505));
#505 = ORIENTED_EDGE('',*,*,#471,.F.);
#506 = ( GEOMETRIC_REPRESENTATION_CONTEXT(3) 
GLOBAL_UNCERTAINTY_ASSIGNED_CONTEXT((#510)) GLOBAL_UNIT_ASSIGNED_CONTEXT
((#507,#508,#509)) REPRESENTATION_CONTEXT('Context #1',
  '3D Context with UNIT and UNCERTAINTY') );
#507 = ( LENGTH_UNIT() NAMED_UNIT(*) SI_UNIT(.MILLI.,.METRE.) );
#508 = ( NAMED_UNIT(*) PLANE_ANGLE_UNIT() SI_UNIT($,.RADIAN.) );
#509 = ( NAMED_UNIT(*) SI_UNIT($,.STERADIAN.) SOLID_ANGLE_UNIT() );
#510 = UNCERTAINTY_MEASURE_WITH_UNIT(LENGTH_MEASURE(1.E-07),#507,
  'distance_accuracy_value','confusion accuracy');
#511 = CONTEXT_DEPENDENT_SHAPE_REPRESENTATION(#512,#514);
#512 = ( REPRESENTATION_RELATIONSHIP('','',#407,#10) 
REPRESENTATION_RELATIONSHIP_WITH_TRANSFORMATION(#513) 
SHAPE_REPRESENTATION_RELATIONSHIP() );
#513 = ITEM_DEFINED_TRANSFORMATION('','',#11,#27);
#514 = PRODUCT_DEFINITION_SHAPE('Placement','Placement of an item',#515
  );
#515 = NEXT_ASSEMBLY_USAGE_OCCURRENCE('277','part3','',#5,#402,$);
#516 = PRODUCT_RELATED_PRODUCT_CATEGORY('part',$,(#404));
#517 = SHAPE_DEFINITION_REPRESENTATION(#518,#524);
#518 = PRODUCT_DEFINITION_SHAPE('','',#519);
#519 = PRODUCT_DEFINITION('design','',#520,#523);
#520 = PRODUCT_DEFINITION_FORMATION('','',#521);
#521 = PRODUCT('part4','part4','',(#522));
#522 = PRODUCT_CONTEXT('',#2,'mechanical');
#523 = PRODUCT_DEFINITION_CONTEXT('part definition',#2,'design');
#524 = ADVANCED_BREP_SHAPE_REPRESENTATION('',(#11,#525),#623);
#525 = MANIFOLD_SOLID_BREP('',#526);
#526 = CLOSED_SHELL('',(#527,#615,#619));
#527 = ADVANCED_FACE('',(#528),#541,.T.);
#528 = FACE_BOUND('',#529,.T.);
#529 = EDGE_LOOP('',(#530,#564,#587,#614));
#530 = ORIENTED_EDGE('',*,*,#531,.F.);
#531 = EDGE_CURVE('',#532,#532,#534,.T.);
#532 = VERTEX_POINT('',#533);
#533 = CARTESIAN_POINT('',(213.60679774997,-380.422606518,4.E+03));
#534 = SURFACE_CURVE('',#535,(#540,#552),.PCURVE_S1.);
#535 = CIRCLE('',#536,90.);
#536 = AXIS2_PLACEMENT_3D('',#537,#538,#539);
#537 = CARTESIAN_POINT('',(123.60679774997,-380.422606518,4.E+03));
#538 = DIRECTION('',(0.,0.,1.));
#539 = DIRECTION('',(1.,0.,-0.));
#540 = PCURVE('',#541,#546);
#541 = CONICAL_SURFACE('',#542,150.,1.499887515185E-02);
#542 = AXIS2_PLACEMENT_3D('',#543,#544,#545);
#543 = CARTESIAN_POINT('',(123.60679774997,-380.422606518,0.));
#544 = DIRECTION('',(-0.,-0.,-1.));
#545 = DIRECTION('',(1.,0.,-0.));
#546 = DEFINITIONAL_REPRESENTATION('',(#547),#551);
#547 = LINE('',#548,#549);
#548 = CARTESIAN_POINT('',(-0.,-4.E+03));
#549 = VECTOR('',#550,1.);
#550 = DIRECTION('',(-1.,-0.));
#551 = ( GEOMETRIC_REPRESENTATION_CONTEXT(2) 
PARAMETRIC_REPRESENTATION_CONTEXT() REPRESENTATION_CONTEXT('2D SPACE',''
  ) );
#552 = PCURVE('',#553,#558);
#553 = PLANE('',#554);
#554 = AXIS2_PLACEMENT_3D('',#555,#556,#557);
#555 = CARTESIAN_POINT('',(123.60679774997,-380.422606518,4.E+03));
#556 = DIRECTION('',(0.,0.,1.));
#557 = DIRECTION('',(1.,0.,-0.));
#558 = DEFINITIONAL_REPRESENTATION('',(#559),#563);
#559 = CIRCLE('',#560,90.);
#560 = AXIS2_PLACEMENT_2D('',#561,#562);
#561 = CARTESIAN_POINT('',(0.,0.));
#562 = DIRECTION('',(1.,0.));
#563 = ( GEOMETRIC_REPRESENTATION_CONTEXT(2) 
PARAMETRIC_REPRESENTATION_CONTEXT() REPRESENTATION_CONTEXT('2D SPACE',''
  ) );
#564 = ORIENTED_EDGE('',*,*,#565,.F.);
#565 = EDGE_CURVE('',#566,#532,#568,.T.);
#566 = VERTEX_POINT('',#567);
#567 = CARTESIAN_POINT('',(273.60679774997,-380.422606518,0.));
#568 = SEAM_CURVE('',#569,(#573,#580),.PCURVE_S1.);
#569 = LINE('',#570,#571);
#570 = CARTESIAN_POINT('',(273.60679774997,-380.422606518,0.));
#571 = VECTOR('',#572,1.);
#572 = DIRECTION('',(-1.499831278471E-02,3.673527148882E-18,
    0.999887518981));
#573 = PCURVE('',#541,#574);
#574 = DEFINITIONAL_REPRESENTATION('',(#575),#579);
#575 = LINE('',#576,#577);
#576 = CARTESIAN_POINT('',(-6.28318530718,0.));
#577 = VECTOR('',#578,1.);
#578 = DIRECTION('',(-0.,-1.));
#579 = ( GEOMETRIC_REPRESENTATION_CONTEXT(2) 
PARAMETRIC_REPRESENTATION_CONTEXT() REPRESENTATION_CONTEXT('2D SPACE',''
  ) );
#580 = PCURVE('',#541,#581);
#581 = DEFINITIONAL_REPRESENTATION('',(#582),#586);
#582 = LINE('',#583,#584);
#583 = CARTESIAN_POINT('',(0.,-0.));
#584 = VECTOR('',#585,1.);
#585 = DIRECTION('',(-0.,-1.));
#586 = ( GEOMETRIC_REPRESENTATION_CONTEXT(2) 
PARAMETRIC_REPRESENTATION_CONTEXT() REPRESENTATION_CONTEXT('2D SPACE',''
  ) );
#587 = ORIENTED_EDGE('',*,*,#588,.T.);
#588 = EDGE_CURVE('',#566,#566,#589,.T.);
#589 = SURFACE_CURVE('',#590,(#595,#602),.PCURVE_S1.);
#590 = CIRCLE('',#591,150.);
#591 = AXIS2_PLACEMENT_3D('',#592,#593,#594);
#592 = CARTESIAN_POINT('',(123.60679774997,-380.422606518,0.));
#593 = DIRECTION('',(0.,0.,1.));
#594 = DIRECTION('',(1.,0.,-0.));
#595 = PCURVE('',#541,#596);
#596 = DEFINITIONAL_REPRESENTATION('',(#597),#601);
#597 = LINE('',#598,#599);
#598 = CARTESIAN_POINT('',(-0.,-0.));
#599 = VECTOR('',#600,1.);
#600 = DIRECTION('',(-1.,-0.));
#601 = ( GEOMETRIC_REPRESENTATION_CONTEXT(2) 
PARAMETRIC_REPRESENTATION_CONTEXT() REPRESENTATION_CONTEXT('2D SPACE',''
  ) );
#602 = PCURVE('',#603,#608);
#603 = PLANE('',#604);
#604 = AXIS2_PLACEMENT_3D('',#605,#606,#607);
#605 = CARTESIAN_POINT('',(123.60679774997,-380.422606518,0.));
#606 = DIRECTION('',(0.,0.,1.));
#607 = DIRECTION('',(1.,0.,-0.));
#608 = DEFINITIONAL_REPRESENTATION('',(#609),#613);
#609 = CIRCLE('',#610,150.);
#610 = AXIS2_PLACEMENT_2D('',#611,#612);
#611 = CARTESIAN_POINT('',(0.,0.));
#612 = DIRECTION('',(1.,0.));
#613 = ( GEOMETRIC_REPRESENTATION_CONTEXT(2) 
PARAMETRIC_REPRESENTATION_CONTEXT() REPRESENTATION_CONTEXT('2D SPACE',''
  ) );
#614 = ORIENTED_EDGE('',*,*,#565,.T.);
#615 = ADVANCED_FACE('',(#616),#553,.T.);
#616 = FACE_BOUND('',#617,.T.);
#617 = EDGE_LOOP('',(#618));
#618 = ORIENTED_EDGE('',*,*,#531,.T.);
#619 = ADVANCED_FACE('',(#620),#603,.F.);
#620 = FACE_BOUND('',#621,.T.);
#621 = EDGE_LOOP('',(#622));
#622 = ORIENTED_EDGE('',*,*,#588,.F.);
#623 = ( GEOMETRIC_REPRESENTATION_CONTEXT(3) 
GLOBAL_UNCERTAINTY_ASSIGNED_CONTEXT((#627)) GLOBAL_UNIT_ASSIGNED_CONTEXT
((#624,#625,#626)) REPRESENTATION_CONTEXT('Context #1',
  '3D Context with UNIT and UNCERTAINTY') );
#624 = ( LENGTH_UNIT() NAMED_UNIT(*) SI_UNIT(.MILLI.,.METRE.) );
#625 = ( NAMED_UNIT(*) PLANE_ANGLE_UNIT() SI_UNIT($,.RADIAN.) );
#626 = ( NAMED_UNIT(*) SI_UNIT($,.STERADIAN.) SOLID_ANGLE_UNIT() );
#627 = UNCERTAINTY_MEASURE_WITH_UNIT(LENGTH_MEASURE(1.E-07),#624,
  'distance_accuracy_value','confusion accuracy');
#628 = CONTEXT_DEPENDENT_SHAPE_REPRESENTATION(#629,#631);
#629 = ( REPRESENTATION_RELATIONSHIP('','',#524,#10) 
REPRESENTATION_RELATIONSHIP_WITH_TRANSFORMATION(#630) 
SHAPE_REPRESENTATION_RELATIONSHIP() );
#630 = ITEM_DEFINED_TRANSFORMATION('','',#11,#31);
#631 = PRODUCT_DEFINITION_SHAPE('Placement','Placement of an item',#632
  );
#632 = NEXT_ASSEMBLY_USAGE_OCCURRENCE('278','part4','',#5,#519,$);
#633 = PRODUCT_RELATED_PRODUCT_CATEGORY('part',$,(#521));
#634 = SHAPE_DEFINITION_REPRESENTATION(#635,#641);
#635 = PRODUCT_DEFINITION_SHAPE('','',#636);
#636 = PRODUCT_DEFINITION('design','',#637,#640);
#637 = PRODUCT_DEFINITION_FORMATION('','',#638);
#638 = PRODUCT('part5','part5','',(#639));
#639 = PRODUCT_CONTEXT('',#2,'mechanical');
#640 = PRODUCT_DEFINITION_CONTEXT('part definition',#2,'design');
#641 = ADVANCED_BREP_SHAPE_REPRESENTATION('',(#11,#642),#685);
#642 = MANIFOLD_SOLID_BREP('',#643);
#643 = CLOSED_SHELL('',(#644));
#644 = ADVANCED_FACE('',(#645),#649,.T.);
#645 = FACE_BOUND('',#646,.T.);
#646 = VERTEX_LOOP('',#647);
#647 = VERTEX_POINT('',#648);
#648 = CARTESIAN_POINT('',(1.592040838892E-13,-3.899375434921E-29,
    1.8E+03));
#649 = ( BOUNDED_SURFACE() B_SPLINE_SURFACE(2,2,(
    (#650,#651,#652,#653,#654)
    ,(#655,#656,#657,#658,#659)
    ,(#660,#661,#662,#663,#664)
    ,(#665,#666,#667,#668,#669)
    ,(#670,#671,#672,#673,#674)
    ,(#675,#676,#677,#678,#679)
    ,(#680,#681,#682,#683,#684
)),.UNSPECIFIED.,.T.,.F.,.F.) B_SPLINE_SURFACE_WITH_KNOTS((1,2,2,2,2,1),
  (3,2,3),(-2.094395102393,0.,2.094395102393,4.188790204786,
    6.28318530718,8.377580409573),(-1.570796326795,0.,1.570796326795),
.UNSPECIFIED.) GEOMETRIC_REPRESENTATION_ITEM() RATIONAL_B_SPLINE_SURFACE
((
    (1.,0.707106781187,1.,0.707106781187,1.)
    ,(0.5,0.353553390593,0.5,0.353553390593,0.5)
    ,(1.,0.707106781187,1.,0.707106781187,1.)
    ,(0.5,0.353553390593,0.5,0.353553390593,0.5)
    ,(1.,0.707106781187,1.,0.707106781187,1.)
    ,(0.5,0.353553390593,0.5,0.353553390593,0.5)
,(1.,0.707106781187,1.,0.707106781187,1.
))) REPRESENTATION_ITEM('') SURFACE() );
#650 = CARTESIAN_POINT('',(1.592040838892E-13,0.,1.8E+03));
#651 = CARTESIAN_POINT('',(2.6E+03,0.,1.8E+03));
#652 = CARTESIAN_POINT('',(2.6E+03,0.,4.2E+03));
#653 = CARTESIAN_POINT('',(2.6E+03,0.,6.6E+03));
#654 = CARTESIAN_POINT('',(1.592040838892E-13,0.,6.6E+03));
#655 = CARTESIAN_POINT('',(1.592040838892E-13,2.757495620685E-13,1.8E+03
    ));
#656 = CARTESIAN_POINT('',(2.6E+03,4.503332099679E+03,1.8E+03));
#657 = CARTESIAN_POINT('',(2.6E+03,4.503332099679E+03,4.2E+03));
#658 = CARTESIAN_POINT('',(2.6E+03,4.503332099679E+03,6.6E+03));
#659 = CARTESIAN_POINT('',(1.592040838892E-13,2.757495620685E-13,6.6E+03
    ));
#660 = CARTESIAN_POINT('',(-7.960204194458E-14,1.378747810342E-13,
    1.8E+03));
#661 = CARTESIAN_POINT('',(-1.3E+03,2.25166604984E+03,1.8E+03));
#662 = CARTESIAN_POINT('',(-1.3E+03,2.25166604984E+03,4.2E+03));
#663 = CARTESIAN_POINT('',(-1.3E+03,2.25166604984E+03,6.6E+03));
#664 = CARTESIAN_POINT('',(-7.960204194458E-14,1.378747810342E-13,
    6.6E+03));
#665 = CARTESIAN_POINT('',(-3.184081677783E-13,3.899375434921E-29,
    1.8E+03));
#666 = CARTESIAN_POINT('',(-5.2E+03,6.368163355566E-13,1.8E+03));
#667 = CARTESIAN_POINT('',(-5.2E+03,6.368163355566E-13,4.2E+03));
#668 = CARTESIAN_POINT('',(-5.2E+03,6.368163355566E-13,6.6E+03));
#669 = CARTESIAN_POINT('',(-3.184081677783E-13,3.899375434921E-29,
    6.6E+03));
#670 = CARTESIAN_POINT('',(-7.960204194458E-14,-1.378747810342E-13,
    1.8E+03));
#671 = CARTESIAN_POINT('',(-1.3E+03,-2.25166604984E+03,1.8E+03));
#672 = CARTESIAN_POINT('',(-1.3E+03,-2.25166604984E+03,4.2E+03));
#673 = CARTESIAN_POINT('',(-1.3E+03,-2.25166604984E+03,6.6E+03));
#674 = CARTESIAN_POINT('',(-7.960204194458E-14,-1.378747810342E-13,
    6.6E+03));
#675 = CARTESIAN_POINT('',(1.592040838892E-13,-2.757495620685E-13,
    1.8E+03));
#676 = CARTESIAN_POINT('',(2.6E+03,-4.503332099679E+03,1.8E+03));
#677 = CARTESIAN_POINT('',(2.6E+03,-4.503332099679E+03,4.2E+03));
#678 = CARTESIAN_POINT('',(2.6E+03,-4.503332099679E+03,6.6E+03));
#679 = CARTESIAN_POINT('',(1.592040838892E-13,-2.757495620685E-13,
    6.6E+03));
#680 = CARTESIAN_POINT('',(1.592040838892E-13,0.,1.8E+03));
#681 = CARTESIAN_POINT('',(2.6E+03,0.,1.8E+03));
#682 = CARTESIAN_POINT('',(2.6E+03,0.,4.2E+03));
#683 = CARTESIAN_POINT('',(2.6E+03,0.,6.6E+03));
#684 = CARTESIAN_POINT('',(1.592040838892E-13,0.,6.6E+03));
#685 = ( GEOMETRIC_REPRESENTATION_CONTEXT(3) 
GLOBAL_UNCERTAINTY_ASSIGNED_CONTEXT((#689)) GLOBAL_UNIT_ASSIGNED_CONTEXT
((#686,#687,#688)) REPRESENTATION_CONTEXT('Context #1',
  '3D Context with UNIT and UNCERTAINTY') );
#686 = ( LENGTH_UNIT() NAMED_UNIT(*) SI_UNIT(.MILLI.,.METRE.) );
#687 = ( NAMED_UNIT(*) PLANE_ANGLE_UNIT() SI_UNIT($,.RADIAN.) );
#688 = ( NAMED_UNIT(*) SI_UNIT($,.STERADIAN.) SOLID_ANGLE_UNIT() );
#689 = UNCERTAINTY_MEASURE_WITH_UNIT(LENGTH_MEASURE(1.E-07),#686,
  'distance_accuracy_value','confusion accuracy');
#690 = CONTEXT_DEPENDENT_SHAPE_REPRESENTATION(#691,#693);
#691 = ( REPRESENTATION_RELATIONSHIP('','',#641,#10) 
REPRESENTATION_RELATIONSHIP_WITH_TRANSFORMATION(#692) 
SHAPE_REPRESENTATION_RELATIONSHIP() );
#692 = ITEM_DEFINED_TRANSFORMATION('','',#11,#35);
#693 = PRODUCT_DEFINITION_SHAPE('Placement','Placement of an item',#694
  );
#694 = NEXT_ASSEMBLY_USAGE_OCCURRENCE('279','part5','',#5,#636,$);
#695 = PRODUCT_RELATED_PRODUCT_CATEGORY('part',$,(#638));
#696 = SHAPE_DEFINITION_REPRESENTATION(#697,#703);
#697 = PRODUCT_DEFINITION_SHAPE('','',#698);
#698 = PRODUCT_DEFINITION('design','',#699,#702);
#699 = PRODUCT_DEFINITION_FORMATION('','',#700);
#700 = PRODUCT('part6','part6','',(#701));
#701 = PRODUCT_CONTEXT('',#2,'mechanical');
#702 = PRODUCT_DEFINITION_CONTEXT('part definition',#2,'design');
#703 = ADVANCED_BREP_SHAPE_REPRESENTATION('',(#11,#704),#747);
#704 = MANIFOLD_SOLID_BREP('',#705);
#705 = CLOSED_SHELL('',(#706));
#706 = ADVANCED_FACE('',(#707),#711,.T.);
#707 = FACE_BOUND('',#708,.T.);
#708 = VERTEX_LOOP('',#709);
#709 = VERTEX_POINT('',#710);
#710 = CARTESIAN_POINT('',(1.2E+03,600.,1.4E+03));
#711 = ( BOUNDED_SURFACE() B_SPLINE_SURFACE(2,2,(
    (#712,#713,#714,#715,#716)
    ,(#717,#718,#719,#720,#721)
    ,(#722,#723,#724,#725,#726)
    ,(#727,#728,#729,#730,#731)
    ,(#732,#733,#734,#735,#736)
    ,(#737,#738,#739,#740,#741)
    ,(#742,#743,#744,#745,#746
)),.UNSPECIFIED.,.T.,.F.,.F.) B_SPLINE_SURFACE_WITH_KNOTS((1,2,2,2,2,1),
  (3,2,3),(-2.094395102393,0.,2.094395102393,4.188790204786,
    6.28318530718,8.377580409573),(-1.570796326795,0.,1.570796326795),
.UNSPECIFIED.) GEOMETRIC_REPRESENTATION_ITEM() RATIONAL_B_SPLINE_SURFACE
((
    (1.,0.707106781187,1.,0.707106781187,1.)
    ,(0.5,0.353553390593,0.5,0.353553390593,0.5)
    ,(1.,0.707106781187,1.,0.707106781187,1.)
    ,(0.5,0.353553390593,0.5,0.353553390593,0.5)
    ,(1.,0.707106781187,1.,0.707106781187,1.)
    ,(0.5,0.353553390593,0.5,0.353553390593,0.5)
,(1.,0.707106781187,1.,0.707106781187,1.
))) REPRESENTATION_ITEM('') SURFACE() );
#712 = CARTESIAN_POINT('',(1.2E+03,600.,1.4E+03));
#713 = CARTESIAN_POINT('',(3.E+03,600.,1.4E+03));
#714 = CARTESIAN_POINT('',(3.E+03,600.,3.E+03));
#715 = CARTESIAN_POINT('',(3.E+03,600.,4.6E+03));
#716 = CARTESIAN_POINT('',(1.2E+03,600.,4.6E+03));
#717 = CARTESIAN_POINT('',(1.2E+03,600.,1.4E+03));
#718 = CARTESIAN_POINT('',(3.E+03,3.717691453624E+03,1.4E+03));
#719 = CARTESIAN_POINT('',(3.E+03,3.717691453624E+03,3.E+03));
#720 = CARTESIAN_POINT('',(3.E+03,3.717691453624E+03,4.6E+03));
#721 = CARTESIAN_POINT('',(1.2E+03,600.,4.6E+03));
#722 = CARTESIAN_POINT('',(1.2E+03,600.,1.4E+03));
#723 = CARTESIAN_POINT('',(300.,2.158845726812E+03,1.4E+03));
#724 = CARTESIAN_POINT('',(300.,2.158845726812E+03,3.E+03));
#725 = CARTESIAN_POINT('',(300.,2.158845726812E+03,4.6E+03));
#726 = CARTESIAN_POINT('',(1.2E+03,600.,4.6E+03));
#727 = CARTESIAN_POINT('',(1.2E+03,600.,1.4E+03));
#728 = CARTESIAN_POINT('',(-2.4E+03,600.,1.4E+03));
#729 = CARTESIAN_POINT('',(-2.4E+03,600.,3.E+03));
#730 = CARTESIAN_POINT('',(-2.4E+03,600.,4.6E+03));
#731 = CARTESIAN_POINT('',(1.2E+03,600.,4.6E+03));
#732 = CARTESIAN_POINT('',(1.2E+03,600.,1.4E+03));
#733 = CARTESIAN_POINT('',(299.99999999999,-958.8457268119,1.4E+03));
#734 = CARTESIAN_POINT('',(299.99999999999,-958.8457268119,3.E+03));
#735 = CARTESIAN_POINT('',(299.99999999999,-958.8457268119,4.6E+03));
#736 = CARTESIAN_POINT('',(1.2E+03,600.,4.6E+03));
#737 = CARTESIAN_POINT('',(1.2E+03,600.,1.4E+03));
#738 = CARTESIAN_POINT('',(3.E+03,-2.517691453624E+03,1.4E+03));
#739 = CARTESIAN_POINT('',(3.E+03,-2.517691453624E+03,3.E+03));
#740 = CARTESIAN_POINT('',(3.E+03,-2.517691453624E+03,4.6E+03));
#741 = CARTESIAN_POINT('',(1.2E+03,600.,4.6E+03));
#742 = CARTESIAN_POINT('',(1.2E+03,600.,1.4E+03));
#743 = CARTESIAN_POINT('',(3.E+03,600.,1.4E+03));
#744 = CARTESIAN_POINT('',(3.E+03,600.,3.E+03));
#745 = CARTESIAN_POINT('',(3.E+03,600.,4.6E+03));
#746 = CARTESIAN_POINT('',(1.2E+03,600.,4.6E+03));
#747 = ( GEOMETRIC_REPRESENTATION_CONTEXT(3) 
GLOBAL_UNCERTAINTY_ASSIGNED_CONTEXT((#751)) GLOBAL_UNIT_ASSIGNED_CONTEXT
((#748,#749,#750)) REPRESENTATION_CONTEXT('Context #1',
  '3D Context with UNIT and UNCERTAINTY') );
#748 = ( LENGTH_UNIT() NAMED_UNIT(*) SI_UNIT(.MILLI.,.METRE.) );
#749 = ( NAMED_UNIT(*) PLANE_ANGLE_UNIT() SI_UNIT($,.RADIAN.) );
#750 = ( NAMED_UNIT(*) SI_UNIT($,.STERADIAN.) SOLID_ANGLE_UNIT() );
#751 = UNCERTAINTY_MEASURE_WITH_UNIT(LENGTH_MEASURE(1.E-07),#748,
  'distance_accuracy_value','confusion accuracy');
#752 = CONTEXT_DEPENDENT_SHAPE_REPRESENTATION(#753,#755);
#753 = ( REPRESENTATION_RELATIONSHIP('','',#703,#10) 
REPRESENTATION_RELATIONSHIP_WITH_TRANSFORMATION(#754) 
SHAPE_REPRESENTATION_RELATIONSHIP() );
#754 = ITEM_DEFINED_TRANSFORMATION('','',#11,#39);
#755 = PRODUCT_DEFINITION_SHAPE('Placement','Placement of an item',#756
  );
#756 = NEXT_ASSEMBLY_USAGE_OCCURRENCE('280','part6','',#5,#698,$);
#757 = PRODUCT_RELATED_PRODUCT_CATEGORY('part',$,(#700));
#758 = MECHANICAL_DESIGN_GEOMETRIC_PRESENTATION_REPRESENTATION('',(#759)
  ,#747);
#759 = STYLED_ITEM('color',(#760),#704);
#760 = PRESENTATION_STYLE_ASSIGNMENT((#761));
#761 = SURFACE_STYLE_USAGE(.BOTH.,#762);
#762 = SURFACE_SIDE_STYLE('',(#763));
#763 = SURFACE_STYLE_FILL_AREA(#764);
#764 = FILL_AREA_STYLE('',(#765));
#765 = FILL_AREA_STYLE_COLOUR('',#766);
#766 = COLOUR_RGB('',0.254901961802,0.399999997426,0.227450982423);
#767 = MECHANICAL_DESIGN_GEOMETRIC_PRESENTATION_REPRESENTATION('',(#768)
  ,#155);
#768 = STYLED_ITEM('color',(#769),#57);
#769 = PRESENTATION_STYLE_ASSIGNMENT((#770));
#770 = SURFACE_STYLE_USAGE(.BOTH.,#771);
#771 = SURFACE_SIDE_STYLE('',(#772));
#772 = SURFACE_STYLE_FILL_AREA(#773);
#773 = FILL_AREA_STYLE('',(#774));
#774 = FILL_AREA_STYLE_COLOUR('',#775);
#775 = COLOUR_RGB('',0.305882355746,0.270588232293,0.235294113866);
#776 = MECHANICAL_DESIGN_GEOMETRIC_PRESENTATION_REPRESENTATION('',(#777)
  ,#685);
#777 = STYLED_ITEM('color',(#778),#642);
#778 = PRESENTATION_STYLE_ASSIGNMENT((#779));
#779 = SURFACE_STYLE_USAGE(.BOTH.,#780);
#780 = SURFACE_SIDE_STYLE('',(#781));
#781 = SURFACE_STYLE_FILL_AREA(#782);
#782 = FILL_AREA_STYLE('',(#783));
#783 = FILL_AREA_STYLE_COLOUR('',#766);
#784 = MECHANICAL_DESIGN_GEOMETRIC_PRESENTATION_REPRESENTATION('',(#785)
  ,#506);
#785 = STYLED_ITEM('color',(#786),#408);
#786 = PRESENTATION_STYLE_ASSIGNMENT((#787));
#787 = SURFACE_STYLE_USAGE(.BOTH.,#788);
#788 = SURFACE_SIDE_STYLE('',(#789));
#789 = SURFACE_STYLE_FILL_AREA(#790);
#790 = FILL_AREA_STYLE('',(#791));
#791 = FILL_AREA_STYLE_COLOUR('',#775);
#792 = MECHANICAL_DESIGN_GEOMETRIC_PRESENTATION_REPRESENTATION('',(#793)
  ,#623);
#793 = STYLED_ITEM('color',(#794),#525);
#794 = PRESENTATION_STYLE_ASSIGNMENT((#795));
#795 = SURFACE_STYLE_USAGE(.BOTH.,#796);
#796 = SURFACE_SIDE_STYLE('',(#797));
#797 = SURFACE_STYLE_FILL_AREA(#798);
#798 = FILL_AREA_STYLE('',(#799));
#799 = FILL_AREA_STYLE_COLOUR('',#775);
#800 = MECHANICAL_DESIGN_GEOMETRIC_PRESENTATION_REPRESENTATION('',(#801)
  ,#272);
#801 = STYLED_ITEM('color',(#802),#174);
#802 = PRESENTATION_STYLE_ASSIGNMENT((#803));
#803 = SURFACE_STYLE_USAGE(.BOTH.,#804);
#804 = SURFACE_SIDE_STYLE('',(#805));
#805 = SURFACE_STYLE_FILL_AREA(#806);
#806 = FILL_AREA_STYLE('',(#807));
#807 = FILL_AREA_STYLE_COLOUR('',#775);
#808 = MECHANICAL_DESIGN_GEOMETRIC_PRESENTATION_REPRESENTATION('',(#809)
  ,#389);
#809 = STYLED_ITEM('color',(#810),#291);
#810 = PRESENTATION_STYLE_ASSIGNMENT((#811));
#811 = SURFACE_STYLE_USAGE(.BOTH.,#812);
#812 = SURFACE_SIDE_STYLE('',(#813));
#813 = SURFACE_STYLE_FILL_AREA(#814);
#814 = FILL_AREA_STYLE('',(#815));
#815 = FILL_AREA_STYLE_COLOUR('',#775);
ENDSEC;
END-ISO-10303-21;
